<svg width="90" height="90" viewBox="0 0 90 90" fill="none" xmlns="http://www.w3.org/2000/svg">
<path d="M15.6783 57.9681L12.5781 50.5488H24.3588L28.079 57.9681H15.6783Z" stroke="black"/>
<path d="M38.6778 57.9681L35.8359 50.5488H46.6349L50.0451 57.9681H38.6778Z" stroke="black"/>
<path d="M14.0391 39.9785H23.0813" stroke="black"/>
<path d="M35.8359 39.4199H46.1699" stroke="#F47922"/>
<path d="M14.0391 43.6895H23.0813" stroke="black"/>
<path d="M35.8359 43.1289H46.1699" stroke="#F47922"/>
<path d="M14.0391 48.6348H23.0813" stroke="black"/>
<path d="M35.8359 48.0742H46.1699" stroke="#F47922"/>
<path d="M28.0844 32H10V50.5482H12.9168V36.4771H25.1675V50.5482H28.0844V32Z" stroke="black"/>
<path d="M50.0453 32H31.9609V50.5482H34.8778V36.4771H47.1285V50.5482H50.0453V32Z" stroke="black"/>
<path d="M66.9766 42.2305V51.2235M63.6042 42.2305V51.2235M60.2318 42.2305V51.2235M56.8594 42.2305V51.2235" stroke="black" stroke-miterlimit="10" stroke-linecap="round" stroke-linejoin="round"/>
<path d="M57.9844 56.561C57.9844 57.0877 58.2476 57.5796 58.6859 57.8718L58.7352 57.9047C59.3016 58.2823 60.0395 58.2823 60.6059 57.9047L60.6553 57.8718C61.0935 57.5796 61.3568 57.0877 61.3568 56.561C61.3568 56.0343 61.0935 55.5424 60.6553 55.2502L60.6059 55.2173C60.0395 54.8397 59.3016 54.8397 58.7352 55.2173L58.6859 55.2502C58.2476 55.5424 57.9844 56.0343 57.9844 56.561ZM72.5981 56.561C72.5981 57.0877 72.8614 57.5796 73.2996 57.8718L73.349 57.9047C73.9154 58.2823 74.6533 58.2823 75.2196 57.9047L75.269 57.8718C75.7073 57.5796 75.9705 57.0877 75.9705 56.561C75.9705 56.0343 75.7073 55.5424 75.269 55.2502L75.2196 55.2173C74.6533 54.8397 73.9154 54.8397 73.349 55.2173L73.2996 55.2502C72.8614 55.5424 72.5981 56.0343 72.5981 56.561Z" stroke="#2BB04C" stroke-miterlimit="10" stroke-linejoin="round"/>
<path d="M70.3542 53.4681H53.4922V39.9785H70.3542V53.4681ZM70.3542 53.4681H79.3473M79.3473 53.4681V51.2199L76.5369 43.913L70.3542 42.7888M79.3473 53.4681V55.7164H78.2231M63.6094 55.7164H70.3542" stroke="black" stroke-miterlimit="10" stroke-linecap="round" stroke-linejoin="round"/>
<path d="M77.1856 45.5977H72.6025V48.9701L78.9246 50.12M53.4922 53.4666V55.7149H55.7405" stroke="black" stroke-miterlimit="10" stroke-linecap="round" stroke-linejoin="round"/>
</svg>
