<svg width="90" height="90" viewBox="0 0 90 90" fill="none" xmlns="http://www.w3.org/2000/svg">
<mask id="mask0_11681_27758" style="mask-type:luminance" maskUnits="userSpaceOnUse" x="44" y="20" width="25" height="24">
<path d="M68.0931 20H44.1797V43.9134H68.0931V20Z" fill="white"/>
</mask>
<g mask="url(#mask0_11681_27758)">
<mask id="mask1_11681_27758" style="mask-type:luminance" maskUnits="userSpaceOnUse" x="44" y="20" width="25" height="24">
<path d="M44.1797 20.0007H68.0931V43.9141H44.1797V20.0007Z" fill="white"/>
</mask>
<g mask="url(#mask1_11681_27758)">
<path d="M65.573 26.51C65.5612 26.2512 65.5546 25.9974 65.5509 25.7466C65.5367 24.7903 64.7844 24.0099 63.8295 23.9566C60.909 23.7934 58.625 22.822 56.6958 20.9416C56.3729 20.6457 55.8887 20.6457 55.5659 20.9416C53.6367 22.822 51.3527 23.7934 48.4322 23.9566C47.4773 24.0099 46.725 24.7903 46.7108 25.7466C46.7071 25.9974 46.7004 26.2512 46.6887 26.51C46.5813 32.1457 46.4204 39.8695 55.7943 43.1382C55.839 43.1538 55.8851 43.1663 55.9317 43.1756L55.9321 43.1757C56.0633 43.2019 56.1984 43.2019 56.3295 43.1757C56.3763 43.1663 56.4228 43.1537 56.4678 43.138C65.8145 39.8694 65.6803 32.1724 65.573 26.51Z" stroke="#F47922" stroke-miterlimit="10"/>
<path d="M61.383 31.9549C61.383 34.8545 59.0325 37.2051 56.1329 37.2051C53.2334 37.2051 50.8828 34.8545 50.8828 31.9549C50.8828 29.0553 53.2334 26.7048 56.1329 26.7048C59.0325 26.7048 61.383 29.0553 61.383 31.9549Z" stroke="#2BB04C" stroke-miterlimit="10"/>
<path d="M58.3375 30.6039L55.0781 33.8633" stroke="#2BB04C" stroke-miterlimit="10" stroke-linecap="round"/>
<path d="M53.8359 32.6177L55.0815 33.8633" stroke="#2BB04C" stroke-miterlimit="10" stroke-linecap="round"/>
</g>
</g>
<path d="M29.5 55.327L42.4573 48.2617H58.3048" stroke="black"/>
<path d="M17 62.3912L29.3343 55.5078H45.0801L32.7453 62.3912H17ZM17 62.3912V70.0008H32.7453" stroke="black"/>
<path d="M61.3897 63.2076L73.1653 56.8669V48.2617H57.4194L45.2656 55.327M73.1653 48.2617L61.0267 55.8705" stroke="black"/>
<path d="M49.05 70.0008H33.3047V62.3912H49.05L61.3848 55.5078V63.1174L49.05 70.0008M49.05 70.0008V63.9131" stroke="black"/>
</svg>
