<svg width="90" height="90" viewBox="0 0 90 90" fill="none" xmlns="http://www.w3.org/2000/svg">
<path d="M31.5874 56.0286L31.4967 59.658C31.4723 60.6332 30.6747 61.411 29.6992 61.411C28.7383 61.411 27.9661 60.6193 27.9901 59.6586L28.044 57.5019C28.0892 55.6942 26.8403 54.1123 25.2203 53.3091C23.6713 52.541 21.8913 51.3178 20.9332 49.4888C18.81 45.4357 20.9094 43.4419 21.373 43.0683C21.4298 43.0225 21.5013 42.9904 21.5717 42.9714C26.8128 41.5525 20.9921 50.7172 29.3502 51.0653C37.7671 51.4159 33.1532 42.8161 37.2383 43.0018C41.0955 43.1771 39.5885 47.0676 38.4656 49.3135C37.3277 51.5893 34.7868 53.0527 33.1433 53.7997C32.2557 54.203 31.6118 55.054 31.5874 56.0286Z" stroke="black" stroke-width="1.0722"/>
<path d="M55.4726 48.7891L54.8992 62.7804C54.7298 66.9146 51.329 70.1789 47.1913 70.1789H37.5894C33.3288 70.1789 29.875 66.725 29.875 62.4645V61.551" stroke="black" stroke-width="1.0722"/>
<circle cx="55.2943" cy="42.1205" r="6.47695" stroke="black" stroke-width="1.0722"/>
<circle cx="55.2999" cy="41.9582" r="2.7951" stroke="black" stroke-width="1.0722"/>
<path d="M37.4162 42.6518V35.8141C37.4162 34.0711 36.0033 32.6582 34.2604 32.6582H33.7344" stroke="#2BB04C" stroke-width="1.0722"/>
<path d="M21.8103 42.6518V35.8141C21.8103 34.0711 23.2233 32.6582 24.9662 32.6582H25.4922" stroke="#2BB04C" stroke-width="1.0722"/>
<path d="M26.3633 31.7119C26.5413 31.7119 26.6265 31.7522 26.667 31.7803C26.7084 31.809 26.7502 31.8575 26.7871 31.9502C26.8734 32.1668 26.8799 32.4712 26.8799 32.8359C26.8799 33.1974 26.8738 33.5329 26.7822 33.7793C26.7412 33.8896 26.6936 33.9492 26.6494 33.9824C26.6095 34.0124 26.5304 34.0527 26.3633 34.0527C26.1956 34.0527 26.1166 34.0122 26.0771 33.9824C26.0333 33.9493 25.9861 33.8904 25.9453 33.7803C25.854 33.5338 25.8486 33.1981 25.8486 32.8359C25.8486 32.4704 25.8554 32.166 25.9414 31.9492C25.9781 31.8568 26.0195 31.8088 26.0605 31.7803C26.1007 31.7524 26.1854 31.7119 26.3633 31.7119Z" fill="#F47922" stroke="#F47922" stroke-width="1.0722"/>
<path d="M33.0273 31.7119C33.2053 31.7119 33.2905 31.7522 33.3311 31.7803C33.3725 31.809 33.4143 31.8575 33.4512 31.9502C33.5374 32.1668 33.5439 32.4712 33.5439 32.8359C33.5439 33.1974 33.5379 33.5329 33.4463 33.7793C33.4052 33.8896 33.3577 33.9492 33.3135 33.9824C33.2735 34.0124 33.1945 34.0527 33.0273 34.0527C32.8597 34.0527 32.7807 34.0122 32.7412 33.9824C32.6974 33.9493 32.6502 33.8904 32.6094 33.7803C32.518 33.5338 32.5127 33.1981 32.5127 32.8359C32.5127 32.4704 32.5194 32.166 32.6055 31.9492C32.6422 31.8568 32.6836 31.8088 32.7246 31.7803C32.7648 31.7524 32.8495 31.7119 33.0273 31.7119Z" fill="#F47922" stroke="#F47922" stroke-width="1.0722"/>
<path d="M67.0686 34.4396C67.2779 34.2303 67.2779 33.8908 67.0686 33.6815C66.8592 33.4721 66.5198 33.4721 66.3104 33.6815L66.6895 34.0605L67.0686 34.4396ZM61.4297 39.3203L61.8088 39.6994L67.0686 34.4396L66.6895 34.0605L66.3104 33.6815L61.0506 38.9413L61.4297 39.3203Z" fill="black"/>
<path d="M39.5209 27.2219L40.054 27.2781L39.5209 27.2219ZM47.2348 20.0347L47.2479 20.5707L47.2348 20.0347ZM63.0142 20.0347L62.945 20.5663V20.5663L63.0142 20.0347ZM70.0273 27.2231L70.5619 27.1834V27.1834L70.0273 27.2231ZM68.8199 30.9034C68.7222 31.1829 68.8696 31.4886 69.1491 31.5863C69.4286 31.684 69.7343 31.5367 69.832 31.2572L69.326 31.0803L68.8199 30.9034ZM54.8207 24.7658L55.2221 24.4104L54.8207 24.7658ZM55.4006 24.7432L54.9742 24.4182L55.4006 24.7432ZM49.1634 40.0219C49.5155 39.6176 49.5155 39.6176 49.5155 39.6176C49.5154 39.6176 49.5154 39.6175 49.5153 39.6174C49.515 39.6172 49.5146 39.6168 49.5141 39.6164C49.513 39.6154 49.5113 39.6139 49.509 39.6119C49.5044 39.608 49.4975 39.6019 49.4883 39.5938C49.4698 39.5775 49.4421 39.5532 49.4059 39.5211C49.3334 39.4569 49.2267 39.3619 49.0908 39.2393C48.8189 38.994 48.4304 38.6385 47.9651 38.1992C47.0339 37.3199 45.7988 36.1077 44.5786 34.7725C43.3558 33.4345 42.1607 31.9866 41.3006 30.6353C40.8706 29.9598 40.5325 29.3208 40.3152 28.7415C40.0963 28.1577 40.013 27.6681 40.054 27.2781L39.5209 27.2219L38.9877 27.1658C38.9226 27.7839 39.061 28.4504 39.3113 29.1179C39.5633 29.7899 39.9419 30.4975 40.396 31.211C41.3041 32.6377 42.5461 34.1378 43.7871 35.4958C45.0306 36.8565 46.2858 38.0881 47.229 38.9788C47.7009 39.4244 48.0955 39.7854 48.3726 40.0353C48.5111 40.1603 48.6203 40.2576 48.6951 40.3238C48.7325 40.3569 48.7613 40.3823 48.7809 40.3995C48.7907 40.4081 48.7982 40.4147 48.8033 40.4191C48.8058 40.4214 48.8078 40.4231 48.8091 40.4242C48.8098 40.4248 48.8103 40.4253 48.8107 40.4256C48.8109 40.4258 48.811 40.4259 48.8111 40.426C48.8113 40.4261 48.8114 40.4262 49.1634 40.0219ZM39.5209 27.2219L40.054 27.2781C40.2153 25.7476 41.0263 24.0865 42.3083 22.795C43.5858 21.5081 45.3004 20.6182 47.2479 20.5707L47.2348 20.0347L47.2218 19.4988C44.9515 19.5542 42.9847 20.5917 41.5474 22.0396C40.1147 23.4829 39.1776 25.3639 38.9877 27.1658L39.5209 27.2219ZM47.2348 20.0347L47.2479 20.5707C48.5955 20.5377 50.1084 21.3304 51.4721 22.3626C52.8145 23.3787 53.9144 24.5509 54.4193 25.1212L54.8207 24.7658L55.2221 24.4104C54.6955 23.8157 53.5421 22.5847 52.1192 21.5077C50.7177 20.4469 48.9533 19.4565 47.2218 19.4988L47.2348 20.0347ZM55.4006 24.7432L55.827 25.0681C56.2906 24.4598 57.3144 23.2121 58.6243 22.1756C59.9503 21.1265 61.468 20.374 62.945 20.5663L63.0142 20.0347L63.0834 19.5031C61.1674 19.2536 59.3538 20.2313 57.959 21.3348C56.5482 22.451 55.4617 23.7785 54.9742 24.4182L55.4006 24.7432ZM63.0142 20.0347L62.945 20.5663C66.6023 21.0426 69.2228 23.6252 69.4926 27.2628L70.0273 27.2231L70.5619 27.1834C70.2514 22.9986 67.2043 20.0397 63.0834 19.5031L63.0142 20.0347ZM70.0273 27.2231L69.4926 27.2628C69.5426 27.937 69.3857 28.832 69.1984 29.5967C69.1067 29.971 69.0114 30.2997 68.9391 30.5346C68.903 30.6518 68.8727 30.7453 68.8517 30.8089C68.8412 30.8406 68.833 30.8649 68.8276 30.8809C68.8249 30.8889 68.8228 30.8949 68.8215 30.8986C68.8209 30.9005 68.8204 30.9019 68.8201 30.9027C68.82 30.9031 68.8199 30.9033 68.8199 30.9034C68.8198 30.9035 68.8198 30.9035 68.8198 30.9035C68.8198 30.9035 68.8198 30.9035 68.8198 30.9035C68.8199 30.9034 68.8199 30.9034 69.326 31.0803C69.832 31.2572 69.8321 31.2571 69.8321 31.257C69.8321 31.257 69.8321 31.2569 69.8321 31.2568C69.8322 31.2567 69.8323 31.2565 69.8323 31.2562C69.8325 31.2558 69.8327 31.2552 69.833 31.2545C69.8335 31.253 69.8342 31.251 69.8351 31.2484C69.8368 31.2433 69.8393 31.236 69.8426 31.2265C69.849 31.2076 69.8582 31.1804 69.8697 31.1454C69.8928 31.0756 69.9253 30.9751 69.9638 30.85C70.0407 30.6003 70.142 30.2509 70.2398 29.8518C70.4314 29.0695 70.6251 28.036 70.5619 27.1834L70.0273 27.2231ZM54.8207 24.7658L54.4193 25.1212C54.8004 25.5516 55.4826 25.52 55.827 25.0681L55.4006 24.7432L54.9742 24.4182C55.0073 24.3747 55.0546 24.3557 55.0943 24.3541C55.1343 24.3526 55.1846 24.368 55.2221 24.4104L54.8207 24.7658Z" fill="black"/>
</svg>
