<svg width="90" height="90" viewBox="0 0 90 90" fill="none" xmlns="http://www.w3.org/2000/svg">
<g clip-path="url(#clip0_11681_27848)">
<path d="M60.9297 29.4199H20V70.3497H60.9297V29.4199Z" stroke="black" stroke-miterlimit="22.9256" stroke-linecap="round" stroke-linejoin="round"/>
<path d="M22.5581 25.1162L20 22.5581L22.5581 20" stroke="black" stroke-miterlimit="22.9256" stroke-linecap="round" stroke-linejoin="round"/>
<path d="M58.375 25.1162L60.9331 22.5581L58.375 20" stroke="black" stroke-miterlimit="22.9256" stroke-linecap="round" stroke-linejoin="round"/>
<path d="M20.5078 22.5605H60.4143" stroke="black" stroke-miterlimit="22.9256" stroke-linecap="round" stroke-linejoin="round"/>
<path d="M65.2266 31.978L67.7847 29.4199L70.3428 31.978" stroke="black" stroke-miterlimit="22.9256" stroke-linecap="round" stroke-linejoin="round"/>
<path d="M65.2266 67.7812L67.7847 70.3394L70.3428 67.7812" stroke="black" stroke-miterlimit="22.9256" stroke-linecap="round" stroke-linejoin="round"/>
<path d="M67.7891 29.9297V69.8362" stroke="black" stroke-miterlimit="22.9256" stroke-linecap="round" stroke-linejoin="round"/>
<path d="M54.7836 35.5488H26.1328V64.1996H54.7836V35.5488Z" stroke="#2BB04C" stroke-miterlimit="22.9256" stroke-linecap="round" stroke-linejoin="round"/>
<path d="M41.04 46.186C41.8613 46.186 42.5193 46.438 43.014 46.942C43.518 47.446 43.77 48.1087 43.77 48.93C43.77 49.742 43.5133 50.3953 43 50.89C42.496 51.3847 41.8287 51.632 40.998 51.632H38.268C38.2307 51.632 38.212 51.6507 38.212 51.688V55.86C38.212 55.9533 38.1653 56 38.072 56H37.358C37.2647 56 37.218 55.9533 37.218 55.86V46.326C37.218 46.2327 37.2647 46.186 37.358 46.186H41.04ZM40.928 50.806C41.4787 50.806 41.9267 50.638 42.272 50.302C42.6173 49.9567 42.79 49.504 42.79 48.944C42.79 48.3747 42.6173 47.9173 42.272 47.572C41.9267 47.2267 41.4787 47.054 40.928 47.054H38.268C38.2307 47.054 38.212 47.0727 38.212 47.11V50.75C38.212 50.7873 38.2307 50.806 38.268 50.806H40.928Z" fill="#F47922"/>
</g>
<defs>
<clipPath id="clip0_11681_27848">
<rect width="90" height="90" fill="white"/>
</clipPath>
</defs>
</svg>
