<svg width="90" height="90" viewBox="0 0 90 90" fill="none" xmlns="http://www.w3.org/2000/svg">
<path d="M20 60.0162V27.8194L45.029 20L70.0581 27.8194V60.0162" stroke="black" stroke-miterlimit="22.9256" stroke-linecap="round" stroke-linejoin="round"/>
<path d="M25.1172 60.0144V38.3965H64.9361V60.0144" stroke="black" stroke-miterlimit="22.9256" stroke-linecap="round" stroke-linejoin="round"/>
<path d="M20.5703 32.8809H69.4907" stroke="black" stroke-miterlimit="22.9256" stroke-linecap="round" stroke-linejoin="round"/>
<path d="M51.8553 32.4146V27.6816H38.2031V32.4146" stroke="black" stroke-miterlimit="22.9256" stroke-linecap="round" stroke-linejoin="round"/>
<path d="M23 64.0469H27.7619V67.6183H23" stroke="black"/>
<path d="M65.8516 64.0469H62.2801V66.4278H65.8516" stroke="black"/>
<path d="M43.2344 69.9993V61.666H46.8058V69.9993H43.2344Z" fill="white" stroke="black"/>
<path d="M32.5227 61.666H26.5703V69.9993H32.5227V61.666Z" fill="white" stroke="black"/>
<path d="M63.4777 61.666H59.9062V68.8089H63.4777V61.666Z" fill="white" stroke="black"/>
<path d="M34.0339 66.0544L32.5 66.2735V68.5002L34.0339 68.2811C35.085 68.1309 36.1116 67.843 37.0875 67.4248C38.1797 66.9567 39.3348 66.6522 40.5158 66.521L42.7427 66.2735V64.0469L40.5158 64.2943C39.3348 64.4255 38.1797 64.7301 37.0875 65.1981C36.1116 65.6164 35.085 65.9043 34.0339 66.0544Z" fill="white" stroke="black"/>
<path d="M41.2082 64.865L42.7422 65.0841V67.3108L41.2082 67.0916C40.1572 66.9415 39.1305 66.6536 38.1547 66.2354C37.0625 65.7673 35.9074 65.4627 34.7264 65.3315L32.4995 65.0841V62.8574L34.7264 63.1049C35.9073 63.2361 37.0625 63.5406 38.1547 64.0087C39.1305 64.4269 40.1572 64.7148 41.2082 64.865Z" fill="white" stroke="black"/>
<path d="M59.9062 64.0469H46.811V66.4278H59.9062V64.0469Z" fill="white" stroke="black"/>
<path d="M44.9766 62.8574V68.2014" stroke="black"/>
<path d="M47.8801 45.5368C47.429 45.2679 46.9355 45.061 46.4137 44.9283V44.3287C46.4137 44.0439 46.1784 43.8086 45.8936 43.8086H44.1565C43.87 43.8086 43.6365 44.0421 43.6365 44.3287V44.9283C43.1147 45.061 42.6211 45.2679 42.1683 45.5368L41.7437 45.1123C41.542 44.9106 41.2113 44.9106 41.0096 45.1123L39.7802 46.3399C39.5785 46.5433 39.5785 46.8741 39.7802 47.0758L40.2047 47.5003C39.9358 47.9513 39.7289 48.4449 39.5963 48.9685H38.9966C38.7118 48.9685 38.4766 49.202 38.4766 49.4868V51.2239C38.4766 51.5104 38.7118 51.7439 38.9966 51.7439H39.5963C39.729 52.2675 39.9359 52.761 40.2047 53.2121L39.7802 53.6367C39.5785 53.8384 39.5785 54.1691 39.7802 54.3708L41.0096 55.6002C41.2113 55.8019 41.542 55.8019 41.7437 55.6002L42.1683 55.1756C42.6211 55.4445 43.1129 55.6515 43.6365 55.7841V56.3838C43.6365 56.6686 43.87 56.9038 44.1565 56.9038H45.8936C46.1784 56.9038 46.4137 56.6686 46.4137 56.3838V55.7841C46.9355 55.6515 47.429 55.4445 47.8801 55.1756L48.3047 55.6002C48.5063 55.8019 48.8371 55.8019 49.0406 55.6002L50.2682 54.3708C50.4699 54.1691 50.4699 53.8384 50.2682 53.6367L49.8436 53.2121C50.1125 52.7593 50.3195 52.2675 50.4521 51.7439H51.0518C51.3383 51.7439 51.5718 51.5104 51.5718 51.2239V49.4868C51.5718 49.202 51.3383 48.9685 51.0518 48.9685H50.4521C50.3195 48.4449 50.1125 47.9514 49.8436 47.5003L50.2682 47.0758C50.4699 46.8741 50.4699 46.5433 50.2682 46.3399L49.0406 45.1123C48.8372 44.9106 48.5063 44.9106 48.3047 45.1123L47.8801 45.5368Z" stroke="#F47922" stroke-miterlimit="10" stroke-linecap="round" stroke-linejoin="round"/>
<circle cx="45.0231" cy="50.357" r="2.47619" stroke="#2BB04C"/>
</svg>
