<svg width="90" height="90" viewBox="0 0 90 90" fill="none" xmlns="http://www.w3.org/2000/svg">
<path d="M17.9999 70.1211H72.2674" stroke="black" stroke-width="1.1795" stroke-miterlimit="10" stroke-linecap="round" stroke-linejoin="round"/>
<path d="M49.9843 69.8011V30.4844" stroke="black" stroke-width="1.1795" stroke-miterlimit="10" stroke-linecap="round" stroke-linejoin="round"/>
<path d="M70.9531 69.801V39.6582" stroke="black" stroke-width="1.1795" stroke-miterlimit="10" stroke-linecap="round" stroke-linejoin="round"/>
<path d="M70.9531 35.7266V23.9316" stroke="black" stroke-width="1.1795" stroke-miterlimit="10" stroke-linecap="round" stroke-linejoin="round"/>
<path d="M71.8371 23.26L48.5492 30.4614C48.2394 30.5573 47.921 30.345 47.838 29.9875L47.3871 28.0452C47.304 27.6877 47.4879 27.3202 47.7978 27.2244L71.0856 20.023C71.3954 19.9272 71.7139 20.1394 71.7968 20.497L72.2478 22.4392C72.3308 22.7967 72.1469 23.1642 71.8371 23.26Z" stroke="#2BB04C" stroke-width="1.1795" stroke-miterlimit="10" stroke-linecap="round" stroke-linejoin="round"/>
<path d="M19.3124 57.6837V44.2053C19.3124 43.7107 19.7425 43.3101 20.2735 43.3101L34.4048 36.7148L49.4552 43.3101" stroke="black" stroke-width="1.1795" stroke-miterlimit="10" stroke-linecap="round" stroke-linejoin="round"/>
<path d="M19.2812 70.1187V61.5156" stroke="black" stroke-width="1.1795" stroke-miterlimit="10" stroke-linecap="round" stroke-linejoin="round"/>
<path d="M45.5216 69.4786V53.7192C45.5216 53.0135 44.8212 52.4414 43.9573 52.4414H24.8063C23.9425 52.4414 23.2421 53.0135 23.2421 53.7192V69.4786" stroke="black" stroke-width="1.1795" stroke-miterlimit="10" stroke-linecap="round" stroke-linejoin="round"/>
<path d="M45.7091 47.4551V48.6673C45.7091 48.7216 45.0087 48.7656 44.1448 48.7656H24.9939C24.13 48.7656 23.4296 48.7216 23.4296 48.6673V47.4551" stroke="#F47922" stroke-width="1.1795" stroke-miterlimit="10" stroke-linecap="round" stroke-linejoin="round"/>
<path d="M45.7091 47.4551V46.2428C45.7091 46.1885 45.0087 46.1445 44.1448 46.1445H24.9939C24.13 46.1445 23.4296 46.1885 23.4296 46.2428V47.4551" stroke="#F47922" stroke-width="1.1795" stroke-miterlimit="10" stroke-linecap="round" stroke-linejoin="round"/>
<path d="M66.2218 38.3477H54.7119C54.2713 38.3477 53.914 37.8783 53.914 37.2992V34.1539C53.914 33.5749 54.2713 33.1055 54.7119 33.1055H66.2217C66.6623 33.1055 67.0196 33.5749 67.0196 34.1539V37.2992C67.0197 37.8783 66.6624 38.3477 66.2218 38.3477Z" stroke="black" stroke-width="1.1795" stroke-miterlimit="10" stroke-linecap="round" stroke-linejoin="round"/>
<path d="M66.2217 46.211H54.7119C54.2712 46.211 53.914 45.8589 53.914 45.4246V43.0656C53.914 42.6314 54.2712 42.2793 54.7119 42.2793H66.2217C66.6623 42.2793 67.0196 42.6314 67.0196 43.0656V45.4246C67.0196 45.8589 66.6623 46.211 66.2217 46.211Z" stroke="black" stroke-width="1.1795" stroke-miterlimit="10" stroke-linecap="round" stroke-linejoin="round"/>
<path d="M66.2217 55.3848H54.7119C54.2712 55.3848 53.914 55.0327 53.914 54.5985V52.2395C53.914 51.8052 54.2712 51.4531 54.7119 51.4531H66.2217C66.6623 51.4531 67.0196 51.8052 67.0196 52.2395V54.5985C67.0196 55.0327 66.6623 55.3848 66.2217 55.3848Z" stroke="black" stroke-width="1.1795" stroke-miterlimit="10" stroke-linecap="round" stroke-linejoin="round"/>
<path d="M66.2217 64.5586H54.7119C54.2712 64.5586 53.914 64.0892 53.914 63.5102V60.3649C53.914 59.7858 54.2712 59.3164 54.7119 59.3164H66.2217C66.6623 59.3164 67.0196 59.7858 67.0196 60.3649V63.5102C67.0196 64.0892 66.6623 64.5586 66.2217 64.5586Z" stroke="black" stroke-width="1.1795" stroke-miterlimit="10" stroke-linecap="round" stroke-linejoin="round"/>
<path d="M44.6173 62.041H23.6484" stroke="black" stroke-width="1.1795" stroke-miterlimit="10" stroke-linecap="round" stroke-linejoin="round"/>
<path d="M44.6173 56.7988H23.6484" stroke="black" stroke-width="1.1795" stroke-miterlimit="10" stroke-linecap="round" stroke-linejoin="round"/>
<path d="M44.6173 65.9727H23.6484" stroke="black" stroke-width="1.1795" stroke-miterlimit="10" stroke-linecap="round" stroke-linejoin="round"/>
</svg>
