<svg width="110" height="64" viewBox="0 0 110 64" fill="none" xmlns="http://www.w3.org/2000/svg">
<mask id="mask0_9951_6593" style="mask-type:luminance" maskUnits="userSpaceOnUse" x="2" y="4" width="46" height="46">
<path d="M2.33008 4.68173H47.3861V49.7377H2.33008V4.68173Z" fill="white"/>
</mask>
<g mask="url(#mask0_9951_6593)">
<path d="M29.7872 37.1288H35.1685L40.7977 48.8578H28.8374" stroke="#22B148" stroke-width="1.1" stroke-miterlimit="10" stroke-linecap="round" stroke-linejoin="round"/>
<path d="M20.8803 48.8579H8.91992L14.5492 37.1289H19.9745" stroke="#22B148" stroke-width="1.1" stroke-miterlimit="10" stroke-linecap="round" stroke-linejoin="round"/>
<path d="M24.8588 5.5619C17.0345 5.5619 10.6689 11.9057 10.6689 19.7032C10.6689 23.6093 12.5965 26.8944 14.276 29.32C15.2518 30.7295 16.3522 32.1192 17.4164 33.4632C20.6182 37.5065 24.8588 42.8926 24.8588 42.8926C24.8588 42.8926 29.0993 37.5065 32.301 33.4632C33.3653 32.1192 34.4656 30.7295 35.4416 29.32C37.121 26.8944 39.0486 23.6093 39.0486 19.7032C39.0486 11.9057 32.683 5.5619 24.8588 5.5619Z" stroke="white" stroke-width="1.1" stroke-miterlimit="10" stroke-linecap="round" stroke-linejoin="round"/>
<path d="M33.0418 19.6873C33.0418 24.1918 29.3777 27.8433 24.8578 27.8433C20.338 27.8433 16.6738 24.1918 16.6738 19.6873C16.6738 15.1829 20.338 11.5312 24.8578 11.5312C29.3777 11.5312 33.0418 15.1829 33.0418 19.6873Z" stroke="white" stroke-width="1.1" stroke-miterlimit="10" stroke-linecap="round" stroke-linejoin="round"/>
<path d="M20.8398 42.9936H28.8771" stroke="#F47922" stroke-width="1.1" stroke-miterlimit="10" stroke-linecap="round" stroke-linejoin="round"/>
</g>
<path d="M4.3999 29.2999C4.09615 29.2999 3.8499 29.5462 3.8499 29.8499V34.7999C3.8499 35.1037 4.09615 35.3499 4.3999 35.3499C4.70366 35.3499 4.9499 35.1037 4.9499 34.7999V30.3999H9.3499C9.65366 30.3999 9.8999 30.1537 9.8999 29.8499C9.8999 29.5462 9.65366 29.2999 9.3499 29.2999H4.3999ZM4.3999 29.8499L4.01099 30.2389L11.161 37.3889L11.5499 36.9999L11.9388 36.611L4.78881 29.461L4.3999 29.8499Z" fill="white"/>
<path d="M46.75 29.2999C47.0538 29.2999 47.3 29.5462 47.3 29.8499V34.7999C47.3 35.1037 47.0538 35.3499 46.75 35.3499C46.4462 35.3499 46.2 35.1037 46.2 34.7999V30.3999H41.8C41.4962 30.3999 41.25 30.1537 41.25 29.8499C41.25 29.5462 41.4962 29.2999 41.8 29.2999H46.75ZM46.75 29.8499L47.1389 30.2389L39.9889 37.3889L39.6 36.9999L39.2111 36.611L46.3611 29.461L46.75 29.8499Z" fill="white"/>
<path d="M1.09961 58.4499C0.795853 58.4499 0.549609 58.2037 0.549609 57.8999V52.9499C0.549609 52.6462 0.795853 52.3999 1.09961 52.3999C1.40337 52.3999 1.64961 52.6462 1.64961 52.9499V57.3499H6.04961C6.35337 57.3499 6.59961 57.5962 6.59961 57.8999C6.59961 58.2037 6.35337 58.4499 6.04961 58.4499H1.09961ZM1.09961 57.8999L0.710701 57.511L7.3107 50.911L7.69961 51.2999L8.08852 51.6888L1.48852 58.2888L1.09961 57.8999Z" fill="white"/>
<path d="M49.5 58.4499C49.8038 58.4499 50.05 58.2037 50.05 57.8999V52.9499C50.05 52.6462 49.8038 52.3999 49.5 52.3999C49.1962 52.3999 48.95 52.6462 48.95 52.9499V57.3499H44.55C44.2462 57.3499 44 57.5962 44 57.8999C44 58.2037 44.2462 58.4499 44.55 58.4499H49.5ZM49.5 57.8999L49.8889 57.511L43.2889 50.911L42.9 51.2999L42.5111 51.6888L49.1111 58.2888L49.5 57.8999Z" fill="white"/>
</svg>
