<svg width="110" height="64" viewBox="0 0 110 64" fill="none" xmlns="http://www.w3.org/2000/svg">
<path d="M43.8399 20.5049H5.87152C5.35053 20.5049 4.92822 20.9272 4.92822 21.4482V24.347H44.7832V21.4482C44.7832 20.9272 44.3609 20.5049 43.8399 20.5049Z" stroke="white" stroke-width="1.2" stroke-miterlimit="10" stroke-linecap="round" stroke-linejoin="round"/>
<path d="M20.5112 17.7297H29.1992" stroke="#22B148" stroke-width="1.2" stroke-miterlimit="10" stroke-linecap="round" stroke-linejoin="round"/>
<path d="M20.5112 15.1858H29.1992" stroke="#22B148" stroke-width="1.2" stroke-miterlimit="10" stroke-linecap="round" stroke-linejoin="round"/>
<path d="M20.5112 12.6419H29.1992" stroke="#22B148" stroke-width="1.2" stroke-miterlimit="10" stroke-linecap="round" stroke-linejoin="round"/>
<path d="M44.7832 33.5518V24.3468H4.92822V55.4558H44.7832V36.3358" stroke="#F47922" stroke-width="1.2" stroke-miterlimit="10" stroke-linecap="round" stroke-linejoin="round"/>
<path d="M6.65699 14.4313L1 16.51V55.4557H48.712V16.51L24.856 7.74371L9.32733 13.45" stroke="white" stroke-width="1.2" stroke-miterlimit="10" stroke-linecap="round" stroke-linejoin="round"/>
<path d="M25.2075 35.2962H22.8151C20.8937 35.2962 19.3359 33.8062 19.3359 31.9683V29.68H21.7283C23.6498 29.68 25.2075 31.17 25.2075 33.0079V35.2962Z" stroke="#22B148" stroke-width="1.2" stroke-miterlimit="10"/>
<path d="M25.207 35.2962H27.5994C29.5208 35.2962 31.0786 33.8062 31.0786 31.9683V29.68H28.6862C26.7647 29.68 25.207 31.17 25.207 33.0079V35.2962Z" stroke="#22B148" stroke-width="1.2" stroke-miterlimit="10"/>
<path d="M15.534 46.88C15.47 46.88 15.438 46.848 15.438 46.784V40.256C15.438 40.192 15.47 40.16 15.534 40.16H16.0236C16.0876 40.16 16.1196 40.192 16.1196 40.256V46.784C16.1196 46.848 16.0876 46.88 16.0236 46.88H15.534ZM19.9672 46.9568C19.5192 46.9568 19.1256 46.8704 18.7864 46.6976C18.4472 46.5184 18.1816 46.2688 17.9896 45.9488C17.804 45.6288 17.7112 45.2608 17.7112 44.8448V42.1952C17.7112 41.7792 17.804 41.4112 17.9896 41.0912C18.1816 40.7712 18.4472 40.5248 18.7864 40.352C19.1256 40.1728 19.5192 40.0832 19.9672 40.0832C20.4088 40.0832 20.7992 40.1696 21.1384 40.3424C21.484 40.5152 21.7496 40.7584 21.9352 41.072C22.1208 41.3792 22.2136 41.728 22.2136 42.1184V42.2432C22.2136 42.3072 22.1816 42.3392 22.1176 42.3392H21.628C21.564 42.3392 21.532 42.3072 21.532 42.2432V42.128C21.532 41.6992 21.388 41.3504 21.1 41.0816C20.8184 40.8128 20.4408 40.6784 19.9672 40.6784C19.4936 40.6784 19.1128 40.816 18.8248 41.0912C18.5368 41.3664 18.3928 41.728 18.3928 42.176V44.864C18.3928 45.312 18.54 45.6736 18.8344 45.9488C19.1288 46.224 19.516 46.3616 19.996 46.3616C20.4632 46.3616 20.8344 46.2336 21.1096 45.9776C21.3912 45.7216 21.532 45.3792 21.532 44.9504V44.0768C21.532 44.0512 21.5192 44.0384 21.4936 44.0384H20.0824C20.0184 44.0384 19.9864 44.0064 19.9864 43.9424V43.5392C19.9864 43.4752 20.0184 43.4432 20.0824 43.4432H22.1176C22.1816 43.4432 22.2136 43.4752 22.2136 43.5392V44.7776C22.2136 45.4624 22.0088 45.9968 21.5992 46.3808C21.196 46.7648 20.652 46.9568 19.9672 46.9568ZM27.1795 43.376C27.1475 43.3952 27.1475 43.4144 27.1795 43.4336C27.5251 43.5744 27.7875 43.7824 27.9667 44.0576C28.1459 44.3328 28.2355 44.6656 28.2355 45.056C28.2355 45.632 28.0499 46.08 27.6787 46.4C27.3139 46.72 26.8307 46.88 26.2291 46.88H23.9059C23.8419 46.88 23.8099 46.848 23.8099 46.784V40.256C23.8099 40.192 23.8419 40.16 23.9059 40.16H26.1619C26.7827 40.16 27.2691 40.3136 27.6211 40.6208C27.9795 40.928 28.1587 41.36 28.1587 41.9168C28.1587 42.2688 28.0723 42.5696 27.8995 42.8192C27.7331 43.0624 27.4931 43.248 27.1795 43.376ZM24.5299 40.7552C24.5043 40.7552 24.4915 40.768 24.4915 40.7936V43.0976C24.4915 43.1232 24.5043 43.136 24.5299 43.136H26.1619C26.5651 43.136 26.8851 43.0304 27.1219 42.8192C27.3651 42.608 27.4867 42.3264 27.4867 41.9744C27.4867 41.6032 27.3651 41.3088 27.1219 41.0912C26.8851 40.8672 26.5651 40.7552 26.1619 40.7552H24.5299ZM26.2291 46.2752C26.6323 46.2752 26.9523 46.16 27.1891 45.9296C27.4323 45.6992 27.5539 45.3888 27.5539 44.9984C27.5539 44.608 27.4291 44.2976 27.1795 44.0672C26.9363 43.8304 26.6067 43.712 26.1907 43.712H24.5299C24.5043 43.712 24.4915 43.7248 24.4915 43.7504V46.2368C24.4915 46.2624 24.5043 46.2752 24.5299 46.2752H26.2291ZM31.8547 46.9664C31.4067 46.9664 31.0131 46.88 30.6739 46.7072C30.3347 46.528 30.0691 46.2784 29.8771 45.9584C29.6915 45.632 29.5987 45.2576 29.5987 44.8352V42.1952C29.5987 41.7792 29.6915 41.4112 29.8771 41.0912C30.0691 40.7712 30.3347 40.5248 30.6739 40.352C31.0131 40.1728 31.4067 40.0832 31.8547 40.0832C32.3027 40.0832 32.6963 40.1696 33.0355 40.3424C33.3747 40.5152 33.6371 40.7584 33.8227 41.072C34.0147 41.3856 34.1107 41.7472 34.1107 42.1568C34.1107 42.1888 34.1011 42.2144 34.0819 42.2336C34.0627 42.2528 34.0403 42.2624 34.0147 42.2624L33.5251 42.2912C33.4611 42.2912 33.4291 42.2624 33.4291 42.2048V42.176C33.4291 41.7216 33.2851 41.36 32.9971 41.0912C32.7091 40.816 32.3283 40.6784 31.8547 40.6784C31.3811 40.6784 31.0003 40.816 30.7123 41.0912C30.4243 41.3664 30.2803 41.728 30.2803 42.176V44.864C30.2803 45.312 30.4243 45.6736 30.7123 45.9488C31.0003 46.224 31.3811 46.3616 31.8547 46.3616C32.3283 46.3616 32.7091 46.2272 32.9971 45.9584C33.2851 45.6832 33.4291 45.3184 33.4291 44.864V44.8448C33.4291 44.7872 33.4611 44.7584 33.5251 44.7584L34.0147 44.7872C34.0787 44.7872 34.1107 44.816 34.1107 44.8736C34.1107 45.2896 34.0147 45.6576 33.8227 45.9776C33.6371 46.2912 33.3747 46.5344 33.0355 46.7072C32.6963 46.88 32.3027 46.9664 31.8547 46.9664Z" fill="#E0E0E0"/>
</svg>
