<svg width="80" height="80" viewBox="0 0 80 80" fill="none" xmlns="http://www.w3.org/2000/svg">
<mask id="mask0_5924_13618" style="mask-type:luminance" maskUnits="userSpaceOnUse" x="0" y="0" width="80" height="80">
<path d="M0 7.62939e-06H80V80H0V7.62939e-06Z" fill="white"/>
</mask>
<g mask="url(#mask0_5924_13618)">
<path d="M37.7208 34.867C38.1283 37.0123 38.6819 39.1269 39.302 40.9264H52.0136C51.7789 28.2445 47.0397 22.1628 43.0092 20.1948M38.0087 21.8039C37.2558 23.5947 36.9722 25.9308 37.0209 28.453" stroke="white" stroke-miterlimit="10" stroke-linecap="round" stroke-linejoin="round"/>
<path d="M59.1133 45.7183H75.7536C77.4456 45.7183 78.8275 44.3351 78.8275 42.642V28.9315C78.8275 27.2384 77.4456 25.8553 75.7536 25.8553H62.1872C60.4953 25.8553 59.1133 27.2384 59.1133 28.9315V45.7183Z" stroke="#0db14b" stroke-miterlimit="10" stroke-linecap="round" stroke-linejoin="round"/>
<path d="M59.1133 37.3228H78.8275V32.4867H59.1133V37.3228Z" stroke="#0db14b" stroke-miterlimit="10" stroke-linecap="round" stroke-linejoin="round"/>
<path d="M37.9767 3.35947C33.1312 3.35947 29.207 7.37103 29.207 12.3268H38.7342C39.465 12.3932 40.023 12.6149 40.023 13.7143V21.507C44.3016 20.5316 46.7464 16.7684 46.7464 12.3268C46.7464 7.37103 42.8223 3.35947 37.9767 3.35947Z" stroke="#F47922" stroke-miterlimit="10" stroke-linecap="round" stroke-linejoin="round"/>
<path d="M31.5319 12.3267C31.2263 13.1068 31.0625 13.9579 31.0625 14.849C31.0625 18.6876 34.1717 21.8037 38.0073 21.8037C38.707 21.8037 39.3848 21.6975 40.0225 21.5068" stroke="white" stroke-miterlimit="10" stroke-linecap="round" stroke-linejoin="round"/>
<path d="M38.4067 27.2604L33.3974 31.569L29.5439 31.8793L25.6685 32.194C23.0242 32.4112 23.0908 36.1436 25.3406 36.1436H35.7538L41.6266 32.3314C46.2685 29.3171 41.8792 24.2684 38.4067 27.2604Z" stroke="white" stroke-miterlimit="10" stroke-linecap="round" stroke-linejoin="round"/>
<path d="M25.3405 36.1436H15.707V30.0443C15.707 28.8429 16.3316 29.109 17.3814 29.4547L25.6683 32.1942C23.0241 32.4112 23.0905 36.1436 25.3405 36.1436Z" stroke="white" stroke-miterlimit="10" stroke-linecap="round" stroke-linejoin="round"/>
<path d="M29.5469 36.1436V31.8793" stroke="white" stroke-miterlimit="10" stroke-linecap="round" stroke-linejoin="round"/>
<path d="M55.0848 52.026H66.7512C67.8009 52.026 68.6645 51.166 68.6645 50.111V45.7183H51.0853M39.4102 52.026H49.8319" stroke="white" stroke-miterlimit="10" stroke-linecap="round" stroke-linejoin="round"/>
<path d="M9.75047 75.5635C5.55156 74.5971 2.93406 70.4083 3.89953 66.2105L19.0959 69.7079C18.1305 73.9057 13.9448 76.5299 9.75047 75.5635Z" stroke="white" stroke-miterlimit="10" stroke-linecap="round" stroke-linejoin="round"/>
<path d="M16.0878 45.0356L18.6611 36.1436H24.5164C19.4894 50.08 22.4216 58.8081 26.5141 68.0944H22.0981M12.5977 57.2167L14.5775 50.377" stroke="white" stroke-miterlimit="10" stroke-linecap="round" stroke-linejoin="round"/>
<path d="M12.537 57.4028C7.30609 56.8797 2.38094 60.3195 1.17188 65.5811L21.475 70.2531C21.6877 70.3018 21.8161 70.3815 21.8603 70.1865C22.0109 69.4862 22.0862 68.7859 22.0952 68.0898L12.537 57.4028Z" stroke="white" stroke-miterlimit="10" stroke-linecap="round" stroke-linejoin="round"/>
<path d="M45.8356 68.0944L26.5156 68.09M66.7502 52.0259C68.3533 54.8184 69.6422 58.174 68.5306 64.5926" stroke="white" stroke-miterlimit="10" stroke-linecap="round" stroke-linejoin="round"/>
<path d="M57.4403 56.3168C51.0312 56.3168 45.8359 61.5385 45.8359 68.0944H68.3627C68.7612 68.0944 69.0536 68.1477 69.0403 67.7221C68.8498 61.3435 63.7297 56.3168 57.4403 56.3168Z" stroke="white" stroke-miterlimit="10" stroke-linecap="round" stroke-linejoin="round"/>
<path d="M48.7539 68.0944C49.0063 72.8552 52.8642 76.6406 57.5855 76.6406C62.307 76.6406 66.1648 72.8552 66.4173 68.0944H48.7539Z" stroke="white" stroke-miterlimit="10" stroke-linecap="round" stroke-linejoin="round"/>
<path d="M28.6814 62.7618H24.332" stroke="white" stroke-miterlimit="10" stroke-linecap="round" stroke-linejoin="round"/>
<path d="M32.7734 57.62V50.3814C32.7734 43.4753 36.3744 41.2456 39.302 40.9264H52.0136C52.2573 45.7183 50.4192 47.8505 45.7288 47.8548L41.5211 47.8592C39.4083 47.8592 39.4083 49.2644 39.4083 52.0259V57.62" stroke="white" stroke-miterlimit="10" stroke-linecap="round" stroke-linejoin="round"/>
<path d="M28.682 62.7618C28.4915 58.5686 31.0293 57.62 32.7745 57.62H39.4093V61.8C39.4093 62.6953 38.9222 62.7618 38.2047 62.7618H28.682Z" stroke="white" stroke-miterlimit="10" stroke-linecap="round" stroke-linejoin="round"/>
</g>
</svg>
