<svg width="52" height="54" viewBox="0 0 52 54" fill="none" xmlns="http://www.w3.org/2000/svg">
<mask id="mask0_9850_2" style="mask-type:luminance" maskUnits="userSpaceOnUse" x="5" y="5" width="42" height="42">
<path d="M5.11841 5.11971H46.0784V46.0797H5.11841V5.11971Z" fill="white"/>
</mask>
<g mask="url(#mask0_9850_2)">
<path d="M30.0795 34.6171H34.9716L40.089 45.2798H29.2161" stroke="#22B148" stroke-width="0.64" stroke-miterlimit="10" stroke-linecap="round" stroke-linejoin="round"/>
<path d="M21.9829 45.2799H11.1099L16.2274 34.6172H21.1595" stroke="#22B148" stroke-width="0.64" stroke-miterlimit="10" stroke-linecap="round" stroke-linejoin="round"/>
<path d="M25.5995 5.9199C18.4866 5.9199 12.6997 11.687 12.6997 18.7757C12.6997 22.3266 14.452 25.3131 15.9788 27.5182C16.8659 28.7996 17.8663 30.0629 18.8338 31.2847C21.7445 34.9605 25.5995 39.8569 25.5995 39.8569C25.5995 39.8569 29.4546 34.9605 32.3652 31.2847C33.3327 30.0629 34.3331 28.7996 35.2203 27.5182C36.7471 25.3131 38.4994 22.3266 38.4994 18.7757C38.4994 11.687 32.7125 5.9199 25.5995 5.9199Z" stroke="white" stroke-width="0.64" stroke-miterlimit="10" stroke-linecap="round" stroke-linejoin="round"/>
<path d="M33.0387 18.7612C33.0387 22.8562 29.7077 26.1758 25.5987 26.1758C21.4897 26.1758 18.1587 22.8562 18.1587 18.7612C18.1587 14.6663 21.4897 11.3466 25.5987 11.3466C29.7077 11.3466 33.0387 14.6663 33.0387 18.7612Z" stroke="white" stroke-width="0.64" stroke-miterlimit="10" stroke-linecap="round" stroke-linejoin="round"/>
<path d="M21.9458 39.9487H29.2524" stroke="#F47922" stroke-width="0.64" stroke-miterlimit="10" stroke-linecap="round" stroke-linejoin="round"/>
</g>
<path d="M6.59998 27.28C6.42324 27.28 6.27998 27.4232 6.27998 27.6V30.48C6.27998 30.6567 6.42324 30.8 6.59998 30.8C6.77671 30.8 6.91998 30.6567 6.91998 30.48V27.92H9.47998C9.65671 27.92 9.79998 27.7767 9.79998 27.6C9.79998 27.4232 9.65671 27.28 9.47998 27.28H6.59998ZM6.59998 27.6L6.3737 27.8262L12.8737 34.3262L13.1 34.1L13.3262 33.8737L6.82625 27.3737L6.59998 27.6Z" fill="#22B148"/>
<path d="M45.1 27.28C45.2767 27.28 45.42 27.4232 45.42 27.6V30.48C45.42 30.6567 45.2767 30.8 45.1 30.8C44.9232 30.8 44.78 30.6567 44.78 30.48V27.92H42.22C42.0432 27.92 41.9 27.7767 41.9 27.6C41.9 27.4232 42.0432 27.28 42.22 27.28H45.1ZM45.1 27.6L45.3262 27.8262L38.8262 34.3262L38.6 34.1L38.3737 33.8737L44.8737 27.3737L45.1 27.6Z" fill="#22B148"/>
<path d="M3.59998 53.42C3.42324 53.42 3.27998 53.2767 3.27998 53.1V50.22C3.27998 50.0432 3.42324 49.9 3.59998 49.9C3.77671 49.9 3.91998 50.0432 3.91998 50.22V52.78H6.47998C6.65671 52.78 6.79998 52.9232 6.79998 53.1C6.79998 53.2767 6.65671 53.42 6.47998 53.42H3.59998ZM3.59998 53.1L3.3737 52.8737L9.3737 46.8737L9.59998 47.1L9.82625 47.3262L3.82625 53.3262L3.59998 53.1Z" fill="#22B148"/>
<path d="M47.6 53.42C47.7767 53.42 47.92 53.2767 47.92 53.1V50.22C47.92 50.0432 47.7767 49.9 47.6 49.9C47.4232 49.9 47.28 50.0432 47.28 50.22V52.78H44.72C44.5432 52.78 44.4 52.9232 44.4 53.1C44.4 53.2767 44.5432 53.42 44.72 53.42H47.6ZM47.6 53.1L47.8262 52.8737L41.8262 46.8737L41.6 47.1L41.3737 47.3262L47.3737 53.3262L47.6 53.1Z" fill="#22B148"/>
</svg>
