<svg width="52" height="52" viewBox="0 0 52 52" fill="none" xmlns="http://www.w3.org/2000/svg">
<path d="M41.4201 16.3541H9.77973C9.34557 16.3541 8.99365 16.706 8.99365 17.1402V19.5558H42.2061V17.1402C42.2061 16.706 41.8542 16.3541 41.4201 16.3541Z" stroke="white" stroke-width="0.64" stroke-miterlimit="10" stroke-linecap="round" stroke-linejoin="round"/>
<path d="M42.2059 37.8691H33.9878V45.4799H42.2059V37.8691Z" stroke="white" stroke-width="0.64" stroke-miterlimit="10" stroke-linecap="round" stroke-linejoin="round"/>
<path d="M38.0963 39.5252V37.8691" stroke="white" stroke-width="0.64" stroke-miterlimit="10" stroke-linecap="round" stroke-linejoin="round"/>
<path d="M33.9886 37.8691H25.7705V45.4799H33.9886V37.8691Z" stroke="white" stroke-width="0.64" stroke-miterlimit="10" stroke-linecap="round" stroke-linejoin="round"/>
<path d="M29.8792 39.5252V37.8691" stroke="white" stroke-width="0.64" stroke-miterlimit="10" stroke-linecap="round" stroke-linejoin="round"/>
<path d="M38.8597 30.2583H30.6416V37.8691H38.8597V30.2583Z" stroke="white" stroke-width="0.64" stroke-miterlimit="10" stroke-linecap="round" stroke-linejoin="round"/>
<path d="M34.7502 31.9144V30.2583" stroke="white" stroke-width="0.64" stroke-miterlimit="10" stroke-linecap="round" stroke-linejoin="round"/>
<path d="M35.1265 22.6401H26.9084V30.2509H35.1265V22.6401Z" stroke="white" stroke-width="0.64" stroke-miterlimit="10" stroke-linecap="round" stroke-linejoin="round"/>
<path d="M31.0171 24.2965V22.6404" stroke="white" stroke-width="0.64" stroke-miterlimit="10" stroke-linecap="round" stroke-linejoin="round"/>
<path d="M30.6417 30.2583H22.4236V37.8691H30.6417V30.2583Z" stroke="white" stroke-width="0.64" stroke-miterlimit="10" stroke-linecap="round" stroke-linejoin="round"/>
<path d="M26.5321 31.9144V30.2583" stroke="white" stroke-width="0.64" stroke-miterlimit="10" stroke-linecap="round" stroke-linejoin="round"/>
<path d="M21.6608 39.5251V37.869" stroke="white" stroke-width="0.64" stroke-miterlimit="10" stroke-linecap="round" stroke-linejoin="round"/>
<path d="M21.9792 14.0414H29.2192" stroke="#22B148" stroke-width="0.64" stroke-miterlimit="10" stroke-linecap="round" stroke-linejoin="round"/>
<path d="M21.9792 11.9215H29.2192" stroke="#22B148" stroke-width="0.64" stroke-miterlimit="10" stroke-linecap="round" stroke-linejoin="round"/>
<path d="M21.9792 9.80151H29.2192" stroke="#22B148" stroke-width="0.64" stroke-miterlimit="10" stroke-linecap="round" stroke-linejoin="round"/>
<path d="M42.2061 27.2265V19.5557H8.99365V45.4798H42.2061V29.5465" stroke="#F47922" stroke-width="0.64" stroke-miterlimit="10" stroke-linecap="round" stroke-linejoin="round"/>
<path d="M17.5514 42.8344V45.4798H25.7695V37.869H17.5514V40.5144" stroke="white" stroke-width="0.64" stroke-miterlimit="10" stroke-linecap="round" stroke-linejoin="round"/>
<path d="M10.4344 11.2927L5.72021 13.0249V45.4797H45.4802V13.0249L25.6002 5.71973L12.6597 10.4749" stroke="white" stroke-width="0.64" stroke-miterlimit="10" stroke-linecap="round" stroke-linejoin="round"/>
</svg>
