<svg width="52" height="52" viewBox="0 0 52 52" fill="none" xmlns="http://www.w3.org/2000/svg">
<g clip-path="url(#clip0_9691_6514)">
<mask id="mask0_9691_6514" style="mask-type:luminance" maskUnits="userSpaceOnUse" x="-1" y="-1" width="53" height="53">
<path d="M-0.00183105 -0.000408173H51.1982V51.1996H-0.00183105V-0.000408173Z" fill="white"/>
</mask>
<g mask="url(#mask0_9691_6514)">
<path d="M24.142 22.315C24.4028 23.688 24.7571 25.0413 25.154 26.193H33.2894C33.1392 18.0766 30.1061 14.1843 27.5266 12.9248M24.3263 13.9546C23.8444 15.1007 23.6629 16.5958 23.6941 18.21" stroke="white" stroke-width="0.64" stroke-miterlimit="10" stroke-linecap="round" stroke-linejoin="round"/>
<path d="M37.8313 29.2594H48.4811C49.564 29.2594 50.4484 28.3742 50.4484 27.2906V18.5159C50.4484 17.4323 49.564 16.5471 48.4811 16.5471H39.7986C38.7158 16.5471 37.8313 17.4323 37.8313 18.5159V29.2594Z" stroke="#22B148" stroke-width="0.64" stroke-miterlimit="10" stroke-linecap="round" stroke-linejoin="round"/>
<path d="M37.8333 23.8859H50.4503V20.7908H37.8333V23.8859Z" stroke="#22B148" stroke-width="0.64" stroke-miterlimit="10" stroke-linecap="round" stroke-linejoin="round"/>
<path d="M24.3072 2.14964C21.2061 2.14964 18.6946 4.71704 18.6946 7.88874H24.792C25.2597 7.93124 25.6168 8.07314 25.6168 8.77674V13.764C28.3551 13.1398 29.9198 10.7313 29.9198 7.88874C29.9198 4.71704 27.4084 2.14964 24.3072 2.14964Z" stroke="#F47922" stroke-width="0.64" stroke-miterlimit="10" stroke-linecap="round" stroke-linejoin="round"/>
<path d="M20.1771 7.88795C19.9815 8.38725 19.8767 8.93195 19.8767 9.50225C19.8767 11.9589 21.8666 13.9532 24.3214 13.9532C24.7692 13.9532 25.203 13.8852 25.6111 13.7632" stroke="white" stroke-width="0.64" stroke-miterlimit="10" stroke-linecap="round" stroke-linejoin="round"/>
<path d="M24.581 17.4463L21.375 20.2038L18.9088 20.4024L16.4285 20.6038C14.7362 20.7428 14.7788 23.1315 16.2187 23.1315H22.8831L26.6417 20.6917C29.6125 18.7626 26.8034 15.5314 24.581 17.4463Z" stroke="white" stroke-width="0.64" stroke-miterlimit="10" stroke-linecap="round" stroke-linejoin="round"/>
<path d="M16.2174 23.1311H10.052V19.2276C10.052 18.4587 10.4517 18.629 11.1236 18.8502L16.4272 20.6035C14.7349 20.7424 14.7774 23.1311 16.2174 23.1311Z" stroke="white" stroke-width="0.64" stroke-miterlimit="10" stroke-linecap="round" stroke-linejoin="round"/>
<path d="M18.906 23.1311V20.402" stroke="white" stroke-width="0.64" stroke-miterlimit="10" stroke-linecap="round" stroke-linejoin="round"/>
<path d="M35.251 33.2964H42.7175C43.3893 33.2964 43.942 32.746 43.942 32.0708V29.2595H32.6913M25.2192 33.2964H31.8891" stroke="white" stroke-width="0.64" stroke-miterlimit="10" stroke-linecap="round" stroke-linejoin="round"/>
<path d="M6.2417 48.3597C3.5544 47.7412 1.8792 45.0604 2.4971 42.3738L12.2228 44.6121C11.6049 47.2987 8.92609 48.9782 6.2417 48.3597Z" stroke="white" stroke-width="0.64" stroke-miterlimit="10" stroke-linecap="round" stroke-linejoin="round"/>
<path d="M10.2994 28.8226L11.9463 23.1317H15.6937C12.4764 32.051 14.353 37.637 16.9722 43.5802H14.146M8.06567 36.6185L9.33277 32.2411" stroke="white" stroke-width="0.64" stroke-miterlimit="10" stroke-linecap="round" stroke-linejoin="round"/>
<path d="M8.0215 36.737C4.6737 36.4022 1.5216 38.6037 0.747803 41.9711L13.7418 44.9612C13.8779 44.9924 13.9601 45.0434 13.9884 44.9186C14.0848 44.4704 14.133 44.0222 14.1387 43.5767L8.0215 36.737Z" stroke="white" stroke-width="0.64" stroke-miterlimit="10" stroke-linecap="round" stroke-linejoin="round"/>
<path d="M29.334 43.5803L16.9692 43.5775M42.7193 33.2965C43.7453 35.0837 44.5702 37.2313 43.8588 41.3392" stroke="white" stroke-width="0.64" stroke-miterlimit="10" stroke-linecap="round" stroke-linejoin="round"/>
<path d="M36.7581 36.0424C32.6563 36.0424 29.3313 39.3843 29.3313 43.5801H43.7484C44.0035 43.5801 44.1906 43.6142 44.1821 43.3418C44.0602 39.2595 40.7833 36.0424 36.7581 36.0424Z" stroke="white" stroke-width="0.64" stroke-miterlimit="10" stroke-linecap="round" stroke-linejoin="round"/>
<path d="M31.2024 43.5796C31.3639 46.6265 33.833 49.0492 36.8546 49.0492C39.8764 49.0492 42.3454 46.6265 42.507 43.5796H31.2024Z" stroke="white" stroke-width="0.64" stroke-miterlimit="10" stroke-linecap="round" stroke-linejoin="round"/>
<path d="M18.3532 40.1676H15.5696" stroke="white" stroke-width="0.64" stroke-miterlimit="10" stroke-linecap="round" stroke-linejoin="round"/>
<path d="M20.9731 36.8768V32.2441C20.9731 27.8242 23.2777 26.3972 25.1514 26.1929H33.2868C33.4428 29.2597 32.2664 30.6243 29.2645 30.6271L26.5716 30.6299C25.2194 30.6299 25.2194 31.5292 25.2194 33.2966V36.8768" stroke="white" stroke-width="0.64" stroke-miterlimit="10" stroke-linecap="round" stroke-linejoin="round"/>
<path d="M18.3546 40.1675C18.2327 37.4838 19.8569 36.8767 20.9738 36.8767H25.2201V39.5519C25.2201 40.1249 24.9083 40.1675 24.4491 40.1675H18.3546Z" stroke="white" stroke-width="0.64" stroke-miterlimit="10" stroke-linecap="round" stroke-linejoin="round"/>
</g>
</g>
<defs>
<clipPath id="clip0_9691_6514">
<rect width="51.2" height="51.2" fill="white"/>
</clipPath>
</defs>
</svg>
