<svg width="70" height="70" viewBox="0 0 70 70" fill="none" xmlns="http://www.w3.org/2000/svg">
<path d="M11.0264 53.2749H7.75115C6.73328 53.2749 5.90808 54.1001 5.90808 55.118V58.3856C5.90808 58.7249 6.18319 59 6.52244 59H62.5441C62.8833 59 63.1584 58.7249 63.1584 58.3856V55.118C63.1584 54.1001 62.3332 53.2749 61.3154 53.2749H15.4498" stroke="#22B148" stroke-width="0.6" stroke-miterlimit="10" stroke-linecap="round" stroke-linejoin="round"/>
<path d="M34.5337 36.0986C35.5876 36.0986 36.442 35.2442 36.442 34.1903C36.442 33.1364 35.5876 32.282 34.5337 32.282C33.4797 32.282 32.6254 33.1364 32.6254 34.1903C32.6254 35.2442 33.4797 36.0986 34.5337 36.0986Z" stroke="#F47922" stroke-width="0.6" stroke-miterlimit="10" stroke-linecap="round" stroke-linejoin="round"/>
<path d="M40.2585 34.191V34.0668C40.2585 33.9002 40.3261 33.7407 40.4458 33.6249L41.6116 32.4977C41.8976 32.2211 41.9588 31.7853 41.7598 31.4406L40.5285 29.3081C40.3295 28.9634 39.9215 28.7985 39.539 28.9079L37.981 29.3536C37.8208 29.3994 37.6487 29.3781 37.5044 29.2947L37.2874 29.1691C37.1434 29.0858 37.0393 28.9477 36.999 28.7864L36.6061 27.2145C36.5096 26.8284 36.1626 26.5576 35.7648 26.5576H33.3023C32.9043 26.5576 32.5575 26.8284 32.461 27.2145L32.0681 28.7864C32.0278 28.9477 31.9237 29.0858 31.7797 29.1691L31.5627 29.2947C31.4184 29.3781 31.2464 29.3994 31.0861 29.3536L29.5281 28.9079C29.1454 28.7984 28.7375 28.9634 28.5386 29.3081L27.3073 31.4406C27.1084 31.7853 27.1694 32.2211 27.4555 32.4977L28.6213 33.6249C28.7411 33.7407 28.8087 33.9002 28.8085 34.0668V34.191V34.3152C28.8085 34.4818 28.7409 34.6413 28.6213 34.7571L27.4555 35.8843C27.1694 36.1609 27.1082 36.5967 27.3073 36.9413L28.5386 39.0739C28.7375 39.4185 29.1456 39.5834 29.5281 39.4741L31.0861 39.0284C31.2463 38.9826 31.4183 39.0038 31.5627 39.0873L31.7797 39.2129C31.9237 39.2962 32.0278 39.4343 32.0681 39.5956L32.461 41.1675C32.5575 41.5535 32.9044 41.8244 33.3023 41.8244H35.7648C36.1627 41.8244 36.5096 41.5535 36.6061 41.1675L36.999 39.5956C37.0393 39.4343 37.1434 39.2962 37.2874 39.2129L37.5044 39.0873C37.6486 39.0038 37.8206 38.9826 37.981 39.0284L39.539 39.4741C39.9216 39.5836 40.3295 39.4185 40.5285 39.0739L41.7598 36.9413C41.9587 36.5967 41.8976 36.1609 41.6116 35.8843L40.4458 34.7571C40.326 34.6413 40.2584 34.4818 40.2585 34.3152V34.191Z" stroke="#F47922" stroke-width="0.6" stroke-miterlimit="10" stroke-linecap="round" stroke-linejoin="round"/>
<path d="M34.5334 22.742V18.9253" stroke="white" stroke-width="0.6" stroke-miterlimit="10" stroke-linecap="round" stroke-linejoin="round"/>
<path d="M32.6254 20.8337L34.5337 18.9253L36.442 20.8337" stroke="white" stroke-width="0.6" stroke-miterlimit="10" stroke-linecap="round" stroke-linejoin="round"/>
<path d="M45.984 34.1901H57.4341" stroke="white" stroke-width="0.6" stroke-miterlimit="10" stroke-linecap="round" stroke-linejoin="round"/>
<path d="M55.5255 32.282L57.4338 34.1903L55.5255 36.0987" stroke="white" stroke-width="0.6" stroke-miterlimit="10" stroke-linecap="round" stroke-linejoin="round"/>
<path d="M23.0834 34.1901H11.6334" stroke="white" stroke-width="0.6" stroke-miterlimit="10" stroke-linecap="round" stroke-linejoin="round"/>
<path d="M13.5417 32.282L11.6334 34.1903L13.5417 36.0987" stroke="white" stroke-width="0.6" stroke-miterlimit="10" stroke-linecap="round" stroke-linejoin="round"/>
<path d="M61.2507 45.7002V53.2737" stroke="white" stroke-width="0.6" stroke-miterlimit="10" stroke-linecap="round" stroke-linejoin="round"/>
<path d="M61.2507 22.1198V41.2766" stroke="white" stroke-width="0.6" stroke-miterlimit="10" stroke-linecap="round" stroke-linejoin="round"/>
<path d="M7.81628 53.2735V22.1198" stroke="white" stroke-width="0.6" stroke-miterlimit="10" stroke-linecap="round" stroke-linejoin="round"/>
<path d="M18.6687 15.2077L34.2146 11.042C34.4239 10.986 34.6443 10.986 34.8536 11.042L64.6094 19.0157C64.9386 19.104 65.1339 19.4422 65.0458 19.7714L64.3737 22.2831C64.2856 22.6124 63.9471 22.8079 63.6178 22.7197L34.6938 14.9698C34.5892 14.9418 34.4791 14.9418 34.3744 14.9698L5.44914 22.7197C5.11985 22.8079 4.78134 22.6124 4.69324 22.2831L4.02113 19.7714C3.93304 19.4422 4.1284 19.104 4.45757 19.0157L14.4667 16.3337" stroke="white" stroke-width="0.6" stroke-miterlimit="10" stroke-linecap="round" stroke-linejoin="round"/>
<path d="M34.5334 45.6425V49.4591" stroke="white" stroke-width="0.6" stroke-miterlimit="10" stroke-linecap="round" stroke-linejoin="round"/>
<path d="M32.6254 47.5507L34.5337 49.459L36.442 47.5507" stroke="white" stroke-width="0.6" stroke-miterlimit="10" stroke-linecap="round" stroke-linejoin="round"/>
</svg>
