<svg width="84" height="84" viewBox="0 0 84 84" fill="none" xmlns="http://www.w3.org/2000/svg">
<path d="M65.0408 49.276C67.7051 49.276 69.8649 47.1163 69.8649 44.452C69.8649 40.6723 65.0408 35.5488 65.0408 35.5488C65.0408 35.5488 60.2168 40.6723 60.2168 44.452C60.2169 47.1163 62.3767 49.276 65.0408 49.276Z" stroke="white" stroke-width="2" stroke-miterlimit="10"/>
<path d="M27.3084 47.5938C27.0151 47.5938 26.7773 47.356 26.7773 47.0627V40.3785C26.7773 40.0852 27.0151 39.8475 27.3084 39.8475C27.6016 39.8475 27.8394 40.0852 27.8394 40.3785V47.0627C27.8394 47.356 27.6016 47.5938 27.3084 47.5938Z" fill="white" stroke="white" stroke-width="0.5" stroke-miterlimit="10" stroke-linecap="round" stroke-linejoin="round"/>
<path d="M10.4822 47.5938C10.1889 47.5938 9.95117 47.356 9.95117 47.0627V36.9319C9.95117 36.6386 10.1889 36.4008 10.4822 36.4008C10.7754 36.4008 11.0132 36.6386 11.0132 36.9319V47.0627C11.0132 47.356 10.7754 47.5938 10.4822 47.5938Z" fill="white" stroke="white" stroke-width="0.5" stroke-miterlimit="10" stroke-linecap="round" stroke-linejoin="round"/>
<path d="M26.7717 42.2319C26.7717 41.0142 25.7235 39.9883 24.33 39.8422L15.8069 39.1579C14.7733 39.075 13.8887 39.8914 13.8887 40.9284V42.3708C13.8887 42.8051 14.2408 43.1572 14.6751 43.1572H26.7717V42.2319Z" stroke="white" stroke-miterlimit="10" stroke-linecap="round" stroke-linejoin="round"/>
<path d="M12.0996 45.5732H25.6917" stroke="white" stroke-miterlimit="10" stroke-linecap="round" stroke-linejoin="round"/>
<path d="M12.7997 41.8672H11.0137" stroke="white" stroke-miterlimit="10" stroke-linecap="round" stroke-linejoin="round"/>
<path d="M14.6197 38.8796C14.6197 39.6936 13.9598 40.3535 13.1458 40.3535C12.3318 40.3535 11.6719 39.6936 11.6719 38.8796C11.6719 38.0656 12.3318 37.4057 13.1458 37.4057C13.9598 37.4057 14.6197 38.0656 14.6197 38.8796Z" stroke="white" stroke-miterlimit="10" stroke-linecap="round" stroke-linejoin="round"/>
<path d="M12.2843 40.077H11.8383C11.3829 40.077 11.0137 40.4462 11.0137 40.9016V41.8672" stroke="white" stroke-miterlimit="10" stroke-linecap="round" stroke-linejoin="round"/>
<path d="M14.0293 40.2422C13.9839 40.2081 13.9347 40.1791 13.8828 40.1549" stroke="white" stroke-miterlimit="10" stroke-linecap="round" stroke-linejoin="round"/>
<path d="M32.6084 42.4829C32.6084 50.0231 26.4957 56.1357 18.9555 56.1357C11.4154 56.1357 5.30273 50.0231 5.30273 42.4829C5.30273 34.9427 11.4154 28.8301 18.9555 28.8301C26.4957 28.8301 32.6084 34.9426 32.6084 42.4829Z" stroke="white" stroke-width="2" stroke-miterlimit="10"/>
<path d="M65.0386 56.0654C72.5788 56.0654 78.6914 49.9528 78.6914 42.4126C78.6914 34.8723 72.5788 28.7598 65.0386 28.7598C57.4983 28.7598 51.3857 34.8723 51.3857 42.4126C51.3857 49.9528 57.4983 56.0654 65.0386 56.0654Z" stroke="white" stroke-width="2" stroke-miterlimit="10"/>
<path d="M41.9614 32.7841C49.5016 32.7841 55.6142 26.6716 55.6142 19.1313C55.6142 11.5911 49.5016 5.47852 41.9614 5.47852C34.4212 5.47852 28.3086 11.5911 28.3086 19.1313C28.3086 26.6716 34.4212 32.7841 41.9614 32.7841Z" stroke="white" stroke-width="2" stroke-miterlimit="10"/>
<path d="M41.9635 23.0021C45.5633 23.0021 48.4816 20.0838 48.4816 16.484C48.4816 12.8841 45.5633 9.96582 41.9635 9.96582C38.3636 9.96582 35.4453 12.8841 35.4453 16.484C35.4453 20.0838 38.3636 23.0021 41.9635 23.0021Z" stroke="white" stroke-width="2" stroke-miterlimit="10"/>
<path d="M38.7148 22.6991V27.4541H45.3251V22.2236" stroke="white" stroke-width="2" stroke-miterlimit="10"/>
<path d="M19.1123 28.5291C21.3185 24.7898 24.4138 21.6377 28.1073 19.3633" stroke="white" stroke-width="2" stroke-miterlimit="10"/>
<path d="M55.6045 19.1514C59.5018 21.4692 62.7563 24.755 65.0364 28.6773" stroke="white" stroke-width="2" stroke-miterlimit="10"/>
<path d="M55.3687 70.7562V78.5439H46.505H28.7656L28.7675 61.7236" stroke="white" stroke-width="2" stroke-miterlimit="10"/>
<path d="M31.8207 61.9096L41.9853 51.7875L52.1733 61.9042L58.484 61.9151L42.02 45.4717L25.5635 61.9089L31.8207 61.9096Z" stroke="white" stroke-width="2" stroke-miterlimit="10"/>
<path d="M38.6377 78.2972V67.3994H45.3334V78.7419" stroke="white" stroke-width="2" stroke-miterlimit="10"/>
<path d="M55.3369 68.4932V62.0059" stroke="white" stroke-width="2" stroke-miterlimit="10"/>
</svg>
