<svg width="84" height="84" viewBox="0 0 84 84" fill="none" xmlns="http://www.w3.org/2000/svg">
<mask id="mask0_6977_14731" style="mask-type:luminance" maskUnits="userSpaceOnUse" x="4" y="4" width="76" height="76">
<path d="M4.18848 4.19981H79.7885V79.7998H4.18848V4.19981Z" fill="white"/>
</mask>
<g mask="url(#mask0_6977_14731)">
<path d="M58.9973 56.7953L55.5862 50.728C54.9347 49.5684 53.4654 49.1572 52.3069 49.8089C51.1475 50.4607 50.736 51.9288 51.3879 53.0882L54.4409 58.519H50.1058C50.0767 58.0426 49.9077 57.5701 49.5879 57.1683C48.7597 56.1277 47.2446 55.9554 46.2039 56.7833C43.0063 59.3279 43.4256 58.9899 43.2727 59.125C42.1345 60.1332 42.2166 61.8888 43.3635 62.8073C43.3642 62.8077 43.3648 62.8085 43.3648 62.8085L46.2026 65.0698C47.242 65.898 48.7574 65.7282 49.5869 64.6874C49.9072 64.2855 50.0767 63.8122 50.1058 63.3354H55.1788C56.7569 63.3354 58.1734 62.5213 58.968 61.1575C59.7622 59.7938 59.7715 58.1598 58.9973 56.7953Z" stroke="white" stroke-width="1.8" stroke-miterlimit="10" stroke-linecap="round" stroke-linejoin="round"/>
<path d="M43.4142 41.9049C42.9268 43.1424 43.535 44.5406 44.7728 45.0278L48.1464 46.3562C49.6673 46.9548 51.3284 45.9064 51.4396 44.277L51.9498 40.8859C52.1475 39.5706 51.2419 38.344 49.9264 38.1463C49.4349 38.072 48.9552 38.1528 48.5367 38.3519L45.8067 33.5391C44.1362 30.5944 39.8645 30.5664 38.1715 33.5526L34.1377 40.7693C33.4886 41.93 33.9038 43.3973 35.0648 44.0462C36.2251 44.695 37.6929 44.2804 38.3417 43.1192L41.9957 36.5823L44.3639 40.7572C43.9483 41.0209 43.6082 41.4119 43.4142 41.9049Z" stroke="white" stroke-width="1.8" stroke-miterlimit="10" stroke-linecap="round" stroke-linejoin="round"/>
<path d="M34.0259 63.3359H36.0605C37.3906 63.3359 38.4688 62.2576 38.4688 60.9277C38.4688 59.5979 37.3906 58.5195 36.0605 58.5195H29.5477L31.6116 54.8811C33.35 55.704 35.3058 54.2473 35.0216 52.3474L34.5141 48.9553C34.4014 47.3149 32.7298 46.284 31.223 46.8763L27.8459 48.2029C26.608 48.6893 25.9987 50.0869 26.485 51.3248C26.6794 51.8199 27.021 52.2121 27.4382 52.4763L24.9926 56.7875C23.3349 59.7099 25.4428 63.3359 28.8064 63.3359" stroke="white" stroke-width="1.8" stroke-miterlimit="10" stroke-linecap="round" stroke-linejoin="round"/>
<path d="M52.3442 21.3129C49.0652 16.5662 46.1847 11.6263 43.8833 6.53367C43.1443 4.89823 40.8415 4.89823 40.1024 6.53367C35.7061 16.2626 29.199 25.4343 21.8291 33.7664C6.39688 51.213 18.7004 78.6924 41.9929 78.6924C65.2856 78.6924 77.589 51.213 62.1567 33.7664C59.7938 31.0951 57.5204 28.3369 55.376 25.5023" stroke="white" stroke-width="1.8" stroke-miterlimit="10" stroke-linecap="round" stroke-linejoin="round"/>
</g>
</svg>
