<svg width="84" height="84" viewBox="0 0 84 84" fill="none" xmlns="http://www.w3.org/2000/svg">
<path d="M13.5596 73.4932H6.22108C5.54556 73.4932 4.99805 74.0407 4.99805 74.7162V77.1624C4.99805 77.838 5.5457 78.3855 6.22108 78.3855H55.1445C55.82 78.3855 56.3675 77.8378 56.3675 77.1624V74.7162C56.3675 74.0407 55.8199 73.4932 55.1445 73.4932H51.2655" stroke="black" stroke-width="1.8" stroke-miterlimit="10" stroke-linecap="round" stroke-linejoin="round"/>
<path d="M53.9225 50.2542V39.7006C53.9225 38.8614 53.4922 38.0805 52.7826 37.6324L33.2964 25.3253C31.7005 24.3174 29.6673 24.3174 28.0714 25.3253L8.58522 37.6324C7.87558 38.0805 7.44531 38.8614 7.44531 39.7006V73.4928" stroke="black" stroke-width="1.8" stroke-miterlimit="10" stroke-linecap="round" stroke-linejoin="round"/>
<path d="M27.0121 39.2468H34.3506C35.0261 39.2468 35.5737 38.6991 35.5737 38.0237V35.5775C35.5737 34.902 35.0261 34.3545 34.3506 34.3545H27.0121C26.3366 34.3545 25.7891 34.9021 25.7891 35.5775V38.0237C25.7891 38.6993 26.3366 39.2468 27.0121 39.2468Z" stroke="black" stroke-width="1.8" stroke-miterlimit="10" stroke-linecap="round" stroke-linejoin="round"/>
<path d="M47.809 50.2541V46.5849C47.809 45.2338 46.7138 44.1387 45.3628 44.1387H16.0087C14.6578 44.1387 13.5625 45.2338 13.5625 46.5849V78.3852" stroke="black" stroke-width="1.8" stroke-miterlimit="10" stroke-linecap="round" stroke-linejoin="round"/>
<path d="M47.809 50.2539H13.5625" stroke="black" stroke-width="1.8" stroke-miterlimit="10" stroke-linecap="round" stroke-linejoin="round"/>
<path d="M18.6275 9.89258H10.9395" stroke="black" stroke-width="1.8" stroke-miterlimit="10" stroke-linecap="round" stroke-linejoin="round"/>
<path d="M10.8139 13.3082L11.0685 6.17948C11.0921 5.52137 11.6324 5 12.2908 5H17.2689C17.9274 5 18.4677 5.52137 18.4912 6.17948L19.371 30.8177L9.97656 36.7511L10.6292 18.4761" stroke="black" stroke-width="1.8" stroke-miterlimit="10" stroke-linecap="round" stroke-linejoin="round"/>
<path d="M47.803 78.3854C49.8295 78.3854 51.4723 76.7426 51.4723 74.7161C51.4723 72.6897 49.8295 71.0469 47.803 71.0469C45.7766 71.0469 44.1338 72.6897 44.1338 74.7161C44.1338 76.7426 45.7766 78.3854 47.803 78.3854Z" stroke="black" stroke-width="1.8" stroke-miterlimit="10" stroke-linecap="round" stroke-linejoin="round"/>
<path d="M68.6019 78.3854C70.6284 78.3854 72.2711 76.7426 72.2711 74.7161C72.2711 72.6897 70.6284 71.0469 68.6019 71.0469C66.5754 71.0469 64.9326 72.6897 64.9326 74.7161C64.9326 76.7426 66.5754 78.3854 68.6019 78.3854Z" stroke="black" stroke-width="1.8" stroke-miterlimit="10" stroke-linecap="round" stroke-linejoin="round"/>
<path d="M34.3535 68.6006H38.0228C38.6983 68.6006 39.2458 69.1482 39.2458 69.8236V73.4929" stroke="black" stroke-width="1.8" stroke-miterlimit="10" stroke-linecap="round" stroke-linejoin="round"/>
<path d="M34.3535 60.0811V72.2702C34.3535 72.9458 34.9012 73.4933 35.5766 73.4933H44.3478" stroke="black" stroke-width="1.8" stroke-miterlimit="10" stroke-linecap="round" stroke-linejoin="round"/>
<path d="M51.2672 73.4926H61.2615V52.7001C61.2615 51.3492 60.1663 50.2539 58.8153 50.2539H36.7997C35.4487 50.2539 34.3535 51.3491 34.3535 52.7001V54.8429" stroke="black" stroke-width="1.8" stroke-miterlimit="10" stroke-linecap="round" stroke-linejoin="round"/>
<path d="M61.2617 73.4932H65.1407" stroke="black" stroke-width="1.8" stroke-miterlimit="10" stroke-linecap="round" stroke-linejoin="round"/>
<path d="M72.0598 73.4932H74.7156C75.3911 73.4932 75.9386 72.9456 75.9386 72.2702V64.4493C75.9386 63.9663 75.7957 63.4942 75.5278 63.0923L71.7725 57.4594C71.3187 56.7788 70.5551 56.3701 69.7372 56.3701H61.2617" stroke="black" stroke-width="1.8" stroke-miterlimit="10" stroke-linecap="round" stroke-linejoin="round"/>
<path d="M66.1562 56.3691V61.4714C66.1562 62.1202 66.4139 62.7424 66.8727 63.2011L67.8859 64.2143C68.3447 64.673 68.9669 64.9307 69.6155 64.9307H75.9408" stroke="black" stroke-width="1.8" stroke-miterlimit="10" stroke-linecap="round" stroke-linejoin="round"/>
<path d="M61.8735 16.0575H68.3966C68.7343 16.0575 69.0082 16.3313 69.0082 16.6691V18.5037C69.0082 19.0077 69.5835 19.2953 69.9867 18.9929L78.1406 12.8775C78.4668 12.6328 78.4668 12.1436 78.1406 11.8989L69.9866 5.7836C69.5835 5.4812 69.0081 5.76884 69.0081 6.27279V8.10742C69.0081 8.44511 68.7343 8.71901 68.3965 8.71901H61.8733C61.5356 8.71901 61.2617 8.99276 61.2617 9.3306V15.4461C61.2619 15.7838 61.5358 16.0575 61.8735 16.0575Z" stroke="black" stroke-width="1.8" stroke-miterlimit="10" stroke-linecap="round" stroke-linejoin="round"/>
<path d="M63.0927 20.9005H56.5697C56.232 20.9005 55.9581 20.6267 55.9581 20.2889V18.4544C55.9581 17.9505 55.3828 17.6628 54.9796 17.9652L46.8257 24.0806C46.4995 24.3252 46.4995 24.8144 46.8257 25.0591L54.9796 31.1746C55.3827 31.477 55.9581 31.1893 55.9581 30.6854V28.8508C55.9581 28.5131 56.2318 28.2392 56.5697 28.2392H63.0927C63.4304 28.2392 63.7043 27.9654 63.7043 27.6276V21.5121C63.7043 21.1743 63.4305 20.9005 63.0927 20.9005Z" stroke="black" stroke-width="1.8" stroke-miterlimit="10" stroke-linecap="round" stroke-linejoin="round"/>
</svg>
