<svg width="84" height="84" viewBox="0 0 84 84" fill="none" xmlns="http://www.w3.org/2000/svg">
<path d="M36.8721 43.2739L39.1421 46.0573C39.4283 46.4081 39.96 46.4211 40.263 46.0846L47.1311 38.4561" stroke="white" stroke-width="2" stroke-miterlimit="10" stroke-linecap="round" stroke-linejoin="round"/>
<path d="M63.3811 51.6257L64.1946 50.2181C64.4323 49.8068 64.3842 49.2904 64.0744 48.93L60.9095 45.2473C60.7929 45.1116 60.7427 44.932 60.7685 44.755C61.035 42.9202 61.0353 41.0854 60.7692 39.2505C60.7434 39.0735 60.7937 38.8939 60.9104 38.7582L64.0763 35.0764C64.3861 34.7161 64.4344 34.1996 64.1968 33.7883L60.2176 26.8985C59.98 26.4871 59.5084 26.2705 59.0412 26.3583L54.2654 27.2565C54.0891 27.2896 53.9081 27.2431 53.7674 27.1318C52.3322 25.9956 50.7285 25.063 49 24.3765C48.8334 24.3104 48.7026 24.177 48.6434 24.0081L47.0368 19.43C46.8795 18.9817 46.456 18.6817 45.9807 18.6817L38.0206 18.6807C37.5453 18.6807 37.1218 18.9806 36.9644 19.4287L35.3564 24.0063C35.2971 24.1754 35.1662 24.3086 34.9997 24.3747C33.2711 25.0607 31.6671 25.9929 30.2316 27.1287C30.0908 27.24 29.9098 27.2865 29.7335 27.2533L24.958 26.3539C24.491 26.2659 24.0192 26.4824 23.7815 26.8937L19.8005 33.7825C19.5628 34.1937 19.6109 34.7102 19.9207 35.0707L23.0856 38.7533C23.2022 38.889 23.2524 39.0686 23.2266 39.2456C22.9601 41.0804 22.9599 42.9152 23.2259 44.7501C23.2517 44.9272 23.2014 45.1067 23.0847 45.2424L19.9188 48.9242C19.609 49.2845 19.5607 49.801 19.7983 50.2124L23.7775 57.1022C24.0151 57.5135 24.4867 57.7301 24.9539 57.6423L29.7297 56.7441C29.906 56.711 30.087 56.7575 30.2277 56.8689C31.6629 58.0051 33.2666 58.9377 34.9951 59.6241C35.1617 59.6903 35.2925 59.8236 35.3517 59.9925L36.9583 64.5706C37.1156 65.0189 37.5391 65.3189 38.0144 65.3189L45.9745 65.32C46.4498 65.3201 46.8733 65.0201 47.0307 64.5719L48.6387 59.9943C48.698 59.8252 48.8289 59.692 48.9954 59.6259C50.724 58.9399 52.328 58.0077 53.7635 56.872C53.9043 56.7606 54.0853 56.7141 54.2616 56.7473L59.0371 57.6467C59.5041 57.7347 59.9759 57.5182 60.2136 57.1069L61.1726 55.4474M41.9977 53.9447C35.3967 53.9447 30.0455 48.597 30.0455 42.0002C30.0455 35.4033 35.3967 30.0557 41.9977 30.0557C48.5987 30.0557 53.9499 35.4035 53.9499 42.0002C53.9499 48.5969 48.5987 53.9447 41.9977 53.9447Z" stroke="white" stroke-width="2" stroke-miterlimit="10" stroke-linecap="round" stroke-linejoin="round"/>
<path d="M8.87611 26.3984C8.68829 26.795 8.50534 27.1947 8.33066 27.5997C4.46369 36.5676 4.32253 46.497 7.93347 55.5584C11.8365 65.353 19.7913 72.9764 29.7581 76.4741C29.9805 76.5522 30.2074 76.588 30.4302 76.5858C31.2363 76.578 31.9879 76.0726 32.2705 75.2686C32.631 74.2425 32.0909 73.1184 31.0641 72.7581C22.1726 69.6377 15.0765 62.8376 11.595 54.1012C5.38448 38.5158 12.1235 20.9115 26.6641 13.2178L26.2083 14.167C25.7374 15.1475 26.151 16.3238 27.1322 16.7945C28.1396 17.2347 29.0161 16.9268 29.7615 15.8712L32.1274 10.9451C32.7567 9.10973 32.1841 7.79884 30.4094 7.01213L25.1847 5.39603C24.1452 5.07488 23.0414 5.65605 22.7195 6.69496C22.3976 7.73372 22.9795 8.83672 24.0191 9.15846L25.215 9.52834C19.3443 12.5352 14.4583 17.0169 10.975 22.5655" stroke="white" stroke-width="2" stroke-miterlimit="10" stroke-linecap="round" stroke-linejoin="round"/>
<path d="M76.0592 28.4419C72.1562 18.6473 64.2014 11.0238 54.2346 7.52611C53.2076 7.16509 52.0829 7.70537 51.7222 8.73158C51.3616 9.75764 51.9017 10.8817 52.9285 11.2419C61.8201 14.3623 68.9163 21.1625 72.3976 29.8988C78.6083 45.4844 71.8691 63.0887 57.3285 70.7823L57.7844 69.8332C58.2552 68.8526 57.8416 67.6764 56.8605 67.2057C55.8794 66.7354 54.702 67.1487 54.2312 68.129L51.8653 73.0551C51.236 74.8904 51.8086 76.2013 53.5832 76.988L58.8078 78.6041C59.8129 78.8969 60.6346 78.4639 61.273 77.3052C61.5949 76.2663 61.013 75.1634 59.9734 74.8417L58.7775 74.4718C66.3341 70.6015 72.2607 64.2887 75.662 56.4006C79.529 47.4327 79.6701 37.5033 76.0592 28.4419Z" stroke="white" stroke-width="2" stroke-miterlimit="10" stroke-linecap="round" stroke-linejoin="round"/>
</svg>
