<svg width="90" height="90" viewBox="0 0 90 90" fill="none" xmlns="http://www.w3.org/2000/svg">
<path d="M21.9761 21.9445V16.7664C21.9761 15.6042 22.9182 14.6621 24.0803 14.6621H66.1658C67.3279 14.6621 68.27 15.6042 68.27 16.7664V58.8518C68.27 60.014 67.3279 60.9561 66.1658 60.9561H24.0803C22.9182 60.9561 21.9761 60.014 21.9761 58.8518V25.988" stroke="#F47922" stroke-miterlimit="10" stroke-linecap="round" stroke-linejoin="round"/>
<path d="M25.6802 56.5373V19.0798C25.6802 18.6905 25.9957 18.375 26.385 18.375H63.8424C64.2316 18.375 64.5472 18.6905 64.5472 19.0798V56.5372C64.5472 56.9265 64.2316 57.242 63.8424 57.242H26.385C25.9957 57.2421 25.6802 56.9266 25.6802 56.5373Z" stroke="#22B148" stroke-miterlimit="10" stroke-linecap="round" stroke-linejoin="round"/>
<path d="M33.4968 26.4733H31.332C30.9043 26.4733 30.5576 26.1266 30.5576 25.6989V23.5341C30.5576 23.1065 30.9043 22.7598 31.332 22.7598H33.4968C33.9244 22.7598 34.2712 23.1065 34.2712 23.5341V25.6989C34.2712 26.1266 33.9244 26.4733 33.4968 26.4733Z" stroke="black" stroke-miterlimit="10" stroke-linecap="round" stroke-linejoin="round"/>
<path d="M33.4968 35.2448H31.332C30.9043 35.2448 30.5576 34.8981 30.5576 34.4704V32.3056C30.5576 31.878 30.9043 31.5312 31.332 31.5312H33.4968C33.9244 31.5312 34.2712 31.878 34.2712 32.3056V34.4704C34.2712 34.8982 33.9244 35.2448 33.4968 35.2448Z" stroke="black" stroke-miterlimit="10" stroke-linecap="round" stroke-linejoin="round"/>
<path d="M33.4968 44.0182H31.332C30.9043 44.0182 30.5576 43.6715 30.5576 43.2439V41.0791C30.5576 40.6514 30.9043 40.3047 31.332 40.3047H33.4968C33.9244 40.3047 34.2712 40.6514 34.2712 41.0791V43.2439C34.2712 43.6715 33.9244 44.0182 33.4968 44.0182Z" stroke="black" stroke-miterlimit="10" stroke-linecap="round" stroke-linejoin="round"/>
<path d="M33.4968 52.7897H31.332C30.9043 52.7897 30.5576 52.443 30.5576 52.0153V49.8505C30.5576 49.4229 30.9043 49.0762 31.332 49.0762H33.4968C33.9244 49.0762 34.2712 49.4229 34.2712 49.8505V52.0153C34.2712 52.443 33.9244 52.7897 33.4968 52.7897Z" stroke="black" stroke-miterlimit="10" stroke-linecap="round" stroke-linejoin="round"/>
<path d="M41.9704 26.4733H39.8056C39.378 26.4733 39.0312 26.1266 39.0312 25.6989V23.5341C39.0312 23.1065 39.378 22.7598 39.8056 22.7598H41.9704C42.3981 22.7598 42.7448 23.1065 42.7448 23.5341V25.6989C42.7448 26.1266 42.3981 26.4733 41.9704 26.4733Z" stroke="black" stroke-miterlimit="10" stroke-linecap="round" stroke-linejoin="round"/>
<path d="M41.9704 35.2448H39.8056C39.378 35.2448 39.0312 34.8981 39.0312 34.4704V32.3056C39.0312 31.878 39.378 31.5312 39.8056 31.5312H41.9704C42.3981 31.5312 42.7448 31.878 42.7448 32.3056V34.4704C42.7448 34.8982 42.3981 35.2448 41.9704 35.2448Z" stroke="black" stroke-miterlimit="10" stroke-linecap="round" stroke-linejoin="round"/>
<path d="M41.9392 43.7135H39.7744C39.3467 43.7135 39 43.3668 39 42.9392V40.7744C39 40.3467 39.3467 40 39.7744 40H41.9392C42.3668 40 42.7135 40.3467 42.7135 40.7744V42.9392C42.7135 43.3668 42.3668 43.7135 41.9392 43.7135Z" stroke="black" stroke-miterlimit="10" stroke-linecap="round" stroke-linejoin="round"/>
<path d="M41.9704 52.7897H39.8056C39.378 52.7897 39.0312 52.443 39.0312 52.0153V49.8505C39.0312 49.4229 39.378 49.0762 39.8056 49.0762H41.9704C42.3981 49.0762 42.7448 49.4229 42.7448 49.8505V52.0153C42.7448 52.443 42.3981 52.7897 41.9704 52.7897Z" stroke="black" stroke-miterlimit="10" stroke-linecap="round" stroke-linejoin="round"/>
<path d="M50.4353 26.4733H48.2705C47.8428 26.4733 47.4961 26.1266 47.4961 25.6989V23.5341C47.4961 23.1065 47.8428 22.7598 48.2705 22.7598H50.4353C50.8629 22.7598 51.2096 23.1065 51.2096 23.5341V25.6989C51.2095 26.1266 50.8629 26.4733 50.4353 26.4733Z" stroke="black" stroke-miterlimit="10" stroke-linecap="round" stroke-linejoin="round"/>
<path d="M50.4353 35.2448H48.2705C47.8428 35.2448 47.4961 34.8981 47.4961 34.4704V32.3056C47.4961 31.878 47.8428 31.5312 48.2705 31.5312H50.4353C50.8629 31.5312 51.2096 31.878 51.2096 32.3056V34.4704C51.2095 34.8982 50.8629 35.2448 50.4353 35.2448Z" stroke="black" stroke-miterlimit="10" stroke-linecap="round" stroke-linejoin="round"/>
<path d="M50.4353 44.0182H48.2705C47.8428 44.0182 47.4961 43.6715 47.4961 43.2439V41.0791C47.4961 40.6514 47.8428 40.3047 48.2705 40.3047H50.4353C50.8629 40.3047 51.2096 40.6514 51.2096 41.0791V43.2439C51.2095 43.6715 50.8629 44.0182 50.4353 44.0182Z" stroke="black" stroke-miterlimit="10" stroke-linecap="round" stroke-linejoin="round"/>
<path d="M50.4353 52.7897H48.2705C47.8428 52.7897 47.4961 52.443 47.4961 52.0153V49.8505C47.4961 49.4229 47.8428 49.0762 48.2705 49.0762H50.4353C50.8629 49.0762 51.2096 49.4229 51.2096 49.8505V52.0153C51.2095 52.443 50.8629 52.7897 50.4353 52.7897Z" stroke="black" stroke-miterlimit="10" stroke-linecap="round" stroke-linejoin="round"/>
<path d="M58.9172 26.4733H56.7524C56.3247 26.4733 55.978 26.1266 55.978 25.6989V23.5341C55.978 23.1065 56.3247 22.7598 56.7524 22.7598H58.9172C59.3449 22.7598 59.6916 23.1065 59.6916 23.5341V25.6989C59.6916 26.1266 59.3449 26.4733 58.9172 26.4733Z" stroke="black" stroke-miterlimit="10" stroke-linecap="round" stroke-linejoin="round"/>
<path d="M58.9172 35.2448H56.7524C56.3247 35.2448 55.978 34.8981 55.978 34.4704V32.3056C55.978 31.878 56.3247 31.5312 56.7524 31.5312H58.9172C59.3449 31.5312 59.6916 31.878 59.6916 32.3056V34.4704C59.6916 34.8982 59.3449 35.2448 58.9172 35.2448Z" stroke="black" stroke-miterlimit="10" stroke-linecap="round" stroke-linejoin="round"/>
<path d="M58.9172 44.0182H56.7524C56.3247 44.0182 55.978 43.6715 55.978 43.2439V41.0791C55.978 40.6514 56.3247 40.3047 56.7524 40.3047H58.9172C59.3449 40.3047 59.6916 40.6514 59.6916 41.0791V43.2439C59.6916 43.6715 59.3449 44.0182 58.9172 44.0182Z" stroke="black" stroke-miterlimit="10" stroke-linecap="round" stroke-linejoin="round"/>
<path d="M58.9172 52.7897H56.7524C56.3247 52.7897 55.978 52.443 55.978 52.0153V49.8505C55.978 49.4229 56.3247 49.0762 56.7524 49.0762H58.9172C59.3449 49.0762 59.6916 49.4229 59.6916 49.8505V52.0153C59.6916 52.443 59.3449 52.7897 58.9172 52.7897Z" stroke="black" stroke-miterlimit="10" stroke-linecap="round" stroke-linejoin="round"/>
<path d="M54.2699 60.9551H35.9751V66.4014H54.2699V60.9551Z" stroke="black" stroke-miterlimit="10" stroke-linecap="round" stroke-linejoin="round"/>
<path d="M45.3426 76.1773H35.9751V71.9688H54.2699V76.1773H49.5794" stroke="black" stroke-miterlimit="10" stroke-linecap="round" stroke-linejoin="round"/>
<path d="M57.5842 71.9725H32.6658C32.1538 71.9725 31.7388 71.5574 31.7388 71.0455V67.3293C31.7388 66.8174 32.1538 66.4023 32.6658 66.4023H57.5842C58.0961 66.4023 58.5112 66.8174 58.5112 67.3293V71.0455C58.5112 71.5574 58.0961 71.9725 57.5842 71.9725Z" stroke="black" stroke-miterlimit="10" stroke-linecap="round" stroke-linejoin="round"/>
<path d="M42.521 66.4023H38.8076V71.9725H42.521V66.4023Z" stroke="black" stroke-miterlimit="10" stroke-linecap="round" stroke-linejoin="round"/>
<path d="M51.4414 66.4023H47.728V71.9725H51.4414V66.4023Z" stroke="black" stroke-miterlimit="10" stroke-linecap="round" stroke-linejoin="round"/>
</svg>
