<svg width="90" height="90" viewBox="0 0 90 90" fill="none" xmlns="http://www.w3.org/2000/svg">
<rect width="90" height="90" fill="#0C0C0C"/>
<g id="Landing Page">
<path d="M-4424.67 -3045C-4424.67 -3046.1 -4423.77 -3047 -4422.67 -3047H14030.3C14031.4 -3047 14032.3 -3046.1 14032.3 -3045V11288C14032.3 11289.1 14031.4 11290 14030.3 11290H-4422.67C-4423.77 11290 -4424.67 11289.1 -4424.67 11288V-3045Z" fill="#444444"/>
<path d="M-4422.67 -3047V-3046H14030.3V-3047V-3048H-4422.67V-3047ZM14032.3 -3045H14031.3V11288H14032.3H14033.3V-3045H14032.3ZM14030.3 11290V11289H-4422.67V11290V11291H14030.3V11290ZM-4424.67 11288H-4423.67V-3045H-4424.67H-4425.67V11288H-4424.67ZM-4422.67 11290V11289C-4423.22 11289 -4423.67 11288.6 -4423.67 11288H-4424.67H-4425.67C-4425.67 11289.7 -4424.32 11291 -4422.67 11291V11290ZM14032.3 11288H14031.3C14031.3 11288.6 14030.9 11289 14030.3 11289V11290V11291C14032 11291 14033.3 11289.7 14033.3 11288H14032.3ZM14030.3 -3047V-3046C14030.9 -3046 14031.3 -3045.55 14031.3 -3045H14032.3H14033.3C14033.3 -3046.66 14032 -3048 14030.3 -3048V-3047ZM-4422.67 -3047V-3048C-4424.32 -3048 -4425.67 -3046.66 -4425.67 -3045H-4424.67H-4423.67C-4423.67 -3045.55 -4423.22 -3046 -4422.67 -3046V-3047Z" fill="white" fill-opacity="0.1"/>
<g id="Sustainibility Landing V6">
<rect width="1440" height="6212" transform="translate(-675.667 -1210)" fill="white"/>
<g id="Frame 1820593778">
<rect width="1440" height="848" transform="translate(-675.667 -410)" fill="white"/>
<g id="Frame 19626377">
<g id="Frame 19626355">
<foreignObject x="-137" y="-80" width="364" height="298"><div xmlns="http://www.w3.org/1999/xhtml" style="backdrop-filter:blur(27px);clip-path:url(#bgblur_0_11098_1187_clip_path);height:100%;width:100%"></div></foreignObject><g id="Frame 26" filter="url(#filter0_d_11098_1187)" data-figma-bg-blur-radius="54">
<rect x="-83" y="-26" width="256" height="190" fill="white" shape-rendering="crispEdges"/>
<rect x="-82.5" y="-25.5" width="255" height="189" stroke="#D4D4D4" shape-rendering="crispEdges"/>
<g id="solar-panel (3) 1">
<g id="g927">
<g id="g929">
<path id="path931" d="M56.1957 30.7168H59.3178M30.7852 30.7168H33.9038" stroke="#22B148" stroke-miterlimit="10" stroke-linecap="round" stroke-linejoin="round"/>
</g>
<g id="g933">
<path id="path935" d="M55.1417 20.6264L52.9375 22.834" stroke="#22B148" stroke-miterlimit="10" stroke-linecap="round" stroke-linejoin="round"/>
</g>
<g id="g937">
<path id="path939" d="M34.9634 20.6264L37.1709 22.834" stroke="#22B148" stroke-miterlimit="10" stroke-linecap="round" stroke-linejoin="round"/>
</g>
<g id="g941">
<g id="Clip path group">
<mask id="mask0_11098_1187" style="mask-type:luminance" maskUnits="userSpaceOnUse" x="15" y="15" width="60" height="60">
<g id="clipPath947">
<path id="path945" d="M15.3438 15.5769H74.7668V75H15.3438V15.5769Z" fill="white"/>
</g>
</mask>
<g mask="url(#mask0_11098_1187)">
<g id="g943">
<g id="g949">
<path id="path951" d="M45.0498 16.4475V19.5664" stroke="black" stroke-miterlimit="10" stroke-linecap="round" stroke-linejoin="round"/>
</g>
</g>
</g>
</g>
</g>
<g id="g953">
<path id="path955" d="M33.985 35.3224L31.2939 54.7988" stroke="black" stroke-miterlimit="10" stroke-linecap="round" stroke-linejoin="round"/>
</g>
<g id="g957">
<path id="path959" d="M70.2603 42.0859H19.8501" stroke="black" stroke-miterlimit="10" stroke-linecap="round" stroke-linejoin="round"/>
</g>
<g id="g961">
<g id="Clip path group_2">
<mask id="mask1_11098_1187" style="mask-type:luminance" maskUnits="userSpaceOnUse" x="15" y="15" width="60" height="60">
<g id="clipPath967">
<path id="path965" d="M15.3438 15.5769H74.7668V75H15.3438V15.5769Z" fill="white"/>
</g>
</mask>
<g mask="url(#mask1_11098_1187)">
<g id="g963">
<g id="g969">
<path id="path971" d="M71.4844 48.8535H18.6431" stroke="black" stroke-miterlimit="10" stroke-linecap="round" stroke-linejoin="round"/>
</g>
</g>
</g>
</g>
</g>
<g id="g973">
<path id="path975" d="M45.0498 54.7988V35.3224" stroke="black" stroke-miterlimit="10" stroke-linecap="round" stroke-linejoin="round"/>
</g>
<g id="g977">
<path id="path979" d="M58.8049 54.7988L56.1138 35.3224" stroke="black" stroke-miterlimit="10" stroke-linecap="round" stroke-linejoin="round"/>
</g>
<g id="g981">
<g id="Clip path group_3">
<mask id="mask2_11098_1187" style="mask-type:luminance" maskUnits="userSpaceOnUse" x="15" y="15" width="61" height="60">
<g id="clipPath987">
<path id="path985" d="M15.729 15.0007H75.1521V74.4238H15.729V15.0007Z" fill="white"/>
</g>
</mask>
<g mask="url(#mask2_11098_1187)">
<g id="g983">
<g id="g989">
<path id="path991" d="M45.0504 23.3569C49.1133 23.3569 52.4064 26.6501 52.4064 30.7131C52.4064 32.4567 51.8012 34.0589 50.7845 35.3223H45.0504H39.3162C38.2996 34.0589 37.6943 32.4567 37.6943 30.7131C37.6943 26.6501 40.9874 23.3569 45.0504 23.3569Z" stroke="#F47922" stroke-miterlimit="10" stroke-linecap="round" stroke-linejoin="round"/>
</g>
<g id="g993">
<path id="path995" d="M59.4454 60.3691H70.8084C72.2823 60.3691 73.289 59.3393 73.0555 57.882L72.6969 55.6185M17.4211 55.6185L17.0625 57.882C16.8289 59.3393 17.8355 60.3691 19.3095 60.3691H55.4285" stroke="black" stroke-miterlimit="10" stroke-linecap="round" stroke-linejoin="round"/>
</g>
<g id="g997">
<path id="path999" d="M35.0367 69.4986H55.0717C56.3054 69.4986 57.3121 70.5054 57.3121 71.7358V73.6374C57.3121 73.9071 57.0884 74.1309 56.8186 74.1309H33.2931C33.02 74.1309 32.7964 73.9071 32.7964 73.6374V71.7358C32.7964 70.5054 33.8063 69.4986 35.0367 69.4986Z" stroke="black" stroke-miterlimit="10" stroke-linecap="round" stroke-linejoin="round"/>
</g>
<g id="g1001">
<path id="path1003" d="M48.0321 65.2207V60.4075M42.0742 60.4075L42.0775 65.2207" stroke="black" stroke-miterlimit="10" stroke-linecap="round" stroke-linejoin="round"/>
</g>
<g id="g1005">
<path id="path1007" d="M39.5416 65.2211H50.5691C51.7041 65.2211 52.6351 66.1521 52.6351 67.2872V69.498H37.4756V67.2872C37.4756 66.1521 38.4066 65.2211 39.5416 65.2211Z" stroke="black" stroke-miterlimit="10" stroke-linecap="round" stroke-linejoin="round"/>
</g>
<g id="g1009">
<path id="path1011" d="M25.6464 35.3216L22.679 35.3184C21.7119 35.3315 20.965 36.0488 20.7742 36.8943L17.4087 55.6172H45.0466H72.6845L69.3189 36.8943C69.1281 36.0488 68.3814 35.3315 67.4142 35.3184L45.0466 35.3216H29.6633" stroke="black" stroke-miterlimit="10" stroke-linecap="round" stroke-linejoin="round"/>
</g>
</g>
</g>
</g>
</g>
</g>
<path id="path951_2" d="M44.75 19.254V21.957" stroke="#22B148" stroke-miterlimit="10" stroke-linecap="round" stroke-linejoin="round"/>
</g>
</g>
</g>
</g>
</g>
</g>
</g>
<defs>
<filter id="filter0_d_11098_1187" x="-137" y="-80" width="364" height="298" filterUnits="userSpaceOnUse" color-interpolation-filters="sRGB">
<feFlood flood-opacity="0" result="BackgroundImageFix"/>
<feColorMatrix in="SourceAlpha" type="matrix" values="0 0 0 0 0 0 0 0 0 0 0 0 0 0 0 0 0 0 127 0" result="hardAlpha"/>
<feOffset dy="4"/>
<feGaussianBlur stdDeviation="12"/>
<feComposite in2="hardAlpha" operator="out"/>
<feColorMatrix type="matrix" values="0 0 0 0 0 0 0 0 0 0 0 0 0 0 0 0 0 0 0.05 0"/>
<feBlend mode="normal" in2="BackgroundImageFix" result="effect1_dropShadow_11098_1187"/>
<feBlend mode="normal" in="SourceGraphic" in2="effect1_dropShadow_11098_1187" result="shape"/>
</filter>
<clipPath id="bgblur_0_11098_1187_clip_path" transform="translate(137 80)"><rect x="-83" y="-26" width="256" height="190"/>
</clipPath></defs>
</svg>
