<svg width="84" height="84" viewBox="0 0 84 84" fill="none" xmlns="http://www.w3.org/2000/svg">
<path d="M10.6125 66.4014H6.23926C4.88016 66.4014 3.77832 67.5032 3.77832 68.8623V73.2254C3.77832 73.6784 4.14566 74.0457 4.59863 74.0457H79.401C79.8539 74.0457 80.2213 73.6784 80.2213 73.2254V68.8623C80.2213 67.5032 79.1194 66.4014 77.7603 66.4014H16.5188" stroke="white" stroke-width="2" stroke-miterlimit="10" stroke-linecap="round" stroke-linejoin="round"/>
<path d="M42.0002 43.4682C43.4075 43.4682 44.5483 42.3274 44.5483 40.9201C44.5483 39.5129 43.4075 38.3721 42.0002 38.3721C40.593 38.3721 39.4521 39.5129 39.4521 40.9201C39.4521 42.3274 40.593 43.4682 42.0002 43.4682Z" stroke="white" stroke-width="2" stroke-miterlimit="10" stroke-linecap="round" stroke-linejoin="round"/>
<path d="M49.6445 40.9209V40.755C49.6445 40.5326 49.7348 40.3196 49.8945 40.1651L51.4512 38.66C51.8331 38.2906 51.9148 37.7087 51.649 37.2485L50.005 34.4011C49.7393 33.9409 49.1945 33.7207 48.6838 33.8667L46.6035 34.4618C46.3895 34.523 46.1598 34.4946 45.9671 34.3832L45.6773 34.2155C45.485 34.1043 45.3461 33.9199 45.2923 33.7044L44.7676 31.6056C44.6388 31.0901 44.1755 30.7285 43.6443 30.7285H40.3563C39.8249 30.7285 39.3617 31.0901 39.2329 31.6056L38.7083 33.7044C38.6545 33.9199 38.5155 34.1043 38.3232 34.2155L38.0335 34.3832C37.8409 34.4946 37.6112 34.523 37.3971 34.4618L35.3168 33.8667C34.8059 33.7205 34.2612 33.9409 33.9956 34.4011L32.3515 37.2485C32.0859 37.7087 32.1674 38.2906 32.5494 38.66L34.106 40.1651C34.266 40.3196 34.3562 40.5326 34.356 40.755V40.9209V41.0868C34.356 41.3092 34.2658 41.5222 34.106 41.6767L32.5494 43.1818C32.1674 43.5511 32.0857 44.1331 32.3515 44.5933L33.9956 47.4407C34.2612 47.9009 34.806 48.1211 35.3168 47.9751L37.3971 47.38C37.611 47.3188 37.8407 47.3472 38.0335 47.4586L38.3232 47.6263C38.5155 47.7375 38.6545 47.9219 38.7083 48.1374L39.2329 50.2362C39.3617 50.7517 39.825 51.1133 40.3563 51.1133H43.6443C44.1757 51.1133 44.6388 50.7517 44.7676 50.2362L45.2923 48.1374C45.3461 47.9219 45.485 47.7375 45.6773 47.6263L45.9671 47.4586C46.1597 47.3472 46.3894 47.3188 46.6035 47.38L48.6838 47.9751C49.1947 48.1213 49.7393 47.9009 50.005 47.4407L51.649 44.5933C51.9147 44.1331 51.8331 43.5511 51.4512 43.1818L49.8945 41.6767C49.7346 41.5222 49.6444 41.3092 49.6445 41.0868V40.9209Z" stroke="white" stroke-width="2" stroke-miterlimit="10" stroke-linecap="round" stroke-linejoin="round"/>
<path d="M42 25.6324V20.5361" stroke="white" stroke-width="2" stroke-miterlimit="10" stroke-linecap="round" stroke-linejoin="round"/>
<path d="M39.4521 23.0844L42.0002 20.5361L44.5483 23.0844" stroke="white" stroke-width="2" stroke-miterlimit="10" stroke-linecap="round" stroke-linejoin="round"/>
<path d="M57.2881 40.9209H72.5767" stroke="white" stroke-width="2" stroke-miterlimit="10" stroke-linecap="round" stroke-linejoin="round"/>
<path d="M70.0293 38.3721L72.5774 40.9201L70.0293 43.4683" stroke="white" stroke-width="2" stroke-miterlimit="10" stroke-linecap="round" stroke-linejoin="round"/>
<path d="M26.7113 40.9209H11.4229" stroke="white" stroke-width="2" stroke-miterlimit="10" stroke-linecap="round" stroke-linejoin="round"/>
<path d="M13.9709 38.3721L11.4229 40.9201L13.9709 43.4683" stroke="white" stroke-width="2" stroke-miterlimit="10" stroke-linecap="round" stroke-linejoin="round"/>
<path d="M77.6729 56.2891V66.4015" stroke="white" stroke-width="2" stroke-miterlimit="10" stroke-linecap="round" stroke-linejoin="round"/>
<path d="M77.6729 24.8037V50.3827" stroke="white" stroke-width="2" stroke-miterlimit="10" stroke-linecap="round" stroke-linejoin="round"/>
<path d="M6.32617 66.4014V24.8037" stroke="white" stroke-width="2" stroke-miterlimit="10" stroke-linecap="round" stroke-linejoin="round"/>
<path d="M20.8167 15.5734L41.5743 10.0112C41.8537 9.93638 42.148 9.93638 42.4274 10.0112L82.1586 20.658C82.5981 20.7758 82.8589 21.2275 82.7413 21.667L81.8439 25.0208C81.7263 25.4605 81.2743 25.7215 80.8346 25.6037L42.2141 15.2558C42.0743 15.2184 41.9273 15.2184 41.7875 15.2558L3.16542 25.6037C2.72574 25.7215 2.27374 25.4605 2.15611 25.0208L1.25869 21.667C1.14106 21.2275 1.40192 20.7758 1.84144 20.658L15.206 17.0769" stroke="white" stroke-width="2" stroke-miterlimit="10" stroke-linecap="round" stroke-linejoin="round"/>
<path d="M42 56.209V61.3051" stroke="white" stroke-width="2" stroke-miterlimit="10" stroke-linecap="round" stroke-linejoin="round"/>
<path d="M39.4521 58.7568L42.0002 61.3049L44.5483 58.7568" stroke="white" stroke-width="2" stroke-miterlimit="10" stroke-linecap="round" stroke-linejoin="round"/>
</svg>
