<svg width="84" height="84" viewBox="0 0 84 84" fill="none" xmlns="http://www.w3.org/2000/svg">
<mask id="mask0_6997_14783" style="mask-type:luminance" maskUnits="userSpaceOnUse" x="6" y="6" width="72" height="72">
<path d="M77.6998 6.2998H6.2998V77.6998H77.6998V6.2998Z" fill="white"/>
</mask>
<g mask="url(#mask0_6997_14783)">
<mask id="mask1_6997_14783" style="mask-type:luminance" maskUnits="userSpaceOnUse" x="6" y="6" width="72" height="72">
<path d="M6.2998 6.3002H77.6998V77.7002H6.2998V6.3002Z" fill="white"/>
</mask>
<g mask="url(#mask1_6997_14783)">
<path d="M72.4012 74.0742H11.5996C9.28915 74.0742 7.41602 72.2011 7.41602 69.8906V9.92579H76.5848V69.8906C76.5848 72.2011 74.7116 74.0742 72.4012 74.0742Z" stroke="black" stroke-width="2" stroke-miterlimit="10" stroke-dasharray="668.67 17 748 17 374 17"/>
<path d="M76.5848 19.4082H7.41602" stroke="black" stroke-width="2" stroke-miterlimit="10" stroke-dasharray="430.67 17"/>
<path d="M16.2012 42.2791V62.3604H42.4184V42.2791" stroke="black" stroke-width="2" stroke-miterlimit="10"/>
<path d="M11.8779 45.3145L29.3096 33.0752L46.7412 45.3145" stroke="black" stroke-width="2" stroke-miterlimit="10" stroke-dasharray="238 17"/>
<path d="M34.1904 62.3604V48.2756H24.4287V62.3604" stroke="black" stroke-width="2" stroke-miterlimit="10"/>
<path d="M45.7656 34.0508C45.7656 35.5912 44.517 36.8398 42.9766 36.8398C41.4362 36.8398 40.1875 35.5912 40.1875 34.0508C40.1875 32.5104 41.4362 31.2617 42.9766 31.2617C44.517 31.2617 45.7656 32.5104 45.7656 34.0508Z" stroke="black" stroke-width="2" stroke-miterlimit="10"/>
<path d="M45.0684 32.0986L49.1125 28.0545H69.4727" stroke="black" stroke-width="2" stroke-miterlimit="10"/>
<path d="M55.5273 50.7852C55.5273 52.3256 54.2787 53.5742 52.7383 53.5742C51.1979 53.5742 49.9492 52.3256 49.9492 50.7852C49.9492 49.2448 51.1979 47.9961 52.7383 47.9961C54.2787 47.9961 55.5273 49.2448 55.5273 50.7852Z" stroke="black" stroke-width="2" stroke-miterlimit="10"/>
<path d="M54.8301 48.833L58.8742 44.7889H72.1223" stroke="black" stroke-width="2" stroke-miterlimit="10"/>
<path d="M53.0166 63.1973C53.0166 61.6569 51.7679 60.4082 50.2275 60.4082C48.6871 60.4082 47.4385 61.6569 47.4385 63.1973C47.4385 64.7377 48.6871 65.9863 50.2275 65.9863C51.7679 65.9863 53.0166 64.7377 53.0166 63.1973Z" stroke="black" stroke-width="2" stroke-miterlimit="10"/>
<path d="M52.3193 65.1492L56.3635 69.1934H71.0061" stroke="black" stroke-width="2" stroke-miterlimit="10"/>
<path d="M71.9824 14.667H25.9629" stroke="black" stroke-width="2" stroke-miterlimit="10"/>
<path d="M11.041 14.667H21.5" stroke="black" stroke-width="2" stroke-miterlimit="10" stroke-dasharray="17 17 17 17 17 17"/>
<path d="M67.3809 23.8711H50.6465" stroke="black" stroke-width="2" stroke-miterlimit="10" stroke-dasharray="17 17 17 17 680 17"/>
<path d="M69.333 65.0098H58.1768" stroke="black" stroke-width="2" stroke-miterlimit="10" stroke-dasharray="17 17 680 17"/>
<path d="M70.0305 40.6055H60.4082" stroke="black" stroke-width="2" stroke-miterlimit="10" stroke-dasharray="17 17 680 17"/>
</g>
</g>
</svg>
