<svg width="110" height="64" viewBox="0 0 110 64" fill="none" xmlns="http://www.w3.org/2000/svg">
<g clip-path="url(#clip0_9921_6653)">
<path d="M12.8427 23.1304L20.4521 18.4244L28.7872 25.0759C29.51 25.652 30.5356 25.6482 31.2536 25.0664L43.7538 14.9353L44.9261 16.3818C45.3374 16.8893 46.144 16.7608 46.3773 16.1513L49.1179 9.00277C49.3512 8.39237 48.837 7.75817 48.1923 7.86101L40.6314 9.06085C39.9858 9.16274 39.6934 9.9255 40.1048 10.4331L41.2761 11.8786L30.0052 21.0126L21.8224 14.4839C21.173 13.9659 20.2674 13.9116 19.5608 14.3487L2.80779 24.7093C1.88315 25.2816 1.59747 26.4938 2.16883 27.4184C2.54116 28.0203 3.18584 28.3516 3.8448 28.3516C4.19808 28.3516 4.55518 28.2564 4.87799 28.0564L10.0116 24.8816" stroke="#22B148" stroke-miterlimit="10" stroke-linecap="round" stroke-linejoin="round"/>
<path d="M11.3917 40.5818H6.44331C6.05774 40.5818 5.74512 40.8943 5.74512 41.28V51.2957H12.0899V41.2799C12.0899 40.8943 11.7773 40.5818 11.3917 40.5818Z" stroke="white" stroke-miterlimit="10" stroke-linecap="round" stroke-linejoin="round"/>
<path d="M21.9851 27.3273H17.0366C16.651 27.3273 16.3384 27.6398 16.3384 28.0255V51.2957H22.6832V28.0255C22.6832 27.6399 22.3706 27.3273 21.9851 27.3273Z" stroke="white" stroke-miterlimit="10" stroke-linecap="round" stroke-linejoin="round"/>
<path d="M33.4338 34.1453H28.4853C28.0997 34.1453 27.7871 34.4578 27.7871 34.8435V51.2958H34.1319V34.8435C34.132 34.4579 33.8194 34.1453 33.4338 34.1453Z" stroke="white" stroke-miterlimit="10" stroke-linecap="round" stroke-linejoin="round"/>
<path d="M38.9619 32.7159V51.2953H45.3068V25.7358C45.3068 25.3502 44.9935 25.0378 44.6078 25.0378H39.6599C39.2743 25.0378 38.9619 25.3502 38.9619 25.7358V29.383" stroke="white" stroke-miterlimit="10" stroke-linecap="round" stroke-linejoin="round"/>
<path d="M25.4987 55.15H48.6872C48.9424 55.15 49.1491 54.9434 49.1491 54.6882V51.7571C49.1491 51.5029 48.9424 51.2953 48.6872 51.2953H2.31048C2.05527 51.2953 1.84863 51.5029 1.84863 51.7571V54.6882C1.84863 54.9434 2.05527 55.15 2.31048 55.15H22.1658" stroke="#F47922" stroke-miterlimit="10" stroke-linecap="round" stroke-linejoin="round"/>
</g>
<defs>
<clipPath id="clip0_9921_6653">
<rect width="110" height="64" fill="white"/>
</clipPath>
</defs>
</svg>
