<svg width="110" height="64" viewBox="0 0 110 64" fill="none" xmlns="http://www.w3.org/2000/svg">
<g clip-path="url(#clip0_9958_6563)">
<g clip-path="url(#clip1_9958_6563)">
<mask id="mask0_9958_6563" style="mask-type:luminance" maskUnits="userSpaceOnUse" x="0" y="7" width="49" height="49">
<path d="M49 7H0V56H49V7Z" fill="white"/>
</mask>
<g mask="url(#mask0_9958_6563)">
<path d="M26.5068 42.281C26.5173 42.281 26.5269 42.281 26.5374 42.281C26.5661 42.281 26.5939 42.2801 26.6216 42.2791C30.3158 42.1786 31.6336 37.0518 27.9691 35.7588C27.483 35.5875 27.0341 35.422 26.6216 35.2564C25.633 34.8592 24.854 34.4668 24.2788 34.018C22.8614 32.9068 23.3802 30.0606 25.4656 29.4347C25.8789 29.3112 26.2656 29.2538 26.6216 29.2443C28.2084 29.2002 29.1903 30.0884 29.2095 30.1066" stroke="#F47920" stroke-miterlimit="10" stroke-linecap="round" stroke-linejoin="round"/>
<path d="M26.6216 27.4172V29.2442V35.2564V42.2791" stroke="#F47920" stroke-miterlimit="10" stroke-linecap="round" stroke-linejoin="round"/>
<path d="M18.7612 25.4342C20.9423 23.7795 23.668 22.7966 26.6224 22.7966C33.8021 22.7966 39.6237 28.6011 39.6237 35.7616C39.6237 38.7716 38.5949 41.5431 36.8693 43.7434" stroke="white" stroke-miterlimit="10" stroke-linecap="round" stroke-linejoin="round"/>
<path d="M13.7498 37.5925C13.6646 36.9943 13.6206 36.3828 13.6206 35.7617C13.6206 32.6934 14.6905 29.8711 16.4802 27.6499" stroke="white" stroke-miterlimit="10" stroke-linecap="round" stroke-linejoin="round"/>
<path d="M27.5261 47.3889C27.4419 47.5839 27.3415 47.7626 27.2248 47.9197C26.3151 49.1249 24.713 49.0952 23.1136 48.0578L17.1724 44.1984" stroke="white" stroke-miterlimit="10" stroke-linecap="round" stroke-linejoin="round"/>
<path d="M0.896484 52.9275H8.41544C9.08886 52.9275 9.64011 52.3803 9.64011 51.7087V37.6792C9.64011 37.0076 9.08886 36.4604 8.41544 36.4604H0.896484" stroke="white" stroke-miterlimit="10" stroke-linecap="round" stroke-linejoin="round"/>
<path d="M34.3782 50.6447L27.1248 54.0192C23.3339 55.7821 21.4984 55.8251 17.407 53.3474C13.3989 50.9184 12.8716 50.5796 9.64062 50.5796V39.0989L12.7195 37.9122C13.0601 37.7811 13.4047 37.6749 13.7501 37.5926C17.0606 36.7934 20.5537 38.095 23.1799 39.8167L25.3514 41.2408C27.5947 42.7089 28.2436 45.6911 27.5268 47.3888L36.8694 43.7435L39.3796 42.7635C43.3743 41.2054 44.8807 45.758 41.2612 47.4434L37.2618 49.3038" stroke="white" stroke-miterlimit="10" stroke-linecap="round" stroke-linejoin="round"/>
<path d="M26.6226 22.7966V17.9432" stroke="#0DB14B" stroke-miterlimit="10" stroke-linecap="round" stroke-linejoin="round"/>
<path d="M26.6226 17.9433C28.45 15.4597 30.0928 13.3823 35.8468 12.4507" stroke="#0DB14B" stroke-miterlimit="10" stroke-linecap="round" stroke-linejoin="round"/>
<path d="M48.1042 14.8882C44.2646 3.91653 27.0353 6.9066 28.4583 14.6933C29.1289 18.3957 32.3467 21.3044 38.7252 16.6297C40.9817 14.9749 43.4989 12.8868 48.1042 14.8882Z" stroke="#0DB14B" stroke-miterlimit="10" stroke-linecap="round" stroke-linejoin="round"/>
<path d="M26.6221 17.9433C24.7947 15.4597 23.1518 13.3823 17.3979 12.4507" stroke="#0DB14B" stroke-miterlimit="10" stroke-linecap="round" stroke-linejoin="round"/>
<path d="M5.14062 14.8882C8.97748 3.91653 26.2068 6.9066 24.7865 14.6933C24.113 18.3957 20.8981 21.3044 14.5196 16.6297C12.2631 14.9749 9.74319 12.8868 5.14062 14.8882Z" stroke="#0DB14B" stroke-miterlimit="10" stroke-linecap="round" stroke-linejoin="round"/>
</g>
</g>
</g>
<defs>
<clipPath id="clip0_9958_6563">
<rect width="110" height="64" fill="white"/>
</clipPath>
<clipPath id="clip1_9958_6563">
<rect width="49" height="49" fill="white" transform="translate(0 7)"/>
</clipPath>
</defs>
</svg>
