<svg width="110" height="64" viewBox="0 0 110 64" fill="none" xmlns="http://www.w3.org/2000/svg">
<g clip-path="url(#clip0_9946_190)">
<path d="M11.494 23.2805L19.1035 18.5744L27.4386 25.2259C28.1614 25.802 29.1869 25.7982 29.9049 25.2164L42.4052 15.0853L43.5774 16.5318C43.9888 17.0394 44.7954 16.9108 45.0287 16.3014L47.7693 9.15279C48.0026 8.54239 47.4883 7.90819 46.8437 8.01104L39.2828 9.21088C38.6371 9.31277 38.3448 10.0755 38.7562 10.5831L39.9274 12.0286L28.6565 21.1626L20.4738 14.634C19.8244 14.1159 18.9188 14.0617 18.2122 14.4988L1.45916 24.8593C0.534518 25.4316 0.248841 26.6438 0.820194 27.5685C1.19253 28.1703 1.8372 28.5017 2.49616 28.5017C2.84945 28.5017 3.20655 28.4064 3.52936 28.2065L8.66297 25.0317" stroke="#22B148" stroke-miterlimit="10" stroke-linecap="round" stroke-linejoin="round"/>
<path d="M10.0431 40.7319H5.09468C4.70911 40.7319 4.39648 41.0445 4.39648 41.4301V51.4459H10.7413V41.43C10.7413 41.0445 10.4286 40.7319 10.0431 40.7319Z" stroke="white" stroke-miterlimit="10" stroke-linecap="round" stroke-linejoin="round"/>
<path d="M20.6364 27.4774H15.6879C15.3024 27.4774 14.9897 27.7899 14.9897 28.1756V51.4459H21.3345V28.1756C21.3345 27.79 21.022 27.4774 20.6364 27.4774Z" stroke="white" stroke-miterlimit="10" stroke-linecap="round" stroke-linejoin="round"/>
<path d="M32.0852 34.2953H27.1367C26.7511 34.2953 26.4385 34.6079 26.4385 34.9935V51.4459H32.7833V34.9935C32.7834 34.608 32.4707 34.2953 32.0852 34.2953Z" stroke="white" stroke-miterlimit="10" stroke-linecap="round" stroke-linejoin="round"/>
<path d="M37.6133 32.866V51.4455H43.9582V25.886C43.9582 25.5003 43.6449 25.188 43.2592 25.188H38.3113C37.9256 25.188 37.6133 25.5003 37.6133 25.886V29.5331" stroke="white" stroke-miterlimit="10" stroke-linecap="round" stroke-linejoin="round"/>
<path d="M24.15 55.3H47.3386C47.5938 55.3 47.8004 55.0934 47.8004 54.8382V51.9072C47.8004 51.6529 47.5938 51.4453 47.3386 51.4453H0.961844C0.70664 51.4453 0.5 51.6529 0.5 51.9072V54.8382C0.5 55.0934 0.70664 55.3 0.961844 55.3H20.8171" stroke="#F47922" stroke-miterlimit="10" stroke-linecap="round" stroke-linejoin="round"/>
</g>
<defs>
<clipPath id="clip0_9946_190">
<rect width="110" height="64" fill="white"/>
</clipPath>
</defs>
</svg>
