<svg width="110" height="64" viewBox="0 0 110 64" fill="none" xmlns="http://www.w3.org/2000/svg">
<path d="M17.8 6.00007C8.53649 6.00007 1 13.3413 1 22.3648C1 26.8849 3.28212 30.6866 5.27053 33.4936C6.42587 35.1247 7.72863 36.7328 8.98867 38.2881C12.7794 42.9671 17.8 49.2001 17.8 49.2001C17.8 49.2001 22.8206 42.9671 26.6112 38.2881C27.8713 36.7328 29.174 35.1247 30.3296 33.4936C32.3179 30.6866 34.6 26.8849 34.6 22.3648C34.6 13.3413 27.0635 6.00007 17.8 6.00007Z" stroke="white" stroke-miterlimit="10" stroke-linecap="round" stroke-linejoin="round"/>
<path d="M15.083 31.3528C15.0398 31.4248 15.0542 31.4608 15.1262 31.4608H21.9086C22.0526 31.4608 22.1246 31.5328 22.1246 31.6768V32.584C22.1246 32.728 22.0526 32.8 21.9086 32.8H13.2902C13.1462 32.8 13.0742 32.728 13.0742 32.584V31.6768C13.0742 31.576 13.1102 31.4896 13.1822 31.4176C13.6718 30.8416 14.7734 29.488 16.487 27.3568L18.0854 25.3696C19.439 23.656 20.1158 22.324 20.1158 21.3736C20.1158 20.6104 19.8566 19.9984 19.3382 19.5376C18.8198 19.0768 18.143 18.8464 17.3078 18.8464C16.487 18.8464 15.8246 19.084 15.3206 19.5592C14.8166 20.02 14.5718 20.632 14.5862 21.3952V22.0648C14.5862 22.2088 14.5142 22.2808 14.3702 22.2808H13.247C13.103 22.2808 13.031 22.2088 13.031 22.0648V21.2008C13.0598 20.092 13.4702 19.1992 14.2622 18.5224C15.0686 17.8456 16.0838 17.5072 17.3078 17.5072C18.1718 17.5072 18.935 17.6728 19.5974 18.004C20.2598 18.3352 20.771 18.796 21.131 19.3864C21.491 19.9624 21.671 20.6176 21.671 21.352C21.671 22.576 20.9942 24.052 19.6406 25.78C18.935 26.6872 17.5742 28.3576 15.5582 30.7912L15.083 31.3528Z" fill="#F47922"/>
<path d="M22.4481 45.6H28.3872L34.5999 57.6H21.3999" stroke="#22B148" stroke-miterlimit="10" stroke-linecap="round" stroke-linejoin="round"/>
<path d="M14.2 57.6H1L7.21273 45.6H13.2003" stroke="#22B148" stroke-miterlimit="10" stroke-linecap="round" stroke-linejoin="round"/>
</svg>
