<svg width="110" height="64" viewBox="0 0 110 64" fill="none" xmlns="http://www.w3.org/2000/svg">
<g clip-path="url(#clip0_9946_209)">
<path d="M22.0674 37.1828V32.2626H30.9309V37.1828" stroke="white" stroke-miterlimit="10" stroke-linejoin="round"/>
<path d="M28.8999 32.2631V27.0671" stroke="white" stroke-miterlimit="10" stroke-linejoin="round"/>
<path d="M24.0981 32.2631V27.0671" stroke="white" stroke-miterlimit="10" stroke-linejoin="round"/>
<path d="M21.9292 41.2453H14.311V37.1828H38.686V41.2453H31.0699" stroke="white" stroke-miterlimit="10" stroke-linecap="round" stroke-linejoin="round"/>
<mask id="mask0_9946_209" style="mask-type:luminance" maskUnits="userSpaceOnUse" x="0" y="5" width="53" height="53">
<path d="M0.5 5.79999H52.5V57.8H0.5V5.79999Z" fill="white"/>
</mask>
<g mask="url(#mask0_9946_209)">
<path d="M23.8154 41.2453C23.8154 41.8061 23.3606 42.2609 22.7998 42.2609C22.239 42.2609 21.7842 41.8061 21.7842 41.2453C21.7842 40.6844 22.239 40.2297 22.7998 40.2297C23.3606 40.2297 23.8154 40.6844 23.8154 41.2453Z" fill="white"/>
<path d="M32.2607 41.2453V52.7219" stroke="white" stroke-miterlimit="10" stroke-linejoin="round"/>
<path d="M13.3359 52.7219V41.2453" stroke="white" stroke-miterlimit="10" stroke-linejoin="round"/>
<path d="M34.9858 56.7844H10.6108V52.7219H34.9858V56.7844Z" stroke="white" stroke-miterlimit="10" stroke-linejoin="round"/>
<path d="M22.7986 6.81561L26.8345 13.6119L34.5453 15.3502L29.3289 21.2888L30.0585 29.1594L22.7986 26.0334L15.5387 29.1594L16.2682 21.2888L11.0518 15.3502L18.7626 13.6119L22.7986 6.81561Z" stroke="#22B148" stroke-miterlimit="10" stroke-linejoin="round"/>
<path d="M39.4456 23.8371C39.0546 25.5759 38.4401 27.2182 37.6357 28.7243V28.7253" stroke="white" stroke-miterlimit="10" stroke-linejoin="round"/>
<path d="M7.96365 28.7264V28.7254C7.15928 27.2193 6.54472 25.577 6.15381 23.8382" stroke="white" stroke-miterlimit="10" stroke-linejoin="round"/>
<path d="M5.85742 16.5704C6.04227 15.246 6.35406 13.9673 6.78062 12.7506" stroke="white" stroke-miterlimit="10" stroke-linecap="round" stroke-linejoin="round"/>
<path d="M27.2305 37.1828C29.4984 36.5125 31.5773 35.3405 33.3618 33.7825" stroke="white" stroke-miterlimit="10" stroke-linejoin="round"/>
<path d="M12.2373 33.7835C14.0218 35.3415 16.0997 36.5125 18.3666 37.1828" stroke="white" stroke-miterlimit="10" stroke-linejoin="round"/>
<path d="M38.8188 12.7496C39.2454 13.9663 39.5572 15.245 39.7421 16.5694" stroke="white" stroke-miterlimit="10" stroke-linecap="round" stroke-linejoin="round"/>
<path d="M39.0381 33.6435C37.0368 34.7061 34.7611 34.7619 33.3622 33.7825C33.3344 32.0751 34.6552 30.2211 36.6565 29.1585C38.6578 28.0957 40.9335 28.04 42.3323 29.0194C42.3602 30.7268 41.0394 32.5808 39.0381 33.6435Z" stroke="#F47922" stroke-miterlimit="10" stroke-linejoin="round"/>
<path d="M43.6293 19.9997C42.831 22.1204 41.1609 23.6673 39.4639 23.8578C38.3139 22.5957 38.0784 20.3314 38.8766 18.2107C39.6749 16.0901 41.345 14.5432 43.0419 14.3527C44.192 15.6149 44.4274 17.8791 43.6293 19.9997Z" stroke="#F47922" stroke-miterlimit="10" stroke-linejoin="round"/>
<path d="M6.56131 33.6446C8.5626 34.7072 10.8383 34.763 12.2371 33.7836C12.265 32.0762 10.9441 30.2222 8.94285 29.1594C6.94156 28.0968 4.66585 28.041 3.26703 29.0205C3.2392 30.7278 4.56002 32.5819 6.56131 33.6446Z" stroke="#F47922" stroke-miterlimit="10" stroke-linejoin="round"/>
<path d="M1.96937 20.0008C2.76765 22.1214 4.43775 23.6684 6.13475 23.8588C7.28475 22.5967 7.52027 20.3325 6.72199 18.2118C5.92371 16.0911 4.25361 14.5442 2.55671 14.3537C1.40661 15.6159 1.17119 17.8801 1.96937 20.0008Z" stroke="#F47922" stroke-miterlimit="10" stroke-linejoin="round"/>
</g>
</g>
<defs>
<clipPath id="clip0_9946_209">
<rect width="52" height="52" fill="white" transform="translate(0.5 5.79999)"/>
</clipPath>
</defs>
</svg>
