<svg width="110" height="64" viewBox="0 0 110 64" fill="none" xmlns="http://www.w3.org/2000/svg">
<path d="M55 9C47.2804 9 41 15.1177 41 22.6372C41 26.4041 42.9018 29.5721 44.5588 31.9112C45.5216 33.2705 46.6072 34.6106 47.6572 35.9067C50.8162 39.8059 55 45 55 45C55 45 59.1838 39.8059 62.3427 35.9067C63.3927 34.6106 64.4784 33.2705 65.4413 31.9112C67.0982 29.5721 69 26.4041 69 22.6372C69 15.1177 62.7196 9 55 9Z" stroke="white" stroke-miterlimit="10" stroke-linecap="round" stroke-linejoin="round"/>
<path d="M52.736 29.794C52.7 29.854 52.712 29.884 52.772 29.884H58.424C58.544 29.884 58.604 29.944 58.604 30.064V30.82C58.604 30.94 58.544 31 58.424 31H51.242C51.122 31 51.062 30.94 51.062 30.82V30.064C51.062 29.98 51.092 29.908 51.152 29.848C51.56 29.368 52.478 28.24 53.906 26.464L55.238 24.808C56.366 23.38 56.93 22.27 56.93 21.478C56.93 20.842 56.714 20.332 56.282 19.948C55.85 19.564 55.286 19.372 54.59 19.372C53.906 19.372 53.354 19.57 52.934 19.966C52.514 20.35 52.31 20.86 52.322 21.496V22.054C52.322 22.174 52.262 22.234 52.142 22.234H51.206C51.086 22.234 51.026 22.174 51.026 22.054V21.334C51.05 20.41 51.392 19.666 52.052 19.102C52.724 18.538 53.57 18.256 54.59 18.256C55.31 18.256 55.946 18.394 56.498 18.67C57.05 18.946 57.476 19.33 57.776 19.822C58.076 20.302 58.226 20.848 58.226 21.46C58.226 22.48 57.662 23.71 56.534 25.15C55.946 25.906 54.812 27.298 53.132 29.326L52.736 29.794Z" fill="#F47922"/>
<path d="M58.8735 42H63.8228L69 52H58" stroke="#22B148" stroke-miterlimit="10" stroke-linecap="round" stroke-linejoin="round"/>
<path d="M52 52H41L46.1773 42H51.1669" stroke="#22B148" stroke-miterlimit="10" stroke-linecap="round" stroke-linejoin="round"/>
</svg>
