<svg width="110" height="64" viewBox="0 0 110 64" fill="none" xmlns="http://www.w3.org/2000/svg">
<path d="M42.9945 23.8913L49.9122 19.6131L57.4895 25.6599C58.1466 26.1837 59.0789 26.1802 59.7317 25.6513L71.0955 16.4412L72.1612 17.7562C72.5352 18.2176 73.2684 18.1007 73.4805 17.5467L75.972 11.048C76.1841 10.4931 75.7166 9.91654 75.1305 10.01L68.257 11.1008C67.67 11.1934 67.4043 11.8868 67.7782 12.3483L68.843 13.6624L58.5968 21.966L51.1579 16.0309C50.5675 15.56 49.7442 15.5106 49.1019 15.908L33.8719 25.3266C33.0313 25.8469 32.7716 26.9489 33.291 27.7895C33.6295 28.3366 34.2156 28.6379 34.8146 28.6379C35.1358 28.6379 35.4604 28.5513 35.7539 28.3695L40.4208 25.4833" stroke="#22B148" stroke-miterlimit="10" stroke-linecap="round" stroke-linejoin="round"/>
<path d="M41.6753 39.7562H37.1767C36.8262 39.7562 36.542 40.0403 36.542 40.3909V49.4962H42.31V40.3909C42.31 40.0403 42.0258 39.7562 41.6753 39.7562Z" stroke="white" stroke-miterlimit="10" stroke-linecap="round" stroke-linejoin="round"/>
<path d="M51.3057 27.7067H46.8071C46.4566 27.7067 46.1724 27.9908 46.1724 28.3414V49.4962H51.9403V28.3414C51.9403 27.9909 51.6562 27.7067 51.3057 27.7067Z" stroke="white" stroke-miterlimit="10" stroke-linecap="round" stroke-linejoin="round"/>
<path d="M61.7134 33.9048H57.2148C56.8643 33.9048 56.5801 34.1889 56.5801 34.5395V49.4962H62.3481V34.5395C62.3482 34.189 62.0639 33.9048 61.7134 33.9048Z" stroke="white" stroke-miterlimit="10" stroke-linecap="round" stroke-linejoin="round"/>
<path d="M66.7393 32.6054V49.4958H72.5073V26.2599C72.5073 25.9093 72.2225 25.6254 71.8719 25.6254H67.3738C67.0232 25.6254 66.7393 25.9093 66.7393 26.2599V29.5755" stroke="white" stroke-miterlimit="10" stroke-linecap="round" stroke-linejoin="round"/>
<path d="M54.5 53H75.5805C75.8125 53 76.0004 52.8122 76.0004 52.5802V49.9156C76.0004 49.6844 75.8125 49.4957 75.5805 49.4957H33.4199C33.1879 49.4957 33 49.6844 33 49.9156V52.5802C33 52.8122 33.1879 53 33.4199 53H51.4701" stroke="#F47922" stroke-miterlimit="10" stroke-linecap="round" stroke-linejoin="round"/>
</svg>
