<svg width="84" height="84" viewBox="0 0 84 84" fill="none" xmlns="http://www.w3.org/2000/svg">
<path d="M64.821 35.1069C64.8671 42.6575 61.1712 55.6115 47.5644 64.2628C33.9617 55.6115 30.2659 42.6575 30.3119 35.1069C30.266 27.5564 33.9617 14.6025 47.5644 5.95117C61.1714 14.6025 64.8671 27.5564 64.821 35.1069Z" stroke="white" stroke-width="1.8" stroke-miterlimit="10" stroke-linecap="round" stroke-linejoin="round"/>
<path d="M16.8184 47.9063C16.8184 35.714 23.9169 25.1794 34.2006 20.207M60.9372 20.207C71.225 25.1794 78.3235 35.7142 78.3235 47.9063C78.3235 62.367 68.5965 74.3626 55.1654 77.7109C50.0717 78.9832 47.5688 76.6436 47.5688 71.0937V64.8825" stroke="white" stroke-width="1.8" stroke-miterlimit="10" stroke-linecap="round" stroke-linejoin="round"/>
<path d="M47.5664 64.8822V19.7881" stroke="white" stroke-width="1.8" stroke-miterlimit="10" stroke-linecap="round" stroke-linejoin="round"/>
<path d="M56.676 27.5352L47.5684 34.3532L38.4609 27.5352" stroke="white" stroke-width="1.8" stroke-miterlimit="10" stroke-linecap="round" stroke-linejoin="round"/>
<path d="M56.676 38.9912L47.5684 45.8094L38.4609 38.9912" stroke="white" stroke-width="1.8" stroke-miterlimit="10" stroke-linecap="round" stroke-linejoin="round"/>
<path d="M12.1289 54.7284V50.1496C12.1289 48.9149 13.1418 47.9062 14.3722 47.9062H19.2609C20.4956 47.9062 21.5042 48.9149 21.5042 50.1496V54.7284" stroke="white" stroke-width="1.8" stroke-miterlimit="10" stroke-linecap="round" stroke-linejoin="round"/>
<path d="M5.67383 69.9343H27.9614V60.9314L21.5032 54.7285H12.1277L5.67383 60.9314V69.9343Z" stroke="white" stroke-width="1.8" stroke-miterlimit="10" stroke-linecap="round" stroke-linejoin="round"/>
<path d="M10.9404 69.9346V77.979" stroke="white" stroke-width="1.8" stroke-miterlimit="10" stroke-linecap="round" stroke-linejoin="round"/>
<path d="M22.6895 69.9346V77.979" stroke="white" stroke-width="1.8" stroke-miterlimit="10" stroke-linecap="round" stroke-linejoin="round"/>
<path d="M13.4648 63.8867H20.1699" stroke="white" stroke-width="1.8" stroke-miterlimit="10" stroke-linecap="round" stroke-linejoin="round"/>
</svg>
