<svg width="84" height="84" viewBox="0 0 84 84" fill="none" xmlns="http://www.w3.org/2000/svg">
<g clip-path="url(#clip0_6958_15130)">
<path d="M42 1.80469L1.80469 29.4363H82.1953L42 1.80469Z" stroke="white" stroke-width="2" stroke-miterlimit="10" stroke-linejoin="round"/>
<path d="M1.80469 82.1953H82.1953" stroke="white" stroke-width="2" stroke-miterlimit="10" stroke-linecap="round" stroke-linejoin="round"/>
<path d="M69.5996 82.1949V58.3555" stroke="white" stroke-width="2" stroke-miterlimit="10" stroke-linejoin="round"/>
<path d="M76.8184 58.3555V82.1949" stroke="white" stroke-width="2" stroke-miterlimit="10" stroke-linejoin="round"/>
<path d="M66.8721 58.3555H79.5459" stroke="white" stroke-width="2" stroke-miterlimit="10" stroke-linecap="round" stroke-linejoin="round"/>
<path d="M69.5996 37.3561V29.4365" stroke="white" stroke-width="2" stroke-miterlimit="10" stroke-linejoin="round"/>
<path d="M76.8184 29.4365V37.3561" stroke="white" stroke-width="2" stroke-miterlimit="10" stroke-linejoin="round"/>
<path d="M66.8721 37.3564H79.5459" stroke="white" stroke-width="2" stroke-miterlimit="10" stroke-linecap="round" stroke-linejoin="round"/>
<path d="M14.4004 82.1953V74.9766" stroke="white" stroke-width="2" stroke-miterlimit="10" stroke-linejoin="round"/>
<path d="M7.18164 74.9766V82.1953" stroke="white" stroke-width="2" stroke-miterlimit="10" stroke-linejoin="round"/>
<path d="M4.4541 74.9766H17.1281" stroke="white" stroke-width="2" stroke-miterlimit="10" stroke-linecap="round" stroke-linejoin="round"/>
<path d="M14.4004 53.9768V29.4365" stroke="white" stroke-width="2" stroke-miterlimit="10" stroke-linejoin="round"/>
<path d="M7.18164 29.4365V53.9768" stroke="white" stroke-width="2" stroke-miterlimit="10" stroke-linejoin="round"/>
<path d="M4.4541 53.9766H17.1281" stroke="white" stroke-width="2" stroke-miterlimit="10" stroke-linecap="round" stroke-linejoin="round"/>
<path d="M78.9141 44.5752L82.1953 47.8564L78.9141 51.1377" stroke="white" stroke-width="2" stroke-miterlimit="10" stroke-linecap="round" stroke-linejoin="round"/>
<path d="M82.1957 47.8564H64.2285" stroke="white" stroke-width="2" stroke-miterlimit="10" stroke-linecap="round" stroke-linejoin="round"/>
<path d="M17.0742 60.5518L20.9997 64.4773L17.0742 68.4028" stroke="white" stroke-width="2" stroke-miterlimit="10" stroke-linecap="round" stroke-linejoin="round"/>
<path d="M21 64.4775H1.80469" stroke="white" stroke-width="2" stroke-miterlimit="10" stroke-linecap="round" stroke-linejoin="round"/>
<path d="M45.2205 53.3902C46.8318 51.5414 47.7202 49.1095 47.6012 46.5595C47.4091 42.4384 43.7749 39.337 39.6749 39.7949C36.6064 40.1376 34.8985 43.5168 36.4423 46.1907L39.9836 52.3243" stroke="white" stroke-width="2" stroke-miterlimit="10" stroke-linejoin="round"/>
<path d="M38.779 58.2422C37.1677 60.091 36.2793 62.5229 36.3983 65.0729C36.5904 69.194 40.2246 72.2955 44.3246 71.8376C47.3931 71.4948 49.101 68.1156 47.5573 65.4417L44.016 59.3081" stroke="white" stroke-width="2" stroke-miterlimit="10" stroke-linejoin="round"/>
<path d="M45.4917 53.8L51.6253 50.2587C54.2992 48.7149 57.6784 50.4229 58.0211 53.4912C58.4792 57.5913 55.3776 61.2255 51.2565 61.4176C48.7065 61.5365 46.2746 60.6481 44.4258 59.0367" stroke="white" stroke-width="2" stroke-miterlimit="10" stroke-linejoin="round"/>
<path d="M39.5738 52.5955C37.725 50.9843 35.2931 50.0959 32.7431 50.2147C28.622 50.4068 25.5206 54.0409 25.9785 58.141C26.3212 61.2095 29.7004 62.9174 32.3743 61.3735L38.5079 57.8323" stroke="white" stroke-width="2" stroke-miterlimit="10" stroke-linejoin="round"/>
<path d="M42.0003 59.8482C44.2273 59.8482 46.0328 58.0428 46.0328 55.8157C46.0328 53.5886 44.2273 51.7832 42.0003 51.7832C39.7732 51.7832 37.9678 53.5886 37.9678 55.8157C37.9678 58.0428 39.7732 59.8482 42.0003 59.8482Z" stroke="white" stroke-width="2" stroke-miterlimit="10" stroke-linejoin="round"/>
</g>
<defs>
<clipPath id="clip0_6958_15130">
<rect width="84" height="84" fill="white"/>
</clipPath>
</defs>
</svg>
