<svg width="84" height="84" viewBox="0 0 84 84" fill="none" xmlns="http://www.w3.org/2000/svg">
<mask id="mask0_6963_14926" style="mask-type:luminance" maskUnits="userSpaceOnUse" x="4" y="4" width="76" height="76">
<path d="M4.18848 4.19981H79.7885V79.7998H4.18848V4.19981Z" fill="white"/>
</mask>
<g mask="url(#mask0_6963_14926)">
<path d="M53.8037 41.8521C53.8037 37.4824 51.4248 33.6761 47.8975 31.6329L46.4209 41.8521H37.5615L36.085 31.6329C32.5576 33.6761 30.1787 37.4824 30.1787 41.8521C30.1787 46.5199 32.8931 50.5435 36.8232 52.4618V77.585H47.1592V52.4618C51.0893 50.5435 53.8037 46.5199 53.8037 41.8521Z" stroke="black" stroke-width="2" stroke-miterlimit="10" stroke-linecap="round" stroke-linejoin="round"/>
<path d="M77.4287 47.7579V35.9454L70.582 34.5762C69.8767 31.7973 68.7834 29.1805 67.3529 26.7789L71.2257 20.9699L62.8731 12.6172L57.0638 16.4899C54.6622 15.0594 52.0456 13.9663 49.2667 13.2608L47.8975 6.41412H36.085L34.7157 13.2608C31.9369 13.9663 29.3202 15.0594 26.9186 16.4899L21.1094 12.6172L12.7568 20.9699L16.6295 26.7789C15.199 29.1805 14.1057 31.7973 13.4004 34.5762L6.55371 35.9454V47.7579L13.4004 49.1271C14.1057 51.906 15.199 54.5226 16.6295 56.9242L12.7568 62.7333L21.1094 71.0859L26.9186 67.2134V55.9713C23.45 52.2791 21.3193 47.3186 21.3193 41.8516C21.3193 30.4348 30.5744 21.1797 41.9912 21.1797C53.408 21.1797 62.6631 30.4348 62.6631 41.8516C62.6631 47.3186 60.5324 52.2791 57.0638 55.9713V67.2134L62.8731 71.0859L71.2257 62.7333L67.3529 56.9242C68.7834 54.5226 69.8767 51.906 70.582 49.1271L77.4287 47.7579Z" stroke="black" stroke-width="2" stroke-miterlimit="10" stroke-linecap="round" stroke-linejoin="round"/>
</g>
</svg>
