<svg width="84" height="84" viewBox="0 0 84 84" fill="none" xmlns="http://www.w3.org/2000/svg">
<path d="M56.9166 72.9835H68.4065V77.1907L78.6469 69.0934L68.4066 60.9961V65.1645H50.7192C55.3132 60.4737 58.1483 54.0521 58.1483 46.9847C58.1483 44.2285 57.7167 41.5706 56.9176 39.0749H53.2834L52.4975 37.2681C52.1925 36.5672 51.627 36.0135 50.9201 35.7219C50.9127 35.7189 50.9052 35.716 50.8978 35.713C50.1954 35.4213 49.4067 35.4154 48.6982 35.6937L46.9183 36.3931C49.0644 39.377 50.3294 43.035 50.3294 46.9847C50.3294 57.0077 42.1739 65.1645 32.1508 65.1645H31.999C21.976 65.1645 13.8191 57.0076 13.8191 46.9845C13.8191 36.9585 21.9761 28.8046 31.9992 28.8046H32.151C35.9921 28.8046 39.5578 30.0012 42.4955 32.043L43.2172 30.2125C43.497 29.5041 43.4895 28.7169 43.1979 28.0129C43.1949 28.0055 43.192 27.998 43.189 27.9906C42.8972 27.2838 42.3451 26.7181 41.6442 26.413L39.8345 25.6272V22.1447C37.4057 21.3917 34.8252 20.9854 32.151 20.9854H31.9992C17.6647 20.9855 6 32.6486 6 46.9844C6 54.0519 8.83648 60.4735 13.4307 65.1644C13.4307 65.1644 20.0963 72.9835 32.0734 72.9835H43.8217" stroke="white" stroke-width="2" stroke-miterlimit="10" stroke-linecap="round" stroke-linejoin="round"/>
<path d="M6 72.9819H32.0739C20.0957 72.9819 13.4301 65.1631 13.4301 65.1631H6" stroke="white" stroke-width="2" stroke-miterlimit="10" stroke-linecap="round" stroke-linejoin="round"/>
<path d="M32.15 65.1636H31.9982C21.9752 65.1636 13.8184 57.0066 13.8184 46.9836C13.8184 36.9576 21.9753 28.8037 31.9984 28.8037H32.1502C35.9913 28.8037 39.5571 30.0003 42.4947 32.0421" stroke="white" stroke-width="2" stroke-miterlimit="10" stroke-linecap="round" stroke-linejoin="round"/>
<path d="M46.9179 36.3926C49.064 39.3764 50.3289 43.0345 50.3289 46.9841C50.3289 57.0072 42.1736 65.164 32.1504 65.164H50.7173" stroke="white" stroke-width="2" stroke-miterlimit="10" stroke-linecap="round" stroke-linejoin="round"/>
<path d="M24.6064 46.8927L29.5123 51.7985L39.8344 41.4766" stroke="white" stroke-width="2" stroke-miterlimit="10" stroke-linecap="round" stroke-linejoin="round"/>
<path d="M71.1022 18.663C70.4008 18.3588 69.8471 17.7933 69.5562 17.086C69.5532 17.0786 69.5503 17.0713 69.5473 17.0639C69.2564 16.361 69.2491 15.5726 69.5281 14.8653L70.2502 13.0284L65.8825 8.66077L64.0471 9.3828C63.3384 9.66187 62.5499 9.65449 61.8471 9.36361C61.8397 9.36066 61.8323 9.3577 61.8264 9.35475C61.1191 9.06387 60.5536 8.51016 60.2479 7.81027L59.4609 6H53.2845L52.4989 7.80879C52.1933 8.51016 51.6278 9.06387 50.9205 9.35475C50.8969 9.36509 50.8732 9.37395 50.8496 9.38428C50.1748 9.6663 49.4188 9.68255 48.7308 9.43448L47.0224 8.81876L42.6547 13.1879L43.2689 14.8963C43.517 15.5844 43.5008 16.3404 43.2187 17.0152C43.2099 17.0388 43.1995 17.0624 43.1892 17.086C42.8983 17.7933 42.3446 18.3588 41.6433 18.663L39.8359 19.4485V25.6265L41.6447 26.4135C42.3446 26.7176 42.8983 27.2832 43.1892 27.9904C43.1922 27.9978 43.1951 28.0052 43.1981 28.0126C43.489 28.7154 43.4963 29.5039 43.2173 30.2127L42.4952 32.048L46.8629 36.4157L48.6997 35.6922C49.407 35.4146 50.1955 35.422 50.8983 35.7129C50.9057 35.7158 50.9131 35.7188 50.9205 35.7217C51.6278 36.0126 52.1933 36.5663 52.4989 37.2677L53.2845 39.075H59.4609L60.2479 37.2662C60.5536 36.5663 61.1191 36.0126 61.8249 35.7217C61.8485 35.7114 61.8736 35.7025 61.8973 35.6922C62.5706 35.4102 63.3266 35.3939 64.0147 35.642L65.723 36.2562L70.0907 31.8886L69.4765 30.1802C69.2284 29.4921 69.2446 28.7361 69.5267 28.0628C69.537 28.0392 69.5473 28.0141 69.5562 27.9904C69.8471 27.2846 70.4008 26.7176 71.1007 26.4135L72.9095 25.6265V19.45L71.1022 18.663ZM56.3734 29.5659C52.4916 29.5659 49.345 26.4194 49.345 22.5375C49.345 18.6571 52.4916 15.5105 56.3734 15.5105C60.2538 15.5105 63.4004 18.6571 63.4004 22.5375C63.4004 26.4194 60.2538 29.5659 56.3734 29.5659Z" stroke="white" stroke-width="2" stroke-miterlimit="10" stroke-linecap="round" stroke-linejoin="round"/>
<path d="M61.3402 27.5073C64.0846 24.7629 64.0846 20.3133 61.3402 17.5689C58.5958 14.8245 54.1462 14.8245 51.4018 17.5689C48.6574 20.3133 48.6574 24.7629 51.4018 27.5073C54.1462 30.2517 58.5958 30.2517 61.3402 27.5073Z" stroke="white" stroke-width="2" stroke-miterlimit="10" stroke-linecap="round" stroke-linejoin="round"/>
<circle cx="50.3691" cy="72.9824" r="1.47656" fill="white"/>
</svg>
