<svg width="84" height="84" viewBox="0 0 84 84" fill="none" xmlns="http://www.w3.org/2000/svg">
<path d="M39.8555 22.0908H43.6324" stroke="white" stroke-width="2" stroke-miterlimit="10" stroke-linecap="round" stroke-linejoin="round"/>
<path d="M62.5453 47.3944V33.3809M19.6748 33.3809V69.2624" stroke="white" stroke-width="2" stroke-miterlimit="10" stroke-linecap="round" stroke-linejoin="round"/>
<path d="M69.5244 50.3387V25.2568L41.7816 7.3457L12.6953 25.2568V47.2593M12.6953 52.0859V69.2618" stroke="white" stroke-width="2" stroke-miterlimit="10" stroke-linecap="round" stroke-linejoin="round"/>
<path d="M39.8555 17.9082H43.6324" stroke="white" stroke-width="2" stroke-miterlimit="10" stroke-linecap="round" stroke-linejoin="round"/>
<path d="M43.5972 41.3887H39.9668V46.2904H43.5972V41.3887Z" stroke="white" stroke-width="2" stroke-miterlimit="10" stroke-linecap="round" stroke-linejoin="round"/>
<path d="M8.83594 69.2627H48.6547" stroke="white" stroke-width="2" stroke-miterlimit="10" stroke-linecap="round" stroke-linejoin="round"/>
<path d="M60.4968 67.21C57.6235 67.21 55.2931 64.8856 55.2931 62.0197C55.2931 59.1577 57.6235 56.8333 60.4968 56.8333C63.3701 56.8333 65.6966 59.1577 65.6966 62.0197C65.6966 64.8856 63.3702 67.21 60.4968 67.21ZM66.8935 51.2517C65.8829 50.6508 64.7772 50.1883 63.608 49.8919V48.5518C63.608 47.9154 63.0808 47.3896 62.4428 47.3896H58.551C57.9089 47.3896 57.3859 47.9115 57.3859 48.5518V49.8919C56.2167 50.1883 55.111 50.6509 54.0963 51.2517L53.1451 50.303C52.6933 49.8522 51.9522 49.8522 51.5004 50.303L48.7459 53.0464C48.2941 53.501 48.2941 54.2403 48.7459 54.6909L49.6971 55.6396C49.0947 56.6475 48.631 57.7505 48.3338 58.9206H46.9903C46.3522 58.9206 45.8252 59.4424 45.8252 60.0789V63.9607C45.8252 64.6011 46.3523 65.1229 46.9903 65.1229H48.3338C48.6311 66.2931 49.0948 67.3959 49.6971 68.404L48.7459 69.3527C48.2941 69.8034 48.2941 70.5425 48.7459 70.9932L51.5004 73.7406C51.9522 74.1913 52.6933 74.1913 53.1451 73.7406L54.0963 72.7919C55.111 73.3928 56.2126 73.8552 57.3859 74.1517V75.4917C57.3859 76.1281 57.9089 76.6539 58.551 76.6539H62.4428C63.081 76.6539 63.608 76.1281 63.608 75.4917V74.1517C64.7772 73.8552 65.8829 73.3926 66.8935 72.7919L67.8447 73.7406C68.2965 74.1913 69.0376 74.1913 69.4935 73.7406L72.2439 70.9932C72.6957 70.5425 72.6957 69.8034 72.2439 69.3527L71.2927 68.404C71.8951 67.392 72.3588 66.2931 72.656 65.1229H73.9995C74.6415 65.1229 75.1646 64.6011 75.1646 63.9607V60.0789C75.1646 59.4424 74.6415 58.9206 73.9995 58.9206H72.656C72.3588 57.7505 71.895 56.6477 71.2927 55.6396L72.2439 54.6909C72.6957 54.2401 72.6957 53.501 72.2439 53.0464L69.4935 50.303C69.0377 49.8522 68.2965 49.8522 67.8447 50.303L66.8935 51.2517Z" stroke="white" stroke-width="2" stroke-miterlimit="10" stroke-linecap="round" stroke-linejoin="round"/>
<path d="M48.5364 55.3231H34.8117C34.4312 55.3231 34.1221 55.0148 34.1221 54.6353V42.0805C34.1221 41.701 34.4312 41.3887 34.8117 41.3887H48.7504C49.1309 41.3887 49.4441 41.7009 49.4441 42.0805V52.3544" stroke="white" stroke-width="2" stroke-miterlimit="10" stroke-linecap="round" stroke-linejoin="round"/>
<path d="M35.937 55.3232H32.3066V60.225H35.937V55.3232Z" stroke="white" stroke-width="2" stroke-miterlimit="10" stroke-linecap="round" stroke-linejoin="round"/>
<path d="M27.1536 55.3232H41.782V69.2616H27.1536C26.7691 69.2616 26.46 68.9493 26.46 68.5698V56.0149C26.46 55.6355 26.7691 55.3232 27.1536 55.3232Z" stroke="white" stroke-width="2" stroke-miterlimit="10" stroke-linecap="round" stroke-linejoin="round"/>
<path d="M44.0654 33.3806H62.546H62.7521C63.2951 33.3806 63.7429 32.9379 63.7429 32.3923V29.6133C63.7429 29.0678 63.2951 28.625 62.7521 28.625H19.4693C18.9263 28.625 18.4785 29.0678 18.4785 29.6133V32.3923C18.4785 32.9379 18.9263 33.3806 19.4693 33.3806H19.6754H39.2262" stroke="white" stroke-width="2" stroke-miterlimit="10" stroke-linecap="round" stroke-linejoin="round"/>
</svg>
