<svg width="84" height="84" viewBox="0 0 84 84" fill="none" xmlns="http://www.w3.org/2000/svg">
<g clip-path="url(#clip0_6963_14891)">
<path d="M70.3062 64.2793L66.633 56.8903C66.5102 56.6448 66.4395 56.5125 66.4395 56.2338V17.6454H74.1683V56.2338C74.1683 56.5125 74.0975 56.6448 73.9747 56.8903L70.3062 64.2793Z" stroke="white" stroke-width="2" stroke-miterlimit="10" stroke-linecap="round" stroke-linejoin="round"/>
<path d="M74.1683 56.2344H66.4395" stroke="white" stroke-width="2" stroke-miterlimit="10" stroke-linecap="round" stroke-linejoin="round"/>
<path d="M74.1683 17.6455H66.4395V13.7456C66.4395 11.6163 68.1769 9.87871 70.3062 9.87871C72.4309 9.87871 74.1683 11.6163 74.1683 13.7456V17.6455Z" stroke="white" stroke-width="2" stroke-miterlimit="10" stroke-linecap="round" stroke-linejoin="round"/>
<path d="M74.1713 15.4974H80.6064C83.1513 15.4974 83.4959 17.1357 83.4959 18.2641V69.8981C83.4959 71.4561 83.0144 73 80.3987 73L26.2309 72.9953H7.31721C3.84222 72.9953 1 70.1531 1 66.6828M1 66.6828C1 63.2078 3.84222 60.3654 7.31721 60.3654H11.8354C13.0206 60.3654 13.9884 59.3975 13.9884 58.2124V12.1498C13.9884 10.9647 13.0206 9.99683 11.8354 9.99683H7.31721C3.84222 9.99683 1 12.8392 1 16.3142V66.6828ZM45.7678 15.4974H66.4425M13.9884 15.4974H39.9746" stroke="white" stroke-width="2" stroke-miterlimit="10" stroke-linecap="round" stroke-linejoin="round"/>
<path d="M70.3066 64.2796V65.7197" stroke="white" stroke-width="2" stroke-miterlimit="10" stroke-linecap="round" stroke-linejoin="round"/>
<path d="M26.6485 50.4958V56.3496C26.6485 56.7088 26.9397 57 27.2989 57H57.9981C58.3573 57 58.6485 56.7088 58.6485 56.3496V33.9297C58.6485 33.6906 58.5173 33.4708 58.3069 33.3573L42.9573 25.078C42.7645 24.974 42.5324 24.974 42.3397 25.078L26.9901 33.3573C26.7796 33.4708 26.6484 33.6906 26.6484 33.9297V45.2928" stroke="white" stroke-width="1.71847" stroke-miterlimit="10" stroke-linecap="round" stroke-linejoin="round"/>
<circle cx="26.6504" cy="47.8945" r="0.650407" fill="white"/>
<path d="M30.5547 56.9994V40.7393" stroke="white" stroke-width="1.71847" stroke-miterlimit="10" stroke-linejoin="round"/>
<path d="M54.752 40.7393V56.9994" stroke="white" stroke-width="1.71847" stroke-miterlimit="10" stroke-linejoin="round"/>
<path d="M42.6465 52.4798V51.1465" stroke="white" stroke-width="1.71847" stroke-miterlimit="10" stroke-linecap="round" stroke-linejoin="round"/>
<path d="M48.499 52.4798V51.1465" stroke="white" stroke-width="1.71847" stroke-miterlimit="10" stroke-linecap="round" stroke-linejoin="round"/>
<path d="M39.7168 51.1465H45.5705" stroke="white" stroke-width="1.71847" stroke-miterlimit="10" stroke-linejoin="round"/>
<path d="M45.5762 57.0001V51.1465H50.7794C51.1386 51.1465 51.4298 51.4377 51.4298 51.7969V57.0001" stroke="white" stroke-width="1.71847" stroke-miterlimit="10" stroke-linejoin="round"/>
<path d="M33.8643 57.0001V51.7969C33.8643 51.4377 34.1554 51.1465 34.5147 51.1465H39.7179V57.0001" stroke="white" stroke-width="1.71847" stroke-miterlimit="10" stroke-linejoin="round"/>
<path d="M36.7939 52.4798V51.1465" stroke="white" stroke-width="1.71847" stroke-miterlimit="10" stroke-linecap="round" stroke-linejoin="round"/>
<path d="M42.6465 45.293H47.8497C48.209 45.293 48.5001 45.5842 48.5001 45.9434V51.1466" stroke="white" stroke-width="1.71847" stroke-miterlimit="10" stroke-linejoin="round"/>
<path d="M45.5762 46.6263V45.293" stroke="white" stroke-width="1.71847" stroke-miterlimit="10" stroke-linecap="round" stroke-linejoin="round"/>
<path d="M36.7939 51.1466V45.9434C36.7939 45.5842 37.0851 45.293 37.4444 45.293H42.6476V51.1466" stroke="white" stroke-width="1.71847" stroke-miterlimit="10" stroke-linejoin="round"/>
<path d="M39.7168 46.6263V45.293" stroke="white" stroke-width="1.71847" stroke-miterlimit="10" stroke-linecap="round" stroke-linejoin="round"/>
<path d="M55.3973 40.7393H29.9014C29.5422 40.7393 29.251 40.4481 29.251 40.0889V38.7881C29.251 38.4289 29.5422 38.1377 29.9014 38.1377H55.3973C55.7566 38.1377 56.0478 38.4289 56.0478 38.7881V40.0889C56.0478 40.4481 55.7566 40.7393 55.3973 40.7393Z" stroke="white" stroke-width="1.71847" stroke-miterlimit="10" stroke-linejoin="round"/>
<path d="M46.8762 34.8409H38.4209C38.0617 34.8409 37.7705 34.5497 37.7705 34.1905V31.5889C37.7705 31.2297 38.0617 30.9385 38.4209 30.9385H46.8762C47.2354 30.9385 47.5266 31.2297 47.5266 31.5889V34.1905C47.5266 34.5497 47.2354 34.8409 46.8762 34.8409Z" stroke="white" stroke-width="1.71847" stroke-miterlimit="10" stroke-linejoin="round"/>
<path d="M25 64.4463H58.4276" stroke="white" stroke-width="2" stroke-miterlimit="10" stroke-linecap="round" stroke-linejoin="round"/>
<path d="M25 66.8926V62.0002" stroke="white" stroke-width="2" stroke-miterlimit="10" stroke-linecap="round" stroke-linejoin="round"/>
<path d="M58.4297 66.8926V62.0002" stroke="white" stroke-width="2" stroke-miterlimit="10" stroke-linecap="round" stroke-linejoin="round"/>
</g>
<defs>
<clipPath id="clip0_6963_14891">
<rect width="84" height="84" fill="white"/>
</clipPath>
</defs>
</svg>
