<svg width="84" height="84" viewBox="0 0 84 84" fill="none" xmlns="http://www.w3.org/2000/svg">
<path d="M65.9531 21.1111L67.9905 33.337H16.0107L20.3422 7.3457H63.6591L65.2042 16.6138" stroke="white" stroke-width="2" stroke-miterlimit="10" stroke-linecap="round" stroke-linejoin="round"/>
<path d="M31.1698 7.3457L29.0039 33.336" stroke="white" stroke-width="2" stroke-miterlimit="10" stroke-linecap="round" stroke-linejoin="round"/>
<path d="M42 7.3457V33.336" stroke="white" stroke-width="2" stroke-miterlimit="10" stroke-linecap="round" stroke-linejoin="round"/>
<path d="M52.8291 7.3457L54.9949 33.336" stroke="white" stroke-width="2" stroke-miterlimit="10" stroke-linecap="round" stroke-linejoin="round"/>
<path d="M19.0674 14.9902H64.9327" stroke="white" stroke-width="2" stroke-miterlimit="10" stroke-linecap="round" stroke-linejoin="round"/>
<path d="M17.6338 23.5898H66.3657" stroke="white" stroke-width="2" stroke-miterlimit="10" stroke-linecap="round" stroke-linejoin="round"/>
<path d="M67.9905 33.3369H16.0098V37.6686H67.9905V33.3369Z" stroke="white" stroke-width="2" stroke-miterlimit="10" stroke-linecap="round" stroke-linejoin="round"/>
<path d="M45.2485 57.2747V67.9902H38.75V37.6689H45.2485V52.7159" stroke="white" stroke-width="2" stroke-miterlimit="10" stroke-linecap="round" stroke-linejoin="round"/>
<path d="M46.3315 67.9902H37.668V76.6538H46.3315V67.9902Z" stroke="white" stroke-width="2" stroke-miterlimit="10" stroke-linecap="round" stroke-linejoin="round"/>
<path d="M38.7509 44.1665L24.6729 37.6689" stroke="white" stroke-width="2" stroke-miterlimit="10" stroke-linecap="round" stroke-linejoin="round"/>
<path d="M45.249 44.1665L59.3271 37.6689" stroke="white" stroke-width="2" stroke-miterlimit="10" stroke-linecap="round" stroke-linejoin="round"/>
<path d="M33.3374 65.9368V76.6537H20.3418V50.6541C20.3418 48.2667 22.2774 46.3311 24.6648 46.3311H29.0144C31.4018 46.3311 33.3374 48.2667 33.3374 50.6541V61.3794" stroke="white" stroke-width="2" stroke-miterlimit="10" stroke-linecap="round" stroke-linejoin="round"/>
<path d="M29.0045 63.6582H24.6729V67.9899H29.0045V63.6582Z" stroke="white" stroke-width="2" stroke-miterlimit="10" stroke-linecap="round" stroke-linejoin="round"/>
<path d="M26.8387 50.6631L24.6729 55.0033H29.0045L26.8387 59.3263" stroke="white" stroke-width="2" stroke-miterlimit="10" stroke-linecap="round" stroke-linejoin="round"/>
<path d="M26.8391 67.9903V70.2302C26.8391 71.3855 25.9026 72.322 24.7473 72.322H18.1016C16.9463 72.322 16.0098 71.3855 16.0098 70.2302V57.0869C16.0098 55.9317 16.9463 54.9951 18.1016 54.9951H20.3415" stroke="white" stroke-width="2" stroke-miterlimit="10" stroke-linecap="round" stroke-linejoin="round"/>
<path d="M50.6631 76.6532H63.6583V50.6541C63.6583 48.2665 61.7228 46.3311 59.3353 46.3311H54.9861C52.5986 46.3311 50.6631 48.2665 50.6631 50.6541V76.6532Z" stroke="white" stroke-width="2" stroke-miterlimit="10" stroke-linecap="round" stroke-linejoin="round"/>
<path d="M54.9955 67.9902L59.3271 67.9902L59.3271 63.6585L54.9955 63.6585L54.9955 67.9902Z" stroke="white" stroke-width="2" stroke-miterlimit="10" stroke-linecap="round" stroke-linejoin="round"/>
<path d="M57.161 50.6631L54.9951 55.0033H59.3268L57.161 59.3263" stroke="white" stroke-width="2" stroke-miterlimit="10" stroke-linecap="round" stroke-linejoin="round"/>
<path d="M57.1602 67.9903V70.2302C57.1602 71.3855 58.0967 72.322 59.252 72.322H65.8977C67.053 72.322 67.9895 71.3855 67.9895 70.2302V57.0869C67.9895 55.9317 67.053 54.9951 65.8977 54.9951H63.6578" stroke="white" stroke-width="2" stroke-miterlimit="10" stroke-linecap="round" stroke-linejoin="round"/>
</svg>
