<svg width="60" height="60" viewBox="0 0 60 60" fill="none" xmlns="http://www.w3.org/2000/svg">
<path d="M28.1953 13.2695H31.3692" stroke="black" stroke-width="1.3" stroke-miterlimit="10" stroke-linecap="round" stroke-linejoin="round"/>
<path d="M47.2639 34.5326V22.7566M11.2383 22.7566V52.9092" stroke="#0DB14B" stroke-width="1.3" stroke-miterlimit="10" stroke-linecap="round" stroke-linejoin="round"/>
<path d="M53.1266 37.0075V15.9302L29.8134 0.878906L5.37109 15.9302V34.4197M5.37109 38.4757V52.9092" stroke="black" stroke-width="1.3" stroke-miterlimit="10" stroke-linecap="round" stroke-linejoin="round"/>
<path d="M28.1953 9.75488H31.3692" stroke="black" stroke-width="1.3" stroke-miterlimit="10" stroke-linecap="round" stroke-linejoin="round"/>
<path d="M31.3398 29.4868H28.2891V33.606H31.3398V29.4868Z" stroke="black" stroke-width="1.3" stroke-miterlimit="10" stroke-linecap="round" stroke-linejoin="round"/>
<path d="M2.12891 52.9092H35.59" stroke="black" stroke-width="1.3" stroke-miterlimit="10" stroke-linecap="round" stroke-linejoin="round"/>
<path d="M45.54 51.185C43.1255 51.185 41.1671 49.2318 41.1671 46.8234C41.1671 44.4184 43.1255 42.4651 45.54 42.4651C47.9545 42.4651 49.9096 44.4184 49.9096 46.8234C49.9096 49.2318 47.9546 51.185 45.54 51.185ZM50.9154 37.7747C50.0661 37.2697 49.137 36.8811 48.1545 36.632V35.5059C48.1545 34.9711 47.7115 34.5293 47.1754 34.5293H43.9049C43.3654 34.5293 42.9258 34.9678 42.9258 35.5059V36.632C41.9433 36.8811 41.0141 37.2698 40.1614 37.7747L39.3621 36.9775C38.9824 36.5987 38.3597 36.5987 37.98 36.9775L35.6653 39.2829C35.2856 39.6649 35.2856 40.2861 35.6653 40.6648L36.4646 41.462C35.9584 42.309 35.5687 43.2359 35.319 44.2192H34.19C33.6538 44.2192 33.2109 44.6577 33.2109 45.1925V48.4546C33.2109 48.9927 33.6539 49.4312 34.19 49.4312H35.319C35.5689 50.4145 35.9585 51.3413 36.4646 52.1884L35.6653 52.9856C35.2856 53.3644 35.2856 53.9855 35.6653 54.3642L37.98 56.6729C38.3597 57.0517 38.9824 57.0517 39.3621 56.6729L40.1614 55.8757C41.0141 56.3807 41.9399 56.7693 42.9258 57.0184V58.1445C42.9258 58.6793 43.3654 59.1211 43.9049 59.1211H47.1754C47.7116 59.1211 48.1545 58.6793 48.1545 58.1445V57.0184C49.137 56.7693 50.0661 56.3805 50.9154 55.8757L51.7147 56.6729C52.0944 57.0517 52.7171 57.0517 53.1002 56.6729L55.4115 54.3642C55.7912 53.9855 55.7912 53.3644 55.4115 52.9856L54.6122 52.1884C55.1184 51.338 55.5081 50.4145 55.7578 49.4312H56.8868C57.4263 49.4312 57.8659 48.9927 57.8659 48.4546V45.1925C57.8659 44.6577 57.4263 44.2192 56.8868 44.2192H55.7578C55.5081 43.2359 55.1183 42.3091 54.6122 41.462L55.4115 40.6648C55.7912 40.286 55.7912 39.6649 55.4115 39.2829L53.1002 36.9775C52.7173 36.5987 52.0944 36.5987 51.7147 36.9775L50.9154 37.7747Z" stroke="#F47920" stroke-width="1.3" stroke-miterlimit="10" stroke-linecap="round" stroke-linejoin="round"/>
<path d="M35.4918 41.1964H23.9584C23.6387 41.1964 23.3789 40.9373 23.3789 40.6185V30.0682C23.3789 29.7493 23.6387 29.4868 23.9584 29.4868H35.6716C35.9913 29.4868 36.2545 29.7492 36.2545 30.0682V38.7017" stroke="black" stroke-width="1.3" stroke-miterlimit="10" stroke-linecap="round" stroke-linejoin="round"/>
<path d="M24.9023 41.1963H21.8516V45.3154H24.9023V41.1963Z" stroke="black" stroke-width="1.3" stroke-miterlimit="10" stroke-linecap="round" stroke-linejoin="round"/>
<path d="M17.5204 41.1963H29.8131V52.9092H17.5204C17.1973 52.9092 16.9375 52.6468 16.9375 52.3278V41.7775C16.9375 41.4587 17.1973 41.1963 17.5204 41.1963Z" stroke="black" stroke-width="1.3" stroke-miterlimit="10" stroke-linecap="round" stroke-linejoin="round"/>
<path d="M31.732 22.7566H47.262H47.4352C47.8915 22.7566 48.2678 22.3845 48.2678 21.9261V19.5908C48.2678 19.1323 47.8915 18.7603 47.4352 18.7603H11.0631C10.6068 18.7603 10.2305 19.1323 10.2305 19.5908V21.9261C10.2305 22.3845 10.6068 22.7566 11.0631 22.7566H11.2363H27.6655" stroke="#0DB14B" stroke-width="1.3" stroke-miterlimit="10" stroke-linecap="round" stroke-linejoin="round"/>
</svg>
