<svg width="215" height="50" viewBox="0 0 215 50" fill="none" xmlns="http://www.w3.org/2000/svg">
<path d="M0.185132 0.467072C0.330959 0.467072 0.476787 0.453125 0.622614 0.453125C15.9345 0.453125 31.2464 0.453125 46.5583 0.453125C46.9427 0.453125 47.0223 0.550756 47.0223 0.94128C47.0223 17.0643 47.0223 33.1874 47.0223 49.2965C47.0223 49.673 46.9692 49.7986 46.5715 49.7986C32.0153 49.7986 17.4458 49.7986 2.88957 49.7986H2.43883C2.5714 49.6451 2.65094 49.5475 2.74374 49.4638C9.98209 41.8486 17.2204 34.2474 24.4455 26.6182C24.7107 26.3393 24.8167 26.3951 25.0553 26.6322C27.0306 28.7382 29.0325 30.8303 31.021 32.9224C31.1271 33.034 31.2066 33.1595 31.2862 33.2711C31.4452 33.1316 31.3922 33.0061 31.3922 32.9084C31.3922 27.7061 31.3922 22.5038 31.3922 17.3014C31.3922 17.0504 31.3922 16.9109 31.074 16.9109C26.0364 16.9109 20.9987 16.9109 15.961 16.9109C15.9212 16.9109 15.8815 16.9109 15.8417 16.9109C15.7754 16.8412 15.6959 16.7854 15.6296 16.7156C10.5256 11.3738 5.44818 6.03203 0.357474 0.690229C0.291188 0.620492 0.23816 0.550756 0.171875 0.467072H0.185132Z" fill="#2BB04C"/>
<path d="M0.184419 0.46875C0.250704 0.538486 0.303732 0.62217 0.370018 0.691906C5.44747 6.03371 10.5382 11.3895 15.6156 16.7313C15.6819 16.801 15.7482 16.8568 15.8277 16.9265C15.9205 17.0381 16.0133 17.1497 16.1194 17.2613C18.1345 19.3813 20.1495 21.5152 22.1779 23.6212C22.3502 23.8025 22.4297 23.9002 22.2044 24.1373C14.8997 31.7943 7.60837 39.4653 0.31699 47.1363C0.277218 47.1782 0.22419 47.234 0.171162 47.2758C0.0651056 47.1642 0.118134 47.0387 0.118134 46.9271C0.118134 31.5712 0.118134 16.2152 0.118134 0.859274C0.118134 0.733748 0.0518486 0.580328 0.184419 0.482697V0.46875Z" fill="#F47922"/>
<path d="M208.089 16.4071C208.089 11.2327 208.089 6.08614 208.089 0.939602C208.089 0.549078 208.155 0.4375 208.553 0.4375C210.356 0.465395 212.159 0.451447 213.962 0.4375C214.24 0.4375 214.307 0.521184 214.307 0.800129C214.307 10.1587 214.307 19.5034 214.307 28.862C214.307 29.1549 214.214 29.2247 213.949 29.2247C212.411 29.2247 210.873 29.2247 209.335 29.2247C209.07 29.2247 208.911 29.141 208.765 28.9039C205.584 23.8689 202.402 18.834 199.22 13.785C199.141 13.6595 199.061 13.534 198.902 13.3108V13.8408C198.902 18.82 198.902 23.7992 198.902 28.7784C198.902 29.1549 198.796 29.2247 198.464 29.2247C196.662 29.2107 194.859 29.2107 193.056 29.2247C192.777 29.2247 192.711 29.1549 192.711 28.862C192.711 19.5034 192.711 10.1587 192.711 0.800129C192.711 0.507236 192.79 0.4375 193.056 0.4375C194.58 0.451447 196.105 0.451447 197.629 0.4375C197.894 0.4375 198.027 0.535131 198.16 0.758287C201.381 5.89088 204.616 11.0374 207.85 16.17C207.904 16.2537 207.93 16.3792 208.089 16.4211V16.4071Z" fill="black"/>
<path d="M111.719 14.8171C111.719 10.1727 111.719 5.51431 111.719 0.869865C111.719 0.521184 111.798 0.4375 112.13 0.4375C115.749 0.451447 119.368 0.409605 122.987 0.479342C125.214 0.521184 127.362 1.05118 129.231 2.44591C130.968 3.72906 131.949 5.52825 132.254 7.71798C132.519 9.55902 132.44 11.3861 131.777 13.1435C131.114 14.8869 129.934 16.1421 128.343 16.979C128.051 17.1324 128.065 17.244 128.184 17.495C129.894 21.2608 131.604 25.0265 133.301 28.8063C133.5 29.2386 133.5 29.2386 133.049 29.2386C130.915 29.2386 128.794 29.2386 126.659 29.2386C126.341 29.2386 126.209 29.127 126.089 28.8342C124.684 25.4589 123.266 22.0976 121.874 18.7363C121.754 18.4574 121.622 18.3458 121.33 18.3458C120.468 18.3737 119.593 18.3737 118.732 18.3458C118.361 18.3458 118.308 18.4713 118.308 18.82C118.308 22.1534 118.307 25.4868 118.321 28.8202C118.321 29.1689 118.228 29.2526 117.91 29.2386C115.988 29.2247 114.065 29.2247 112.143 29.2386C111.825 29.2386 111.732 29.1689 111.732 28.8202C111.732 24.1618 111.732 19.4895 111.732 14.8311L111.719 14.8171ZM118.294 9.3777C118.294 10.0472 118.294 10.7027 118.294 11.3722C118.294 11.7627 118.135 12.2648 118.361 12.4879C118.599 12.739 119.076 12.5716 119.461 12.5577C120.773 12.5577 122.086 12.6553 123.398 12.4043C124.485 12.1951 125.374 11.7208 125.678 10.4935C125.851 9.78217 125.851 9.07086 125.652 8.35955C125.294 7.04851 124.326 6.54641 123.173 6.3372C121.635 6.05825 120.084 6.21167 118.533 6.16983C118.281 6.16983 118.308 6.32325 118.308 6.49062C118.308 7.43903 118.308 8.40139 118.308 9.34981L118.294 9.3777Z" fill="black"/>
<path d="M61.0312 14.8155C61.0312 10.171 61.0312 5.51263 61.0312 0.868188C61.0312 0.519506 61.1108 0.435822 61.4422 0.435822C63.3777 0.44977 65.3133 0.44977 67.2488 0.435822C67.5935 0.435822 67.6465 0.533453 67.6465 0.868188C67.6465 4.24343 67.6465 7.61867 67.6333 10.9939C67.6333 11.3286 67.6995 11.4402 68.0442 11.4263C70.5631 11.4123 73.0687 11.4123 75.5875 11.4263C75.9322 11.4263 76.0515 11.3565 76.0515 10.9521C76.0382 7.59077 76.0515 4.22948 76.0382 0.868188C76.0382 0.505559 76.131 0.421875 76.4625 0.421875C78.3847 0.435822 80.307 0.435822 82.2293 0.421875C82.5342 0.421875 82.6535 0.477664 82.6535 0.840293C82.6535 10.1571 82.6535 19.4599 82.6535 28.7767C82.6535 29.1114 82.6005 29.223 82.2558 29.209C80.307 29.1951 78.3582 29.1951 76.4094 29.209C76.1045 29.209 76.0382 29.1114 76.0382 28.8185C76.0382 25.0946 76.0382 21.3707 76.0515 17.6468C76.0515 17.2981 75.9852 17.1865 75.6273 17.1865C73.1084 17.2004 70.6028 17.2004 68.084 17.1865C67.7526 17.1865 67.6465 17.2562 67.6465 17.6328C67.6598 21.3428 67.6465 25.0528 67.6598 28.7627C67.6598 29.1393 67.567 29.223 67.2223 29.209C65.3 29.1951 63.3778 29.1951 61.4555 29.209C61.1373 29.209 61.0445 29.1393 61.0445 28.7906C61.0445 24.1322 61.0445 19.4599 61.0445 14.8015L61.0312 14.8155Z" fill="black"/>
<path d="M86.3804 14.5671C86.407 13.3537 86.3142 11.9032 86.4732 10.4526C86.7782 7.56555 87.5868 4.91557 89.6284 2.83743C91.0337 1.41481 92.7438 0.605866 94.6396 0.257184C96.9993 -0.175181 99.3326 -0.0914976 101.586 0.801128C104.688 2.02849 106.505 4.48321 107.38 7.77476C107.777 9.28107 107.936 10.8432 107.936 12.4053C107.936 14.2323 107.963 16.0594 107.923 17.8865C107.87 20.0763 107.486 22.1962 106.518 24.1628C105.325 26.5896 103.495 28.2215 101.016 29.0443C98.5769 29.8393 96.0979 29.8672 93.632 29.1559C90.2913 28.1796 88.1569 25.8644 87.0831 22.4333C86.5793 20.8434 86.3804 19.2115 86.3672 17.5379C86.3672 16.6313 86.3672 15.7108 86.3672 14.5671H86.3804ZM101.361 15.0273C101.361 13.9813 101.374 13.1026 101.361 12.21C101.334 11.1779 101.255 10.1458 101.003 9.14159C100.486 7.09135 99.4254 6.01741 97.6092 5.82214C95.846 5.62688 94.401 6.36609 93.6586 8.20713C93.2874 9.12765 93.1018 10.104 93.0355 11.0942C92.9029 13.2979 92.9559 15.5155 92.9824 17.7192C92.9824 18.5699 93.0885 19.4207 93.2741 20.2576C93.7116 22.3636 94.7854 23.5352 96.5619 23.8281C98.325 24.1349 99.8894 23.2841 100.619 21.6244C100.95 20.8712 101.136 20.0623 101.242 19.2394C101.427 17.775 101.348 16.3105 101.374 15.0134L101.361 15.0273Z" fill="black"/>
<path d="M188.945 15.0403C188.919 16.5466 189.011 18.2203 188.786 19.88C188.375 22.7671 187.407 25.3473 185.207 27.2581C183.576 28.6807 181.654 29.3781 179.572 29.5734C177.478 29.7686 175.423 29.6012 173.461 28.7365C170.398 27.3836 168.675 24.8592 167.866 21.5676C167.522 20.1868 167.376 18.7642 167.376 17.3416C167.376 15.4727 167.349 13.6037 167.389 11.7348C167.442 9.48928 167.853 7.32746 168.861 5.31905C170.027 3.0038 171.804 1.44171 174.163 0.66066C176.669 -0.176176 179.214 -0.218018 181.733 0.535135C185.273 1.58118 187.394 4.10564 188.375 7.75982C188.759 9.19639 188.932 10.6748 188.945 12.1811C188.945 13.0737 188.945 13.9803 188.945 15.0542V15.0403ZM182.37 14.8311C182.37 14.0919 182.37 13.3666 182.37 12.6274C182.343 11.2606 182.264 9.89375 181.826 8.58271C181.229 6.79746 179.997 5.8072 178.286 5.77931C176.457 5.73747 175.224 6.61614 174.561 8.42929C174.11 9.62876 173.991 10.898 173.978 12.1672C173.951 13.9524 173.965 15.7377 173.978 17.5229C173.978 18.5411 174.084 19.5592 174.349 20.5495C174.813 22.2789 175.688 23.576 177.517 23.8271C179.294 24.0781 180.832 23.4366 181.627 21.5955C181.945 20.8563 182.118 20.0892 182.224 19.2942C182.423 17.8158 182.37 16.3095 182.37 14.8311Z" fill="black"/>
<path d="M154.904 23.4644H156.813C159.477 23.4644 162.155 23.4644 164.82 23.4644C165.125 23.4644 165.218 23.5342 165.204 23.8689C165.191 25.5286 165.191 27.1884 165.204 28.8481C165.204 29.1549 165.138 29.2386 164.833 29.2386C158.881 29.2386 152.915 29.2386 146.963 29.2386C146.644 29.2386 146.578 29.127 146.578 28.8202C146.591 27.6347 146.591 26.4352 146.578 25.2497C146.578 24.8871 146.658 24.5802 146.83 24.2734C150.038 18.3876 153.246 12.5019 156.441 6.60219C156.508 6.49061 156.561 6.36509 156.64 6.19772C156.468 6.19772 156.335 6.19772 156.216 6.19772C153.14 6.19772 150.065 6.19772 146.989 6.19772C146.684 6.19772 146.591 6.12799 146.591 5.79325C146.605 4.13353 146.605 2.4738 146.591 0.814076C146.591 0.493289 146.684 0.4375 146.963 0.4375C152.796 0.4375 158.616 0.4375 164.449 0.4375C164.727 0.4375 164.833 0.493289 164.82 0.814076C164.793 2.08328 164.82 3.36643 164.82 4.63563C164.82 4.84484 164.78 5.0401 164.674 5.22141C161.519 11.1211 158.35 17.0208 155.195 22.9205C155.116 23.0739 155.036 23.2273 154.917 23.4505L154.904 23.4644Z" fill="black"/>
<path d="M143.061 14.8746C143.061 19.5051 143.061 24.1356 143.061 28.78C143.061 29.1427 142.981 29.2403 142.636 29.2403C140.688 29.2263 138.739 29.2263 136.803 29.2403C136.498 29.2403 136.445 29.1566 136.445 28.8498C136.445 19.519 136.445 10.1744 136.445 0.843649C136.445 0.550756 136.498 0.453125 136.803 0.453125C138.752 0.467072 140.701 0.467072 142.636 0.453125C142.968 0.453125 143.074 0.522861 143.074 0.899438C143.061 5.55783 143.074 10.2162 143.074 14.8886L143.061 14.8746Z" fill="black"/>
<path d="M69.091 42.7686C69.091 45.0559 69.091 47.2178 69.091 49.3656C69.091 49.7143 68.9982 49.798 68.6801 49.7841C67.9774 49.7562 67.2881 49.7701 66.5854 49.7841C66.3733 49.7841 66.3203 49.7283 66.3203 49.5051C66.3203 45.4186 66.3203 41.346 66.3203 37.2594C66.3203 37.0363 66.3866 36.9805 66.5854 36.9805C67.1555 36.9944 67.7123 36.9944 68.2824 36.9805C68.5475 36.9805 68.7066 37.0642 68.8524 37.3013C70.2444 39.5468 71.6496 41.7783 73.0814 44.0378C73.1875 43.8844 73.1477 43.7449 73.1477 43.6054C73.1477 41.5273 73.1477 39.4491 73.1477 37.3849C73.1477 37.0781 73.214 36.9805 73.5189 36.9944C74.2215 37.0223 74.9109 37.0084 75.6135 36.9944C75.8389 36.9944 75.9317 37.0363 75.9317 37.3013C75.9317 41.3599 75.9317 45.4046 75.9317 49.4633C75.9317 49.7143 75.8919 49.798 75.6268 49.7841C75.0302 49.7562 74.4469 49.7701 73.8503 49.7841C73.6249 49.7841 73.5056 49.7143 73.3731 49.5051C72.0474 47.3851 70.6951 45.2651 69.3562 43.1591C69.2899 43.0615 69.2236 42.9638 69.091 42.7546V42.7686Z" fill="black"/>
<path d="M193.071 49.7835C192.037 49.7835 191.056 49.7835 190.075 49.7835C189.836 49.7835 189.796 49.6161 189.73 49.4627C189.147 48.068 188.55 46.6732 187.98 45.2646C187.887 45.0275 187.768 44.9159 187.516 44.9438C187.238 44.9717 186.959 44.9717 186.694 44.9438C186.416 44.9159 186.336 45.0275 186.349 45.3064C186.363 46.6593 186.349 48.0122 186.363 49.379C186.363 49.6998 186.296 49.7974 185.978 49.7835C185.249 49.7556 184.507 49.7695 183.764 49.7835C183.499 49.7835 183.406 49.7416 183.406 49.4348C183.406 45.3901 183.406 41.3593 183.406 37.3146C183.406 37.1194 183.406 36.9799 183.671 36.9799C185.461 37.0357 187.251 36.8683 189.027 37.0775C190.539 37.2588 191.824 37.8865 192.342 39.5183C192.779 40.8991 192.726 42.2659 191.838 43.4793C191.599 43.814 191.281 44.079 190.923 44.2604C190.671 44.3859 190.698 44.4975 190.79 44.7206C191.533 46.3385 192.262 47.9564 192.991 49.5743C193.018 49.6161 193.031 49.6719 193.071 49.7835ZM186.349 40.9827C186.349 41.3733 186.349 41.7498 186.349 42.1404C186.349 42.2938 186.349 42.4054 186.548 42.4054C187.211 42.3775 187.887 42.4472 188.55 42.3217C189.306 42.1822 189.637 41.8196 189.65 41.0664C189.65 40.2714 189.319 39.8112 188.603 39.6578C187.927 39.5183 187.238 39.588 186.561 39.5741C186.376 39.5741 186.349 39.6717 186.349 39.8251C186.349 40.2156 186.349 40.5922 186.349 40.9827Z" fill="black"/>
<path d="M131.084 49.7813C130.05 49.7813 129.056 49.7813 128.075 49.7813C127.862 49.7813 127.809 49.6557 127.756 49.5023C127.173 48.1076 126.576 46.7129 126.006 45.3042C125.9 45.0392 125.768 44.9137 125.489 44.9415C125.131 44.9694 124.641 44.83 124.429 45.0113C124.203 45.2205 124.363 45.7365 124.363 46.1271C124.363 47.2289 124.363 48.3447 124.363 49.4465C124.363 49.7255 124.283 49.7952 124.031 49.7813C123.249 49.7673 122.48 49.7673 121.698 49.7813C121.473 49.7813 121.406 49.7255 121.406 49.4884C121.406 45.4158 121.406 41.3571 121.406 37.2845C121.406 37.1032 121.406 36.9777 121.645 36.9916C123.435 37.0474 125.224 36.88 127.001 37.0892C128.499 37.2705 129.771 37.8982 130.328 39.5161C130.872 41.0921 130.607 43.4213 128.817 44.3279C128.565 44.4534 128.737 44.6068 128.79 44.7323C129.453 46.2108 130.129 47.6892 130.805 49.1676C130.885 49.3489 130.965 49.5441 131.071 49.7952L131.084 49.7813ZM124.349 40.9805C124.349 41.371 124.349 41.7616 124.349 42.1381C124.349 42.2916 124.349 42.4031 124.548 42.3892C125.198 42.3613 125.861 42.431 126.51 42.3195C127.292 42.18 127.637 41.8034 127.65 41.0642C127.65 40.2413 127.306 39.8089 126.51 39.6416C125.861 39.5021 125.198 39.5997 124.548 39.5579C124.349 39.5579 124.336 39.6555 124.349 39.8089C124.349 40.1995 124.349 40.59 124.349 40.9666V40.9805Z" fill="black"/>
<path d="M78.1641 43.3643C78.1641 41.3559 78.1641 39.3475 78.1641 37.353C78.1641 37.0741 78.2303 36.9765 78.5087 36.9904C80.0333 37.0043 81.5579 36.9625 83.0824 37.0183C84.9119 37.088 86.3569 37.8412 87.0728 39.752C87.3114 40.3796 87.4307 41.0491 87.4572 41.7325C87.5103 43.0993 87.6031 44.4801 87.3644 45.833C86.9137 48.4551 85.3892 49.7661 82.8571 49.794C81.412 49.794 79.967 49.794 78.522 49.794C78.2436 49.794 78.1773 49.7243 78.1773 49.4314C78.1773 47.409 78.1773 45.3867 78.1773 43.3783L78.1641 43.3643ZM81.0939 43.3364C81.0939 44.5219 81.0939 45.7074 81.0939 46.9069C81.0939 47.1301 81.1469 47.2138 81.3723 47.2138C81.7965 47.1998 82.2075 47.2138 82.6317 47.2138C83.6525 47.2138 84.2225 46.7953 84.4081 45.7214C84.6733 44.2011 84.66 42.6669 84.4214 41.1467C84.2358 39.9891 83.679 39.5706 82.5521 39.5706C82.1677 39.5706 81.7832 39.5846 81.412 39.5706C81.1469 39.5567 81.0806 39.6404 81.0939 39.9054C81.1071 41.0491 81.0939 42.2067 81.0939 43.3504V43.3364Z" fill="black"/>
<path d="M198.543 44.8987C198.211 45.3729 197.92 45.8053 197.615 46.2237C197.495 46.3771 197.482 46.5445 197.482 46.7258C197.482 47.6184 197.482 48.525 197.482 49.4176C197.482 49.6687 197.456 49.7803 197.177 49.7803C196.408 49.7524 195.626 49.7663 194.844 49.7803C194.605 49.7803 194.539 49.7105 194.539 49.4595C194.539 45.4008 194.539 41.3561 194.539 37.2975C194.539 37.0185 194.632 36.9767 194.857 36.9906C195.639 36.9906 196.408 37.0046 197.19 36.9906C197.442 36.9906 197.495 37.0604 197.495 37.3114C197.495 38.5946 197.495 39.8917 197.495 41.1748V41.5793C197.654 41.5793 197.681 41.4398 197.734 41.3701C198.635 40.0172 199.537 38.6503 200.425 37.2835C200.571 37.0604 200.717 36.9767 200.969 36.9906C201.963 37.0046 202.971 36.9906 204.044 36.9906C203.885 37.2138 203.766 37.3951 203.647 37.5764C202.652 39.013 201.645 40.4635 200.637 41.8861C200.491 42.0953 200.491 42.2348 200.624 42.4579C201.923 44.7732 203.209 47.1024 204.495 49.4176C204.548 49.5153 204.588 49.6129 204.667 49.7663C203.819 49.7663 203.01 49.6966 202.202 49.7803C201.406 49.8639 200.982 49.5711 200.637 48.8179C200.081 47.6184 199.418 46.4748 198.795 45.3171C198.728 45.1916 198.649 45.0661 198.543 44.8848V44.8987Z" fill="black"/>
<path d="M99.0243 41.4145C99.0243 42.7534 99.0773 44.1063 99.0243 45.4453C98.905 48.1371 97.1683 49.8666 94.5964 49.9642C93.4165 50.006 92.2897 49.8247 91.2954 49.0855C90.1686 48.2347 89.6515 47.0074 89.5455 45.6126C89.3864 43.4787 89.5057 41.3308 89.4792 39.1829C89.4792 38.5693 89.4925 37.9695 89.4792 37.3559C89.4792 37.049 89.572 36.9932 89.8371 36.9932C90.5928 37.0072 91.3352 37.0072 92.0908 36.9932C92.3692 36.9932 92.4355 37.063 92.4355 37.3559C92.4355 39.8106 92.4355 42.2513 92.4355 44.7061C92.4355 45.2919 92.4885 45.8637 92.7139 46.4076C93.0188 47.1329 93.5756 47.3979 94.3048 47.3979C95.0206 47.3979 95.5774 47.1329 95.8823 46.4076C96.1475 45.78 96.1608 45.1105 96.1608 44.455C96.1608 42.0979 96.1608 39.7548 96.1608 37.3977C96.1608 37.063 96.2535 36.9932 96.5585 36.9932C97.2743 37.0211 97.977 37.0211 98.6928 36.9932C99.0375 36.9793 99.0906 37.1048 99.0906 37.4395C99.0773 38.7645 99.0906 40.0895 99.0906 41.4285H99.064L99.0243 41.4145Z" fill="black"/>
<path d="M182.383 49.7837C181.388 49.7837 180.434 49.7837 179.492 49.7837C179.294 49.7837 179.227 49.7139 179.174 49.5187C179.028 48.9747 178.843 48.4447 178.697 47.9008C178.644 47.6776 178.551 47.594 178.326 47.594C177.279 47.6079 176.218 47.6079 175.171 47.594C174.919 47.594 174.839 47.6916 174.773 47.9287C174.64 48.4587 174.468 48.9747 174.322 49.5047C174.269 49.7139 174.176 49.7837 173.964 49.7697C173.129 49.7697 172.281 49.7558 171.445 49.7697C171.18 49.7697 171.114 49.7418 171.22 49.435C172.069 46.9105 172.89 44.3861 173.726 41.8616C174.216 40.3693 174.72 38.8769 175.197 37.3706C175.303 37.0498 175.436 36.9522 175.754 36.9661C176.443 36.994 177.146 36.994 177.849 36.9661C178.114 36.9661 178.207 37.0638 178.286 37.3009C179.466 40.8993 180.659 44.4837 181.839 48.0821C182.025 48.626 182.197 49.17 182.396 49.7697L182.383 49.7837ZM176.748 41.3037C176.377 42.5311 176.046 43.6608 175.701 44.7905C175.648 44.9579 175.661 45.0416 175.86 45.0416C176.443 45.0416 177.013 45.0416 177.597 45.0416C177.769 45.0416 177.835 44.9858 177.782 44.8045C177.451 43.6748 177.119 42.545 176.748 41.3037Z" fill="black"/>
<path d="M136.904 49.7841C137.315 48.5567 137.713 47.3572 138.097 46.1578C139.078 43.2009 140.046 40.2581 141.014 37.3013C141.093 37.0781 141.173 36.9805 141.411 36.9805C142.154 36.9944 142.883 36.9944 143.625 36.9805C143.851 36.9805 143.97 37.0363 144.049 37.2873C145.375 41.332 146.714 45.3767 148.053 49.4214C148.146 49.7143 148.133 49.798 147.814 49.7841C146.993 49.7701 146.157 49.7841 145.335 49.7841C145.123 49.7841 145.017 49.7422 144.951 49.4912C144.818 48.9472 144.633 48.4172 144.487 47.8733C144.434 47.678 144.341 47.5943 144.129 47.5943C143.068 47.5943 141.995 47.6083 140.934 47.5943C140.695 47.5943 140.616 47.7059 140.563 47.9012C140.417 48.4451 140.245 48.9751 140.099 49.5191C140.059 49.6585 140.033 49.7701 139.847 49.7701C138.879 49.7701 137.911 49.7701 136.891 49.7701L136.904 49.7841ZM143.638 45.042L142.578 41.4296C142.167 42.5733 141.822 43.717 141.478 44.8746C141.425 45.0699 141.531 45.042 141.637 45.042C142.286 45.042 142.949 45.042 143.638 45.042Z" fill="black"/>
<path d="M162.654 43.367C162.654 41.3586 162.654 39.3502 162.654 37.3558C162.654 37.1187 162.654 36.9792 162.959 36.9931C164.523 37.021 166.087 36.9931 167.652 37.021C168.447 37.035 169.216 37.1884 169.932 37.5789C171.271 38.2902 171.921 39.6571 171.828 41.4423C171.695 44.176 169.905 45.3615 167.599 45.4591C167.055 45.487 166.525 45.4731 165.981 45.4591C165.69 45.4591 165.584 45.5149 165.584 45.8636C165.61 47.0491 165.584 48.2486 165.597 49.4341C165.597 49.727 165.517 49.8107 165.252 49.7967C164.523 49.7828 163.807 49.7688 163.078 49.7967C162.747 49.7967 162.641 49.7409 162.641 49.3504C162.667 47.356 162.641 45.3615 162.641 43.381L162.654 43.367ZM165.597 41.2192C165.597 41.6934 165.597 42.1536 165.597 42.6278C165.597 42.7534 165.584 42.8928 165.769 42.8789C166.445 42.851 167.135 42.9486 167.811 42.7813C168.527 42.586 168.885 42.0839 168.911 41.275C168.938 40.4381 168.62 39.9779 167.89 39.7268C167.201 39.4897 166.485 39.5873 165.783 39.5594C165.597 39.5594 165.623 39.685 165.623 39.8105C165.623 40.2847 165.623 40.745 165.623 41.2192H165.597Z" fill="black"/>
<path d="M107.652 40.5654C107.109 39.5333 106.207 39.338 105.213 39.4078C104.643 39.4496 104.259 39.7564 104.153 40.2306C104.033 40.7327 104.219 41.1512 104.709 41.4859C105.2 41.8067 105.757 41.974 106.313 42.1554C106.883 42.3367 107.44 42.5319 107.971 42.8109C109.548 43.6198 110.092 44.8751 109.88 46.7301C109.681 48.4177 108.739 49.4498 107.162 49.7985C105.664 50.1332 104.179 50.0495 102.747 49.4637C102.031 49.1708 101.461 48.6827 100.958 48.083C100.825 47.9295 100.838 47.8598 100.997 47.7343C101.594 47.3019 102.19 46.8695 102.774 46.4232C102.946 46.2977 103.039 46.3117 103.185 46.479C104.02 47.4135 105.067 47.553 106.194 47.3019C106.605 47.2043 106.91 46.9253 106.976 46.4651C107.043 46.0048 106.857 45.6561 106.499 45.4051C105.995 45.0424 105.412 44.8611 104.842 44.6519C104.126 44.4009 103.41 44.1219 102.761 43.6756C101.382 42.7411 100.984 41.3604 101.236 39.7564C101.475 38.2641 102.389 37.3993 103.742 37.0507C105.319 36.6462 106.87 36.7299 108.342 37.5109C108.872 37.7899 109.323 38.2083 109.681 38.7104C109.787 38.8499 109.827 38.9475 109.654 39.073C108.991 39.5612 108.328 40.0633 107.652 40.5793V40.5654Z" fill="black"/>
<path d="M209.918 49.9619C208.579 49.948 207.28 49.7388 206.153 48.874C205.848 48.6369 205.583 48.344 205.318 48.0512C205.198 47.9256 205.185 47.8559 205.344 47.7443C205.967 47.298 206.577 46.8517 207.187 46.3914C207.386 46.238 207.452 46.3635 207.558 46.4891C208.393 47.3956 209.414 47.563 210.541 47.3119C210.965 47.2143 211.283 46.9493 211.35 46.4612C211.416 45.987 211.217 45.6383 210.833 45.3872C210.263 45.0106 209.613 44.8014 208.99 44.5783C208.367 44.3551 207.757 44.1041 207.2 43.7414C205.822 42.8349 205.397 41.4959 205.609 39.892C205.808 38.3857 206.697 37.4652 208.062 37.1026C209.812 36.6423 211.522 36.7399 213.1 37.772C213.484 38.0231 213.789 38.3578 214.067 38.7344C214.173 38.8878 214.187 38.9715 214.028 39.097C213.418 39.5294 212.821 39.9896 212.225 40.4499C212.092 40.5615 211.999 40.5894 211.893 40.3941C211.35 39.4596 210.21 39.2923 209.255 39.5154C208.871 39.6131 208.592 39.8502 208.513 40.2686C208.433 40.7149 208.552 41.0915 208.897 41.3704C209.348 41.747 209.891 41.9144 210.435 42.0957C211.085 42.3049 211.734 42.5141 212.344 42.8349C213.855 43.6438 214.478 44.8991 214.253 46.768C214.067 48.344 213.086 49.4459 211.549 49.8225C211.005 49.9619 210.462 50.0177 209.905 49.9898L209.918 49.9619Z" fill="black"/>
<path d="M113.934 44.6353C113.934 43.0732 113.934 41.5111 113.934 39.949C113.934 39.6561 113.881 39.5445 113.576 39.5585C112.741 39.5864 111.892 39.5585 111.057 39.5724C110.845 39.5724 110.766 39.5166 110.766 39.2795C110.779 38.5961 110.766 37.9267 110.766 37.2432C110.766 37.048 110.819 36.9922 111.004 36.9922C113.921 36.9922 116.837 36.9922 119.767 36.9922C119.993 36.9922 120.019 37.0759 120.019 37.2851C120.019 37.9545 120.006 38.6101 120.019 39.2795C120.019 39.5585 119.926 39.5864 119.701 39.5864C118.879 39.5864 118.044 39.5864 117.222 39.5864C116.93 39.5864 116.851 39.6561 116.851 39.9769C116.851 43.115 116.851 46.2532 116.864 49.3913C116.864 49.74 116.784 49.8237 116.453 49.8237C115.737 49.7958 115.008 49.7958 114.279 49.8237C113.987 49.8237 113.908 49.7679 113.908 49.4471C113.921 47.8571 113.908 46.2671 113.908 44.6771L113.934 44.6353Z" fill="black"/>
<path d="M149.211 43.3661C149.211 41.3577 149.211 39.3493 149.211 37.3548C149.211 37.0619 149.29 36.9922 149.556 36.9922C150.285 37.0061 151.001 37.0201 151.73 36.9922C152.048 36.9922 152.141 37.0619 152.141 37.4106C152.127 40.5348 152.141 43.659 152.127 46.7832C152.127 47.1318 152.207 47.2155 152.538 47.2155C153.851 47.1876 155.163 47.2155 156.489 47.2016C156.86 47.2016 156.913 47.3132 156.9 47.6618C156.874 48.2476 156.874 48.8195 156.9 49.4053C156.9 49.6981 156.847 49.7958 156.542 49.7958C154.209 49.7818 151.889 49.7818 149.556 49.7958C149.277 49.7958 149.211 49.7121 149.211 49.4331C149.211 47.4108 149.211 45.3884 149.211 43.38V43.3661Z" fill="black"/>
<path d="M63.8728 43.4074C63.8728 45.4019 63.8728 47.3963 63.8728 49.3908C63.8728 49.7255 63.7799 49.8092 63.475 49.7953C62.7194 49.7674 61.977 49.7813 61.2213 49.7953C60.996 49.7953 60.9297 49.7395 60.9297 49.5024C60.9297 45.4298 60.9297 41.3711 60.9297 37.2985C60.9297 37.0614 60.996 36.9917 61.2213 37.0056C61.9903 37.0056 62.7459 37.0335 63.5148 37.0056C63.833 37.0056 63.8728 37.1311 63.8728 37.4101C63.8728 39.4185 63.8728 41.4269 63.8728 43.4353V43.4074Z" fill="black"/>
<path d="M132.75 43.3382C132.75 41.3437 132.75 39.3493 132.75 37.3548C132.75 37.034 132.83 36.9643 133.121 36.9782C133.89 37.0061 134.646 36.9922 135.415 36.9782C135.64 36.9782 135.706 37.034 135.706 37.2711C135.706 41.3437 135.706 45.4024 135.706 49.475C135.706 49.7121 135.64 49.7818 135.415 49.7679C134.646 49.7679 133.89 49.7539 133.121 49.7679C132.83 49.7679 132.75 49.6981 132.75 49.3913C132.763 47.3689 132.75 45.3466 132.75 43.3242V43.3382Z" fill="black"/>
</svg>
