<svg width="91" height="87" viewBox="0 0 91 87" fill="none" xmlns="http://www.w3.org/2000/svg">
<g clip-path="url(#clip0_2342_2477)">
<path d="M24.7601 0H0.0078125L8.42872 8.10363H16.5944V16.2073L24.7601 24.6907V0Z" fill="white" fill-opacity="0.12"/>
<path d="M57.8773 0H33.125L41.546 8.10363H49.7118V16.2073L57.8773 24.6907V0Z" fill="white" fill-opacity="0.12"/>
<path d="M90.9945 0H66.2422L74.6632 8.10363H82.8287V16.2073L90.9945 24.6907V0Z" fill="white" fill-opacity="0.12"/>
<path d="M24.7601 31.1523H0.0078125L8.42872 39.2559H16.5944V47.3597L24.7601 55.8431V31.1523Z" fill="white" fill-opacity="0.12"/>
<path d="M57.8773 31.1523H33.125L41.546 39.2559H49.7118V47.3597L57.8773 55.8431V31.1523Z" fill="white" fill-opacity="0.12"/>
<path d="M90.9945 31.1523H66.2422L74.6632 39.2559H82.8287V47.3597L90.9945 55.8431V31.1523Z" fill="white" fill-opacity="0.12"/>
<path d="M24.7601 62.3047H0.0078125L8.42872 70.4082H16.5944V78.512L24.7601 86.9954V62.3047Z" fill="white" fill-opacity="0.12"/>
<path d="M57.8773 62.3047H33.125L41.546 70.4082H49.7118V78.512L57.8773 86.9954V62.3047Z" fill="white" fill-opacity="0.12"/>
<path d="M90.9945 62.3047H66.2422L74.6632 70.4082H82.8287V78.512L90.9945 86.9954V62.3047Z" fill="white" fill-opacity="0.12"/>
</g>
<defs>
<clipPath id="clip0_2342_2477">
<rect width="91" height="87" fill="white"/>
</clipPath>
</defs>
</svg>
