<svg width="110" height="64" viewBox="0 0 110 64" fill="none" xmlns="http://www.w3.org/2000/svg">
<g clip-path="url(#clip0_9951_7040)">
<path d="M10.994 23.1304L18.6035 18.4244L26.9386 25.0759C27.6614 25.652 28.6869 25.6482 29.4049 25.0664L41.9052 14.9353L43.0774 16.3818C43.4888 16.8893 44.2954 16.7608 44.5287 16.1513L47.2693 9.00277C47.5026 8.39237 46.9883 7.75817 46.3437 7.86101L38.7828 9.06085C38.1371 9.16274 37.8448 9.9255 38.2562 10.4331L39.4274 11.8786L28.1565 21.0126L19.9738 14.4839C19.3244 13.9659 18.4188 13.9116 17.7122 14.3487L0.959158 24.7093C0.0345176 25.2816 -0.251159 26.4938 0.320194 27.4184C0.692526 28.0203 1.3372 28.3516 1.99616 28.3516C2.34945 28.3516 2.70655 28.2564 3.02936 28.0564L8.16297 24.8816" stroke="#22B148" stroke-miterlimit="10" stroke-linecap="round" stroke-linejoin="round"/>
<path d="M9.54307 40.5819H4.59468C4.20911 40.5819 3.89648 40.8944 3.89648 41.2801V51.2958H10.2413V41.28C10.2413 40.8944 9.92864 40.5819 9.54307 40.5819Z" stroke="white" stroke-miterlimit="10" stroke-linecap="round" stroke-linejoin="round"/>
<path d="M20.1364 27.3274H15.1879C14.8024 27.3274 14.4897 27.6399 14.4897 28.0256V51.2959H20.8345V28.0256C20.8345 27.64 20.522 27.3274 20.1364 27.3274Z" stroke="white" stroke-miterlimit="10" stroke-linecap="round" stroke-linejoin="round"/>
<path d="M31.5852 34.1453H26.6367C26.2511 34.1453 25.9385 34.4579 25.9385 34.8435V51.2958H32.2833V34.8435C32.2834 34.458 31.9707 34.1453 31.5852 34.1453Z" stroke="white" stroke-miterlimit="10" stroke-linecap="round" stroke-linejoin="round"/>
<path d="M37.1133 32.716V51.2955H43.4582V25.736C43.4582 25.3503 43.1449 25.038 42.7592 25.038H37.8113C37.4256 25.038 37.1133 25.3503 37.1133 25.736V29.3831" stroke="white" stroke-miterlimit="10" stroke-linecap="round" stroke-linejoin="round"/>
<path d="M23.65 55.15H46.8386C47.0938 55.15 47.3004 54.9434 47.3004 54.6882V51.7571C47.3004 51.5029 47.0938 51.2953 46.8386 51.2953H0.461844C0.20664 51.2953 0 51.5029 0 51.7571V54.6882C0 54.9434 0.20664 55.15 0.461844 55.15H20.3171" stroke="#F47922" stroke-miterlimit="10" stroke-linecap="round" stroke-linejoin="round"/>
</g>
<defs>
<clipPath id="clip0_9951_7040">
<rect width="110" height="64" fill="white"/>
</clipPath>
</defs>
</svg>
