<svg width="110" height="64" viewBox="0 0 110 64" fill="none" xmlns="http://www.w3.org/2000/svg">
<g clip-path="url(#clip0_9951_6940)">
<path d="M6.51722 48.6869H3.47914C2.53498 48.6869 1.76953 49.4523 1.76953 50.3965V53.4275C1.76953 53.7422 2.02472 53.9974 2.3394 53.9974H54.3044C54.619 53.9974 54.8742 53.7422 54.8742 53.4275V50.3965C54.8742 49.4523 54.1088 48.6869 53.1646 48.6869H10.6203" stroke="white" stroke-miterlimit="10" stroke-linecap="round" stroke-linejoin="round"/>
<path d="M53.104 41.6617V48.6869" stroke="white" stroke-miterlimit="10" stroke-linecap="round" stroke-linejoin="round"/>
<path d="M53.104 19.7891V37.5587" stroke="white" stroke-miterlimit="10" stroke-linecap="round" stroke-linejoin="round"/>
<path d="M3.53955 48.6869V19.7891" stroke="white" stroke-miterlimit="10" stroke-linecap="round" stroke-linejoin="round"/>
<path d="M13.6065 13.3766L28.0267 9.51252C28.2208 9.46055 28.4253 9.46055 28.6194 9.51252L56.2205 16.9088C56.5258 16.9907 56.7071 17.3044 56.6253 17.6098L56.0019 19.9396C55.9202 20.2451 55.6062 20.4264 55.3007 20.3446L28.4712 13.1559C28.3741 13.1299 28.272 13.1299 28.1749 13.1559L1.34421 20.3446C1.03876 20.4264 0.72476 20.2451 0.643041 19.9396L0.0196042 17.6098C-0.062115 17.3044 0.119103 16.9907 0.424439 16.9088L9.70874 14.421" stroke="white" stroke-miterlimit="10" stroke-linecap="round" stroke-linejoin="round"/>
<path d="M23.3801 22.6082C23.4356 22.5804 23.4956 22.5666 23.5603 22.5666H24.6552C24.7476 22.5666 24.7938 22.6128 24.7938 22.7052V32.13C24.7938 32.2224 24.7476 32.2686 24.6552 32.2686H23.6019C23.5095 32.2686 23.4633 32.2224 23.4633 32.13V23.9942C23.4633 23.9757 23.454 23.9618 23.4356 23.9526C23.4263 23.9433 23.4125 23.9433 23.394 23.9526L21.9387 24.4515C21.9202 24.4608 21.8971 24.4654 21.8694 24.4654C21.8139 24.4654 21.7816 24.4284 21.7724 24.3545L21.7169 23.5645C21.7169 23.4721 21.7446 23.4167 21.8001 23.3982L23.3801 22.6082ZM32.189 28.1244C32.3831 28.5125 32.4801 28.9745 32.4801 29.5104C32.4801 30.1018 32.3507 30.6192 32.092 31.0628C31.8702 31.4786 31.5376 31.802 31.0941 32.033C30.6598 32.264 30.147 32.3795 29.5556 32.3795C28.9643 32.3795 28.4422 32.264 27.9894 32.033C27.5367 31.7927 27.1948 31.4508 26.9638 31.0073C26.7143 30.573 26.5896 30.0695 26.5896 29.4966C26.5896 28.9884 26.6912 28.5218 26.8945 28.0967C27.0978 27.6717 27.3981 27.3529 27.7954 27.1404C27.8416 27.1219 27.8416 27.0988 27.7954 27.0711C27.4997 26.8493 27.278 26.6183 27.1301 26.3781C26.8714 25.99 26.742 25.5465 26.742 25.0475C26.742 24.5024 26.8991 24.0034 27.2133 23.5506C27.4443 23.1995 27.7631 22.9223 28.1696 22.719C28.5854 22.5158 29.0474 22.4141 29.5556 22.4141C30.0731 22.4141 30.5304 22.5158 30.9278 22.719C31.3251 22.9223 31.6392 23.1995 31.8702 23.5506C32.1752 24.0034 32.3276 24.5024 32.3276 25.0475C32.3276 25.5465 32.1983 25.9992 31.9395 26.4058C31.7732 26.6645 31.5561 26.8863 31.2881 27.0711C31.2419 27.0988 31.2419 27.1219 31.2881 27.1404C31.6762 27.3529 31.9765 27.6809 32.189 28.1244ZM28.2528 24.3407C28.1234 24.5809 28.0587 24.8165 28.0587 25.0475C28.0587 25.4171 28.1465 25.7267 28.3221 25.9761C28.5716 26.3919 28.9781 26.5998 29.5418 26.5998C30.0962 26.5998 30.5073 26.3873 30.7753 25.9623C30.9324 25.7405 31.0109 25.431 31.0109 25.0337C31.0109 24.7749 30.9509 24.5393 30.8307 24.3268C30.7106 24.0958 30.5397 23.911 30.3179 23.7724C30.0962 23.6338 29.8328 23.5645 29.5279 23.5645C29.2415 23.5645 28.9874 23.6338 28.7656 23.7724C28.5438 23.911 28.3729 24.1004 28.2528 24.3407ZM30.8169 30.5915C31.0294 30.2958 31.1357 29.8985 31.1357 29.3996C31.1357 28.956 31.0571 28.5911 30.9 28.3046C30.6413 27.8241 30.1886 27.5839 29.5418 27.5839C28.9134 27.5839 28.4699 27.8103 28.2112 28.263C28.0356 28.5587 27.9479 28.9422 27.9479 29.4134C27.9479 29.8754 28.0449 30.2543 28.2389 30.5499C28.5069 30.9935 28.9458 31.2152 29.5556 31.2152C30.1285 31.2152 30.5489 31.0073 30.8169 30.5915Z" fill="#F47922"/>
<path d="M7.88478 40.3785C7.83858 40.3785 7.81548 40.3554 7.81548 40.3092V35.5968C7.81548 35.5506 7.83858 35.5275 7.88478 35.5275H8.23821C8.28441 35.5275 8.30751 35.5506 8.30751 35.5968V40.3092C8.30751 40.3554 8.28441 40.3785 8.23821 40.3785H7.88478ZM11.085 40.4339C10.7616 40.4339 10.4775 40.3716 10.2326 40.2468C9.98773 40.1175 9.796 39.9373 9.6574 39.7063C9.52342 39.4753 9.45643 39.2096 9.45643 38.9093V36.9967C9.45643 36.6964 9.52342 36.4307 9.6574 36.1997C9.796 35.9687 9.98773 35.7908 10.2326 35.6661C10.4775 35.5367 10.7616 35.4721 11.085 35.4721C11.4038 35.4721 11.6856 35.5344 11.9304 35.6592C12.1799 35.7839 12.3717 35.9595 12.5056 36.1859C12.6396 36.4076 12.7066 36.6594 12.7066 36.9412V37.0313C12.7066 37.0775 12.6835 37.1006 12.6373 37.1006H12.2839C12.2377 37.1006 12.2146 37.0775 12.2146 37.0313V36.9482C12.2146 36.6386 12.1106 36.3868 11.9027 36.1928C11.6994 35.9987 11.4269 35.9017 11.085 35.9017C10.7431 35.9017 10.4682 36.0011 10.2603 36.1997C10.0524 36.3984 9.94846 36.6594 9.94846 36.9828V38.9232C9.94846 39.2466 10.0547 39.5076 10.2672 39.7063C10.4798 39.905 10.7593 40.0043 11.1058 40.0043C11.443 40.0043 11.711 39.9119 11.9097 39.7271C12.1129 39.5423 12.2146 39.2951 12.2146 38.9856V38.3549C12.2146 38.3365 12.2053 38.3272 12.1869 38.3272H11.1681C11.1219 38.3272 11.0988 38.3041 11.0988 38.2579V37.9669C11.0988 37.9207 11.1219 37.8976 11.1681 37.8976H12.6373C12.6835 37.8976 12.7066 37.9207 12.7066 37.9669V38.8608C12.7066 39.3552 12.5588 39.7409 12.2631 40.0181C11.972 40.2953 11.5793 40.4339 11.085 40.4339ZM16.2914 37.8491C16.2683 37.8629 16.2683 37.8768 16.2914 37.8906C16.5408 37.9923 16.7303 38.1424 16.8596 38.3411C16.989 38.5397 17.0537 38.78 17.0537 39.0618C17.0537 39.4776 16.9197 39.801 16.6517 40.032C16.3884 40.263 16.0396 40.3785 15.6053 40.3785H13.9282C13.882 40.3785 13.8589 40.3554 13.8589 40.3092V35.5968C13.8589 35.5506 13.882 35.5275 13.9282 35.5275H15.5568C16.0049 35.5275 16.356 35.6384 16.6101 35.8601C16.8689 36.0819 16.9982 36.3938 16.9982 36.7957C16.9982 37.0498 16.9359 37.2669 16.8111 37.4471C16.691 37.6227 16.5177 37.7567 16.2914 37.8491ZM14.3787 35.9572C14.3602 35.9572 14.351 35.9664 14.351 35.9849V37.6481C14.351 37.6666 14.3602 37.6758 14.3787 37.6758H15.5568C15.8478 37.6758 16.0788 37.5996 16.2498 37.4471C16.4253 37.2947 16.5131 37.0914 16.5131 36.8373C16.5131 36.5693 16.4253 36.3568 16.2498 36.1997C16.0788 36.038 15.8478 35.9572 15.5568 35.9572H14.3787ZM15.6053 39.9419C15.8964 39.9419 16.1274 39.8588 16.2983 39.6924C16.4739 39.5261 16.5616 39.302 16.5616 39.0202C16.5616 38.7384 16.4715 38.5143 16.2914 38.348C16.1158 38.1771 15.8779 38.0916 15.5776 38.0916H14.3787C14.3602 38.0916 14.351 38.1008 14.351 38.1193V39.9142C14.351 39.9327 14.3602 39.9419 14.3787 39.9419H15.6053ZM19.6663 40.4409C19.3429 40.4409 19.0587 40.3785 18.8139 40.2538C18.569 40.1244 18.3773 39.9442 18.2387 39.7132C18.1047 39.4776 18.0377 39.2073 18.0377 38.9024V36.9967C18.0377 36.6964 18.1047 36.4307 18.2387 36.1997C18.3773 35.9687 18.569 35.7908 18.8139 35.6661C19.0587 35.5367 19.3429 35.4721 19.6663 35.4721C19.9897 35.4721 20.2738 35.5344 20.5187 35.6592C20.7635 35.7839 20.9529 35.9595 21.0869 36.1859C21.2255 36.4122 21.2948 36.6733 21.2948 36.9689C21.2948 36.992 21.2879 37.0105 21.274 37.0244C21.2602 37.0382 21.244 37.0452 21.2255 37.0452L20.8721 37.066C20.8259 37.066 20.8028 37.0452 20.8028 37.0036V36.9828C20.8028 36.6548 20.6988 36.3938 20.4909 36.1997C20.283 36.0011 20.0082 35.9017 19.6663 35.9017C19.3244 35.9017 19.0495 36.0011 18.8416 36.1997C18.6337 36.3984 18.5298 36.6594 18.5298 36.9828V38.9232C18.5298 39.2466 18.6337 39.5076 18.8416 39.7063C19.0495 39.905 19.3244 40.0043 19.6663 40.0043C20.0082 40.0043 20.283 39.9073 20.4909 39.7132C20.6988 39.5146 20.8028 39.2512 20.8028 38.9232V38.9093C20.8028 38.8678 20.8259 38.847 20.8721 38.847L21.2255 38.8678C21.2717 38.8678 21.2948 38.8886 21.2948 38.9301C21.2948 39.2304 21.2255 39.4961 21.0869 39.7271C20.9529 39.9535 20.7635 40.129 20.5187 40.2538C20.2738 40.3785 19.9897 40.4409 19.6663 40.4409ZM25.2631 40.4409C24.9397 40.4409 24.6555 40.3785 24.4107 40.2538C24.1658 40.1244 23.9741 39.9442 23.8355 39.7132C23.7015 39.4776 23.6345 39.2073 23.6345 38.9024V36.9967C23.6345 36.6964 23.7015 36.4307 23.8355 36.1997C23.9741 35.9687 24.1658 35.7908 24.4107 35.6661C24.6555 35.5367 24.9397 35.4721 25.2631 35.4721C25.5865 35.4721 25.8706 35.5344 26.1154 35.6592C26.3603 35.7839 26.5497 35.9595 26.6837 36.1859C26.8223 36.4122 26.8916 36.6733 26.8916 36.9689C26.8916 36.992 26.8847 37.0105 26.8708 37.0244C26.857 37.0382 26.8408 37.0452 26.8223 37.0452L26.4689 37.066C26.4227 37.066 26.3996 37.0452 26.3996 37.0036V36.9828C26.3996 36.6548 26.2956 36.3938 26.0877 36.1997C25.8798 36.0011 25.6049 35.9017 25.2631 35.9017C24.9212 35.9017 24.6463 36.0011 24.4384 36.1997C24.2305 36.3984 24.1265 36.6594 24.1265 36.9828V38.9232C24.1265 39.2466 24.2305 39.5076 24.4384 39.7063C24.6463 39.905 24.9212 40.0043 25.2631 40.0043C25.6049 40.0043 25.8798 39.9073 26.0877 39.7132C26.2956 39.5146 26.3996 39.2512 26.3996 38.9232V38.9093C26.3996 38.8678 26.4227 38.847 26.4689 38.847L26.8223 38.8678C26.8685 38.8678 26.8916 38.8886 26.8916 38.9301C26.8916 39.2304 26.8223 39.4961 26.6837 39.7271C26.5497 39.9535 26.3603 40.129 26.1154 40.2538C25.8706 40.3785 25.5865 40.4409 25.2631 40.4409ZM30.5815 38.0362C30.5999 38.1655 30.6092 38.3272 30.6092 38.5213V38.743C30.6092 38.7892 30.5861 38.8123 30.5399 38.8123H28.3015C28.283 38.8123 28.2738 38.8216 28.2738 38.84C28.283 39.0941 28.2969 39.2582 28.3153 39.3321C28.3662 39.54 28.4747 39.704 28.6411 39.8241C28.8074 39.9442 29.0199 40.0043 29.2786 40.0043C29.4727 40.0043 29.6436 39.9604 29.7914 39.8726C29.9393 39.7848 30.0548 39.6601 30.1379 39.4984C30.1657 39.4568 30.198 39.4476 30.235 39.4707L30.5052 39.6301C30.5422 39.6532 30.5514 39.6855 30.5329 39.7271C30.4174 39.9488 30.2442 40.1244 30.0132 40.2538C29.7822 40.3785 29.5165 40.4409 29.2162 40.4409C28.8882 40.4363 28.6133 40.3577 28.3916 40.2053C28.1698 40.0528 28.0104 39.8403 27.9134 39.5677C27.8302 39.3459 27.7887 39.0272 27.7887 38.6114C27.7887 38.4173 27.791 38.2602 27.7956 38.1401C27.8048 38.0154 27.8233 37.9045 27.851 37.8075C27.9296 37.5072 28.0867 37.2669 28.3223 37.0868C28.5625 36.9066 28.8513 36.8165 29.1885 36.8165C29.6089 36.8165 29.9323 36.9227 30.1587 37.1353C30.3851 37.3478 30.526 37.6481 30.5815 38.0362ZM29.1885 37.2461C28.9621 37.2461 28.7727 37.3062 28.6203 37.4263C28.4724 37.5418 28.3754 37.6989 28.3292 37.8976C28.3015 37.9946 28.283 38.1517 28.2738 38.3688C28.2738 38.3873 28.283 38.3965 28.3015 38.3965H30.0964C30.1148 38.3965 30.1241 38.3873 30.1241 38.3688C30.1148 38.1609 30.101 38.0131 30.0825 37.9253C30.0317 37.7174 29.9277 37.5534 29.7706 37.4333C29.6182 37.3085 29.4241 37.2461 29.1885 37.2461ZM33.0014 36.8373C33.1539 36.8373 33.2856 36.8673 33.3964 36.9274C33.4334 36.9458 33.4473 36.9759 33.438 37.0175L33.3618 37.357C33.3479 37.4032 33.3179 37.4171 33.2717 37.3986C33.1932 37.3663 33.1031 37.3501 33.0014 37.3501L32.9113 37.357C32.6711 37.3663 32.4724 37.4564 32.3154 37.6273C32.1583 37.7936 32.0797 38.0061 32.0797 38.2649V40.3092C32.0797 40.3554 32.0566 40.3785 32.0104 40.3785H31.657C31.6108 40.3785 31.5877 40.3554 31.5877 40.3092V36.9412C31.5877 36.895 31.6108 36.8719 31.657 36.8719H32.0104C32.0566 36.8719 32.0797 36.895 32.0797 36.9412V37.364C32.0797 37.3778 32.0821 37.3871 32.0867 37.3917C32.0959 37.3917 32.1028 37.3871 32.1075 37.3778C32.2045 37.2069 32.3269 37.0752 32.4748 36.9828C32.6272 36.8858 32.8028 36.8373 33.0014 36.8373ZM35.7799 37.2115C35.7799 37.2577 35.7568 37.2808 35.7106 37.2808H34.9275C34.909 37.2808 34.8998 37.29 34.8998 37.3085V39.3529C34.8998 39.5746 34.9483 39.7317 35.0453 39.8241C35.1469 39.9119 35.304 39.9558 35.5165 39.9558H35.6898C35.736 39.9558 35.7591 39.9789 35.7591 40.0251V40.3092C35.7591 40.3554 35.736 40.3785 35.6898 40.3785C35.6343 40.3831 35.5489 40.3854 35.4334 40.3854C35.1007 40.3854 34.8489 40.3231 34.678 40.1983C34.5071 40.0736 34.4216 39.8426 34.4216 39.5053V37.3085C34.4216 37.29 34.4124 37.2808 34.3939 37.2808H33.9711C33.9249 37.2808 33.9018 37.2577 33.9018 37.2115V36.9412C33.9018 36.895 33.9249 36.8719 33.9711 36.8719H34.3939C34.4124 36.8719 34.4216 36.8627 34.4216 36.8442V36.0403C34.4216 35.9941 34.4447 35.971 34.4909 35.971H34.8305C34.8767 35.971 34.8998 35.9941 34.8998 36.0403V36.8442C34.8998 36.8627 34.909 36.8719 34.9275 36.8719H35.7106C35.7568 36.8719 35.7799 36.895 35.7799 36.9412V37.2115ZM37.0637 36.2344C36.9528 36.2344 36.8604 36.1974 36.7865 36.1235C36.7126 36.0496 36.6756 35.9572 36.6756 35.8463C36.6756 35.7308 36.7126 35.6384 36.7865 35.5691C36.8604 35.4952 36.9528 35.4582 37.0637 35.4582C37.1746 35.4582 37.267 35.4952 37.3409 35.5691C37.4148 35.6384 37.4518 35.7308 37.4518 35.8463C37.4518 35.9572 37.4148 36.0496 37.3409 36.1235C37.267 36.1974 37.1746 36.2344 37.0637 36.2344ZM36.8697 40.3716C36.8235 40.3716 36.8004 40.3485 36.8004 40.3023V36.9343C36.8004 36.8881 36.8235 36.865 36.8697 36.865H37.2231C37.2693 36.865 37.2924 36.8881 37.2924 36.9343V40.3023C37.2924 40.3485 37.2693 40.3716 37.2231 40.3716H36.8697ZM39.8834 35.9572C39.6293 35.9572 39.4561 36.0149 39.3637 36.1304C39.2713 36.2413 39.2251 36.433 39.2251 36.7056V36.8442C39.2251 36.8627 39.2343 36.8719 39.2528 36.8719H40.0289C40.0751 36.8719 40.0982 36.895 40.0982 36.9412V37.2531C40.0982 37.2993 40.0751 37.3224 40.0289 37.3224H39.2528C39.2343 37.3224 39.2251 37.3316 39.2251 37.3501V40.3092C39.2251 40.3554 39.202 40.3785 39.1558 40.3785H38.8093C38.7631 40.3785 38.74 40.3554 38.74 40.3092V37.3501C38.74 37.3316 38.7307 37.3224 38.7122 37.3224H38.2479C38.2017 37.3224 38.1786 37.2993 38.1786 37.2531V36.9412C38.1786 36.895 38.2017 36.8719 38.2479 36.8719H38.7122C38.7307 36.8719 38.74 36.8627 38.74 36.8442V36.6779C38.74 36.3914 38.7723 36.1674 38.837 36.0057C38.9017 35.8394 39.0125 35.7192 39.1696 35.6453C39.3313 35.5668 39.5554 35.5275 39.8418 35.5275H40.0428C40.089 35.5275 40.1121 35.5506 40.1121 35.5968V35.8879C40.1121 35.9341 40.089 35.9572 40.0428 35.9572H39.8834ZM41.2971 36.2344C41.1862 36.2344 41.0938 36.1974 41.0199 36.1235C40.946 36.0496 40.909 35.9572 40.909 35.8463C40.909 35.7308 40.946 35.6384 41.0199 35.5691C41.0938 35.4952 41.1862 35.4582 41.2971 35.4582C41.408 35.4582 41.5004 35.4952 41.5743 35.5691C41.6482 35.6384 41.6852 35.7308 41.6852 35.8463C41.6852 35.9572 41.6482 36.0496 41.5743 36.1235C41.5004 36.1974 41.408 36.2344 41.2971 36.2344ZM41.1031 40.3716C41.0569 40.3716 41.0338 40.3485 41.0338 40.3023V36.9343C41.0338 36.8881 41.0569 36.865 41.1031 36.865H41.4565C41.5027 36.865 41.5258 36.8881 41.5258 36.9343V40.3023C41.5258 40.3485 41.5027 40.3716 41.4565 40.3716H41.1031ZM45.4295 38.0362C45.448 38.1655 45.4572 38.3272 45.4572 38.5213V38.743C45.4572 38.7892 45.4341 38.8123 45.3879 38.8123H43.1495C43.1311 38.8123 43.1218 38.8216 43.1218 38.84C43.1311 39.0941 43.1449 39.2582 43.1634 39.3321C43.2142 39.54 43.3228 39.704 43.4891 39.8241C43.6554 39.9442 43.868 40.0043 44.1267 40.0043C44.3207 40.0043 44.4917 39.9604 44.6395 39.8726C44.7873 39.7848 44.9028 39.6601 44.986 39.4984C45.0137 39.4568 45.0461 39.4476 45.083 39.4707L45.3533 39.6301C45.3902 39.6532 45.3995 39.6855 45.381 39.7271C45.2655 39.9488 45.0923 40.1244 44.8613 40.2538C44.6303 40.3785 44.3646 40.4409 44.0643 40.4409C43.7363 40.4363 43.4614 40.3577 43.2396 40.2053C43.0179 40.0528 42.8585 39.8403 42.7615 39.5677C42.6783 39.3459 42.6367 39.0272 42.6367 38.6114C42.6367 38.4173 42.639 38.2602 42.6437 38.1401C42.6529 38.0154 42.6714 37.9045 42.6991 37.8075C42.7776 37.5072 42.9347 37.2669 43.1703 37.0868C43.4106 36.9066 43.6993 36.8165 44.0366 36.8165C44.457 36.8165 44.7804 36.9227 45.0068 37.1353C45.2332 37.3478 45.3741 37.6481 45.4295 38.0362ZM44.0366 37.2461C43.8102 37.2461 43.6208 37.3062 43.4683 37.4263C43.3205 37.5418 43.2235 37.6989 43.1773 37.8976C43.1495 37.9946 43.1311 38.1517 43.1218 38.3688C43.1218 38.3873 43.1311 38.3965 43.1495 38.3965H44.9444C44.9629 38.3965 44.9721 38.3873 44.9721 38.3688C44.9629 38.1609 44.949 38.0131 44.9306 37.9253C44.8797 37.7174 44.7758 37.5534 44.6187 37.4333C44.4662 37.3085 44.2722 37.2461 44.0366 37.2461ZM48.6118 35.5968C48.6118 35.5506 48.6349 35.5275 48.6811 35.5275H49.0345C49.0807 35.5275 49.1038 35.5506 49.1038 35.5968V40.3092C49.1038 40.3554 49.0807 40.3785 49.0345 40.3785H48.6811C48.6349 40.3785 48.6118 40.3554 48.6118 40.3092V40.0181C48.6118 40.0089 48.6072 40.0043 48.5979 40.0043C48.5933 39.9997 48.5864 40.002 48.5771 40.0112C48.4755 40.1452 48.3485 40.2491 48.196 40.3231C48.0482 40.397 47.8818 40.4339 47.697 40.4339C47.3736 40.4339 47.1011 40.3508 46.8793 40.1845C46.6622 40.0181 46.512 39.7918 46.4288 39.5053C46.3642 39.2974 46.3318 39.0041 46.3318 38.6252C46.3318 38.2418 46.3595 37.9553 46.415 37.7659C46.4981 37.4702 46.6506 37.2392 46.8724 37.0729C47.0941 36.902 47.369 36.8165 47.697 36.8165C47.8772 36.8165 48.0435 36.8534 48.196 36.9274C48.3485 36.9967 48.4755 37.0983 48.5771 37.2323C48.5864 37.2415 48.5933 37.2461 48.5979 37.2461C48.6072 37.2415 48.6118 37.2346 48.6118 37.2254V35.5968ZM48.4871 39.4707C48.5286 39.3783 48.5587 39.2697 48.5771 39.145C48.5956 39.0202 48.6049 38.847 48.6049 38.6252C48.6049 38.4035 48.5956 38.2302 48.5771 38.1055C48.5587 37.9761 48.5263 37.8629 48.4801 37.7659C48.4247 37.6088 48.3323 37.4841 48.2029 37.3917C48.0782 37.2947 47.928 37.2461 47.7525 37.2461C47.5677 37.2461 47.4083 37.2923 47.2743 37.3847C47.1403 37.4771 47.0433 37.5996 46.9832 37.752C46.9278 37.8537 46.8862 37.9692 46.8585 38.0985C46.8354 38.2233 46.8239 38.3988 46.8239 38.6252C46.8239 38.8424 46.8331 39.0133 46.8516 39.138C46.8701 39.2582 46.9024 39.3667 46.9486 39.4637C47.004 39.6301 47.1011 39.7617 47.2397 39.8588C47.3829 39.9558 47.5515 40.0043 47.7455 40.0043C47.9303 40.0043 48.0851 39.9558 48.2099 39.8588C48.3346 39.7617 48.427 39.6324 48.4871 39.4707Z" fill="#22B148"/>
</g>
<defs>
<clipPath id="clip0_9951_6940">
<rect width="110" height="64" fill="white"/>
</clipPath>
</defs>
</svg>
