<svg width="110" height="110" viewBox="0 0 110 110" fill="none" xmlns="http://www.w3.org/2000/svg">
<rect x="0.54" y="0.54" width="108.92" height="108.92" rx="54.46" fill="white"/>
<rect x="0.54" y="0.54" width="108.92" height="108.92" rx="54.46" stroke="url(#paint0_radial_7582_14454)" stroke-width="1.08"/>
<rect x="0.54" y="0.54" width="108.92" height="108.92" rx="54.46" stroke="black" stroke-width="1.08"/>
<mask id="mask0_7582_14454" style="mask-type:luminance" maskUnits="userSpaceOnUse" x="27" y="28" width="56" height="55">
<path d="M27.5156 28.0009H82.473V82.9583H27.5156V28.0009Z" fill="white"/>
</mask>
<g mask="url(#mask0_7582_14454)">
<path d="M81.3849 59.1301V51.8311C81.3849 51.2382 80.9043 50.7577 80.3115 50.7577H76.2951C75.7384 48.228 74.7437 45.8628 73.3928 43.7464L76.2315 40.9078C76.6507 40.4886 76.6507 39.809 76.2315 39.3898L71.0704 34.2286C70.6511 33.8094 69.9715 33.8094 69.5523 34.2286L66.7137 37.0673C64.5973 35.7164 62.2321 34.7217 59.7024 34.165V30.1486C59.7024 29.5558 59.2219 29.0753 58.6291 29.0753H51.33C50.7372 29.0753 50.2566 29.5558 50.2566 30.1486V34.171C47.7306 34.7303 45.3689 35.7263 43.2559 37.0778L40.4068 34.2286C39.9875 33.8094 39.308 33.8094 38.8887 34.2286L33.7276 39.3898C33.3084 39.809 33.3084 40.4886 33.7276 40.9078L36.583 43.7633C35.2375 45.8753 34.2465 48.2347 33.6913 50.7577H29.6476C29.0548 50.7577 28.5742 51.2382 28.5742 51.8311V59.1301C28.5742 59.7229 29.0548 60.2035 29.6476 60.2035H33.6972C34.255 62.7228 35.2475 65.0787 36.5935 67.1875L33.7276 70.0533C33.3084 70.4726 33.3084 71.1521 33.7276 71.5714L38.8887 76.7326C39.308 77.1517 39.9875 77.1517 40.4068 76.7326L43.2726 73.8666C45.3814 75.2126 47.7373 76.2051 50.2566 76.7629V80.8125C50.2566 81.4053 50.7372 81.8859 51.33 81.8859H58.6291C59.2219 81.8859 59.7024 81.4053 59.7024 80.8125V76.7688C62.2254 76.2136 64.5848 75.2226 66.6968 73.8771L69.5523 76.7326C69.9715 77.1517 70.6511 77.1517 71.0704 76.7326L76.2315 71.5714C76.6507 71.1521 76.6507 70.4726 76.2315 70.0533L73.3823 67.2042C74.7338 65.0913 75.7298 62.7295 76.2892 60.2035H80.3115C80.9043 60.2035 81.3849 59.7229 81.3849 59.1301Z" stroke="black" stroke-width="1.08" stroke-miterlimit="10" stroke-linecap="round" stroke-linejoin="round"/>
<path d="M68.0563 48.9572C70.7868 54.4231 69.873 61.2452 65.3149 65.8032C59.6141 71.5041 50.371 71.5041 44.6702 65.8032C38.9693 60.1024 38.9693 50.8593 44.6702 45.1585C49.3998 40.4288 56.5675 39.623 62.1278 42.7412" stroke="black" stroke-width="1.08" stroke-miterlimit="10" stroke-linecap="round" stroke-linejoin="round"/>
<path d="M59.4472 48.6453L53.4796 54.6129L50.5415 51.6748L46.6914 55.5249L49.6295 58.463L53.4796 62.313L63.2972 52.4954L59.4472 48.6453Z" stroke="black" stroke-width="1.08" stroke-miterlimit="10" stroke-linecap="round" stroke-linejoin="round"/>
</g>
<defs>
<radialGradient id="paint0_radial_7582_14454" cx="0" cy="0" r="1" gradientUnits="userSpaceOnUse" gradientTransform="translate(-53.2931 -29.8633) rotate(42.8493) scale(205.659 297.901)">
<stop offset="0.232052" stop-color="#AC38D9"/>
<stop offset="1" stop-color="#F47922"/>
</radialGradient>
</defs>
</svg>
