<svg width="110" height="110" viewBox="0 0 110 110" fill="none" xmlns="http://www.w3.org/2000/svg">
<rect x="0.9" y="0.9" width="108.2" height="108.2" rx="54.1" fill="white"/>
<rect x="0.9" y="0.9" width="108.2" height="108.2" rx="54.1" stroke="url(#paint0_radial_7582_14416)" stroke-width="1.8"/>
<rect x="0.9" y="0.9" width="108.2" height="108.2" rx="54.1" stroke="black" stroke-width="1.8"/>
<path d="M43.8428 29.9189C46.7503 29.9189 49.5387 31.0739 51.5947 33.1298C53.6507 35.1858 54.8056 37.9742 54.8057 40.8818C54.8057 44.0691 53.7644 47.1217 52.251 50.0312C50.737 52.9416 48.7583 55.6961 46.8936 58.291C46.0034 59.5297 45.1594 60.7032 44.3906 61.8564C44.3311 61.9456 44.2506 62.0192 44.1562 62.0703C44.062 62.1212 43.9568 62.1482 43.8496 62.1494H43.8428C43.7367 62.1493 43.6321 62.1241 43.5381 62.0751C43.4674 62.0382 43.4035 61.9888 43.3506 61.9296L43.3018 61.8671C42.5351 60.7641 41.6978 59.6321 40.8906 58.54C36.9244 53.1747 32.8799 47.6909 32.8799 40.8818C32.8799 37.9742 34.0348 35.1858 36.0908 33.1298C38.1468 31.0739 40.9352 29.9189 43.8428 29.9189ZM43.8428 31.2363C41.2855 31.2392 38.8337 32.2561 37.0254 34.0644C35.2171 35.8727 34.2002 38.3245 34.1973 40.8818L34.209 41.4785C34.4453 47.6141 38.2849 52.7989 41.9502 57.7568C42.5197 58.5276 43.1019 59.315 43.667 60.1015L43.833 60.332L43.9941 60.0986C44.5741 59.2609 45.185 58.4097 45.8232 57.5224C47.6092 55.0366 49.5246 52.3716 50.9922 49.5869C52.46 46.8017 53.4883 43.8815 53.4883 40.8818L53.4766 40.4033C53.3557 38.0203 52.3553 35.7596 50.6602 34.0644C48.9649 32.3692 46.7043 31.3697 44.3213 31.249L43.8428 31.2363Z" fill="black" stroke="white" stroke-width="0.4"/>
<path d="M42.541 34.3398C43.8348 34.0825 45.1758 34.2149 46.3945 34.7197C47.6132 35.2245 48.6548 36.079 49.3877 37.1758C50.0748 38.2041 50.4622 39.402 50.5078 40.6347L50.5117 40.8818C50.5095 42.6499 49.8069 44.3454 48.5566 45.5957C47.3062 46.8461 45.6101 47.5478 43.8418 47.5498C42.5228 47.5497 41.2334 47.1595 40.1367 46.4267C39.04 45.6939 38.1854 44.6522 37.6807 43.4336C37.1759 42.2149 37.0434 40.8738 37.3008 39.58C37.5581 38.2863 38.1932 37.0978 39.126 36.165C40.0587 35.2323 41.2473 34.5972 42.541 34.3398ZM44.8867 35.6318C43.8485 35.4253 42.7719 35.5314 41.7939 35.9365C40.816 36.3416 39.9807 37.028 39.3926 37.9082C38.8045 38.7883 38.4902 39.8232 38.4902 40.8818C38.4918 42.3007 39.0563 43.6607 40.0596 44.664C41.0629 45.6673 42.4229 46.2317 43.8418 46.2334H43.8428C44.901 46.2333 45.9355 45.9198 46.8154 45.332C47.6956 44.7439 48.382 43.9076 48.7871 42.9297C49.1922 41.9517 49.2983 40.8751 49.0918 39.8369C48.8852 38.7988 48.3754 37.8451 47.627 37.0966C46.8785 36.3482 45.9249 35.8383 44.8867 35.6318Z" fill="black" stroke="white" stroke-width="0.4"/>
<path d="M33.5469 58.2559H38.499V59.5733H34.0859L34.0537 59.7334L30.1045 79.4844L30.0566 79.7237H79.9727L75.9746 59.7334L75.9424 59.5733H73.2471V58.2559H76.4824C76.6346 58.256 76.7817 58.3089 76.8994 58.4053C77.0172 58.5018 77.098 58.6359 77.1279 58.7852L81.4219 80.253C81.441 80.3485 81.4386 80.4475 81.415 80.542C81.3914 80.6365 81.3469 80.7245 81.2852 80.7998C81.2234 80.8752 81.1457 80.9359 81.0576 80.9776C80.9695 81.0193 80.8729 81.041 80.7754 81.041H29.2529C29.1557 81.041 29.0596 81.0192 28.9717 80.9776C28.8837 80.9359 28.8059 80.8751 28.7441 80.7998C28.6825 80.7246 28.6379 80.6364 28.6143 80.542C28.5907 80.4475 28.5883 80.3485 28.6074 80.253L32.9014 58.7852C32.9313 58.6361 33.0114 58.5018 33.1289 58.4053C33.2467 58.3088 33.3946 58.2559 33.5469 58.2559Z" fill="black" stroke="white" stroke-width="0.4"/>
<path d="M59.4531 48.264C60.201 47.9542 61.0244 47.8727 61.8184 48.0306C62.6124 48.1885 63.3425 48.5792 63.915 49.1517C64.4873 49.7241 64.8772 50.4535 65.0352 51.2474C65.1931 52.0414 65.1116 52.8647 64.8018 53.6126C64.4919 54.3605 63.967 54.9998 63.2939 55.4495C62.6209 55.8991 61.8299 56.1389 61.0205 56.139C59.9352 56.1377 58.8944 55.7062 58.127 54.9388C57.3597 54.1715 56.9282 53.1313 56.9268 52.0462C56.9268 51.2367 57.1665 50.4449 57.6162 49.7718C58.0659 49.0987 58.7053 48.5738 59.4531 48.264ZM61.0195 49.2698C60.2837 49.2707 59.5779 49.563 59.0576 50.0833C58.5373 50.6036 58.245 51.3094 58.2441 52.0452V52.0462C58.2442 52.5951 58.4069 53.1318 58.7119 53.5882C59.017 54.0447 59.4508 54.4005 59.958 54.6107C60.4651 54.8207 61.0232 54.8759 61.5615 54.7689C62.1 54.6617 62.5951 54.3973 62.9834 54.0091C63.3716 53.6208 63.636 53.1257 63.7432 52.5872C63.8502 52.0489 63.795 51.4908 63.585 50.9837C63.3749 50.4765 63.019 50.0427 62.5625 49.7376C62.1061 49.4326 61.5694 49.2699 61.0205 49.2698H61.0195Z" fill="black" stroke="white" stroke-width="0.4"/>
<path d="M67.0244 54.8211C68.1101 54.8211 69.1513 55.2527 69.9189 56.0204C70.6386 56.7401 71.0632 57.7 71.1133 58.7118L71.1182 58.9149C71.114 59.8354 70.7965 60.7273 70.2178 61.4432L70.0059 61.7049L70.3369 61.7655C71.2778 61.9377 72.129 62.4337 72.7422 63.1678C73.317 63.856 73.6485 64.7128 73.6895 65.6053L73.6943 65.785V74.3709C73.6944 74.4574 73.6766 74.5439 73.6436 74.6239C73.6105 74.7036 73.562 74.7757 73.501 74.8368C73.4398 74.8979 73.367 74.9472 73.2871 74.9803C73.2073 75.0133 73.1215 75.0301 73.0352 75.0301H48.9912C48.9048 75.0301 48.8191 75.0134 48.7393 74.9803C48.6593 74.9472 48.5866 74.8979 48.5254 74.8368C48.4645 74.7758 48.4158 74.7035 48.3828 74.6239C48.3497 74.5439 48.333 74.4574 48.333 74.3709V65.785C48.335 64.8284 48.6719 63.902 49.2852 63.1678C49.8984 62.4338 50.7496 61.9377 51.6904 61.7655L52.0215 61.7049L51.8096 61.4432C51.2308 60.7273 50.9134 59.8354 50.9092 58.9149C50.9092 57.8292 51.3407 56.788 52.1084 56.0204C52.8761 55.2527 53.9173 54.8211 55.0029 54.8211C56.0884 54.8213 57.1299 55.2528 57.8975 56.0204C58.617 56.7401 59.0407 57.7001 59.0908 58.7118L59.0957 58.9149C59.0915 59.8354 58.7741 60.7273 58.1953 61.4432L57.9844 61.7039L58.3145 61.7655C59.331 61.9543 60.2381 62.5217 60.8525 63.3534L61.0137 63.5711L61.1748 63.3534C61.7892 62.5218 62.6964 61.9543 63.7129 61.7655L64.043 61.7039L63.8311 61.4432C63.2523 60.7273 62.9349 59.8354 62.9307 58.9149C62.9307 57.8293 63.3623 56.788 64.1299 56.0204C64.8976 55.2527 65.9387 54.8211 67.0244 54.8211ZM52.4258 63.0077C51.6899 63.0086 50.9842 63.3018 50.4639 63.8221C49.9436 64.3425 49.6512 65.0482 49.6504 65.784V73.7127H60.3545V65.784L60.3408 65.5096C60.2771 64.8745 59.9963 64.2774 59.541 63.8221C59.0858 63.3669 58.4886 63.0861 57.8535 63.0223L57.5791 63.0077H52.4258ZM64.1738 63.0223C63.5386 63.086 62.9417 63.3668 62.4863 63.8221C61.9659 64.3425 61.6727 65.0481 61.6719 65.784V73.7127H72.377V65.784L72.3633 65.5096C72.2996 64.8744 72.0179 64.2775 71.5625 63.8221C71.0421 63.3017 70.3365 63.0085 69.6006 63.0077H64.4482L64.1738 63.0223ZM55.002 56.1385C54.2661 56.1394 53.5604 56.4317 53.04 56.952C52.5197 57.4723 52.2275 58.1781 52.2266 58.9139V58.9149C52.2266 59.4638 52.3894 60.0005 52.6943 60.4569C52.9994 60.9134 53.4332 61.2692 53.9404 61.4793C54.4476 61.6893 55.0056 61.7446 55.5439 61.6375C56.0825 61.5304 56.5776 61.266 56.9658 60.8778C57.3541 60.4895 57.6185 59.9944 57.7256 59.4559C57.8326 58.9176 57.7774 58.3595 57.5674 57.8524C57.3573 57.3452 57.0014 56.9113 56.5449 56.6063C56.0885 56.3013 55.5518 56.1386 55.0029 56.1385H55.002ZM67.0244 56.1385C66.2886 56.1393 65.5829 56.4318 65.0625 56.952C64.5422 57.4723 64.2489 58.1781 64.248 58.9139V58.9149C64.2481 59.4638 64.4109 60.0005 64.7158 60.4569C65.0208 60.9134 65.4547 61.2692 65.9619 61.4793C66.4692 61.6895 67.0279 61.7447 67.5664 61.6375C68.1047 61.5304 68.5992 61.2658 68.9873 60.8778C69.3756 60.4895 69.64 59.9944 69.7471 59.4559C69.8541 58.9175 69.7989 58.3596 69.5889 57.8524C69.3787 57.3451 69.0229 56.9113 68.5664 56.6063C68.167 56.3394 67.7062 56.1816 67.2295 56.1463L67.0244 56.1385Z" fill="black" stroke="white" stroke-width="0.4"/>
<defs>
<radialGradient id="paint0_radial_7582_14416" cx="0" cy="0" r="1" gradientUnits="userSpaceOnUse" gradientTransform="translate(-53.2931 -29.8633) rotate(42.8493) scale(205.659 297.901)">
<stop offset="0.232052" stop-color="#AC38D9"/>
<stop offset="1" stop-color="#F47922"/>
</radialGradient>
</defs>
</svg>
