<svg width="110" height="110" viewBox="0 0 110 110" fill="none" xmlns="http://www.w3.org/2000/svg">
<rect x="0.54" y="0.54" width="108.92" height="108.92" rx="54.46" fill="black"/>
<rect x="0.54" y="0.54" width="108.92" height="108.92" rx="54.46" stroke="black" stroke-width="1.08"/>
<rect x="0.54" y="0.54" width="108.92" height="108.92" rx="54.46" stroke="url(#paint0_radial_7582_14469)" stroke-width="1.08"/>
<path d="M67.7272 56.3703V54.2193C67.7272 53.6253 67.2457 53.1438 66.6517 53.1438H65.4572C65.215 52.0866 64.7979 51.0962 64.2383 50.2042L65.0838 49.3586C65.5038 48.9387 65.5038 48.2577 65.0838 47.8377L63.5629 46.3167C63.1429 45.8968 62.4619 45.8968 62.0419 46.3167L61.1964 47.1623C60.3044 46.6027 59.3141 46.1855 58.2567 45.9433V44.7489C58.2567 44.1549 57.7753 43.6734 57.1813 43.6734H55.0303C54.4363 43.6734 53.9548 44.1549 53.9548 44.7489V45.9433C52.8976 46.1855 51.9072 46.6027 51.0152 47.1623L50.1696 46.3167C49.7496 45.8968 49.0686 45.8968 48.6487 46.3167L47.1277 47.8377C46.7077 48.2577 46.7077 48.9387 47.1277 49.3586L47.9733 50.2042C47.4137 51.0962 46.9965 52.0865 46.7543 53.1438H45.5599C44.9659 53.1438 44.4844 53.6253 44.4844 54.2193V56.3703C44.4844 56.9643 44.9659 57.4458 45.5599 57.4458H46.7543C46.9965 58.503 47.4137 59.4933 47.9733 60.3854L47.1277 61.231C46.7077 61.6509 46.7077 62.3319 47.1277 62.7519L48.6487 64.2729C49.0686 64.6928 49.7496 64.6928 50.1696 64.2729L51.0152 63.4273C51.9072 63.9869 52.8975 64.4041 53.9548 64.6463V65.8407C53.9548 66.4347 54.4363 66.9162 55.0303 66.9162H57.1813C57.7753 66.9162 58.2567 66.4347 58.2567 65.8407V64.6463C59.314 64.4041 60.3043 63.9869 61.1964 63.4273L62.0419 64.2729C62.4619 64.6928 63.1429 64.6928 63.5629 64.2729L65.0838 62.7519C65.5038 62.3319 65.5038 61.6509 65.0838 61.231L64.2383 60.3854C64.7979 59.4934 65.215 58.5031 65.4572 57.4458H66.6517C67.2457 57.4458 67.7272 56.9643 67.7272 56.3703Z" stroke="white" stroke-width="1.08" stroke-miterlimit="10" stroke-linecap="round" stroke-linejoin="round"/>
<path d="M56.0999 59.8636C58.6877 59.8636 60.7856 57.7657 60.7856 55.1778C60.7856 52.5899 58.6877 50.492 56.0999 50.492C53.512 50.492 51.4141 52.5899 51.4141 55.1778C51.4141 57.7657 53.512 59.8636 56.0999 59.8636Z" stroke="white" stroke-width="1.08" stroke-miterlimit="10" stroke-linecap="round" stroke-linejoin="round"/>
<path d="M28.6016 35.3982C28.6016 33.5917 30.0661 32.1272 31.8726 32.1272C33.679 32.1272 35.1435 33.5917 35.1435 35.3982" stroke="white" stroke-width="1.08" stroke-miterlimit="10" stroke-linecap="round" stroke-linejoin="round"/>
<path d="M28.6016 68.1466C28.6016 66.3401 30.0661 64.8756 31.8726 64.8756C33.679 64.8756 35.1435 66.3401 35.1435 68.1466V35.398" stroke="white" stroke-width="1.08" stroke-miterlimit="10" stroke-linecap="round" stroke-linejoin="round"/>
<path d="M51.1133 72.7004H72.2336" stroke="white" stroke-width="1.08" stroke-miterlimit="10" stroke-linecap="round" stroke-linejoin="round"/>
<path d="M28.6016 35.3991V69.3168C28.6016 71.1856 30.1168 72.7009 31.9857 72.7009H41.4618" stroke="white" stroke-width="1.08" stroke-miterlimit="10" stroke-linecap="round" stroke-linejoin="round"/>
<path d="M35.1289 37.8894H80.3184C80.9175 37.8894 81.403 38.375 81.403 38.974V71.616C81.403 72.2151 80.9175 72.7006 80.3184 72.7006H76.6707" stroke="white" stroke-width="1.08" stroke-miterlimit="10" stroke-linecap="round" stroke-linejoin="round"/>
<path d="M76.6674 76.6081V55.5644L74.9541 51.9868C74.753 51.5669 74.1559 51.5652 73.9524 51.9838L72.2188 55.5516V76.6081C72.2188 77.8341 73.2108 78.8289 74.4367 78.8324C75.6677 78.836 76.6674 77.8391 76.6674 76.6081Z" stroke="white" stroke-width="1.08" stroke-miterlimit="10" stroke-linecap="round" stroke-linejoin="round"/>
<path d="M72.4102 58.6606H76.4155" stroke="white" stroke-width="1.08" stroke-miterlimit="10" stroke-linecap="round" stroke-linejoin="round"/>
<circle cx="46.2786" cy="72.7002" r="1.07549" fill="white"/>
<defs>
<radialGradient id="paint0_radial_7582_14469" cx="0" cy="0" r="1" gradientUnits="userSpaceOnUse" gradientTransform="translate(-53.2931 -29.8633) rotate(42.8493) scale(205.659 297.901)">
<stop offset="0.232052" stop-color="#AC38D9"/>
<stop offset="1" stop-color="#F47922"/>
</radialGradient>
</defs>
</svg>
