<svg width="90" height="90" viewBox="0 0 90 90" fill="none" xmlns="http://www.w3.org/2000/svg">
<g clip-path="url(#clip0_11681_27251)">
<path d="M43.3097 42.6855V42.6865L43.215 54.6582C43.2068 55.6445 43.2064 56.6427 43.2013 57.6348C42.8657 56.9079 42.5096 56.188 42.0597 55.3789H42.0588C40.9007 53.2611 39.4481 51.319 37.7453 49.6094C37.7757 48.7953 37.7671 47.859 37.7755 47.083V47.082L37.8302 41.1787L38.047 21.374C40.4961 18.9931 42.1462 16.5642 43.5588 13.6885L43.3097 42.6855Z" stroke="#2BB04C" stroke-width="1.00178"/>
<path d="M41.9002 43.3604C41.9011 43.5272 41.8996 43.7368 41.8963 43.9512C41.8894 44.3906 41.8784 44.8104 41.8757 44.9707L41.7966 49.5752C41.5267 49.4865 41.2393 49.3946 40.9509 49.3066L39.7869 48.9619C39.61 48.8967 39.3739 48.8255 39.1755 48.7656V43.5615C40.133 43.6542 40.9542 43.6139 41.8992 43.2959C41.8994 43.3165 41.9 43.338 41.9002 43.3604Z" stroke="black" stroke-width="0.48"/>
<path d="M41.3066 44.0898C41.3093 44.2258 41.3102 44.4143 41.3095 44.6396C41.3082 45.0906 41.3011 45.6855 41.292 46.291C41.2829 46.8964 41.2709 47.5123 41.2617 48.0059C41.2555 48.3377 41.2504 48.6148 41.247 48.7959L40.1718 48.4658H40.1709L39.7539 48.3398V44.1846C40.2624 44.2065 40.8074 44.1558 41.3037 44.0303C41.3042 44.0486 41.3062 44.0687 41.3066 44.0898Z" stroke="black" stroke-width="0.286222"/>
<path d="M41.8997 32.1582C41.8988 32.7641 41.8883 33.569 41.8743 34.3916C41.8504 35.7945 41.8151 37.2478 41.8 37.8555H39.175C39.1745 37.8446 39.1734 37.8332 39.1731 37.8213C39.1698 37.7058 39.176 37.6185 39.176 37.5273C39.1751 35.9127 39.1753 34.2974 39.176 32.6826C40.2358 32.6292 41.1037 32.2024 41.8938 31.5859C41.8963 31.7438 41.8999 31.9373 41.8997 32.1582Z" stroke="black" stroke-width="0.48"/>
<path d="M41.2114 33.1221C41.212 33.5516 41.2059 34.1226 41.1977 34.708C41.1895 35.2933 41.1794 35.8931 41.1704 36.3789C41.1646 36.6879 41.1591 36.9517 41.1557 37.1367C40.7296 37.1421 40.2956 37.1533 39.8725 37.1631C39.8668 37.0556 39.8625 36.9119 39.8588 36.7412C39.8508 36.3676 39.8479 35.8736 39.8471 35.3672C39.8459 34.5434 39.8508 33.6981 39.853 33.2783C40.3578 33.2165 40.7964 33.0279 41.2075 32.791C41.2088 32.8872 41.2112 32.9984 41.2114 33.1221Z" stroke="black" stroke-width="0.48"/>
<path d="M41.8082 21.9668C41.8049 22.502 41.7952 23.2173 41.7838 23.9531C41.7635 25.2523 41.7374 26.6179 41.7291 27.1582C40.98 27.4269 40.2158 27.6881 39.4586 27.9502C39.4549 27.8456 39.4513 27.717 39.4488 27.5703C39.4418 27.1664 39.4387 26.6308 39.438 26.082C39.4368 25.0989 39.4417 24.086 39.4429 23.709L41.8082 21.585C41.8082 21.6974 41.809 21.8258 41.8082 21.9668Z" stroke="black" stroke-width="0.48"/>
<path d="M41.3218 23.0791C41.3231 23.4759 41.3176 24.0036 41.3101 24.5459C41.2967 25.5239 41.2751 26.5356 41.2681 26.9277C40.8476 27.0358 40.3475 27.1908 39.9244 27.3174C39.9191 27.2223 39.9148 27.0913 39.9117 26.9346C39.9053 26.615 39.9039 26.1935 39.9039 25.7617C39.9038 24.9682 39.9101 24.1472 39.9117 23.8584L41.316 22.6816C41.3186 22.7889 41.3214 22.9235 41.3218 23.0791Z" stroke="black" stroke-width="0.286222"/>
<path d="M45.5664 13.7061C46.0426 14.676 46.5697 15.6204 47.1455 16.5352V16.5361C47.9854 17.8667 48.9446 19.1181 50.0107 20.2754C50.3605 20.6562 50.7342 21.0227 51.08 21.375L51.3867 49.6055C49.7958 51.2196 48.2326 53.2252 47.1562 55.2236C46.7223 55.9998 46.3171 56.7918 45.9394 57.5967L45.9238 56.1074C45.9181 54.7478 45.9099 53.388 45.8974 52.0283L45.8496 47.9492L45.6689 25.25L45.5918 16.2998V16.2988L45.5664 13.7061Z" stroke="#F47920" stroke-width="1.00178"/>
<path d="M47.2345 43.2959C48.1692 43.5959 48.9768 43.6714 49.9562 43.5654L49.9572 48.7695L49.4269 48.9336L49.424 48.9346C49.0284 49.0624 48.6304 49.1836 48.2296 49.3057C47.9325 49.3962 47.6347 49.4901 47.3361 49.585C47.3206 47.495 47.2686 45.3831 47.2345 43.2959Z" stroke="black" stroke-width="0.48"/>
<path d="M47.8252 44.0312C48.3659 44.1649 48.8436 44.1966 49.3925 44.1826L49.3935 48.3398L49.1045 48.4238L49.0966 48.4258C48.7364 48.5515 48.3 48.678 47.9062 48.7969C47.8777 47.3036 47.7891 45.482 47.8252 44.0312Z" stroke="black" stroke-width="0.286222"/>
<path d="M47.2296 31.582C48.0332 32.2122 48.8782 32.6145 49.9562 32.6787V37.8574H47.3341C47.3154 35.7563 47.2369 33.6675 47.2296 31.582Z" stroke="black" stroke-width="0.48"/>
<path d="M47.8297 32.6064C48.3445 32.9037 48.7236 33.1116 49.398 33.1836L49.397 37.2568L47.9136 37.2275L47.8297 32.6064Z" stroke="black" stroke-width="0.286222"/>
<path d="M47.3396 21.5664C48.11 22.2277 48.973 23.0418 49.7156 23.7119C49.7292 25.1193 49.719 26.546 49.7175 27.9609C49.3642 27.8348 49.0094 27.7121 48.656 27.5908C48.2455 27.45 47.8374 27.3078 47.4334 27.1592L47.3396 21.5664Z" stroke="black" stroke-width="0.48"/>
<path d="M47.9082 22.7334C48.0579 22.8547 48.2399 23.0067 48.4238 23.1621C48.7533 23.4407 49.0825 23.7241 49.2441 23.8623V27.3223C49.0549 27.2742 48.8405 27.2144 48.6211 27.1475C48.3721 27.0715 48.1147 26.9916 47.8847 26.9277C47.8784 25.5186 47.8401 24.0767 47.8213 22.6641C47.8483 22.6855 47.8775 22.7085 47.9082 22.7334Z" stroke="black" stroke-width="0.286222"/>
<g filter="url(#filter0_d_11681_27251)">
<path d="M28.281 40.0684C28.4488 40.6404 28.6213 41.2232 28.6804 41.3887V41.3896C29.1998 42.8419 29.8978 44.2243 30.7576 45.5049V45.5059C32.0217 47.3788 34.2826 49.3199 35.8718 50.7969C39.2399 53.9274 41.8387 58.0901 42.8269 62.5742C42.9945 63.3349 43.0878 64.0269 43.1609 64.7578C41.5786 63.7367 39.8909 62.7989 38.3181 61.833C34.0764 59.2275 30.4751 56.3265 28.5867 51.7012C27.1286 48.1296 27.0913 43.7989 28.281 40.0684Z" stroke="black" stroke-width="1.00178" shape-rendering="crispEdges"/>
</g>
<path d="M60.9677 39.7744V39.7754C61.946 42.7732 62.1861 45.877 61.5918 48.9512C60.4567 54.8235 56.229 58.7896 51.2216 61.835C49.5038 62.8798 47.5962 63.9429 45.8828 65.083L45.8789 65.085C45.8192 65.1255 45.7612 65.1686 45.7021 65.21C45.7653 64.3583 45.8692 63.55 46.0527 62.6768C46.9898 58.2165 49.5556 53.9999 52.8662 50.8584C54.5688 49.2425 56.6937 47.4943 58.122 45.4717C59.4689 43.5643 60.253 41.5084 60.8242 39.3545C60.8872 39.5411 60.9426 39.6969 60.9677 39.7744Z" stroke="black" stroke-width="1.00178"/>
<path d="M36.2105 22.9424L36.2037 25.9893L36.0943 43.1621V43.1641C36.0935 43.4436 36.1026 45.0059 36.1002 46.4697C36.0991 47.1346 36.0941 47.7868 36.0865 48.3096C36.0333 48.2454 35.9885 48.1897 35.9547 48.1543C35.5162 47.696 35.0506 47.268 34.5972 46.8516C34.1402 46.4317 33.6955 46.0244 33.2769 45.5938C30.9581 43.2068 29.6932 39.9898 29.7642 36.6631V36.6602C29.8407 31.8112 32.7821 26.5776 36.2105 22.9219C36.2105 22.9294 36.2105 22.9363 36.2105 22.9424Z" stroke="black" stroke-width="1.00178"/>
<path d="M53.1623 23.4658C53.4614 23.8017 53.7481 24.141 53.8879 24.3135C56.6155 27.6813 59.0163 32.1557 59.1554 36.4424V36.4453C59.2758 39.5986 58.1709 42.6718 56.0802 45.0254L55.8654 45.2617L55.8556 45.2734C55.3867 45.8382 54.81 46.345 54.1886 46.9033C53.8869 47.1745 53.5758 47.4561 53.2736 47.7568C53.273 47.2062 53.278 46.6475 53.2765 46.1094V46.1084L53.257 40.1006V40.0967L53.214 35.6348C53.181 31.5785 53.1643 27.5222 53.1623 23.4658Z" stroke="black" stroke-width="1.00178"/>
<path d="M44.2299 74.3261L47.0294 74.325C48.1258 74.325 49.4507 74.2255 50.4219 74.7965C51.0126 75.1434 51.1989 75.8673 50.8144 76.4393C50.4061 77.0465 49.5085 77.1966 48.8424 77.3235C49.517 77.4233 50.2091 77.4894 50.8105 77.8392C51.5419 78.2646 51.6732 78.9393 51.2445 79.6508C50.2218 81.0919 47.1702 80.7734 45.6103 80.8184C45.33 80.8265 44.4122 80.849 44.1762 80.7846C44.1182 80.6581 44.125 80.7104 44.1379 80.5818C44.3839 80.2429 45.3108 80.6545 45.2893 79.7194C45.255 78.2238 45.3541 76.645 45.2475 75.1536C45.2103 74.6319 44.5765 74.8246 44.2741 74.6386C44.2024 74.5131 44.2289 74.4934 44.2299 74.3261Z" fill="black"/>
<path d="M46.9911 77.5898C47.6871 77.5902 48.6517 77.5962 49.1777 78.101C49.7387 78.6396 49.6429 79.4422 49.1448 79.972C48.3317 80.6474 46.8236 80.6484 46.9811 79.2745C47.0337 78.8157 46.9894 78.0708 46.9911 77.5898Z" fill="white"/>
<path d="M47.5754 74.7459C49.2085 74.6819 49.7356 76.3831 48.4616 77.0117C47.9724 77.1864 47.507 77.1798 46.9962 77.1843C46.9931 76.7178 46.9261 75.3734 47.0801 74.9192C47.1128 74.8229 47.4501 74.7698 47.5754 74.7459Z" fill="white"/>
<path d="M37.7297 74.1944C38.6004 74.0893 40.067 74.3213 40.9376 74.4715C41.0083 75.0294 41.0752 75.588 41.1383 76.147C40.9887 76.1765 40.818 76.2008 40.6659 76.2261C40.1843 74.6624 38.4323 74.3772 37.0404 74.7467C34.5007 75.4474 34.3031 78.9089 36.5209 80.1531C37.0396 80.4442 38.8656 80.9008 39.2856 80.1777C39.4203 79.9456 39.3917 78.7679 39.3073 78.4867C39.1777 78.0542 38.3392 78.2107 37.9454 78.0472C37.8574 77.9498 37.8857 77.9365 37.8786 77.7765C38.0409 77.6605 41.0088 77.7698 41.4859 77.7269C41.6181 77.715 41.8715 77.7624 41.8883 77.9498C41.7003 78.3292 41.101 77.8858 41.1082 78.79C41.113 79.4004 41.072 79.9822 41.1833 80.6034C40.5563 80.7198 39.9216 80.8105 39.29 80.8987C37.1376 81.1993 33.2956 80.6885 33.0146 77.9161C32.9402 77.1686 33.1712 76.423 33.655 75.8485C34.6354 74.6697 36.2825 74.321 37.7297 74.1944Z" fill="black"/>
<path d="M58.8997 74.1946C60.1272 74.1211 60.7967 74.2751 61.9852 74.4446C62.0914 75.0078 62.1986 75.5376 62.2957 76.1071L61.8129 76.182C61.4859 75.2943 60.802 74.7961 59.8702 74.6681C59.0832 74.5602 58.2421 74.6428 57.5451 75.0485C56.912 75.4173 56.4565 76.0276 56.2835 76.7396C55.5772 79.5802 58.7506 81.4399 61.0611 79.9933C61.5298 79.6522 61.7415 79.3822 62.0714 78.9206L62.5323 79.0676C62.3727 79.5619 62.0348 80.2425 61.783 80.6953C61.2855 80.7927 60.7724 80.8381 60.2714 80.9101C58.1535 81.2142 54.4599 80.5642 54.2078 77.8646C54.1446 77.1249 54.3829 76.3912 54.8687 75.8301C55.8639 74.6587 57.4458 74.3222 58.8997 74.1946Z" fill="black"/>
<path d="M26.6033 74.3237C27.8136 74.3254 29.0262 74.3198 30.2365 74.3237C30.4398 74.324 30.4694 74.3194 30.5828 74.4372C30.6385 74.8183 29.6035 74.6689 29.5432 74.9902C29.3241 76.1581 29.518 77.4765 29.4475 78.6753C29.4217 79.1144 29.4364 79.6646 29.5226 80.0921C29.5961 80.4827 30.2873 80.3818 30.5183 80.4981C30.5793 80.6029 30.5506 80.6926 30.5343 80.8184C29.3307 80.8142 27.8291 80.8669 26.6527 80.8089C26.6018 80.7305 26.5963 80.5621 26.6513 80.4869C27.0404 80.2724 27.7058 80.6504 27.706 79.7138C27.7063 78.2271 27.7632 76.6746 27.6807 75.191C27.6493 74.6246 26.9381 74.8144 26.6498 74.6376C26.5753 74.5103 26.6025 74.4952 26.6033 74.3237Z" fill="black"/>
<path d="M32.1928 65.916C32.5065 66.0464 33.6203 66.6399 33.8982 66.8111C33.9268 66.8666 33.9345 66.8891 33.9395 66.9514L34.008 66.8673C34.2974 66.9313 35.0677 67.2945 35.3927 67.4211C36.0324 67.6707 36.7125 67.9589 37.3754 68.1629C38.0637 68.3745 38.9368 68.4828 39.6288 68.7377C39.6983 68.763 39.6925 68.8041 39.7063 68.8642L39.6479 68.9338C39.5229 68.9757 39.3775 68.912 39.241 68.8727C39.1055 69.2629 39.2695 69.2657 39.1899 69.5143C38.8938 69.4144 38.2804 69.1557 38.1017 69.5276C38.1813 69.7853 38.5949 69.6981 38.733 69.9084L38.6927 69.9713C38.4873 70.0518 38.0961 69.7825 37.8763 70.017C37.7606 70.5521 38.5004 70.5299 38.8215 70.4364C39.0525 70.3693 39.1661 70.2933 39.363 70.1639C39.3231 70.3207 39.281 70.6452 39.0945 70.6906C38.6001 70.8115 37.718 70.4955 37.4923 70.023C37.3923 69.8134 37.8452 69.6981 37.9166 69.5628C37.8646 69.4601 37.8397 69.4046 37.8015 69.2963C37.9004 68.8045 38.6119 69.2063 38.8635 69.014C38.9043 68.9451 38.9379 68.9078 38.9295 68.8298C38.6707 68.6487 37.6228 68.5341 37.2101 68.3527L37.1911 68.3439C37.1783 68.3815 37.1152 68.5728 37.1158 68.597C37.1203 68.7605 37.1971 68.789 37.1161 68.9591C36.8735 68.9943 36.3354 68.5095 36.0202 68.8709C36.0516 69.1743 36.4509 69.0977 36.6164 69.3357L36.5761 69.3958C36.357 69.4728 36.0059 69.1472 35.7508 69.3624C35.7203 69.445 35.7148 69.5856 35.7663 69.6531C36.1008 70.0912 36.8422 69.8507 37.1948 69.6616C37.144 69.8454 37.124 70.0564 36.9486 70.1453C36.3962 70.159 36.096 70.0434 35.6272 69.7147C35.5233 69.6419 35.3809 69.4798 35.3845 69.3539C35.3968 68.9317 35.729 69.0811 35.8541 68.9461C35.7803 68.8421 35.7167 68.7718 35.6996 68.6441C35.8321 68.2986 36.5511 68.4775 36.8182 68.5534C36.8425 68.468 36.8661 68.3826 36.8888 68.2968C36.8576 68.2107 36.1751 67.9888 36.0198 67.9259C35.0919 67.5501 34.1522 67.2024 33.2623 66.7404C33.1994 66.8596 33.1217 66.9802 33.1167 67.1127L33.1558 67.1496C33.3437 67.1173 33.3903 67.0927 33.5272 67.1827C33.5865 67.3015 33.5796 67.3384 33.5763 67.4689C33.5276 67.5416 33.4291 67.5599 33.3419 67.5898C33.3202 67.453 33.3339 67.3606 33.2165 67.2931L33.1726 67.3152C33.1499 67.394 33.14 67.4826 33.1139 67.5557C32.8457 68.3105 31.8644 67.0825 31.628 67.7361L31.6669 67.8004C32.0719 68.0679 33.2388 67.6664 33.051 68.7166C33.0166 68.9089 32.9123 69.2066 32.7428 69.3188C32.0839 69.407 31.9057 67.7009 30.1978 68.6804C30.475 68.2655 30.8433 67.9452 31.3668 68.0549C31.8829 68.1632 32.0003 68.719 32.3589 68.9507C32.8905 69.2942 33.2988 68.2764 32.4655 68.2652C32.0035 68.2441 31.2497 68.0363 31.579 67.3929C31.6898 67.3075 31.7949 67.3135 31.9379 67.2991C32.0135 67.1982 31.9297 67.0895 31.9593 66.9802C32.1015 66.4553 32.5265 66.7204 32.8149 66.7742C32.9369 66.7313 32.8946 66.7633 32.9698 66.6459C32.92 66.411 32.2796 66.3723 32.1344 66.0974C32.1143 66.0595 32.1693 65.9684 32.1928 65.916Z" fill="black"/>
<path d="M32.5326 66.9102C33.1141 66.9235 33.1458 67.3855 32.5628 67.5623C31.8928 67.544 31.9362 67.0325 32.5326 66.9102Z" fill="white"/>
<path d="M47.5927 9.16406C47.9311 9.14508 48.145 9.15604 48.4277 9.31738C48.7262 9.49059 48.9412 9.77816 49.0234 10.1133V10.1143C49.1032 10.4261 49.069 10.755 48.9296 11.042L48.8642 11.1611C48.6595 11.486 48.3886 11.6415 48.0117 11.7324C47.8303 11.7389 47.6961 11.7428 47.5683 11.7236C47.473 11.7094 47.3792 11.6821 47.2734 11.6309L47.163 11.5713C46.9048 11.4158 46.71 11.1759 46.6093 10.8945L46.5722 10.7715C46.4847 10.4263 46.539 10.0598 46.7246 9.75586C46.9287 9.42436 47.211 9.25705 47.5927 9.16406Z" stroke="black" stroke-width="0.248147"/>
<path d="M47.1134 9.64258C47.3084 9.63769 47.584 9.61887 47.8341 9.65039C48.0919 9.68295 48.3106 9.76888 48.3898 9.97168C48.3614 10.232 48.2033 10.3439 48.0031 10.5244L47.9865 10.54L48.0011 10.5576C48.1967 10.786 48.3349 10.9586 48.4132 11.2461L48.3498 11.2959C48.3013 11.2663 48.2804 11.2517 48.2326 11.2129C48.141 11.0595 48.0323 10.8505 47.8898 10.7012C47.8176 10.6255 47.7353 10.5638 47.6398 10.5322C47.5438 10.5005 47.4364 10.4994 47.3156 10.543L47.3058 10.5469L47.3019 10.5566C47.2588 10.6723 47.2661 10.7797 47.2755 10.8887C47.2848 10.9954 47.2952 11.1046 47.2668 11.2334C47.2471 11.244 47.2338 11.2527 47.2248 11.2578C47.2135 11.2642 47.2112 11.2646 47.2101 11.2646C47.2085 11.2648 47.2053 11.264 47.1916 11.2598C47.1807 11.2564 47.1654 11.2511 47.1427 11.2451C47.1409 11.2398 47.1389 11.2328 47.1369 11.2236C47.1335 11.2083 47.1299 11.1885 47.1271 11.165C47.1215 11.1183 47.1176 11.0577 47.1144 10.9873C47.1079 10.846 47.1056 10.6664 47.1056 10.4834C47.1057 10.136 47.1123 9.78054 47.1134 9.64258Z" fill="black" stroke="black" stroke-width="0.0465276"/>
<path d="M47.7496 9.82324C47.9 9.83223 48.0328 9.86602 48.1109 9.95801C48.1369 10.0209 48.1435 10.0638 48.1402 10.1064C48.1369 10.1491 48.1233 10.1918 48.107 10.2559C47.9966 10.304 47.8649 10.324 47.7271 10.3301C47.5927 10.336 47.456 10.3299 47.3306 10.3281V9.83105C47.4556 9.82749 47.606 9.81469 47.7496 9.82324Z" fill="white" stroke="white" stroke-width="0.0465276"/>
<path d="M49.7927 67.0863C50.1704 67.0614 50.5399 68.2029 50.6934 68.4458C50.7337 68.5091 50.7447 68.4272 50.8803 68.4958C50.9072 68.6167 50.9206 68.5893 50.8803 68.6824L50.7285 68.7376C50.6619 68.8635 50.9817 70.3759 51.0266 70.661C50.8822 70.6308 50.8071 70.6195 50.6718 70.5591L50.5968 70.3538C50.5028 70.4751 50.2864 70.7742 50.1456 70.8073C49.9332 70.8593 49.709 70.8266 49.52 70.7166C49.0041 70.4209 48.9288 69.9618 49.2148 69.4671C49.6865 68.9553 50.0305 69.253 50.4649 69.5814C50.4227 69.3065 50.3771 69.0794 50.3166 68.8076C50.0487 68.8621 48.6307 69.1876 48.4642 69.0994L48.4509 68.9774C48.5435 68.8473 50.0237 68.6216 50.2939 68.572C50.0783 67.7192 49.9938 67.7979 49.4884 67.1823C49.57 67.1117 49.6726 67.1117 49.7927 67.0863Z" fill="black"/>
<path d="M49.8523 69.4347C50.8021 69.3981 50.3262 70.3136 49.8396 70.644C49.4983 70.708 49.2522 70.4264 49.3411 70.0889C49.4349 69.7335 49.5548 69.6273 49.8523 69.4347Z" fill="white"/>
<path d="M27.7333 60.625C27.8146 60.6728 27.9635 60.8289 28.0389 60.9031C27.9527 61.6741 27.7614 61.7743 27.3701 62.3761C27.4022 62.4401 27.45 62.4753 27.5031 62.5241C27.498 62.6134 27.4973 62.5864 27.4114 62.6697C27.2159 62.6859 27.345 62.5962 27.1582 62.5797C26.7717 62.9305 26.2232 63.5507 25.8522 63.9476C25.8011 63.8309 25.7528 63.7124 25.7073 63.5932C25.7566 63.5127 25.781 63.4892 25.8457 63.4192C25.7804 63.3493 25.4455 63.4227 25.289 63.3278C24.9209 63.1042 24.8528 62.4665 25.0373 62.1051C25.156 61.8727 25.2879 61.8203 25.5218 61.7489C25.9291 61.6973 26.1126 61.7992 26.3516 62.117C26.3866 62.3835 26.386 62.5776 26.3879 62.8444C26.5582 62.6795 26.757 62.4602 26.9237 62.2858C26.7778 62.1329 25.7648 61.1696 25.7356 61.0848C25.7948 60.9998 25.8007 60.9766 25.8916 60.9393C26.2058 61.2016 26.7797 61.8055 27.0909 62.1149C27.5731 61.5693 27.5996 61.3299 27.7333 60.625Z" fill="black"/>
<path d="M25.4073 62.1188C25.7488 62.0935 26.1763 62.143 26.3058 62.5305C26.3347 62.6166 26.3255 62.7108 26.2806 62.7899C26.1919 62.9446 26.0436 62.9763 25.8828 63.0248C25.1011 63.0923 24.6602 62.6071 25.4073 62.1188Z" fill="white"/>
<path d="M42.5728 67.6523L42.9772 67.6699C43.4005 68.0974 43.488 68.585 43.5099 69.156C43.8788 69.1792 44.3343 69.1588 44.7072 69.208C44.7615 69.2154 44.7744 69.2752 44.795 69.3244L44.7539 69.382C44.5044 69.4879 43.7957 69.4172 43.489 69.401L43.4746 70.134C44.0261 69.5483 44.562 69.5423 44.8751 70.3545C44.8496 70.8322 44.496 71.3522 43.9705 71.3248C43.7112 71.3114 43.5849 71.1297 43.4246 70.9504C43.4218 71.0727 43.4316 71.1862 43.3805 71.2942C43.2685 71.3153 43.2023 71.2559 43.0785 71.1979C43.0861 70.9261 43.1809 69.5146 43.0662 69.4042C42.9574 69.4017 42.9237 69.4088 42.8281 69.3645C42.7814 69.0403 43.0961 69.2175 43.1267 69.0132C43.2053 68.488 42.7795 68.0661 42.5728 67.6523Z" fill="black"/>
<path d="M43.8117 69.9958C44.4476 69.9564 44.9781 70.643 44.3676 71.157C44.3239 71.157 44.2801 71.1545 44.2367 71.1489C43.8917 71.1021 43.4729 70.6335 43.5471 70.2696C43.5749 70.1329 43.7041 70.0668 43.8117 69.9958Z" fill="white"/>
<path d="M55.979 66.5488C56.0481 66.577 56.0728 66.6251 56.0995 66.6856C56.04 66.8413 55.6636 66.9746 55.4945 67.0516C55.5603 67.215 55.5763 67.26 55.6784 67.4031C55.8122 67.4119 55.7184 67.2674 55.9143 67.1377C56.1512 67.092 56.242 67.2273 56.2756 67.4274C56.1632 67.5828 56.0811 67.3666 55.8906 67.4439C55.8817 67.5582 56.1651 67.813 56.0936 67.986C55.949 68.3362 55.2687 68.4255 55.1926 68.8298C55.2195 68.9423 55.1956 68.9103 55.2723 68.9809C55.6672 68.9823 56.259 67.5895 56.9228 68.4761C57.2365 68.8952 57.2659 69.3265 56.6109 69.3188C55.6651 69.3079 55.2935 69.7294 55.1141 70.6006L55.0809 70.6087L55.0127 70.4779C54.9356 69.7192 55.2597 69.1296 56.0945 69.1926C56.4425 69.2499 57.0267 69.1384 56.873 68.6505C56.7645 68.3056 56.428 68.3833 56.2327 68.5795C55.8858 68.9271 55.6471 69.3065 55.1171 69.0527C54.8072 68.9043 55.1381 68.6213 55.0683 68.4329C55.0467 68.385 54.7652 68.1903 54.7623 68.1017C54.6732 67.7181 55.1788 67.581 55.2868 67.3936C55.2397 67.2618 55.2688 67.2861 55.1745 67.2062C55.0676 67.2604 54.9602 67.3135 54.8524 67.3659C54.6952 67.4418 54.3971 67.6077 54.2411 67.5536L54.2166 67.4886C54.227 67.4629 54.2396 67.432 54.2543 67.3961C54.7382 67.1208 55.4952 66.7872 55.979 66.5488Z" fill="black"/>
<path d="M55.4459 67.4922C56.063 67.5034 55.7118 68.1728 55.3771 68.4161C54.757 68.3075 55.127 67.7288 55.4459 67.4922Z" fill="white"/>
<path d="M60.6197 63.6289C60.6977 63.6676 60.7276 63.714 60.7476 63.7913C60.6815 63.9144 60.5433 63.9871 60.4231 64.0698L60.7357 64.5324C61.1798 64.6024 61.4692 64.9234 61.4316 65.3642C61.3465 66.3525 59.5018 66.4846 59.62 65.2282C59.775 64.7096 59.9273 64.8309 60.2543 64.5296C60.2677 64.4037 60.2251 64.3918 60.1404 64.2614C59.8693 64.4716 59.4463 64.7817 59.1523 64.9793C59.0841 65.0253 59.0015 64.9866 58.9389 64.9557L58.9923 64.9919L58.9322 64.9409C58.967 64.7455 60.3661 63.8114 60.6197 63.6289Z" fill="black"/>
<path d="M60.4725 64.6152C61.2844 64.6458 61.0987 65.7051 60.5533 66.0563C60.4953 66.0595 60.4366 66.0566 60.3789 66.0482C59.7604 65.9533 59.9506 64.9383 60.4725 64.6152Z" fill="white"/>
<path d="M27.5682 62.5645C27.8384 62.8098 28.1162 63.0584 28.3966 63.2904C28.5735 63.437 29.4681 64.0948 29.4945 64.2614C29.4172 64.3476 29.4592 64.3244 29.3383 64.3402C29.2031 64.2801 28.6829 63.8308 28.5363 63.7091L28.3331 63.9781C28.7516 64.169 28.9494 64.2871 29.1172 64.71C29.0098 65.0595 28.5363 65.713 28.2807 65.9637L28.2193 65.938C27.9906 65.3868 28.046 65.7071 27.5624 65.3977C27.3994 65.2936 27.189 65.0293 27.1709 64.8162C27.162 64.703 27.2012 64.5916 27.2788 64.5089C27.5683 64.1961 28.1958 64.3339 28.4498 64.6295C28.5426 64.7375 28.5794 64.8176 28.6912 64.9189L28.745 64.9037C28.9135 64.3982 28.1614 64.2411 27.8478 64.0519L27.8686 64.0006C28.1143 63.9064 28.1678 63.7707 28.3371 63.5506C28.0896 63.3678 27.6707 63.0046 27.4652 62.7793C27.4597 62.6762 27.496 62.6646 27.5682 62.5645Z" fill="black"/>
<path d="M27.4315 64.5857C27.8499 64.5667 28.2986 64.7031 28.4733 65.1253C28.4429 65.2568 28.4719 65.215 28.3705 65.2874C28.0462 65.2881 27.3522 65.1352 27.2822 64.7682C27.328 64.6339 27.2965 64.6827 27.4315 64.5857Z" fill="white"/>
<path d="M47.3196 69.0631C47.4522 69.042 47.556 69.022 47.6582 69.0891C47.6782 69.2097 47.6902 69.1731 47.6415 69.2642C47.1743 69.4048 45.9033 69.427 45.3878 69.4386C45.418 69.891 45.3261 70.7907 45.6071 71.1531C45.7613 71.3521 46.1362 71.2343 46.2933 71.047C46.5717 70.7144 46.4739 70.148 46.4509 69.7335C46.5761 69.7237 46.7151 69.6934 46.8145 69.7532C46.8858 69.8639 46.864 70.0074 46.8622 70.1477L46.9095 71.4196C46.6941 71.3388 46.5949 71.2871 46.392 71.1749L46.3601 71.1971C46.1562 71.3377 45.9509 71.3982 45.7026 71.3486C45.4913 71.3057 45.3058 71.1806 45.1873 71.0006C45.0195 70.7422 44.9827 69.4575 45.0283 69.2318C45.7523 69.1387 46.4758 69.1742 47.3196 69.0631Z" fill="black"/>
<path d="M62.3521 62.043C62.4042 62.0943 62.4358 62.1794 62.452 62.2497C62.3317 62.4272 61.4924 63.1328 61.2892 63.3096C61.5153 63.5744 62.3585 64.8203 62.7614 64.4269C63.3311 63.8704 62.6739 63.2794 62.3001 62.8509L62.5948 62.5809L63.1721 63.2573L63.6915 63.8704C63.521 63.9252 63.3434 64.0254 63.1852 63.9379C62.9285 64.1682 63.1099 64.4642 62.5723 64.6519C61.7435 64.9416 61.4667 63.8373 61.0037 63.5972C60.9411 63.6285 60.8929 63.6563 60.8328 63.6921C60.7406 63.6559 60.7688 63.6651 60.7041 63.5631C60.7255 63.4615 62.1496 62.224 62.3521 62.043Z" fill="black"/>
<path d="M58.7137 64.9941C58.8024 65.0258 58.8382 65.0746 58.8481 65.1604C58.7682 65.275 58.654 65.3243 58.5298 65.3956L58.8013 65.8657C58.9662 65.9212 59.0436 65.9272 59.1691 66.0506L59.1367 66.1293C58.8755 66.2 58.8685 65.949 58.6434 65.9441C58.0397 65.9314 57.7499 66.9421 58.18 67.293C58.7099 67.7258 59.0214 66.6922 59.385 66.6507C59.5991 67.0487 58.9539 67.4196 58.6125 67.4825C57.9004 67.4899 57.3453 67.1422 57.692 66.3227C57.8174 66.026 58.1107 65.905 58.4057 65.8147L58.2605 65.5584C58.0836 65.6762 57.219 66.2271 57.0725 66.2594L57.0136 66.2056L57.0103 66.1332C57.1548 65.8973 58.3793 65.2079 58.7137 64.9941Z" fill="black"/>
<path d="M65.2562 58.8359C65.3209 58.8894 65.3568 58.8975 65.4341 58.9263L65.4433 58.9857L65.2481 59.2191L65.6725 59.5798C65.8086 59.5633 65.9929 59.532 66.0773 59.6653C65.8705 59.8991 65.5649 59.602 65.367 59.7648C64.8395 60.1982 65.1592 61.5335 65.9661 60.9938C66.1416 60.8764 66.1933 60.5941 66.1975 60.3891C66.2728 60.2925 66.3223 60.2049 66.4328 60.1613L66.502 60.1951C66.643 60.5579 66.3153 60.9629 66.0147 61.1418C65.3719 61.4294 64.6852 61.2403 64.7425 60.419C64.771 60.0119 64.9447 59.9202 65.2397 59.6853C65.2179 59.5925 65.125 59.5289 65.0487 59.46C64.7485 59.8224 64.4517 60.188 64.1591 60.5568C64.0698 60.483 64.0484 60.4749 64.0041 60.3726C64.2759 59.9736 64.926 59.2343 65.2562 58.8359Z" fill="black"/>
<path d="M53.3917 68.1715C54.3487 68.1293 54.535 68.9677 54.282 69.7352L53.8423 69.6378C53.9672 69.3738 54.0541 69.2001 54.0298 68.9034C53.9744 68.2256 53.5713 68.0259 53.1128 68.5888C52.8585 69.1913 53.0295 69.5011 53.2409 70.1012L52.8892 70.0467C52.7202 69.6216 52.5432 69.0714 52.3884 68.6316C52.4913 68.5881 52.5807 68.5392 52.6904 68.536C52.7177 68.5954 52.7285 68.6359 52.7816 68.6735C53.0511 68.5033 52.909 68.3557 53.3917 68.1715Z" fill="black"/>
<path d="M24.0984 59.6855C24.2131 59.7225 24.2879 59.829 24.3037 59.9432L24.2057 60.0536C24.3487 60.1756 24.5985 60.1711 24.7237 60.2892C25.27 60.8039 24.9792 61.5042 24.3495 61.77C24.1294 61.8628 23.9896 61.8582 23.7696 61.8747C23.7435 61.7306 23.7308 61.5608 23.7162 61.4128C24.0848 61.4363 24.2482 61.4694 24.5671 61.2954C24.587 61.2813 24.6066 61.2665 24.626 61.2518C25.072 60.9114 24.8794 60.3778 24.3381 60.3465C23.7992 60.3155 23.4504 60.6618 23.0764 60.9867L23.0072 60.626L24.0984 59.6855Z" fill="black"/>
<path d="M29.3673 64.7773C29.4532 64.8371 29.5329 64.8976 29.616 64.9605C29.6249 65.0435 29.6153 65.0273 29.569 65.117C29.7194 65.2077 30.085 65.1507 30.2005 65.2446C31.0587 65.9424 30.4028 66.738 29.656 67.008L29.4556 66.5731C29.836 66.5162 29.9737 66.4824 30.2508 66.2244C30.6078 65.7241 30.3923 65.2576 29.7639 65.3785C29.2652 65.4748 28.9932 65.9639 28.7492 66.3664L28.5666 66.043C28.8366 65.6327 29.1046 65.1946 29.3673 64.7773Z" fill="black"/>
<path d="M64.0397 61.3203C64.7682 61.3977 64.9483 61.7967 65.0921 62.4587L64.6469 62.5719C64.5879 60.9318 63.1247 61.2946 63.6539 62.5603C63.7992 62.8109 64.0966 63.0693 64.3104 63.2729L63.9655 63.3921L62.8884 62.3627C62.9647 62.2769 63.0294 62.1904 63.1283 62.1349C63.1775 62.1841 63.1933 62.2098 63.2612 62.2256C63.527 61.7134 63.2773 61.4736 64.0397 61.3203Z" fill="black"/>
<path d="M39.7982 69.3555C39.8892 69.3688 40.0505 69.3776 40.1105 69.4339L40.113 69.5639C40.2468 69.6314 40.5371 69.3804 40.6821 69.4008C41.7856 69.5552 41.5886 70.638 41.0027 71.2265L40.649 70.9361C40.8577 70.7649 40.9551 70.703 41.1158 70.485C41.419 69.8139 41.0632 69.2634 40.377 69.7425C40.0061 70.0016 39.9558 70.6366 39.9198 71.0662L39.6197 70.8584C39.6731 70.3595 39.7381 69.8543 39.7982 69.3555Z" fill="black"/>
<path d="M64.7876 57.139C65.7887 57.1148 67.0862 58.2872 67.9045 58.8737L67.569 59.0603C67.0697 58.6972 66.5683 58.3315 66.0672 57.9715C65.4888 57.5567 65.1706 57.4273 64.4634 57.5236C64.5506 57.3894 64.6502 57.203 64.7876 57.139Z" fill="black"/>
<path d="M47.4149 67.5881C47.559 67.5659 47.6523 67.5336 47.791 67.6137C48.0327 67.7298 48.2504 68.1945 48.2936 68.4301C48.3522 68.7486 48.6758 70.9673 48.5919 71.1125L48.29 70.9866C48.1915 70.2118 48.1147 69.1212 47.9286 68.3661C47.8907 68.2121 47.4951 67.7568 47.3822 67.6236L47.4149 67.5881Z" fill="black"/>
<path d="M33.9562 67.4434C34.0997 67.4894 34.1511 67.5035 34.2834 67.5791L34.2785 67.6511C34.3374 67.7457 35.1965 67.6599 35.2731 68.0691C35.3621 68.5448 35.1221 68.5831 34.7487 68.6879C34.5108 68.0575 34.717 68.3841 35.0687 68.137C35.11 68.1078 35.0942 68.0769 35.0925 68.0192C35.0266 67.9173 34.9779 67.8934 34.8794 67.8238C34.0454 67.887 33.9513 68.4562 33.6912 69.1365L33.4134 68.8088C33.5986 68.3652 33.7782 67.892 33.9562 67.4434Z" fill="black"/>
<path d="M51.6328 68.7168C51.7041 68.7319 51.6802 68.7263 51.7449 68.7681C51.8142 68.958 52.1825 70.1835 52.1661 70.348L52.0873 70.3544L51.8842 70.2985C51.7858 70.2225 51.4962 69.0613 51.4416 68.8574C51.4732 68.7783 51.5401 68.766 51.6328 68.7168Z" fill="black"/>
<path d="M65.9504 58.6406C66.1561 58.7862 67.0858 59.5315 67.2377 59.6855C67.1941 59.7596 67.0924 59.7871 67.0084 59.8226L66.9775 59.8363C66.8467 59.8173 65.9282 59.0474 65.7478 58.9015L65.9504 58.6406Z" fill="black"/>
<path d="M47.3032 69.5176C47.366 69.5306 47.4243 69.5485 47.4857 69.5664C47.5359 69.7296 47.6499 71.0662 47.6227 71.2216L47.5592 71.2357C47.4782 71.197 47.3853 71.1407 47.306 71.0954C47.2618 70.6443 47.2019 70.123 47.1947 69.6677C47.1933 69.5798 47.2333 69.5724 47.3032 69.5176Z" fill="black"/>
<path d="M23.7508 59.125C23.8553 59.1851 23.9012 59.2741 23.9709 59.3757C23.5652 59.6956 23.1621 60.0183 22.7616 60.3446L22.6699 60.3892C22.6006 60.3003 22.6049 60.1836 22.5853 60.0563L23.7508 59.125Z" fill="black"/>
<path d="M27.4441 63.0957L27.694 63.3277C27.3364 63.7109 26.9572 64.1609 26.6081 64.5579L26.5795 64.5733C26.5015 64.5086 26.4762 64.3617 26.4384 64.2478C26.7766 63.8663 27.1119 63.4821 27.4441 63.0957Z" fill="black"/>
<path d="M53.9962 67.4395C54.0641 67.5098 54.0832 67.5727 54.0509 67.6588C53.747 67.8241 52.5604 68.2315 52.1582 68.3792L52.1298 68.3662C52.0663 68.2713 52.0778 68.3163 52.0842 68.2034C52.2507 68.041 53.674 67.5565 53.9962 67.4395Z" fill="black"/>
<path d="M63.8042 60.5352C63.8988 60.6223 63.9227 60.6139 63.9423 60.7229C63.6727 61.0924 62.9121 61.8788 62.5749 62.248C62.5432 62.2325 62.4413 62.1031 62.4103 62.0669C62.8752 61.58 63.3527 61.0372 63.8042 60.5352Z" fill="black"/>
<path d="M24.4837 59.2461C24.5956 59.3375 25.6344 60.6263 25.7466 60.7824C25.7374 60.8823 25.6997 60.8886 25.6147 60.9744C25.463 60.8323 24.4887 59.6166 24.3478 59.4261C24.3545 59.3371 24.402 59.3227 24.4837 59.2461Z" fill="black"/>
<path d="M39.7999 68.7852C40.3809 68.8745 41.1827 68.9244 41.7309 69.0411C41.7851 69.149 41.7632 69.1476 41.7456 69.2812C41.4961 69.2464 39.8373 69.0748 39.7697 68.9912L39.7999 68.7852Z" fill="black"/>
<path d="M29.6956 64.3516C29.8436 64.4064 31.0859 65.2491 31.2385 65.3743C31.2426 65.4706 31.2083 65.5015 31.1607 65.5961C30.9477 65.4548 29.6856 64.6332 29.5791 64.5217L29.6956 64.3516Z" fill="black"/>
<path d="M50.7103 67.3607C51.2621 67.341 51.4574 67.5365 51.6625 68.042C51.4947 68.0224 51.4853 67.9095 51.3619 67.8427C51.0271 67.6617 50.9417 67.6891 50.7103 67.3607Z" fill="black"/>
<path d="M46.7353 68.0156C47.3262 68.1025 47.3776 68.3173 47.5451 68.8541C47.3833 68.8253 47.2932 68.6133 47.2071 68.4748C46.8475 68.382 46.8827 68.3461 46.7353 68.0156Z" fill="black"/>
<path d="M24.7764 57.9219C24.8838 58.0171 24.9335 58.2548 24.9766 58.4021C24.8495 58.6053 24.7251 58.8099 24.6036 59.0163C24.5433 58.9882 24.5684 59.0096 24.5353 58.9407C24.6883 58.5185 24.5339 58.3248 24.7764 57.9219Z" fill="black"/>
<path d="M28.2356 61.7559C28.6562 62.0308 28.3784 62.5427 28.2365 62.8823L28.168 62.8271C28.1483 62.6984 28.2103 62.5293 28.2472 62.3975L28.1072 62.1254L28.2356 61.7559Z" fill="black"/>
<path d="M64.778 57.8926C64.9841 57.8895 65.4767 58.0958 65.6529 58.2196C65.4458 58.203 65.225 58.1602 65.0186 58.1246C64.9971 58.1377 64.9757 58.1503 64.9539 58.1626C64.6961 58.3082 64.6226 58.2519 64.3322 58.1707C64.502 58.0462 64.5917 57.9928 64.778 57.8926Z" fill="black"/>
<path d="M51.7111 68.2043C51.7316 68.2011 51.7906 68.2053 51.8146 68.2064C51.8688 68.3192 51.8718 68.283 51.8522 68.3853C51.7163 68.4848 51.4042 68.5569 51.2292 68.6121L51.1797 68.6177C51.0762 68.571 51.1088 68.6026 51.0572 68.5045C51.1668 68.3217 51.49 68.2683 51.7111 68.2043Z" fill="black"/>
<path d="M65.7072 58.1719C65.8338 58.251 65.8201 58.2144 65.8507 58.3237C65.7768 58.5378 65.6404 58.6591 65.4896 58.8325C65.3967 58.7952 65.3524 58.7987 65.3166 58.7266C65.345 58.5786 65.5929 58.316 65.7072 58.1719Z" fill="black"/>
<path d="M23.9441 58.6152C24.098 58.6567 24.3702 59.0248 24.3883 59.1907L24.2842 59.3043L24.2341 59.2923C24.0977 59.1415 23.8997 58.9352 23.8603 58.7337L23.9441 58.6152Z" fill="black"/>
</g>
<defs>
<filter id="filter0_d_11681_27251" x="26.7753" y="38.4824" width="17.1415" height="27.6403" filterUnits="userSpaceOnUse" color-interpolation-filters="sRGB">
<feFlood flood-opacity="0" result="BackgroundImageFix"/>
<feColorMatrix in="SourceAlpha" type="matrix" values="0 0 0 0 0 0 0 0 0 0 0 0 0 0 0 0 0 0 127 0" result="hardAlpha"/>
<feOffset dy="0.16"/>
<feGaussianBlur stdDeviation="0.08"/>
<feComposite in2="hardAlpha" operator="out"/>
<feColorMatrix type="matrix" values="0 0 0 0 0 0 0 0 0 0 0 0 0 0 0 0 0 0 0.25 0"/>
<feBlend mode="normal" in2="BackgroundImageFix" result="effect1_dropShadow_11681_27251"/>
<feBlend mode="normal" in="SourceGraphic" in2="effect1_dropShadow_11681_27251" result="shape"/>
</filter>
<clipPath id="clip0_11681_27251">
<rect width="45.36" height="72" fill="white" transform="translate(22.5559 9)"/>
</clipPath>
</defs>
</svg>
