<svg width="90" height="90" viewBox="0 0 90 90" fill="none" xmlns="http://www.w3.org/2000/svg">
<g opacity="0.8">
<mask id="mask0_11681_27234" style="mask-type:luminance" maskUnits="userSpaceOnUse" x="13" y="13" width="64" height="64">
<path d="M13.5 13.5H76.5V76.5H13.5V13.5Z" fill="white"/>
</mask>
<g mask="url(#mask0_11681_27234)">
<path d="M75.2656 51.41V38.59H70.1335C69.515 36.1576 68.5522 33.8633 67.3012 31.76L70.9324 28.1288L61.8673 19.0636L58.2359 22.6949C56.1328 21.4439 53.8385 20.4811 51.4061 19.8626V14.7305H38.5861V19.8626C36.1537 20.4809 33.8594 21.4439 31.7561 22.6949L28.1249 19.0636L19.0598 28.1288L22.691 31.76C21.44 33.8633 20.4772 36.1576 19.8587 38.59H14.7266V51.41H19.8587C20.4772 53.8424 21.44 56.1367 22.691 58.2398L19.0598 61.8712L28.1249 70.9363L31.7561 67.3051C33.8594 68.5561 36.1537 69.5189 38.5861 70.1374V75.2695H51.4061V70.1374C53.8385 69.5189 56.1328 68.5561 58.2359 67.3051L61.8673 70.9363L70.9324 61.8712L67.3012 58.2398C68.5522 56.1367 69.515 53.8424 70.1335 51.41H75.2656Z" stroke="black" stroke-miterlimit="10" stroke-linecap="round" stroke-linejoin="round"/>
<path d="M41.0156 44.6813L43.8754 47.541L48.9594 42.457" stroke="#F47922" stroke-miterlimit="10" stroke-linecap="round" stroke-linejoin="round"/>
<path d="M44.984 32.8184L55.3203 36.0454V44.6769C55.3203 50.7847 50.983 56.032 44.9844 57.1816C38.9857 56.032 34.6484 50.7847 34.6484 44.6769V36.0454L44.9847 32.8184" stroke="#0DB14B" stroke-miterlimit="10" stroke-linecap="round" stroke-linejoin="round"/>
<path d="M50.472 27.1165C58.122 29.4618 63.6844 36.5812 63.6844 44.9995C63.6844 55.3282 55.3115 63.7012 44.9829 63.7012C34.6542 63.7012 26.2812 55.3282 26.2812 44.9995C26.2812 36.6076 31.8088 29.5066 39.4215 27.1388" stroke="black" stroke-miterlimit="10" stroke-linecap="round" stroke-linejoin="round"/>
</g>
</g>
</svg>
