<svg width="90" height="90" viewBox="0 0 90 90" fill="none" xmlns="http://www.w3.org/2000/svg">
<mask id="mask0_6654_16051" style="mask-type:luminance" maskUnits="userSpaceOnUse" x="6" y="6" width="78" height="78">
<path d="M6.98438 6.98436H83.0164V83.0164H6.98438V6.98436Z" fill="white"/>
</mask>
<g mask="url(#mask0_6654_16051)">
<path d="M71.0907 39.6221C71.3957 38.0117 71.5552 36.35 71.5552 34.651C71.5552 32.9004 71.3858 31.1893 71.0625 29.5333" stroke="black" stroke-width="1.4" stroke-miterlimit="10" stroke-linecap="round" stroke-linejoin="round"/>
<path d="M54.0625 59.6211C56.4991 58.7372 58.7697 57.5068 60.8145 55.9894" stroke="black" stroke-width="1.4" stroke-miterlimit="10" stroke-linecap="round" stroke-linejoin="round"/>
<path d="M29.8125 56.4296C31.6956 57.7461 33.7571 58.8245 35.9537 59.6213" stroke="black" stroke-width="1.4" stroke-miterlimit="10" stroke-linecap="round" stroke-linejoin="round"/>
<path d="M19.2939 27.9956C18.7451 30.1223 18.4531 32.3523 18.4531 34.6504C18.4531 36.3162 18.6065 37.9463 18.9001 39.5271" stroke="black" stroke-width="1.4" stroke-miterlimit="10" stroke-linecap="round" stroke-linejoin="round"/>
<path d="M37.4318 9.19282C34.7471 9.99027 32.2399 11.2007 29.9844 12.7507" stroke="black" stroke-width="1.4" stroke-miterlimit="10" stroke-linecap="round" stroke-linejoin="round"/>
<path d="M60.3417 12.9673C56.0114 9.90061 50.7225 8.09827 45.0123 8.09827C44.1917 8.09827 43.3797 8.13554 42.5781 8.20831" stroke="black" stroke-width="1.4" stroke-miterlimit="10" stroke-linecap="round" stroke-linejoin="round"/>
<path d="M55.2971 34.6518C55.2971 34.1055 55.2521 33.57 55.1697 33.0469C55.155 32.9536 55.1981 32.8614 55.2799 32.8142L57.2742 31.6627C57.3837 31.5996 57.4211 31.4598 57.358 31.3505L54.0435 25.6095C53.9804 25.5002 53.8405 25.4627 53.7312 25.5259L51.737 26.6772C51.6553 26.7243 51.5539 26.7156 51.4805 26.656C50.6505 25.9836 49.7144 25.437 48.7003 25.047C48.6124 25.0133 48.5539 24.93 48.5539 24.8357V22.5366C48.5539 22.4104 48.4514 22.3081 48.3253 22.3081H41.6961C41.5701 22.3081 41.4676 22.4104 41.4676 22.5366V24.8357C41.4676 24.93 41.4091 25.0133 41.3212 25.047C40.3071 25.437 39.3709 25.9836 38.5408 26.656C38.4676 26.7156 38.3662 26.7243 38.2845 26.6772L36.2903 25.5259C36.1809 25.4627 36.0411 25.5002 35.978 25.6095L32.6635 31.3505C32.6004 31.4598 32.6378 31.5996 32.7471 31.6627L34.7416 32.8142C34.8234 32.8614 34.8665 32.9536 34.8518 33.0469C34.7694 33.57 34.7244 34.1055 34.7244 34.6518C34.7244 35.1982 34.7694 35.7337 34.8518 36.2568C34.8665 36.3501 34.8234 36.4423 34.7416 36.4895L32.7471 37.641C32.6378 37.7041 32.6004 37.8438 32.6635 37.9531L35.978 43.6942C36.0411 43.8034 36.1809 43.8409 36.2903 43.7778L38.2845 42.6264C38.3662 42.5792 38.4676 42.5881 38.541 42.6477C39.3709 43.3201 40.3071 43.8667 41.3212 44.2567C41.4091 44.2904 41.4676 44.3737 41.4676 44.468V46.7669C41.4676 46.8933 41.5701 46.9956 41.6961 46.9956H48.3253C48.4514 46.9956 48.5539 46.8933 48.5539 46.7669V44.468C48.5539 44.3737 48.6124 44.2904 48.7003 44.2567C49.7144 43.8667 50.6505 43.3201 51.4807 42.6477C51.5539 42.5881 51.6553 42.5792 51.737 42.6264L53.7312 43.7778C53.8405 43.8409 53.9804 43.8034 54.0435 43.6942L57.358 37.9531C57.4211 37.8438 57.3837 37.7041 57.2742 37.641L55.2799 36.4895C55.1981 36.4423 55.155 36.3501 55.1697 36.2568C55.2521 35.7337 55.2971 35.1982 55.2971 34.6518Z" stroke="#0DB14B" stroke-width="1.4" stroke-miterlimit="10" stroke-linecap="round" stroke-linejoin="round"/>
<path d="M42.4099 29.2931C40.4239 30.2582 39.0547 32.2951 39.0547 34.6516C39.0547 37.94 41.7204 40.6057 45.0088 40.6057C48.2972 40.6057 50.9629 37.94 50.9629 34.6516C50.9629 32.2951 49.5939 30.2582 47.6077 29.2933" stroke="#F47920" stroke-width="1.4" stroke-miterlimit="10" stroke-linecap="round" stroke-linejoin="round"/>
<path d="M50.1905 61.2414C50.1905 58.3734 47.8656 56.0484 44.9976 56.0484C42.1298 56.0484 39.8047 58.3734 39.8047 61.2414C39.8047 64.1093 42.1298 66.4343 44.9976 66.4343C47.8656 66.4343 50.1905 64.1093 50.1905 61.2414Z" stroke="black" stroke-width="1.4" stroke-miterlimit="10" stroke-linecap="round" stroke-linejoin="round"/>
<path d="M49.3598 71.2025H52.4574C54.0976 71.2025 55.4274 72.5321 55.4274 74.1725V81.9023H45" stroke="black" stroke-width="1.4" stroke-miterlimit="10" stroke-linecap="round" stroke-linejoin="round"/>
<path d="M39.8095 81.9023H34.5703V74.1725C34.5703 72.5321 35.9001 71.2025 37.5403 71.2025H44.1694" stroke="black" stroke-width="1.4" stroke-miterlimit="10" stroke-linecap="round" stroke-linejoin="round"/>
<path d="M26.8135 53.491H16.407C15.8404 53.491 15.483 52.8817 15.7595 52.3872L20.9751 43.0551C21.2584 42.548 21.9885 42.5486 22.2709 43.0563L27.4619 52.3885C27.7371 52.883 27.3795 53.491 26.8135 53.491Z" stroke="black" stroke-width="1.4" stroke-miterlimit="10" stroke-linecap="round" stroke-linejoin="round"/>
<path d="M73.612 54.0129H64.7113C64.3011 54.0129 63.9688 53.6806 63.9688 53.2704V44.3696C63.9688 43.9596 64.3011 43.6271 64.7113 43.6271H73.612C74.0221 43.6271 74.3545 43.9596 74.3545 44.3696V53.2704C74.3545 53.6806 74.0221 54.0129 73.612 54.0129Z" stroke="black" stroke-width="1.4" stroke-miterlimit="10" stroke-linecap="round" stroke-linejoin="round"/>
<path d="M27.9479 18.6304C27.9479 15.4346 25.3572 12.844 22.1615 12.844C18.9657 12.844 16.375 15.4346 16.375 18.6304C16.375 21.8262 18.9657 24.4167 22.1615 24.4167C25.3572 24.4167 27.9479 21.8262 27.9479 18.6304Z" stroke="black" stroke-width="1.4" stroke-miterlimit="10" stroke-linecap="round" stroke-linejoin="round"/>
<path d="M67.1213 12.5696L68.9111 16.2065C68.9758 16.3381 69.1012 16.4293 69.2462 16.4505L73.2501 17.0339C73.615 17.0871 73.7606 17.5351 73.4972 17.7928L70.5982 20.6269C70.4936 20.7289 70.446 20.8761 70.4706 21.0201L71.1548 25.0207C71.217 25.3844 70.8349 25.6615 70.5085 25.4894L66.9296 23.6024C66.7997 23.5338 66.6444 23.5338 66.5144 23.6024L62.9356 25.4894C62.6092 25.6615 62.2271 25.3844 62.2893 25.0207L62.9734 21.0201C62.9981 20.8761 62.9504 20.7289 62.8459 20.6269L59.9469 17.7928C59.6834 17.5351 59.8293 17.0871 60.194 17.0339L64.1978 16.4505C64.3429 16.4293 64.4684 16.3381 64.533 16.2065L66.3227 12.5696C66.4858 12.2381 66.9583 12.2381 67.1213 12.5696Z" stroke="black" stroke-width="1.4" stroke-miterlimit="10" stroke-linecap="round" stroke-linejoin="round"/>
</g>
</svg>
