<svg width="90" height="90" viewBox="0 0 90 90" fill="none" xmlns="http://www.w3.org/2000/svg">
<mask id="mask0_6654_15991" style="mask-type:luminance" maskUnits="userSpaceOnUse" x="12" y="12" width="66" height="66">
<path d="M12.3828 12.3815H77.6198V77.6184H12.3828V12.3815Z" fill="white"/>
</mask>
<g mask="url(#mask0_6654_15991)">
<path d="M72.6233 55.8041V38.6924C72.6233 38.2235 72.2381 37.8383 71.7692 37.8383H59.7422M72.6233 76.6631V59.9367" stroke="black" stroke-width="1.4" stroke-miterlimit="10" stroke-linecap="round" stroke-linejoin="round"/>
<path d="M63.9844 37.8379V32.9021" stroke="black" stroke-width="1.4" stroke-miterlimit="10" stroke-linecap="round" stroke-linejoin="round"/>
<path d="M68.9844 37.8381V34.4834" stroke="black" stroke-width="1.4" stroke-miterlimit="10" stroke-linecap="round" stroke-linejoin="round"/>
<path d="M59.7422 45.3906H66.1827" stroke="black" stroke-width="1.4" stroke-miterlimit="10" stroke-linecap="round" stroke-linejoin="round"/>
<path d="M59.7422 52.2354H66.1827" stroke="black" stroke-width="1.4" stroke-miterlimit="10" stroke-linecap="round" stroke-linejoin="round"/>
<path d="M59.7422 59.0789H66.1827" stroke="black" stroke-width="1.4" stroke-miterlimit="10" stroke-linecap="round" stroke-linejoin="round"/>
<path d="M59.7422 65.9253H66.1827" stroke="black" stroke-width="1.4" stroke-miterlimit="10" stroke-linecap="round" stroke-linejoin="round"/>
<path d="M33.5245 57.2501H50.1202C50.3964 57.2501 50.6254 57.4791 50.6254 57.759V61.499C50.6254 61.7788 50.3964 62.0078 50.1202 62.0078H33.5245C33.2447 62.0078 33.0156 61.7788 33.0156 61.499V57.759C33.0156 57.4791 33.2447 57.2501 33.5245 57.2501Z" stroke="black" stroke-width="1.4" stroke-miterlimit="10" stroke-linecap="round" stroke-linejoin="round"/>
<path d="M14.4219 76.6631H34.4667H75.5815" stroke="black" stroke-width="1.4" stroke-miterlimit="10" stroke-linecap="round" stroke-linejoin="round"/>
<path d="M41.8281 62.0083V76.6631" stroke="black" stroke-width="1.4" stroke-miterlimit="10" stroke-linecap="round" stroke-linejoin="round"/>
<path d="M49.1573 62.0083V76.6631H34.4844V62.0083" stroke="black" stroke-width="1.4" stroke-miterlimit="10" stroke-linecap="round" stroke-linejoin="round"/>
<path d="M30.7687 28.7665H34.8503C35.0575 28.7665 35.2282 28.9374 35.2282 29.1446V35.8068C35.2282 36.0139 35.0575 36.1848 34.8503 36.1848H30.7687C30.5578 36.1848 30.3906 36.0139 30.3906 35.8068V29.1446C30.3906 28.9374 30.5578 28.7665 30.7687 28.7665Z" stroke="black" stroke-width="1.4" stroke-miterlimit="10" stroke-linecap="round" stroke-linejoin="round"/>
<path d="M30.7687 41.9194H34.8503C35.0575 41.9194 35.2282 42.0902 35.2282 42.2974V48.9596C35.2282 49.1668 35.0575 49.3376 34.8503 49.3376H30.7687C30.5578 49.3376 30.3906 49.1668 30.3906 48.9596V42.2974C30.3906 42.0902 30.5578 41.9194 30.7687 41.9194Z" stroke="black" stroke-width="1.4" stroke-miterlimit="10" stroke-linecap="round" stroke-linejoin="round"/>
<path d="M40.2857 22.7539H22.8504C22.556 22.7539 22.3125 22.5104 22.3125 22.2124V18.2361C22.3125 17.9381 22.556 17.6945 22.8504 17.6945H60.7994C61.0974 17.6945 61.341 17.9381 61.341 18.2361V22.2124C61.341 22.5104 61.0974 22.7539 60.7994 22.7539H44.5164" stroke="#F47920" stroke-width="1.4" stroke-miterlimit="10" stroke-linecap="round" stroke-linejoin="round"/>
<path d="M49.3545 28.7665H53.4362C53.6433 28.7665 53.8142 28.9374 53.8142 29.1446V35.8068C53.8142 36.0139 53.6433 36.1848 53.4362 36.1848H49.3545C49.1473 36.1848 48.9766 36.0139 48.9766 35.8068V29.1446C48.9766 28.9374 49.1473 28.7665 49.3545 28.7665Z" stroke="black" stroke-width="1.4" stroke-miterlimit="10" stroke-linecap="round" stroke-linejoin="round"/>
<path d="M49.3545 41.9194H53.4362C53.6433 41.9194 53.8142 42.0902 53.8142 42.2974V48.9596C53.8142 49.1668 53.6433 49.3376 53.4362 49.3376H49.3545C49.1473 49.3376 48.9766 49.1668 48.9766 48.9596V42.2974C48.9766 42.0902 49.1473 41.9194 49.3545 41.9194Z" stroke="black" stroke-width="1.4" stroke-miterlimit="10" stroke-linecap="round" stroke-linejoin="round"/>
<path d="M27.3594 17.6951V13.3372" stroke="black" stroke-width="1.4" stroke-miterlimit="10" stroke-linecap="round" stroke-linejoin="round"/>
<path d="M32.3672 17.6958V14.7335" stroke="black" stroke-width="1.4" stroke-miterlimit="10" stroke-linecap="round" stroke-linejoin="round"/>
<path d="M21.6132 66.8354C25.2988 66.8354 28.3046 63.3281 28.3046 59.021C28.3046 54.7177 25.2988 51.2066 21.6132 51.2066C17.9277 51.2066 14.9219 54.7177 14.9219 59.021C14.9219 63.3281 17.9277 66.8354 21.6132 66.8354Z" stroke="#0DB14B" stroke-width="1.4" stroke-miterlimit="10" stroke-linecap="round" stroke-linejoin="round"/>
<path d="M59.7446 22.7547V76.6631H23.9219M23.9219 51.6861V22.7547" stroke="black" stroke-width="1.4" stroke-miterlimit="10" stroke-linecap="round" stroke-linejoin="round"/>
<path d="M23.9207 66.359V76.6631H19.3047V66.359" stroke="black" stroke-width="1.4" stroke-miterlimit="10" stroke-linecap="round" stroke-linejoin="round"/>
</g>
</svg>
