<svg width="90" height="90" viewBox="0 0 90 90" fill="none" xmlns="http://www.w3.org/2000/svg">
<mask id="mask0_6654_16128" style="mask-type:luminance" maskUnits="userSpaceOnUse" x="8" y="8" width="74" height="74">
<path d="M8.71875 8.7121H81.2947V81.2881H8.71875V8.7121Z" fill="white"/>
</mask>
<g mask="url(#mask0_6654_16128)">
<path d="M64.2437 72.1223C64.1585 74.8921 63.4881 77.5145 62.3527 79.8704H27.6566C26.5169 77.5074 25.8464 74.8765 25.7656 72.0982L29.8877 73.7779C30.4547 74.009 31.0642 73.9665 31.5703 73.7099C31.9941 73.4973 32.3442 73.1372 32.537 72.6638L35.82 64.6081C36.1843 63.7151 35.8667 62.7129 35.1098 62.18C34.9865 62.0935 34.8504 62.0184 34.7044 61.9588L29.6609 59.9035C33.1749 55.2697 38.74 52.2773 45.0039 52.2773C51.2764 52.2773 56.847 55.2767 60.361 59.9205L55.3616 61.9588C55.2028 62.024 55.0554 62.1063 54.9236 62.2055C54.1908 62.7427 53.8888 63.7279 54.246 64.6081L57.529 72.6638C57.7145 73.1174 58.0435 73.4675 58.4433 73.6816C58.9592 73.9622 59.5927 74.0175 60.1781 73.7779L64.2437 72.1223Z" stroke="black" stroke-width="1.4" stroke-miterlimit="10" stroke-linecap="round" stroke-linejoin="round"/>
<path d="M58.4433 73.6816C58.0761 75.9892 57.1291 78.1042 55.7541 79.8704H34.2565C32.887 78.1112 31.9403 76.0063 31.5703 73.7099C31.9941 73.4973 32.3443 73.1372 32.537 72.6638L35.82 64.6081C36.1843 63.7151 35.8666 62.7129 35.1098 62.18C37.5919 59.5533 41.1057 57.9147 45.0038 57.9147C48.9147 57.9147 52.44 59.5633 54.9236 62.2055C54.1908 62.7427 53.8889 63.7279 54.2461 64.6081L57.529 72.6638C57.7145 73.1174 58.0435 73.4675 58.4433 73.6816Z" stroke="black" stroke-width="1.4" stroke-miterlimit="10" stroke-linecap="round" stroke-linejoin="round"/>
<path d="M60.8168 40.9615C60.0316 40.6786 59.2339 40.4334 58.4253 40.2309C56.4608 39.7391 54.4365 39.4882 52.3953 39.4882H50.1643C49.8424 42.1247 47.6155 44.2467 44.8216 44.2737H44.6203C41.8264 44.2467 39.6009 42.1233 39.2777 39.4882H37.6136C33.5312 39.4882 29.5126 40.4932 25.9135 42.4153C23.1041 43.915 20.6376 45.925 18.6219 48.3164C16.6062 50.7077 15.0427 53.4775 14.0391 56.4996L11.1857 65.0939C10.1864 68.1032 12.4274 71.209 15.5984 71.209H23.5846C22.5456 70.7852 22.0466 69.5987 22.469 68.5597L25.7519 60.504C26.1758 59.465 27.3622 58.966 28.4013 59.3885L29.6926 59.8619C33.2094 55.2522 38.7603 52.2769 45.0058 52.2769C51.2515 52.2769 56.8024 55.2522 60.3191 59.8619L61.6076 59.3885L61.6163 59.4097L61.6686 59.3885C62.7091 58.966 63.894 59.465 64.3179 60.504L67.6008 68.5597C68.0248 69.5987 67.5257 70.7852 66.4852 71.209H74.4105C77.5816 71.209 79.8225 68.1032 78.8231 65.0939L75.9697 56.4996C74.9083 53.3043 73.2196 50.389 71.0334 47.9073" stroke="black" stroke-width="1.4" stroke-miterlimit="10" stroke-linecap="round" stroke-linejoin="round"/>
<path d="M29.8839 73.7794L23.5784 71.2099C22.539 70.7863 22.0397 69.6003 22.4633 68.5609L25.7459 60.5052C26.1695 59.4658 27.3555 58.9665 28.395 59.3902L34.7004 61.9596C35.74 62.3832 36.2391 63.5693 35.8156 64.6087L32.5329 72.6642C32.1094 73.7037 30.9234 74.2029 29.8839 73.7794Z" stroke="black" stroke-width="1.4" stroke-miterlimit="10" stroke-linecap="round" stroke-linejoin="round"/>
<path d="M60.1764 73.7794L66.4817 71.2099C67.5211 70.7863 68.0205 69.6003 67.597 68.5609L64.3142 60.5052C63.8906 59.4658 62.7047 58.9665 61.6653 59.3902L55.3598 61.9596C54.3202 62.3832 53.821 63.5693 54.2445 64.6087L57.5273 72.6642C57.9509 73.7037 59.1369 74.2029 60.1764 73.7794Z" stroke="black" stroke-width="1.4" stroke-miterlimit="10" stroke-linecap="round" stroke-linejoin="round"/>
<path d="M56.4413 23.8339V26.8915C56.4413 31.5196 53.7579 35.5226 49.8627 37.4263C48.3106 38.1861 46.5655 38.6128 44.72 38.6128C42.8759 38.6128 41.1309 38.1861 39.5788 37.4263C35.6835 35.5226 33 31.5196 33 26.8915V23.8339C33 23.369 33.0269 22.9111 33.0809 22.4618C35.7955 20.843 41.1763 18.4375 46.9327 20.3327C49.1028 21.0471 50.8631 20.4609 52.1105 19.436C51.9696 20.2794 52.2582 21.084 53.0776 21.461C54.1081 21.9345 55.0223 22.836 56.4314 23.3832C56.4384 23.532 56.4413 23.6823 56.4413 23.8339Z" stroke="black" stroke-width="1.4" stroke-miterlimit="10" stroke-linecap="round" stroke-linejoin="round"/>
<path d="M56.4413 23.8339V26.8915C56.4413 31.5196 53.7579 35.5226 49.8627 37.4263C48.3106 38.1861 46.5655 38.6128 44.72 38.6128C42.8759 38.6128 41.1309 38.1861 39.5788 37.4263C35.6835 35.5226 33 31.5196 33 26.8915V23.8339C33 23.369 33.0269 22.9111 33.0809 22.4618C35.7955 20.843 41.1763 18.4375 46.9327 20.3327C49.1028 21.0471 50.8631 20.4609 52.1105 19.436C51.9696 20.2794 52.2582 21.084 53.0776 21.461C54.1081 21.9345 55.0223 22.836 56.4314 23.3832C56.4384 23.532 56.4413 23.6823 56.4413 23.8339Z" stroke="#F47920" stroke-width="1.4" stroke-miterlimit="10" stroke-linecap="round" stroke-linejoin="round"/>
<path d="M44.8179 44.2744H44.6166C41.3323 44.2418 38.8318 41.3147 39.2883 38.0615L39.576 37.4265C41.1282 38.1863 42.8731 38.6129 44.7173 38.6129C46.5629 38.6129 48.3078 38.1863 49.86 37.4265L50.1477 38.0615C50.6027 41.3147 48.1023 44.2418 44.8179 44.2744Z" stroke="black" stroke-width="1.4" stroke-miterlimit="10" stroke-linecap="round" stroke-linejoin="round"/>
<path d="M26.8438 59.3984V55.3488" stroke="black" stroke-width="1.4" stroke-miterlimit="10" stroke-linecap="round" stroke-linejoin="round"/>
<path d="M63.0938 59.3984V55.3488" stroke="black" stroke-width="1.4" stroke-miterlimit="10" stroke-linecap="round" stroke-linejoin="round"/>
<path d="M31.8906 65.4436L34.9306 66.7898" stroke="black" stroke-width="1.4" stroke-miterlimit="10" stroke-linecap="round" stroke-linejoin="round"/>
<path d="M30.2969 69.1623L33.414 70.5425" stroke="black" stroke-width="1.4" stroke-miterlimit="10" stroke-linecap="round" stroke-linejoin="round"/>
<path d="M58.1726 65.4436L55.1328 66.7898" stroke="black" stroke-width="1.4" stroke-miterlimit="10" stroke-linecap="round" stroke-linejoin="round"/>
<path d="M59.7733 69.1623L56.6562 70.5425" stroke="black" stroke-width="1.4" stroke-miterlimit="10" stroke-linecap="round" stroke-linejoin="round"/>
<path d="M54.1838 64.4449L44.8038 67.8582L35.8239 64.6079L34.0781 68.8921L40.6573 73.174L41.2332 79.8701H44.8038H48.3743L48.9501 73.174L55.9295 68.729L54.1838 64.4449Z" stroke="#0DB14B" stroke-width="1.4" stroke-miterlimit="10" stroke-linecap="round" stroke-linejoin="round"/>
<path d="M44.7919 26.0217L43.4844 29.4519H45.9565" stroke="black" stroke-width="1.4" stroke-miterlimit="10" stroke-linecap="round" stroke-linejoin="round"/>
<path d="M53.4952 15.9343L52.3684 18.6519C52.1645 19.0993 52.1611 19.1796 52.1072 19.4348C50.8598 20.4596 49.0995 21.046 46.9295 20.3316C38.6993 17.6228 31.2362 23.7039 31.2362 23.7039C31.2362 23.7039 30.17 10.1285 44.7025 10.1285C48.2214 10.1285 50.6201 11.2588 52.2715 12.0954C53.6774 12.8078 54.2238 14.5366 53.4952 15.9343Z" stroke="black" stroke-width="1.4" stroke-miterlimit="10" stroke-linecap="round" stroke-linejoin="round"/>
<path d="M53.5575 15.8258L52.3745 18.6522C51.8383 19.7135 52.0044 20.9652 53.0807 21.4601C54.3563 22.0467 55.4554 23.2891 57.5339 23.7039C57.5339 23.7039 58.0086 18.9449 56.447 15.8292C55.8562 14.6507 54.1668 14.6567 53.5575 15.8258Z" stroke="black" stroke-width="1.4" stroke-miterlimit="10" stroke-linecap="round" stroke-linejoin="round"/>
</g>
</svg>
