<svg width="90" height="90" viewBox="0 0 90 90" fill="none" xmlns="http://www.w3.org/2000/svg">
<path d="M15.8984 47.5399C16.1756 31.6664 29.1225 18.9434 44.9985 18.9434C60.8744 18.9434 73.8214 31.6664 74.0984 47.5399" stroke="black" stroke-width="1.4" stroke-miterlimit="22.9256" stroke-linecap="round" stroke-linejoin="round"/>
<path d="M57.7433 64.1432L69.8486 61.2202C73.6005 60.3859 74.5751 64.8804 71.5341 65.9795C69.4436 66.7104 60.0388 70.7266 53.564 73.1542C48.9067 74.9005 47.4982 75.1338 42.5935 74.9L35.1373 74.5444L33.7935 76.6801M16.6719 76.6801L21.0041 68.9451C27.7792 56.5143 39.4865 62.6079 45.2369 62.0765C46.4674 61.9628 53.9303 61.1131 55.161 60.9994C56.4452 60.8808 57.5902 61.8705 57.7052 63.1988C57.8203 64.5272 56.7686 65.3149 55.5793 65.8298C52.4608 67.1799 49.0685 68.3575 46.223 69.0258" stroke="black" stroke-width="1.4" stroke-miterlimit="2.6131" stroke-linecap="round" stroke-linejoin="round"/>
<path fill-rule="evenodd" clip-rule="evenodd" d="M76.6806 48.0481C76.6806 51.2354 74.0728 53.8432 70.8855 53.8432H19.1154C15.9281 53.8432 13.3203 51.2354 13.3203 48.0481H76.6806Z" stroke="#0DB14B" stroke-width="1.4" stroke-miterlimit="22.9256" stroke-linecap="round" stroke-linejoin="round"/>
<path d="M24.8125 36.3937C26.8583 32.8501 29.8008 29.9076 33.3443 27.8618" stroke="black" stroke-width="1.4" stroke-miterlimit="22.9256" stroke-linecap="round" stroke-linejoin="round"/>
<path fill-rule="evenodd" clip-rule="evenodd" d="M44.9997 18.9442C46.5485 18.9442 47.8117 17.681 47.8117 16.132C47.8117 14.5832 46.5485 13.3198 44.9997 13.3198C43.4508 13.3198 42.1875 14.583 42.1875 16.132C42.1875 17.6808 43.4508 18.9442 44.9997 18.9442Z" stroke="#F47920" stroke-width="1.4" stroke-miterlimit="22.9256" stroke-linecap="round" stroke-linejoin="round"/>
</svg>
