<svg width="153" height="92" viewBox="0 0 153 92" fill="none" xmlns="http://www.w3.org/2000/svg">
<g clip-path="url(#clip0_6057_16954)">
<mask id="mask0_6057_16954" style="mask-type:luminance" maskUnits="userSpaceOnUse" x="40" y="4" width="73" height="73">
<path d="M40.4004 4.79981H112.4V76.7998H40.4004V4.79981Z" fill="white"/>
</mask>
<g mask="url(#mask0_6057_16954)">
<path d="M63.0199 62.9224H41.4551V51.5369C41.4551 46.4699 42.7487 44.6022 47.6354 43.2647L56.5351 40.8289L56.886 37.2759M64.9544 37.2759L65.3051 40.8289L69.162 41.8844" stroke="#3F3F3F" stroke-width="1.6" stroke-miterlimit="22.926"/>
<path d="M52.3806 14.8762C50.99 16.4864 50.1465 18.5808 50.1465 20.8626V28.2049C50.1465 32.4717 54.9938 38.1714 60.9185 38.1714C66.8432 38.1714 71.6905 32.4717 71.6905 28.2049V20.8626C71.6905 15.8122 67.5584 11.68 62.508 11.68H59.3292C57.315 11.68 55.4472 12.3377 53.929 13.4482" stroke="#2BB04C" stroke-width="1.6" stroke-miterlimit="22.926"/>
<path d="M50.1465 23.1582C52.8555 22.7618 55.1053 21.1205 57.3553 19.7222C61.445 22.5188 66.6826 23.2298 71.6905 22.9719" stroke="#F47920" stroke-width="1.6" stroke-miterlimit="22.926"/>
<path d="M89.7815 62.9224H111.346V55.1458C111.346 50.7531 110.001 49.7583 105.988 47.9736L99.668 45.1633L99.1845 41.9188M92.5477 41.9188L92.0641 45.1633L85.7444 47.9736C85.0593 48.2782 84.4522 48.5598 83.916 48.8393" stroke="#3F3F3F" stroke-width="1.6" stroke-miterlimit="22.926"/>
<path d="M86.8066 28.8798C89.3421 28.2005 91.209 26.9153 92.6559 25.1787C96.577 29.2031 101.001 28.8798 104.922 28.8798V34.2535C104.922 37.8411 100.846 42.6338 95.8642 42.6338C90.8824 42.6338 86.8066 37.8411 86.8066 34.2535V28.8798Z" stroke="#2BB04C" stroke-width="1.6" stroke-miterlimit="22.926"/>
<path d="M82.459 39.6858V24.9912C82.459 19.239 88.2201 14.5324 93.9727 14.5324H98.1515C103.904 14.5324 109.665 19.2391 109.665 24.9912V50.0547" stroke="#F47920" stroke-width="1.6" stroke-miterlimit="22.926"/>
<path d="M92.0645 45.163L95.8664 52.4204L99.6683 45.163" stroke="#3F3F3F" stroke-width="1.6" stroke-miterlimit="22.926"/>
<path d="M78.3796 69.9194H62.8223V65.1406C62.8223 61.6055 63.7843 60.498 67.1338 59.3696L72.178 57.6704L73.5874 55.1916M82.5984 69.9194H80.489M79.2162 55.1916L80.6254 57.6704L85.6696 59.3696C89.0192 60.498 89.9812 61.6057 89.9812 65.1406V69.9194H84.7077" stroke="#3F3F3F" stroke-width="1.6" stroke-miterlimit="22.926"/>
<path d="M83.9146 43.7412C83.9146 40.2179 81.0318 37.3352 77.5086 37.3352H75.2908C71.7674 37.3352 68.8848 40.2179 68.8848 43.7412V48.8635C68.8848 51.8401 72.2664 55.8164 76.3998 55.8164C80.533 55.8164 83.9146 51.8401 83.9146 48.8635V43.7412Z" stroke="#3F3F3F" stroke-width="1.6" stroke-miterlimit="22.926"/>
<path d="M68.8848 43.7412H83.9146" stroke="#3F3F3F" stroke-width="1.6" stroke-miterlimit="22.926"/>
<path d="M65.3031 40.8289C65.3031 43.2506 63.34 45.2139 60.9182 45.2139C58.4965 45.2139 56.5332 43.2506 56.5332 40.8289" stroke="#3F3F3F" stroke-width="1.6" stroke-miterlimit="22.926"/>
<path d="M80.6249 57.6705C80.6249 60.0031 78.734 61.894 76.4013 61.894C74.0687 61.894 72.1777 60.0031 72.1777 57.6705" stroke="#3F3F3F" stroke-width="1.6" stroke-miterlimit="22.926"/>
<path d="M98.1504 19.8062H100.26M102.369 21.9155H104.479" stroke="#3F3F3F" stroke-width="1.6" stroke-miterlimit="2.613"/>
</g>
</g>
<defs>
<clipPath id="clip0_6057_16954">
<rect width="72" height="72" fill="white" transform="translate(40.4004 4.7998)"/>
</clipPath>
</defs>
</svg>
