<svg width="153" height="92" viewBox="0 0 153 92" fill="none" xmlns="http://www.w3.org/2000/svg">
<g clip-path="url(#clip0_6057_17069)">
<path d="M97.2986 52.7388L101.667 41.0235C102.779 38.4351 105.028 38.9162 105.028 38.9162C106.768 39.2346 107.705 40.6608 107.506 42.2583L103.499 58.3681C102.464 62.5069 99.5786 66.5429 96.2194 69.1512L89.2953 74.1052V77.0266C89.2953 77.7256 88.7287 78.2922 88.0297 78.2922H76.4178V70.9487C76.4178 70.9487 75.6611 62.5854 83.6076 57.7556L93.1072 51.6581C93.5883 51.3483 94.1338 51.1969 94.6748 51.1969C95.4257 51.1969 96.1695 51.4881 96.7307 52.0492C97.8428 53.1628 97.8657 54.9617 96.7807 56.1024L90.3833 61.1478" stroke="#3F3F3F" stroke-width="1.44" stroke-miterlimit="10" stroke-linecap="round" stroke-linejoin="round"/>
<path d="M62.4133 61.1478L56.016 56.1024C54.9309 54.9617 54.9537 53.1628 56.066 52.0492C56.627 51.4881 57.3708 51.1969 58.1218 51.1969C58.6629 51.1969 59.2083 51.3483 59.6894 51.6581L69.1891 57.7556C77.1354 62.5854 76.3789 70.9487 76.3789 70.9487V78.2922H64.767C64.068 78.2922 63.5014 77.7256 63.5014 77.0266V74.1052L56.5773 69.1512C53.2179 66.5429 50.3327 62.5069 49.2976 58.3681L45.2899 42.2583C45.0915 40.6607 46.028 39.2345 47.7684 38.9162C47.7684 38.9162 50.0169 38.4351 51.1291 41.0235L55.4978 52.7388" stroke="#3F3F3F" stroke-width="1.44" stroke-miterlimit="10" stroke-linecap="round" stroke-linejoin="round"/>
<path d="M70.6432 50.6655H69.041C68.342 50.6655 67.7754 50.0989 67.7754 49.3999V42.6141C67.7754 39.8681 70.0015 37.6421 72.7474 37.6421H80.0506C82.7966 37.6421 85.0226 39.8682 85.0226 42.6141V49.3999C85.0226 50.0989 84.4559 50.6655 83.7569 50.6655H82.1754" stroke="#2BB04C" stroke-width="1.44" stroke-miterlimit="10" stroke-linecap="round" stroke-linejoin="round"/>
<path d="M82.4375 29.6445H90.0268C92.7728 29.6445 94.9988 31.8706 94.9988 34.6165V41.3187C94.9988 42.0636 94.3949 42.6674 93.65 42.6674H85.0122" stroke="#3F3F3F" stroke-width="1.44" stroke-miterlimit="10" stroke-linecap="round" stroke-linejoin="round"/>
<path d="M86.3764 29.6444C89.6175 29.6444 92.245 27.0169 92.245 23.7758C92.245 20.5347 89.6175 17.9072 86.3764 17.9072C83.1353 17.9072 80.5078 20.5347 80.5078 23.7758C80.5078 27.0169 83.1353 29.6444 86.3764 29.6444Z" stroke="#3F3F3F" stroke-width="1.44" stroke-miterlimit="10" stroke-linecap="round" stroke-linejoin="round"/>
<path d="M67.7796 42.6674H59.1417C58.3968 42.6674 57.793 42.0636 57.793 41.3187V34.6165C57.793 31.8705 60.0191 29.6445 62.765 29.6445H70.5274" stroke="#3F3F3F" stroke-width="1.44" stroke-miterlimit="10" stroke-linecap="round" stroke-linejoin="round"/>
<path d="M66.4194 29.6444C69.6605 29.6444 72.2879 27.0169 72.2879 23.7758C72.2879 20.5347 69.6605 17.9072 66.4194 17.9072C63.1782 17.9072 60.5508 20.5347 60.5508 23.7758C60.5508 27.0169 63.1782 29.6444 66.4194 29.6444Z" stroke="#3F3F3F" stroke-width="1.44" stroke-miterlimit="10" stroke-linecap="round" stroke-linejoin="round"/>
<circle cx="76.3984" cy="50.666" r="1.26562" fill="#3F3F3F"/>
<path d="M76.3998 37.6424C79.641 37.6424 82.2684 35.015 82.2684 31.7738C82.2684 28.5327 79.641 25.9053 76.3998 25.9053C73.1587 25.9053 70.5312 28.5327 70.5312 31.7738C70.5312 35.015 73.1587 37.6424 76.3998 37.6424Z" stroke="#F47920" stroke-width="1.44" stroke-miterlimit="10" stroke-linecap="round" stroke-linejoin="round"/>
</g>
<defs>
<clipPath id="clip0_6057_17069">
<rect width="64.8" height="64.8" fill="white" transform="translate(44.002 15.6997)"/>
</clipPath>
</defs>
</svg>
