<svg width="153" height="92" viewBox="0 0 153 92" fill="none" xmlns="http://www.w3.org/2000/svg">
<g clip-path="url(#clip0_6057_16991)">
<mask id="mask0_6057_16991" style="mask-type:luminance" maskUnits="userSpaceOnUse" x="40" y="4" width="73" height="73">
<path d="M40.2012 4.79981H112.201V76.7998H40.2012V4.79981Z" fill="white"/>
</mask>
<g mask="url(#mask0_6057_16991)">
<path d="M79.4355 66.3936H101.795C103.348 66.3936 104.607 65.1344 104.607 63.5811V18.0186C104.607 16.4652 103.348 15.2061 101.795 15.2061H97.0137" stroke="#3F3F3F" stroke-width="1.6" stroke-miterlimit="10" stroke-linecap="round" stroke-linejoin="round"/>
<path d="M49.2012 15.2061H44.4199C42.8666 15.2061 41.6074 16.4652 41.6074 18.0186V63.5811C41.6074 65.1344 42.8666 66.3936 44.4199 66.3936H66.7793" stroke="#3F3F3F" stroke-width="1.6" stroke-miterlimit="10" stroke-linecap="round" stroke-linejoin="round"/>
<path d="M70.0137 15.2061H55.3887" stroke="#3F3F3F" stroke-width="1.6" stroke-miterlimit="10" stroke-linecap="round" stroke-linejoin="round"/>
<path d="M76.2012 15.2061H90.8262" stroke="#3F3F3F" stroke-width="1.6" stroke-miterlimit="10" stroke-linecap="round" stroke-linejoin="round"/>
<path d="M47.7949 66.3936V69.7686C47.7949 71.3219 49.0541 72.5811 50.6074 72.5811H107.982C109.536 72.5811 110.795 71.3219 110.795 69.7686V24.2061C110.795 22.6527 109.536 21.3936 107.982 21.3936H104.607" stroke="#3F3F3F" stroke-width="1.6" stroke-miterlimit="10" stroke-linecap="round" stroke-linejoin="round"/>
<path d="M41.6074 32.0811H104.607" stroke="#3F3F3F" stroke-width="1.6" stroke-miterlimit="10" stroke-linecap="round" stroke-linejoin="round"/>
<path d="M52.2949 21.3936C50.5863 21.3936 49.2012 20.0084 49.2012 18.2998V12.1123C49.2012 10.4037 50.5863 9.01856 52.2949 9.01856C54.0035 9.01856 55.3887 10.4037 55.3887 12.1123V18.2998C55.3887 20.0084 54.0035 21.3936 52.2949 21.3936Z" stroke="#2BB04C" stroke-width="1.6" stroke-miterlimit="10" stroke-linecap="round" stroke-linejoin="round"/>
<path d="M73.1074 21.3936C71.3988 21.3936 70.0137 20.0084 70.0137 18.2998V12.1123C70.0137 10.4037 71.3988 9.01856 73.1074 9.01856C74.816 9.01856 76.2012 10.4037 76.2012 12.1123V18.2998C76.2012 20.0084 74.816 21.3936 73.1074 21.3936Z" stroke="#2BB04C" stroke-width="1.6" stroke-miterlimit="10" stroke-linecap="round" stroke-linejoin="round"/>
<path d="M93.9199 21.3936C95.6285 21.3936 97.0137 20.0084 97.0137 18.2998V12.1123C97.0137 10.4037 95.6285 9.01856 93.9199 9.01856C92.2113 9.01856 90.8262 10.4037 90.8262 12.1123V18.2998C90.8262 20.0084 92.2113 21.3936 93.9199 21.3936Z" stroke="#2BB04C" stroke-width="1.6" stroke-miterlimit="10" stroke-linecap="round" stroke-linejoin="round"/>
<path d="M73.1064 40.1771L76.0503 46.142L82.6328 47.0984L77.8697 51.7414L78.9941 58.2974L73.1064 55.2021L67.2187 58.2974L68.3432 51.7414L63.5801 47.0984L70.1626 46.142L73.1064 40.1771Z" stroke="#F47920" stroke-width="1.6" stroke-miterlimit="10" stroke-linecap="round" stroke-linejoin="round"/>
</g>
</g>
<defs>
<clipPath id="clip0_6057_16991">
<rect width="72" height="72" fill="white" transform="translate(40.2012 4.7998)"/>
</clipPath>
</defs>
</svg>
