<svg width="152" height="92" viewBox="0 0 152 92" fill="none" xmlns="http://www.w3.org/2000/svg">
<g clip-path="url(#clip0_6057_16882)">
<mask id="mask0_6057_16882" style="mask-type:luminance" maskUnits="userSpaceOnUse" x="43" y="15" width="65" height="66">
<path d="M43.1914 15.7H107.991V80.5H43.1914V15.7Z" fill="white"/>
</mask>
<g mask="url(#mask0_6057_16882)">
<path d="M93.1376 76.8398H47.169C45.4954 76.8398 44.1387 75.4831 44.1387 73.8096V22.3906C44.1387 20.7171 45.4954 19.3603 47.169 19.3603H104.01C105.683 19.3603 107.04 20.7171 107.04 22.3906V73.8096C107.04 75.4831 105.683 76.8398 104.01 76.8398H97.583" stroke="#3F3F3F" stroke-width="1.44" stroke-miterlimit="10" stroke-linecap="round" stroke-linejoin="round"/>
<path d="M57.0297 48.9516C57.7446 50.5907 58.7656 52.1052 60.0645 53.4054L73.1518 66.5071C74.5008 67.8577 76.6894 67.8577 78.0383 66.5071L91.1256 53.4054C94.4727 50.0546 95.9747 45.2816 95.1495 40.6179C94.8058 38.6745 93.8729 36.8836 92.4774 35.4882C89.5852 32.5961 85.1815 31.8472 81.496 33.621L77.1772 35.6995C76.1773 36.1807 75.0128 36.1807 74.0129 35.6995L69.694 33.621C66.0087 31.8472 61.6048 32.5961 58.7127 35.4882C57.3172 36.8836 56.3843 38.6745 56.0406 40.6179C55.8053 41.9474 55.7593 43.2857 55.891 44.5974" stroke="#3F3F3F" stroke-width="1.44" stroke-miterlimit="10" stroke-linecap="round" stroke-linejoin="round"/>
<path d="M50.5371 48.9551H62.0685C62.6364 48.9551 63.1432 48.5993 63.3362 48.0654L65.0982 43.1907C65.3025 42.6256 66.1059 42.6378 66.293 43.2088L69.6593 53.4833C69.8485 54.0611 70.6647 54.0643 70.8586 53.4881L74.0843 43.9015C74.2742 43.3374 75.0674 43.3246 75.2753 43.8824L76.6237 47.5013C76.8202 48.0288 77.3238 48.3787 77.8869 48.3787H81.4733C81.9969 48.3787 82.4733 48.6819 82.6947 49.1565L83.7631 51.4449C83.9896 51.9302 84.6796 51.9311 84.9074 51.4464L85.9851 49.1533C86.2074 48.6805 86.6827 48.3787 87.2052 48.3787H99.6369" stroke="#F47920" stroke-width="1.44" stroke-miterlimit="10" stroke-linecap="round" stroke-linejoin="round"/>
<path d="M54.0463 72.0942H50.4366C49.4383 72.0942 48.6289 71.2849 48.6289 70.2867C48.6289 69.2883 49.4383 68.4791 50.4366 68.4791H54.0463C55.0446 68.4791 55.8539 69.2883 55.8539 70.2867C55.8539 71.2849 55.0446 72.0942 54.0463 72.0942Z" stroke="#3F3F3F" stroke-width="1.44" stroke-miterlimit="10" stroke-linecap="round" stroke-linejoin="round"/>
<path d="M60.1445 70.2871H65.4985" stroke="#3F3F3F" stroke-width="1.44" stroke-miterlimit="10" stroke-linecap="round" stroke-linejoin="round"/>
<path d="M102.404 26.1487H100.287V24.0315C100.287 23.6799 100.002 23.3948 99.6507 23.3948H97.3749C97.0231 23.3948 96.7381 23.6799 96.7381 24.0315V26.1487H94.621C94.2694 26.1487 93.9844 26.4337 93.9844 26.7853V29.0612C93.9844 29.4128 94.2694 29.6978 94.621 29.6978H96.7381V31.8151C96.7381 32.1666 97.0231 32.4517 97.3749 32.4517H99.6507C100.002 32.4517 100.287 32.1666 100.287 31.8151V29.6978H102.404C102.756 29.6978 103.041 29.4128 103.041 29.0612V26.7853C103.041 26.4337 102.756 26.1487 102.404 26.1487Z" stroke="#2BB04C" stroke-width="1.44" stroke-miterlimit="10" stroke-linecap="round" stroke-linejoin="round"/>
</g>
</g>
<defs>
<clipPath id="clip0_6057_16882">
<rect width="64.8" height="64.8" fill="white" transform="translate(43.2012 15.6997)"/>
</clipPath>
</defs>
</svg>
