<svg width="153" height="92" viewBox="0 0 153 92" fill="none" xmlns="http://www.w3.org/2000/svg">
<g clip-path="url(#clip0_6057_16818)">
<mask id="mask0_6057_16818" style="mask-type:luminance" maskUnits="userSpaceOnUse" x="43" y="15" width="66" height="66">
<path d="M43.5918 15.7H108.392V80.5H43.5918V15.7Z" fill="white"/>
</mask>
<g mask="url(#mask0_6057_16818)">
<path d="M98.233 43.5161C98.493 42.1437 98.6289 40.7274 98.6289 39.2794C98.6289 37.7874 98.4845 36.3291 98.209 34.9177" stroke="#3F3F3F" stroke-width="1.44" stroke-miterlimit="10" stroke-linecap="round" stroke-linejoin="round"/>
<path d="M83.7168 60.5605C85.7934 59.8072 87.7286 58.7586 89.4713 57.4653" stroke="#3F3F3F" stroke-width="1.44" stroke-miterlimit="10" stroke-linecap="round" stroke-linejoin="round"/>
<path d="M63.0449 57.8403C64.6499 58.9623 66.4068 59.8814 68.2789 60.5605" stroke="#3F3F3F" stroke-width="1.44" stroke-miterlimit="10" stroke-linecap="round" stroke-linejoin="round"/>
<path d="M54.0818 33.6086C53.6141 35.4211 53.3652 37.3217 53.3652 39.2802C53.3652 40.7 53.496 42.0893 53.7462 43.4365" stroke="#3F3F3F" stroke-width="1.44" stroke-miterlimit="10" stroke-linecap="round" stroke-linejoin="round"/>
<path d="M69.5425 17.5829C67.2544 18.2626 65.1177 19.2942 63.1953 20.6152" stroke="#3F3F3F" stroke-width="1.44" stroke-miterlimit="10" stroke-linecap="round" stroke-linejoin="round"/>
<path d="M89.0613 20.7988C85.3707 18.1852 80.8631 16.6491 75.9965 16.6491C75.2971 16.6491 74.6051 16.6809 73.9219 16.7429" stroke="#3F3F3F" stroke-width="1.44" stroke-miterlimit="10" stroke-linecap="round" stroke-linejoin="round"/>
<path d="M84.7654 39.28C84.7654 38.8144 84.727 38.358 84.6568 37.9122C84.6443 37.8327 84.681 37.7541 84.7507 37.7138L86.4504 36.7325C86.5437 36.6787 86.5756 36.5596 86.5218 36.4664L83.6969 31.5735C83.6431 31.4804 83.5239 31.4484 83.4308 31.5023L81.7312 32.4835C81.6616 32.5236 81.5751 32.5162 81.5126 32.4654C80.8052 31.8923 80.0074 31.4265 79.1431 31.0941C79.0682 31.0654 79.0183 30.9944 79.0183 30.914V28.9546C79.0183 28.847 78.931 28.7598 78.8235 28.7598H73.1736C73.0662 28.7598 72.9789 28.847 72.9789 28.9546V30.914C72.9789 30.9944 72.929 31.0654 72.8541 31.0941C71.9898 31.4265 71.1919 31.8923 70.4844 32.4654C70.422 32.5162 70.3356 32.5236 70.266 32.4835L68.5664 31.5023C68.4731 31.4484 68.354 31.4804 68.3002 31.5735L65.4754 36.4664C65.4216 36.5596 65.4535 36.6787 65.5466 36.7325L67.2465 37.7138C67.3162 37.7541 67.3529 37.8327 67.3404 37.9122C67.2701 38.358 67.2318 38.8144 67.2318 39.28C67.2318 39.7457 67.2701 40.202 67.3404 40.6479C67.3529 40.7274 67.3162 40.806 67.2465 40.8462L65.5466 41.8276C65.4535 41.8814 65.4216 42.0005 65.4754 42.0936L68.3002 46.9866C68.354 47.0797 68.4731 47.1116 68.5664 47.0578L70.266 46.0766C70.3356 46.0363 70.422 46.0439 70.4846 46.0947C71.1919 46.6677 71.9898 47.1336 72.8541 47.466C72.929 47.4947 72.9789 47.5657 72.9789 47.6461V49.6054C72.9789 49.7131 73.0662 49.8003 73.1736 49.8003H78.8235C78.931 49.8003 79.0183 49.7131 79.0183 49.6054V47.6461C79.0183 47.5657 79.0682 47.4947 79.1431 47.466C80.0074 47.1336 80.8052 46.6677 81.5127 46.0947C81.5751 46.0439 81.6616 46.0363 81.7312 46.0766L83.4308 47.0578C83.5239 47.1116 83.6431 47.0797 83.6969 46.9866L86.5218 42.0936C86.5756 42.0005 86.5437 41.8814 86.4504 41.8276L84.7507 40.8462C84.681 40.806 84.6443 40.7274 84.6568 40.6479C84.727 40.202 84.7654 39.7457 84.7654 39.28Z" stroke="#F47920" stroke-width="1.44" stroke-miterlimit="10" stroke-linecap="round" stroke-linejoin="round"/>
<path d="M73.7834 34.7131C72.0907 35.5356 70.9238 37.2715 70.9238 39.28C70.9238 42.0826 73.1958 44.3545 75.9984 44.3545C78.801 44.3545 81.0729 42.0826 81.0729 39.28C81.0729 37.2715 79.9061 35.5356 78.2133 34.7132" stroke="#3F3F3F" stroke-width="1.44" stroke-miterlimit="10" stroke-linecap="round" stroke-linejoin="round"/>
<path d="M80.4199 61.9424C80.4199 59.4981 78.4384 57.5165 75.9941 57.5165C73.5499 57.5165 71.5684 59.4981 71.5684 61.9424C71.5684 64.3866 73.5499 66.3682 75.9941 66.3682C78.4384 66.3682 80.4199 64.3866 80.4199 61.9424Z" stroke="#2BB04C" stroke-width="1.44" stroke-miterlimit="10" stroke-linecap="round" stroke-linejoin="round"/>
<path d="M79.7138 70.4316H82.3538C83.7516 70.4316 84.885 71.5648 84.885 72.9628V79.5508H75.998" stroke="#3F3F3F" stroke-width="1.44" stroke-miterlimit="10" stroke-linecap="round" stroke-linejoin="round"/>
<path d="M71.5688 79.5508H67.1035V72.9628C67.1035 71.5648 68.2369 70.4316 69.6348 70.4316H75.2845" stroke="#3F3F3F" stroke-width="1.44" stroke-miterlimit="10" stroke-linecap="round" stroke-linejoin="round"/>
<path d="M60.4926 55.3359H51.6234C51.1405 55.3359 50.8359 54.8167 51.0716 54.3952L55.5167 46.4418C55.7582 46.0095 56.3804 46.0101 56.6211 46.4428L61.0452 54.3963C61.2797 54.8178 60.975 55.3359 60.4926 55.3359Z" stroke="#3F3F3F" stroke-width="1.44" stroke-miterlimit="10" stroke-linecap="round" stroke-linejoin="round"/>
<path d="M100.373 55.7817H92.7871C92.4375 55.7817 92.1543 55.4985 92.1543 55.1489V47.563C92.1543 47.2136 92.4375 46.9302 92.7871 46.9302H100.373C100.722 46.9302 101.006 47.2136 101.006 47.563V55.1489C101.006 55.4985 100.722 55.7817 100.373 55.7817Z" stroke="#3F3F3F" stroke-width="1.44" stroke-miterlimit="10" stroke-linecap="round" stroke-linejoin="round"/>
<path d="M61.4551 25.6261C61.4551 22.9024 59.2471 20.6945 56.5234 20.6945C53.7998 20.6945 51.5918 22.9024 51.5918 25.6261C51.5918 28.3497 53.7998 30.5576 56.5234 30.5576C59.2471 30.5576 61.4551 28.3497 61.4551 25.6261Z" stroke="#3F3F3F" stroke-width="1.44" stroke-miterlimit="10" stroke-linecap="round" stroke-linejoin="round"/>
<path d="M94.8522 20.4603L96.3775 23.5599C96.4327 23.6721 96.5395 23.7498 96.6632 23.7679L100.076 24.2651C100.387 24.3105 100.511 24.6923 100.286 24.9119L97.8154 27.3273C97.7263 27.4143 97.6857 27.5397 97.7067 27.6625L98.2897 31.0721C98.3428 31.382 98.0171 31.6182 97.7389 31.4715L94.6888 29.8633C94.578 29.8048 94.4457 29.8048 94.3349 29.8633L91.2848 31.4715C91.0066 31.6182 90.6809 31.382 90.734 31.0721L91.317 27.6625C91.338 27.5397 91.2974 27.4143 91.2083 27.3273L88.7376 24.9119C88.513 24.6923 88.6373 24.3105 88.9482 24.2651L92.3605 23.7679C92.4842 23.7498 92.5911 23.6721 92.6462 23.5599L94.1715 20.4603C94.3105 20.1778 94.7132 20.1778 94.8522 20.4603Z" stroke="#3F3F3F" stroke-width="1.44" stroke-miterlimit="10" stroke-linecap="round" stroke-linejoin="round"/>
</g>
</g>
<defs>
<clipPath id="clip0_6057_16818">
<rect width="64.8" height="64.8" fill="white" transform="translate(43.6016 15.6997)"/>
</clipPath>
</defs>
</svg>
