<svg width="153" height="92" viewBox="0 0 153 92" fill="none" xmlns="http://www.w3.org/2000/svg">
<g clip-path="url(#clip0_6057_16905)">
<path fill-rule="evenodd" clip-rule="evenodd" d="M80.5137 20.7304C83.3866 21.2585 86.0486 22.3885 88.3647 23.9843L91.2998 21.4906L96.1098 26.3008L93.6163 29.2356C95.2122 31.5518 96.3424 34.2137 96.8706 37.0867L100.707 37.3986V44.2011L96.8707 44.5129C96.3424 47.3857 95.2122 50.0477 93.616 52.3637L96.1098 55.2989L91.2998 60.109L88.3642 57.6149C86.048 59.2105 83.3866 60.341 80.5137 60.8692L80.2018 64.7059H73.3993L73.0875 60.87C70.2147 60.3416 67.5527 59.2114 65.2367 57.6153L62.3015 60.1091L57.4914 55.2989L59.9855 52.3634C58.3899 50.0472 57.2594 47.3857 56.7312 44.5129L52.8945 44.201V37.3984L56.7305 37.0865C57.2588 34.2137 58.389 31.5517 59.9852 29.2357L57.4914 26.3006L62.3015 21.4906L65.237 23.9845C67.5532 22.3889 70.2148 21.2584 73.0875 20.7302L73.3994 16.8936H80.202L80.5137 20.7304Z" stroke="#3F3F3F" stroke-width="1.6" stroke-miterlimit="22.9256" stroke-linecap="round" stroke-linejoin="round"/>
<path d="M76.8007 53.456C83.7906 53.456 89.4569 47.7896 89.4569 40.7998C89.4569 33.8099 83.7906 28.1436 76.8007 28.1436C69.8109 28.1436 64.1445 33.8099 64.1445 40.7998C64.1445 47.7896 69.8109 53.456 76.8007 53.456Z" stroke="#F47920" stroke-width="1.6" stroke-miterlimit="22.9256" stroke-linecap="round" stroke-linejoin="round"/>
<path d="M85.3242 21.8667V12.6976H101.37V9.07959L111.395 19.2428L101.37 29.4062V25.788H95.7733" stroke="#3F3F3F" stroke-width="1.6" stroke-miterlimit="22.9256" stroke-linecap="round" stroke-linejoin="round"/>
<path d="M68.2775 59.7333V68.9024H52.2319V72.5204L42.207 62.3571L52.2319 52.1938V55.8118H57.8284" stroke="#3F3F3F" stroke-width="1.6" stroke-miterlimit="22.9256" stroke-linecap="round" stroke-linejoin="round"/>
<path d="M76.8008 34.4717V40.7998L78.9101 44.4532" stroke="#2BB04C" stroke-width="1.6" stroke-miterlimit="22.9256" stroke-linecap="round" stroke-linejoin="round"/>
</g>
<defs>
<clipPath id="clip0_6057_16905">
<rect width="72" height="72" fill="white" transform="translate(40.8008 4.7998)"/>
</clipPath>
</defs>
</svg>
