<svg width="152" height="92" viewBox="0 0 152 92" fill="none" xmlns="http://www.w3.org/2000/svg">
<g clip-path="url(#clip0_6057_17022)">
<mask id="mask0_6057_17022" style="mask-type:luminance" maskUnits="userSpaceOnUse" x="43" y="15" width="65" height="66">
<path d="M107.995 15.6997H43.1953V80.4997H107.995V15.6997Z" fill="white"/>
</mask>
<g mask="url(#mask0_6057_17022)">
<mask id="mask1_6057_17022" style="mask-type:luminance" maskUnits="userSpaceOnUse" x="43" y="15" width="65" height="66">
<path d="M43.1875 15.6995H107.987V80.4995H43.1875V15.6995Z" fill="white"/>
</mask>
<g mask="url(#mask1_6057_17022)">
<path d="M64.8763 41.3758C64.7104 41.1976 64.4403 41.1645 64.2363 41.2978C62.0507 42.7256 59.1601 43.6282 56.3198 43.4241C56.0316 43.4022 55.7832 43.6321 55.7832 43.9232V48.312C55.7832 51.1327 57.9934 53.709 61.3365 53.709C64.3124 53.709 66.7335 51.2878 66.7335 48.312V43.5688C66.7335 43.3066 66.7449 43.3843 64.8763 41.3758Z" stroke="#3F3F3F" stroke-width="1.44" stroke-miterlimit="10" stroke-linecap="round" stroke-linejoin="round"/>
<path d="M55.7815 44.2718V43.9228C55.7815 43.6317 56.03 43.4019 56.3181 43.4237C59.1584 43.6278 62.049 42.7252 64.2346 41.2974C64.4386 41.1642 64.7088 41.1973 64.8746 41.3755C66.7432 43.3839 66.7318 43.3062 66.7318 43.5685V43.9802V43.9943V44.2653C67.4502 44.2187 68.1288 44.4806 68.6029 44.9202V42.1878C68.6029 38.1303 65.3139 34.8413 61.2565 34.8413C57.1991 34.8413 53.9102 38.1303 53.9102 42.1878V44.979C54.4097 44.5231 55.1184 44.25 55.7815 44.2718Z" stroke="#3F3F3F" stroke-width="1.44" stroke-miterlimit="10" stroke-linecap="round" stroke-linejoin="round"/>
<path d="M66.7323 44.2658V48.3121C66.7323 48.3632 66.7298 48.4137 66.7285 48.4646C68.0694 48.5537 69.2685 47.5659 69.2685 46.3652C69.2685 45.1625 68.0692 44.1792 66.7323 44.2658Z" stroke="#3F3F3F" stroke-width="1.44" stroke-miterlimit="10" stroke-linecap="round" stroke-linejoin="round"/>
<path d="M55.7784 48.3122V44.2723C54.5853 44.2332 53.2422 45.1484 53.2422 46.3653C53.2422 47.5644 54.4391 48.554 55.782 48.4646C55.7807 48.4139 55.7784 48.3631 55.7784 48.3122Z" stroke="#3F3F3F" stroke-width="1.44" stroke-miterlimit="10" stroke-linecap="round" stroke-linejoin="round"/>
<path d="M58.2519 55.332L55.7852 56.2883L58.4717 60.1946C58.6823 60.4587 59.0749 60.4833 59.3169 60.2477L61.3258 58.7102L58.2519 55.332Z" stroke="#3F3F3F" stroke-width="1.44" stroke-miterlimit="10" stroke-linecap="round" stroke-linejoin="round"/>
<path d="M64.3982 55.332L66.8647 56.2883C65.8156 57.8138 64.1783 60.1946 64.1783 60.1946C63.9676 60.4587 63.5751 60.4833 63.3331 60.2477L61.3242 58.7102L62.8612 57.0211L64.3982 55.332Z" stroke="#3F3F3F" stroke-width="1.44" stroke-miterlimit="10" stroke-linecap="round" stroke-linejoin="round"/>
<path d="M63.3323 60.2479L61.3234 58.7104L59.3145 60.2479C59.3145 60.2479 60.3887 61.8271 60.3242 61.8271H62.3225C62.258 61.8271 63.3323 60.2479 63.3323 60.2479Z" stroke="#3F3F3F" stroke-width="1.44" stroke-miterlimit="10" stroke-linecap="round" stroke-linejoin="round"/>
<path d="M62.3247 61.8267L62.95 65.894C61.8697 65.9956 60.7815 65.9956 59.7012 65.894L60.3264 61.8267" stroke="#3F3F3F" stroke-width="1.44" stroke-miterlimit="10" stroke-linecap="round" stroke-linejoin="round"/>
<path d="M72.5104 58.477L64.3895 55.332V52.7569C63.5199 53.3566 62.4671 53.709 61.333 53.709C60.1462 53.709 59.1032 53.3832 58.2502 52.8381V55.332L50.1378 58.477C50.1378 58.477 49.1045 58.9029 48.25 59.9452C48.544 60.289 48.8522 60.6233 49.1754 60.9466C55.8743 67.6454 66.7739 67.6454 73.4728 60.9466C73.796 60.6233 74.1042 60.289 74.3982 59.9452C73.5438 58.9029 72.5104 58.477 72.5104 58.477Z" stroke="#3F3F3F" stroke-width="1.44" stroke-miterlimit="10" stroke-linecap="round" stroke-linejoin="round"/>
<path d="M95.4609 23.8317C91.1679 23.8317 87.6753 27.3244 87.6753 31.6174C87.6753 35.9104 91.1679 39.4029 95.4609 39.4029C99.7539 39.4029 103.247 35.9104 103.247 31.6174C103.247 27.3244 99.7539 23.8317 95.4609 23.8317ZM95.4609 43.1992C89.0746 43.1992 83.8789 38.0037 83.8789 31.6174C83.8789 25.231 89.0746 20.0354 95.4609 20.0354C101.847 20.0354 107.043 25.231 107.043 31.6174C107.043 38.0037 101.847 43.1992 95.4609 43.1992Z" stroke="#3F3F3F" stroke-width="1.44" stroke-miterlimit="10" stroke-linecap="round" stroke-linejoin="round"/>
<path d="M95.4584 26.3996C93.3941 26.3996 91.7051 28.0886 91.7051 30.1529C91.7051 32.2171 93.3941 33.9062 95.4584 33.9062C97.5228 33.9062 99.2116 32.2171 99.2116 30.1529C99.2116 28.0886 97.5228 26.3996 95.4584 26.3996Z" stroke="#2BB04C" stroke-width="1.44" stroke-miterlimit="10" stroke-linecap="round" stroke-linejoin="round"/>
<path d="M98.3491 33.8858H92.5713C91.025 33.8858 89.7054 34.8538 89.1836 36.2166C90.6019 38.1468 92.8867 39.4028 95.4602 39.4028C98.0337 39.4028 100.319 38.1468 101.737 36.2166C101.215 34.8538 99.8955 33.8858 98.3491 33.8858Z" stroke="#2BB04C" stroke-width="1.44" stroke-miterlimit="10" stroke-linecap="round" stroke-linejoin="round"/>
<path d="M75.3516 58.7234L82.152 63.1689" stroke="#3F3F3F" stroke-width="1.44" stroke-miterlimit="10" stroke-linecap="round" stroke-linejoin="round"/>
<path d="M85.0607 36.7067L76.7461 41.207" stroke="#3F3F3F" stroke-width="1.44" stroke-miterlimit="10" stroke-linecap="round" stroke-linejoin="round"/>
<path d="M91.3998 75.8647C94.9599 74.8902 97.5848 71.6286 97.5848 67.7635C97.5848 63.1318 93.8167 59.3637 89.185 59.3637C84.5533 59.3637 80.7852 63.1318 80.7852 67.7635C80.7852 71.6286 83.4099 74.8902 86.9701 75.8647" stroke="#3F3F3F" stroke-width="1.44" stroke-miterlimit="10" stroke-linecap="round" stroke-linejoin="round"/>
<path d="M78.3659 46.5791C77.2792 38.1332 70.0717 31.6172 61.3272 31.6172C51.8312 31.6172 44.1465 39.3014 44.1465 48.798C44.1465 53.3871 45.9335 57.7015 49.1786 60.9466C55.8773 67.6454 66.7771 67.6454 73.4758 60.9466C76.1938 58.2287 77.8882 54.7602 78.3671 51.0088" stroke="#F47920" stroke-width="1.44" stroke-miterlimit="10" stroke-linecap="round" stroke-linejoin="round"/>
</g>
</g>
</g>
<defs>
<clipPath id="clip0_6057_17022">
<rect width="64.8" height="64.8" fill="white" transform="translate(43.2012 15.6997)"/>
</clipPath>
</defs>
</svg>
