<svg width="153" height="92" viewBox="0 0 153 92" fill="none" xmlns="http://www.w3.org/2000/svg">
<g clip-path="url(#clip0_6057_16859)">
<mask id="mask0_6057_16859" style="mask-type:luminance" maskUnits="userSpaceOnUse" x="43" y="15" width="66" height="66">
<path d="M43.3926 15.7H108.193V80.5H43.3926V15.7Z" fill="white"/>
</mask>
<g mask="url(#mask0_6057_16859)">
<path d="M88.6712 65.0087L100.441 58.9657C102.166 58.0778 104.276 58.4595 105.295 60.1105C106.315 61.7616 105.732 63.8419 104.151 64.9685L86.8698 77.2745C82.1881 80.3969 80.2105 79.1678 75.2831 77.8322L61.2639 74.0824C60.42 73.8586 60.475 73.8292 59.9027 73.8292H55.6797" stroke="#3F3F3F" stroke-width="1.44" stroke-miterlimit="10" stroke-linecap="round" stroke-linejoin="round"/>
<path d="M48.0194 57.6009H53.4384C54.6676 57.6009 55.6765 58.61 55.6765 59.8427V74.0567C55.6765 75.2858 54.6676 76.2949 53.4384 76.2949H48.0194C46.7902 76.2949 45.7812 75.2858 45.7812 74.0567V59.8427C45.7812 58.61 46.7902 57.6009 48.0194 57.6009Z" stroke="#F47920" stroke-width="1.44" stroke-miterlimit="10" stroke-linecap="round" stroke-linejoin="round"/>
<path d="M55.6797 60.0665H58.4975C59.5688 60.0188 59.723 60.0262 60.8898 59.5638C66.3198 57.4247 70.7556 57.1716 76.1857 62.2863C76.8645 62.9248 77.015 63.1045 78.101 63.1045H85.4683C87.4752 63.1045 89.1189 64.7483 89.1189 66.759C89.1189 68.7659 87.4752 70.4097 85.4683 70.4097H73.5294" stroke="#3F3F3F" stroke-width="1.44" stroke-miterlimit="10" stroke-linecap="round" stroke-linejoin="round"/>
<path d="M76.877 31.9392H82.3474V26.4723H89.3369V31.9392H94.8036V38.9289H89.3369V44.3994H82.3474V38.9289H76.877V31.9392Z" stroke="#2BB04C" stroke-width="1.44" stroke-miterlimit="10" stroke-linecap="round" stroke-linejoin="round"/>
<path d="M72.2223 44.0506C70.9492 42.1647 69.9586 40.3228 69.4522 38.7268C69.1881 37.9086 69.243 37.5454 69.243 36.7125V26.5857C69.2945 24.3254 68.9899 24.8356 70.9639 23.7311L85.8416 16.9653L100.719 23.7311C102.697 24.8356 102.389 24.3254 102.44 26.5857V36.7125C102.44 37.5454 102.495 37.9086 102.231 38.7268C100.455 44.2964 92.7907 52.9077 87.7935 55.8907C87.1221 56.2944 86.4801 56.4961 85.8416 56.4961C85.2032 56.4961 84.5611 56.2944 83.8897 55.8907C82.657 55.1569 81.2628 54.0781 79.8354 52.7867" stroke="#3F3F3F" stroke-width="1.44" stroke-miterlimit="10" stroke-linecap="round" stroke-linejoin="round"/>
<path d="M75.7677 48.6333L75.7637 48.6292" stroke="#3F3F3F" stroke-width="1.44" stroke-miterlimit="10" stroke-linecap="round" stroke-linejoin="round"/>
</g>
</g>
<defs>
<clipPath id="clip0_6057_16859">
<rect width="64.8" height="64.8" fill="white" transform="translate(43.4023 15.6997)"/>
</clipPath>
</defs>
</svg>
