<svg width="153" height="92" viewBox="0 0 153 92" fill="none" xmlns="http://www.w3.org/2000/svg">
<g clip-path="url(#clip0_6057_16916)">
<mask id="mask0_6057_16916" style="mask-type:luminance" maskUnits="userSpaceOnUse" x="40" y="4" width="73" height="73">
<path d="M40.5996 4.79981H112.6V76.7998H40.5996V4.79981Z" fill="white"/>
</mask>
<g mask="url(#mask0_6057_16916)">
<path d="M55.3997 60.7092C53.6714 58.9809 53.6714 56.1788 55.3997 54.4505L61.9 47.9503C63.6283 46.2218 66.4304 46.2218 68.1586 47.9503C69.8871 49.6785 69.8871 52.4806 68.1586 54.2089L61.6584 60.7092C59.9301 62.4374 57.128 62.4374 55.3997 60.7092Z" stroke="#3F3F3F" stroke-width="1.6" stroke-miterlimit="10" stroke-linecap="round" stroke-linejoin="round"/>
<path d="M84.3015 64.6035L82.0449 62.3469" stroke="#3F3F3F" stroke-width="1.6" stroke-miterlimit="10" stroke-linecap="round" stroke-linejoin="round"/>
<path d="M91.7441 59.5269L83.0605 50.8433" stroke="#3F3F3F" stroke-width="1.6" stroke-miterlimit="10" stroke-linecap="round" stroke-linejoin="round"/>
<path d="M98.0037 53.2681L89.0801 44.3444" stroke="#3F3F3F" stroke-width="1.6" stroke-miterlimit="10" stroke-linecap="round" stroke-linejoin="round"/>
<path d="M77.291 70.1105L78.0425 70.862C79.7708 72.5903 82.5729 72.5903 84.3013 70.862C86.0296 69.1337 86.0296 66.3316 84.3013 64.6033L85.4835 65.7856C87.2118 67.5139 90.0139 67.5139 91.7422 65.7856C93.4706 64.0573 93.4706 61.2551 91.7422 59.5268L92.9246 60.7091C94.6529 62.4374 97.455 62.4374 99.1832 60.7091C100.912 58.9807 100.912 56.1786 99.1832 54.4504L98.0011 53.2683C99.7294 54.9964 102.531 54.9963 104.26 53.2681C105.988 51.5398 105.988 48.7376 104.26 47.0093L101.623 44.3725" stroke="#3F3F3F" stroke-width="1.6" stroke-miterlimit="10" stroke-linecap="round" stroke-linejoin="round"/>
<path d="M56.5804 53.2681C54.8521 54.9966 52.05 54.9966 50.3217 53.2681C48.5933 51.5399 48.5933 48.7378 50.3217 47.0095L55.6396 41.6915C57.3679 39.9632 60.17 39.9632 61.8982 41.6915C63.6267 43.4197 63.6267 46.222 61.8982 47.9503" stroke="#3F3F3F" stroke-width="1.6" stroke-miterlimit="10" stroke-linecap="round" stroke-linejoin="round"/>
<path d="M68.1591 54.209C69.8874 52.4807 72.6895 52.4807 74.4178 54.209C76.1461 55.9374 76.1462 58.7395 74.4179 60.4678L69.0999 65.7858C67.3716 67.5141 64.5695 67.5141 62.8412 65.7858C61.1128 64.0575 61.1128 61.2553 62.8412 59.527" stroke="#3F3F3F" stroke-width="1.6" stroke-miterlimit="10" stroke-linecap="round" stroke-linejoin="round"/>
<path d="M74.4183 60.4676C76.1466 58.7393 78.9487 58.7393 80.677 60.4676C82.4053 62.1958 82.4053 64.9979 80.677 66.7262L76.5413 70.862C74.8131 72.5903 72.0108 72.5903 70.2825 70.862C68.5543 69.1336 68.5543 66.3315 70.2825 64.6032" stroke="#3F3F3F" stroke-width="1.6" stroke-miterlimit="10" stroke-linecap="round" stroke-linejoin="round"/>
<path d="M49.5566 42.3535L52.2676 45.0645" stroke="#3F3F3F" stroke-width="1.6" stroke-miterlimit="10" stroke-linecap="round" stroke-linejoin="round"/>
<path d="M76.6365 19.3397L76.5997 19.3028L76.5628 19.3397L71.8442 14.6211C64.9379 7.7147 53.7405 7.7147 46.8341 14.6211H46.834C40.1044 21.3508 39.9323 32.1546 46.3175 39.0928" stroke="#2BB04C" stroke-width="1.6" stroke-miterlimit="10" stroke-linecap="round" stroke-linejoin="round"/>
<path d="M104.256 12.8145C97.3397 7.77857 87.5968 8.38073 81.3568 14.6207L76.6381 19.3394L76.6013 19.3024L76.5645 19.3394" stroke="#3F3F3F" stroke-width="1.6" stroke-miterlimit="10" stroke-linecap="round" stroke-linejoin="round"/>
<path d="M97.0176 39.9246L101.623 44.3726L106.364 39.6311C112.834 33.1607 113.243 22.9242 107.59 15.9783" stroke="#F47920" stroke-width="1.6" stroke-miterlimit="10" stroke-linecap="round" stroke-linejoin="round"/>
<path d="M76.2623 19.6632L67.0378 28.8878C66.214 29.7116 66.214 31.0473 67.0378 31.871C69.6705 34.5038 73.9392 34.5038 76.5721 31.871L82.5211 25.9219L93.7115 36.7305" stroke="#3F3F3F" stroke-width="1.6" stroke-miterlimit="10" stroke-linecap="round" stroke-linejoin="round"/>
</g>
</g>
<defs>
<clipPath id="clip0_6057_16916">
<rect width="72" height="72" fill="white" transform="translate(40.5996 4.7998)"/>
</clipPath>
</defs>
</svg>
