<svg width="497" height="415" viewBox="0 0 497 415" fill="none" xmlns="http://www.w3.org/2000/svg">
<g opacity="0.03">
<mask id="path-1-inside-1_5907_20636" fill="white">
<path fill-rule="evenodd" clip-rule="evenodd" d="M463.264 199.341C462.983 207.372 464.247 215.383 466.985 222.941C456.784 213.261 444.549 205.983 431.177 201.641C414.609 196.495 396.734 197.618 380.954 204.797C364.537 212.319 350.257 223.995 333.277 229.591L330.857 230.334C326.39 231.31 330.365 233.96 330.931 234.276L332.307 235.565C341.077 241.927 350.576 247.219 360.6 251.327C377.45 258.426 396.281 259.245 413.67 253.636C422.95 250.213 431.534 245.141 439.007 238.664C442.601 235.071 446.445 231.737 450.51 228.688C454.532 226.004 460.352 223.93 467.847 232.245C471.777 236.849 475.372 241.728 478.605 246.845C487.736 260.996 495.183 276.256 503.008 291.226C482.612 276.781 458.069 269.373 433.1 270.125C406.533 271.153 380.068 273.982 353.889 278.592C341.403 280.695 328.621 280.271 316.297 277.346C305.031 274.118 294.798 268.011 286.605 259.629C282.449 255.511 278.908 250.816 276.092 245.688C275.77 245.419 275.464 245.132 275.175 244.829C274.054 242.684 273.178 240.42 272.564 238.08C271.42 228.475 273.806 218.785 279.276 210.815C284.333 202.969 287.659 194.133 289.032 184.897C289.959 176.923 289.162 168.841 286.696 161.197C284.22 153.602 280.018 146.682 274.42 140.981C270.86 137.754 267.008 134.865 262.915 132.349C258.882 129.645 254.852 127.051 250.762 124.293C246.672 121.535 246.763 124.309 246.685 125.312L246.568 126.815C244.624 135.361 242.079 143.757 238.952 151.943C233.283 166.857 233.135 183.312 238.536 198.338C241.833 205.294 246.648 211.423 252.626 216.274C258.643 220.612 263.658 226.192 267.33 232.637C268.052 236.404 269.084 240.105 270.416 243.703C258.654 234.918 245.418 228.304 231.333 224.174C217.689 219.735 205.391 211.909 195.588 201.428C195.299 201.202 195.03 200.95 194.786 200.676C192.739 198.631 191.454 195.947 191.147 193.071C191.423 185.573 193.486 178.252 197.164 171.716C201.851 163.231 205.149 154.05 206.934 144.52C207.924 136.178 207.115 127.718 204.561 119.711C197.849 101.953 186.222 86.4668 171.039 75.0642C170.837 74.822 170.606 74.6054 170.351 74.4195C167.542 71.7872 167.154 75.188 167.104 75.3562L166.804 76.3656C165.115 81.3686 163.144 86.2718 160.9 91.0514C158.99 95.4912 157.322 100.032 155.904 104.653C150.264 120.912 149.777 138.521 154.511 155.078C156.957 162.688 161.014 169.682 166.407 175.585C170.728 180.279 175.807 184.395 180.45 188.746C182.768 190.953 184.661 193.566 186.037 196.456C187.04 198.257 187.994 200.226 188.944 202.084C190.66 205.71 192.845 209.095 195.441 212.153C196.187 212.852 196.989 213.604 197.792 214.356C197.698 214.228 197.582 214.118 197.448 214.034C197.448 214.034 192.538 211.69 191.012 210.906C185.69 207.815 180.832 203.987 176.584 199.534C171.172 193.83 165.431 188.449 159.388 183.418C157.325 181.484 154.832 180.008 152.45 178.529C144.198 168.592 135.201 159.296 125.537 150.725C109.587 136.369 88.8723 128.456 67.4243 128.525C56.8591 129.171 46.3593 130.62 36.0155 132.859C25.6171 135.57 14.868 136.699 4.1298 136.208L2.79072 136.028C2.06386 135.885 -1.06187 135.429 1.52228 139.679C1.78544 139.972 2.07308 140.241 2.38206 140.485C10.0346 155.282 21.0544 168.078 34.5534 177.842C45.2298 185.376 57.6662 190.031 70.6608 191.356C84.2788 191.82 97.841 189.439 110.481 184.366C117.234 182.005 124.155 180.15 131.185 178.818C134.722 178.265 138.326 178.3 141.853 178.922C145.704 179.728 149.262 181.575 152.139 184.26C161.75 192.73 167.999 205.362 179.42 211.442C174.939 211.38 170.464 211.802 166.074 212.7C159.839 213.954 153.998 217.085 147.687 217.73C141.394 217.867 135.108 217.247 128.962 215.883C117.325 213.697 105.343 214.25 93.9636 217.498C67.4732 226.119 53.0098 252.464 35.789 272.677L34.6621 273.879C33.1059 275.54 34.8998 276.038 35.5231 276.407C35.8285 276.768 36.1747 277.092 36.5548 277.374C45.6273 282.071 55.608 284.747 65.8096 285.218C85.1428 286.216 104.108 279.722 118.761 267.089C126.986 259.306 134.32 250.633 140.629 241.229C144.918 234.6 150.192 228.663 156.269 223.622L157.396 222.42C161.288 219.643 165.909 218.066 170.689 217.886C172.633 217.879 174.462 217.766 176.353 217.816C187.475 218.447 198.453 220.66 208.954 224.387C210.694 224.943 216.993 227.297 217.953 227.767C222.859 229.999 228.034 231.945 233.044 233.951C245.252 238.526 257.066 244.095 268.366 250.601C261.04 249.918 253.654 250.758 246.672 253.069C240.775 251.996 234.955 250.53 229.252 248.681C221.766 246.523 213.923 245.903 206.195 246.861C198.599 247.979 191.348 250.771 184.967 255.036C177.194 260.574 170.446 267.424 165.025 275.279L156.098 287.562C153.415 291.519 150.002 294.927 146.041 297.603C145.236 298.462 143.915 298.837 144.109 299.664C144.303 300.491 146.434 301.09 147.049 301.237C155.544 304.075 164.351 305.865 173.277 306.567C189.067 308.012 204.901 304.394 218.487 296.239C225.471 291.785 231.461 285.941 236.086 279.069C238.793 275.261 241.16 271.242 243.528 267.223L246.589 262.348L247.394 261.49C248.019 260.255 248.922 259.183 250.033 258.357C251.143 257.532 252.43 256.975 253.792 256.731C257.303 256.054 260.917 256.109 264.407 256.892C270.855 258.14 276.888 260.984 281.955 265.165C283.675 266.777 289.407 272.149 290.094 272.793C290.782 273.438 290.897 273.545 291.298 273.922C304.241 283.89 320.232 289.072 336.553 288.588C354.492 287.555 372.33 285.223 389.928 281.61C385.4 283.569 381.07 285.958 376.998 288.743C368.241 294.93 360.472 302.406 353.954 310.919C337.326 316.128 321.771 324.281 308.03 334.99C301.268 340.595 293.829 345.33 285.886 349.082C280.2 351.347 274.117 352.447 267.995 352.318C266.207 352.232 264.431 351.973 262.692 351.543C256.878 348.765 251.824 344.618 247.963 339.459C242.794 333.262 236.086 328.533 228.513 325.748C221.482 323.392 213.954 322.942 206.695 324.443C199.281 326.011 192.382 329.421 186.636 334.359C180.179 340.46 174.595 347.423 170.042 355.051C169.505 355.624 169.022 356.139 170.605 356.977L171.178 357.515C185.123 366.231 201.231 370.857 217.668 370.864C225.617 370.068 233.291 367.528 240.142 363.427C246.164 358.999 253.186 356.123 260.586 355.054C262.033 355.119 268.219 355.755 269.111 355.838C273.588 356.25 278.099 356.107 282.54 355.41L284.637 355.01C278.472 360.204 271.791 364.754 264.698 368.588C259.217 372.12 253.24 374.819 246.964 376.596C236.576 378.26 225.972 378.431 215.676 379.537C192.601 381.004 170.772 390.481 153.956 406.333C136.677 424.77 128.599 449.357 112.34 468.428L111.589 469.229C108.584 472.436 111.756 472.612 112.812 472.634L113.589 472.609C127.423 472.742 141.246 471.819 154.937 469.847C166.706 467.986 178.049 464.052 188.439 458.226C198.853 452.137 207.643 443.626 214.063 433.413C220.983 422.583 226.094 410.811 233.638 400.35C239.588 392.058 247.065 384.976 255.67 379.485C258.336 377.789 267.93 372.262 269.726 371.149C279.882 366.318 289.322 360.111 297.782 352.702L298.694 351.729C301.071 349.323 303.679 347.156 306.48 345.26C309.461 342.998 312.621 341.12 315.601 338.859C325.387 331.163 336.189 324.856 347.702 320.116C344.807 324.689 342.218 329.447 339.95 334.361C336.169 343.514 333.008 352.912 330.489 362.492C328.862 368.449 326.652 374.231 323.892 379.755L323.052 381.226C321.239 384.096 319.109 386.754 316.703 389.149C310.273 394.631 301.151 394.255 292.877 394.352C285.459 394.801 278.219 396.792 271.617 400.196C265.015 403.601 259.197 408.345 254.533 414.126C245.28 425.67 240.369 440.096 240.656 454.896L240.654 456.506C240.654 456.506 240.684 459.116 242.974 457.821L243.565 457.191C250.572 454.25 257.941 452.259 265.478 451.272C279.206 448.112 293.04 444.839 302.484 433.04C307.171 427.127 310.492 420.249 312.208 412.9C313.404 406.762 315.372 400.801 318.067 395.16C320.916 389.905 324.584 385.138 328.934 381.038C326.408 393.728 323.828 406.475 321.524 419.157C319.196 429.646 319.062 440.506 321.131 451.053C323.388 460.598 327.868 469.476 334.205 476.966C341.336 484.965 350.208 491.22 360.137 495.248C370.496 498.955 380.092 504.522 388.453 511.676C388.748 511.895 389.018 512.147 389.255 512.428C390.688 513.771 392.568 513.489 392.018 510.285L391.806 508.903C391.415 497.231 392.354 485.554 394.603 474.097C395.783 463.609 395 452.992 392.294 442.787C389.561 433.102 384.733 424.135 378.152 416.519C370.364 408.281 361.122 401.551 350.89 396.669C342.918 392.424 332.478 385.758 333.359 375.398C334.832 369.087 336.782 362.897 339.192 356.882C339.28 356.574 339.289 356.249 339.217 355.937L340.081 353.521C342.845 344.61 346.586 336.033 351.237 327.947C359.066 315.01 369.641 303.953 382.217 295.557C394.793 287.161 409.062 281.631 424.016 279.357C431.92 278.236 439.926 278.018 447.881 278.708L449.331 278.884C464.118 280.055 478.511 284.247 491.62 291.201C481.599 288.964 471.105 290.692 462.338 296.022C459.176 297.944 455.846 299.574 452.389 300.894C449.358 301.877 446.235 302.554 443.068 302.913C430.682 304.641 418.398 304.421 407.34 311.05C381.517 326.426 376.423 358.973 361.654 382.773L361.117 383.345C360.366 384.147 360.238 385.318 362.629 385.408L363.41 385.494C374.191 386.23 385.021 385.53 395.615 383.412C405.76 380.973 415.219 376.27 423.284 369.655C431.349 363.039 437.81 354.683 442.184 345.212C446.588 335.573 448.46 324.96 453.537 315.522C456.717 309.201 461.901 304.114 468.281 301.054C471.349 299.88 474.551 299.088 477.813 298.695C484.863 298.011 491.975 299.069 498.525 301.775C505.074 304.482 510.861 308.754 515.375 314.217L518.518 318.561C527.46 331.996 539.304 344.172 556.843 343.724C557.149 343.69 557.438 343.562 557.669 343.356C557.899 343.151 558.06 342.879 558.13 342.578C558.199 342.277 558.173 341.962 558.056 341.676C557.938 341.391 557.735 341.148 557.474 340.982C556.844 340.392 555.727 340.205 554.771 339.847C547.613 335.52 541.175 330.103 535.688 323.791C527.696 313.992 523.52 301.635 523.933 289.004C523.506 283.193 523.742 277.352 524.637 271.596C525.646 268.363 527.342 265.386 529.608 262.87C531.873 260.353 534.656 258.355 537.766 257.013C543.637 254.593 549.369 251.852 554.937 248.8C573.132 237.793 587.25 221.168 595.166 201.43C603.082 181.692 604.366 159.909 598.826 139.363C598.776 139.097 598.693 138.839 598.578 138.594C598.255 137.215 597.453 136.463 596.23 138.113L595.747 138.628C587.715 148.518 578.402 157.295 568.055 164.729C550.75 177.258 536.496 193.527 526.35 212.328C520.127 224.766 517.857 238.812 519.844 252.585C519.947 253.422 520.104 254.252 520.315 255.07C521.2 258.054 521.246 261.223 520.45 264.23L519.746 266.475C518.376 271.227 517.421 276.089 516.892 281.008C516.127 286.553 516.107 292.177 516.832 297.729C514.362 293.586 512.058 289.383 509.753 285.179L496.16 260.394C485.602 239.736 481.706 216.32 485.009 193.371C485.632 185.462 488.637 177.929 493.629 171.767C504.362 160.315 521.459 158.271 535.181 153.279C549.908 148.305 563.38 140.201 574.671 129.524C586.072 116.854 595.454 102.504 602.488 86.9773L603.079 86.3474C604.134 84.6474 602.726 84.0813 600.879 83.6402C600.566 83.3542 600.171 83.1726 599.751 83.1207C587.363 80.5655 574.666 79.8657 562.076 81.0441C550.492 82.2486 539.306 85.929 529.274 91.836C519.243 97.7429 510.601 105.738 503.933 115.281C497.174 125.443 492.491 136.843 490.151 148.826C488.11 157.667 487.002 166.201 485.286 174.81L484.038 177.405C477.35 192.123 474.868 208.409 476.867 224.459C473.185 211.207 471.534 197.476 471.97 183.733C471.782 176.636 471.234 169.553 470.327 162.511C470.093 160.463 468.439 150.74 468.105 149.028C467.771 147.317 467.707 147.041 467.509 146.103C467.271 143.358 467.367 140.595 467.793 137.873C469.121 131.555 471.617 125.542 475.153 120.142C478.289 115.395 481.004 110.383 483.269 105.163C485.098 100.379 486.187 95.3431 486.499 90.2293C487.288 79.9795 485.378 69.6991 480.962 60.4105C473.03 42.2218 459.031 25.3374 458.949 4.28779L458.873 3.67919C458.668 2.51924 458.93 -1.32184 456.351 1.31551L455.707 2.00259C441.254 16.2465 430.672 33.9419 424.96 53.4188C419.775 68.7782 419.894 85.4384 425.297 100.734C428.778 108.618 434.026 115.597 440.634 121.131C448.566 126.338 455.425 133.022 460.836 140.817C465.993 152.717 467.453 165.889 465.025 178.622C461.75 171.579 457.04 165.296 451.197 160.177C449.993 159.048 448.847 157.974 447.586 156.792C441.741 148.523 436.62 139.766 432.281 130.618C426.838 121.311 418.421 114.105 408.388 110.16C398.554 106.638 388.017 105.545 377.675 106.973C367.222 108.501 356.998 111.308 347.232 115.331C337.656 119.697 327.539 122.766 317.148 124.455L316.206 124.54C312.498 124.936 314.06 126.831 314.744 127.364C315.428 127.898 315.203 127.794 315.489 128.063C327.258 137.245 339.576 145.701 352.374 153.383C362.024 159.995 373.289 163.861 384.961 164.565C396.014 163.908 406.939 161.861 417.478 158.474C422.991 156.69 428.766 155.849 434.561 155.985C437.854 156.662 440.954 158.066 443.635 160.095C446.316 162.124 448.51 164.726 450.056 167.712C456.603 177.28 461.135 188.078 463.378 199.449L463.264 199.341Z"/>
</mask>
<path fill-rule="evenodd" clip-rule="evenodd" d="M463.264 199.341C462.983 207.372 464.247 215.383 466.985 222.941C456.784 213.261 444.549 205.983 431.177 201.641C414.609 196.495 396.734 197.618 380.954 204.797C364.537 212.319 350.257 223.995 333.277 229.591L330.857 230.334C326.39 231.31 330.365 233.96 330.931 234.276L332.307 235.565C341.077 241.927 350.576 247.219 360.6 251.327C377.45 258.426 396.281 259.245 413.67 253.636C422.95 250.213 431.534 245.141 439.007 238.664C442.601 235.071 446.445 231.737 450.51 228.688C454.532 226.004 460.352 223.93 467.847 232.245C471.777 236.849 475.372 241.728 478.605 246.845C487.736 260.996 495.183 276.256 503.008 291.226C482.612 276.781 458.069 269.373 433.1 270.125C406.533 271.153 380.068 273.982 353.889 278.592C341.403 280.695 328.621 280.271 316.297 277.346C305.031 274.118 294.798 268.011 286.605 259.629C282.449 255.511 278.908 250.816 276.092 245.688C275.77 245.419 275.464 245.132 275.175 244.829C274.054 242.684 273.178 240.42 272.564 238.08C271.42 228.475 273.806 218.785 279.276 210.815C284.333 202.969 287.659 194.133 289.032 184.897C289.959 176.923 289.162 168.841 286.696 161.197C284.22 153.602 280.018 146.682 274.42 140.981C270.86 137.754 267.008 134.865 262.915 132.349C258.882 129.645 254.852 127.051 250.762 124.293C246.672 121.535 246.763 124.309 246.685 125.312L246.568 126.815C244.624 135.361 242.079 143.757 238.952 151.943C233.283 166.857 233.135 183.312 238.536 198.338C241.833 205.294 246.648 211.423 252.626 216.274C258.643 220.612 263.658 226.192 267.33 232.637C268.052 236.404 269.084 240.105 270.416 243.703C258.654 234.918 245.418 228.304 231.333 224.174C217.689 219.735 205.391 211.909 195.588 201.428C195.299 201.202 195.03 200.95 194.786 200.676C192.739 198.631 191.454 195.947 191.147 193.071C191.423 185.573 193.486 178.252 197.164 171.716C201.851 163.231 205.149 154.05 206.934 144.52C207.924 136.178 207.115 127.718 204.561 119.711C197.849 101.953 186.222 86.4668 171.039 75.0642C170.837 74.822 170.606 74.6054 170.351 74.4195C167.542 71.7872 167.154 75.188 167.104 75.3562L166.804 76.3656C165.115 81.3686 163.144 86.2718 160.9 91.0514C158.99 95.4912 157.322 100.032 155.904 104.653C150.264 120.912 149.777 138.521 154.511 155.078C156.957 162.688 161.014 169.682 166.407 175.585C170.728 180.279 175.807 184.395 180.45 188.746C182.768 190.953 184.661 193.566 186.037 196.456C187.04 198.257 187.994 200.226 188.944 202.084C190.66 205.71 192.845 209.095 195.441 212.153C196.187 212.852 196.989 213.604 197.792 214.356C197.698 214.228 197.582 214.118 197.448 214.034C197.448 214.034 192.538 211.69 191.012 210.906C185.69 207.815 180.832 203.987 176.584 199.534C171.172 193.83 165.431 188.449 159.388 183.418C157.325 181.484 154.832 180.008 152.45 178.529C144.198 168.592 135.201 159.296 125.537 150.725C109.587 136.369 88.8723 128.456 67.4243 128.525C56.8591 129.171 46.3593 130.62 36.0155 132.859C25.6171 135.57 14.868 136.699 4.1298 136.208L2.79072 136.028C2.06386 135.885 -1.06187 135.429 1.52228 139.679C1.78544 139.972 2.07308 140.241 2.38206 140.485C10.0346 155.282 21.0544 168.078 34.5534 177.842C45.2298 185.376 57.6662 190.031 70.6608 191.356C84.2788 191.82 97.841 189.439 110.481 184.366C117.234 182.005 124.155 180.15 131.185 178.818C134.722 178.265 138.326 178.3 141.853 178.922C145.704 179.728 149.262 181.575 152.139 184.26C161.75 192.73 167.999 205.362 179.42 211.442C174.939 211.38 170.464 211.802 166.074 212.7C159.839 213.954 153.998 217.085 147.687 217.73C141.394 217.867 135.108 217.247 128.962 215.883C117.325 213.697 105.343 214.25 93.9636 217.498C67.4732 226.119 53.0098 252.464 35.789 272.677L34.6621 273.879C33.1059 275.54 34.8998 276.038 35.5231 276.407C35.8285 276.768 36.1747 277.092 36.5548 277.374C45.6273 282.071 55.608 284.747 65.8096 285.218C85.1428 286.216 104.108 279.722 118.761 267.089C126.986 259.306 134.32 250.633 140.629 241.229C144.918 234.6 150.192 228.663 156.269 223.622L157.396 222.42C161.288 219.643 165.909 218.066 170.689 217.886C172.633 217.879 174.462 217.766 176.353 217.816C187.475 218.447 198.453 220.66 208.954 224.387C210.694 224.943 216.993 227.297 217.953 227.767C222.859 229.999 228.034 231.945 233.044 233.951C245.252 238.526 257.066 244.095 268.366 250.601C261.04 249.918 253.654 250.758 246.672 253.069C240.775 251.996 234.955 250.53 229.252 248.681C221.766 246.523 213.923 245.903 206.195 246.861C198.599 247.979 191.348 250.771 184.967 255.036C177.194 260.574 170.446 267.424 165.025 275.279L156.098 287.562C153.415 291.519 150.002 294.927 146.041 297.603C145.236 298.462 143.915 298.837 144.109 299.664C144.303 300.491 146.434 301.09 147.049 301.237C155.544 304.075 164.351 305.865 173.277 306.567C189.067 308.012 204.901 304.394 218.487 296.239C225.471 291.785 231.461 285.941 236.086 279.069C238.793 275.261 241.16 271.242 243.528 267.223L246.589 262.348L247.394 261.49C248.019 260.255 248.922 259.183 250.033 258.357C251.143 257.532 252.43 256.975 253.792 256.731C257.303 256.054 260.917 256.109 264.407 256.892C270.855 258.14 276.888 260.984 281.955 265.165C283.675 266.777 289.407 272.149 290.094 272.793C290.782 273.438 290.897 273.545 291.298 273.922C304.241 283.89 320.232 289.072 336.553 288.588C354.492 287.555 372.33 285.223 389.928 281.61C385.4 283.569 381.07 285.958 376.998 288.743C368.241 294.93 360.472 302.406 353.954 310.919C337.326 316.128 321.771 324.281 308.03 334.99C301.268 340.595 293.829 345.33 285.886 349.082C280.2 351.347 274.117 352.447 267.995 352.318C266.207 352.232 264.431 351.973 262.692 351.543C256.878 348.765 251.824 344.618 247.963 339.459C242.794 333.262 236.086 328.533 228.513 325.748C221.482 323.392 213.954 322.942 206.695 324.443C199.281 326.011 192.382 329.421 186.636 334.359C180.179 340.46 174.595 347.423 170.042 355.051C169.505 355.624 169.022 356.139 170.605 356.977L171.178 357.515C185.123 366.231 201.231 370.857 217.668 370.864C225.617 370.068 233.291 367.528 240.142 363.427C246.164 358.999 253.186 356.123 260.586 355.054C262.033 355.119 268.219 355.755 269.111 355.838C273.588 356.25 278.099 356.107 282.54 355.41L284.637 355.01C278.472 360.204 271.791 364.754 264.698 368.588C259.217 372.12 253.24 374.819 246.964 376.596C236.576 378.26 225.972 378.431 215.676 379.537C192.601 381.004 170.772 390.481 153.956 406.333C136.677 424.77 128.599 449.357 112.34 468.428L111.589 469.229C108.584 472.436 111.756 472.612 112.812 472.634L113.589 472.609C127.423 472.742 141.246 471.819 154.937 469.847C166.706 467.986 178.049 464.052 188.439 458.226C198.853 452.137 207.643 443.626 214.063 433.413C220.983 422.583 226.094 410.811 233.638 400.35C239.588 392.058 247.065 384.976 255.67 379.485C258.336 377.789 267.93 372.262 269.726 371.149C279.882 366.318 289.322 360.111 297.782 352.702L298.694 351.729C301.071 349.323 303.679 347.156 306.48 345.26C309.461 342.998 312.621 341.12 315.601 338.859C325.387 331.163 336.189 324.856 347.702 320.116C344.807 324.689 342.218 329.447 339.95 334.361C336.169 343.514 333.008 352.912 330.489 362.492C328.862 368.449 326.652 374.231 323.892 379.755L323.052 381.226C321.239 384.096 319.109 386.754 316.703 389.149C310.273 394.631 301.151 394.255 292.877 394.352C285.459 394.801 278.219 396.792 271.617 400.196C265.015 403.601 259.197 408.345 254.533 414.126C245.28 425.67 240.369 440.096 240.656 454.896L240.654 456.506C240.654 456.506 240.684 459.116 242.974 457.821L243.565 457.191C250.572 454.25 257.941 452.259 265.478 451.272C279.206 448.112 293.04 444.839 302.484 433.04C307.171 427.127 310.492 420.249 312.208 412.9C313.404 406.762 315.372 400.801 318.067 395.16C320.916 389.905 324.584 385.138 328.934 381.038C326.408 393.728 323.828 406.475 321.524 419.157C319.196 429.646 319.062 440.506 321.131 451.053C323.388 460.598 327.868 469.476 334.205 476.966C341.336 484.965 350.208 491.22 360.137 495.248C370.496 498.955 380.092 504.522 388.453 511.676C388.748 511.895 389.018 512.147 389.255 512.428C390.688 513.771 392.568 513.489 392.018 510.285L391.806 508.903C391.415 497.231 392.354 485.554 394.603 474.097C395.783 463.609 395 452.992 392.294 442.787C389.561 433.102 384.733 424.135 378.152 416.519C370.364 408.281 361.122 401.551 350.89 396.669C342.918 392.424 332.478 385.758 333.359 375.398C334.832 369.087 336.782 362.897 339.192 356.882C339.28 356.574 339.289 356.249 339.217 355.937L340.081 353.521C342.845 344.61 346.586 336.033 351.237 327.947C359.066 315.01 369.641 303.953 382.217 295.557C394.793 287.161 409.062 281.631 424.016 279.357C431.92 278.236 439.926 278.018 447.881 278.708L449.331 278.884C464.118 280.055 478.511 284.247 491.62 291.201C481.599 288.964 471.105 290.692 462.338 296.022C459.176 297.944 455.846 299.574 452.389 300.894C449.358 301.877 446.235 302.554 443.068 302.913C430.682 304.641 418.398 304.421 407.34 311.05C381.517 326.426 376.423 358.973 361.654 382.773L361.117 383.345C360.366 384.147 360.238 385.318 362.629 385.408L363.41 385.494C374.191 386.23 385.021 385.53 395.615 383.412C405.76 380.973 415.219 376.27 423.284 369.655C431.349 363.039 437.81 354.683 442.184 345.212C446.588 335.573 448.46 324.96 453.537 315.522C456.717 309.201 461.901 304.114 468.281 301.054C471.349 299.88 474.551 299.088 477.813 298.695C484.863 298.011 491.975 299.069 498.525 301.775C505.074 304.482 510.861 308.754 515.375 314.217L518.518 318.561C527.46 331.996 539.304 344.172 556.843 343.724C557.149 343.69 557.438 343.562 557.669 343.356C557.899 343.151 558.06 342.879 558.13 342.578C558.199 342.277 558.173 341.962 558.056 341.676C557.938 341.391 557.735 341.148 557.474 340.982C556.844 340.392 555.727 340.205 554.771 339.847C547.613 335.52 541.175 330.103 535.688 323.791C527.696 313.992 523.52 301.635 523.933 289.004C523.506 283.193 523.742 277.352 524.637 271.596C525.646 268.363 527.342 265.386 529.608 262.87C531.873 260.353 534.656 258.355 537.766 257.013C543.637 254.593 549.369 251.852 554.937 248.8C573.132 237.793 587.25 221.168 595.166 201.43C603.082 181.692 604.366 159.909 598.826 139.363C598.776 139.097 598.693 138.839 598.578 138.594C598.255 137.215 597.453 136.463 596.23 138.113L595.747 138.628C587.715 148.518 578.402 157.295 568.055 164.729C550.75 177.258 536.496 193.527 526.35 212.328C520.127 224.766 517.857 238.812 519.844 252.585C519.947 253.422 520.104 254.252 520.315 255.07C521.2 258.054 521.246 261.223 520.45 264.23L519.746 266.475C518.376 271.227 517.421 276.089 516.892 281.008C516.127 286.553 516.107 292.177 516.832 297.729C514.362 293.586 512.058 289.383 509.753 285.179L496.16 260.394C485.602 239.736 481.706 216.32 485.009 193.371C485.632 185.462 488.637 177.929 493.629 171.767C504.362 160.315 521.459 158.271 535.181 153.279C549.908 148.305 563.38 140.201 574.671 129.524C586.072 116.854 595.454 102.504 602.488 86.9773L603.079 86.3474C604.134 84.6474 602.726 84.0813 600.879 83.6402C600.566 83.3542 600.171 83.1726 599.751 83.1207C587.363 80.5655 574.666 79.8657 562.076 81.0441C550.492 82.2486 539.306 85.929 529.274 91.836C519.243 97.7429 510.601 105.738 503.933 115.281C497.174 125.443 492.491 136.843 490.151 148.826C488.11 157.667 487.002 166.201 485.286 174.81L484.038 177.405C477.35 192.123 474.868 208.409 476.867 224.459C473.185 211.207 471.534 197.476 471.97 183.733C471.782 176.636 471.234 169.553 470.327 162.511C470.093 160.463 468.439 150.74 468.105 149.028C467.771 147.317 467.707 147.041 467.509 146.103C467.271 143.358 467.367 140.595 467.793 137.873C469.121 131.555 471.617 125.542 475.153 120.142C478.289 115.395 481.004 110.383 483.269 105.163C485.098 100.379 486.187 95.3431 486.499 90.2293C487.288 79.9795 485.378 69.6991 480.962 60.4105C473.03 42.2218 459.031 25.3374 458.949 4.28779L458.873 3.67919C458.668 2.51924 458.93 -1.32184 456.351 1.31551L455.707 2.00259C441.254 16.2465 430.672 33.9419 424.96 53.4188C419.775 68.7782 419.894 85.4384 425.297 100.734C428.778 108.618 434.026 115.597 440.634 121.131C448.566 126.338 455.425 133.022 460.836 140.817C465.993 152.717 467.453 165.889 465.025 178.622C461.75 171.579 457.04 165.296 451.197 160.177C449.993 159.048 448.847 157.974 447.586 156.792C441.741 148.523 436.62 139.766 432.281 130.618C426.838 121.311 418.421 114.105 408.388 110.16C398.554 106.638 388.017 105.545 377.675 106.973C367.222 108.501 356.998 111.308 347.232 115.331C337.656 119.697 327.539 122.766 317.148 124.455L316.206 124.54C312.498 124.936 314.06 126.831 314.744 127.364C315.428 127.898 315.203 127.794 315.489 128.063C327.258 137.245 339.576 145.701 352.374 153.383C362.024 159.995 373.289 163.861 384.961 164.565C396.014 163.908 406.939 161.861 417.478 158.474C422.991 156.69 428.766 155.849 434.561 155.985C437.854 156.662 440.954 158.066 443.635 160.095C446.316 162.124 448.51 164.726 450.056 167.712C456.603 177.28 461.135 188.078 463.378 199.449L463.264 199.341Z" stroke="black" stroke-width="2" mask="url(#path-1-inside-1_5907_20636)"/>
</g>
</svg>
