<svg width="24" height="24" viewBox="0 0 24 24" fill="none" xmlns="http://www.w3.org/2000/svg">
<path d="M5.6155 21.0003C5.15517 21.0003 4.77083 20.8461 4.4625 20.5378C4.15417 20.2294 4 19.8451 4 19.3848V6.61578C4 6.15545 4.15417 5.77111 4.4625 5.46278C4.77083 5.15445 5.15517 5.00028 5.6155 5.00028H7.3845V2.76953H8.4615V5.00028H15.6155V2.76953H16.6155V5.00028H18.3845C18.8448 5.00028 19.2292 5.15445 19.5375 5.46278C19.8458 5.77111 20 6.15545 20 6.61578V19.3848C20 19.8451 19.8458 20.2294 19.5375 20.5378C19.2292 20.8461 18.8448 21.0003 18.3845 21.0003H5.6155ZM5.6155 20.0003H18.3845C18.5385 20.0003 18.6796 19.9362 18.8077 19.808C18.9359 19.6799 19 19.5388 19 19.3848V10.6158H5V19.3848C5 19.5388 5.06408 19.6799 5.19225 19.808C5.32042 19.9362 5.4615 20.0003 5.6155 20.0003ZM5 9.61553H19V6.61578C19 6.46178 18.9359 6.3207 18.8077 6.19253C18.6796 6.06436 18.5385 6.00028 18.3845 6.00028H5.6155C5.4615 6.00028 5.32042 6.06436 5.19225 6.19253C5.06408 6.3207 5 6.46178 5 6.61578V9.61553ZM12 14.154C11.7937 14.154 11.6138 14.0774 11.4605 13.9243C11.3073 13.7711 11.2308 13.5913 11.2308 13.3848C11.2308 13.1784 11.3073 12.9987 11.4605 12.8455C11.6138 12.6924 11.7937 12.6158 12 12.6158C12.2063 12.6158 12.3862 12.6924 12.5395 12.8455C12.6927 12.9987 12.7692 13.1784 12.7692 13.3848C12.7692 13.5913 12.6927 13.7711 12.5395 13.9243C12.3862 14.0774 12.2063 14.154 12 14.154ZM8 14.154C7.79367 14.154 7.61383 14.0774 7.4605 13.9243C7.30733 13.7711 7.23075 13.5913 7.23075 13.3848C7.23075 13.1784 7.30733 12.9987 7.4605 12.8455C7.61383 12.6924 7.79367 12.6158 8 12.6158C8.20633 12.6158 8.38617 12.6924 8.5395 12.8455C8.69267 12.9987 8.76925 13.1784 8.76925 13.3848C8.76925 13.5913 8.69267 13.7711 8.5395 13.9243C8.38617 14.0774 8.20633 14.154 8 14.154ZM16 14.154C15.7937 14.154 15.6138 14.0774 15.4605 13.9243C15.3073 13.7711 15.2308 13.5913 15.2308 13.3848C15.2308 13.1784 15.3073 12.9987 15.4605 12.8455C15.6138 12.6924 15.7937 12.6158 16 12.6158C16.2063 12.6158 16.3862 12.6924 16.5395 12.8455C16.6927 12.9987 16.7693 13.1784 16.7693 13.3848C16.7693 13.5913 16.6927 13.7711 16.5395 13.9243C16.3862 14.0774 16.2063 14.154 16 14.154ZM12 18.0003C11.7937 18.0003 11.6138 17.9237 11.4605 17.7705C11.3073 17.6174 11.2308 17.4375 11.2308 17.231C11.2308 17.0247 11.3073 16.8449 11.4605 16.6915C11.6138 16.5384 11.7937 16.4618 12 16.4618C12.2063 16.4618 12.3862 16.5384 12.5395 16.6915C12.6927 16.8449 12.7692 17.0247 12.7692 17.231C12.7692 17.4375 12.6927 17.6174 12.5395 17.7705C12.3862 17.9237 12.2063 18.0003 12 18.0003ZM8 18.0003C7.79367 18.0003 7.61383 17.9237 7.4605 17.7705C7.30733 17.6174 7.23075 17.4375 7.23075 17.231C7.23075 17.0247 7.30733 16.8449 7.4605 16.6915C7.61383 16.5384 7.79367 16.4618 8 16.4618C8.20633 16.4618 8.38617 16.5384 8.5395 16.6915C8.69267 16.8449 8.76925 17.0247 8.76925 17.231C8.76925 17.4375 8.69267 17.6174 8.5395 17.7705C8.38617 17.9237 8.20633 18.0003 8 18.0003ZM16 18.0003C15.7937 18.0003 15.6138 17.9237 15.4605 17.7705C15.3073 17.6174 15.2308 17.4375 15.2308 17.231C15.2308 17.0247 15.3073 16.8449 15.4605 16.6915C15.6138 16.5384 15.7937 16.4618 16 16.4618C16.2063 16.4618 16.3862 16.5384 16.5395 16.6915C16.6927 16.8449 16.7693 17.0247 16.7693 17.231C16.7693 17.4375 16.6927 17.6174 16.5395 17.7705C16.3862 17.9237 16.2063 18.0003 16 18.0003Z" fill="url(#paint0_linear_5907_21513)"/>
<path d="M5.6155 21.0003C5.15517 21.0003 4.77083 20.8461 4.4625 20.5378C4.15417 20.2294 4 19.8451 4 19.3848V6.61578C4 6.15545 4.15417 5.77111 4.4625 5.46278C4.77083 5.15445 5.15517 5.00028 5.6155 5.00028H7.3845V2.76953H8.4615V5.00028H15.6155V2.76953H16.6155V5.00028H18.3845C18.8448 5.00028 19.2292 5.15445 19.5375 5.46278C19.8458 5.77111 20 6.15545 20 6.61578V19.3848C20 19.8451 19.8458 20.2294 19.5375 20.5378C19.2292 20.8461 18.8448 21.0003 18.3845 21.0003H5.6155ZM5.6155 20.0003H18.3845C18.5385 20.0003 18.6796 19.9362 18.8077 19.808C18.9359 19.6799 19 19.5388 19 19.3848V10.6158H5V19.3848C5 19.5388 5.06408 19.6799 5.19225 19.808C5.32042 19.9362 5.4615 20.0003 5.6155 20.0003ZM5 9.61553H19V6.61578C19 6.46178 18.9359 6.3207 18.8077 6.19253C18.6796 6.06436 18.5385 6.00028 18.3845 6.00028H5.6155C5.4615 6.00028 5.32042 6.06436 5.19225 6.19253C5.06408 6.3207 5 6.46178 5 6.61578V9.61553ZM12 14.154C11.7937 14.154 11.6138 14.0774 11.4605 13.9243C11.3073 13.7711 11.2308 13.5913 11.2308 13.3848C11.2308 13.1784 11.3073 12.9987 11.4605 12.8455C11.6138 12.6924 11.7937 12.6158 12 12.6158C12.2063 12.6158 12.3862 12.6924 12.5395 12.8455C12.6927 12.9987 12.7692 13.1784 12.7692 13.3848C12.7692 13.5913 12.6927 13.7711 12.5395 13.9243C12.3862 14.0774 12.2063 14.154 12 14.154ZM8 14.154C7.79367 14.154 7.61383 14.0774 7.4605 13.9243C7.30733 13.7711 7.23075 13.5913 7.23075 13.3848C7.23075 13.1784 7.30733 12.9987 7.4605 12.8455C7.61383 12.6924 7.79367 12.6158 8 12.6158C8.20633 12.6158 8.38617 12.6924 8.5395 12.8455C8.69267 12.9987 8.76925 13.1784 8.76925 13.3848C8.76925 13.5913 8.69267 13.7711 8.5395 13.9243C8.38617 14.0774 8.20633 14.154 8 14.154ZM16 14.154C15.7937 14.154 15.6138 14.0774 15.4605 13.9243C15.3073 13.7711 15.2308 13.5913 15.2308 13.3848C15.2308 13.1784 15.3073 12.9987 15.4605 12.8455C15.6138 12.6924 15.7937 12.6158 16 12.6158C16.2063 12.6158 16.3862 12.6924 16.5395 12.8455C16.6927 12.9987 16.7693 13.1784 16.7693 13.3848C16.7693 13.5913 16.6927 13.7711 16.5395 13.9243C16.3862 14.0774 16.2063 14.154 16 14.154ZM12 18.0003C11.7937 18.0003 11.6138 17.9237 11.4605 17.7705C11.3073 17.6174 11.2308 17.4375 11.2308 17.231C11.2308 17.0247 11.3073 16.8449 11.4605 16.6915C11.6138 16.5384 11.7937 16.4618 12 16.4618C12.2063 16.4618 12.3862 16.5384 12.5395 16.6915C12.6927 16.8449 12.7692 17.0247 12.7692 17.231C12.7692 17.4375 12.6927 17.6174 12.5395 17.7705C12.3862 17.9237 12.2063 18.0003 12 18.0003ZM8 18.0003C7.79367 18.0003 7.61383 17.9237 7.4605 17.7705C7.30733 17.6174 7.23075 17.4375 7.23075 17.231C7.23075 17.0247 7.30733 16.8449 7.4605 16.6915C7.61383 16.5384 7.79367 16.4618 8 16.4618C8.20633 16.4618 8.38617 16.5384 8.5395 16.6915C8.69267 16.8449 8.76925 17.0247 8.76925 17.231C8.76925 17.4375 8.69267 17.6174 8.5395 17.7705C8.38617 17.9237 8.20633 18.0003 8 18.0003ZM16 18.0003C15.7937 18.0003 15.6138 17.9237 15.4605 17.7705C15.3073 17.6174 15.2308 17.4375 15.2308 17.231C15.2308 17.0247 15.3073 16.8449 15.4605 16.6915C15.6138 16.5384 15.7937 16.4618 16 16.4618C16.2063 16.4618 16.3862 16.5384 16.5395 16.6915C16.6927 16.8449 16.7693 17.0247 16.7693 17.231C16.7693 17.4375 16.6927 17.6174 16.5395 17.7705C16.3862 17.9237 16.2063 18.0003 16 18.0003Z" fill="#6D6D6D"/>
<defs>
<linearGradient id="paint0_linear_5907_21513" x1="12" y1="5.5924" x2="15.912" y2="18.4056" gradientUnits="userSpaceOnUse">
<stop stop-color="#F47922"/>
<stop offset="1" stop-color="#A66EFF"/>
</linearGradient>
</defs>
</svg>
