<svg width="84" height="84" viewBox="0 0 84 84" fill="none" xmlns="http://www.w3.org/2000/svg">
<g clip-path="url(#clip0_6969_14764)">
<path d="M10.7433 77.334H2.5894C1.83881 77.334 1.23047 77.9423 1.23047 78.6929V81.4109C1.23047 82.1615 1.83898 82.7699 2.5894 82.7699H56.9487C57.6993 82.7699 58.3076 82.1614 58.3076 81.4109V78.6929C58.3076 77.9423 57.6991 77.334 56.9487 77.334H52.6388" stroke="white" stroke-width="2" stroke-miterlimit="10" stroke-linecap="round" stroke-linejoin="round"/>
<path d="M55.5895 51.5134V39.7872C55.5895 38.8546 55.1115 37.9871 54.323 37.4891L32.6716 23.8145C30.8985 22.6946 28.6393 22.6946 26.8661 23.8145L5.2148 37.4891C4.42632 37.9871 3.94824 38.8546 3.94824 39.7872V77.334" stroke="white" stroke-width="2" stroke-miterlimit="10" stroke-linecap="round" stroke-linejoin="round"/>
<path d="M25.6919 39.2826H33.8458C34.5964 39.2826 35.2048 38.6741 35.2048 37.9236V35.2056C35.2048 34.455 34.5964 33.8467 33.8458 33.8467H25.6919C24.9414 33.8467 24.333 34.4552 24.333 35.2056V37.9236C24.333 38.6742 24.9414 39.2826 25.6919 39.2826Z" stroke="white" stroke-width="2" stroke-miterlimit="10" stroke-linecap="round" stroke-linejoin="round"/>
<path d="M48.7948 51.5127V47.4358C48.7948 45.9346 47.578 44.7178 46.0768 44.7178H13.4612C11.9602 44.7178 10.7432 45.9346 10.7432 47.4358V82.7694" stroke="white" stroke-width="2" stroke-miterlimit="10" stroke-linecap="round" stroke-linejoin="round"/>
<path d="M48.7948 51.5127H10.7432" stroke="white" stroke-width="2" stroke-miterlimit="10" stroke-linecap="round" stroke-linejoin="round"/>
<path d="M48.7947 82.7701C51.0464 82.7701 52.8717 80.9448 52.8717 78.6932C52.8717 76.4415 51.0464 74.6162 48.7947 74.6162C46.5431 74.6162 44.7178 76.4415 44.7178 78.6932C44.7178 80.9448 46.5431 82.7701 48.7947 82.7701Z" stroke="white" stroke-width="2" stroke-miterlimit="10" stroke-linecap="round" stroke-linejoin="round"/>
<path d="M71.8973 82.7701C74.1489 82.7701 75.9742 80.9448 75.9742 78.6932C75.9742 76.4415 74.1489 74.6162 71.8973 74.6162C69.6456 74.6162 67.8203 76.4415 67.8203 78.6932C67.8203 80.9448 69.6456 82.7701 71.8973 82.7701Z" stroke="white" stroke-width="2" stroke-miterlimit="10" stroke-linecap="round" stroke-linejoin="round"/>
<path d="M33.8457 71.8975H37.9227C38.6732 71.8975 39.2816 72.506 39.2816 73.2564V77.3333" stroke="white" stroke-width="2" stroke-miterlimit="10" stroke-linecap="round" stroke-linejoin="round"/>
<path d="M33.8457 62.4316V75.9752C33.8457 76.7258 34.4542 77.3341 35.2046 77.3341H44.9504" stroke="white" stroke-width="2" stroke-miterlimit="10" stroke-linecap="round" stroke-linejoin="round"/>
<path d="M52.6387 77.3335H63.7435V54.2307C63.7435 52.7297 62.5266 51.5127 61.0254 51.5127H36.5637C35.0626 51.5127 33.8457 52.7295 33.8457 54.2307V56.6116" stroke="white" stroke-width="2" stroke-miterlimit="10" stroke-linecap="round" stroke-linejoin="round"/>
<path d="M63.7441 77.334H68.0541" stroke="white" stroke-width="2" stroke-miterlimit="10" stroke-linecap="round" stroke-linejoin="round"/>
<path d="M75.742 77.3343H78.6929C79.4434 77.3343 80.0518 76.7258 80.0518 75.9753V67.2854C80.0518 66.7488 79.893 66.2243 79.5954 65.7777L75.4228 59.5189C74.9186 58.7627 74.0701 58.3086 73.1613 58.3086H63.7441" stroke="white" stroke-width="2" stroke-miterlimit="10" stroke-linecap="round" stroke-linejoin="round"/>
<path d="M69.1797 58.3076V63.9768C69.1797 64.6977 69.466 65.389 69.9757 65.8986L71.1015 67.0244C71.6113 67.5342 72.3026 67.8205 73.0233 67.8205H80.0515" stroke="white" stroke-width="2" stroke-miterlimit="10" stroke-linecap="round" stroke-linejoin="round"/>
<path d="M64.4229 13.5175H71.6708C72.046 13.5175 72.3504 13.8216 72.3504 14.197V16.2355C72.3504 16.7954 72.9896 17.115 73.4376 16.779L82.4975 9.98406C82.8599 9.71221 82.8599 9.16867 82.4975 8.89682L73.4375 2.10201C72.9896 1.76601 72.3502 2.0856 72.3502 2.64555V4.68402C72.3502 5.05923 72.046 5.36357 71.6707 5.36357H64.4227C64.0475 5.36357 63.7432 5.66774 63.7432 6.04312V12.8381C63.7433 13.2133 64.0477 13.5175 64.4229 13.5175Z" stroke="white" stroke-width="2" stroke-miterlimit="10" stroke-linecap="round" stroke-linejoin="round"/>
<path d="M65.7818 18.8976H58.534C58.1588 18.8976 57.8545 18.5934 57.8545 18.218V16.1797C57.8545 15.6198 57.2153 15.3002 56.7672 15.6362L47.7074 22.431C47.3449 22.7029 47.3449 23.2464 47.7074 23.5182L56.7672 30.3132C57.2151 30.6492 57.8545 30.3296 57.8545 29.7697V27.7312C57.8545 27.356 58.1586 27.0517 58.534 27.0517H65.7818C66.157 27.0517 66.4613 26.7475 66.4613 26.3721V19.5771C66.4613 19.2018 66.1572 18.8976 65.7818 18.8976Z" stroke="white" stroke-width="2" stroke-miterlimit="10" stroke-linecap="round" stroke-linejoin="round"/>
</g>
<defs>
<clipPath id="clip0_6969_14764">
<rect width="84" height="84" fill="white"/>
</clipPath>
</defs>
</svg>
