<svg width="84" height="84" viewBox="0 0 84 84" fill="none" xmlns="http://www.w3.org/2000/svg">
<path d="M29.7071 35.2373H24.0957V48.5891H29.7071" stroke="black" stroke-width="1.296" stroke-miterlimit="10" stroke-linecap="round" stroke-linejoin="round"/>
<path d="M29.2933 41.9131H24.0957" stroke="black" stroke-width="1.296" stroke-miterlimit="10" stroke-linecap="round" stroke-linejoin="round"/>
<path d="M57.8653 36.3264C56.7927 35.5999 55.4996 35.1758 54.1076 35.1758C50.3958 35.1758 47.3867 38.1922 47.3867 41.9132C47.3867 45.6342 50.3958 48.6506 54.1076 48.6506C57.8195 48.6506 59.9093 45.6342 59.9093 41.9132H55.8883" stroke="black" stroke-width="1.296" stroke-miterlimit="10" stroke-linecap="round" stroke-linejoin="round"/>
<path d="M42.4526 36.561C42.4526 36.561 40.0407 34.5285 37.1964 35.3875C34.5847 36.1762 34.2195 39.195 36.1089 40.4299C36.1089 40.4299 37.9629 41.2591 40.0193 42.0194C44.9695 43.8499 42.8371 48.6507 38.8521 48.6507C36.8566 48.6507 35.1818 47.7747 34.168 46.6532" stroke="black" stroke-width="1.296" stroke-miterlimit="10" stroke-linecap="round" stroke-linejoin="round"/>
<path d="M26.3653 22.8227C20.8692 27.3534 17.3643 34.2229 17.3643 41.913C17.3643 55.5567 28.3974 66.6171 42.0073 66.6171C55.6172 66.6171 66.6504 55.5567 66.6504 41.913C66.6504 28.2693 55.6174 17.209 42.0073 17.209C37.7785 17.209 33.7984 18.2767 30.3208 20.1582" stroke="black" stroke-width="1.296" stroke-miterlimit="10" stroke-linecap="round" stroke-linejoin="round"/>
<path d="M44.2429 12.8031C43.5029 12.7466 42.7552 12.7178 42.0009 12.7178C41.2464 12.7178 40.4988 12.7466 39.7588 12.8031" stroke="black" stroke-width="1.296" stroke-miterlimit="10" stroke-linecap="round" stroke-linejoin="round"/>
<path d="M66.0332 58.4142C66.876 57.183 67.6272 55.8837 68.2766 54.5264" stroke="black" stroke-width="1.296" stroke-miterlimit="10" stroke-linecap="round" stroke-linejoin="round"/>
<path d="M15.7275 54.5264C16.3771 55.8837 17.1282 57.183 17.971 58.4142" stroke="black" stroke-width="1.296" stroke-miterlimit="10" stroke-linecap="round" stroke-linejoin="round"/>
<path d="M45.4803 8.40644C44.8182 8.33816 44.2412 8.85669 44.2412 9.52395V17.3114C56.8011 18.4464 66.6441 29.0263 66.6441 41.9127C66.6441 45.6119 65.8316 49.1204 64.3781 52.2708L71.1068 56.1652C71.6831 56.4988 72.4198 56.2577 72.6915 55.6487C74.5631 51.4537 75.6053 46.8054 75.6053 41.9127C75.6053 24.4857 62.4043 10.1519 45.4803 8.40644Z" stroke="black" stroke-width="2" stroke-miterlimit="10" stroke-linecap="round" stroke-linejoin="round"/>
<path d="M23.976 70.3498C29.1843 73.6747 35.3675 75.601 41.9999 75.601C53.1869 75.601 63.0963 70.1204 69.2043 61.692C69.5967 61.1506 69.4397 60.3885 68.8615 60.0538L62.134 56.1602C57.6715 62.4867 50.3171 66.6177 41.9999 66.6177C33.6827 66.6177 26.3283 62.4868 21.8657 56.1602L15.1383 60.0538C14.5602 60.3885 14.4032 61.1506 14.7955 61.692C16.2715 63.7288 17.9695 65.5934 19.8538 67.2501" stroke="black" stroke-width="2" stroke-miterlimit="10" stroke-linecap="round" stroke-linejoin="round"/>
<path d="M39.7682 17.3115V9.52395C39.7682 8.85669 39.1912 8.33816 38.5291 8.40644C21.6053 10.152 8.4043 24.4858 8.4043 41.9128C8.4043 46.8055 9.4465 51.4538 11.3181 55.6489C11.5897 56.2578 12.3265 56.4989 12.9028 56.1654L19.6315 52.2709C18.1779 49.1205 17.3655 45.612 17.3655 41.9128" stroke="black" stroke-width="2" stroke-miterlimit="10" stroke-linecap="round" stroke-linejoin="round"/>
</svg>
