<svg width="84" height="84" viewBox="0 0 84 84" fill="none" xmlns="http://www.w3.org/2000/svg">
<mask id="mask0_6969_14820" style="mask-type:luminance" maskUnits="userSpaceOnUse" x="8" y="8" width="68" height="68">
<path d="M8.40625 8.39961H75.6062V75.5996H8.40625V8.39961Z" fill="white"/>
</mask>
<g mask="url(#mask0_6969_14820)">
<path d="M71.0098 16.2744C72.8172 16.2744 74.2911 14.8005 74.2911 12.9932C74.2911 11.1859 72.8172 9.71192 71.0098 9.71192C69.2025 9.71192 67.7285 11.1859 67.7285 12.9932C67.7285 14.8005 69.2025 16.2744 71.0098 16.2744Z" stroke="white" stroke-width="1.28" stroke-miterlimit="22.926" stroke-linecap="round" stroke-linejoin="round"/>
<path d="M71.0098 35.6113C72.8172 35.6113 74.2911 34.1373 74.2911 32.3301C74.2911 30.5228 72.8172 29.0488 71.0098 29.0488C69.2025 29.0488 67.7285 30.5228 67.7285 32.3301C67.7285 34.1373 69.2025 35.6113 71.0098 35.6113Z" stroke="white" stroke-width="1.28" stroke-miterlimit="22.926" stroke-linecap="round" stroke-linejoin="round"/>
<path d="M71.0098 54.9492C72.8172 54.9492 74.2911 53.4753 74.2911 51.668C74.2911 49.8607 72.8172 48.3867 71.0098 48.3867C69.2025 48.3867 67.7285 49.8607 67.7285 51.668C67.7285 53.4753 69.2025 54.9492 71.0098 54.9492Z" stroke="white" stroke-width="1.28" stroke-miterlimit="22.926" stroke-linecap="round" stroke-linejoin="round"/>
<path d="M71.0098 74.2871C72.8172 74.2871 74.2911 72.8132 74.2911 71.0059C74.2911 69.1985 72.8172 67.7246 71.0098 67.7246C69.2025 67.7246 67.7285 69.1985 67.7285 71.0059C67.7285 72.8132 69.2025 74.2871 71.0098 74.2871Z" stroke="white" stroke-width="1.28" stroke-miterlimit="22.926" stroke-linecap="round" stroke-linejoin="round"/>
<path d="M50.0957 22.9346L55.8354 12.993H67.0858" stroke="white" stroke-width="1.28" stroke-miterlimit="22.926" stroke-linecap="round" stroke-linejoin="round"/>
<path d="M49.127 54.8576L58.45 71.0059H67.0754" stroke="white" stroke-width="1.28" stroke-miterlimit="22.926" stroke-linecap="round" stroke-linejoin="round"/>
<path d="M55.1582 45.9606L58.4534 51.668H67.0787" stroke="white" stroke-width="1.28" stroke-miterlimit="22.926" stroke-linecap="round" stroke-linejoin="round"/>
<path d="M57.4707 32.3301H67.0772" stroke="white" stroke-width="1.28" stroke-miterlimit="22.926" stroke-linecap="round" stroke-linejoin="round"/>
<path d="M13.002 16.2744C14.8093 16.2744 16.2832 14.8005 16.2832 12.9932C16.2832 11.1859 14.8093 9.71192 13.002 9.71192C11.1946 9.71192 9.7207 11.1859 9.7207 12.9932C9.7207 14.8005 11.1946 16.2744 13.002 16.2744Z" stroke="white" stroke-width="1.28" stroke-miterlimit="22.926" stroke-linecap="round" stroke-linejoin="round"/>
<path d="M13.002 35.6113C14.8093 35.6113 16.2832 34.1373 16.2832 32.3301C16.2832 30.5228 14.8093 29.0488 13.002 29.0488C11.1946 29.0488 9.7207 30.5228 9.7207 32.3301C9.7207 34.1373 11.1946 35.6113 13.002 35.6113Z" stroke="white" stroke-width="1.28" stroke-miterlimit="22.926" stroke-linecap="round" stroke-linejoin="round"/>
<path d="M13.002 54.9492C14.8093 54.9492 16.2832 53.4753 16.2832 51.668C16.2832 49.8607 14.8093 48.3867 13.002 48.3867C11.1946 48.3867 9.7207 49.8607 9.7207 51.668C9.7207 53.4753 11.1946 54.9492 13.002 54.9492Z" stroke="white" stroke-width="1.28" stroke-miterlimit="22.926" stroke-linecap="round" stroke-linejoin="round"/>
<path d="M13.002 74.2871C14.8093 74.2871 16.2832 72.8132 16.2832 71.0059C16.2832 69.1985 14.8093 67.7246 13.002 67.7246C11.1946 67.7246 9.7207 69.1985 9.7207 71.0059C9.7207 72.8132 11.1946 74.2871 13.002 74.2871Z" stroke="white" stroke-width="1.28" stroke-miterlimit="22.926" stroke-linecap="round" stroke-linejoin="round"/>
<path d="M33.9295 22.9346L28.1898 12.993H16.9395" stroke="white" stroke-width="1.28" stroke-miterlimit="22.926" stroke-linecap="round" stroke-linejoin="round"/>
<path d="M34.8879 54.8576L25.5647 71.0059H16.9395" stroke="white" stroke-width="1.28" stroke-miterlimit="22.926" stroke-linecap="round" stroke-linejoin="round"/>
<path d="M28.86 45.9606L25.5647 51.668H16.9395" stroke="white" stroke-width="1.28" stroke-miterlimit="22.926" stroke-linecap="round" stroke-linejoin="round"/>
<path d="M26.5459 32.3301H16.9395" stroke="white" stroke-width="1.28" stroke-miterlimit="22.926" stroke-linecap="round" stroke-linejoin="round"/>
<path d="M42.0059 62.3018C49.9004 60.1518 54.4016 55.7503 56.9512 50.1582C59.5047 44.5573 60.1134 37.7317 60.125 30.6943L51.1084 21.6768H32.9033L23.8857 30.6943C23.8973 37.7317 24.507 44.5573 27.0605 50.1582C29.6101 55.7502 34.1114 60.1518 42.0059 62.3018Z" fill="#8A52A0" stroke="white"/>
<path d="M45.5433 38.9099C44.9872 39.4905 44.3324 39.9056 43.6354 40.1554L43.6366 41.7513L44.6745 42.3699V44.5723L43.6391 45.1292L43.6399 46.7221L44.6745 47.3555V49.2586L42.5092 50.999L40.1745 49.6085V40.0762C39.5546 39.8216 38.9734 39.4331 38.4722 38.9099C36.5197 36.8714 36.5197 33.5663 38.4722 31.5279C40.4249 29.4894 43.5907 29.4894 45.5433 31.5279C47.496 33.5663 47.496 36.8714 45.5433 38.9099Z" stroke="white" stroke-width="1.28" stroke-miterlimit="2.613" stroke-linecap="round" stroke-linejoin="round"/>
<path d="M42.0059 34.6836H42.0072" stroke="white" stroke-width="1.28" stroke-miterlimit="22.926" stroke-linecap="round" stroke-linejoin="round"/>
</g>
</svg>
