<svg width="84" height="84" viewBox="0 0 84 84" fill="none" xmlns="http://www.w3.org/2000/svg">
<mask id="mask0_6969_14942" style="mask-type:luminance" maskUnits="userSpaceOnUse" x="5" y="5" width="74" height="74">
<path d="M5.03418 5.03996H78.9542V78.96H5.03418V5.03996Z" fill="white"/>
</mask>
<g mask="url(#mask0_6969_14942)">
<path d="M77.5092 33.4338V29.1023L59.7509 19.6313L41.9928 10.1603L24.2347 19.6313L6.47656 29.1023V57.9573M6.47656 69.5073V73.8389H77.5092V44.9838" stroke="white" stroke-width="2.2" stroke-miterlimit="22.926" stroke-linecap="round" stroke-linejoin="round"/>
<path d="M42.0005 40.8042C45.5526 40.8042 48.4321 43.6836 48.4321 47.2357C48.4321 50.7876 45.5526 53.6672 42.0005 53.6672C38.4484 53.6672 35.5689 50.7876 35.5689 47.2357C35.5689 43.6836 38.4484 40.8042 42.0005 40.8042ZM45.3109 32.6606C46.9863 33.0396 48.555 33.7004 49.9648 34.59L52.768 31.7868L57.4493 36.4682L54.6462 39.2714C55.5359 40.6809 56.1967 42.2498 56.5757 43.9255H60.5381V50.5459H56.576C56.1967 52.2215 55.5361 53.7903 54.6463 55.2001L57.4493 58.0032L52.768 62.6845L49.9649 59.8815C48.5553 60.7713 46.9863 61.4319 45.3109 61.8109V65.7734H38.6903V61.8109C37.0146 61.4319 35.4459 60.7711 34.036 59.8815L31.233 62.6845L26.5516 58.0032L29.3548 55.2001C28.4651 53.7903 27.8042 52.2215 27.4253 50.5459H23.4629V43.9255H27.425C27.8042 42.2498 28.4649 40.6811 29.3548 39.2714L26.5516 36.4682L31.233 31.7868L34.036 34.59C35.446 33.7002 37.0146 33.0396 38.6903 32.6606V28.6979H45.3109V32.6606Z" stroke="white" stroke-width="2.2" stroke-miterlimit="22.926" stroke-linecap="round" stroke-linejoin="round"/>
<path fill-rule="evenodd" clip-rule="evenodd" d="M6.47695 65.1758C7.27217 65.1758 7.92085 64.5272 7.92085 63.732C7.92085 62.9368 7.27217 62.2883 6.47695 62.2883C5.68174 62.2883 5.0332 62.9368 5.0332 63.732C5.0332 64.5272 5.68174 65.1758 6.47695 65.1758Z" fill="white"/>
<path fill-rule="evenodd" clip-rule="evenodd" d="M77.5102 40.6523C78.3052 40.6523 78.9539 40.0038 78.9539 39.2086C78.9539 38.4134 78.3052 37.7648 77.5102 37.7648C76.7149 37.7648 76.0664 38.4134 76.0664 39.2086C76.0664 40.0038 76.7149 40.6523 77.5102 40.6523Z" fill="white"/>
</g>
</svg>
