<svg width="84" height="84" viewBox="0 0 84 84" fill="none" xmlns="http://www.w3.org/2000/svg">
<mask id="mask0_6969_14871" style="mask-type:luminance" maskUnits="userSpaceOnUse" x="6" y="6" width="72" height="72">
<path d="M6.31152 6.3002H77.7115V77.7002H6.31152V6.3002Z" fill="white"/>
</mask>
<g mask="url(#mask0_6969_14871)">
<path d="M18.749 20.0869C19.9285 18.737 21.2151 17.4842 22.5954 16.3416" stroke="white" stroke-width="2" stroke-miterlimit="10" stroke-linecap="round" stroke-linejoin="round"/>
<path d="M11.3838 34.4893C12.2165 30.8686 13.638 27.4745 15.5414 24.4142" stroke="white" stroke-width="2" stroke-miterlimit="10" stroke-linecap="round" stroke-linejoin="round"/>
<path d="M22.3852 67.4863C15.1423 61.3914 10.5361 52.2366 10.5361 42.0006C10.5361 41.6118 10.5428 41.2245 10.5559 40.8391" stroke="white" stroke-width="2" stroke-miterlimit="10" stroke-linecap="round" stroke-linejoin="round"/>
<path d="M59.6178 71.072C54.8715 73.7191 49.4087 75.2266 43.5956 75.2266C37.8023 75.2266 32.3571 73.7294 27.6221 71.0989" stroke="white" stroke-width="2" stroke-miterlimit="10" stroke-linecap="round" stroke-linejoin="round"/>
<path d="M71.6344 24.3797C74.8202 29.4874 76.6621 35.528 76.6621 42.0008C76.6621 52.2219 72.0695 61.365 64.8447 67.46" stroke="white" stroke-width="2" stroke-miterlimit="10" stroke-linecap="round" stroke-linejoin="round"/>
<path d="M64.3135 16.1023C65.537 17.0919 66.6892 18.1673 67.7606 19.3193" stroke="white" stroke-width="2" stroke-miterlimit="10" stroke-linecap="round" stroke-linejoin="round"/>
<path d="M27.8369 12.7881C32.5234 10.2284 37.8947 8.77435 43.6039 8.77435C49.1665 8.77435 54.4085 10.1548 59.0087 12.5933" stroke="white" stroke-width="2" stroke-miterlimit="10" stroke-linecap="round" stroke-linejoin="round"/>
<path d="M46.374 20.3896C50.0981 18.0721 54.2006 16.2505 58.6092 15.0346" stroke="white" stroke-width="2" stroke-miterlimit="10" stroke-linecap="round" stroke-linejoin="round"/>
<path d="M32.8271 33.2012C35.2094 29.8204 38.0356 26.7515 41.242 24.0908" stroke="white" stroke-width="2" stroke-miterlimit="10" stroke-linecap="round" stroke-linejoin="round"/>
<path d="M24.5553 66.1006C23.365 56.3697 25.2468 46.8714 29.4975 38.6748" stroke="white" stroke-width="2" stroke-miterlimit="10" stroke-linecap="round" stroke-linejoin="round"/>
<path d="M40.8309 20.3896C36.9808 17.9937 32.7265 16.128 28.1475 14.9133" stroke="white" stroke-width="2" stroke-miterlimit="10" stroke-linecap="round" stroke-linejoin="round"/>
<path d="M58.9203 41.2031C55.979 34.6003 51.5476 28.7264 45.9619 24.0915" stroke="white" stroke-width="2" stroke-miterlimit="10" stroke-linecap="round" stroke-linejoin="round"/>
<path d="M62.4944 53.4785C62.1805 51.3553 61.7206 49.2542 61.1201 47.1938" stroke="white" stroke-width="2" stroke-miterlimit="10" stroke-linecap="round" stroke-linejoin="round"/>
<path d="M62.6279 66.2588C62.9045 64.0558 63.0275 61.8341 62.993 59.614" stroke="white" stroke-width="2" stroke-miterlimit="10" stroke-linecap="round" stroke-linejoin="round"/>
<path d="M28.0503 35.2724C23.2871 35.2481 18.4522 35.7592 13.6201 36.8496" stroke="white" stroke-width="2" stroke-miterlimit="10" stroke-linecap="round" stroke-linejoin="round"/>
<path d="M57.3728 42.5938C50.2816 38.8762 42.4906 36.4765 34.3857 35.6214" stroke="white" stroke-width="2" stroke-miterlimit="10" stroke-linecap="round" stroke-linejoin="round"/>
<path d="M73.9944 55.0986C70.6279 51.5833 66.8858 48.475 62.8525 45.8235" stroke="white" stroke-width="2" stroke-miterlimit="10" stroke-linecap="round" stroke-linejoin="round"/>
<path d="M61.7334 41.3867C64.8524 36.366 67.3115 30.8641 68.977 24.9915" stroke="white" stroke-width="2" stroke-miterlimit="10" stroke-linecap="round" stroke-linejoin="round"/>
<path d="M28.0498 68.3018C40.0034 64.1792 50.464 56.5888 58.1204 46.6119" stroke="white" stroke-width="2" stroke-miterlimit="10" stroke-linecap="round" stroke-linejoin="round"/>
<path d="M43.5986 25.1523C41.8453 25.1523 40.4189 23.719 40.4189 21.9571C40.4189 20.1952 41.8453 18.7619 43.5986 18.7619C45.352 18.7619 46.7783 20.1952 46.7783 21.9571C46.7783 23.719 45.352 25.1523 43.5986 25.1523Z" stroke="white" stroke-width="2" stroke-miterlimit="10" stroke-linecap="round" stroke-linejoin="round"/>
<path d="M31.2295 39.1924C29.4761 39.1924 28.0498 37.7589 28.0498 35.9971C28.0498 34.2352 29.4761 32.8018 31.2295 32.8018C32.9828 32.8018 34.4091 34.2352 34.4091 35.9971C34.4091 37.7589 32.9828 39.1924 31.2295 39.1924Z" stroke="white" stroke-width="2" stroke-miterlimit="10" stroke-linecap="round" stroke-linejoin="round"/>
<path d="M60.1435 47.3477C58.3902 47.3477 56.9639 45.9142 56.9639 44.1524C56.9639 42.3905 58.3902 40.9571 60.1435 40.9571C61.8969 40.9571 63.3232 42.3905 63.3232 44.1524C63.3232 45.9142 61.8969 47.3477 60.1435 47.3477Z" stroke="white" stroke-width="2" stroke-miterlimit="10" stroke-linecap="round" stroke-linejoin="round"/>
<path d="M25.0283 72.4551C23.275 72.4551 21.8486 71.0218 21.8486 69.2598C21.8486 67.4979 23.275 66.0646 25.0283 66.0646C26.7816 66.0646 28.2081 67.4979 28.2081 69.2598C28.2081 71.0218 26.7816 72.4551 25.0283 72.4551Z" stroke="white" stroke-width="2" stroke-miterlimit="10" stroke-linecap="round" stroke-linejoin="round"/>
<path d="M62.3545 72.6367C60.6011 72.6367 59.1748 71.2033 59.1748 69.4414C59.1748 67.6796 60.6011 66.2461 62.3545 66.2461C64.1078 66.2461 65.5343 67.6796 65.5343 69.4414C65.5343 71.2033 64.1078 72.6367 62.3545 72.6367Z" stroke="white" stroke-width="2" stroke-miterlimit="10" stroke-linecap="round" stroke-linejoin="round"/>
<path d="M69.7687 24.9912C68.0153 24.9912 66.5889 23.5578 66.5889 21.7959C66.5889 20.0341 68.0153 18.6006 69.7687 18.6006C71.522 18.6006 72.9483 20.0341 72.9483 21.7959C72.9483 23.5578 71.522 24.9912 69.7687 24.9912Z" stroke="white" stroke-width="2" stroke-miterlimit="10" stroke-linecap="round" stroke-linejoin="round"/>
<path d="M61.6963 17.4873C59.9429 17.4873 58.5166 16.054 58.5166 14.292C58.5166 12.5302 59.9429 11.0969 61.6963 11.0969C63.4496 11.0969 64.8761 12.5302 64.8761 14.292C64.8761 16.054 63.4496 17.4873 61.6963 17.4873Z" stroke="white" stroke-width="2" stroke-miterlimit="10" stroke-linecap="round" stroke-linejoin="round"/>
<path d="M25.0283 17.4873C23.275 17.4873 21.8486 16.054 21.8486 14.292C21.8486 12.5302 23.275 11.0969 25.0283 11.0969C26.7816 11.0969 28.2081 12.5302 28.2081 14.292C28.2081 16.054 26.7816 17.4873 25.0283 17.4873Z" stroke="white" stroke-width="2" stroke-miterlimit="10" stroke-linecap="round" stroke-linejoin="round"/>
<path d="M10.5342 40.8379C8.78082 40.8379 7.35449 39.4046 7.35449 37.6426C7.35449 35.8808 8.78082 34.4475 10.5342 34.4475C12.2875 34.4475 13.7138 35.8808 13.7138 37.6426C13.7138 39.4046 12.2875 40.8379 10.5342 40.8379Z" stroke="white" stroke-width="2" stroke-miterlimit="10" stroke-linecap="round" stroke-linejoin="round"/>
</g>
</svg>
