<svg width="90" height="90" viewBox="0 0 90 90" fill="none" xmlns="http://www.w3.org/2000/svg">
<path d="M78.6953 63.5623L12.2953 45.7705V63.5623H78.6953Z" stroke="#0db14b" stroke-width="1.12" stroke-miterlimit="10" stroke-linejoin="round"/>
<path d="M49.1997 31.5612L47.153 30.6924C46.9979 30.6265 46.8186 30.699 46.7528 30.8542L43.908 37.5561" stroke="black" stroke-width="1.12" stroke-miterlimit="10" stroke-linecap="round" stroke-linejoin="round"/>
<path d="M53.8542 33.5378L51.5266 32.5497" stroke="black" stroke-width="1.12" stroke-miterlimit="10" stroke-linecap="round" stroke-linejoin="round"/>
<path d="M48.3353 33.9421L50.4132 34.8241C50.4821 34.8534 50.5618 34.8212 50.5911 34.7523L51.5261 32.5495L49.1984 31.5614L48.2634 33.7642C48.2341 33.8332 48.2663 33.9128 48.3353 33.9421Z" stroke="black" stroke-width="1.12" stroke-miterlimit="10" stroke-linecap="round" stroke-linejoin="round"/>
<path d="M47.0156 38.8729L50.8951 40.5196" stroke="black" stroke-width="1.12" stroke-miterlimit="10" stroke-linecap="round" stroke-linejoin="round"/>
<path d="M38.9835 38.3808L39.8205 36.409C39.9376 36.1331 40.2562 36.0044 40.5321 36.1215L43.912 37.5562" stroke="black" stroke-width="1.12" stroke-miterlimit="10" stroke-linecap="round" stroke-linejoin="round"/>
<path d="M36.0815 45.2204L38.2422 40.1301" stroke="black" stroke-width="1.12" stroke-miterlimit="10" stroke-linecap="round" stroke-linejoin="round"/>
<path d="M43.9078 37.5558L47.0114 38.8732L46.1294 40.9511C46.0708 41.089 45.9115 41.1534 45.7735 41.0948L43.1696 39.9895C43.0316 39.931 42.9673 39.7717 43.0258 39.6337L43.9078 37.5558Z" stroke="black" stroke-width="1.12" stroke-miterlimit="10" stroke-linecap="round" stroke-linejoin="round"/>
<path d="M54.6719 35.9365L49.4616 48.2111" stroke="black" stroke-width="1.12" stroke-miterlimit="10" stroke-linecap="round" stroke-linejoin="round"/>
<path d="M47.9036 47.5494L55.0859 30.6288C55.4959 29.6632 56.6109 29.2127 57.5766 29.6226L58.1558 29.8684L57.4971 31.4201L56.9709 31.1968C56.833 31.1383 56.6737 31.2027 56.6151 31.3406L55.3987 34.2063" stroke="black" stroke-width="1.12" stroke-miterlimit="10" stroke-linecap="round" stroke-linejoin="round"/>
<path d="M37.0736 42.8926C37.2556 42.4641 37.0556 41.9693 36.6271 41.7874C36.1986 41.6055 35.7038 41.8054 35.5219 42.2339L34.5339 44.5616" stroke="black" stroke-width="1.12" stroke-miterlimit="10" stroke-linecap="round" stroke-linejoin="round"/>
<path d="M62.5659 31.7396C62.7038 31.7982 62.7682 31.9575 62.7097 32.0954L62.263 33.1477C62.2045 33.2856 62.0452 33.3499 61.9072 33.2914L57.5017 31.4214L58.1604 29.8696L62.5659 31.7396Z" stroke="black" stroke-width="1.12" stroke-miterlimit="10" stroke-linecap="round" stroke-linejoin="round"/>
<path d="M59.7188 30.5286L59.0601 32.0803" stroke="black" stroke-width="1.12" stroke-miterlimit="10" stroke-linecap="round" stroke-linejoin="round"/>
<path d="M61.2656 31.1865L60.6069 32.7383" stroke="black" stroke-width="1.12" stroke-miterlimit="10" stroke-linecap="round" stroke-linejoin="round"/>
<path d="M38.0976 47.9095L34.1143 46.2187C33.9764 46.1601 33.912 46.0008 33.9706 45.8629L34.5232 44.5609L44.6581 48.8629" stroke="black" stroke-width="1.12" stroke-miterlimit="10" stroke-linecap="round" stroke-linejoin="round"/>
<path d="M43.9935 50.4155L39.8347 48.6502" stroke="black" stroke-width="1.12" stroke-miterlimit="10" stroke-linecap="round" stroke-linejoin="round"/>
<path d="M46.9181 54.2751C45.0742 54.016 43.7895 52.3111 44.0486 50.4672C44.3077 48.6232 46.0126 47.3385 47.8566 47.5977C49.7005 47.8568 50.9852 49.5617 50.7261 51.4056C50.4669 53.2496 48.762 54.5343 46.9181 54.2751Z" stroke="#F47922" stroke-width="1.12" stroke-miterlimit="10" stroke-linecap="round" stroke-linejoin="round"/>
</svg>
