<svg width="90" height="90" viewBox="0 0 90 90" fill="none" xmlns="http://www.w3.org/2000/svg">
<path d="M32.3642 66.592C31.3 66.592 30.4375 65.7293 30.4375 64.6653V61.4097H34.2909V64.6653C34.2908 65.7293 33.4282 66.592 32.3642 66.592Z" stroke="black" stroke-width="1.44609" stroke-miterlimit="10" stroke-linecap="round" stroke-linejoin="round"/>
<path d="M49.5907 66.592C48.5266 66.592 47.6641 65.7293 47.6641 64.6653V61.4097H51.5175V64.6653C51.5175 65.7293 50.6549 66.592 49.5907 66.592Z" stroke="black" stroke-width="1.44609" stroke-miterlimit="10" stroke-linecap="round" stroke-linejoin="round"/>
<path d="M31.9959 58.8892C32.7746 58.8892 33.4058 58.258 33.4058 57.4793C33.4058 56.7006 32.7746 56.0693 31.9959 56.0693C31.2172 56.0693 30.5859 56.7006 30.5859 57.4793C30.5859 58.258 31.2172 58.8892 31.9959 58.8892Z" stroke="black" stroke-width="1.44609" stroke-miterlimit="10" stroke-linecap="round" stroke-linejoin="round"/>
<path d="M49.9568 58.8892C50.7355 58.8892 51.3667 58.258 51.3667 57.4793C51.3667 56.7006 50.7355 56.0693 49.9568 56.0693C49.1781 56.0693 48.5469 56.7006 48.5469 57.4793C48.5469 58.258 49.1781 58.8892 49.9568 58.8892Z" stroke="black" stroke-width="1.44609" stroke-miterlimit="10" stroke-linecap="round" stroke-linejoin="round"/>
<path d="M38.8187 61.409H52.9783C53.8058 61.409 54.4766 60.7383 54.4766 59.9108C54.4766 57.1288 54.4766 57.8228 54.4766 55.0478C54.4766 54.2204 53.8058 53.5496 52.9783 53.5496H28.9748C28.1474 53.5496 27.4766 54.2204 27.4766 55.0478V59.9108C27.4766 60.7383 28.1474 61.409 28.9748 61.409H36.0229" stroke="#F47922" stroke-width="1.44609" stroke-miterlimit="10" stroke-linecap="round" stroke-linejoin="round"/>
<path d="M37.0859 57.479H44.857" stroke="black" stroke-width="1.44609" stroke-miterlimit="10" stroke-linecap="round" stroke-linejoin="round"/>
<path d="M75.1719 55.3499V35.0999M75.1719 35.0999L72.9219 37.7999M75.1719 35.0999L77.8719 37.7999M75.1719 35.0999V59.3999M75.1719 59.3999L77.8719 55.7999M75.1719 59.3999L72.9219 55.7999" stroke="#0db14b" stroke-width="1.26"/>
<path d="M21.175 31.4997V65.2497H12.625V23.3997H70.225V65.2497H61.225V31.4997H21.175Z" stroke="black" stroke-width="1.26"/>
<path d="M57.6234 52.6497H24.7734V36.4497H57.6234V52.6497Z" stroke="black" stroke-width="1.26"/>
<path d="M24.7734 39.1499H57.1734" stroke="black" stroke-width="1.26"/>
<path d="M24.7734 41.8499H57.1734" stroke="black" stroke-width="1.26"/>
<path d="M24.7734 44.5498H40.9734H57.1734" stroke="black" stroke-width="1.26"/>
<path d="M24.7734 47.2498H40.9734H57.1734" stroke="black" stroke-width="1.26"/>
<path d="M24.7734 49.9497H40.9734H57.1734" stroke="black" stroke-width="1.26"/>
</svg>
