<svg width="90" height="90" viewBox="0 0 90 90" fill="none" xmlns="http://www.w3.org/2000/svg">
<path d="M32.4016 38.7C35.8811 38.7 38.7017 35.8794 38.7017 32.4C38.7017 28.9207 35.8811 26.1001 32.4016 26.1001C28.9222 26.1001 26.1016 28.9207 26.1016 32.4C26.1016 35.8794 28.9222 38.7 32.4016 38.7Z" stroke="#F47922" stroke-width="1.26" stroke-miterlimit="10" stroke-linecap="round" stroke-linejoin="round"/>
<path d="M32.3984 18V19.7998" stroke="black" stroke-width="1.26" stroke-miterlimit="10" stroke-linecap="round" stroke-linejoin="round"/>
<path d="M32.3984 45V46.7998" stroke="black" stroke-width="1.26" stroke-miterlimit="10" stroke-linecap="round" stroke-linejoin="round"/>
<path d="M22.2188 22.2178L23.4876 23.4902" stroke="black" stroke-width="1.26" stroke-miterlimit="10" stroke-linecap="round" stroke-linejoin="round"/>
<path d="M41.3125 41.3086L42.5814 42.581" stroke="black" stroke-width="1.26" stroke-miterlimit="10" stroke-linecap="round" stroke-linejoin="round"/>
<path d="M22.2188 42.581L23.4876 41.3086" stroke="black" stroke-width="1.26" stroke-miterlimit="10" stroke-linecap="round" stroke-linejoin="round"/>
<path d="M41.3125 23.4902L42.5814 22.2178" stroke="black" stroke-width="1.26" stroke-miterlimit="10" stroke-linecap="round" stroke-linejoin="round"/>
<path d="M18 32.3999H19.7999" stroke="black" stroke-width="1.26" stroke-miterlimit="10" stroke-linecap="round" stroke-linejoin="round"/>
<path d="M45 32.3999H46.7999" stroke="black" stroke-width="1.26" stroke-miterlimit="10" stroke-linecap="round" stroke-linejoin="round"/>
<path d="M25.2031 72.0001L48.6034 48.6001L72.0038 72.0001H62.1036L48.6034 58.5001L35.1032 72.0001H25.2031Z" stroke="#0db14b" stroke-width="1.26" stroke-miterlimit="10" stroke-linecap="round" stroke-linejoin="round"/>
<path d="M35.1016 72L48.6018 58.5L62.102 72H35.1016Z" stroke="black" stroke-width="1.26" stroke-miterlimit="10" stroke-linecap="round" stroke-linejoin="round"/>
</svg>
