<svg width="90" height="90" viewBox="0 0 90 90" fill="none" xmlns="http://www.w3.org/2000/svg">
<path d="M15 39.5118V15H36.9006C44.8063 24.8831 32.1591 26.7333 38.9857 33.2088C43.495 37.4861 33.9352 50.8908 43.5571 51.3408C48.6711 51.5799 51.5866 46.444 61.2571 50.4489C66.8652 52.7715 71.1166 50.5492 74.9988 49.9758V74.9989H15V50.4872" stroke="black" stroke-width="1.4" stroke-miterlimit="22.9256" stroke-linecap="round" stroke-linejoin="round"/>
<path d="M72.5625 15V50.2702" stroke="#F47922" stroke-width="1.4" stroke-miterlimit="22.9256" stroke-linecap="round" stroke-linejoin="round"/>
<path d="M63.7578 15V51.0054" stroke="black" stroke-width="1.4" stroke-miterlimit="22.9256" stroke-linecap="round" stroke-linejoin="round"/>
<path d="M46.1562 15V50.8162" stroke="black" stroke-width="1.4" stroke-miterlimit="22.9256" stroke-linecap="round" stroke-linejoin="round"/>
<path d="M38.8125 17.439H74.9972" stroke="black" stroke-width="1.4" stroke-miterlimit="22.9256" stroke-linecap="round" stroke-linejoin="round"/>
<path d="M40.2969 35.0403H74.9933" stroke="black" stroke-width="1.4" stroke-miterlimit="22.9256" stroke-linecap="round" stroke-linejoin="round"/>
<path d="M27.8031 36.219C29.2175 36.219 30.364 35.0724 30.364 33.6581C30.364 32.2437 29.2175 31.0972 27.8031 31.0972C26.3888 31.0972 25.2422 32.2437 25.2422 33.6581C25.2422 35.0724 26.3888 36.219 27.8031 36.219Z" stroke="black" stroke-width="1.4" stroke-miterlimit="22.9256" stroke-linecap="round" stroke-linejoin="round"/>
<path d="M44.0297 66.3406C45.444 66.3406 46.5906 65.194 46.5906 63.7797C46.5906 62.3653 45.444 61.2188 44.0297 61.2188C42.6153 61.2188 41.4688 62.3653 41.4688 63.7797C41.4688 65.194 42.6153 66.3406 44.0297 66.3406Z" stroke="black" stroke-width="1.4" stroke-miterlimit="22.9256" stroke-linecap="round" stroke-linejoin="round"/>
<path d="M22.3203 22.073H22.3215" stroke="black" stroke-width="1.4" stroke-miterlimit="22.9256" stroke-linecap="round" stroke-linejoin="round"/>
<path d="M31.5859 48.658H31.5872" stroke="black" stroke-width="1.4" stroke-miterlimit="22.9256" stroke-linecap="round" stroke-linejoin="round"/>
<path d="M24.7578 63.0479H24.759" stroke="black" stroke-width="1.4" stroke-miterlimit="22.9256" stroke-linecap="round" stroke-linejoin="round"/>
<path d="M55.7344 55.731H55.7356" stroke="black" stroke-width="1.4" stroke-miterlimit="22.9256" stroke-linecap="round" stroke-linejoin="round"/>
<path d="M63.7812 64.7551H63.7825" stroke="black" stroke-width="1.4" stroke-miterlimit="22.9256" stroke-linecap="round" stroke-linejoin="round"/>
<path d="M15 44.9995H15.0012" stroke="black" stroke-width="1.4" stroke-miterlimit="2.6131" stroke-linecap="round" stroke-linejoin="round"/>
<path d="M54.9609 15V31.8616V48.7233" stroke="#F47922" stroke-width="1.4" stroke-miterlimit="22.9256" stroke-linecap="round" stroke-linejoin="round"/>
<path d="M39.6016 43.8411H74.9977" stroke="#0db14b" stroke-width="1.4" stroke-miterlimit="22.9256" stroke-linecap="round" stroke-linejoin="round"/>
<path d="M38.1719 26.2397H75.0001" stroke="#0db14b" stroke-width="1.4" stroke-miterlimit="22.9256" stroke-linecap="round" stroke-linejoin="round"/>
</svg>
