<svg width="90" height="90" viewBox="0 0 90 90" fill="none" xmlns="http://www.w3.org/2000/svg">
<path d="M48.8047 58L39.8047 67V74" stroke="black"/>
<path d="M49.3047 57.5L39.8047 67V74" stroke="#F47922"/>
<path d="M35.8047 58L26.8047 67V74" stroke="#F47922"/>
<path d="M52.3047 68H17.8047C17.8047 68 21.8814 64.3816 24.8047 62.5C27.2289 60.9396 28.5719 59.9186 31.3047 59C33.0111 58.4264 34.032 58.3138 35.8047 58C41.5761 56.9783 44.978 58.1345 50.8047 57.5C54.5386 57.0934 56.7257 57.1393 60.3047 56C65.4744 54.3543 72.3047 49 72.3047 49L52.3047 68Z" stroke="#0db14b" stroke-width="1.4"/>
<path d="M36.3047 44L14.8047 64.5V74.5H52.8047L75.3047 51V44M36.3047 44H75.3047M36.3047 44V16M75.3047 44V15L36.3047 16M13.8047 74.5V37L36.3047 16" stroke="black" stroke-width="1.4"/>
<rect x="43.8047" y="71" width="1" height="1" fill="#D9D9D9"/>
<rect x="43.8047" y="71" width="1" height="1" fill="#D9D9D9"/>
<rect x="43.8047" y="71" width="1" height="1" fill="#D9D9D9"/>
<rect x="43.8047" y="71" width="1" height="1" fill="#D9D9D9"/>
<rect x="43.8047" y="71" width="1" height="1" fill="#D9D9D9"/>
<rect x="43.8047" y="71" width="1" height="1" fill="black"/>
<rect x="48.8047" y="71" width="1" height="1" fill="black"/>
<rect x="29.8047" y="71" width="1" height="1" fill="black"/>
<rect x="22.8047" y="71" width="1" height="1" fill="black"/>
<rect x="18.8047" y="71" width="1" height="1" fill="black"/>
<rect x="34.8047" y="71" width="1" height="1" fill="black"/>
</svg>
