<svg width="90" height="90" viewBox="0 0 90 90" fill="none" xmlns="http://www.w3.org/2000/svg">
<path d="M57.1797 41.7246L50.1719 38.359" stroke="black" stroke-width="0.9" stroke-miterlimit="10" stroke-linecap="round" stroke-linejoin="round"/>
<path d="M25.4592 62.8262C25.2829 63.0014 24.9979 63.0004 24.8228 62.8241L21.9684 59.951C21.7932 59.7747 21.7942 59.4897 21.9705 59.3146C22.1468 59.1394 22.4317 59.1403 22.6069 59.3167L25.1441 61.8706L27.698 59.3333C27.8743 59.1582 28.1592 59.1591 28.3344 59.3354C28.5096 59.5117 28.5086 59.7966 28.3323 59.9718L25.4592 62.8262ZM24.9359 28.2811C25.1122 28.106 25.3971 28.1069 25.5723 28.2832L28.4266 31.1564C28.6018 31.3327 28.6009 31.6176 28.4246 31.7927C28.2483 31.9679 27.9633 31.967 27.7882 31.7907L25.2509 29.2368L22.697 31.774C22.5207 31.9492 22.2358 31.9482 22.0606 31.7719C21.8855 31.5956 21.8864 31.3107 22.0627 31.1355L24.9359 28.2811ZM25.142 62.507L24.692 62.5055L24.803 28.5989L25.253 28.6004L25.703 28.6018L25.592 62.5084L25.142 62.507Z" fill="#F47920"/>
<path d="M52.2997 43.793L49.3281 42.3658" stroke="black" stroke-width="0.9" stroke-miterlimit="10" stroke-linecap="round" stroke-linejoin="round"/>
<path d="M50.1066 61.7754H31.0469V39.3463L77.7484 61.7754H58.6888" stroke="black" stroke-width="0.9" stroke-miterlimit="10" stroke-linecap="round" stroke-linejoin="round"/>
<path d="M28.3016 21.4488C28.3016 23.437 26.6898 25.0488 24.7015 25.0488C22.7133 25.0488 21.1016 23.437 21.1016 21.4488C21.1016 19.4606 22.7133 17.8488 24.7015 17.8488C26.6898 17.8488 28.3016 19.4606 28.3016 21.4488Z" stroke="black" stroke-width="0.9" stroke-miterlimit="10" stroke-linecap="round" stroke-linejoin="round"/>
<path d="M59.7656 44.2728L63.4621 51.2747L64.6685 48.8972L76.0316 54.9551L77.756 51.5569L66.3929 45.4991L67.5992 43.1216L59.7656 44.2728Z" stroke="#0DB14B" stroke-width="0.9" stroke-miterlimit="10" stroke-linecap="round" stroke-linejoin="round"/>
</svg>
