<svg width="91" height="91" viewBox="0 0 91 91" fill="none" xmlns="http://www.w3.org/2000/svg">
<path d="M47.625 25.6445L42.6138 25.6467" stroke="url(#paint0_linear_11392_8416)"/>
<path d="M47.625 25.6445L42.6138 25.6467" stroke="black"/>
<path d="M64.4733 69.3692L64.4609 41.0957" stroke="url(#paint1_linear_11392_8416)"/>
<path d="M64.4733 69.3692L64.4609 41.0957" stroke="black"/>
<path d="M25.6451 69.3907L25.6328 41.1172" stroke="url(#paint2_linear_11392_8416)"/>
<path d="M25.6451 69.3907L25.6328 41.1172" stroke="black"/>
<path d="M20.4822 69.4413L69.5916 69.4199L69.577 35.8715L44.9365 20.585L20.4676 35.8929L20.4822 69.4413Z" stroke="url(#paint3_linear_11392_8416)"/>
<path d="M20.4822 69.4413L69.5916 69.4199L69.577 35.8715L44.9365 20.585L20.4676 35.8929L20.4822 69.4413Z" stroke="black"/>
<path d="M65.6371 41.097L64.4563 41.0975L24.6631 41.1149C24.3539 41.115 24.1031 40.8645 24.103 40.5553L24.1018 37.8257C24.1016 37.516 24.353 37.265 24.6628 37.2656L65.6369 37.3504C65.9455 37.3511 66.1955 37.6014 66.1956 37.9101L66.1967 40.5369C66.1969 40.8461 65.9463 41.0969 65.6371 41.097Z" stroke="#0DB14B"/>
<path d="M50.9456 29.4649L50.9467 32.0124C50.9468 32.2823 50.7282 32.5011 50.4583 32.5012L39.691 32.5059C39.3818 32.5061 39.131 32.2555 39.1309 31.9463L39.1298 29.3784C39.1296 29.0674 39.3831 28.8158 39.6942 28.8183L50.3903 28.9052C50.6976 28.9077 50.9455 29.1575 50.9456 29.4649Z" stroke="url(#paint4_linear_11392_8416)"/>
<path d="M50.9456 29.4649L50.9467 32.0124C50.9468 32.2823 50.7282 32.5011 50.4583 32.5012L39.691 32.5059C39.3818 32.5061 39.131 32.2555 39.1309 31.9463L39.1298 29.3784C39.1296 29.0674 39.3831 28.8158 39.6942 28.8183L50.3903 28.9052C50.6976 28.9077 50.9455 29.1575 50.9456 29.4649Z" stroke="black"/>
<path d="M35.8868 57.2632L35.883 48.5506C35.8825 47.3693 36.8397 46.4113 38.021 46.4108C39.2023 46.4102 40.1603 47.3675 40.1608 48.5488L40.1646 57.2613C41.1219 57.9343 41.7478 59.0469 41.7484 60.306C41.7493 62.3612 40.0839 64.0281 38.0287 64.029C35.9734 64.0299 34.3066 62.3645 34.3057 60.3092C34.3051 59.0502 34.9301 57.937 35.8868 57.2632Z" stroke="url(#paint5_linear_11392_8416)" stroke-miterlimit="10" stroke-linecap="round" stroke-linejoin="round"/>
<path d="M35.8868 57.2632L35.883 48.5506C35.8825 47.3693 36.8397 46.4113 38.021 46.4108C39.2023 46.4102 40.1603 47.3675 40.1608 48.5488L40.1646 57.2613C41.1219 57.9343 41.7478 59.0469 41.7484 60.306C41.7493 62.3612 40.0839 64.0281 38.0287 64.029C35.9734 64.0299 34.3066 62.3645 34.3057 60.3092C34.3051 59.0502 34.9301 57.937 35.8868 57.2632Z" stroke="black" stroke-miterlimit="10" stroke-linecap="round" stroke-linejoin="round"/>
<path d="M38.9236 49.3682L38.9232 48.545C38.923 48.0498 38.52 47.6472 38.0249 47.6474C37.5298 47.6476 37.1271 48.0506 37.1274 48.5457L37.1314 57.8281C36.1283 58.2023 35.4599 59.1607 35.4603 60.2369C35.4609 61.654 36.6144 62.8064 38.0315 62.8058C39.4486 62.8052 40.6011 61.6518 40.6004 60.2346C40.6 59.1585 39.9307 58.2007 38.9273 57.8273L38.924 50.4342" stroke="url(#paint6_linear_11392_8416)" stroke-width="0.5" stroke-miterlimit="10" stroke-linecap="round" stroke-linejoin="round"/>
<path d="M38.9236 49.3682L38.9232 48.545C38.923 48.0498 38.52 47.6472 38.0249 47.6474C37.5298 47.6476 37.1271 48.0506 37.1274 48.5457L37.1314 57.8281C36.1283 58.2023 35.4599 59.1607 35.4603 60.2369C35.4609 61.654 36.6144 62.8064 38.0315 62.8058C39.4486 62.8052 40.6011 61.6518 40.6004 60.2346C40.6 59.1585 39.9307 58.2007 38.9273 57.8273L38.924 50.4342" stroke="black" stroke-width="0.5" stroke-miterlimit="10" stroke-linecap="round" stroke-linejoin="round"/>
<path d="M37.1416 56.6922L38.9375 56.6914" stroke="url(#paint7_linear_11392_8416)" stroke-miterlimit="10" stroke-linecap="round" stroke-linejoin="round"/>
<path d="M37.1416 56.6922L38.9375 56.6914" stroke="black" stroke-miterlimit="10" stroke-linecap="round" stroke-linejoin="round"/>
<path d="M34.3047 51.5273L32.7623 51.528" stroke="url(#paint8_linear_11392_8416)" stroke-miterlimit="10" stroke-linecap="round" stroke-linejoin="round"/>
<path d="M34.3047 51.5273L32.7623 51.528" stroke="black" stroke-miterlimit="10" stroke-linecap="round" stroke-linejoin="round"/>
<path d="M34.3047 49.377L33.6044 49.3773" stroke="url(#paint9_linear_11392_8416)" stroke-miterlimit="10" stroke-linecap="round" stroke-linejoin="round"/>
<path d="M34.3047 49.377L33.6044 49.3773" stroke="black" stroke-miterlimit="10" stroke-linecap="round" stroke-linejoin="round"/>
<path d="M34.3047 47.2168L33.3562 47.2172" stroke="url(#paint10_linear_11392_8416)" stroke-miterlimit="10" stroke-linecap="round" stroke-linejoin="round"/>
<path d="M34.3047 47.2168L33.3562 47.2172" stroke="black" stroke-miterlimit="10" stroke-linecap="round" stroke-linejoin="round"/>
<path d="M34.3125 55.8438L33.364 55.8442" stroke="url(#paint11_linear_11392_8416)" stroke-miterlimit="10" stroke-linecap="round" stroke-linejoin="round"/>
<path d="M34.3125 55.8438L33.364 55.8442" stroke="black" stroke-miterlimit="10" stroke-linecap="round" stroke-linejoin="round"/>
<path d="M34.3125 53.6914L33.6122 53.6917" stroke="url(#paint12_linear_11392_8416)" stroke-miterlimit="10" stroke-linecap="round" stroke-linejoin="round"/>
<path d="M34.3125 53.6914L33.6122 53.6917" stroke="black" stroke-miterlimit="10" stroke-linecap="round" stroke-linejoin="round"/>
<path d="M51.6178 47.0188L51.625 63.582" stroke="#F47920" stroke-miterlimit="10" stroke-linecap="round" stroke-linejoin="round"/>
<path d="M53.7649 48.5213L51.6277 50.2216L49.489 48.5232" stroke="#F47920" stroke-miterlimit="10" stroke-linecap="round" stroke-linejoin="round"/>
<path d="M53.7656 62.0703L51.627 60.3719L49.4897 62.0722" stroke="#F47920" stroke-miterlimit="10" stroke-linecap="round" stroke-linejoin="round"/>
<path d="M58.8438 59.3379L44.3884 51.2522" stroke="#F47920" stroke-miterlimit="10" stroke-linecap="round" stroke-linejoin="round"/>
<path d="M56.4813 60.4716L56.042 57.7762L58.5687 56.7399" stroke="#F47920" stroke-miterlimit="10" stroke-linecap="round" stroke-linejoin="round"/>
<path d="M44.6681 53.8605L47.1949 52.8241L46.7556 50.1287" stroke="#F47920" stroke-miterlimit="10" stroke-linecap="round" stroke-linejoin="round"/>
<path d="M44.3919 59.3442L58.8402 51.2459" stroke="#F47920" stroke-miterlimit="10" stroke-linecap="round" stroke-linejoin="round"/>
<path d="M46.765 60.4787L47.2019 57.7829L44.6743 56.7488" stroke="#F47920" stroke-miterlimit="10" stroke-linecap="round" stroke-linejoin="round"/>
<path d="M58.5703 53.8516L56.0427 52.8174L56.4796 50.1216" stroke="#F47920" stroke-miterlimit="10" stroke-linecap="round" stroke-linejoin="round"/>
<defs>
<linearGradient id="paint0_linear_11392_8416" x1="41.0261" y1="25.6474" x2="48.2121" y2="25.6443" gradientUnits="userSpaceOnUse">
<stop offset="0.110577" stop-color="#F47920"/>
<stop offset="0.75" stop-color="#8F53A1"/>
</linearGradient>
<linearGradient id="paint1_linear_11392_8416" x1="63.1441" y1="41.0963" x2="64.5781" y2="41.0957" gradientUnits="userSpaceOnUse">
<stop offset="0.110577" stop-color="#F47920"/>
<stop offset="0.75" stop-color="#8F53A1"/>
</linearGradient>
<linearGradient id="paint2_linear_11392_8416" x1="24.316" y1="41.1178" x2="25.75" y2="41.1171" gradientUnits="userSpaceOnUse">
<stop offset="0.110577" stop-color="#F47920"/>
<stop offset="0.75" stop-color="#8F53A1"/>
</linearGradient>
<linearGradient id="paint3_linear_11392_8416" x1="4.90147" y1="20.6024" x2="75.3241" y2="20.5717" gradientUnits="userSpaceOnUse">
<stop offset="0.110577" stop-color="#F47920"/>
<stop offset="0.75" stop-color="#8F53A1"/>
</linearGradient>
<linearGradient id="paint4_linear_11392_8416" x1="35.3859" y1="28.8154" x2="52.3297" y2="28.808" gradientUnits="userSpaceOnUse">
<stop offset="0.110577" stop-color="#F47920"/>
<stop offset="0.75" stop-color="#8F53A1"/>
</linearGradient>
<linearGradient id="paint5_linear_11392_8416" x1="31.9492" y1="64.0316" x2="42.622" y2="64.027" gradientUnits="userSpaceOnUse">
<stop offset="0.110577" stop-color="#F47920"/>
<stop offset="0.75" stop-color="#8F53A1"/>
</linearGradient>
<linearGradient id="paint6_linear_11392_8416" x1="33.8329" y1="62.8076" x2="41.2038" y2="62.8044" gradientUnits="userSpaceOnUse">
<stop offset="0.110577" stop-color="#F47920"/>
<stop offset="0.75" stop-color="#8F53A1"/>
</linearGradient>
<linearGradient id="paint7_linear_11392_8416" x1="36.5727" y1="56.6924" x2="39.1479" y2="56.6913" gradientUnits="userSpaceOnUse">
<stop offset="0.110577" stop-color="#F47920"/>
<stop offset="0.75" stop-color="#8F53A1"/>
</linearGradient>
<linearGradient id="paint8_linear_11392_8416" x1="32.2736" y1="51.5282" x2="34.4854" y2="51.5273" gradientUnits="userSpaceOnUse">
<stop offset="0.110577" stop-color="#F47920"/>
<stop offset="0.75" stop-color="#8F53A1"/>
</linearGradient>
<linearGradient id="paint9_linear_11392_8416" x1="33.3825" y1="49.3774" x2="34.3867" y2="49.3769" gradientUnits="userSpaceOnUse">
<stop offset="0.110577" stop-color="#F47920"/>
<stop offset="0.75" stop-color="#8F53A1"/>
</linearGradient>
<linearGradient id="paint10_linear_11392_8416" x1="33.0557" y1="47.2173" x2="34.4158" y2="47.2167" gradientUnits="userSpaceOnUse">
<stop offset="0.110577" stop-color="#F47920"/>
<stop offset="0.75" stop-color="#8F53A1"/>
</linearGradient>
<linearGradient id="paint11_linear_11392_8416" x1="33.0635" y1="55.8443" x2="34.4236" y2="55.8437" gradientUnits="userSpaceOnUse">
<stop offset="0.110577" stop-color="#F47920"/>
<stop offset="0.75" stop-color="#8F53A1"/>
</linearGradient>
<linearGradient id="paint12_linear_11392_8416" x1="33.3903" y1="53.6918" x2="34.3945" y2="53.6914" gradientUnits="userSpaceOnUse">
<stop offset="0.110577" stop-color="#F47920"/>
<stop offset="0.75" stop-color="#8F53A1"/>
</linearGradient>
</defs>
</svg>
