<svg width="90" height="90" viewBox="0 0 90 90" fill="none" xmlns="http://www.w3.org/2000/svg">
<mask id="mask0_11392_8272" style="mask-type:luminance" maskUnits="userSpaceOnUse" x="43" y="11" width="30" height="31">
<path d="M72.7973 11.9121H43.6797V41.0298H72.7973V11.9121Z" fill="white"/>
</mask>
<g mask="url(#mask0_11392_8272)">
<mask id="mask1_11392_8272" style="mask-type:luminance" maskUnits="userSpaceOnUse" x="43" y="11" width="30" height="31">
<path d="M43.6797 11.9117H72.7973V41.0293H43.6797V11.9117Z" fill="white"/>
</mask>
<g mask="url(#mask1_11392_8272)">
<path d="M69.735 19.8359C69.7207 19.5207 69.7126 19.2117 69.7081 18.9063C69.6908 17.7419 68.7748 16.7916 67.6121 16.7267C64.056 16.5281 61.2749 15.3452 58.9258 13.0555C58.5328 12.6952 57.9432 12.6952 57.5501 13.0555C55.201 15.3452 52.4199 16.5281 48.8639 16.7267C47.7012 16.7916 46.7851 17.7419 46.7678 18.9063C46.7633 19.2117 46.7552 19.5207 46.7409 19.8359C46.6102 26.698 46.4143 36.1028 57.8281 40.0827C57.8827 40.1018 57.9388 40.117 57.9954 40.1283L57.996 40.1284C58.1558 40.1603 58.3202 40.1603 58.4799 40.1284C58.5369 40.117 58.5934 40.1017 58.6483 40.0825C70.029 36.1026 69.8657 26.7305 69.735 19.8359Z" stroke="#F47920" stroke-miterlimit="10"/>
<path d="M64.6291 26.4705C64.6291 30.0012 61.767 32.8633 58.2364 32.8633C54.7059 32.8633 51.8438 30.0012 51.8438 26.4705C51.8438 22.9399 54.7059 20.0778 58.2364 20.0778C61.767 20.0778 64.6291 22.9399 64.6291 26.4705Z" stroke="#0DB14B" stroke-miterlimit="10"/>
<path d="M60.9218 24.8226L56.9531 28.7913" stroke="#0DB14B" stroke-miterlimit="10" stroke-linecap="round"/>
<path d="M55.4375 27.2746L56.9541 28.7913" stroke="#0DB14B" stroke-miterlimit="10" stroke-linecap="round"/>
</g>
</g>
<path d="M30.5 54.9272L42.4206 46.3242H57" stroke="black"/>
<path d="M19 63.5278L30.3474 55.1465H44.8333L33.4855 63.5278H19ZM19 63.5278V72.7935H33.4855" stroke="black"/>
<path d="M59.834 64.5227L70.6673 56.8022V46.3242H56.1813L45 54.9272M70.6673 46.3242L59.5 55.5889" stroke="black"/>
<path d="M48.4855 72.7935H34V63.5278H48.4855L59.8333 55.1465V64.4122L48.4855 72.7935M48.4855 72.7935V65.381" stroke="black"/>
</svg>
