<svg width="90" height="90" viewBox="0 0 90 90" fill="none" xmlns="http://www.w3.org/2000/svg">
<path d="M24.8231 60.6875H22.0117C21.138 60.6875 20.4297 61.3958 20.4297 62.2695V65.0744C20.4297 65.3656 20.6658 65.6017 20.957 65.6017H69.0442C69.3354 65.6017 69.5716 65.3656 69.5716 65.0744V62.2695C69.5716 61.3958 68.8633 60.6875 67.9896 60.6875H28.62" stroke="black" stroke-miterlimit="10" stroke-linecap="round" stroke-linejoin="round"/>
<path d="M45.0052 45.946C45.9099 45.946 46.6433 45.2126 46.6433 44.308C46.6433 43.4033 45.9099 42.6699 45.0052 42.6699C44.1006 42.6699 43.3672 43.4033 43.3672 44.308C43.3672 45.2126 44.1006 45.946 45.0052 45.946Z" stroke="#0DB14B" stroke-miterlimit="10" stroke-linecap="round" stroke-linejoin="round"/>
<path d="M49.9198 44.3062V44.1995C49.9198 44.0565 49.9779 43.9196 50.0806 43.8203L51.0813 42.8527C51.3268 42.6153 51.3793 42.2412 51.2085 41.9453L50.1516 40.1148C49.9808 39.819 49.6305 39.6774 49.3022 39.7713L47.9649 40.1538C47.8273 40.1932 47.6797 40.1749 47.5558 40.1033L47.3695 39.9955C47.2459 39.924 47.1566 39.8055 47.122 39.667L46.7847 38.3177C46.7019 37.9864 46.404 37.7539 46.0625 37.7539H43.9488C43.6072 37.7539 43.3095 37.9864 43.2267 38.3177L42.8894 39.667C42.8548 39.8055 42.7655 39.924 42.6419 39.9955L42.4556 40.1033C42.3318 40.1749 42.1841 40.1932 42.0465 40.1538L40.7092 39.7713C40.3807 39.6773 40.0306 39.819 39.8598 40.1148L38.8029 41.9453C38.6322 42.2412 38.6846 42.6153 38.9301 42.8527L39.9308 43.8203C40.0336 43.9196 40.0916 44.0565 40.0915 44.1995V44.3062V44.4128C40.0915 44.5558 40.0335 44.6927 39.9308 44.792L38.9301 45.7596C38.6846 45.997 38.632 46.3711 38.8029 46.667L39.8598 48.4975C40.0306 48.7933 40.3808 48.9349 40.7092 48.841L42.0465 48.4585C42.184 48.4191 42.3317 48.4374 42.4556 48.509L42.6419 48.6168C42.7655 48.6883 42.8548 48.8068 42.8894 48.9453L43.2267 50.2946C43.3095 50.6259 43.6073 50.8584 43.9488 50.8584H46.0625C46.4041 50.8584 46.7019 50.6259 46.7847 50.2946L47.122 48.9453C47.1566 48.8068 47.2459 48.6883 47.3695 48.6168L47.5558 48.509C47.6796 48.4374 47.8272 48.4191 47.9649 48.4585L49.3022 48.841C49.6306 48.935 49.9808 48.7933 50.1516 48.4975L51.2085 46.667C51.3792 46.3711 51.3268 45.997 51.0813 45.7596L50.0806 44.792C49.9777 44.6927 49.9197 44.5558 49.9198 44.4128V44.3062Z" stroke="#0DB14B" stroke-miterlimit="10" stroke-linecap="round" stroke-linejoin="round"/>
<path d="M45 34.4793V31.2031" stroke="black" stroke-miterlimit="10" stroke-linecap="round" stroke-linejoin="round"/>
<path d="M43.3672 32.8413L45.0052 31.2031L46.6433 32.8413" stroke="black" stroke-miterlimit="10" stroke-linecap="round" stroke-linejoin="round"/>
<path d="M54.8281 44.3066H64.6565" stroke="black" stroke-miterlimit="10" stroke-linecap="round" stroke-linejoin="round"/>
<path d="M63.0156 42.6699L64.6537 44.308L63.0156 45.9461" stroke="black" stroke-miterlimit="10" stroke-linecap="round" stroke-linejoin="round"/>
<path d="M35.1721 44.3066H25.3438" stroke="black" stroke-miterlimit="10" stroke-linecap="round" stroke-linejoin="round"/>
<path d="M26.9818 42.6699L25.3438 44.308L26.9818 45.9461" stroke="black" stroke-miterlimit="10" stroke-linecap="round" stroke-linejoin="round"/>
<path d="M67.9375 54.1875V60.6884" stroke="black" stroke-miterlimit="10" stroke-linecap="round" stroke-linejoin="round"/>
<path d="M67.9375 33.9453V50.3889" stroke="black" stroke-miterlimit="10" stroke-linecap="round" stroke-linejoin="round"/>
<path d="M22.0703 60.6867V33.9453" stroke="black" stroke-miterlimit="10" stroke-linecap="round" stroke-linejoin="round"/>
<path d="M31.3881 28.0122L44.7322 24.4365C44.9118 24.3884 45.101 24.3884 45.2806 24.4365L70.8221 31.2809C71.1046 31.3566 71.2723 31.6469 71.1967 31.9295L70.6198 34.0855C70.5442 34.3681 70.2536 34.5359 69.9709 34.4602L45.1435 27.808C45.0536 27.7839 44.9591 27.7839 44.8693 27.808L20.0408 34.4602C19.7581 34.5359 19.4676 34.3681 19.3919 34.0855L18.815 31.9295C18.7394 31.6469 18.9071 31.3566 19.1896 31.2809L27.7811 28.9787" stroke="#F47920" stroke-miterlimit="10" stroke-linecap="round" stroke-linejoin="round"/>
<path d="M45 54.1348V57.4108" stroke="black" stroke-miterlimit="10" stroke-linecap="round" stroke-linejoin="round"/>
<path d="M43.3672 55.7734L45.0052 57.4115L46.6433 55.7734" stroke="black" stroke-miterlimit="10" stroke-linecap="round" stroke-linejoin="round"/>
</svg>
