<svg width="90" height="90" viewBox="0 0 90 90" fill="none" xmlns="http://www.w3.org/2000/svg">
<path d="M33.0626 33.6273C33.15 32.6252 33.9567 31.8352 34.9591 31.7517L37.5349 31.537C37.9862 29.4552 38.8098 27.5159 39.9266 25.7806L38.2521 23.8016C37.6024 23.0338 37.5906 21.9047 38.2373 21.1342C38.5887 20.7157 38.9586 20.3076 39.3524 19.9138C39.7462 19.5199 40.1543 19.1501 40.5728 18.7987C41.3432 18.152 42.4722 18.1637 43.2402 18.8134L45.2192 20.488C46.9545 19.3713 48.8939 18.5478 50.9756 18.0963L51.1902 15.5205C51.2738 14.518 52.0638 13.7113 53.0659 13.624C53.6105 13.5764 54.1607 13.5493 54.7175 13.5493C55.2745 13.5493 55.8247 13.5764 56.3691 13.6239C57.3712 13.7113 58.1612 14.5179 58.2447 15.5204L58.4594 18.0962C60.5412 18.5475 62.4806 19.3711 64.2158 20.4879L66.1947 18.8133C66.9626 18.1635 68.0917 18.1518 68.8622 18.7986C69.2807 19.15 69.6888 19.5198 70.0826 19.9136C70.4765 20.3075 70.8463 20.7155 71.1976 21.1341C71.8444 21.9045 71.8327 23.0335 71.1828 23.8015L69.5084 25.7804C70.6251 27.5157 71.4486 29.4552 71.9 31.5369L74.4758 31.7515C75.4782 31.8351 76.2849 32.6251 76.3724 33.6272C76.4198 34.1715 76.4469 34.7217 76.4469 35.2787C76.4469 35.8357 76.4198 36.3857 76.3724 36.9301C76.2849 37.9322 75.4782 38.7222 74.4758 38.8058L71.9 39.0204C71.4487 41.1022 70.6252 43.0417 69.5084 44.7768L71.1828 46.7556C71.8326 47.5235 71.8444 48.6527 71.1976 49.4231C70.8463 49.8415 70.4763 50.2497 70.0826 50.6435C69.6888 51.0374 69.2807 51.4072 68.8622 51.7585C68.0918 52.4053 66.9627 52.3935 66.1947 51.7437L64.2158 50.0693C62.4805 51.186 60.5411 52.0095 58.4594 52.461L58.2447 55.0368C58.1612 56.0393 57.3712 56.846 56.3691 56.9333C55.8247 56.9808 55.2745 57.0078 54.7175 57.0078C54.1605 57.0078 53.6104 56.9808 53.0662 56.9333C52.064 56.8458 51.274 56.0393 51.1905 55.0368L50.9758 52.461C48.8941 52.0096 46.9546 51.1861 45.2194 50.0693L43.2405 51.7437C42.4726 52.3935 41.3436 52.4053 40.573 51.7585C40.1545 51.4072 39.7465 51.0373 39.3526 50.6435C38.9587 50.2497 38.5889 49.8415 38.2376 49.4231C37.5909 48.6527 37.6025 47.5235 38.2524 46.7556L39.9268 44.7768C38.8102 43.0415 37.9866 41.1021 37.5352 39.0204L34.9594 38.8058C33.957 38.7222 33.1503 37.9322 33.0628 36.9301C33.0154 36.3857 32.9883 35.8356 32.9883 35.2787C32.9882 34.7218 33.0151 34.1718 33.0626 33.6273Z" stroke="black" stroke-width="1.44" stroke-miterlimit="10" stroke-linecap="round" stroke-linejoin="round"/>
<path d="M29.8842 66.3211C33.313 66.3211 36.0926 63.5415 36.0926 60.1127C36.0926 56.6839 33.313 53.9043 29.8842 53.9043C26.4554 53.9043 23.6758 56.6839 23.6758 60.1127C23.6758 63.5415 26.4554 66.3211 29.8842 66.3211Z" stroke="#0DB14B" stroke-width="1.44" stroke-miterlimit="10" stroke-linecap="round" stroke-linejoin="round"/>
<path d="M45.6838 55.176C45.751 55.3909 45.8142 55.6081 45.873 55.8275C46.0018 56.3077 46.1069 56.7884 46.1902 57.2688C46.3642 58.273 45.7534 59.25 44.7852 59.568L42.2851 60.389C42.2416 62.3542 41.7358 64.3081 40.7646 66.0783L42.5162 68.036C43.1957 68.7955 43.2362 69.947 42.5834 70.7295C42.2712 71.1039 41.9396 71.4677 41.5881 71.8192C41.2367 72.1707 40.8729 72.5021 40.4984 72.8145C39.7159 73.4673 38.5643 73.4268 37.8049 72.7473L35.8473 70.9957C34.0769 71.9669 32.1232 72.4728 30.1579 72.5162L29.3369 75.0163C29.019 75.9845 28.0419 76.5953 27.0378 76.4213C26.5573 76.338 26.0766 76.2328 25.5965 76.1041C25.1164 75.9754 24.6474 75.8262 24.1897 75.6581C23.2332 75.3068 22.6924 74.2893 22.9012 73.2918L23.4405 70.7147C22.6096 70.2092 21.8196 69.6106 21.1013 68.8924C20.3831 68.1742 19.7846 67.3842 19.2791 66.5533L16.702 67.0929C15.7045 67.3017 14.687 66.7609 14.3357 65.8043C14.1676 65.3467 14.0184 64.8776 13.8897 64.3976C13.761 63.9175 13.6558 63.4367 13.5725 62.9563C13.3985 61.9521 14.0093 60.9751 14.9775 60.6573L17.4776 59.8363C17.5211 57.871 18.0269 55.9171 18.9981 54.1469L17.2465 52.1892C16.567 51.4297 16.5265 50.2783 17.1793 49.4956C17.4915 49.1212 17.8231 48.7575 18.1746 48.406C18.526 48.0546 18.8898 47.723 19.2642 47.4107C20.0467 46.7579 21.1983 46.7984 21.9578 47.4779L23.9155 49.2296C25.6858 48.2583 27.6396 47.7525 29.6048 47.7091L30.4258 45.2089C30.7438 44.2407 31.7208 43.6299 32.7248 43.804C33.2053 43.8872 33.686 43.9924 34.1661 44.1211C34.385 44.1797 34.6014 44.2426 34.8155 44.3097" stroke="black" stroke-width="1.44" stroke-miterlimit="10" stroke-linecap="round" stroke-linejoin="round"/>
<path d="M48.2697 25.9035C50.1032 24.6399 52.3229 23.8965 54.7181 23.8965C61.0043 23.8965 66.1002 28.9924 66.1002 35.2786C66.1002 41.5649 61.0043 46.6608 54.7181 46.6608C48.4319 46.6608 43.3359 41.5649 43.3359 35.2786C43.3359 32.8834 44.0794 30.6638 45.343 28.8303" stroke="#F47920" stroke-width="1.44" stroke-miterlimit="10" stroke-linecap="round" stroke-linejoin="round"/>
</svg>
