<svg width="90" height="90" viewBox="0 0 90 90" fill="none" xmlns="http://www.w3.org/2000/svg">
<path d="M78.4325 55.0772C78.43 55.0747 78.4292 55.0711 78.4266 55.0687L64.5912 41.8719C64.226 41.5238 63.7469 41.3315 63.242 41.3315H59.4699C59.0144 41.3315 58.6449 41.7011 58.6449 42.1565C58.6449 42.612 59.0144 42.9815 59.4699 42.9815H63.242C63.3204 42.9815 63.3951 43.0116 63.4525 43.0664L75.7969 54.8409H40.5113L28.5055 43.3897H36.6234C37.0789 43.3897 37.4484 43.0202 37.4484 42.5647C37.4484 42.1093 37.0789 41.7397 36.6234 41.7397H26.0554C26.0296 41.7393 26.0043 41.7391 25.9786 41.7397H25.9752L25.972 41.7404C25.5185 41.7531 25.069 41.9279 24.7184 42.2715C24.6081 42.3788 11.453 55.1878 11.5635 55.079C11.4115 55.2286 11.3164 55.4358 11.3164 55.6659V79.1505C11.3164 80.1839 12.1575 81.025 13.1909 81.025H76.8078C77.8412 81.025 78.6823 80.1839 78.6823 79.1505V55.6659C78.6823 55.4636 78.6042 55.2449 78.4325 55.0772ZM25.8694 43.4531C25.9549 43.3692 26.094 43.3683 26.1804 43.4521L38.1202 54.8409H14.1714L25.8694 43.4531ZM12.9664 79.1505V56.4909H39.3557V79.375H33.6767C33.7491 79.0211 33.6854 80.34 33.709 69.6748C33.709 68.7037 32.8174 67.9421 31.6798 67.9421H19.3478C18.2102 67.9421 17.3186 68.7037 17.3186 69.6748C17.3423 80.3604 17.2786 79.0214 17.351 79.375H13.1909C13.0674 79.375 12.9664 79.274 12.9664 79.1505ZM18.9573 69.7264C18.9793 69.6898 19.1131 69.5921 19.3478 69.5921H31.6798C31.9146 69.5921 32.0515 69.692 32.059 69.6748V71.8533H18.9599L18.9573 69.7264ZM18.9618 73.5033H32.059V75.5368H18.9642L18.9618 73.5033ZM18.9662 77.1868H32.059C32.0844 79.7189 32.025 79.0504 32.0914 79.375H18.9362C19.0022 79.0523 18.9437 79.7146 18.9662 77.1868ZM70.2174 79.375H49.63V67.3953C49.63 67.0919 48.761 67.3134 70.0644 67.2417C70.1487 67.2417 70.2174 67.3104 70.2174 67.3953V79.375ZM76.8078 79.375H71.8674V67.3953C71.8674 66.4006 71.0585 65.5917 70.0644 65.5917H49.7831C48.7889 65.5917 47.98 66.4006 47.98 67.3953V79.375H41.0057V56.4909H77.0323V79.1505C77.0323 79.274 76.9313 79.375 76.8078 79.375Z" fill="black"/>
<path d="M42.3117 50.9641H54.6781C55.7395 50.9641 56.6031 50.1004 56.6031 49.0391V38.3742C56.6031 37.3129 55.7395 36.4492 54.6781 36.4492H42.3117C41.2504 36.4492 40.3867 37.3129 40.3867 38.3742V49.0391C40.3867 50.1004 41.2504 50.9641 42.3117 50.9641ZM42.0367 38.3742C42.0367 38.2228 42.1603 38.0992 42.3117 38.0992H54.6781C54.8296 38.0992 54.9531 38.2228 54.9531 38.3742V49.0391C54.9531 49.1905 54.8296 49.3141 54.6781 49.3141H42.3117C42.1603 49.3141 42.0367 49.1905 42.0367 49.0391V38.3742Z" fill="#F47922"/>
<path d="M43.9617 45.2235H45.5483C46.0038 45.2235 46.3733 44.854 46.3733 44.3985C46.3733 43.943 46.0038 43.5735 45.5483 43.5735H43.9617C43.5062 43.5735 43.1367 43.943 43.1367 44.3985C43.1367 44.854 43.5062 45.2235 43.9617 45.2235Z" fill="black"/>
<path d="M43.9617 48.0121H45.5483C46.0038 48.0121 46.3733 47.6425 46.3733 47.1871C46.3733 46.7316 46.0038 46.3621 45.5483 46.3621H43.9617C43.5062 46.3621 43.1367 46.7316 43.1367 47.1871C43.1367 47.6425 43.5062 48.0121 43.9617 48.0121Z" fill="black"/>
<path d="M48.6854 31.451C49.7683 31.451 50.7888 30.8741 51.3479 29.9449C51.5826 29.555 51.4569 29.0479 51.0665 28.8127C50.6771 28.5774 50.1695 28.7021 49.9342 29.0941C49.6678 29.5367 49.2011 29.801 48.6854 29.801C46.9422 29.801 46.6862 27.2711 48.3906 26.9199C48.7741 26.8415 49.0491 26.5031 49.0491 26.1121V24.2406C50.196 23.8748 51.0348 22.8114 51.0348 21.5445V19.4176C51.0348 18.9621 50.6652 18.5926 50.2098 18.5926H48.9658V14.4977H52.6166C53.5463 14.4977 54.3025 13.7414 54.3025 12.8111V9.8001C54.3025 9.34463 53.933 8.9751 53.4775 8.9751C53.0221 8.9751 52.6525 9.34463 52.6525 9.8001L52.6166 12.8477L43.6227 12.8111V9.8001C43.6227 9.34463 43.2531 8.9751 42.7977 8.9751C42.3422 8.9751 41.9727 9.34463 41.9727 9.8001V12.8111C41.9727 13.7414 42.7289 14.4977 43.6586 14.4977H47.3158V18.5926H46.0654C45.61 18.5926 45.2404 18.9621 45.2404 19.4176V21.5445C45.2404 22.875 46.1629 23.9864 47.3991 24.2945V25.5191C44.3573 26.9105 45.3824 31.451 48.6854 31.451ZM46.8904 21.5445V20.2426H49.3848V21.5445C49.3848 22.202 48.8503 22.7369 48.1929 22.7369H48.0823C47.4249 22.7369 46.8904 22.202 46.8904 21.5445Z" fill="black"/>
<path d="M44.5532 30.8719L42.3135 34.2041C41.9415 34.7578 42.3487 35.4889 42.9977 35.4889C43.2631 35.4889 43.5236 35.3611 43.6831 35.1237L45.9228 31.7914C46.1769 31.4133 46.0764 30.9009 45.6983 30.6474C45.3213 30.3917 44.8078 30.4927 44.5532 30.8719Z" fill="black"/>
<path d="M53.6379 35.1237C53.7974 35.3611 54.0579 35.4889 54.3232 35.4889C54.9711 35.4889 55.38 34.7586 55.0075 34.2041L52.7678 30.8719C52.5121 30.4927 52.0002 30.3917 51.6226 30.6474C51.2445 30.9009 51.1441 31.4133 51.3981 31.7914L53.6379 35.1237Z" fill="black"/>
<path d="M65.9802 72.0574H61.6688C61.6111 72.0574 61.5566 72.0691 61.5002 72.0744V71.6041C61.5002 70.6104 60.6913 69.8015 59.6971 69.8015H54.2562C53.262 69.8015 52.4531 70.6104 52.4531 71.6041V77.3629C52.4531 77.8184 52.8227 78.1879 53.2781 78.1879C53.7336 78.1879 54.1031 77.8184 54.1031 77.3629V71.6041C54.1031 71.5203 54.1719 71.4515 54.2562 71.4515H59.6971C59.7814 71.4515 59.8502 71.5203 59.8502 71.6041V77.3629C59.8502 77.8184 60.2197 78.1879 60.6752 78.1879C60.6779 78.1879 60.6802 78.1864 60.683 78.1864C60.6857 78.1864 60.688 78.1879 60.6908 78.1879C61.1462 78.1879 61.5158 77.8184 61.5158 77.3629V73.8599C61.5158 73.7761 61.5845 73.7074 61.6688 73.7074H65.9802C66.0646 73.7074 66.1333 73.7761 66.1333 73.8599V77.3629C66.1333 77.8184 66.5028 78.1879 66.9583 78.1879C67.4138 78.1879 67.7833 77.8184 67.7833 77.3629V73.8599C67.7833 72.8663 66.9744 72.0574 65.9802 72.0574Z" fill="#0db14b"/>
<path d="M21.1164 64.4777H29.9089C30.9702 64.4777 31.8339 63.614 31.8339 62.5527V61.8115C31.8339 60.7501 30.9702 59.8865 29.9089 59.8865H21.1164C20.0551 59.8865 19.1914 60.7501 19.1914 61.8115V62.5527C19.1914 63.614 20.0551 64.4777 21.1164 64.4777ZM20.8414 61.8115C20.8414 61.66 20.9649 61.5365 21.1164 61.5365H29.9089C30.0604 61.5365 30.1839 61.66 30.1839 61.8115V62.5527C30.1839 62.7042 30.0604 62.8277 29.9089 62.8277H21.1164C20.9649 62.8277 20.8414 62.7042 20.8414 62.5527V61.8115Z" fill="#0db14b"/>
</svg>
