<svg width="90" height="90" viewBox="0 0 90 90" fill="none" xmlns="http://www.w3.org/2000/svg">
<path d="M46.6424 72.2791H16.8789V10.4043H52.035L64.6911 23.0605V52.5769" stroke="white" stroke-width="2" stroke-miterlimit="22.9256" stroke-linecap="round" stroke-linejoin="round"/>
<path d="M63.9881 23.0605H52.0352V11.1074" stroke="white" stroke-width="2" stroke-miterlimit="22.9256" stroke-linecap="round" stroke-linejoin="round"/>
<path d="M35.8633 31.8496H58.3633" stroke="white" stroke-width="2" stroke-miterlimit="22.9256" stroke-linecap="round" stroke-linejoin="round"/>
<path d="M23.207 57.1621H31.3467" stroke="white" stroke-width="2" stroke-miterlimit="22.9256" stroke-linecap="round" stroke-linejoin="round"/>
<path d="M23.207 63.4902H39.4863" stroke="white" stroke-width="2" stroke-miterlimit="22.9256" stroke-linecap="round" stroke-linejoin="round"/>
<path d="M29.5351 11.1074V19.8964C29.5351 21.6365 28.1113 23.0605 26.3711 23.0605C24.6309 23.0605 23.207 21.6367 23.207 19.8964" stroke="white" stroke-width="2" stroke-miterlimit="22.9256" stroke-linecap="round" stroke-linejoin="round"/>
<path d="M59.4532 79.592C67.0062 79.592 73.1291 73.4691 73.1291 65.9161C73.1291 58.3631 67.0062 52.2402 59.4532 52.2402C51.9002 52.2402 45.7773 58.3631 45.7773 65.9161C45.7773 73.4691 51.9002 79.592 59.4532 79.592Z" stroke="#0DB14B" stroke-width="2" stroke-miterlimit="22.9256" stroke-linecap="round" stroke-linejoin="round"/>
<path d="M64.1993 62.752L57.8711 69.0802L54.707 65.9161" stroke="#0DB14B" stroke-width="2" stroke-miterlimit="22.9256" stroke-linecap="round" stroke-linejoin="round"/>
<path d="M29.5351 31.8496H23.207V38.1777H29.5351V31.8496Z" stroke="#F47920" stroke-width="2" stroke-miterlimit="22.9256" stroke-linecap="round" stroke-linejoin="round"/>
<path d="M29.5351 44.5059H23.207V50.834H29.5351V44.5059Z" stroke="#F47920" stroke-width="2" stroke-miterlimit="22.9256" stroke-linecap="round" stroke-linejoin="round"/>
<path d="M35.8633 38.1777H47.1134" stroke="white" stroke-width="2" stroke-miterlimit="22.9256" stroke-linecap="round" stroke-linejoin="round"/>
<path d="M35.8633 44.5059H58.3633" stroke="white" stroke-width="2" stroke-miterlimit="22.9256" stroke-linecap="round" stroke-linejoin="round"/>
<path d="M35.8633 50.834H41.4883" stroke="white" stroke-width="2" stroke-miterlimit="22.9256" stroke-linecap="round" stroke-linejoin="round"/>
</svg>
