<svg width="90" height="90" viewBox="0 0 90 90" fill="none" xmlns="http://www.w3.org/2000/svg">
<mask id="mask0_6701_17742" style="mask-type:luminance" maskUnits="userSpaceOnUse" x="4" y="4" width="82" height="82">
<path d="M4.90625 4.90472H85.0963V85.0947H4.90625V4.90472Z" fill="white"/>
</mask>
<g mask="url(#mask0_6701_17742)">
<path d="M6.16379 42.5458L14.1955 22.1871C14.4434 21.5585 15.1542 21.2498 15.7828 21.4978L22.1738 24.0191C22.8024 24.2671 23.1111 24.9778 22.863 25.6065L14.8314 45.9654C14.5834 46.594 13.8727 46.9026 13.244 46.6545L6.85308 44.1334C6.2244 43.8853 5.91586 43.1745 6.16379 42.5458Z" stroke="#F47920" stroke-width="2" stroke-miterlimit="10" stroke-linecap="round" stroke-linejoin="round"/>
<path d="M62.4544 53.9326L58.2734 50.7111" stroke="white" stroke-width="2" stroke-miterlimit="10" stroke-linecap="round" stroke-linejoin="round"/>
<path d="M56.8576 58.4365L53.1406 55.5749" stroke="white" stroke-width="2" stroke-miterlimit="10" stroke-linecap="round" stroke-linejoin="round"/>
<path d="M50.7075 62.5352L48.0586 60.4851" stroke="white" stroke-width="2" stroke-miterlimit="10" stroke-linecap="round" stroke-linejoin="round"/>
<path d="M22.7807 55.8022C21.4726 54.693 21.3113 52.7335 22.4205 51.4254L25.3241 48.0172C26.4333 46.7091 28.3929 46.5477 29.7009 47.6569C31.009 48.766 31.1703 50.7254 30.0611 52.0335L27.1575 55.4419C26.0483 56.75 24.0888 56.9114 22.7807 55.8022Z" stroke="white" stroke-width="2" stroke-miterlimit="10" stroke-linecap="round" stroke-linejoin="round"/>
<path d="M27.5189 59.8178C26.2108 58.7086 26.0497 56.7491 27.1587 55.441L30.0625 52.0328C31.1715 50.7247 33.1311 50.5634 34.4392 51.6726C35.7473 52.7816 35.9085 54.7412 34.7995 56.0492L31.8957 59.4576C30.7865 60.7657 28.827 60.927 27.5189 59.8178Z" stroke="white" stroke-width="2" stroke-miterlimit="10" stroke-linecap="round" stroke-linejoin="round"/>
<path d="M32.2651 63.8344C30.957 62.7252 30.7957 60.7657 31.9049 59.4576L34.8086 56.0492C35.9177 54.7413 37.8773 54.58 39.1854 55.6892C40.4933 56.7982 40.6547 58.7577 39.5455 60.0658L36.6419 63.4742C35.5327 64.7823 33.5732 64.9436 32.2651 63.8344Z" stroke="white" stroke-width="2" stroke-miterlimit="10" stroke-linecap="round" stroke-linejoin="round"/>
<path d="M36.9995 67.852C35.6914 66.7428 35.5301 64.7833 36.6392 63.4752L39.5428 60.067C40.652 58.7589 42.6117 58.5975 43.9196 59.7067C45.2277 60.8158 45.389 62.7753 44.2798 64.0834L41.3762 67.4917C40.2671 68.7998 38.3076 68.9612 36.9995 67.852Z" stroke="white" stroke-width="2" stroke-miterlimit="10" stroke-linecap="round" stroke-linejoin="round"/>
<path d="M67.6601 49.022L66.0983 47.8694L58.7528 42.4483L57.9111 41.8566C50.9765 43.0345 46.3276 39.2349 44.4351 37.2588C43.8785 36.6774 42.9597 36.6553 42.361 37.1932C35.8585 43.0331 32.093 41.5363 30.2648 39.799C29.3857 38.9638 29.537 37.5239 30.5577 36.8688C34.0527 34.6255 37.3164 31.7861 39.6483 29.5732L39.2331 29.4177C37.7569 28.8645 36.2056 28.5383 34.6319 28.4498L30.3315 28.2083C29.7683 28.1766 29.2034 28.1696 28.6405 28.2058C27.6254 28.2711 26.6063 28.1013 25.6634 27.7068L22.55 26.404L14.9141 45.7594L20.9507 49.5665L22.8612 50.9094L25.3256 48.0169C26.4346 46.7087 28.3941 46.5475 29.7022 47.6565C31.0103 48.7657 31.1716 50.7252 30.0625 52.0333C31.1716 50.7252 33.1311 50.5639 34.4392 51.6731C35.7473 52.7823 35.9087 54.7418 34.7995 56.0499C35.9087 54.7418 37.8681 54.5804 39.1762 55.6896C40.4843 56.7987 40.6457 58.7583 39.5365 60.0663C40.6457 58.7583 42.6051 58.597 43.9132 59.706C45.2213 60.8152 45.3827 62.7749 44.2735 64.0828L43.0957 65.4653L45.6882 67.3787C47.128 68.4413 49.1571 68.3193 50.3933 67.0257C51.5966 65.7668 51.6683 63.8717 50.7064 62.5357L52.0063 63.495C53.4889 64.5892 55.5887 64.4213 56.8072 63.0394C57.9877 61.7008 57.9578 59.7367 56.8555 58.4357L57.5858 58.9745C58.9995 60.0177 60.9864 59.9231 62.2301 58.6822C63.5523 57.363 63.5874 55.2962 62.4503 53.9339L63.5466 54.7432C65.0793 55.8741 67.2376 55.5838 68.4154 54.0768C69.645 52.5033 69.2669 50.2077 67.6601 49.022Z" stroke="white" stroke-width="2" stroke-miterlimit="10" stroke-linecap="round" stroke-linejoin="round"/>
<path d="M50.0899 27.1073L45.6312 26.4006C44.1228 26.1615 42.59 26.6609 41.5163 27.7469C39.3039 29.985 35.1287 33.9372 30.56 36.8696C29.5393 37.5248 29.3879 38.9644 30.2672 39.7999C32.0952 41.5369 35.8607 43.0338 42.3633 37.1938C42.9621 36.656 43.8807 36.6781 44.4375 37.2595C46.333 39.2388 50.9935 43.0482 57.9465 41.8524L68.4003 49.5674L74.9341 45.3706L67.4728 26.4576L62.9379 28.1318C61.6802 28.596 60.3243 28.7294 59.0002 28.5197L55.5369 27.9707" stroke="white" stroke-width="2" stroke-miterlimit="10" stroke-linecap="round" stroke-linejoin="round"/>
<path d="M78.9006 30.036L75.804 22.1871C75.5561 21.5585 74.8453 21.2498 74.2167 21.4978L67.8257 24.0191C67.1971 24.2671 66.8885 24.9779 67.1364 25.6064L75.1681 45.9653C75.4161 46.594 76.127 46.9025 76.7555 46.6546L83.1464 44.1333C83.7752 43.8852 84.0838 43.1746 83.8357 42.5459L80.9147 35.1417" stroke="#0DB14B" stroke-width="2" stroke-miterlimit="10" stroke-linecap="round" stroke-linejoin="round"/>
</g>
</svg>
