<svg width="90" height="90" viewBox="0 0 90 90" fill="none" xmlns="http://www.w3.org/2000/svg">
<mask id="mask0_6701_17374" style="mask-type:luminance" maskUnits="userSpaceOnUse" x="9" y="9" width="72" height="72">
<path d="M80 80V10H10V80H80Z" fill="white" stroke="white" stroke-width="2"/>
</mask>
<g mask="url(#mask0_6701_17374)">
<path d="M21.543 22.9023C22.7324 21.5411 24.0298 20.2777 25.4217 19.1256" stroke="white" stroke-width="2" stroke-miterlimit="10" stroke-linecap="round" stroke-linejoin="round"/>
<path d="M14.1211 37.4253C14.9608 33.7742 16.3943 30.3516 18.3137 27.2656" stroke="white" stroke-width="2" stroke-miterlimit="10" stroke-linecap="round" stroke-linejoin="round"/>
<path d="M25.2103 70.6992C17.9066 64.5531 13.2617 55.3213 13.2617 44.9993C13.2617 44.6072 13.2685 44.2167 13.2817 43.828" stroke="white" stroke-width="2" stroke-miterlimit="10" stroke-linecap="round" stroke-linejoin="round"/>
<path d="M62.7607 74.3149C57.9745 76.9842 52.4658 78.5044 46.6038 78.5044C40.7619 78.5044 35.2709 76.9946 30.4961 74.342" stroke="white" stroke-width="2" stroke-miterlimit="10" stroke-linecap="round" stroke-linejoin="round"/>
<path d="M74.878 27.2301C78.0906 32.3807 79.948 38.4721 79.948 44.9993C79.948 55.3063 75.3167 64.5262 68.0312 70.6724" stroke="white" stroke-width="2" stroke-miterlimit="10" stroke-linecap="round" stroke-linejoin="round"/>
<path d="M67.4961 18.8839C68.7299 19.8817 69.8918 20.9662 70.9722 22.1279" stroke="white" stroke-width="2" stroke-miterlimit="10" stroke-linecap="round" stroke-linejoin="round"/>
<path d="M30.707 15.542C35.4329 12.9608 40.8493 11.4945 46.6065 11.4945C52.2159 11.4945 57.5019 12.8866 62.1408 15.3455" stroke="white" stroke-width="2" stroke-miterlimit="10" stroke-linecap="round" stroke-linejoin="round"/>
<path d="M49.3945 23.207C53.1499 20.87 57.2868 19.0331 61.7325 17.807" stroke="white" stroke-width="2" stroke-miterlimit="10" stroke-linecap="round" stroke-linejoin="round"/>
<path d="M35.7344 36.1274C38.1367 32.7183 40.9866 29.6235 44.22 26.9406" stroke="#F47920" stroke-width="2" stroke-miterlimit="10" stroke-linecap="round" stroke-linejoin="round"/>
<path d="M27.3971 69.3013C26.1968 59.4886 28.0944 49.9105 32.3808 41.645" stroke="#F47920" stroke-width="2" stroke-miterlimit="10" stroke-linecap="round" stroke-linejoin="round"/>
<path d="M43.8095 23.207C39.9271 20.791 35.6371 18.9095 31.0195 17.6847" stroke="white" stroke-width="2" stroke-miterlimit="10" stroke-linecap="round" stroke-linejoin="round"/>
<path d="M62.0556 44.1953C59.0895 37.537 54.6209 31.6137 48.9883 26.9399" stroke="#F47920" stroke-width="2" stroke-miterlimit="10" stroke-linecap="round" stroke-linejoin="round"/>
<path d="M65.6554 56.5737C65.3388 54.4327 64.8751 52.3139 64.2695 50.2362" stroke="white" stroke-width="2" stroke-miterlimit="10" stroke-linecap="round" stroke-linejoin="round"/>
<path d="M65.793 69.4614C66.0718 67.24 66.1959 64.9995 66.1611 62.7608" stroke="white" stroke-width="2" stroke-miterlimit="10" stroke-linecap="round" stroke-linejoin="round"/>
<path d="M30.9225 38.2142C26.1194 38.1898 21.2438 38.7051 16.3711 39.8047" stroke="white" stroke-width="2" stroke-miterlimit="10" stroke-linecap="round" stroke-linejoin="round"/>
<path d="M60.4888 45.5981C53.338 41.8494 45.4816 39.4295 37.3086 38.5672" stroke="#F47920" stroke-width="2" stroke-miterlimit="10" stroke-linecap="round" stroke-linejoin="round"/>
<path d="M77.255 58.2075C73.8602 54.6626 70.0867 51.5283 66.0195 48.8544" stroke="white" stroke-width="2" stroke-miterlimit="10" stroke-linecap="round" stroke-linejoin="round"/>
<path d="M64.8906 44.3794C68.0358 39.3165 70.5156 33.7684 72.1951 27.8464" stroke="white" stroke-width="2" stroke-miterlimit="10" stroke-linecap="round" stroke-linejoin="round"/>
<path d="M30.918 71.5225C42.9721 67.3653 53.5205 59.7111 61.2412 49.6504" stroke="#F47920" stroke-width="2" stroke-miterlimit="10" stroke-linecap="round" stroke-linejoin="round"/>
<path d="M46.6009 28.0107C44.8328 28.0107 43.3945 26.5654 43.3945 24.7886C43.3945 23.0119 44.8328 21.5666 46.6009 21.5666C48.369 21.5666 49.8073 23.0119 49.8073 24.7886C49.8073 26.5654 48.369 28.0107 46.6009 28.0107Z" stroke="#0DB14B" stroke-width="2" stroke-miterlimit="10" stroke-linecap="round" stroke-linejoin="round"/>
<path d="M34.1244 42.1675C32.3563 42.1675 30.918 40.722 30.918 38.9453C30.918 37.1687 32.3563 35.7232 34.1244 35.7232C35.8924 35.7232 37.3307 37.1687 37.3307 38.9453C37.3307 40.722 35.8924 42.1675 34.1244 42.1675Z" stroke="#0DB14B" stroke-width="2" stroke-miterlimit="10" stroke-linecap="round" stroke-linejoin="round"/>
<path d="M63.2884 50.3931C61.5203 50.3931 60.082 48.9476 60.082 47.1709C60.082 45.3943 61.5203 43.9488 63.2884 43.9488C65.0565 43.9488 66.4948 45.3943 66.4948 47.1709C66.4948 48.9476 65.0565 50.3931 63.2884 50.3931Z" stroke="#0DB14B" stroke-width="2" stroke-miterlimit="10" stroke-linecap="round" stroke-linejoin="round"/>
<path d="M27.8783 75.7097C26.1102 75.7097 24.6719 74.2644 24.6719 72.4876C24.6719 70.7109 26.1102 69.2656 27.8783 69.2656C29.6463 69.2656 31.0848 70.7109 31.0848 72.4876C31.0848 74.2644 29.6463 75.7097 27.8783 75.7097Z" stroke="white" stroke-width="2" stroke-miterlimit="10" stroke-linecap="round" stroke-linejoin="round"/>
<path d="M65.5189 75.8933C63.7508 75.8933 62.3125 74.4478 62.3125 72.6712C62.3125 70.8945 63.7508 69.449 65.5189 69.449C67.287 69.449 68.7254 70.8945 68.7254 72.6712C68.7254 74.4478 67.287 75.8933 65.5189 75.8933Z" stroke="white" stroke-width="2" stroke-miterlimit="10" stroke-linecap="round" stroke-linejoin="round"/>
<path d="M72.9917 27.8472C71.2236 27.8472 69.7852 26.4017 69.7852 24.625C69.7852 22.8484 71.2236 21.4029 72.9917 21.4029C74.7598 21.4029 76.1981 22.8484 76.1981 24.625C76.1981 26.4017 74.7598 27.8472 72.9917 27.8472Z" stroke="white" stroke-width="2" stroke-miterlimit="10" stroke-linecap="round" stroke-linejoin="round"/>
<path d="M64.8509 20.2808C63.0828 20.2808 61.6445 18.8354 61.6445 17.0586C61.6445 15.282 63.0828 13.8366 64.8509 13.8366C66.619 13.8366 68.0575 15.282 68.0575 17.0586C68.0575 18.8354 66.619 20.2808 64.8509 20.2808Z" stroke="white" stroke-width="2" stroke-miterlimit="10" stroke-linecap="round" stroke-linejoin="round"/>
<path d="M27.8783 20.2808C26.1102 20.2808 24.6719 18.8354 24.6719 17.0586C24.6719 15.282 26.1102 13.8366 27.8783 13.8366C29.6463 13.8366 31.0848 15.282 31.0848 17.0586C31.0848 18.8354 29.6463 20.2808 27.8783 20.2808Z" stroke="white" stroke-width="2" stroke-miterlimit="10" stroke-linecap="round" stroke-linejoin="round"/>
<path d="M13.265 43.8276C11.4969 43.8276 10.0586 42.3823 10.0586 40.6055C10.0586 38.8288 11.4969 37.3835 13.265 37.3835C15.0331 37.3835 16.4714 38.8288 16.4714 40.6055C16.4714 42.3823 15.0331 43.8276 13.265 43.8276Z" stroke="white" stroke-width="2" stroke-miterlimit="10" stroke-linecap="round" stroke-linejoin="round"/>
</g>
</svg>
