<svg width="90" height="90" viewBox="0 0 90 90" fill="none" xmlns="http://www.w3.org/2000/svg">
<mask id="mask0_6701_17726" style="mask-type:luminance" maskUnits="userSpaceOnUse" x="9" y="9" width="72" height="72">
<path d="M79.6396 79.6396V10.3594H10.3594V79.6396H79.6396Z" fill="white" stroke="white" stroke-width="2"/>
</mask>
<g mask="url(#mask0_6701_17726)">
<path d="M21.7701 19.3225C14.7964 25.6297 10.415 34.7535 10.4024 44.9563C10.3939 51.9039 12.4377 58.3713 15.955 63.7948L12.5802 73.6011C11.8234 75.8005 13.9367 77.9034 16.1322 77.1355L25.7763 73.7626C31.3541 77.4981 38.0761 79.6578 45.3083 79.5943C64.5633 79.4253 79.8834 63.7159 79.59 44.4622C79.3055 25.7846 64.2197 10.6965 45.543 10.4082C38.3723 10.2975 31.6974 12.3534 26.132 15.9677" stroke="white" stroke-width="2" stroke-miterlimit="10" stroke-linecap="round" stroke-linejoin="round"/>
<path d="M34.8119 59.4502H27.3453C26.1039 59.4502 25.0977 58.4438 25.0977 57.2025V42.1524C25.0977 40.911 26.1039 39.9047 27.3453 39.9047H34.8119C36.0533 39.9047 37.0596 40.911 37.0596 42.1524V57.2025C37.0596 58.4438 36.0533 59.4502 34.8119 59.4502Z" stroke="#F47920" stroke-width="2" stroke-miterlimit="10" stroke-linecap="round" stroke-linejoin="round"/>
<path d="M31.0771 45.6807C31.08 45.6683 31.084 45.6531 31.084 45.6357C31.084 45.6191 31.0798 45.6048 31.0771 45.5928H31.0732C31.0704 45.605 31.0664 45.6196 31.0664 45.6367C31.0664 45.6536 31.0695 45.6686 31.0723 45.6807H31.0771Z" fill="black" stroke="white" stroke-width="2"/>
<path d="M62.1319 52.2735C63.2909 47.7473 64.6048 42.6159 64.7954 41.8711L64.8088 41.8194C65.2789 39.983 63.8873 38.1976 61.9916 38.2053C61.2868 38.2081 60.5353 38.2103 59.7872 38.211C56.5872 38.2145 51.5302 38.2178 49.3476 38.2178V27.9976C49.3476 25.42 45.7898 24.4964 44.5217 26.7497L37.0547 42.0754V57.1344L39.1245 59.0522C40.8217 60.6031 43.0442 61.4639 45.3507 61.4639C49.9324 61.4639 54.0334 61.4454 57.5217 61.4577C58.8485 61.4625 60.0087 60.5656 60.3378 59.2802L60.3464 59.2464C60.417 58.9709 60.56 58.4126 60.7524 57.6611" stroke="#0DB14B" stroke-width="2" stroke-miterlimit="10" stroke-linecap="round" stroke-linejoin="round"/>
</g>
</svg>
