<svg width="100" height="100" viewBox="0 0 100 100" fill="none" xmlns="http://www.w3.org/2000/svg">
<mask id="mask0_6701_17122" style="mask-type:luminance" maskUnits="userSpaceOnUse" x="10" y="10" width="80" height="80">
<path d="M10 10H90V90H10V10Z" fill="white"/>
</mask>
<g mask="url(#mask0_6701_17122)">
<path d="M53.5117 48.8281C52.8644 48.8281 52.3398 49.3528 52.3398 50C52.3398 50.6472 52.8644 51.1719 53.5117 51.1719C54.1591 51.1719 54.6836 50.6472 54.6836 50C54.6836 49.3528 54.1591 48.8281 53.5117 48.8281Z" fill="black"/>
<path d="M53.5117 70.0781C52.8644 70.0781 52.3398 70.6028 52.3398 71.25C52.3398 71.8972 52.8644 72.4219 53.5117 72.4219C54.1591 72.4219 54.6836 71.8972 54.6836 71.25C54.6836 70.6028 54.1591 70.0781 53.5117 70.0781Z" fill="black"/>
<path d="M43.4689 67.3882C42.9084 67.0646 42.1917 67.2566 41.8681 67.8171C41.5445 68.3777 41.7366 69.0943 42.297 69.4179C42.8575 69.7416 43.5742 69.5496 43.8978 68.989C44.2214 68.4285 44.0294 67.7118 43.4689 67.3882Z" fill="black"/>
<path d="M64.7189 30.5817C64.1584 30.2581 63.4417 30.4501 63.1181 31.0106C62.7945 31.571 62.9866 32.2878 63.547 32.6114C64.1075 32.935 64.8242 32.7429 65.1478 32.1825C65.4714 31.622 65.2794 30.9053 64.7189 30.5817Z" fill="black"/>
<path d="M72.9291 38.7889C72.6055 38.2284 71.8888 38.0364 71.3284 38.36C70.7679 38.6836 70.5757 39.4003 70.8995 39.9608C71.223 40.5212 71.9398 40.7133 72.5002 40.3897C73.0607 40.0661 73.2527 39.3494 72.9291 38.7889Z" fill="black"/>
<path d="M36.1206 60.0389C35.797 59.4784 35.0803 59.2864 34.5198 59.61C33.9592 59.9336 33.7671 60.6503 34.0909 61.2108C34.4145 61.7712 35.131 61.9633 35.6917 61.6397C36.2521 61.3161 36.4442 60.5994 36.1206 60.0389Z" fill="black"/>
<path d="M75.9336 50C75.9336 49.3528 75.4091 48.8281 74.7617 48.8281C74.1144 48.8281 73.5898 49.3528 73.5898 50C73.5898 50.6472 74.1144 51.1719 74.7617 51.1719C75.4091 51.1719 75.9336 50.6472 75.9336 50Z" fill="black"/>
<path d="M72.9291 61.2108C73.2527 60.6503 73.0607 59.9336 72.5002 59.61C71.9398 59.2864 71.223 59.4784 70.8995 60.0389C70.5757 60.5994 70.7679 61.3161 71.3284 61.6397C71.8888 61.9633 72.6055 61.7712 72.9291 61.2108Z" fill="black"/>
<path d="M36.1206 39.9608C36.4442 39.4003 36.2521 38.6836 35.6917 38.36C35.131 38.0364 34.4145 38.2284 34.0909 38.7889C33.7671 39.3494 33.9592 40.0661 34.5198 40.3897C35.0803 40.7133 35.797 40.5212 36.1206 39.9608Z" fill="black"/>
<path d="M64.7189 69.418C65.2794 69.0944 65.4714 68.3777 65.1478 67.8172C64.8242 67.2568 64.1075 67.0647 63.547 67.3883C62.9866 67.7119 62.7945 68.4286 63.1181 68.9891C63.4417 69.5496 64.1584 69.7416 64.7189 69.418Z" fill="black"/>
<path d="M43.4689 32.6114C44.0294 32.2878 44.2214 31.571 43.8978 31.0106C43.5742 30.45 42.8575 30.2579 42.297 30.5817C41.7366 30.9053 41.5445 31.6218 41.8681 32.1825C42.1917 32.7429 42.9084 32.935 43.4689 32.6114Z" fill="black"/>
<path d="M51.1602 45.9414V31.0941C51.1602 29.7995 52.2095 28.7503 53.5039 28.7503C54.7983 28.7503 55.8477 29.7995 55.8477 31.0941V45.9414" stroke="#0DB14B" stroke-width="1.6" stroke-miterlimit="10" stroke-linecap="round" stroke-linejoin="round"/>
<path d="M57.5625 47.6562H67.7223C69.0169 47.6562 70.0661 48.7056 70.0661 50C70.0661 51.2944 69.0169 52.3438 67.7223 52.3438H57.5625" stroke="#0DB14B" stroke-width="1.6" stroke-miterlimit="10" stroke-linecap="round" stroke-linejoin="round"/>
<path d="M58.1914 50C58.1914 47.4112 56.0927 45.3125 53.5039 45.3125C50.9152 45.3125 48.8164 47.4112 48.8164 50C48.8164 52.5888 50.9152 54.6875 53.5039 54.6875C56.0927 54.6875 58.1914 52.5888 58.1914 50Z" stroke="black" stroke-width="1.6" stroke-miterlimit="10" stroke-linecap="round" stroke-linejoin="round"/>
<path d="M53.5039 75.9375C67.8289 75.9375 79.4414 64.3248 79.4414 50C79.4414 35.6752 67.8289 24.0625 53.5039 24.0625C39.1791 24.0625 27.5664 35.6752 27.5664 50C27.5664 64.3248 39.1791 75.9375 53.5039 75.9375Z" stroke="#F47920" stroke-width="1.6" stroke-miterlimit="10" stroke-linecap="round" stroke-linejoin="round"/>
<path d="M32.2539 50H48.8164" stroke="black" stroke-width="1.6" stroke-miterlimit="10" stroke-linecap="round" stroke-linejoin="round"/>
<path d="M11.1602 68.75H23.578" stroke="black" stroke-width="1.6" stroke-miterlimit="10" stroke-linecap="round" stroke-linejoin="round"/>
<path d="M23.578 31.25H11.1602" stroke="black" stroke-width="1.6" stroke-miterlimit="10" stroke-linecap="round" stroke-linejoin="round"/>
<path d="M11.1602 59.375H19.4519" stroke="black" stroke-width="1.6" stroke-miterlimit="10" stroke-linecap="round" stroke-linejoin="round"/>
<path d="M19.4519 40.625H11.1602" stroke="black" stroke-width="1.6" stroke-miterlimit="10" stroke-linecap="round" stroke-linejoin="round"/>
<path d="M27.5664 50H11.1602" stroke="black" stroke-width="1.6" stroke-miterlimit="10" stroke-linecap="round" stroke-linejoin="round"/>
<path d="M18.5017 54.6875C20.7947 71.9739 35.5908 85.3125 53.5039 85.3125C55.3153 85.3125 57.0948 85.1756 58.8328 84.9123L60.4055 79.8439C63.7547 79.0727 66.8926 77.7505 69.7219 75.9805L74.4227 78.4548C75.8377 77.412 77.1928 76.2506 78.4736 74.9697C79.7545 73.6888 80.9159 72.3338 81.9587 70.9188L79.4844 66.218C81.2544 63.3888 82.5766 60.2506 83.348 56.9014L88.4164 55.3288C88.6794 53.5908 88.8164 51.8114 88.8164 50C88.8164 48.1886 88.6794 46.4092 88.4164 44.6713L83.348 43.0984C82.5766 39.7494 81.2544 36.6113 79.4844 33.782L81.9587 29.0813C80.9159 27.6663 79.7545 26.3113 78.4736 25.0303C77.1928 23.7494 75.8377 22.588 74.4227 21.5452L69.7219 24.0195C66.8926 22.2495 63.7547 20.9273 60.4055 20.1561L58.8328 15.0877C57.0948 14.8244 55.3153 14.6875 53.5039 14.6875C34.0014 14.6875 18.1914 30.4975 18.1914 50" stroke="black" stroke-width="1.6" stroke-miterlimit="10" stroke-linecap="round" stroke-linejoin="round"/>
</g>
</svg>
