<svg width="90" height="90" viewBox="0 0 90 90" fill="none" xmlns="http://www.w3.org/2000/svg">
<path d="M24.457 35.8696V33.5869C24.457 32.3262 25.4791 31.3042 26.7397 31.3042C28.0004 31.3042 29.0224 32.3262 29.0224 33.5869V35.8696" stroke="#F47920" stroke-width="1.8" stroke-miterlimit="10" stroke-linecap="round" stroke-linejoin="round"/>
<path d="M63.2647 63.2619C65.7862 63.2619 67.8302 61.2178 67.8302 58.6964C67.8302 56.1749 65.7862 54.1309 63.2647 54.1309C60.7433 54.1309 58.6992 56.1749 58.6992 58.6964C58.6992 61.2178 60.7433 63.2619 63.2647 63.2619Z" stroke="black" stroke-width="1.8" stroke-miterlimit="10" stroke-linecap="round" stroke-linejoin="round"/>
<path d="M63.277 58.6958H63.2656" stroke="black" stroke-width="1.8" stroke-miterlimit="10" stroke-linecap="round" stroke-linejoin="round"/>
<path d="M21.0343 63.2619C23.5557 63.2619 25.5998 61.2178 25.5998 58.6964C25.5998 56.1749 23.5557 54.1309 21.0343 54.1309C18.5128 54.1309 16.4688 56.1749 16.4688 58.6964C16.4688 61.2178 18.5128 63.2619 21.0343 63.2619Z" stroke="black" stroke-width="1.8" stroke-miterlimit="10" stroke-linecap="round" stroke-linejoin="round"/>
<path d="M21.0465 58.6958H21.0352" stroke="black" stroke-width="1.8" stroke-miterlimit="10" stroke-linecap="round" stroke-linejoin="round"/>
<path d="M16.4693 58.6964H11.9038C10.6431 58.6964 9.62109 57.6744 9.62109 56.4137V48.1213C9.62109 46.9854 10.4565 46.0222 11.581 45.8616L17.6106 45L21.2297 37.762C21.8098 36.602 22.9954 35.8691 24.2924 35.8691H33.5898" stroke="black" stroke-width="1.8" stroke-miterlimit="10" stroke-linecap="round" stroke-linejoin="round"/>
<path d="M25.5977 58.6958H58.6971" stroke="black" stroke-width="1.8" stroke-miterlimit="10" stroke-linecap="round" stroke-linejoin="round"/>
<path d="M33.5898 49.5649V58.696" stroke="black" stroke-width="1.8" stroke-miterlimit="10" stroke-linecap="round" stroke-linejoin="round"/>
<path d="M71.2547 26.7383H34.7312C34.1009 26.7383 33.5898 27.2493 33.5898 27.8796V45" stroke="black" stroke-width="1.8" stroke-miterlimit="10" stroke-linecap="round" stroke-linejoin="round"/>
<path d="M67.832 58.6964H79.2456C79.8759 58.6964 80.3869 58.1854 80.3869 57.555V27.8796C80.3869 27.2493 79.8759 26.7383 79.2456 26.7383H75.8216" stroke="black" stroke-width="1.8" stroke-miterlimit="10" stroke-linecap="round" stroke-linejoin="round"/>
<path d="M17.6133 45H26.7441C28.0048 45 29.0268 43.978 29.0268 42.7173V35.8691" stroke="black" stroke-width="1.8" stroke-miterlimit="10" stroke-linecap="round" stroke-linejoin="round"/>
<path d="M80.3848 49.5649H16.4688" stroke="black" stroke-width="1.8" stroke-miterlimit="10" stroke-linecap="round" stroke-linejoin="round"/>
<path d="M9.62109 49.5649H11.9038" stroke="black" stroke-width="1.8" stroke-miterlimit="10" stroke-linecap="round" stroke-linejoin="round"/>
<path d="M43.8592 42.7167H39.2937C38.6634 42.7167 38.1523 42.2057 38.1523 41.5754V39.2927C38.1523 38.6624 38.6634 38.1514 39.2937 38.1514H43.8592C44.4895 38.1514 45.0005 38.6624 45.0005 39.2927V41.5754C45.0005 42.2057 44.4895 42.7167 43.8592 42.7167Z" stroke="black" stroke-width="1.8" stroke-miterlimit="10" stroke-linecap="round" stroke-linejoin="round"/>
<path d="M74.6797 35.8696H71.2557V32.4455C71.2557 31.8152 70.7447 31.3042 70.1144 31.3042H67.8317C67.2014 31.3042 66.6904 31.8152 66.6904 32.4455V35.8696H63.2663C62.636 35.8696 62.125 36.3806 62.125 37.0109V39.2936C62.125 39.9239 62.636 40.4349 63.2663 40.4349H66.6904V43.8589C66.6904 44.4893 67.2014 45.0003 67.8317 45.0003H70.1144C70.7447 45.0003 71.2557 44.4893 71.2557 43.8589V40.4349H74.6797C75.3101 40.4349 75.8211 39.9239 75.8211 39.2936V37.0109C75.8211 36.3806 75.3102 35.8696 74.6797 35.8696Z" stroke="#0DB14B" stroke-width="1.8" stroke-miterlimit="10" stroke-linecap="round" stroke-linejoin="round"/>
</svg>
