<svg width="90" height="90" viewBox="0 0 90 90" fill="none" xmlns="http://www.w3.org/2000/svg">
<path d="M25.162 33.8185C24.5199 35.1553 24.1602 36.6533 24.1602 38.2355C24.1602 43.8765 28.7331 48.4495 34.3742 48.4495C40.0152 48.4495 44.5882 43.8765 44.5882 38.2355C44.5882 32.5945 40.0152 28.0215 34.3742 28.0215C31.934 28.0215 29.6938 28.8772 27.9369 30.305" stroke="black" stroke-width="1.6" stroke-miterlimit="10" stroke-linecap="round" stroke-linejoin="round"/>
<path d="M50.4128 55.7406C46.4722 51.2294 40.6905 48.4492 34.3699 48.4492H32.3617C23.5229 48.4492 15.8777 54.6068 13.9944 63.2427C13.4356 65.8054 15.3875 68.229 18.0105 68.229H36.4919" stroke="#0DB14B" stroke-width="1.6" stroke-miterlimit="10" stroke-linecap="round" stroke-linejoin="round"/>
<path d="M35.4341 10.4041L37.2402 13.4417C37.3404 13.6103 37.5057 13.7304 37.6971 13.7736L41.1442 14.5525C41.673 14.6721 41.8815 15.3137 41.5239 15.7211L39.193 18.3775C39.0637 18.525 39.0005 18.7192 39.0185 18.9146L39.3428 22.4337C39.3926 22.9736 38.8467 23.3701 38.3487 23.156L35.1021 21.7601C34.9218 21.6826 34.7177 21.6826 34.5374 21.7601L31.2908 23.1561C30.7927 23.3703 30.2469 22.9737 30.2967 22.4339L30.621 18.9147C30.639 18.7194 30.5758 18.5252 30.4464 18.3777L28.1156 15.7213C27.758 15.3137 27.9665 14.6721 28.4953 14.5527L31.9424 13.7737C32.1338 13.7304 32.299 13.6105 32.3993 13.4419L34.2054 10.4042C34.4824 9.9382 35.1571 9.9382 35.4341 10.4041Z" stroke="#F47920" stroke-width="1.6" stroke-miterlimit="10" stroke-linecap="round" stroke-linejoin="round"/>
<path d="M16.5656 12.7228L18.0449 15.2107C18.127 15.3488 18.2623 15.4471 18.4191 15.4825L21.2423 16.1205C21.6754 16.2184 21.8461 16.7439 21.5533 17.0776L19.6442 19.2533C19.5382 19.374 19.4866 19.5331 19.5013 19.6931L19.767 22.5754C19.8078 23.0175 19.3607 23.3423 18.9528 23.167L16.2937 22.0237C16.146 21.9603 15.9788 21.9603 15.8312 22.0237L13.1721 23.167C12.7641 23.3423 12.3171 23.0176 12.3579 22.5754L12.6235 19.6931C12.6383 19.5331 12.5865 19.374 12.4806 19.2533L10.5716 17.0776C10.2787 16.7439 10.4496 16.2184 10.8827 16.1205L13.7059 15.4825C13.8627 15.4471 13.998 15.3488 14.0801 15.2107L15.5593 12.7228C15.7862 12.3411 16.3388 12.3411 16.5656 12.7228Z" stroke="black" stroke-width="1.6" stroke-miterlimit="10" stroke-linecap="round" stroke-linejoin="round"/>
<path d="M52.1491 12.7228L50.6699 15.2107C50.5878 15.3488 50.4525 15.4471 50.2957 15.4825L47.4725 16.1205C47.0394 16.2184 46.8686 16.7439 47.1614 17.0776L49.0704 19.2533C49.1764 19.374 49.2281 19.5331 49.2133 19.6931L48.9476 22.5754C48.9069 23.0175 49.3539 23.3423 49.7619 23.167L52.4209 22.0237C52.5686 21.9603 52.7358 21.9603 52.8835 22.0237L55.5425 23.167C55.9505 23.3423 56.3975 23.0176 56.3568 22.5754L56.0911 19.6931C56.0763 19.5331 56.1281 19.374 56.234 19.2533L58.143 17.0776C58.4359 16.7439 58.265 16.2184 57.8319 16.1205L55.0087 15.4825C54.8519 15.4471 54.7166 15.3488 54.6345 15.2107L53.1553 12.7228C52.9286 12.3411 52.3759 12.3411 52.1491 12.7228Z" stroke="black" stroke-width="1.6" stroke-miterlimit="10" stroke-linecap="round" stroke-linejoin="round"/>
<path d="M76.6615 62.4534H73.1994M76.6615 68.2841H73.1994M76.6615 74.1147H73.1994M79.577 59.5381C79.577 57.9281 78.2717 56.6228 76.6617 56.6228L66.0659 56.6065C64.6776 56.6044 63.5532 55.4783 63.5532 54.09V46.5614C63.5532 45.0086 62.7564 43.5642 61.4424 42.7362C60.3936 42.0753 59.0027 42.6038 58.6542 43.7936L54.4435 58.1715C53.7688 60.4754 51.6557 62.0584 49.255 62.0584H46.375V77.0984H50.8294C53.1853 77.0984 55.5287 77.5426 57.6893 78.482C59.8404 79.4173 62.1609 79.8999 64.5062 79.8999L76.6615 79.9455C78.2717 79.9455 79.5768 78.6403 79.5768 77.0302C79.5768 75.4201 78.2716 74.1149 76.6615 74.1149C78.2717 74.1149 79.5768 72.8096 79.5768 71.1996C79.5768 69.5894 78.2716 68.2843 76.6615 68.2843C78.2717 68.2843 79.5768 66.979 79.5768 65.369C79.5768 63.759 78.2716 62.4537 76.6615 62.4537C78.2717 62.4534 79.577 61.1481 79.577 59.5381Z" stroke="black" stroke-width="1.6" stroke-miterlimit="10" stroke-linecap="round" stroke-linejoin="round"/>
<path d="M45.2184 79.3428H38.2429C37.604 79.3428 37.0859 78.8249 37.0859 78.1859V60.4011C37.0859 59.7622 37.6039 59.2441 38.2429 59.2441H45.2184C45.8573 59.2441 46.3753 59.7621 46.3753 60.4011V78.1859C46.3753 78.8249 45.8574 79.3428 45.2184 79.3428Z" stroke="black" stroke-width="1.6" stroke-miterlimit="10" stroke-linecap="round" stroke-linejoin="round"/>
</svg>
