<svg width="101" height="100" viewBox="0 0 101 100" fill="none" xmlns="http://www.w3.org/2000/svg">
<path d="M28 71.199C28.9994 71.199 29.892 71.7462 30.333 72.6257L31.9053 75.7625L31.9521 75.8562L32.0557 75.8708L35.5713 76.3748C36.56 76.5162 37.363 77.1837 37.6709 78.116C37.9784 79.048 37.7276 80.0516 37.0137 80.7371L34.4697 83.1785L34.3926 83.2527L34.4111 83.3572L35.0117 86.8054C35.1799 87.7711 34.7847 88.729 33.9775 89.3064C33.1699 89.8841 32.1202 89.9593 31.2363 89.5017L28.0918 87.8738L28 87.8259L27.9082 87.8738L24.7637 89.5017C24.3789 89.7008 23.963 89.7985 23.5498 89.7986C23.0129 89.7986 22.4791 89.633 22.0225 89.3064C21.2152 88.7287 20.8202 87.7713 20.9883 86.8054L21.5889 83.3572L21.6074 83.2527L21.5303 83.1785L18.9863 80.7371C18.2725 80.0517 18.0218 79.0488 18.3291 78.1169C18.6367 77.1845 19.4397 76.5163 20.4287 76.3748L23.9443 75.8718L24.0479 75.8562L24.0947 75.7634L25.667 72.6257C26.108 71.7462 27.0006 71.199 28 71.199ZM28 72.6375C27.562 72.6376 27.1786 72.8708 26.9834 73.2605L25.1943 76.8308C25.0881 77.0427 24.8823 77.191 24.6426 77.2253H24.6416L20.6406 77.7976C20.2071 77.8596 19.8621 78.1457 19.7256 78.5593C19.5888 78.9735 19.6972 79.4069 20.0127 79.7097L22.9082 82.488C23.0807 82.6537 23.1586 82.8917 23.1182 83.1238L22.4346 87.0476C22.3598 87.477 22.531 87.8897 22.8867 88.1443C23.2419 88.3983 23.6906 88.4305 24.0791 88.2292L27.6572 86.3767C27.8716 86.2658 28.1283 86.2658 28.3428 86.3767L31.9209 88.2292C32.3093 88.4306 32.758 88.3985 33.1133 88.1443C33.4691 87.8897 33.6402 87.4771 33.5654 87.0476L32.8818 83.1238C32.8414 82.8917 32.9193 82.6536 33.0918 82.488L35.9873 79.7087C36.263 79.4438 36.3805 79.0798 36.3145 78.7156L36.2754 78.5593C36.1389 78.1455 35.7931 77.8597 35.3594 77.7976L31.3584 77.2253C31.1183 77.191 30.9119 77.0428 30.8057 76.8308L29.0166 73.2605C28.8213 72.8706 28.4379 72.6375 28 72.6375Z" fill="black" stroke="#F5F5F5" stroke-width="0.4"/>
<path d="M50.502 65.9802C51.7738 65.9804 52.9126 66.6883 53.4756 67.8289L55.4482 71.8269L55.4951 71.9216L55.5986 71.9363L60.0117 72.5779C61.2706 72.7607 62.2954 73.6251 62.6885 74.8347C63.0814 76.0445 62.7605 77.3462 61.8496 78.2341L58.6562 81.3464L58.5811 81.4197L58.5986 81.5232L59.3525 85.9177C59.5676 87.1714 59.0622 88.4133 58.0332 89.1609C57.004 89.9085 55.6667 90.0056 54.541 89.4138L50.5947 87.3386L50.501 87.2898L50.4082 87.3386L46.4619 89.4138C45.9716 89.6715 45.4414 89.7986 44.915 89.7986C44.2313 89.7986 43.5516 89.5844 42.9697 89.1619C41.9405 88.414 41.4354 87.1716 41.6504 85.9177L42.4033 81.5232L42.4219 81.4197L42.3457 81.3464L39.1533 78.2341C38.2425 77.3462 37.9214 76.0443 38.3145 74.8347C38.7077 73.625 39.7324 72.7608 40.9912 72.5779L45.4033 71.9363L45.5078 71.9216L45.5547 71.8269L47.5273 67.8289C48.0904 66.6882 49.23 65.9802 50.502 65.9802ZM50.502 67.9236C49.9694 67.9236 49.5071 68.2117 49.2715 68.6892L47.0254 73.24C46.8837 73.527 46.6093 73.7254 46.293 73.7712L41.2705 74.5017C40.7438 74.5783 40.3275 74.9293 40.1631 75.4353C39.9985 75.9416 40.1287 76.4708 40.5098 76.8425L44.1445 80.3845C44.3736 80.6079 44.4779 80.9296 44.4238 81.2449L43.5654 86.2468C43.4754 86.7716 43.6807 87.2766 44.1113 87.5896H44.1123C44.5424 87.9018 45.0847 87.9405 45.5557 87.6931L45.5566 87.6941L50.0488 85.3318C50.332 85.183 50.6707 85.183 50.9541 85.3318L55.4453 87.6941V87.6931C55.9167 87.9412 56.4599 87.9023 56.8906 87.5896C57.3214 87.2766 57.5266 86.7717 57.4365 86.2468L56.5791 81.2449C56.5251 80.9296 56.6294 80.6078 56.8584 80.3845L60.4932 76.8425C60.8269 76.5172 60.9685 76.0713 60.8887 75.6257L60.8408 75.4353L60.7676 75.2527C60.5705 74.8453 60.1936 74.5687 59.7324 74.5017L54.71 73.7712C54.3936 73.7251 54.1201 73.5267 53.9785 73.24L51.7324 68.6892C51.4969 68.2115 51.0343 67.9236 50.502 67.9236Z" fill="#0DB14B" stroke="white" stroke-width="0.4"/>
<path d="M73 71.199C73.9994 71.199 74.892 71.7462 75.333 72.6257L76.9053 75.7625L76.9521 75.8562L77.0557 75.8708L80.5713 76.3748C81.5601 76.5162 82.3631 77.1836 82.6709 78.116C82.9784 79.048 82.7276 80.0515 82.0137 80.7371L79.4697 83.1785L79.3926 83.2527L79.4111 83.3572L80.0117 86.8054C80.1799 87.7711 79.7847 88.729 78.9775 89.3064C78.1699 89.8841 77.1203 89.9593 76.2363 89.5017L73.0918 87.8738L73 87.8259L72.9082 87.8738L69.7637 89.5017C69.3789 89.7008 68.963 89.7985 68.5498 89.7986C68.0129 89.7986 67.4791 89.633 67.0225 89.3064C66.2152 88.7287 65.8202 87.7713 65.9883 86.8054L66.5889 83.3572L66.6074 83.2527L66.5303 83.1785L63.9863 80.7371C63.2725 80.0517 63.0218 79.0488 63.3291 78.1169C63.6367 77.1845 64.4397 76.5163 65.4287 76.3748L68.9443 75.8718L69.0479 75.8562L69.0947 75.7634L70.667 72.6257C71.108 71.7462 72.0006 71.199 73 71.199ZM73 72.6375C72.562 72.6376 72.1786 72.8708 71.9834 73.2605L70.1943 76.8308C70.0881 77.0427 69.8823 77.191 69.6426 77.2253H69.6416L65.6406 77.7976C65.207 77.8596 64.862 78.1457 64.7256 78.5593C64.5889 78.9733 64.6975 79.406 65.0127 79.7087L67.9082 82.488C68.0806 82.6536 68.1584 82.8908 68.1182 83.1228L67.4346 87.0476C67.3599 87.477 67.531 87.8897 67.8867 88.1443C68.2418 88.3983 68.6906 88.4304 69.0791 88.2292L72.6572 86.3767C72.8716 86.2658 73.1283 86.2658 73.3428 86.3767L76.9209 88.2292C77.3094 88.4306 77.7579 88.3985 78.1133 88.1443C78.4691 87.8897 78.6402 87.4771 78.5654 87.0476L77.8818 83.1228C77.8416 82.8908 77.9195 82.6534 78.0918 82.488L80.9873 79.7087C81.3025 79.406 81.4116 78.9734 81.2754 78.5593C81.1389 78.1455 80.7931 77.8597 80.3594 77.7976L76.3584 77.2253C76.1183 77.191 75.9119 77.0428 75.8057 76.8308L74.0166 73.2605C73.8213 72.8706 73.4379 72.6375 73 72.6375Z" fill="black" stroke="#F5F5F5" stroke-width="0.4"/>
<path d="M50.5 17.2322C56.722 17.2322 61.7842 22.2943 61.7842 28.5164C61.7842 34.7384 56.722 39.8005 50.5 39.8005C44.278 39.8005 39.2158 34.7384 39.2158 28.5164C39.2158 22.2943 44.278 17.2322 50.5 17.2322ZM50.5 19.1755C45.3494 19.1755 41.1592 23.3657 41.1592 28.5164C41.1592 33.667 45.3494 37.8572 50.5 37.8572C55.6506 37.8572 59.8408 33.667 59.8408 28.5164C59.8408 23.3657 55.6506 19.1755 50.5 19.1755Z" fill="#F47920" stroke="#F5F5F5" stroke-width="0.4"/>
<path d="M37.7852 42.5447H63.207C66.329 42.5449 68.8691 45.0856 68.8691 48.2078C68.869 48.3983 68.8132 48.5847 68.708 48.7439C64.6404 54.8848 57.8324 58.5504 50.4961 58.5505C43.1596 58.5505 36.3509 54.885 32.2832 48.7439C32.178 48.5847 32.1222 48.3983 32.1221 48.2078C32.1221 45.0854 34.663 42.5447 37.7852 42.5447ZM37.7842 44.488C35.8529 44.4882 34.261 45.968 34.082 47.8533L34.0752 47.9255L34.1172 47.9851C37.8451 53.3905 43.9395 56.6072 50.4961 56.6072C57.0525 56.607 63.1462 53.3904 66.874 47.9851L66.916 47.9255L66.9092 47.8533C66.7302 45.9679 65.1377 44.488 63.2061 44.488H37.7842Z" fill="black" stroke="#F5F5F5" stroke-width="0.4"/>
<path d="M50.5 10.2007C65.1224 10.2007 77.0186 22.0969 77.0186 36.7192C77.0186 51.3416 65.1224 63.2378 50.5 63.2378C35.8778 63.2378 23.9814 51.3416 23.9814 36.7192C23.9814 30.3953 26.2452 24.2709 30.3555 19.4741C30.7048 19.0665 31.3188 19.0184 31.7266 19.3677C32.1341 19.7169 32.1813 20.3311 31.832 20.7388C28.023 25.1838 25.9248 30.8591 25.9248 36.7192C25.9248 50.2702 36.9491 61.2944 50.5 61.2944C64.0509 61.2944 75.0752 50.2702 75.0752 36.7192C75.0752 23.1683 64.0509 12.144 50.5 12.144C44.8984 12.144 39.4182 14.0805 35.0674 17.5962C34.6502 17.9335 34.0375 17.8682 33.7002 17.4507C33.3629 17.0332 33.4282 16.4209 33.8457 16.0835C38.5407 12.2899 44.4555 10.2007 50.5 10.2007Z" fill="black" stroke="white" stroke-width="0.4"/>
</svg>
