<svg width="90" height="90" viewBox="0 0 90 90" fill="none" xmlns="http://www.w3.org/2000/svg">
<mask id="mask0_6701_17332" style="mask-type:luminance" maskUnits="userSpaceOnUse" x="11" y="12" width="67" height="67">
<path d="M11 12H78V79H11V12Z" fill="white"/>
</mask>
<g mask="url(#mask0_6701_17332)">
<path d="M48.3073 57.6727C57.6452 58.1758 64.7036 60.4945 64.7036 63.2789C64.7036 66.431 55.6582 68.9863 44.5003 68.9863C33.3421 68.9863 24.2969 66.431 24.2969 63.2789C24.2969 60.4945 31.3552 58.1758 40.693 57.6727" stroke="#F47920" stroke-width="2" stroke-miterlimit="10" stroke-linecap="round" stroke-linejoin="round"/>
<path d="M17.6619 60.6951C14.6849 62.3306 12.9648 64.2582 12.9648 66.3225C12.9648 72.2401 27.0846 77.0371 44.502 77.0371C61.9195 77.0371 76.0391 72.2401 76.0391 66.3225C76.0391 64.2582 74.3192 62.3306 71.3421 60.6951" stroke="#0DB14B" stroke-width="2" stroke-miterlimit="10" stroke-linecap="round" stroke-linejoin="round"/>
<path d="M44.4991 34.3654C41.5327 34.3654 39.1279 31.9606 39.1279 28.9943C39.1279 26.0278 41.5327 23.623 44.4991 23.623C47.4656 23.623 49.8704 26.0278 49.8704 28.9943C49.8704 31.9606 47.4656 34.3654 44.4991 34.3654ZM44.4991 13.963C35.5055 13.963 28.2148 21.2536 28.2148 30.2469C28.2148 36.4916 37.3389 52.2048 41.9277 59.7127C43.1034 61.6361 45.8949 61.6361 47.0705 59.7127C51.6593 52.2048 60.7834 36.4916 60.7834 30.2469C60.7834 21.2536 53.4927 13.963 44.4991 13.963Z" stroke="white" stroke-width="2" stroke-miterlimit="10" stroke-linecap="round" stroke-linejoin="round"/>
</g>
</svg>
