<svg width="90" height="90" viewBox="0 0 90 90" fill="none" xmlns="http://www.w3.org/2000/svg">
<path d="M62.7647 29.604H57.8242V46.9445H62.7647V29.604Z" stroke="#F47920" stroke-width="2" stroke-miterlimit="10" stroke-linecap="round" stroke-linejoin="round"/>
<path d="M32.253 29.6042H27.3125V46.9447H32.253V29.6042Z" stroke="#F47920" stroke-width="2" stroke-miterlimit="10" stroke-linecap="round" stroke-linejoin="round"/>
<path d="M64.8955 24.9885H25V29.6041H64.8955V24.9885Z" stroke="white" stroke-width="2" stroke-miterlimit="10" stroke-linecap="round" stroke-linejoin="round"/>
<path d="M20.0781 56.1751V51.5596H42.5469" stroke="white" stroke-width="2" stroke-miterlimit="10" stroke-linecap="round" stroke-linejoin="round"/>
<path d="M48.7969 51.5596H69.8203V56.1751" stroke="white" stroke-width="2" stroke-miterlimit="10" stroke-linecap="round" stroke-linejoin="round"/>
<path d="M25 51.5602V46.9446H64.8955V51.5602" stroke="white" stroke-width="2" stroke-miterlimit="10" stroke-linecap="round" stroke-linejoin="round"/>
<path d="M29.2134 14.6854L44.9488 5.68652L69.8194 19.9098V24.9928H20.0781V19.9098L25.0011 17.0946" stroke="white" stroke-width="2" stroke-miterlimit="10" stroke-linecap="round" stroke-linejoin="round"/>
<path d="M44.9488 10.7693L69.8194 24.9925H20.0781L44.9488 10.7693Z" stroke="white" stroke-width="2" stroke-miterlimit="10" stroke-linecap="round" stroke-linejoin="round"/>
<path d="M59.4382 73.4698C60.504 74.5616 60.2637 76.3929 58.9544 77.1577L48.807 83.0844C45.415 85.0656 41.1688 84.6203 38.239 81.9761L26.7383 70.4279V56.2285H37.6795" stroke="#0DB14B" stroke-width="2" stroke-miterlimit="10" stroke-linecap="round" stroke-linejoin="round"/>
<path d="M58.156 56.2285L48.9879 51.8148C45.981 50.304 43.0365 50.6427 41.0534 52.6433L33.4434 60.611C32.3657 61.771 32.5084 63.6322 33.7495 64.6057C34.6745 65.3312 35.9555 65.3465 36.8968 64.6432L42.9419 59.961C44.0219 59.1244 45.5388 59.2318 46.4962 60.2125L59.438 73.4696L63.4107 70.4279V56.2285H58.156Z" stroke="#0DB14B" stroke-width="2" stroke-miterlimit="10" stroke-linecap="round" stroke-linejoin="round"/>
<path d="M67.9363 56.2285H63.4102V70.4279H67.9363V56.2285Z" stroke="white" stroke-width="2" stroke-miterlimit="10" stroke-linecap="round" stroke-linejoin="round"/>
<path d="M76.0446 70.428H79.1448V56.2285H67.9375V70.428H71.3153" stroke="white" stroke-width="2" stroke-miterlimit="10" stroke-linecap="round" stroke-linejoin="round"/>
<path d="M26.7369 56.2285H22.0625V70.428H26.5887L26.7369 56.2285Z" stroke="white" stroke-width="2" stroke-miterlimit="10" stroke-linecap="round" stroke-linejoin="round"/>
<path d="M22.0627 56.2285H10.8555V70.4279H22.0627V56.2285Z" stroke="white" stroke-width="2" stroke-miterlimit="10" stroke-linecap="round" stroke-linejoin="round"/>
<path d="M56.8129 78.3549L48.3672 69.6436" stroke="#0DB14B" stroke-width="2" stroke-miterlimit="10" stroke-linecap="round" stroke-linejoin="round"/>
<path d="M52.2933 80.7342L43.8477 72.0229" stroke="#0DB14B" stroke-width="2" stroke-miterlimit="10" stroke-linecap="round" stroke-linejoin="round"/>
<path d="M47.7933 83.4501C44.4951 80.0481 39.3477 74.7388 39.3477 74.7388" stroke="#0DB14B" stroke-width="2" stroke-miterlimit="10" stroke-linecap="round" stroke-linejoin="round"/>
</svg>
