<svg width="90" height="90" viewBox="0 0 90 90" fill="none" xmlns="http://www.w3.org/2000/svg">
<mask id="mask0_6701_17609" style="mask-type:luminance" maskUnits="userSpaceOnUse" x="9" y="9" width="72" height="72">
<path d="M9 9.00001H81V81H9V9.00001Z" fill="white"/>
</mask>
<g mask="url(#mask0_6701_17609)">
<path d="M35.8696 34.7722C38.2942 32.6062 41.4931 31.2889 45.0001 31.2889C52.5724 31.2889 58.7111 37.4275 58.7111 44.9999C58.7111 52.5722 52.5724 58.7108 45.0001 58.7108C37.4278 58.7108 31.2892 52.5722 31.2892 44.9999C31.2892 41.6995 32.4555 38.6719 34.398 36.3057M41.8359 21.656H48.1642L48.5256 25.2702C51.4346 25.7865 54.1259 26.9312 56.456 28.5577L59.2694 26.2558L63.744 30.7306L61.4423 33.544C63.0689 35.8739 64.2132 38.5656 64.7298 41.4744L68.344 41.8357V48.1639L64.7298 48.5253C64.2132 51.4342 63.0688 54.1257 61.4423 56.4557L63.744 59.2691L59.2694 63.7439L56.456 61.442C54.1261 63.0686 51.4344 64.2129 48.5256 64.7295L48.1642 68.3438H41.8359L41.4745 64.7295C38.5658 64.2129 35.8741 63.0688 33.5441 61.442L30.7309 63.7439L26.2561 59.2691L28.558 56.4557C26.9314 54.1257 25.7871 51.4342 25.2705 48.5253L21.6562 48.1639V41.8357L25.2705 41.4744C25.787 38.5656 26.9312 35.8739 28.558 33.544L26.2561 30.7306L30.7309 26.2558L33.5443 28.5577C35.8744 26.9312 38.5656 25.7865 41.4745 25.2702L41.8359 21.656Z" stroke="#F47920" stroke-width="1.6" stroke-miterlimit="22.926"/>
<path d="M68.9767 70.4649L70.4479 68.9532M71.8474 67.3727C76.9048 61.3112 79.9492 53.5116 79.9492 45C79.9492 37.5046 77.5878 30.5616 73.57 24.8714L76.6601 21.7813L65.1594 19.0758L68.2226 30.2188L70.5383 27.9031C73.8173 32.7908 75.7305 38.6716 75.7305 45C75.7305 61.9712 61.9751 75.7266 45.0039 75.7266C40.1559 75.7266 35.5711 74.6024 31.4935 72.6031L29.6374 76.3917C34.2752 78.6663 39.4899 79.9453 45.0039 79.9453C53.5124 79.9453 61.3099 76.9036 67.3702 71.849M45.0039 10.0547C25.7041 10.0547 10.0586 25.7002 10.0586 45C10.0586 52.4955 12.42 59.4384 16.4378 65.1286L13.3477 68.2187L24.8484 70.9242L21.7852 59.7812L19.4695 62.0969C16.1905 57.2092 14.2773 51.3284 14.2773 45C14.2773 28.0288 28.0327 14.2734 45.0039 14.2734C49.8519 14.2734 54.4367 15.3976 58.5142 17.3969L60.3704 13.6083C55.7326 11.3337 50.5179 10.0547 45.0039 10.0547Z" stroke="black" stroke-width="1.6" stroke-miterlimit="22.926"/>
<path d="M48.5061 40.5947C48.0056 39.5861 46.9636 38.8886 45.7667 38.8886H44.239C42.5585 38.8886 41.1836 40.2635 41.1836 41.944C41.1836 43.6245 42.5585 44.9995 44.239 44.9995H45.7667C47.4472 44.9995 48.8221 46.3744 48.8221 48.055C48.8221 49.7353 47.4472 51.1104 45.7667 51.1104H44.239C43.042 51.1104 42.0001 50.4127 41.4996 49.4043" stroke="#0DB14B" stroke-width="1.6" stroke-miterlimit="22.926"/>
<path d="M45 54.2744V51.1104M45 38.8886V35.7246" stroke="#0DB14B" stroke-width="1.6" stroke-miterlimit="22.926"/>
<path d="M35.5117 45H37.6211M52.3869 45H54.4962" stroke="black" stroke-width="1.6" stroke-miterlimit="2.613"/>
</g>
</svg>
