<svg width="67" height="67" viewBox="0 0 67 67" fill="none" xmlns="http://www.w3.org/2000/svg">
<mask id="mask0_6701_17285" style="mask-type:luminance" maskUnits="userSpaceOnUse" x="0" y="0" width="67" height="67">
<path d="M0 7.62939e-06H67V67H0V7.62939e-06Z" fill="white"/>
</mask>
<g mask="url(#mask0_6701_17285)">
<path d="M18.1529 57.9638C18.6095 59.7975 19.1414 61.6197 20.0824 62.6673C21.0738 63.7707 21.5337 67.1652 24.9654 64.9646C25.4918 64.627 26.4171 63.0355 27.7377 62.9938C28.4679 62.9709 27.9111 58.8078 28.6469 57.3188C29.8329 54.9187 29.9117 57.2185 29.481 53.7039C28.636 46.8067 30.581 51.812 31.4359 49.0952C32.0784 47.0536 33.0202 48.4898 33.1794 46.5717C33.2218 46.0607 35.5152 45.6953 36.391 44.227C38.0314 41.4769 39.9132 40.6868 42.6281 39.5625C43.9454 39.0168 40.9563 36.5647 44.4771 36.704C45.133 36.7299 44.8502 36.0201 46.521 36.0201C47.6054 36.0201 47.1086 33.8214 46.1651 32.7709C45.5017 32.0323 43.8991 29.045 46.8339 29.0416C48.7816 29.0394 48.4431 29.3383 49.5228 29.3484C50.0399 29.3532 51.3967 29.1692 51.0753 30.4452C49.7247 35.8098 53.9463 31.7167 53.7312 34.8477C53.6041 36.6955 57.6945 36.836 57.5268 32.8786C57.4458 30.9705 59.1272 30.99 59.1272 29.1251C59.1272 28.3105 58.329 27.3626 58.6781 26.0546C59.0588 24.6281 60.7389 23.6726 61.8508 24.0755C63.0213 24.4995 61.8959 23.2651 62.8462 21.926C63.4577 21.0643 60.9227 21.464 61.0222 20.1925C61.0227 20.1849 60.2608 18.8987 59.6597 18.9224C58.8041 18.9563 59.8583 19.6242 56.9345 19.5087C55.9592 19.4701 54.818 20.247 52.8894 21.2321C51.4465 21.9692 52.6664 24.1853 51.9939 24.2943C50.7754 24.4917 49.0436 24.0125 47.3947 23.4738C46.6914 23.2439 47.0467 20.4299 43.9351 20.9196C42.2983 21.1773 43.0889 23.4865 42.5609 24.1081C41.9484 24.8291 40.347 24.9747 38.6648 23.865C37.7863 23.2855 35.1501 24.2019 34.7142 23.0058C33.1065 22.7953 31.5628 22.7936 30.3584 22.0127M15.2892 18.7427C14.4165 20.1089 13.4625 21.8698 12.5095 21.8237C11.5162 21.7757 9.15867 20.0169 7.39875 23.0798C6.1493 25.2544 11.0379 26.5883 9.20853 29.2727C8.27276 30.6458 6.41979 28.9469 5.15765 29.6552C3.6754 30.4872 3.52596 33.3643 5.70896 33.9452C6.3096 34.105 7.85453 34.2765 7.33973 35.1071C6.82741 35.9337 6.78528 37.5814 8.28296 38.3423C9.85 39.1388 11.0251 37.494 11.806 36.5727C12.5927 35.6449 15.384 36.2144 15.1303 38.6892C14.9797 40.1604 13.2037 41.4021 13.211 42.5144C13.2245 44.5022 13.2616 45.9646 13.5154 47.1463M27.4639 11.7045C27.434 11.2971 27.1746 10.7671 26.5364 10.0568C25.4984 8.9016 27.5744 9.41509 28.1519 7.49146C28.6503 5.83203 27.6519 4.80439 26.4724 4.75584C24.415 4.67131 23.6792 7.20291 21.242 3.1676C20.986 2.74375 18.9866 1.61456 18.502 1.48998C17.7467 1.29605 16.2043 1.06809 15.0265 1.9158C14.2424 2.48019 13.4316 4.20414 15.1913 4.75584C15.6108 4.88735 16.9807 6.18797 16.4732 7.02808C16.0325 7.75789 14.9224 8.31757 15.3694 9.64095C15.6574 10.4939 16.3783 11.013 17.5827 12.2147" stroke="white" stroke-width="2" stroke-miterlimit="2.613" stroke-linecap="round" stroke-linejoin="round"/>
<path d="M25 23.0771C24.0598 23.0771 21 19.6605 21 17.0317C21 14.855 22.8075 12.9915 25 12.9999C27.1925 12.9915 29 14.855 29 17.0317C29 19.6605 25.9401 23.0771 25 23.0771Z" stroke="#0DB14B" stroke-width="1.01891" stroke-miterlimit="22.926" stroke-linecap="round" stroke-linejoin="round"/>
<path d="M22.1755 47C21.4291 47 19 44.2876 19 42.2007C19 40.4726 20.435 38.9933 22.1755 38.9999C23.9161 38.9933 25.351 40.4726 25.351 42.2007C25.351 44.2876 22.9219 47 22.1755 47Z" stroke="white" stroke-width="0.808886" stroke-miterlimit="22.926" stroke-linecap="round" stroke-linejoin="round"/>
<path d="M36 38.0771C35.0598 38.0771 32 34.6605 32 32.0317C32 29.855 33.8075 27.9915 36 27.9999C38.1925 27.9915 40 29.855 40 32.0317C40 34.6605 36.9401 38.0771 36 38.0771Z" stroke="#F47920" stroke-width="1.01891" stroke-miterlimit="22.926" stroke-linecap="round" stroke-linejoin="round"/>
<path d="M25.0013 18.334C25.7357 18.334 26.3346 17.7351 26.3346 17.0007C26.3346 16.2663 25.7357 15.6673 25.0013 15.6673C24.2669 15.6673 23.668 16.2663 23.668 17.0007C23.668 17.7351 24.2669 18.334 25.0013 18.334Z" stroke="white" stroke-width="1.01891" stroke-miterlimit="22.926" stroke-linecap="round" stroke-linejoin="round"/>
<path d="M22.1757 43.2344C22.7587 43.2344 23.2342 42.7589 23.2342 42.1759C23.2342 41.5928 22.7587 41.1174 22.1757 41.1174C21.5927 41.1174 21.1172 41.5928 21.1172 42.1759C21.1172 42.7589 21.5927 43.2344 22.1757 43.2344Z" stroke="#F47920" stroke-width="0.808886" stroke-miterlimit="22.926" stroke-linecap="round" stroke-linejoin="round"/>
<path d="M36.0013 33.334C36.7357 33.334 37.3346 32.7351 37.3346 32.0007C37.3346 31.2663 36.7357 30.6673 36.0013 30.6673C35.2669 30.6673 34.668 31.2663 34.668 32.0007C34.668 32.7351 35.2669 33.334 36.0013 33.334Z" stroke="white" stroke-width="1.01891" stroke-miterlimit="22.926" stroke-linecap="round" stroke-linejoin="round"/>
<path d="M16.0586 52.46H16.061" stroke="#F47920" stroke-width="2" stroke-miterlimit="2.613" stroke-linecap="round" stroke-linejoin="round"/>
</g>
</svg>
