<svg width="90" height="90" viewBox="0 0 90 90" fill="none" xmlns="http://www.w3.org/2000/svg">
<path d="M18.0962 65.915H14.3477C13.1827 65.915 12.2383 66.8595 12.2383 68.0244V71.7642C12.2383 72.1525 12.5531 72.4673 12.9414 72.4673H77.0577C77.446 72.4673 77.7608 72.1525 77.7608 71.7642V68.0244C77.7608 66.8595 76.8164 65.915 75.6514 65.915H23.1587" stroke="black" stroke-width="1.6" stroke-miterlimit="10" stroke-linecap="round" stroke-linejoin="round"/>
<path d="M45.6138 37.8435L47.4199 40.8812C47.5201 41.0498 47.6854 41.1699 47.8768 41.2131L51.3239 41.992C51.8527 42.1115 52.0612 42.7532 51.7036 43.1606L49.3727 45.817C49.2434 45.9645 49.1802 46.1587 49.1982 46.354L49.5225 49.8732C49.5723 50.413 49.0264 50.8096 48.5284 50.5954L45.2818 49.1996C45.1015 49.1221 44.8973 49.1221 44.7171 49.1996L41.4704 50.5956C40.9724 50.8097 40.4266 50.4132 40.4764 49.8733L40.8006 46.3542C40.8186 46.1588 40.7555 45.9646 40.6261 45.8171L38.2953 43.1607C37.9377 42.7532 38.1462 42.1115 38.675 41.9921L42.1221 41.2132C42.3135 41.1699 42.4787 41.0499 42.579 40.8813L44.385 37.8437C44.6621 37.3777 45.3368 37.3777 45.6138 37.8435Z" stroke="#F47920" stroke-width="1.6" stroke-miterlimit="10" stroke-linecap="round" stroke-linejoin="round"/>
<path d="M45 30.9698V26.6016" stroke="#0DB14B" stroke-width="1.6" stroke-miterlimit="10" stroke-linecap="round" stroke-linejoin="round"/>
<path d="M42.8164 28.7857L45.0005 26.6016L47.1845 28.7857" stroke="#0DB14B" stroke-width="1.6" stroke-miterlimit="10" stroke-linecap="round" stroke-linejoin="round"/>
<path d="M58.1016 44.0742H71.2061" stroke="#0DB14B" stroke-width="1.6" stroke-miterlimit="10" stroke-linecap="round" stroke-linejoin="round"/>
<path d="M69.0234 41.8906L71.2075 44.0747L69.0234 46.2589" stroke="#0DB14B" stroke-width="1.6" stroke-miterlimit="10" stroke-linecap="round" stroke-linejoin="round"/>
<path d="M31.8935 44.0742H18.7891" stroke="#0DB14B" stroke-width="1.6" stroke-miterlimit="10" stroke-linecap="round" stroke-linejoin="round"/>
<path d="M20.9731 41.8906L18.7891 44.0747L20.9731 46.2589" stroke="#0DB14B" stroke-width="1.6" stroke-miterlimit="10" stroke-linecap="round" stroke-linejoin="round"/>
<path d="M75.5742 57.2471V65.9149" stroke="black" stroke-width="1.6" stroke-miterlimit="10" stroke-linecap="round" stroke-linejoin="round"/>
<path d="M75.5742 30.2598V52.1846" stroke="black" stroke-width="1.6" stroke-miterlimit="10" stroke-linecap="round" stroke-linejoin="round"/>
<path d="M14.4219 65.915V30.2598" stroke="black" stroke-width="1.6" stroke-miterlimit="10" stroke-linecap="round" stroke-linejoin="round"/>
<path d="M26.8429 22.3479L44.6351 17.5803C44.8746 17.5162 45.1268 17.5162 45.3663 17.5803L79.4216 26.7062C79.7984 26.8071 80.022 27.1943 79.9211 27.571L79.1519 30.4457C79.0511 30.8226 78.6637 31.0463 78.2868 30.9453L45.1835 22.0757C45.0637 22.0436 44.9377 22.0436 44.8179 22.0757L11.7132 30.9453C11.3363 31.0463 10.9489 30.8226 10.8481 30.4457L10.0789 27.571C9.97805 27.1943 10.2016 26.8071 10.5784 26.7062L22.0337 23.6366" stroke="black" stroke-width="1.6" stroke-miterlimit="10" stroke-linecap="round" stroke-linejoin="round"/>
<path d="M45 57.1787V61.5468" stroke="#0DB14B" stroke-width="1.6" stroke-miterlimit="10" stroke-linecap="round" stroke-linejoin="round"/>
<path d="M42.8164 59.3633L45.0005 61.5473L47.1845 59.3633" stroke="#0DB14B" stroke-width="1.6" stroke-miterlimit="10" stroke-linecap="round" stroke-linejoin="round"/>
</svg>
