<svg width="100" height="100" viewBox="0 0 100 100" fill="none" xmlns="http://www.w3.org/2000/svg">
<mask id="mask0_6701_17084" style="mask-type:luminance" maskUnits="userSpaceOnUse" x="10" y="10" width="80" height="80">
<path d="M10 10H90V90H10V10Z" fill="white"/>
</mask>
<g mask="url(#mask0_6701_17084)">
<path d="M69.6875 30.3125H79.0625L88.4375 20.9375H79.0625V11.5625L69.6875 20.9375V30.3125Z" stroke="black" stroke-width="1.6" stroke-miterlimit="10" stroke-linecap="round" stroke-linejoin="round"/>
</g>
<path d="M50 74.375C36.5594 74.375 25.625 63.4406 25.625 50C25.625 36.5594 36.5594 25.625 50 25.625C56.7203 25.625 62.8141 28.3594 67.2281 32.7719C71.6406 37.1859 74.375 43.2797 74.375 50C74.375 63.4406 63.4406 74.375 50 74.375Z" stroke="#F47920" stroke-width="1.6" stroke-miterlimit="10" stroke-linecap="round" stroke-linejoin="round"/>
<path d="M50 60.3125C44.3141 60.3125 39.6875 55.6859 39.6875 50C39.6875 44.3141 44.3141 39.6875 50 39.6875C52.8438 39.6875 55.4219 40.8437 57.2891 42.7109C59.1563 44.5781 60.3125 47.1562 60.3125 50C60.3125 55.6859 55.6859 60.3125 50 60.3125Z" stroke="#0DB14B" stroke-width="1.6" stroke-miterlimit="10" stroke-linecap="round" stroke-linejoin="round"/>
<path d="M80.3125 75.625C80.3125 76.4878 79.6128 77.1875 78.75 77.1875C77.8872 77.1875 77.1875 76.4878 77.1875 75.625C77.1875 74.7622 77.8872 74.0625 78.75 74.0625C79.6128 74.0625 80.3125 74.7622 80.3125 75.625Z" fill="black"/>
<path d="M81.4688 27.908C85.8609 34.1547 88.4391 41.7735 88.4391 50.0002C88.4391 57.3019 86.4081 64.1252 82.8798 69.9363" stroke="black" stroke-width="1.6" stroke-miterlimit="10" stroke-linecap="round" stroke-linejoin="round"/>
<path d="M73.5706 80.3753C67.0641 85.4295 58.8869 88.4375 50 88.4375C28.7562 88.4375 11.5625 71.2469 11.5625 50C11.5625 28.7562 28.7531 11.5625 50 11.5625C58.225 11.5625 65.8439 14.1406 72.0922 18.5328C72.1234 18.5531 72.1533 18.575 72.1845 18.5967" stroke="black" stroke-width="1.6" stroke-miterlimit="10" stroke-linecap="round" stroke-linejoin="round"/>
<path d="M69.6875 30.3125L50 50" stroke="black" stroke-width="1.6" stroke-miterlimit="10" stroke-linecap="round" stroke-linejoin="round"/>
</svg>
