<svg width="90" height="90" viewBox="0 0 90 90" fill="none" xmlns="http://www.w3.org/2000/svg">
<mask id="mask0_6701_17708" style="mask-type:luminance" maskUnits="userSpaceOnUse" x="12" y="12" width="66" height="66">
<path d="M12.6016 12.598H77.4016V77.3979H12.6016V12.598Z" fill="white"/>
</mask>
<g mask="url(#mask0_6701_17708)">
<path d="M51.1019 21.3658C53.3396 21.9433 55.4535 22.8299 57.3944 23.9778C57.3944 23.9778 58.3296 23.0424 59.3799 21.9921C60.1426 21.2286 61.1775 20.8005 62.2563 20.8005C63.3339 20.8005 64.369 21.2286 65.1316 21.9921C66.0567 22.9174 67.0817 23.9421 68.0068 24.8674C68.7704 25.63 69.1984 26.665 69.1984 27.7427C69.1984 28.8215 68.7704 29.8564 68.0068 30.619C66.9565 31.6693 66.0212 32.6046 66.0212 32.6046C67.169 34.5456 68.0556 36.6593 68.6332 38.8971H71.4362C73.6821 38.8971 75.5031 40.7181 75.5031 42.964V47.0309C75.5031 49.2768 73.6821 51.0978 71.4362 51.0978H68.6332C68.0556 53.3355 67.169 55.4494 66.0212 57.3902C66.0212 57.3902 66.9565 58.3256 68.0068 59.3758C68.7704 60.1385 69.1984 61.1734 69.1984 62.2522C69.1984 63.3299 68.7704 64.3649 68.0068 65.1275C67.0817 66.0527 66.0567 67.0776 65.1316 68.0027C64.369 68.7663 63.3339 69.1943 62.2563 69.1943C61.1775 69.1943 60.1426 68.7663 59.3799 68.0027C58.3296 66.9524 57.3944 66.0171 57.3944 66.0171C55.4535 67.1649 53.3396 68.0516 51.1019 68.629V71.4321C51.1019 73.678 49.2809 75.499 47.0349 75.499H42.9681C40.7221 75.499 38.9013 73.678 38.9013 71.4321V68.629C36.6635 68.0516 34.5497 67.1649 32.6087 66.0171C32.6087 66.0171 31.6734 66.9524 30.6231 68.0027C29.8605 68.7663 28.8255 69.1943 27.7468 69.1943C26.6691 69.1943 25.634 68.7663 24.8715 68.0027C23.9464 67.0776 22.9215 66.0527 21.9962 65.1275C21.2327 64.3649 20.8046 63.3299 20.8046 62.2522C20.8046 61.1734 21.2327 60.1385 21.9962 59.3758C23.0465 58.3256 23.9819 57.3902 23.9819 57.3902C22.834 55.4494 21.9476 53.3355 21.3699 51.0978H18.567C16.321 51.0978 14.5 49.2768 14.5 47.0309V42.964C14.5 40.7181 16.321 38.8971 18.567 38.8971H21.3699C21.9476 36.6593 22.834 34.5456 23.9819 32.6046C23.9819 32.6046 23.0465 31.6693 21.9962 30.619C21.2327 29.8564 20.8046 28.8215 20.8046 27.7427C20.8046 26.665 21.2327 25.63 21.9962 24.8674C22.9215 23.9421 23.9464 22.9174 24.8715 21.9921C25.634 21.2286 26.6691 20.8005 27.7468 20.8005C28.8255 20.8005 29.8605 21.2286 30.6231 21.9921C31.6734 23.0424 32.6087 23.9778 32.6087 23.9778C34.5497 22.8299 36.6635 21.9433 38.9013 21.3658V18.5627C38.9013 16.3168 40.7221 14.4959 42.9681 14.4959H47.0349C49.2809 14.4959 51.1019 16.3168 51.1019 18.5627V21.3658Z" stroke="white" stroke-width="1.68" stroke-miterlimit="10" stroke-linecap="round" stroke-linejoin="round"/>
</g>
<path d="M57.3673 53.4286L46.1853 34.3502C45.9097 33.8777 45.3974 33.5602 44.811 33.5602C44.2246 33.5602 43.7123 33.8777 43.4368 34.3502L32.2547 53.4286C32.1176 53.6636 32.0391 53.9369 32.0391 54.2285C32.0391 55.1066 32.7509 55.8184 33.6289 55.8184H55.993C56.8711 55.8184 57.5829 55.1066 57.5829 54.2285C57.5829 53.9369 57.5044 53.6636 57.3673 53.4286Z" stroke="#F47922" stroke-width="1.68" stroke-miterlimit="10" stroke-linecap="round" stroke-linejoin="round"/>
<path d="M44.8125 48.8682V40.9188V48.8682Z" fill="#0db14b"/>
<path d="M44.8125 48.8682V40.9188" stroke="#0db14b" stroke-width="1.68" stroke-miterlimit="10" stroke-linecap="round" stroke-linejoin="round"/>
<path d="M44.8594 52.0479C44.8594 52.0229 44.8394 52.0029 44.8145 52.0029C44.802 52.0029 44.7904 52.0075 44.7822 52.0156L44.7695 52.0479C44.7695 52.0727 44.7896 52.0928 44.8145 52.0928L44.8467 52.0801C44.8548 52.0719 44.8594 52.0603 44.8594 52.0479Z" fill="#0db14b" stroke="#0db14b" stroke-width="1.68"/>
</svg>
