<svg width="90" height="90" viewBox="0 0 90 90" fill="none" xmlns="http://www.w3.org/2000/svg">
<path d="M31.7547 69.4269H21.806C21.4125 69.4269 21.0938 69.1079 21.0938 68.7146V65.952C21.0938 65.5585 21.4127 65.2397 21.806 65.2397H31.7547C32.1481 65.2397 32.4669 65.5587 32.4669 65.952V68.7146C32.4669 69.1079 32.1481 69.4269 31.7547 69.4269Z" stroke="black" stroke-width="1.6" stroke-miterlimit="10" stroke-linecap="round" stroke-linejoin="round"/>
<path d="M32.4669 79.9451H21.0938V74.3857C21.0938 73.916 21.4746 73.5352 21.9442 73.5352H31.6166C32.0863 73.5352 32.4671 73.916 32.4671 74.3857L32.4669 79.9451Z" stroke="black" stroke-width="1.6" stroke-miterlimit="10" stroke-linecap="round" stroke-linejoin="round"/>
<path d="M48.849 69.4269H58.7976C59.1911 69.4269 59.5099 69.1079 59.5099 68.7146V65.952C59.5099 65.5585 59.191 65.2397 58.7976 65.2397H48.849C48.4555 65.2397 48.1367 65.5587 48.1367 65.952V68.7146C48.1366 69.1079 48.4555 69.4269 48.849 69.4269Z" stroke="black" stroke-width="1.6" stroke-miterlimit="10" stroke-linecap="round" stroke-linejoin="round"/>
<path d="M48.1369 79.9451H59.51V74.3857C59.51 73.916 59.1292 73.5352 58.6595 73.5352H48.9872C48.5175 73.5352 48.1367 73.916 48.1367 74.3857V79.9451H48.1369Z" stroke="black" stroke-width="1.6" stroke-miterlimit="10" stroke-linecap="round" stroke-linejoin="round"/>
<path d="M51.1818 43.302V45.1298C51.1818 51.1851 46.273 56.0938 40.2179 56.0938C34.1626 56.0938 29.2539 51.185 29.2539 45.1298V43.1616" stroke="black" stroke-width="1.6" stroke-miterlimit="10" stroke-linecap="round" stroke-linejoin="round"/>
<path d="M26.7812 37.6431V36.7132C26.7812 31.4434 29.796 26.8778 34.195 24.647" stroke="black" stroke-width="1.6" stroke-miterlimit="10" stroke-linecap="round" stroke-linejoin="round"/>
<path d="M43.1914 23.5015C45.4695 23.9976 47.5331 25.068 49.2231 26.5534" stroke="black" stroke-width="1.6" stroke-miterlimit="10" stroke-linecap="round" stroke-linejoin="round"/>
<path d="M55.0135 40.8413C54.2566 42.0311 52.9263 42.8205 51.4116 42.8205H46.4688" stroke="black" stroke-width="1.6" stroke-miterlimit="10" stroke-linecap="round" stroke-linejoin="round"/>
<path d="M48.8407 42.8205H29.1958C26.8398 42.8205 24.9297 40.9106 24.9297 38.5544C24.9297 38.2056 25.2123 37.9229 25.5612 37.9229H52.7408" stroke="black" stroke-width="1.6" stroke-miterlimit="10" stroke-linecap="round" stroke-linejoin="round"/>
<path d="M41.4241 33.2178H39.1753C38.6428 33.2178 38.2021 32.8035 38.169 32.272L37.5488 22.2872C37.5128 21.7068 37.9738 21.2163 38.5552 21.2163H42.0442C42.6257 21.2163 43.0867 21.7068 43.0505 22.2872L42.4304 32.272C42.3973 32.8037 41.9566 33.2178 41.4241 33.2178Z" stroke="black" stroke-width="1.6" stroke-miterlimit="10" stroke-linecap="round" stroke-linejoin="round"/>
<path d="M18.8382 59.2377C14.9755 63.6575 12.6602 69.4386 12.6602 75.6987C12.6602 78.0442 14.5615 79.9456 16.907 79.9456H40.301V64.6624C32.6219 61.19 31.3162 51.5628 31.311 51.5244C28.0805 52.3606 25.1207 53.8231 22.5565 55.7679" stroke="#F47920" stroke-width="1.6" stroke-miterlimit="10" stroke-linecap="round" stroke-linejoin="round"/>
<path d="M67.9418 75.6988C67.9418 64.2093 60.1425 54.3334 49.2908 51.5244C49.2856 51.5632 47.9798 61.1901 40.3008 64.6624V79.9457H41.43H41.8385H63.6949C66.0404 79.9457 67.9418 78.0443 67.9418 75.6988Z" stroke="#F47920" stroke-width="1.6" stroke-miterlimit="10" stroke-linecap="round" stroke-linejoin="round"/>
<path d="M77.2842 27.9076C77.3206 27.4124 77.339 26.9146 77.339 26.4154V17.536C77.339 16.4954 76.7203 15.5544 75.7649 15.1419L64.4766 10.2683C63.8169 9.9835 63.069 9.9835 62.4093 10.2683L51.121 15.1419C50.1656 15.5544 49.5469 16.4954 49.5469 17.536V26.4152C49.5469 31.6184 51.5419 36.654 55.215 40.3391C56.7656 41.8948 58.6878 43.2945 61.0441 44.2097C62.5876 44.8091 64.2982 44.8091 65.8417 44.2097C68.198 43.2945 70.1202 41.8948 71.6707 40.3391C73.8905 38.112 75.4974 35.3918 76.4216 32.4393" stroke="black" stroke-width="1.6" stroke-miterlimit="10" stroke-linecap="round" stroke-linejoin="round"/>
<path d="M67.2864 21.4371C66.065 21.3438 64.9426 21.7675 64.1143 22.5123C63.7323 22.8556 63.152 22.8556 62.7702 22.5123C61.9419 21.7675 60.8194 21.3438 59.5981 21.4371C57.5173 21.596 55.8371 23.2901 55.6939 25.372C55.5958 26.7992 56.2031 28.0889 57.202 28.9275C57.7905 29.4215 61.4068 32.0507 62.8492 33.0966C63.2035 33.3535 63.6812 33.3535 64.0354 33.0966C65.4778 32.0506 69.0941 29.4215 69.6826 28.9275C70.6815 28.0889 71.2887 26.7992 71.1907 25.372C71.0474 23.2901 69.3672 21.596 67.2864 21.4371Z" stroke="#0DB14B" stroke-width="1.6" stroke-miterlimit="10" stroke-linecap="round" stroke-linejoin="round"/>
<path d="M63.4414 10.0547V17.0956" stroke="black" stroke-width="1.6" stroke-miterlimit="10" stroke-linecap="round" stroke-linejoin="round"/>
<path d="M63.4414 38.3633V44.6595" stroke="black" stroke-width="1.6" stroke-miterlimit="10" stroke-linecap="round" stroke-linejoin="round"/>
</svg>
