<svg width="90" height="90" viewBox="0 0 90 90" fill="none" xmlns="http://www.w3.org/2000/svg">
<path d="M30.4766 14.3529L43.6821 9.24145C44.6518 8.86613 45.7344 8.86613 46.7041 9.24145L74.3241 19.9323C75.8638 20.5282 76.8731 21.9684 76.8731 23.5698V44.5735C76.8731 47.3158 76.4976 50.0104 75.7799 52.597" stroke="white" stroke-width="2" stroke-miterlimit="10" stroke-linecap="round" stroke-linejoin="round"/>
<path d="M60.3829 71.8029L49.2033 79.0604C46.7823 80.6321 43.6164 80.6321 41.1954 79.0604L27.7204 70.3126C18.8434 64.5498 13.5195 54.9005 13.5195 44.5739V23.5702C13.5195 21.9689 14.5288 20.5287 16.0685 19.9327L23.8622 16.916" stroke="#F47920" stroke-width="2" stroke-miterlimit="10" stroke-linecap="round" stroke-linejoin="round"/>
<path d="M55.8335 66.8397L45.4527 73.5788C45.3762 73.6284 45.2908 73.6535 45.1985 73.6535C45.1063 73.6535 45.0208 73.6282 44.9443 73.5786L31.4693 64.831C24.4368 60.2654 20.2383 52.6555 20.2383 44.4745V25.2073L45.1985 15.5459L70.1589 25.2073V44.4745C70.1589 47.9109 69.4182 51.2465 68.0378 54.298" stroke="white" stroke-width="2" stroke-miterlimit="10" stroke-linecap="round" stroke-linejoin="round"/>
<path d="M65.5718 73.2453C70.9488 73.2453 75.3077 69.0377 75.3077 63.8473C75.3077 58.6569 70.9488 54.4492 65.5718 54.4492C60.1948 54.4492 55.8359 58.6569 55.8359 63.8473C55.8359 69.0377 60.1948 73.2453 65.5718 73.2453Z" stroke="#F47920" stroke-width="2" stroke-miterlimit="10" stroke-linecap="round" stroke-linejoin="round"/>
<path d="M62.5469 64.1279L64.5757 66.0863" stroke="#0DB14B" stroke-width="2" stroke-miterlimit="10" stroke-linecap="round" stroke-linejoin="round"/>
<path d="M69.2359 61.6035L64.5859 66.0921" stroke="#0DB14B" stroke-width="2" stroke-miterlimit="10" stroke-linecap="round" stroke-linejoin="round"/>
<path d="M32.0586 34.3828V30.9951C32.0586 30.1953 32.7303 29.5469 33.5589 29.5469H45.201" stroke="white" stroke-width="2" stroke-miterlimit="10" stroke-linecap="round" stroke-linejoin="round"/>
<path d="M58.3416 34.3828V30.9951C58.3416 30.1953 57.6699 29.5469 56.8413 29.5469H45.1992" stroke="white" stroke-width="2" stroke-miterlimit="10" stroke-linecap="round" stroke-linejoin="round"/>
<path d="M44.4535 50.9327L38.831 56.1684C38.1346 56.817 38.6102 57.954 39.5777 57.954H50.8227C51.7903 57.954 52.2659 56.817 51.5694 56.1684L45.9469 50.9327C45.5303 50.5446 44.8701 50.5446 44.4535 50.9327Z" stroke="white" stroke-width="2" stroke-miterlimit="10" stroke-linecap="round" stroke-linejoin="round"/>
<path d="M45.1992 25.9102V50.3033" stroke="white" stroke-width="2" stroke-miterlimit="10" stroke-linecap="round" stroke-linejoin="round"/>
<path d="M37.3342 41.0574L32.0604 34.0928L26.7866 41.0574C26.562 41.2741 26.4145 41.5489 26.3555 41.8428H37.7655C37.7064 41.5489 37.5588 41.2743 37.3342 41.0574Z" stroke="white" stroke-width="2" stroke-miterlimit="10" stroke-linecap="round" stroke-linejoin="round"/>
<path d="M26.3536 41.8447C26.3209 42.0078 26.3145 42.1766 26.3395 42.3451C26.7411 45.047 29.1485 47.1234 32.0585 47.1234C34.9685 47.1234 37.376 45.0468 37.7776 42.3451C37.8027 42.1766 37.7963 42.0079 37.7636 41.8447H26.3536Z" stroke="white" stroke-width="2" stroke-miterlimit="10" stroke-linecap="round" stroke-linejoin="round"/>
<path d="M53.0641 41.0574L58.3379 34.0928L63.6117 41.0574C63.8363 41.2741 63.9839 41.5489 64.0428 41.8428H52.6328C52.6919 41.5489 52.8395 41.2743 53.0641 41.0574Z" stroke="white" stroke-width="2" stroke-miterlimit="10" stroke-linecap="round" stroke-linejoin="round"/>
<path d="M64.0487 41.8447C64.0814 42.0078 64.0878 42.1766 64.0628 42.3451C63.6612 45.047 61.2538 47.1234 58.3438 47.1234C55.4338 47.1234 53.0263 45.0468 52.6247 42.3451C52.5996 42.1766 52.606 42.0079 52.6387 41.8447H64.0487Z" stroke="white" stroke-width="2" stroke-miterlimit="10" stroke-linecap="round" stroke-linejoin="round"/>
</svg>
