<svg width="101" height="100" viewBox="0 0 101 100" fill="none" xmlns="http://www.w3.org/2000/svg">
<path d="M50.5 28.4531V19.9016" stroke="black" stroke-width="1.6" stroke-miterlimit="10" stroke-linecap="round" stroke-linejoin="round"/>
<mask id="mask0_6701_17176" style="mask-type:luminance" maskUnits="userSpaceOnUse" x="10" y="10" width="81" height="80">
<path d="M10.5 10H90.5V90H10.5V10Z" fill="white"/>
</mask>
<g mask="url(#mask0_6701_17176)">
<path d="M78.4672 63.9619L79.1234 63.8197C80.7312 63.4697 82.3187 64.4916 82.6672 66.101C82.7125 66.3135 82.7359 66.526 82.7359 66.7338C82.7359 68.1072 81.7812 69.3416 80.3859 69.6447L76.0391 70.5869" stroke="black" stroke-width="1.6" stroke-miterlimit="10" stroke-linecap="round" stroke-linejoin="round"/>
<path d="M22.5461 63.9619L21.8898 63.8197C20.282 63.4697 18.6945 64.4916 18.3461 66.101C18.3008 66.3135 18.2773 66.526 18.2773 66.7338C18.2773 68.1072 19.232 69.3416 20.6273 69.6447L24.9742 70.5869" stroke="black" stroke-width="1.6" stroke-miterlimit="10" stroke-linecap="round" stroke-linejoin="round"/>
<path d="M41.8477 84.6468C44.5805 85.5093 47.4898 85.9734 50.507 85.9734C53.5241 85.9734 56.4336 85.5093 59.1664 84.6468" stroke="black" stroke-width="1.6" stroke-miterlimit="10" stroke-linecap="round" stroke-linejoin="round"/>
<path d="M25.0166 70.542C22.9275 66.5576 21.7461 62.0232 21.7461 57.2123C21.7461 41.3295 34.6227 28.4529 50.5072 28.4529C66.3916 28.4529 79.2681 41.3295 79.2681 57.2123C79.2681 62.0232 78.0867 66.5576 75.9976 70.542" stroke="black" stroke-width="1.6" stroke-miterlimit="10" stroke-linecap="round" stroke-linejoin="round"/>
<path d="M44.4648 29.095C45.0386 31.405 45.6239 34.1179 46.1511 37.319C47.013 42.554 47.3742 46.9929 49.8687 47.7962C52.2983 48.5787 54.2728 45.1145 57.6423 45.7684C60.4694 46.3171 60.8655 49.1026 63.3878 51.1761C65.7011 53.0776 69.3925 54.0429 73.2736 53.7212" stroke="black" stroke-width="1.6" stroke-miterlimit="10" stroke-linecap="round" stroke-linejoin="round"/>
<path d="M27.2891 40.2354C30.3062 42.0432 32.7797 44.7526 33.6812 47.6636C34.7781 51.1995 33.0141 53.287 34.3281 60.1464C34.6622 61.8917 35.0152 63.0036 35.3153 63.8389" stroke="black" stroke-width="1.6" stroke-miterlimit="10" stroke-linecap="round" stroke-linejoin="round"/>
<path d="M43.6875 82.5361C46.3156 80.8002 49.0984 78.3268 50.8002 74.4502C53.075 69.2705 51.7984 65.2721 54.4109 64.0205C57.7234 62.433 63.0766 67.2783 65.383 69.3814" stroke="black" stroke-width="1.6" stroke-miterlimit="10" stroke-linecap="round" stroke-linejoin="round"/>
<path d="M69.5001 67.9193C70.568 66.8515 72.2993 66.8515 73.3671 67.9193L78.0074 72.5596C79.0754 73.6275 79.0754 75.3589 78.0074 76.4267C76.9396 77.4945 75.2084 77.4945 74.1405 76.4267L69.5001 71.7864C68.4323 70.7186 68.4323 68.9871 69.5001 67.9193Z" stroke="#F47920" stroke-width="1.6" stroke-miterlimit="10" stroke-linecap="round" stroke-linejoin="round"/>
<path d="M63.9846 70.1281C65.0524 69.0603 66.7836 69.0603 67.8514 70.1281L75.8064 78.0831C76.8743 79.1509 76.8743 80.8822 75.8064 81.95C74.7386 83.018 73.0072 83.018 71.9394 81.95L63.9846 73.9952C62.9166 72.9273 62.9166 71.1959 63.9846 70.1281Z" stroke="#F47920" stroke-width="1.6" stroke-miterlimit="10" stroke-linecap="round" stroke-linejoin="round"/>
<path d="M60.1173 73.9955C61.1851 72.9277 62.9163 72.9277 63.9843 73.9955L71.9391 81.9505C73.007 83.0183 73.007 84.7496 71.9391 85.8175C70.8713 86.8854 69.1401 86.8854 68.0721 85.8175L60.1173 77.8625C59.0495 76.7947 59.0495 75.0633 60.1173 73.9955Z" stroke="#F47920" stroke-width="1.6" stroke-miterlimit="10" stroke-linecap="round" stroke-linejoin="round"/>
<path d="M57.9024 79.5199C58.9704 78.4521 60.7016 78.4521 61.7695 79.5199L66.4098 84.1602C67.4777 85.2282 67.4777 86.9595 66.4098 88.0273C65.342 89.0951 63.6107 89.0951 62.5429 88.0273L57.9024 83.387C56.8346 82.3191 56.8346 80.5877 57.9024 79.5199Z" stroke="#F47920" stroke-width="1.6" stroke-miterlimit="10" stroke-linecap="round" stroke-linejoin="round"/>
<path d="M31.5036 67.9193C30.4357 66.8515 28.7044 66.8515 27.6366 67.9193L22.9963 72.5596C21.9283 73.6275 21.9283 75.3589 22.9963 76.4267C24.0641 77.4945 25.7954 77.4945 26.8632 76.4267L31.5036 71.7864C32.5714 70.7186 32.5714 68.9871 31.5036 67.9193Z" stroke="#F47920" stroke-width="1.6" stroke-miterlimit="10" stroke-linecap="round" stroke-linejoin="round"/>
<path d="M37.029 70.1281C35.9612 69.0603 34.2299 69.0603 33.1621 70.1281L25.2071 78.0831C24.1393 79.1509 24.1393 80.8822 25.2071 81.95C26.2749 83.018 28.0063 83.018 29.0741 81.95L37.029 73.9952C38.097 72.9273 38.097 71.1959 37.029 70.1281Z" stroke="#F47920" stroke-width="1.6" stroke-miterlimit="10" stroke-linecap="round" stroke-linejoin="round"/>
<path d="M40.9001 73.9953C39.8323 72.9275 38.101 72.9275 37.033 73.9953L29.0782 81.9503C28.0104 83.0181 28.0104 84.7493 29.0782 85.8173C30.146 86.8851 31.8773 86.8851 32.9452 85.8173L40.9001 77.8623C41.9679 76.7945 41.9679 75.0631 40.9001 73.9953Z" stroke="#F47920" stroke-width="1.6" stroke-miterlimit="10" stroke-linecap="round" stroke-linejoin="round"/>
<path d="M43.1013 79.5199C42.0333 78.4521 40.3021 78.4521 39.2343 79.5199L34.5939 84.1602C33.526 85.2282 33.526 86.9595 34.5939 88.0273C35.6618 89.0951 37.393 89.0951 38.4608 88.0273L43.1013 83.387C44.1691 82.3191 44.1691 80.5877 43.1013 79.5199Z" stroke="#F47920" stroke-width="1.6" stroke-miterlimit="10" stroke-linecap="round" stroke-linejoin="round"/>
<path d="M47.6866 24.1748H50.5053V21.3561C50.5053 17.6157 47.4733 14.5837 43.7328 14.5837H41.5391C41.1939 14.5837 40.9141 14.8636 40.9141 15.2087V17.4025C40.9141 21.1428 43.9463 24.1748 47.6866 24.1748Z" stroke="#0DB14B" stroke-width="1.6" stroke-miterlimit="10" stroke-linecap="round" stroke-linejoin="round"/>
<path d="M53.3227 20.7629H50.5039V17.9442C50.5039 14.2039 53.5359 11.1718 57.2764 11.1718H59.4702C59.8153 11.1718 60.0952 11.4517 60.0952 11.7968V13.9906C60.0952 17.7309 57.063 20.7629 53.3227 20.7629Z" stroke="#0DB14B" stroke-width="1.6" stroke-miterlimit="10" stroke-linecap="round" stroke-linejoin="round"/>
<path d="M50.5039 20.7629L54.5255 17.2022" stroke="#0DB14B" stroke-width="1.6" stroke-miterlimit="10" stroke-linecap="round" stroke-linejoin="round"/>
<path d="M50.5083 24.1746L46.4727 20.1389" stroke="#0DB14B" stroke-width="1.6" stroke-miterlimit="10" stroke-linecap="round" stroke-linejoin="round"/>
</g>
</svg>
