<svg width="60" height="60" viewBox="0 0 60 60" fill="none" xmlns="http://www.w3.org/2000/svg">
<mask id="mask0_11126_7634" style="mask-type:luminance" maskUnits="userSpaceOnUse" x="0" y="0" width="60" height="60">
<path d="M0 3.8147e-06H60V60H0V3.8147e-06Z" fill="white"/>
</mask>
<g mask="url(#mask0_11126_7634)">
<path d="M40.07 22.0303L30.9648 29.4913L37.4357 36.5469" stroke="#8F53A1" stroke-width="1.3" stroke-miterlimit="10" stroke-linecap="round" stroke-linejoin="round"/>
<path d="M46.4082 22.0303L55.5102 29.4913L49.0392 36.5469" stroke="#8F53A1" stroke-width="1.3" stroke-miterlimit="10" stroke-linecap="round" stroke-linejoin="round"/>
<path d="M6.74531 58.3184H53.2547C56.4803 58.3184 59.1211 55.6774 59.1211 52.452C59.1211 49.2231 56.4803 46.5854 53.2547 46.5854H6.74531C3.51645 46.5854 0.878906 49.2231 0.878906 52.452C0.878906 55.6774 3.51645 58.3184 6.74531 58.3184Z" stroke="#8F53A1" stroke-width="1.3" stroke-miterlimit="10" stroke-linecap="round" stroke-linejoin="round"/>
<path d="M6.74586 54.9062C8.09785 54.9062 9.20082 53.8034 9.20082 52.4514C9.20082 51.0994 8.09785 49.9966 6.74586 49.9966C5.39387 49.9966 4.29102 51.0994 4.29102 52.4514C4.29102 53.8034 5.39387 54.9062 6.74586 54.9062Z" stroke="#8F53A1" stroke-width="1.3" stroke-miterlimit="10" stroke-linecap="round" stroke-linejoin="round"/>
<path d="M53.2555 54.9062C54.6042 54.9062 55.7071 53.8034 55.7071 52.4514C55.7071 51.0994 54.6042 49.9966 53.2555 49.9966C51.9035 49.9966 50.8008 51.0994 50.8008 52.4514C50.8008 53.8034 51.9035 54.9062 53.2555 54.9062Z" stroke="#8F53A1" stroke-width="1.3" stroke-miterlimit="10" stroke-linecap="round" stroke-linejoin="round"/>
<path d="M19.438 52.4512H21.0291M25.693 52.4512H27.2875M31.9515 52.4512H33.5427M38.2065 52.4512H39.8009M44.465 52.4512H46.0562M13.1797 52.4512H14.7741" stroke="#8F53A1" stroke-width="1.3" stroke-miterlimit="10" stroke-linecap="round" stroke-linejoin="round"/>
<path d="M6.74609 41.3574V46.5859H15.9509V32.1459M6.74609 32.1459V37.3745" stroke="#8F53A1" stroke-width="1.3" stroke-miterlimit="10" stroke-linecap="round" stroke-linejoin="round"/>
<path d="M11.3486 33.8027C15.3249 33.8027 18.567 30.5606 18.567 26.5843C18.567 22.608 15.3249 19.3627 11.3486 19.3627C7.37234 19.3627 4.12695 22.608 4.12695 26.5843C4.12695 30.5606 7.37234 33.8027 11.3486 33.8027Z" stroke="#8F53A1" stroke-width="1.3" stroke-miterlimit="10" stroke-linecap="round" stroke-linejoin="round"/>
<path d="M30.8729 12.4434C33.836 12.4434 36.2544 10.0251 36.2544 7.06187C36.2544 4.09551 33.836 1.68051 30.8729 1.68051C27.9066 1.68051 25.4883 4.09551 25.4883 7.06187C25.4883 10.0251 27.9066 12.4434 30.8729 12.4434Z" stroke="#8F53A1" stroke-width="1.3" stroke-miterlimit="10" stroke-linecap="round" stroke-linejoin="round"/>
<path d="M43.2397 23.5293C45.4986 23.5293 47.3389 21.689 47.3389 19.4301C47.3389 17.1713 45.4986 15.331 43.2397 15.331C40.9808 15.331 39.1406 17.1713 39.1406 19.4301C39.1406 21.689 40.9808 23.5293 43.2397 23.5293Z" stroke="#8F53A1" stroke-width="1.3" stroke-miterlimit="10" stroke-linecap="round" stroke-linejoin="round"/>
<path d="M43.2397 23.5293C45.4986 23.5293 47.3389 21.689 47.3389 19.4301C47.3389 17.1713 45.4986 15.331 43.2397 15.331C40.9808 15.331 39.1406 17.1713 39.1406 19.4301C39.1406 21.689 40.9808 23.5293 43.2397 23.5293Z" stroke="#8F53A1" stroke-width="1.3" stroke-miterlimit="10" stroke-linecap="round" stroke-linejoin="round"/>
<path d="M23.0364 19.971L18.316 24.6914M30.5737 12.4337L25.8534 17.154M13.2402 19.6155L25.4979 7.35785" stroke="#8F53A1" stroke-width="1.3" stroke-miterlimit="10" stroke-linecap="round" stroke-linejoin="round"/>
<path d="M32.3691 12.2316L39.159 19.0215M42.8296 15.3509L36.0398 8.56098" stroke="#8F53A1" stroke-width="1.3" stroke-miterlimit="10" stroke-linecap="round" stroke-linejoin="round"/>
<path d="M45.2287 30.7443H49.039V42.3477H37.4355V30.7443H41.2491" stroke="#F47920" stroke-width="1.3" stroke-miterlimit="10" stroke-linecap="round" stroke-linejoin="round"/>
</g>
</svg>
