<svg width="60" height="60" viewBox="0 0 60 60" fill="none" xmlns="http://www.w3.org/2000/svg">
<g clip-path="url(#clip0_11126_7699)">
<path d="M30 13.8398V7.42617" stroke="#8F53A1" stroke-width="1.3" stroke-miterlimit="10" stroke-linecap="round" stroke-linejoin="round"/>
<mask id="mask0_11126_7699" style="mask-type:luminance" maskUnits="userSpaceOnUse" x="0" y="0" width="60" height="61">
<path d="M0 0.500004H60V60.5H0V0.500004Z" fill="white"/>
</mask>
<g mask="url(#mask0_11126_7699)">
<path d="M50.9734 40.4727L51.4656 40.366C52.6715 40.1035 53.8621 40.8699 54.1234 42.077C54.1574 42.2363 54.175 42.3957 54.175 42.5516C54.175 43.5816 53.459 44.5074 52.4125 44.7348L49.1523 45.4414" stroke="#8F53A1" stroke-width="1.3" stroke-miterlimit="10" stroke-linecap="round" stroke-linejoin="round"/>
<path d="M9.02773 40.4727L8.53555 40.366C7.32969 40.1035 6.13906 40.8699 5.87773 42.077C5.84375 42.2363 5.82617 42.3957 5.82617 42.5516C5.82617 43.5816 6.54219 44.5074 7.58867 44.7348L10.8488 45.4414" stroke="#8F53A1" stroke-width="1.3" stroke-miterlimit="10" stroke-linecap="round" stroke-linejoin="round"/>
<path d="M23.5059 55.9855C25.5555 56.6324 27.7375 56.9805 30.0004 56.9805C32.2632 56.9805 34.4453 56.6324 36.4949 55.9855" stroke="#8F53A1" stroke-width="1.3" stroke-miterlimit="10" stroke-linecap="round" stroke-linejoin="round"/>
<path d="M10.8825 45.4062C9.31574 42.418 8.42969 39.0172 8.42969 35.409C8.42969 23.4969 18.0871 13.8395 30.0005 13.8395C41.9138 13.8395 51.5712 23.4969 51.5712 35.409C51.5712 39.0172 50.6852 42.418 49.1184 45.4062" stroke="#8F53A1" stroke-width="1.3" stroke-miterlimit="10" stroke-linecap="round" stroke-linejoin="round"/>
<path d="M25.4648 14.3205C25.8952 16.053 26.3341 18.0877 26.7295 20.4885C27.3759 24.4148 27.6469 27.744 29.5178 28.3464C31.3399 28.9333 32.8208 26.3351 35.348 26.8256C37.4682 27.2371 37.7653 29.3262 39.6571 30.8813C41.392 32.3075 44.1606 33.0315 47.0714 32.7902" stroke="#8F53A1" stroke-width="1.3" stroke-miterlimit="10" stroke-linecap="round" stroke-linejoin="round"/>
<path d="M12.5918 22.6763C14.8547 24.0322 16.7098 26.0642 17.3859 28.2474C18.2086 30.8994 16.8855 32.465 17.8711 37.6095C18.1216 38.9185 18.3864 39.7524 18.6115 40.3789" stroke="#8F53A1" stroke-width="1.3" stroke-miterlimit="10" stroke-linecap="round" stroke-linejoin="round"/>
<path d="M24.8848 54.4023C26.8559 53.1004 28.943 51.2453 30.2193 48.3379C31.9254 44.4531 30.968 41.4543 32.9273 40.5156C35.4117 39.325 39.4266 42.959 41.1564 44.5363" stroke="#8F53A1" stroke-width="1.3" stroke-miterlimit="10" stroke-linecap="round" stroke-linejoin="round"/>
<path d="M44.251 43.4388C45.052 42.6379 46.3504 42.6379 47.1513 43.4388L50.6315 46.919C51.4325 47.7199 51.4325 49.0184 50.6315 49.8193C49.8307 50.6201 48.5322 50.6201 47.7314 49.8193L44.251 46.339C43.4502 45.5382 43.4502 44.2396 44.251 43.4388Z" stroke="#8F53A1" stroke-width="1.3" stroke-miterlimit="10" stroke-linecap="round" stroke-linejoin="round"/>
<path d="M40.1085 45.0973C40.9094 44.2965 42.2078 44.2965 43.0087 45.0973L48.975 51.0636C49.7758 51.8644 49.7758 53.1629 48.975 53.9637C48.1741 54.7647 46.8755 54.7647 46.0747 53.9637L40.1085 47.9976C39.3076 47.1967 39.3076 45.8982 40.1085 45.0973Z" stroke="#8F53A1" stroke-width="1.3" stroke-miterlimit="10" stroke-linecap="round" stroke-linejoin="round"/>
<path d="M37.2081 47.9977C38.0089 47.1968 39.3074 47.1968 40.1083 47.9977L46.0745 53.9639C46.8753 54.7648 46.8753 56.0632 46.0745 56.8642C45.2736 57.6651 43.9752 57.6651 43.1742 56.8642L37.2081 50.8979C36.4072 50.0971 36.4072 48.7985 37.2081 47.9977Z" stroke="#8F53A1" stroke-width="1.3" stroke-miterlimit="10" stroke-linecap="round" stroke-linejoin="round"/>
<path d="M35.5499 52.1399C36.3508 51.3391 37.6493 51.3391 38.4501 52.1399L41.9304 55.6202C42.7313 56.4212 42.7313 57.7196 41.9304 58.5204C41.1295 59.3213 39.8311 59.3213 39.0302 58.5204L35.5499 55.0402C34.749 54.2394 34.749 52.9408 35.5499 52.1399Z" stroke="#8F53A1" stroke-width="1.3" stroke-miterlimit="10" stroke-linecap="round" stroke-linejoin="round"/>
<path d="M15.7508 43.4388C14.9498 42.6379 13.6514 42.6379 12.8505 43.4388L9.37026 46.919C8.56929 47.7199 8.56929 49.0184 9.37026 49.8193C10.1711 50.6201 11.4696 50.6201 12.2704 49.8193L15.7508 46.339C16.5516 45.5382 16.5516 44.2396 15.7508 43.4388Z" stroke="#8F53A1" stroke-width="1.3" stroke-miterlimit="10" stroke-linecap="round" stroke-linejoin="round"/>
<path d="M19.8928 45.0973C19.092 44.2965 17.7935 44.2965 16.9927 45.0973L11.0264 51.0636C10.2256 51.8644 10.2256 53.1629 11.0264 53.9637C11.8273 54.7647 13.1258 54.7647 13.9267 53.9637L19.8928 47.9976C20.6938 47.1967 20.6938 45.8982 19.8928 45.0973Z" stroke="#8F53A1" stroke-width="1.3" stroke-miterlimit="10" stroke-linecap="round" stroke-linejoin="round"/>
<path d="M22.7932 47.9977C21.9924 47.1968 20.6939 47.1968 19.8929 47.9977L13.9268 53.9639C13.126 54.7648 13.126 56.0632 13.9268 56.8642C14.7277 57.6651 16.0261 57.6651 16.8271 56.8642L22.7932 50.8979C23.5941 50.0971 23.5941 48.7985 22.7932 47.9977Z" stroke="#8F53A1" stroke-width="1.3" stroke-miterlimit="10" stroke-linecap="round" stroke-linejoin="round"/>
<path d="M24.4519 52.1399C23.651 51.3391 22.3525 51.3391 21.5517 52.1399L18.0714 55.6202C17.2705 56.4212 17.2705 57.7196 18.0714 58.5204C18.8723 59.3213 20.1707 59.3213 20.9716 58.5204L24.4519 55.0402C25.2528 54.2394 25.2528 52.9408 24.4519 52.1399Z" stroke="#8F53A1" stroke-width="1.3" stroke-miterlimit="10" stroke-linecap="round" stroke-linejoin="round"/>
<path d="M27.886 10.6309H30.0001V8.5168C30.0001 5.71156 27.7261 3.43754 24.9207 3.43754H23.2754C23.0165 3.43754 22.8066 3.64742 22.8066 3.90629V5.5516C22.8066 8.35684 25.0808 10.6309 27.886 10.6309Z" stroke="#F47920" stroke-width="1.3" stroke-miterlimit="10" stroke-linecap="round" stroke-linejoin="round"/>
<path d="M32.1141 8.07227H30V5.9582C30 3.15297 32.274 0.878946 35.0794 0.878946H36.7247C36.9836 0.878946 37.1934 1.08883 37.1934 1.3477V2.99301C37.1934 5.79824 34.9193 8.07227 32.1141 8.07227Z" stroke="#F47920" stroke-width="1.3" stroke-miterlimit="10" stroke-linecap="round" stroke-linejoin="round"/>
<path d="M30 8.07227L33.0162 5.40168" stroke="#F47920" stroke-width="1.3" stroke-miterlimit="10" stroke-linecap="round" stroke-linejoin="round"/>
<path d="M30.0013 10.6309L26.9746 7.60414" stroke="#F47920" stroke-width="1.3" stroke-miterlimit="10" stroke-linecap="round" stroke-linejoin="round"/>
</g>
</g>
<defs>
<clipPath id="clip0_11126_7699">
<rect width="60" height="60" fill="white"/>
</clipPath>
</defs>
</svg>
