<svg width="60" height="60" viewBox="0 0 60 60" fill="none" xmlns="http://www.w3.org/2000/svg">
<mask id="mask0_11126_7473" style="mask-type:luminance" maskUnits="userSpaceOnUse" x="0" y="0" width="60" height="60">
<path d="M0 3.8147e-06H60V60H0V3.8147e-06Z" fill="white"/>
</mask>
<g mask="url(#mask0_11126_7473)">
<path d="M38.0275 45.4763C38.0275 45.4763 36.9868 46.3457 35.758 46.3457H26.6387" stroke="#8F53A1" stroke-width="1.3" stroke-miterlimit="10" stroke-linecap="round" stroke-linejoin="round"/>
<path d="M11.5186 4.60504C5.4907 6.73703 1.17188 12.4854 1.17188 19.2435C1.17188 27.8172 8.12227 34.7676 16.6959 34.7676C25.2696 34.7676 32.2199 27.8172 32.2199 19.2435C32.2199 12.4115 27.8064 6.61012 21.675 4.5352" stroke="#8F53A1" stroke-width="1.3" stroke-miterlimit="10" stroke-linecap="round" stroke-linejoin="round"/>
<path d="M53.8102 19.2443C53.8102 25.0993 49.0637 29.8457 43.2088 29.8457C37.3537 29.8457 32.6074 25.0993 32.6074 19.2443C32.6074 13.3894 37.3537 8.64309 43.2088 8.64309C49.0637 8.64309 53.8102 13.3894 53.8102 19.2443Z" stroke="#F47920" stroke-width="1.3" stroke-miterlimit="10" stroke-linecap="round" stroke-linejoin="round"/>
<path d="M22.4873 15.3784V25.6699H10.6309V15.3786L16.5591 10.6464L22.4873 15.3784Z" stroke="#8F53A1" stroke-width="1.3" stroke-miterlimit="10" stroke-linecap="round" stroke-linejoin="round"/>
<path d="M25.04 17.418L16.5588 10.6475L8.07617 17.418" stroke="#8F53A1" stroke-width="1.3" stroke-miterlimit="10" stroke-linecap="round" stroke-linejoin="round"/>
<path d="M58.8281 19.2438C58.8281 27.8172 51.8776 34.7676 43.3043 34.7676C37.6582 34.7676 32.7164 31.7535 30 27.2465C31.4086 24.9098 32.2195 22.1711 32.2195 19.2438C32.2195 16.3164 31.4086 13.5777 30 11.241C32.7164 6.73399 37.6582 3.71992 43.3043 3.71992C51.8776 3.71992 58.8281 10.6703 58.8281 19.2438Z" stroke="#8F53A1" stroke-width="1.3" stroke-miterlimit="10" stroke-linecap="round" stroke-linejoin="round"/>
<path d="M45.2627 15.3055C45.2627 15.3055 44.1754 14.0962 42.6014 14.7385C41.1684 15.3234 40.7993 17.042 41.7585 18.0901C42.2547 18.6323 43.207 18.9165 44.3796 19.3311C47.0042 20.2589 46.034 23.9603 43.3642 23.9781C42.3223 23.985 41.8352 23.9189 40.9199 23.3202" stroke="#F47920" stroke-width="1.3" stroke-miterlimit="10" stroke-linecap="round" stroke-linejoin="round"/>
<path d="M43.3652 12.9782V14.5566" stroke="#F47920" stroke-width="1.3" stroke-miterlimit="10" stroke-linecap="round" stroke-linejoin="round"/>
<path d="M43.3652 23.9782V25.5566" stroke="#F47920" stroke-width="1.3" stroke-miterlimit="10" stroke-linecap="round" stroke-linejoin="round"/>
<path d="M16.6953 25.5566V21.985" stroke="#8F53A1" stroke-width="1.3" stroke-miterlimit="10" stroke-linecap="round" stroke-linejoin="round"/>
<path d="M12.2617 14.0781V10.9946" stroke="#8F53A1" stroke-width="1.3" stroke-miterlimit="10" stroke-linecap="round" stroke-linejoin="round"/>
<path d="M1.17188 43.3909L12.3707 45.1223C14.3721 45.4768 15.8167 44.4535 16.8594 43.2853L19.2076 40.6542C20.4575 39.4142 22.1476 38.744 23.9065 38.7517H35.6246C37.7123 38.7594 39.3981 40.4772 39.3981 42.5618V42.576C39.3937 43.7438 38.8605 44.7849 38.0282 45.4766L39.3882 44.9893L50.5841 40.3758C53.2642 39.282 56.1952 41.2541 56.1952 44.1449V44.1611C56.1887 45.7966 55.2055 47.2693 53.6967 47.9008L37.3628 54.8011C35.0107 55.7853 32.4847 56.289 29.9348 56.2792H1.17188" stroke="#8F53A1" stroke-width="1.3" stroke-miterlimit="10" stroke-linecap="round" stroke-linejoin="round"/>
<path d="M38.0275 45.4763C38.0275 45.4763 36.9868 46.3457 35.758 46.3457H26.6387" stroke="#8F53A1" stroke-width="1.3" stroke-miterlimit="10" stroke-linecap="round" stroke-linejoin="round"/>
<path d="M16.6953 25.5566V21.985" stroke="#8F53A1" stroke-width="1.3" stroke-miterlimit="10" stroke-linecap="round" stroke-linejoin="round"/>
<path d="M12.2617 14.0781V10.9946" stroke="#8F53A1" stroke-width="1.3" stroke-miterlimit="10" stroke-linecap="round" stroke-linejoin="round"/>
</g>
</svg>
