<svg width="60" height="60" viewBox="0 0 60 60" fill="none" xmlns="http://www.w3.org/2000/svg">
<mask id="mask0_11126_7678" style="mask-type:luminance" maskUnits="userSpaceOnUse" x="0" y="0" width="60" height="60">
<path d="M0 0H60V60H0V0Z" fill="white"/>
</mask>
<g mask="url(#mask0_11126_7678)">
<path d="M29.9991 1.17187L54.375 8.80874V29.319C54.375 43.7269 44.1486 56.1073 30 58.8281C15.8514 56.1073 5.625 43.7269 5.625 29.319V8.80874L30.0009 1.17187" stroke="#8F53A1" stroke-width="1.3" stroke-miterlimit="10" stroke-linecap="round" stroke-linejoin="round"/>
<path d="M45.0795 40.302C46.8301 37.0029 47.8125 33.2557 47.8125 29.3196V13.6305L30 8.04988L12.1875 13.6305V29.3196C12.1875 40.1359 19.6057 49.5252 30 52.1113C33.0327 51.3568 35.812 50.0232 38.2277 48.2438" stroke="#8F53A1" stroke-width="1.3" stroke-miterlimit="10" stroke-linecap="round" stroke-linejoin="round"/>
<path d="M27.8708 37.6465L20.0234 29.7991L24.0009 25.8216L27.8708 29.6916L35.9979 21.5645L39.9753 25.5419L27.8708 37.6465Z" stroke="#F47920" stroke-width="1.3" stroke-miterlimit="10" stroke-linecap="round" stroke-linejoin="round"/>
</g>
</svg>
