<svg width="60" height="60" viewBox="0 0 60 60" fill="none" xmlns="http://www.w3.org/2000/svg">
<path d="M35.9771 32.8448C44.5616 32.8448 51.5206 25.8858 51.5206 17.3013C51.5206 8.71688 44.5616 1.75781 35.9771 1.75781C27.3927 1.75781 20.4336 8.71688 20.4336 17.3013C20.4336 25.8858 27.3927 32.8448 35.9771 32.8448Z" stroke="#8F53A1" stroke-width="1.3" stroke-miterlimit="10" stroke-linecap="round" stroke-linejoin="round"/>
<path d="M38.6236 10.9876C38.1778 10.6543 36.7445 9.77058 34.7292 10.3777C32.4787 11.0557 31.9198 14.1349 33.4491 15.3344C34.3272 16.0231 35.6485 16.5895 37.4293 17.2189C41.4148 18.6277 39.9416 24.2483 35.8873 24.2753C34.3052 24.2859 33.5656 24.1855 32.1758 23.2763" stroke="#F47920" stroke-width="1.3" stroke-miterlimit="10" stroke-linecap="round" stroke-linejoin="round"/>
<path d="M35.8867 25.1094V26.3282" stroke="#F47920" stroke-width="1.3" stroke-miterlimit="10" stroke-linecap="round" stroke-linejoin="round"/>
<path d="M35.8867 8.27344V9.59672" stroke="#F47920" stroke-width="1.3" stroke-miterlimit="10" stroke-linecap="round" stroke-linejoin="round"/>
<path d="M29.8035 49.4447H41.8594V46.1473C41.8594 43.7832 39.9462 41.8652 37.5821 41.8592L32.092 41.8425L31.1061 40.9131C27.1675 37.2003 21.347 36.4605 16.6495 38.9276C15.7075 39.4223 14.6625 39.6894 13.5984 39.6894H8.8125V54.2216H15.3848L27.0557 58.0757C27.3891 58.1857 27.7379 58.2418 28.089 58.2418H41.1872C42.0612 58.2418 42.8994 57.8946 43.5173 57.2767L57.0565 43.7375C58.6384 42.1556 58.6384 39.5907 57.0565 38.0087C55.4746 36.4268 52.9097 36.4268 51.3277 38.0087L42.0374 47.1414" stroke="#8F53A1" stroke-width="1.3" stroke-miterlimit="10" stroke-linecap="round" stroke-linejoin="round"/>
<path d="M8.8118 37.9941H1.75781V55.8413H8.8118V37.9941Z" stroke="#8F53A1" stroke-width="1.3" stroke-miterlimit="10" stroke-linecap="round" stroke-linejoin="round"/>
</svg>
