<svg width="60" height="60" viewBox="0 0 60 60" fill="none" xmlns="http://www.w3.org/2000/svg">
<path d="M7.58078 47.4297H4.45703C3.48625 47.4297 2.69922 48.2167 2.69922 49.1875V52.304C2.69922 52.6275 2.9616 52.8899 3.28516 52.8899H56.7154C57.0389 52.8899 57.3013 52.6275 57.3013 52.304V49.1875C57.3013 48.2167 56.5143 47.4297 55.5435 47.4297H11.7995" stroke="#8F53A1" stroke-width="1.3" stroke-miterlimit="10" stroke-linecap="round" stroke-linejoin="round"/>
<path d="M29.9997 31.0502C31.0049 31.0502 31.8198 30.2354 31.8198 29.2302C31.8198 28.225 31.0049 27.4102 29.9997 27.4102C28.9945 27.4102 28.1797 28.225 28.1797 29.2302C28.1797 30.2354 28.9945 31.0502 29.9997 31.0502Z" stroke="#F47920" stroke-width="1.3" stroke-miterlimit="10" stroke-linecap="round" stroke-linejoin="round"/>
<path d="M35.4611 29.2295V29.111C35.4611 28.9521 35.5255 28.8 35.6397 28.6896L36.7515 27.6145C37.0243 27.3507 37.0827 26.9351 36.8929 26.6064L35.7185 24.5725C35.5288 24.2437 35.1396 24.0865 34.7748 24.1908L33.2889 24.6158C33.1361 24.6595 32.972 24.6393 32.8343 24.5597L32.6274 24.4399C32.49 24.3605 32.3908 24.2288 32.3523 24.0749L31.9776 22.5757C31.8856 22.2075 31.5546 21.9492 31.1752 21.9492H28.8266C28.447 21.9492 28.1162 22.2075 28.0242 22.5757L27.6495 24.0749C27.611 24.2288 27.5118 24.3605 27.3744 24.4399L27.1675 24.5597C27.0299 24.6393 26.8658 24.6595 26.7129 24.6158L25.227 24.1908C24.862 24.0864 24.473 24.2437 24.2833 24.5725L23.1089 26.6064C22.9192 26.9351 22.9774 27.3507 23.2502 27.6145L24.3621 28.6896C24.4764 28.8 24.5408 28.9521 24.5407 29.111V29.2295V29.348C24.5407 29.5069 24.4763 29.659 24.3621 29.7694L23.2502 30.8445C22.9774 31.1082 22.9191 31.5239 23.1089 31.8526L24.2833 33.8865C24.473 34.2152 24.8622 34.3725 25.227 34.2682L26.7129 33.8432C26.8657 33.7995 27.0298 33.8197 27.1675 33.8993L27.3744 34.0191C27.5118 34.0985 27.611 34.2302 27.6495 34.3841L28.0242 35.8833C28.1162 36.2515 28.4472 36.5098 28.8266 36.5098H31.1752C31.5547 36.5098 31.8856 36.2515 31.9776 35.8833L32.3523 34.3841C32.3908 34.2302 32.49 34.0985 32.6274 34.0191L32.8343 33.8993C32.9719 33.8197 33.136 33.7995 33.2889 33.8432L34.7748 34.2682C35.1397 34.3726 35.5288 34.2152 35.7185 33.8865L36.8929 31.8526C37.0826 31.5239 37.0243 31.1082 36.7515 30.8445L35.6397 29.7694C35.5254 29.659 35.4609 29.5069 35.4611 29.348V29.2295Z" stroke="#F47920" stroke-width="1.3" stroke-miterlimit="10" stroke-linecap="round" stroke-linejoin="round"/>
<path d="M30 18.3101V14.6699" stroke="#8F53A1" stroke-width="1.3" stroke-miterlimit="10" stroke-linecap="round" stroke-linejoin="round"/>
<path d="M28.1797 16.4901L29.9997 14.6699L31.8198 16.4901" stroke="#8F53A1" stroke-width="1.3" stroke-miterlimit="10" stroke-linecap="round" stroke-linejoin="round"/>
<path d="M40.9199 29.2305H51.8404" stroke="#8F53A1" stroke-width="1.3" stroke-miterlimit="10" stroke-linecap="round" stroke-linejoin="round"/>
<path d="M50.0215 27.4102L51.8415 29.2302L50.0215 31.0504" stroke="#8F53A1" stroke-width="1.3" stroke-miterlimit="10" stroke-linecap="round" stroke-linejoin="round"/>
<path d="M19.0805 29.2305H8.16016" stroke="#8F53A1" stroke-width="1.3" stroke-miterlimit="10" stroke-linecap="round" stroke-linejoin="round"/>
<path d="M9.98019 27.4102L8.16016 29.2302L9.98019 31.0504" stroke="#8F53A1" stroke-width="1.3" stroke-miterlimit="10" stroke-linecap="round" stroke-linejoin="round"/>
<path d="M55.4805 40.207V47.4302" stroke="#8F53A1" stroke-width="1.3" stroke-miterlimit="10" stroke-linecap="round" stroke-linejoin="round"/>
<path d="M55.4805 17.7168V35.9875" stroke="#8F53A1" stroke-width="1.3" stroke-miterlimit="10" stroke-linecap="round" stroke-linejoin="round"/>
<path d="M4.51953 47.4295V17.7168" stroke="#8F53A1" stroke-width="1.3" stroke-miterlimit="10" stroke-linecap="round" stroke-linejoin="round"/>
<path d="M14.8691 11.1244L29.6959 7.15141C29.8955 7.09797 30.1057 7.09797 30.3053 7.15141L58.6847 14.7563C58.9986 14.8404 59.185 15.163 59.1009 15.477L58.4599 17.8725C58.3759 18.1866 58.053 18.373 57.739 18.2889L30.1529 10.8975C30.0531 10.8708 29.9481 10.8708 29.8482 10.8975L2.26102 18.2889C1.94695 18.373 1.6241 18.1866 1.54008 17.8725L0.899063 15.477C0.81504 15.163 1.00137 14.8404 1.31531 14.7563L10.8614 12.1983" stroke="#8F53A1" stroke-width="1.3" stroke-miterlimit="10" stroke-linecap="round" stroke-linejoin="round"/>
<path d="M30 40.1504V43.7905" stroke="#8F53A1" stroke-width="1.3" stroke-miterlimit="10" stroke-linecap="round" stroke-linejoin="round"/>
<path d="M28.1797 41.9707L29.9997 43.7907L31.8198 41.9707" stroke="#8F53A1" stroke-width="1.3" stroke-miterlimit="10" stroke-linecap="round" stroke-linejoin="round"/>
</svg>
