<svg width="26" height="26" viewBox="0 0 26 26" fill="none" xmlns="http://www.w3.org/2000/svg">
<rect width="26" height="26" fill="black" fill-opacity="0.75"/>
<path d="M17.4496 12.2614L9.57023 7.44129C9.43739 7.35994 9.28524 7.31553 9.1295 7.31265C8.97375 7.30977 8.82006 7.34851 8.6843 7.42488C8.54983 7.50007 8.43781 7.60971 8.35976 7.74255C8.28172 7.87538 8.24046 8.0266 8.24023 8.18066V17.8199C8.24125 18.051 8.33399 18.2722 8.49807 18.435C8.66215 18.5977 8.88413 18.6886 9.11523 18.6878C9.27654 18.6877 9.43471 18.6432 9.57242 18.5593L17.4496 13.7391C17.5762 13.6619 17.6809 13.5535 17.7535 13.4242C17.8261 13.2949 17.8642 13.1491 17.8642 13.0008C17.8642 12.8525 17.8261 12.7067 17.7535 12.5774C17.6809 12.4482 17.5762 12.3397 17.4496 12.2625V12.2614Z" fill="white"/>
</svg>
