<svg width="754" height="724" viewBox="0 0 754 724" fill="none" xmlns="http://www.w3.org/2000/svg">
<g style="mix-blend-mode:soft-light" opacity="0.36" clip-path="url(#clip0_7129_14585)">
<path d="M205.118 0H0.0273438L69.8006 67.4371H137.459V134.874L205.118 205.472V0Z" fill="url(#paint0_linear_7129_14585)"/>
<path d="M479.519 0H274.428L344.202 67.4371H411.861V134.874L479.519 205.472V0Z" fill="url(#paint1_linear_7129_14585)"/>
<path d="M753.921 0H548.83L618.604 67.4371H686.263V134.874L753.921 205.472V0Z" fill="url(#paint2_linear_7129_14585)"/>
<path d="M205.118 259.246H0.0273438L69.8006 326.683H137.459V394.121L205.118 464.718V259.246Z" fill="url(#paint3_linear_7129_14585)"/>
<path d="M479.519 259.246H274.428L344.202 326.683H411.861V394.121L479.519 464.718V259.246Z" fill="url(#paint4_linear_7129_14585)"/>
<path d="M753.921 259.246H548.83L618.604 326.683H686.263V394.121L753.921 464.718V259.246Z" fill="url(#paint5_linear_7129_14585)"/>
<path d="M205.118 518.492H0.0273438L69.8006 585.929H137.459V653.367L205.118 723.965V518.492Z" fill="url(#paint6_linear_7129_14585)"/>
<path d="M479.519 518.492H274.428L344.202 585.929H411.861V653.367L479.519 723.965V518.492Z" fill="url(#paint7_linear_7129_14585)"/>
<path d="M753.921 518.492H548.83L618.604 585.929H686.263V653.367L753.921 723.965V518.492Z" fill="url(#paint8_linear_7129_14585)"/>
</g>
<defs>
<linearGradient id="paint0_linear_7129_14585" x1="102.573" y1="0" x2="102.573" y2="205.472" gradientUnits="userSpaceOnUse">
<stop stop-color="#3A2333"/>
<stop offset="1" stop-color="#C86255"/>
</linearGradient>
<linearGradient id="paint1_linear_7129_14585" x1="376.973" y1="0" x2="376.973" y2="205.472" gradientUnits="userSpaceOnUse">
<stop stop-color="#3A2333"/>
<stop offset="1" stop-color="#C86255"/>
</linearGradient>
<linearGradient id="paint2_linear_7129_14585" x1="651.375" y1="0" x2="651.375" y2="205.472" gradientUnits="userSpaceOnUse">
<stop stop-color="#3A2333"/>
<stop offset="1" stop-color="#C86255"/>
</linearGradient>
<linearGradient id="paint3_linear_7129_14585" x1="102.573" y1="259.246" x2="102.573" y2="464.718" gradientUnits="userSpaceOnUse">
<stop stop-color="#3A2333"/>
<stop offset="1" stop-color="#C86255"/>
</linearGradient>
<linearGradient id="paint4_linear_7129_14585" x1="376.973" y1="259.246" x2="376.973" y2="464.718" gradientUnits="userSpaceOnUse">
<stop stop-color="#3A2333"/>
<stop offset="1" stop-color="#C86255"/>
</linearGradient>
<linearGradient id="paint5_linear_7129_14585" x1="651.375" y1="259.246" x2="651.375" y2="464.718" gradientUnits="userSpaceOnUse">
<stop stop-color="#3A2333"/>
<stop offset="1" stop-color="#C86255"/>
</linearGradient>
<linearGradient id="paint6_linear_7129_14585" x1="102.573" y1="518.492" x2="102.573" y2="723.965" gradientUnits="userSpaceOnUse">
<stop stop-color="#3A2333"/>
<stop offset="1" stop-color="#C86255"/>
</linearGradient>
<linearGradient id="paint7_linear_7129_14585" x1="376.973" y1="518.492" x2="376.973" y2="723.965" gradientUnits="userSpaceOnUse">
<stop stop-color="#3A2333"/>
<stop offset="1" stop-color="#C86255"/>
</linearGradient>
<linearGradient id="paint8_linear_7129_14585" x1="651.375" y1="518.492" x2="651.375" y2="723.965" gradientUnits="userSpaceOnUse">
<stop stop-color="#3A2333"/>
<stop offset="1" stop-color="#C86255"/>
</linearGradient>
<clipPath id="clip0_7129_14585">
<rect width="754" height="724" fill="white"/>
</clipPath>
</defs>
</svg>
