<svg width="60" height="60" viewBox="0 0 60 60" fill="none" xmlns="http://www.w3.org/2000/svg">
<g clip-path="url(#clip0_11126_8983)">
<mask id="mask0_11126_8983" style="mask-type:luminance" maskUnits="userSpaceOnUse" x="0" y="0" width="60" height="60">
<path d="M60 0H0V60H60V0Z" fill="white"/>
</mask>
<g mask="url(#mask0_11126_8983)">
<mask id="mask1_11126_8983" style="mask-type:luminance" maskUnits="userSpaceOnUse" x="0" y="0" width="60" height="60">
<path d="M0 3.8147e-06H60V60H0V3.8147e-06Z" fill="white"/>
</mask>
<g mask="url(#mask1_11126_8983)">
<path d="M59.1175 56.8313H0.878906" stroke="black" stroke-width="1.3" stroke-miterlimit="10" stroke-linecap="round" stroke-linejoin="round"/>
<path d="M17.043 56.8313V27.1373C17.043 26.3273 17.6997 25.6707 18.5097 25.6707H26.7668C27.5768 25.6707 28.2334 26.3273 28.2334 27.1373V56.8313H17.043Z" stroke="black" stroke-width="1.3" stroke-miterlimit="10" stroke-linecap="round" stroke-linejoin="round"/>
<path d="M2.32422 56.8313V17.868C2.32422 17.058 2.98094 16.4013 3.79094 16.4013H12.0481C12.8581 16.4013 13.5147 17.058 13.5147 17.868V56.8313H2.32422Z" stroke="black" stroke-width="1.3" stroke-miterlimit="10" stroke-linecap="round" stroke-linejoin="round"/>
<path d="M52.9785 34.8315L47.9286 34.9398C47.4831 34.9494 47.2101 34.4548 47.4557 34.0828L48.376 32.6896L7.01678 5.37621C6.46237 5.01 6.30967 4.26363 6.67588 3.7091C7.04209 3.15457 7.78846 3.00199 8.34299 3.3682L49.7021 30.6813L50.6224 29.2877C50.8679 28.916 51.43 28.9729 51.5961 29.3863L53.4793 34.0731C53.6234 34.4314 53.3647 34.8233 52.9785 34.8315Z" stroke="#F47920" stroke-width="1.3" stroke-miterlimit="10" stroke-linecap="round" stroke-linejoin="round"/>
<path d="M35.3062 34.9399H33.2284C32.4183 34.9399 31.7617 35.5966 31.7617 36.4067V56.8313H42.9522V36.4067C42.9522 35.5966 42.2956 34.9399 41.4855 34.9399H39.4077" stroke="black" stroke-width="1.3" stroke-miterlimit="10" stroke-linecap="round" stroke-linejoin="round"/>
<path d="M57.6748 48.4695V45.6759C57.6748 44.8659 57.0181 44.2093 56.2081 44.2093H47.951C47.141 44.2093 46.4844 44.8659 46.4844 45.6759V56.8313H57.6748V52.5711" stroke="#0DB14B" stroke-width="1.3" stroke-miterlimit="10" stroke-linecap="round" stroke-linejoin="round"/>
</g>
</g>
</g>
<defs>
<clipPath id="clip0_11126_8983">
<rect width="60" height="60" fill="white"/>
</clipPath>
</defs>
</svg>
