<svg width="60" height="60" viewBox="0 0 60 60" fill="none" xmlns="http://www.w3.org/2000/svg">
<path d="M19.5742 19.6375H24.42L29.1293 22.4743H38.9076L43.4836 25.1651" stroke="black" stroke-width="1.3" stroke-miterlimit="10" stroke-linecap="round" stroke-linejoin="round"/>
<path d="M43.3882 23.1687L43.4815 25.1652L41.5664 25.8062" stroke="black" stroke-width="1.3" stroke-miterlimit="10" stroke-linecap="round" stroke-linejoin="round"/>
<path d="M22.6168 39.1235C21.8175 38.6484 20.9483 38.2864 20.0257 38.0505V36.9975C20.0257 36.4925 19.616 36.084 19.1098 36.084H16.0459C15.543 36.084 15.1299 36.4926 15.1299 36.9975V38.0505C14.2074 38.2864 13.3381 38.6484 12.5422 39.1235L11.7928 38.3761C11.4364 38.0206 10.8536 38.0206 10.4973 38.3761L8.32918 40.5352C7.97281 40.8939 7.97281 41.4753 8.32918 41.8307L9.07859 42.5749C8.60234 43.3721 8.2393 44.2392 8.00281 45.1593H6.94707C6.44422 45.1593 6.03125 45.5713 6.03125 46.0728V49.1289C6.03125 49.6339 6.44422 50.0424 6.94707 50.0424H8.00281C8.2393 50.9626 8.60234 51.8295 9.07859 52.6269L8.32918 53.3743C7.97281 53.7297 7.97281 54.3111 8.32918 54.6665L10.4973 56.8257C10.8536 57.1811 11.4364 57.1811 11.7928 56.8257L12.5422 56.0816C13.3381 56.5532 14.2074 56.9186 15.1299 57.1513V58.2043C15.1299 58.7093 15.5429 59.1212 16.0459 59.1212H19.1098C19.6161 59.1212 20.0257 58.7093 20.0257 58.2043V57.1513C20.9482 56.9154 21.8175 56.5534 22.6168 56.0816L23.3662 56.8257C23.7226 57.1811 24.3054 57.1811 24.6617 56.8257L26.8265 54.6665C27.1829 54.3111 27.1829 53.7297 26.8265 53.3743L26.0805 52.6269C26.5535 51.8297 26.9198 50.9626 27.1529 50.0424H28.212C28.7149 50.0424 29.1279 49.6338 29.1279 49.1289V46.0728C29.1279 45.5713 28.7149 45.1593 28.212 45.1593H27.1529C26.9198 44.2392 26.5534 43.3722 26.0805 42.5749L26.8265 41.8307C27.1829 41.4753 27.1829 40.8939 26.8265 40.5352L24.6617 38.3761C24.3054 38.0206 23.7226 38.0206 23.3662 38.3761L22.6168 39.1235Z" stroke="black" stroke-width="1.3" stroke-miterlimit="10" stroke-linecap="round" stroke-linejoin="round"/>
<path d="M17.5773 52.3645C14.9395 52.3645 12.8047 50.2318 12.8047 47.601C12.8047 44.9701 14.9395 42.8374 17.5773 42.8374C20.215 42.8374 22.3531 44.97 22.3531 47.601C22.3531 50.2319 20.215 52.3645 17.5773 52.3645Z" stroke="black" stroke-width="1.3" stroke-miterlimit="10" stroke-linecap="round" stroke-linejoin="round"/>
<path d="M43.5289 31.4036H38.6797V39.469H43.5289V31.4036Z" stroke="#0DB14B" stroke-width="1.3" stroke-miterlimit="10" stroke-linecap="round" stroke-linejoin="round"/>
<path d="M33.9747 29.8157H29.1289V39.469H33.9747V29.8157Z" stroke="#0DB14B" stroke-width="1.3" stroke-miterlimit="10" stroke-linecap="round" stroke-linejoin="round"/>
<path d="M24.4202 26.9753V38.2032C24.0771 38.0337 23.6508 38.0936 23.3677 38.3759L22.6183 39.1233C21.8189 38.6483 20.9498 38.2863 20.0271 38.0504V36.9973C20.0271 36.6618 19.8473 36.3662 19.5742 36.2101V26.9753H24.4202Z" stroke="#0DB14B" stroke-width="1.3" stroke-miterlimit="10" stroke-linecap="round" stroke-linejoin="round"/>
<path d="M38.7578 45.8635H43.2807" stroke="black" stroke-width="1.3" stroke-miterlimit="10" stroke-linecap="round" stroke-linejoin="round"/>
<path d="M38.7578 49.3616H43.2807" stroke="black" stroke-width="1.3" stroke-miterlimit="10" stroke-linecap="round" stroke-linejoin="round"/>
<path d="M44.9727 5.86499V10.0207" stroke="#F47920" stroke-width="1.3" stroke-miterlimit="10" stroke-linecap="round" stroke-linejoin="round"/>
<path d="M44.9727 13.575V13.5883" stroke="#F47920" stroke-width="1.3" stroke-miterlimit="10" stroke-linecap="round" stroke-linejoin="round"/>
<path d="M12.1651 38.7481L12.1517 24.8927M12.1517 20.8366L12.1484 7.09076C12.1484 6.11412 12.9511 5.31689 13.9303 5.31689H41.4166M50.1424 16.6943V33.3601M50.1424 37.4161V55.0386C50.1424 56.0153 49.3398 56.8125 48.3606 56.8158L24.6609 56.8257" stroke="black" stroke-width="1.3" stroke-miterlimit="10" stroke-linecap="round" stroke-linejoin="round"/>
<path d="M45.0931 16.6976C48.2704 16.6976 50.0455 16.6976 52.0371 16.6944C53.8356 16.6944 54.4916 15.1397 53.5192 13.5352L46.3153 1.66623C45.6793 0.616465 44.2704 0.616465 43.6309 1.66623L36.4306 13.5352C35.458 15.1396 36.1109 16.6944 37.9127 16.6944C39.9109 16.6976 41.9092 16.6976 45.0931 16.6976Z" stroke="#F47920" stroke-width="1.3" stroke-miterlimit="10" stroke-linecap="round" stroke-linejoin="round"/>
</svg>
