<svg width="60" height="60" viewBox="0 0 60 60" fill="none" xmlns="http://www.w3.org/2000/svg">
<g clip-path="url(#clip0_11126_8929)">
<path d="M54.1499 46.4546H5.85156" stroke="black" stroke-width="1.3" stroke-miterlimit="10" stroke-linecap="round" stroke-linejoin="round"/>
<path d="M54.1499 50.2427H5.85156" stroke="black" stroke-width="1.3" stroke-miterlimit="10" stroke-linecap="round" stroke-linejoin="round"/>
<path d="M54.1499 23.2524H5.85156" stroke="black" stroke-width="1.3" stroke-miterlimit="10" stroke-linecap="round" stroke-linejoin="round"/>
<path d="M44.3629 27.041H5.85156" stroke="black" stroke-width="1.3" stroke-miterlimit="10" stroke-linecap="round" stroke-linejoin="round"/>
<path d="M54.1496 27.041H48.4766" stroke="black" stroke-width="1.3" stroke-miterlimit="10" stroke-linecap="round" stroke-linejoin="round"/>
<path d="M18.3975 32.9595V36.8403C18.3975 37.2122 17.9884 37.4388 17.673 37.2417L16.7544 36.6676C16.6009 36.5717 16.406 36.5717 16.2525 36.6676L15.3338 37.2417C15.0185 37.4388 14.6094 37.2121 14.6094 36.8403V32.9595" stroke="black" stroke-width="1.3" stroke-miterlimit="10" stroke-linecap="round" stroke-linejoin="round"/>
<path d="M23.253 46.4547H9.75781V34.0841C9.75781 33.463 10.2614 32.9595 10.8825 32.9595H23.253V46.4547Z" stroke="black" stroke-width="1.3" stroke-miterlimit="10" stroke-linecap="round" stroke-linejoin="round"/>
<path d="M31.8936 32.9595V36.8403C31.8936 37.2122 31.4845 37.4388 31.1691 37.2417L30.2505 36.6676C30.097 36.5717 29.9021 36.5717 29.7486 36.6676L28.8299 37.2417C28.5146 37.4388 28.1055 37.2121 28.1055 36.8403V32.9595" stroke="black" stroke-width="1.3" stroke-miterlimit="10" stroke-linecap="round" stroke-linejoin="round"/>
<path d="M36.7491 32.9595H23.2539V46.4547H36.7491V32.9595Z" stroke="black" stroke-width="1.3" stroke-miterlimit="10" stroke-linecap="round" stroke-linejoin="round"/>
<path d="M45.3896 32.9595V36.8403C45.3896 37.2122 44.9805 37.4388 44.6652 37.2417L43.7466 36.6676C43.593 36.5717 43.3982 36.5717 43.2446 36.6676L42.326 37.2417C42.0107 37.4388 41.6016 37.2121 41.6016 36.8403V32.9595" stroke="black" stroke-width="1.3" stroke-miterlimit="10" stroke-linecap="round" stroke-linejoin="round"/>
<path d="M50.2413 46.4547H36.7461V32.9595H49.1166C49.7377 32.9595 50.2413 33.463 50.2413 34.0841V46.4547Z" stroke="black" stroke-width="1.3" stroke-miterlimit="10" stroke-linecap="round" stroke-linejoin="round"/>
<path d="M18.3975 9.75732V13.6381C18.3975 14.0101 17.9884 14.2368 17.673 14.0396L16.7544 13.4655C16.6009 13.3695 16.406 13.3695 16.2525 13.4655L15.3338 14.0396C15.0185 14.2367 14.6094 14.0099 14.6094 13.6381V9.75732" stroke="black" stroke-width="1.3" stroke-miterlimit="10" stroke-linecap="round" stroke-linejoin="round"/>
<path d="M23.253 23.2525H9.75781V10.882C9.75781 10.2609 10.2614 9.75732 10.8825 9.75732H23.253V23.2525Z" stroke="black" stroke-width="1.3" stroke-miterlimit="10" stroke-linecap="round" stroke-linejoin="round"/>
<path d="M31.8936 9.75732V13.6381C31.8936 14.0101 31.4845 14.2368 31.1691 14.0396L30.2505 13.4655C30.097 13.3695 29.9021 13.3695 29.7486 13.4655L28.8299 14.0396C28.5146 14.2367 28.1055 14.0099 28.1055 13.6381V9.75732" stroke="black" stroke-width="1.3" stroke-miterlimit="10" stroke-linecap="round" stroke-linejoin="round"/>
<path d="M36.7491 9.75732H23.2539V23.2525H36.7491V9.75732Z" stroke="black" stroke-width="1.3" stroke-miterlimit="10" stroke-linecap="round" stroke-linejoin="round"/>
<path d="M45.3896 9.75732V13.6381C45.3896 14.0101 44.9805 14.2368 44.6652 14.0396L43.7466 13.4655C43.593 13.3695 43.3982 13.3695 43.2446 13.4655L42.326 14.0396C42.0107 14.2367 41.6016 14.0099 41.6016 13.6381V9.75732" stroke="black" stroke-width="1.3" stroke-miterlimit="10" stroke-linecap="round" stroke-linejoin="round"/>
<path d="M50.2413 23.2525H36.7461V9.75732H49.1166C49.7377 9.75732 50.2413 10.2609 50.2413 10.882V23.2525Z" stroke="black" stroke-width="1.3" stroke-miterlimit="10" stroke-linecap="round" stroke-linejoin="round"/>
<path d="M2.0625 49.6945V59.1211H5.85117V1.82578C5.85117 1.30312 5.42695 0.878906 4.9043 0.878906H3.00937C2.48672 0.878906 2.0625 1.30312 2.0625 1.82578V45.5812" stroke="#F47920" stroke-width="1.3" stroke-miterlimit="10" stroke-linecap="round" stroke-linejoin="round"/>
<path d="M0.878906 59.1211C0.878906 59.1211 4.63061 59.1211 7.03453 59.1211" stroke="#F47920" stroke-width="1.3" stroke-miterlimit="10" stroke-linecap="round" stroke-linejoin="round"/>
<path d="M57.9371 13.991V59.1211H54.1484V1.82578C54.1484 1.30312 54.5727 0.878906 55.0953 0.878906H56.9902C57.5129 0.878906 57.9371 1.30312 57.9371 1.82578V9.87773" stroke="#0DB14B" stroke-width="1.3" stroke-miterlimit="10" stroke-linecap="round" stroke-linejoin="round"/>
<path d="M59.1205 59.1211H52.9648" stroke="black" stroke-width="1.3" stroke-miterlimit="10" stroke-linecap="round" stroke-linejoin="round"/>
</g>
<defs>
<clipPath id="clip0_11126_8929">
<rect width="60" height="60" fill="white"/>
</clipPath>
</defs>
</svg>
