<svg width="60" height="60" viewBox="0 0 60 60" fill="none" xmlns="http://www.w3.org/2000/svg">
<mask id="mask0_11126_8883" style="mask-type:luminance" maskUnits="userSpaceOnUse" x="0" y="0" width="60" height="60">
<path d="M0 3.8147e-06H60V60H0V3.8147e-06Z" fill="white"/>
</mask>
<g mask="url(#mask0_11126_8883)">
<path d="M40.3351 45.0302C40.3351 48.6619 37.391 51.606 33.7593 51.606C30.1277 51.606 27.1836 48.6619 27.1836 45.0302C27.1836 41.3985 30.1277 38.4545 33.7593 38.4545C37.391 38.4545 40.3351 41.3985 40.3351 45.0302Z" stroke="#0DB14B" stroke-width="1.3" stroke-miterlimit="10" stroke-linecap="round" stroke-linejoin="round"/>
<path d="M36.5739 45.0303C36.5739 46.5866 35.3121 47.8484 33.7557 47.8484C32.1993 47.8484 30.9375 46.5866 30.9375 45.0303C30.9375 43.4738 32.1993 42.212 33.7557 42.212C35.3121 42.212 36.5739 43.4738 36.5739 45.0303Z" stroke="black" stroke-width="1.3" stroke-miterlimit="10" stroke-linecap="round" stroke-linejoin="round"/>
<path d="M17.7882 45.0302C17.7882 48.6619 14.8441 51.606 11.2125 51.606C7.5807 51.606 4.63672 48.6619 4.63672 45.0302C4.63672 41.3985 7.5807 38.4545 11.2125 38.4545C14.8441 38.4545 17.7882 41.3985 17.7882 45.0302Z" stroke="#0DB14B" stroke-width="1.3" stroke-miterlimit="10" stroke-linecap="round" stroke-linejoin="round"/>
<path d="M14.0309 45.0303C14.0309 46.5866 12.7691 47.8484 11.2128 47.8484C9.65629 47.8484 8.39453 46.5866 8.39453 45.0303C8.39453 43.4738 9.65629 42.212 11.2128 42.212" stroke="black" stroke-width="1.3" stroke-miterlimit="10" stroke-linecap="round" stroke-linejoin="round"/>
<path d="M4.63641 46.9089H2.75766C1.71996 46.9089 0.878906 46.0678 0.878906 45.0302V30.9393C0.878906 29.9016 1.71996 29.0605 2.75766 29.0605H14.3527C15.3492 29.0605 16.305 29.4564 17.0096 30.1611L20.4449 33.5962C21.1495 34.301 22.1053 34.6968 23.1019 34.6968H35.6362" stroke="black" stroke-width="1.3" stroke-miterlimit="10" stroke-linecap="round" stroke-linejoin="round"/>
<path d="M35.6367 38.4543V8.39388" stroke="black" stroke-width="1.3" stroke-miterlimit="10" stroke-linecap="round" stroke-linejoin="round"/>
<path d="M17.7891 46.9089H27.1829" stroke="black" stroke-width="1.3" stroke-miterlimit="10" stroke-linecap="round" stroke-linejoin="round"/>
<path d="M4.63672 32.818V34.6968" stroke="black" stroke-width="1.3" stroke-miterlimit="10" stroke-linecap="round" stroke-linejoin="round"/>
<path d="M8.39453 32.818V34.6968" stroke="black" stroke-width="1.3" stroke-miterlimit="10" stroke-linecap="round" stroke-linejoin="round"/>
<path d="M12.1523 32.818V34.6968" stroke="black" stroke-width="1.3" stroke-miterlimit="10" stroke-linecap="round" stroke-linejoin="round"/>
<path d="M31.8789 34.6968V12.1514C31.8789 11.6326 32.2995 11.2121 32.8183 11.2121H35.6364" stroke="black" stroke-width="1.3" stroke-miterlimit="10" stroke-linecap="round" stroke-linejoin="round"/>
<path d="M8.39453 29.0607V13.091C8.39453 12.0535 9.2357 11.2122 10.2733 11.2122H22.1423C23.4454 11.2122 24.5786 12.1056 24.8827 13.3728L30.0005 34.697" stroke="black" stroke-width="1.3" stroke-miterlimit="10" stroke-linecap="round" stroke-linejoin="round"/>
<path d="M15.91 29.0605V22.4848C15.91 21.4472 15.0688 20.6061 14.0311 20.6061C12.9935 20.6061 12.1523 21.4472 12.1523 22.4848V29.0605" stroke="black" stroke-width="1.3" stroke-miterlimit="10" stroke-linecap="round" stroke-linejoin="round"/>
<path d="M39.3945 8.39396V25.3031C39.3945 25.8218 39.8151 26.2424 40.3339 26.2424H59.1218" stroke="black" stroke-width="1.3" stroke-miterlimit="10" stroke-linecap="round" stroke-linejoin="round"/>
<path d="M35.6367 18.7273H39.3942" stroke="black" stroke-width="1.3" stroke-miterlimit="10" stroke-linecap="round" stroke-linejoin="round"/>
<path d="M35.6367 22.4849H39.3942" stroke="black" stroke-width="1.3" stroke-miterlimit="10" stroke-linecap="round" stroke-linejoin="round"/>
<path d="M43.1523 20.6058V21.5455C43.1523 22.0643 43.5729 22.4849 44.0917 22.4849H55.3645C55.8832 22.4849 56.3038 22.0643 56.3038 21.5455V10.2728C56.3038 9.75385 55.8832 9.33338 55.3645 9.33338H44.0917C43.5729 9.33338 43.1523 9.75385 43.1523 10.2728V16.8484" stroke="#F47920" stroke-width="1.3" stroke-miterlimit="10" stroke-linecap="round" stroke-linejoin="round"/>
<path d="M47.8477 9.33336V14.9697H51.6052V9.33336" stroke="#F47920" stroke-width="1.3" stroke-miterlimit="10" stroke-linecap="round" stroke-linejoin="round"/>
</g>
</svg>
