<svg width="84" height="84" viewBox="0 0 84 84" fill="none" xmlns="http://www.w3.org/2000/svg">
<path d="M67.1627 68.7288L63.2473 72.6442L58.38 68.331C55.54 70.1018 52.3928 71.4266 49.0363 72.2059L48.6447 78.6928H35.3557L34.9641 72.2059C31.6074 71.4272 28.4609 70.1017 25.6205 68.331L20.7532 72.6442L11.3564 63.2473L15.6695 58.38C13.8987 55.54 12.5739 52.3928 11.7946 49.0365L5.30762 48.6447V35.3557L11.7945 34.9641C12.5732 31.6074 13.8987 28.4609 15.6694 25.6204L11.3562 20.7531L20.7531 11.3562L25.6204 15.6694C28.4604 13.8986 31.6076 12.5738 34.9641 11.7945L35.3557 5.30762H48.6447L49.0363 11.7946C52.393 12.5733 55.5395 13.8988 58.3798 15.6695L63.2472 11.3564L72.644 20.7532L68.3308 25.6205C70.1017 28.4607 71.4265 31.6077 72.2058 34.9641L78.6928 35.3557V48.6447L72.2059 49.0363C71.4272 52.393 70.1017 55.5395 68.331 58.3798L72.6442 63.2472L68.7288 67.1626M42.0002 16.5295C56.0673 16.5295 67.4709 27.9331 67.4709 42.0002C67.4709 56.0673 56.0673 67.4709 42.0002 67.4709C27.9331 67.4709 16.5295 56.0673 16.5295 42.0002C16.5295 27.9331 27.9331 16.5295 42.0002 16.5295Z" stroke="black" stroke-width="2" stroke-miterlimit="22.9256"/>
<path d="M36.832 66.9456V59.7246C36.832 56.81 35.0724 55.8578 34.0771 55.2648C29.5377 52.5609 26.4961 47.6042 26.4961 41.9367C26.4961 39.0121 27.3064 36.2772 28.7143 33.9431M30.0366 32.077C31.8104 29.9276 34.1519 28.2639 36.832 27.3164V41.9367L42 44.5207L47.168 41.9367V27.3164C53.1892 29.445 57.5039 35.1868 57.5039 41.9367C57.5039 47.6041 54.4623 52.5608 49.9229 55.2648C48.9274 55.8578 47.168 56.81 47.168 59.7246V66.9456" stroke="black" stroke-width="2" stroke-miterlimit="22.9256"/>
<path d="M43.1074 9.7373H45.3223M38.6777 9.7373H40.8926" stroke="black" stroke-width="2" stroke-miterlimit="22.9256"/>
</svg>
