<svg width="84" height="84" viewBox="0 0 84 84" fill="none" xmlns="http://www.w3.org/2000/svg">
<path d="M39.7295 20.9189H43.7286" stroke="white" stroke-width="1.8" stroke-miterlimit="10" stroke-linecap="round" stroke-linejoin="round"/>
<path d="M63.7546 47.7109V32.873M18.3623 32.873V70.8653" stroke="white" stroke-width="1.8" stroke-miterlimit="10" stroke-linecap="round" stroke-linejoin="round"/>
<path d="M71.1437 50.8296V24.2723L41.7689 5.30762L10.9717 24.2723V47.5691M10.9717 52.6796V70.8658" stroke="white" stroke-width="1.8" stroke-miterlimit="10" stroke-linecap="round" stroke-linejoin="round"/>
<path d="M39.7295 16.4912H43.7286" stroke="white" stroke-width="1.8" stroke-miterlimit="10" stroke-linecap="round" stroke-linejoin="round"/>
<path d="M43.6916 41.3535H39.8477V46.5436H43.6916V41.3535Z" stroke="white" stroke-width="1.8" stroke-miterlimit="10" stroke-linecap="round" stroke-linejoin="round"/>
<path d="M6.88477 70.8662H49.0458" stroke="white" stroke-width="1.8" stroke-miterlimit="10" stroke-linecap="round" stroke-linejoin="round"/>
<path d="M61.5854 68.6933C58.5431 68.6933 56.0756 66.2321 56.0756 63.1976C56.0756 60.1673 58.5431 57.7062 61.5854 57.7062C64.6277 57.7062 67.0911 60.1673 67.0911 63.1976C67.0911 66.2321 64.6279 68.6933 61.5854 68.6933ZM68.3584 51.7962C67.2883 51.16 66.1176 50.6703 64.8796 50.3564V48.9376C64.8796 48.2637 64.3215 47.707 63.6459 47.707H59.5252C58.8453 47.707 58.2915 48.2596 58.2915 48.9376V50.3564C57.0535 50.6703 55.8828 51.1601 54.8084 51.7962L53.8013 50.7917C53.3228 50.3145 52.5382 50.3145 52.0598 50.7917L49.1433 53.6966C48.6649 54.1779 48.6649 54.9606 49.1433 55.4377L50.1505 56.4422C49.5126 57.5095 49.0216 58.6773 48.707 59.9163H47.2844C46.6088 59.9163 46.0508 60.4688 46.0508 61.1427V65.2529C46.0508 65.9309 46.6089 66.4834 47.2844 66.4834H48.707C49.0218 67.7224 49.5127 68.8901 50.1505 69.9575L49.1433 70.962C48.6649 71.4392 48.6649 72.2218 49.1433 72.699L52.0598 75.608C52.5382 76.0852 53.3228 76.0852 53.8013 75.608L54.8084 74.6035C55.8828 75.2398 57.0493 75.7294 58.2915 76.0433V77.4621C58.2915 78.136 58.8453 78.6927 59.5252 78.6927H63.6459C64.3216 78.6927 64.8796 78.136 64.8796 77.4621V76.0433C66.1176 75.7294 67.2883 75.2396 68.3584 74.6035L69.3656 75.608C69.844 76.0852 70.6286 76.0852 71.1113 75.608L74.0235 72.699C74.5019 72.2218 74.5019 71.4392 74.0235 70.962L73.0164 69.9575C73.6542 68.886 74.1452 67.7224 74.4598 66.4834H75.8824C76.5622 66.4834 77.116 65.9309 77.116 65.2529V61.1427C77.116 60.4688 76.5622 59.9163 75.8824 59.9163H74.4598C74.1452 58.6773 73.6541 57.5096 73.0164 56.4422L74.0235 55.4377C74.5019 54.9605 74.5019 54.1779 74.0235 53.6966L71.1113 50.7917C70.6288 50.3145 69.844 50.3145 69.3656 50.7917L68.3584 51.7962Z" stroke="white" stroke-width="1.8" stroke-miterlimit="10" stroke-linecap="round" stroke-linejoin="round"/>
<path d="M48.9204 56.1076H34.3884C33.9856 56.1076 33.6582 55.7812 33.6582 55.3794V42.086C33.6582 41.6843 33.9856 41.3535 34.3884 41.3535H49.147C49.5499 41.3535 49.8815 41.6841 49.8815 42.086V52.9643" stroke="white" stroke-width="1.8" stroke-miterlimit="10" stroke-linecap="round" stroke-linejoin="round"/>
<path d="M35.5803 56.1074H31.7363V61.2975H35.5803V56.1074Z" stroke="white" stroke-width="1.8" stroke-miterlimit="10" stroke-linecap="round" stroke-linejoin="round"/>
<path d="M26.2803 56.1074H41.7692V70.8657H26.2803C25.8733 70.8657 25.5459 70.5351 25.5459 70.1331V56.8398C25.5459 56.438 25.8733 56.1074 26.2803 56.1074Z" stroke="white" stroke-width="1.8" stroke-miterlimit="10" stroke-linecap="round" stroke-linejoin="round"/>
<path d="M44.1867 32.8733H63.7544H63.9726C64.5476 32.8733 65.0217 32.4045 65.0217 31.8268V28.8843C65.0217 28.3067 64.5476 27.8379 63.9726 27.8379H18.1438C17.5689 27.8379 17.0947 28.3067 17.0947 28.8843V31.8268C17.0947 32.4045 17.5689 32.8733 18.1438 32.8733H18.3621H39.0629" stroke="white" stroke-width="1.8" stroke-miterlimit="10" stroke-linecap="round" stroke-linejoin="round"/>
</svg>
