<svg width="84" height="84" viewBox="0 0 84 84" fill="none" xmlns="http://www.w3.org/2000/svg">
<path d="M67.2262 28.2375C73.5589 28.2375 78.6926 23.1044 78.6926 16.7725C78.6926 10.4406 73.5589 5.30762 67.2262 5.30762C60.8934 5.30762 55.7598 10.4406 55.7598 16.7725C55.7598 23.1044 60.8934 28.2375 67.2262 28.2375Z" stroke="white" stroke-width="2" stroke-miterlimit="10" stroke-linecap="round" stroke-linejoin="round"/>
<path d="M67.2261 19.0657C65.3263 19.0657 63.7861 17.5256 63.7861 15.6257V13.3335C63.7861 11.4338 65.3262 9.89355 67.2261 9.89355C69.1258 9.89355 70.666 11.4336 70.666 13.3335V15.6257C70.666 17.5255 69.126 19.0657 67.2261 19.0657Z" stroke="white" stroke-width="2" stroke-miterlimit="10" stroke-linecap="round" stroke-linejoin="round"/>
<path d="M58.124 23.7441C58.5508 21.091 60.8483 19.0654 63.6213 19.0654H70.8298C73.6028 19.0654 75.9004 21.091 76.3271 23.7441" stroke="white" stroke-width="2" stroke-miterlimit="10" stroke-linecap="round" stroke-linejoin="round"/>
<path d="M27.9847 19.1857C26.8772 24.359 22.2792 28.2375 16.7746 28.2375C10.4416 28.2375 5.30762 23.1055 5.30762 16.7733C5.30762 10.441 10.4416 5.30762 16.7746 5.30762C22.2778 5.30762 26.8772 9.1861 27.9847 14.3594" stroke="white" stroke-width="2" stroke-miterlimit="10" stroke-linecap="round" stroke-linejoin="round"/>
<path d="M16.7739 19.0657C14.8742 19.0657 13.334 17.5256 13.334 15.6257V13.3335C13.334 11.4338 14.874 9.89355 16.7739 9.89355C18.6737 9.89355 20.2139 11.4336 20.2139 13.3335V15.6257C20.2137 17.5255 18.6737 19.0657 16.7739 19.0657Z" stroke="white" stroke-width="2" stroke-miterlimit="10" stroke-linecap="round" stroke-linejoin="round"/>
<path d="M7.67285 23.7441C8.09958 21.091 10.3971 19.0654 13.1701 19.0654H20.3787C23.1517 19.0654 25.4492 21.091 25.8759 23.7441" stroke="white" stroke-width="2" stroke-miterlimit="10" stroke-linecap="round" stroke-linejoin="round"/>
<path d="M69.638 56.0186C74.8133 57.1258 78.6923 61.7233 78.6923 67.2273C78.6923 73.5595 73.5583 78.6929 67.2253 78.6929C60.8923 78.6929 55.7598 73.5595 55.7598 67.2273C55.7598 61.7233 59.6387 57.1258 64.8126 56.0186" stroke="white" stroke-width="2" stroke-miterlimit="10" stroke-linecap="round" stroke-linejoin="round"/>
<path d="M67.2261 69.5207C65.3263 69.5207 63.7861 67.9807 63.7861 66.0808V63.7886C63.7861 61.8888 65.3262 60.3486 67.2261 60.3486C69.1258 60.3486 70.666 61.8887 70.666 63.7886V66.0808C70.666 67.9805 69.126 69.5207 67.2261 69.5207Z" stroke="white" stroke-width="2" stroke-miterlimit="10" stroke-linecap="round" stroke-linejoin="round"/>
<path d="M58.124 74.2001C58.5508 71.547 60.8483 69.5215 63.6213 69.5215H70.8298C73.6028 69.5215 75.9004 71.547 76.3271 74.2001" stroke="white" stroke-width="2" stroke-miterlimit="10" stroke-linecap="round" stroke-linejoin="round"/>
<path d="M19.1873 56.0186C24.3612 57.1258 28.2401 61.7247 28.2401 67.2273C28.2401 73.5595 23.1061 78.6929 16.7746 78.6929C10.4416 78.6929 5.30762 73.5595 5.30762 67.2273C5.30762 61.7233 9.18655 57.1258 14.3619 56.0186" stroke="white" stroke-width="2" stroke-miterlimit="10" stroke-linecap="round" stroke-linejoin="round"/>
<path d="M16.7739 69.5207C14.8742 69.5207 13.334 67.9807 13.334 66.0808V63.7886C13.334 61.8888 14.874 60.3486 16.7739 60.3486C18.6737 60.3486 20.2139 61.8887 20.2139 63.7886V66.0808C20.2137 67.9805 18.6737 69.5207 16.7739 69.5207Z" stroke="white" stroke-width="2" stroke-miterlimit="10" stroke-linecap="round" stroke-linejoin="round"/>
<path d="M7.67285 74.2001C8.09958 71.547 10.3971 69.5215 13.1701 69.5215H20.3787C23.1517 69.5215 25.4492 71.547 25.8759 74.2001" stroke="white" stroke-width="2" stroke-miterlimit="10" stroke-linecap="round" stroke-linejoin="round"/>
<path d="M59.1174 24.8799L50.1074 33.8888" stroke="white" stroke-width="2" stroke-miterlimit="10" stroke-linecap="round" stroke-linejoin="round"/>
<path d="M33.8928 50.1025L24.8828 59.1115" stroke="white" stroke-width="2" stroke-miterlimit="10" stroke-linecap="round" stroke-linejoin="round"/>
<path d="M59.1174 59.1115L50.1074 50.1025" stroke="white" stroke-width="2" stroke-miterlimit="10" stroke-linecap="round" stroke-linejoin="round"/>
<path d="M33.8928 33.8888L24.8828 24.8799" stroke="white" stroke-width="2" stroke-miterlimit="10" stroke-linecap="round" stroke-linejoin="round"/>
<path d="M46.5882 64.933C46.591 62.4002 44.5398 60.3448 42.0067 60.342C39.4737 60.3392 37.418 62.3902 37.4152 64.9229C37.4124 67.4556 39.4636 69.511 41.9967 69.5138C44.5297 69.5166 46.5854 67.4657 46.5882 64.933Z" stroke="white" stroke-width="2" stroke-miterlimit="10" stroke-linecap="round" stroke-linejoin="round"/>
<path d="M42 53.46V60.339" stroke="white" stroke-width="2" stroke-miterlimit="10" stroke-linecap="round" stroke-linejoin="round"/>
<path d="M42.0585 23.7435C44.6173 23.7371 46.6863 21.6579 46.6799 19.0995C46.6735 16.5411 44.5941 14.4723 42.0354 14.4787C39.4766 14.485 37.4075 16.5642 37.4139 19.1227C37.4203 21.6811 39.4998 23.7499 42.0585 23.7435Z" stroke="white" stroke-width="2" stroke-miterlimit="10" stroke-linecap="round" stroke-linejoin="round"/>
<path d="M42 30.5303V23.7441" stroke="white" stroke-width="2" stroke-miterlimit="10" stroke-linecap="round" stroke-linejoin="round"/>
<path d="M64.9373 46.5831C67.4703 46.5798 69.5211 44.5239 69.5178 41.9911C69.5145 39.4583 67.4584 37.4077 64.9254 37.411C62.3923 37.4143 60.3415 39.4702 60.3448 42.003C60.3481 44.5359 62.4042 46.5864 64.9373 46.5831Z" stroke="white" stroke-width="2" stroke-miterlimit="10" stroke-linecap="round" stroke-linejoin="round"/>
<path d="M19.0721 46.5831C21.6051 46.5798 23.6559 44.5239 23.6526 41.9911C23.6493 39.4583 21.5932 37.4077 19.0601 37.411C16.5271 37.4143 14.4763 39.4702 14.4796 42.003C14.4829 44.5359 16.539 46.5864 19.0721 46.5831Z" stroke="white" stroke-width="2" stroke-miterlimit="10" stroke-linecap="round" stroke-linejoin="round"/>
<path d="M53.4658 41.9961H60.3456" stroke="white" stroke-width="2" stroke-miterlimit="10" stroke-linecap="round" stroke-linejoin="round"/>
<path d="M30.5331 41.9961H23.6533" stroke="white" stroke-width="2" stroke-miterlimit="10" stroke-linecap="round" stroke-linejoin="round"/>
<path d="M42.0006 53.4611C48.3333 53.4611 53.467 48.3281 53.467 41.9962C53.467 35.6643 48.3333 30.5312 42.0006 30.5312C35.6679 30.5312 30.5342 35.6643 30.5342 41.9962C30.5342 48.3281 35.6679 53.4611 42.0006 53.4611Z" stroke="white" stroke-width="2" stroke-miterlimit="10" stroke-linecap="round" stroke-linejoin="round"/>
<path d="M41.9995 44.2882C40.0998 44.2882 38.5596 42.7481 38.5596 40.8482V38.5562C38.5596 36.6564 40.0996 35.1162 41.9995 35.1162C43.8993 35.1162 45.4395 36.6563 45.4395 38.5562V40.8484C45.4395 42.7481 43.8993 44.2882 41.9995 44.2882Z" stroke="white" stroke-width="2" stroke-miterlimit="10" stroke-linecap="round" stroke-linejoin="round"/>
<path d="M32.8984 48.9677C33.3252 46.3146 35.6227 44.2891 38.3957 44.2891H45.6043C48.3772 44.2891 50.6748 46.3146 51.1015 48.9677" stroke="white" stroke-width="2" stroke-miterlimit="10" stroke-linecap="round" stroke-linejoin="round"/>
</svg>
