<svg width="84" height="84" viewBox="0 0 84 84" fill="none" xmlns="http://www.w3.org/2000/svg">
<mask id="mask0_7185_15082" style="mask-type:luminance" maskUnits="userSpaceOnUse" x="4" y="4" width="76" height="76">
<path d="M4.2002 4.19981H79.8002V79.7998H4.2002V4.19981Z" fill="white"/>
</mask>
<g mask="url(#mask0_7185_15082)">
<path d="M59.0051 56.7953L55.594 50.728C54.9425 49.5684 53.4732 49.1572 52.3147 49.8089C51.1553 50.4607 50.7438 51.9288 51.3957 53.0882L54.4488 58.519H50.1136C50.0845 58.0426 49.9156 57.5701 49.5957 57.1683C48.7675 56.1277 47.2524 55.9554 46.2117 56.7833C43.0141 59.3279 43.4334 58.9899 43.2805 59.125C42.1423 60.1332 42.2244 61.8888 43.3713 62.8073C43.372 62.8077 43.3726 62.8085 43.3726 62.8085L46.2104 65.0698C47.2498 65.898 48.7652 65.7282 49.5947 64.6874C49.915 64.2855 50.0845 63.8122 50.1136 63.3354H55.1866C56.7648 63.3354 58.1812 62.5213 58.9758 61.1575C59.77 59.7938 59.7793 58.1598 59.0051 56.7953Z" stroke="white" stroke-width="2" stroke-miterlimit="10" stroke-linecap="round" stroke-linejoin="round"/>
<path d="M43.4201 41.9059C42.9326 43.1434 43.5408 44.5416 44.7786 45.0288L48.1523 46.3571C49.6732 46.9557 51.3343 45.9074 51.4455 44.278L51.9556 40.8869C52.1533 39.5716 51.2478 38.345 49.9323 38.1473C49.4407 38.073 48.961 38.1538 48.5426 38.3528L45.8125 33.5401C44.1421 30.5954 39.8704 30.5674 38.1774 33.5536L34.1435 40.7703C33.4944 41.931 33.9096 43.3982 35.0707 44.0472C36.2309 44.696 37.6988 44.2814 38.3476 43.1202L42.0015 36.5833L44.3698 40.7582C43.9541 41.0219 43.6141 41.4129 43.4201 41.9059Z" stroke="white" stroke-width="2" stroke-miterlimit="10" stroke-linecap="round" stroke-linejoin="round"/>
<path d="M34.0308 63.3359H36.0654C37.3955 63.3359 38.4737 62.2576 38.4737 60.9277C38.4737 59.5979 37.3955 58.5195 36.0654 58.5195H29.5525L31.6165 54.8811C33.3548 55.704 35.3107 54.2473 35.0265 52.3474L34.519 48.9553C34.4063 47.3149 32.7347 46.284 31.2279 46.8763L27.8508 48.2029C26.6129 48.6893 26.0036 50.0869 26.4899 51.3248C26.6843 51.8199 27.0258 52.2121 27.4431 52.4763L24.9975 56.7875C23.3397 59.7099 25.4477 63.3359 28.8113 63.3359" stroke="white" stroke-width="2" stroke-miterlimit="10" stroke-linecap="round" stroke-linejoin="round"/>
<path d="M52.351 21.3129C49.072 16.5662 46.1915 11.6263 43.8902 6.53367C43.1512 4.89823 40.8483 4.89823 40.1093 6.53367C35.713 16.2626 29.2059 25.4343 21.8359 33.7664C6.40372 51.213 18.7072 78.6924 41.9997 78.6924C65.2924 78.6924 77.5959 51.213 62.1636 33.7664C59.8006 31.0951 57.5273 28.3369 55.3829 25.5023" stroke="white" stroke-width="2" stroke-miterlimit="10" stroke-linecap="round" stroke-linejoin="round"/>
</g>
</svg>
