<svg width="324" height="40" viewBox="0 0 324 40" fill="none" xmlns="http://www.w3.org/2000/svg">
<path d="M187.488 15.5C187.391 15.5 187.327 15.4512 187.298 15.3537L186.815 13.7882C186.796 13.7492 186.771 13.7297 186.742 13.7297H182.879C182.85 13.7297 182.826 13.7492 182.806 13.7882L182.323 15.3537C182.294 15.4512 182.231 15.5 182.133 15.5H180.67C180.612 15.5 180.568 15.4854 180.538 15.4561C180.509 15.4171 180.504 15.3634 180.524 15.2952L183.699 5.40484C183.728 5.3073 183.791 5.25854 183.889 5.25854H185.718C185.815 5.25854 185.879 5.3073 185.908 5.40484L189.097 15.2952C189.107 15.3147 189.112 15.3391 189.112 15.3683C189.112 15.4561 189.058 15.5 188.951 15.5H187.488ZM183.26 12.3105C183.25 12.369 183.27 12.3983 183.318 12.3983H186.288C186.347 12.3983 186.366 12.369 186.347 12.3105L184.84 7.40924C184.83 7.37023 184.816 7.35072 184.796 7.35072C184.777 7.35072 184.762 7.37023 184.752 7.40924L183.26 12.3105ZM199.275 10.1598C199.216 10.1891 199.216 10.2183 199.275 10.2476C200.27 10.7158 200.767 11.5205 200.767 12.6617C200.767 13.5883 200.455 14.2954 199.831 14.7831C199.216 15.261 198.412 15.5 197.417 15.5H193.73C193.681 15.5 193.637 15.4854 193.598 15.4561C193.569 15.4171 193.554 15.3732 193.554 15.3244V5.4341C193.554 5.38533 193.569 5.34632 193.598 5.31706C193.637 5.27804 193.681 5.25854 193.73 5.25854H197.3C198.363 5.25854 199.182 5.48775 199.758 5.94618C200.333 6.4046 200.621 7.09712 200.621 8.02373C200.621 9.04788 200.172 9.7599 199.275 10.1598ZM195.325 6.7216C195.276 6.7216 195.252 6.74599 195.252 6.79476V9.50143C195.252 9.5502 195.276 9.57458 195.325 9.57458H197.3C197.817 9.57458 198.222 9.45266 198.514 9.20881C198.817 8.95522 198.968 8.60896 198.968 8.17004C198.968 7.72136 198.817 7.37023 198.514 7.11663C198.222 6.85328 197.817 6.7216 197.3 6.7216H195.325ZM197.417 14.0223C197.924 14.0223 198.324 13.8858 198.617 13.6126C198.919 13.3395 199.07 12.9689 199.07 12.5007C199.07 12.0228 198.919 11.6521 198.617 11.3888C198.314 11.1157 197.905 10.9791 197.388 10.9791H195.325C195.276 10.9791 195.252 11.0035 195.252 11.0523V13.9491C195.252 13.9979 195.276 14.0223 195.325 14.0223H197.417ZM202.831 15.5C202.783 15.5 202.739 15.4854 202.7 15.4561C202.67 15.4171 202.656 15.3732 202.656 15.3244V5.4341C202.656 5.38533 202.67 5.34632 202.7 5.31706C202.739 5.27804 202.783 5.25854 202.831 5.25854H204.177C204.226 5.25854 204.265 5.27804 204.294 5.31706C204.333 5.34632 204.353 5.38533 204.353 5.4341V13.9638C204.353 14.0125 204.377 14.0369 204.426 14.0369H209.327C209.376 14.0369 209.415 14.0564 209.444 14.0955C209.483 14.1247 209.503 14.1637 209.503 14.2125V15.3244C209.503 15.3732 209.483 15.4171 209.444 15.4561C209.415 15.4854 209.376 15.5 209.327 15.5H202.831ZM217.75 15.5C217.652 15.5 217.589 15.4512 217.559 15.3537L217.077 13.7882C217.057 13.7492 217.033 13.7297 217.003 13.7297H213.141C213.112 13.7297 213.087 13.7492 213.068 13.7882L212.585 15.3537C212.556 15.4512 212.492 15.5 212.395 15.5H210.932C210.873 15.5 210.829 15.4854 210.8 15.4561C210.771 15.4171 210.766 15.3634 210.785 15.2952L213.96 5.40484C213.989 5.3073 214.053 5.25854 214.15 5.25854H215.979C216.077 5.25854 216.14 5.3073 216.169 5.40484L219.359 15.2952C219.369 15.3147 219.374 15.3391 219.374 15.3683C219.374 15.4561 219.32 15.5 219.213 15.5H217.75ZM213.521 12.3105C213.512 12.369 213.531 12.3983 213.58 12.3983H216.55C216.608 12.3983 216.628 12.369 216.608 12.3105L215.101 7.40924C215.092 7.37023 215.077 7.35072 215.057 7.35072C215.038 7.35072 215.023 7.37023 215.014 7.40924L213.521 12.3105ZM224.053 15.617C223.322 15.617 222.678 15.4756 222.122 15.1928C221.566 14.9001 221.137 14.4954 220.835 13.9784C220.532 13.4615 220.381 12.8616 220.381 12.1788V8.56507C220.381 7.8823 220.532 7.28244 220.835 6.76549C221.137 6.24854 221.566 5.84864 222.122 5.56578C222.678 5.28292 223.322 5.14149 224.053 5.14149C224.775 5.14149 225.414 5.27804 225.97 5.55115C226.526 5.82425 226.955 6.20953 227.257 6.70697C227.56 7.20441 227.711 7.77989 227.711 8.43339C227.711 8.48216 227.691 8.52605 227.652 8.56507C227.623 8.59433 227.584 8.60896 227.535 8.60896L226.189 8.68211C226.072 8.68211 226.014 8.62846 226.014 8.52117C226.014 7.9457 225.833 7.4824 225.472 7.13126C225.121 6.78012 224.648 6.60456 224.053 6.60456C223.458 6.60456 222.98 6.78012 222.619 7.13126C222.259 7.4824 222.078 7.9457 222.078 8.52117V12.252C222.078 12.8177 222.259 13.2761 222.619 13.6273C222.98 13.9784 223.458 14.154 224.053 14.154C224.648 14.154 225.121 13.9833 225.472 13.6419C225.833 13.2908 226.014 12.8275 226.014 12.252C226.014 12.1447 226.072 12.0911 226.189 12.0911L227.535 12.1496C227.584 12.1496 227.623 12.1642 227.652 12.1935C227.691 12.2227 227.711 12.2569 227.711 12.2959C227.711 12.9591 227.56 13.5444 227.257 14.0516C226.955 14.549 226.526 14.9343 225.97 15.2074C225.414 15.4805 224.775 15.617 224.053 15.617ZM229.707 15.5C229.658 15.5 229.614 15.4854 229.575 15.4561C229.546 15.4171 229.531 15.3732 229.531 15.3244V5.4341C229.531 5.38533 229.546 5.34632 229.575 5.31706C229.614 5.27804 229.658 5.25854 229.707 5.25854H231.053C231.101 5.25854 231.14 5.27804 231.17 5.31706C231.209 5.34632 231.228 5.38533 231.228 5.4341V9.80867C231.228 9.83793 231.238 9.85744 231.257 9.86719C231.277 9.87695 231.296 9.87207 231.316 9.85256L235.12 5.36095C235.178 5.29267 235.252 5.25854 235.339 5.25854H236.861C236.958 5.25854 237.007 5.29267 237.007 5.36095C237.007 5.39021 236.993 5.42923 236.963 5.47799L233.613 9.58921C233.584 9.62823 233.579 9.66237 233.598 9.69163L237.197 15.2952C237.217 15.3537 237.227 15.3878 237.227 15.3976C237.227 15.4659 237.178 15.5 237.08 15.5H235.544C235.456 15.5 235.388 15.461 235.339 15.383L232.442 10.8767C232.403 10.8182 232.369 10.8133 232.34 10.8621L231.257 12.1203C231.238 12.1593 231.228 12.1935 231.228 12.2227V15.3244C231.228 15.3732 231.209 15.4171 231.17 15.4561C231.14 15.4854 231.101 15.5 231.053 15.5H229.707ZM241.667 15.617C240.907 15.617 240.243 15.4951 239.678 15.2513C239.112 15.0074 238.673 14.6661 238.361 14.2271C238.058 13.7882 237.907 13.2713 237.907 12.6763V12.3105C237.907 12.2617 237.922 12.2227 237.951 12.1935C237.99 12.1545 238.034 12.1349 238.083 12.1349H239.385C239.434 12.1349 239.473 12.1545 239.502 12.1935C239.541 12.2227 239.561 12.2617 239.561 12.3105V12.5885C239.561 13.0372 239.76 13.4127 240.16 13.7151C240.56 14.0077 241.107 14.154 241.799 14.154C242.394 14.154 242.843 14.0272 243.145 13.7736C243.447 13.52 243.599 13.1932 243.599 12.7933C243.599 12.5202 243.516 12.291 243.35 12.1057C243.184 11.9106 242.945 11.735 242.633 11.579C242.331 11.4229 241.872 11.2278 241.258 10.9938C240.565 10.7402 240.004 10.5012 239.575 10.2769C239.146 10.0525 238.785 9.75015 238.492 9.36975C238.21 8.9796 238.068 8.49679 238.068 7.92132C238.068 7.06298 238.38 6.3851 239.005 5.88765C239.629 5.39021 240.463 5.14149 241.506 5.14149C242.238 5.14149 242.882 5.26829 243.438 5.52189C244.003 5.77549 244.442 6.1315 244.754 6.58993C245.067 7.0386 245.223 7.56043 245.223 8.15541V8.40413C245.223 8.4529 245.203 8.49679 245.164 8.5358C245.135 8.56507 245.096 8.5797 245.047 8.5797H243.73C243.682 8.5797 243.638 8.56507 243.599 8.5358C243.569 8.49679 243.555 8.4529 243.555 8.40413V8.24319C243.555 7.78476 243.365 7.39949 242.984 7.08737C242.613 6.76549 242.097 6.60456 241.433 6.60456C240.897 6.60456 240.477 6.71672 240.175 6.94106C239.882 7.1654 239.736 7.4824 239.736 7.89205C239.736 8.18467 239.814 8.42364 239.97 8.60896C240.126 8.79428 240.36 8.96497 240.672 9.12103C240.985 9.26734 241.467 9.45754 242.121 9.69163C242.813 9.95498 243.365 10.1939 243.774 10.4085C244.194 10.6231 244.55 10.9255 244.842 11.3156C245.145 11.696 245.296 12.174 245.296 12.7494C245.296 13.6273 244.969 14.3247 244.315 14.8416C243.672 15.3586 242.789 15.617 241.667 15.617ZM253.549 5.25854C253.598 5.25854 253.637 5.27804 253.666 5.31706C253.705 5.34632 253.725 5.38533 253.725 5.4341V6.56066C253.725 6.60943 253.705 6.65333 253.666 6.69234C253.637 6.7216 253.598 6.73623 253.549 6.73623H250.857C250.808 6.73623 250.784 6.76062 250.784 6.80939V15.3244C250.784 15.3732 250.765 15.4171 250.726 15.4561C250.696 15.4854 250.657 15.5 250.609 15.5H249.262C249.214 15.5 249.17 15.4854 249.131 15.4561C249.102 15.4171 249.087 15.3732 249.087 15.3244V6.80939C249.087 6.76062 249.063 6.73623 249.014 6.73623H246.424C246.375 6.73623 246.331 6.7216 246.292 6.69234C246.263 6.65333 246.249 6.60943 246.249 6.56066V5.4341C246.249 5.38533 246.263 5.34632 246.292 5.31706C246.331 5.27804 246.375 5.25854 246.424 5.25854H253.549ZM258.245 15.6463C257.513 15.6463 256.865 15.5 256.299 15.2074C255.733 14.905 255.294 14.4807 254.982 13.9345C254.68 13.3883 254.529 12.7592 254.529 12.0472V8.71137C254.529 8.0091 254.685 7.38974 254.997 6.85328C255.309 6.30707 255.743 5.88765 256.299 5.59504C256.865 5.29267 257.513 5.14149 258.245 5.14149C258.986 5.14149 259.635 5.29267 260.191 5.59504C260.757 5.88765 261.195 6.30707 261.508 6.85328C261.82 7.38974 261.976 8.0091 261.976 8.71137V12.0472C261.976 12.7592 261.82 13.3883 261.508 13.9345C261.195 14.4807 260.757 14.905 260.191 15.2074C259.635 15.5 258.986 15.6463 258.245 15.6463ZM258.245 14.1832C258.859 14.1832 259.352 13.993 259.723 13.6126C260.093 13.2322 260.279 12.7299 260.279 12.1057V8.69674C260.279 8.06275 260.093 7.55555 259.723 7.17515C259.352 6.79476 258.859 6.60456 258.245 6.60456C257.64 6.60456 257.152 6.79476 256.782 7.17515C256.411 7.55555 256.226 8.06275 256.226 8.69674V12.1057C256.226 12.7299 256.411 13.2322 256.782 13.6126C257.152 13.993 257.64 14.1832 258.245 14.1832ZM269.819 5.4341C269.819 5.38533 269.834 5.34632 269.863 5.31706C269.902 5.27804 269.946 5.25854 269.995 5.25854H271.341C271.39 5.25854 271.429 5.27804 271.458 5.31706C271.497 5.34632 271.516 5.38533 271.516 5.4341V15.3244C271.516 15.3732 271.497 15.4171 271.458 15.4561C271.429 15.4854 271.39 15.5 271.341 15.5H270.039C269.941 15.5 269.873 15.461 269.834 15.383L265.62 8.47728C265.601 8.44802 265.581 8.43827 265.562 8.44802C265.542 8.44802 265.532 8.46753 265.532 8.50654L265.562 15.3244C265.562 15.3732 265.542 15.4171 265.503 15.4561C265.474 15.4854 265.435 15.5 265.386 15.5H264.04C263.991 15.5 263.947 15.4854 263.908 15.4561C263.879 15.4171 263.864 15.3732 263.864 15.3244V5.4341C263.864 5.38533 263.879 5.34632 263.908 5.31706C263.947 5.27804 263.991 5.25854 264.04 5.25854H265.342C265.44 5.25854 265.508 5.29755 265.547 5.37558L269.746 12.2813C269.765 12.3105 269.785 12.3251 269.805 12.3251C269.824 12.3154 269.834 12.291 269.834 12.252L269.819 5.4341ZM280.458 6.54603C280.458 6.5948 280.438 6.63869 280.399 6.67771C280.37 6.70697 280.331 6.7216 280.282 6.7216H275.293C275.245 6.7216 275.22 6.74599 275.22 6.79476V9.53069C275.22 9.57946 275.245 9.60384 275.293 9.60384H278.644C278.692 9.60384 278.732 9.62335 278.761 9.66237C278.8 9.69163 278.819 9.73064 278.819 9.77941V10.8913C278.819 10.9401 278.8 10.984 278.761 11.023C278.732 11.0523 278.692 11.0669 278.644 11.0669H275.293C275.245 11.0669 275.22 11.0913 275.22 11.1401V13.9638C275.22 14.0125 275.245 14.0369 275.293 14.0369H280.282C280.331 14.0369 280.37 14.0564 280.399 14.0955C280.438 14.1247 280.458 14.1637 280.458 14.2125V15.3244C280.458 15.3732 280.438 15.4171 280.399 15.4561C280.37 15.4854 280.331 15.5 280.282 15.5H273.699C273.65 15.5 273.606 15.4854 273.567 15.4561C273.538 15.4171 273.523 15.3732 273.523 15.3244V5.4341C273.523 5.38533 273.538 5.34632 273.567 5.31706C273.606 5.27804 273.65 5.25854 273.699 5.25854H280.282C280.331 5.25854 280.37 5.27804 280.399 5.31706C280.438 5.34632 280.458 5.38533 280.458 5.4341V6.54603ZM181.314 35.5C181.265 35.5 181.221 35.4854 181.182 35.4561C181.153 35.4171 181.138 35.3732 181.138 35.3244V25.4341C181.138 25.3853 181.153 25.3463 181.182 25.3171C181.221 25.278 181.265 25.2585 181.314 25.2585H182.66C182.709 25.2585 182.748 25.278 182.777 25.3171C182.816 25.3463 182.836 25.3853 182.836 25.4341V33.9638C182.836 34.0125 182.86 34.0369 182.909 34.0369H187.81C187.859 34.0369 187.898 34.0564 187.927 34.0955C187.966 34.1247 187.986 34.1637 187.986 34.2125V35.3244C187.986 35.3732 187.966 35.4171 187.927 35.4561C187.898 35.4854 187.859 35.5 187.81 35.5H181.314ZM192.878 35.6463C192.147 35.6463 191.498 35.5 190.933 35.2074C190.367 34.905 189.928 34.4807 189.616 33.9345C189.313 33.3883 189.162 32.7592 189.162 32.0472V28.7114C189.162 28.0091 189.318 27.3897 189.63 26.8533C189.943 26.3071 190.377 25.8877 190.933 25.595C191.498 25.2927 192.147 25.1415 192.878 25.1415C193.62 25.1415 194.268 25.2927 194.824 25.595C195.39 25.8877 195.829 26.3071 196.141 26.8533C196.453 27.3897 196.609 28.0091 196.609 28.7114V32.0472C196.609 32.7592 196.453 33.3883 196.141 33.9345C195.829 34.4807 195.39 34.905 194.824 35.2074C194.268 35.5 193.62 35.6463 192.878 35.6463ZM192.878 34.1832C193.493 34.1832 193.985 33.993 194.356 33.6126C194.727 33.2322 194.912 32.7299 194.912 32.1057V28.6967C194.912 28.0627 194.727 27.5555 194.356 27.1752C193.985 26.7948 193.493 26.6046 192.878 26.6046C192.274 26.6046 191.786 26.7948 191.415 27.1752C191.045 27.5555 190.859 28.0627 190.859 28.6967V32.1057C190.859 32.7299 191.045 33.2322 191.415 33.6126C191.786 33.993 192.274 34.1832 192.878 34.1832ZM201.922 35.617C201.19 35.617 200.546 35.4756 199.99 35.1928C199.434 34.9001 199.005 34.4905 198.703 33.9638C198.4 33.4371 198.249 32.8323 198.249 32.1496V28.609C198.249 27.9164 198.4 27.3117 198.703 26.7948C199.005 26.2681 199.434 25.8633 199.99 25.5804C200.546 25.2878 201.19 25.1415 201.922 25.1415C202.643 25.1415 203.277 25.2829 203.824 25.5658C204.38 25.8486 204.809 26.2339 205.111 26.7216C205.413 27.2093 205.565 27.7604 205.565 28.3749V28.4919C205.565 28.5407 205.545 28.5846 205.506 28.6236C205.477 28.6528 205.438 28.6675 205.389 28.6675H204.058C204.009 28.6675 203.965 28.6528 203.926 28.6236C203.897 28.5846 203.882 28.5407 203.882 28.4919V28.4188C203.882 27.8921 203.702 27.458 203.341 27.1166C202.99 26.7752 202.517 26.6046 201.922 26.6046C201.327 26.6046 200.849 26.785 200.488 27.1459C200.127 27.497 199.946 27.9652 199.946 28.5504V32.2081C199.946 32.7933 200.137 33.2664 200.517 33.6273C200.897 33.9784 201.39 34.154 201.995 34.154C202.58 34.154 203.038 34.0028 203.37 33.7004C203.711 33.3883 203.882 32.964 203.882 32.4276V31.5205C203.882 31.4717 203.858 31.4473 203.809 31.4473H202.009C201.961 31.4473 201.917 31.4327 201.878 31.4034C201.848 31.3644 201.834 31.3205 201.834 31.2717V30.1891C201.834 30.1403 201.848 30.1013 201.878 30.072C201.917 30.033 201.961 30.0135 202.009 30.0135H205.389C205.438 30.0135 205.477 30.033 205.506 30.072C205.545 30.1013 205.565 30.1403 205.565 30.1891V32.0618C205.565 33.1835 205.233 34.0564 204.57 34.6807C203.916 35.3049 203.033 35.617 201.922 35.617ZM207.646 35.5C207.597 35.5 207.554 35.4854 207.515 35.4561C207.485 35.4171 207.471 35.3732 207.471 35.3244V25.4341C207.471 25.3853 207.485 25.3463 207.515 25.3171C207.554 25.278 207.597 25.2585 207.646 25.2585H208.992C209.041 25.2585 209.08 25.278 209.109 25.3171C209.148 25.3463 209.168 25.3853 209.168 25.4341V35.3244C209.168 35.3732 209.148 35.4171 209.109 35.4561C209.08 35.4854 209.041 35.5 208.992 35.5H207.646ZM214.606 35.617C213.846 35.617 213.182 35.4951 212.617 35.2513C212.051 35.0074 211.612 34.6661 211.3 34.2271C210.997 33.7882 210.846 33.2713 210.846 32.6763V32.3105C210.846 32.2617 210.861 32.2227 210.89 32.1935C210.929 32.1545 210.973 32.1349 211.022 32.1349H212.324C212.373 32.1349 212.412 32.1545 212.441 32.1935C212.48 32.2227 212.5 32.2617 212.5 32.3105V32.5885C212.5 33.0372 212.699 33.4127 213.099 33.7151C213.499 34.0077 214.045 34.154 214.738 34.154C215.333 34.154 215.782 34.0272 216.084 33.7736C216.386 33.52 216.538 33.1932 216.538 32.7933C216.538 32.5202 216.455 32.291 216.289 32.1057C216.123 31.9106 215.884 31.735 215.572 31.579C215.27 31.4229 214.811 31.2278 214.197 30.9938C213.504 30.7402 212.943 30.5012 212.514 30.2769C212.085 30.0525 211.724 29.7501 211.431 29.3698C211.149 28.9796 211.007 28.4968 211.007 27.9213C211.007 27.063 211.319 26.3851 211.944 25.8877C212.568 25.3902 213.402 25.1415 214.445 25.1415C215.177 25.1415 215.821 25.2683 216.377 25.5219C216.942 25.7755 217.381 26.1315 217.693 26.5899C218.006 27.0386 218.162 27.5604 218.162 28.1554V28.4041C218.162 28.4529 218.142 28.4968 218.103 28.5358C218.074 28.5651 218.035 28.5797 217.986 28.5797H216.669C216.62 28.5797 216.577 28.5651 216.538 28.5358C216.508 28.4968 216.494 28.4529 216.494 28.4041V28.2432C216.494 27.7848 216.303 27.3995 215.923 27.0874C215.552 26.7655 215.036 26.6046 214.372 26.6046C213.836 26.6046 213.416 26.7167 213.114 26.9411C212.821 27.1654 212.675 27.4824 212.675 27.8921C212.675 28.1847 212.753 28.4236 212.909 28.609C213.065 28.7943 213.299 28.965 213.611 29.121C213.924 29.2673 214.406 29.4575 215.06 29.6916C215.752 29.955 216.303 30.1939 216.713 30.4085C217.133 30.6231 217.489 30.9255 217.781 31.3156C218.084 31.696 218.235 32.174 218.235 32.7494C218.235 33.6273 217.908 34.3247 217.254 34.8416C216.611 35.3586 215.728 35.617 214.606 35.617ZM226.488 25.2585C226.537 25.2585 226.576 25.278 226.605 25.3171C226.644 25.3463 226.664 25.3853 226.664 25.4341V26.5607C226.664 26.6094 226.644 26.6533 226.605 26.6923C226.576 26.7216 226.537 26.7362 226.488 26.7362H223.796C223.747 26.7362 223.723 26.7606 223.723 26.8094V35.3244C223.723 35.3732 223.704 35.4171 223.665 35.4561C223.635 35.4854 223.596 35.5 223.548 35.5H222.201C222.153 35.5 222.109 35.4854 222.07 35.4561C222.041 35.4171 222.026 35.3732 222.026 35.3244V26.8094C222.026 26.7606 222.002 26.7362 221.953 26.7362H219.363C219.314 26.7362 219.27 26.7216 219.231 26.6923C219.202 26.6533 219.188 26.6094 219.188 26.5607V25.4341C219.188 25.3853 219.202 25.3463 219.231 25.3171C219.27 25.278 219.314 25.2585 219.363 25.2585H226.488ZM228.406 35.5C228.358 35.5 228.314 35.4854 228.275 35.4561C228.245 35.4171 228.231 35.3732 228.231 35.3244V25.4341C228.231 25.3853 228.245 25.3463 228.275 25.3171C228.314 25.278 228.358 25.2585 228.406 25.2585H229.752C229.801 25.2585 229.84 25.278 229.869 25.3171C229.908 25.3463 229.928 25.3853 229.928 25.4341V35.3244C229.928 35.3732 229.908 35.4171 229.869 35.4561C229.84 35.4854 229.801 35.5 229.752 35.5H228.406ZM235.483 35.617C234.752 35.617 234.108 35.4756 233.552 35.1928C232.996 34.9001 232.567 34.4954 232.265 33.9784C231.962 33.4615 231.811 32.8616 231.811 32.1788V28.5651C231.811 27.8823 231.962 27.2824 232.265 26.7655C232.567 26.2485 232.996 25.8486 233.552 25.5658C234.108 25.2829 234.752 25.1415 235.483 25.1415C236.205 25.1415 236.844 25.278 237.4 25.5511C237.956 25.8243 238.385 26.2095 238.688 26.707C238.99 27.2044 239.141 27.7799 239.141 28.4334C239.141 28.4822 239.122 28.5261 239.083 28.5651C239.053 28.5943 239.014 28.609 238.966 28.609L237.62 28.6821C237.503 28.6821 237.444 28.6285 237.444 28.5212C237.444 27.9457 237.264 27.4824 236.903 27.1313C236.552 26.7801 236.078 26.6046 235.483 26.6046C234.889 26.6046 234.411 26.7801 234.05 27.1313C233.689 27.4824 233.508 27.9457 233.508 28.5212V32.252C233.508 32.8177 233.689 33.2761 234.05 33.6273C234.411 33.9784 234.889 34.154 235.483 34.154C236.078 34.154 236.552 33.9833 236.903 33.6419C237.264 33.2908 237.444 32.8275 237.444 32.252C237.444 32.1447 237.503 32.0911 237.62 32.0911L238.966 32.1496C239.014 32.1496 239.053 32.1642 239.083 32.1935C239.122 32.2227 239.141 32.2569 239.141 32.2959C239.141 32.9591 238.99 33.5444 238.688 34.0516C238.385 34.549 237.956 34.9343 237.4 35.2074C236.844 35.4805 236.205 35.617 235.483 35.617ZM244.268 35.617C243.507 35.617 242.844 35.4951 242.278 35.2513C241.712 35.0074 241.273 34.6661 240.961 34.2271C240.659 33.7882 240.508 33.2713 240.508 32.6763V32.3105C240.508 32.2617 240.522 32.2227 240.552 32.1935C240.591 32.1545 240.634 32.1349 240.683 32.1349H241.985C242.034 32.1349 242.073 32.1545 242.102 32.1935C242.141 32.2227 242.161 32.2617 242.161 32.3105V32.5885C242.161 33.0372 242.361 33.4127 242.761 33.7151C243.161 34.0077 243.707 34.154 244.399 34.154C244.994 34.154 245.443 34.0272 245.745 33.7736C246.048 33.52 246.199 33.1932 246.199 32.7933C246.199 32.5202 246.116 32.291 245.95 32.1057C245.784 31.9106 245.545 31.735 245.233 31.579C244.931 31.4229 244.473 31.2278 243.858 30.9938C243.166 30.7402 242.605 30.5012 242.176 30.2769C241.746 30.0525 241.385 29.7501 241.093 29.3698C240.81 28.9796 240.669 28.4968 240.669 27.9213C240.669 27.063 240.981 26.3851 241.605 25.8877C242.229 25.3902 243.063 25.1415 244.107 25.1415C244.838 25.1415 245.482 25.2683 246.038 25.5219C246.604 25.7755 247.043 26.1315 247.355 26.5899C247.667 27.0386 247.823 27.5604 247.823 28.1554V28.4041C247.823 28.4529 247.803 28.4968 247.764 28.5358C247.735 28.5651 247.696 28.5797 247.647 28.5797H246.331C246.282 28.5797 246.238 28.5651 246.199 28.5358C246.17 28.4968 246.155 28.4529 246.155 28.4041V28.2432C246.155 27.7848 245.965 27.3995 245.584 27.0874C245.214 26.7655 244.697 26.6046 244.034 26.6046C243.497 26.6046 243.078 26.7167 242.775 26.9411C242.483 27.1654 242.336 27.4824 242.336 27.8921C242.336 28.1847 242.415 28.4236 242.571 28.609C242.727 28.7943 242.961 28.965 243.273 29.121C243.585 29.2673 244.068 29.4575 244.721 29.6916C245.414 29.955 245.965 30.1939 246.375 30.4085C246.794 30.6231 247.15 30.9255 247.443 31.3156C247.745 31.696 247.896 32.174 247.896 32.7494C247.896 33.6273 247.569 34.3247 246.916 34.8416C246.272 35.3586 245.389 35.617 244.268 35.617ZM256.645 25.2439C257.26 25.2439 257.801 25.3707 258.269 25.6243C258.738 25.8779 259.099 26.2388 259.352 26.707C259.616 27.1654 259.747 27.697 259.747 28.3017C259.747 28.8967 259.616 29.4234 259.352 29.8818C259.089 30.3403 258.713 30.6963 258.226 30.9499C257.748 31.1937 257.192 31.3156 256.558 31.3156H254.217C254.168 31.3156 254.144 31.34 254.144 31.3888V35.3244C254.144 35.3732 254.124 35.4171 254.085 35.4561C254.056 35.4854 254.017 35.5 253.968 35.5H252.622C252.573 35.5 252.529 35.4854 252.49 35.4561C252.461 35.4171 252.446 35.3732 252.446 35.3244V25.4195C252.446 25.3707 252.461 25.3317 252.49 25.3024C252.529 25.2634 252.573 25.2439 252.622 25.2439H256.645ZM256.397 29.9403C256.894 29.9403 257.294 29.794 257.596 29.5014C257.899 29.2088 258.05 28.8235 258.05 28.3456C258.05 27.8579 257.899 27.4629 257.596 27.1605C257.294 26.8582 256.894 26.707 256.397 26.707H254.217C254.168 26.707 254.144 26.7314 254.144 26.7801V29.8672C254.144 29.916 254.168 29.9403 254.217 29.9403H256.397ZM261.411 35.5C261.362 35.5 261.318 35.4854 261.279 35.4561C261.25 35.4171 261.236 35.3732 261.236 35.3244V25.4341C261.236 25.3853 261.25 25.3463 261.279 25.3171C261.318 25.278 261.362 25.2585 261.411 25.2585H262.757C262.806 25.2585 262.845 25.278 262.874 25.3171C262.913 25.3463 262.933 25.3853 262.933 25.4341V33.9638C262.933 34.0125 262.957 34.0369 263.006 34.0369H267.907C267.956 34.0369 267.995 34.0564 268.024 34.0955C268.063 34.1247 268.083 34.1637 268.083 34.2125V35.3244C268.083 35.3732 268.063 35.4171 268.024 35.4561C267.995 35.4854 267.956 35.5 267.907 35.5H261.411ZM276.329 35.5C276.232 35.5 276.168 35.4512 276.139 35.3537L275.656 33.7882C275.637 33.7492 275.612 33.7297 275.583 33.7297H271.721C271.691 33.7297 271.667 33.7492 271.648 33.7882L271.165 35.3537C271.135 35.4512 271.072 35.5 270.975 35.5H269.511C269.453 35.5 269.409 35.4854 269.38 35.4561C269.351 35.4171 269.346 35.3634 269.365 35.2952L272.54 25.4048C272.569 25.3073 272.633 25.2585 272.73 25.2585H274.559C274.657 25.2585 274.72 25.3073 274.749 25.4048L277.939 35.2952C277.948 35.3147 277.953 35.3391 277.953 35.3683C277.953 35.4561 277.9 35.5 277.792 35.5H276.329ZM272.101 32.3105C272.091 32.369 272.111 32.3983 272.16 32.3983H275.13C275.188 32.3983 275.208 32.369 275.188 32.3105L273.681 27.4092C273.671 27.3702 273.657 27.3507 273.637 27.3507C273.618 27.3507 273.603 27.3702 273.593 27.4092L272.101 32.3105ZM285.054 25.2585C285.103 25.2585 285.142 25.278 285.171 25.3171C285.21 25.3463 285.229 25.3853 285.229 25.4341V26.5607C285.229 26.6094 285.21 26.6533 285.171 26.6923C285.142 26.7216 285.103 26.7362 285.054 26.7362H282.362C282.313 26.7362 282.289 26.7606 282.289 26.8094V35.3244C282.289 35.3732 282.269 35.4171 282.23 35.4561C282.201 35.4854 282.162 35.5 282.113 35.5H280.767C280.718 35.5 280.674 35.4854 280.635 35.4561C280.606 35.4171 280.591 35.3732 280.591 35.3244V26.8094C280.591 26.7606 280.567 26.7362 280.518 26.7362H277.929C277.88 26.7362 277.836 26.7216 277.797 26.6923C277.768 26.6533 277.753 26.6094 277.753 26.5607V25.4341C277.753 25.3853 277.768 25.3463 277.797 25.3171C277.836 25.278 277.88 25.2585 277.929 25.2585H285.054ZM293.717 26.546C293.717 26.5948 293.697 26.6387 293.658 26.6777C293.629 26.707 293.59 26.7216 293.541 26.7216H288.567C288.518 26.7216 288.493 26.746 288.493 26.7948V29.5307C288.493 29.5795 288.518 29.6038 288.567 29.6038H291.917C291.966 29.6038 292.005 29.6234 292.034 29.6624C292.073 29.6916 292.093 29.7306 292.093 29.7794V30.8913C292.093 30.9401 292.073 30.984 292.034 31.023C292.005 31.0523 291.966 31.0669 291.917 31.0669H288.567C288.518 31.0669 288.493 31.0913 288.493 31.1401V35.3244C288.493 35.3732 288.474 35.4171 288.435 35.4561C288.406 35.4854 288.367 35.5 288.318 35.5H286.972C286.923 35.5 286.879 35.4854 286.84 35.4561C286.811 35.4171 286.796 35.3732 286.796 35.3244V25.4341C286.796 25.3853 286.811 25.3463 286.84 25.3171C286.879 25.278 286.923 25.2585 286.972 25.2585H293.541C293.59 25.2585 293.629 25.278 293.658 25.3171C293.697 25.3463 293.717 25.3853 293.717 25.4341V26.546ZM298.479 35.6463C297.748 35.6463 297.099 35.5 296.533 35.2074C295.968 34.905 295.529 34.4807 295.217 33.9345C294.914 33.3883 294.763 32.7592 294.763 32.0472V28.7114C294.763 28.0091 294.919 27.3897 295.231 26.8533C295.543 26.3071 295.977 25.8877 296.533 25.595C297.099 25.2927 297.748 25.1415 298.479 25.1415C299.221 25.1415 299.869 25.2927 300.425 25.595C300.991 25.8877 301.43 26.3071 301.742 26.8533C302.054 27.3897 302.21 28.0091 302.21 28.7114V32.0472C302.21 32.7592 302.054 33.3883 301.742 33.9345C301.43 34.4807 300.991 34.905 300.425 35.2074C299.869 35.5 299.221 35.6463 298.479 35.6463ZM298.479 34.1832C299.094 34.1832 299.586 33.993 299.957 33.6126C300.328 33.2322 300.513 32.7299 300.513 32.1057V28.6967C300.513 28.0627 300.328 27.5555 299.957 27.1752C299.586 26.7948 299.094 26.6046 298.479 26.6046C297.875 26.6046 297.387 26.7948 297.016 27.1752C296.646 27.5555 296.46 28.0627 296.46 28.6967V32.1057C296.46 32.7299 296.646 33.2322 297.016 33.6126C297.387 33.993 297.875 34.1832 298.479 34.1832ZM309.849 35.5C309.751 35.5 309.683 35.4561 309.644 35.3683L307.713 31.1547C307.693 31.1157 307.664 31.0962 307.625 31.0962H305.869C305.82 31.0962 305.796 31.1206 305.796 31.1693V35.3244C305.796 35.3732 305.776 35.4171 305.737 35.4561C305.708 35.4854 305.669 35.5 305.62 35.5H304.274C304.226 35.5 304.182 35.4854 304.143 35.4561C304.113 35.4171 304.099 35.3732 304.099 35.3244V25.4341C304.099 25.3853 304.113 25.3463 304.143 25.3171C304.182 25.278 304.226 25.2585 304.274 25.2585H308.298C308.893 25.2585 309.419 25.3853 309.878 25.6389C310.336 25.8828 310.692 26.2339 310.946 26.6923C311.2 27.141 311.326 27.658 311.326 28.2432C311.326 28.9162 311.151 29.4917 310.8 29.9696C310.458 30.4378 309.98 30.7645 309.366 30.9499C309.346 30.9499 309.332 30.9596 309.322 30.9791C309.312 30.9986 309.312 31.0181 309.322 31.0376L311.385 35.2952C311.404 35.3342 311.414 35.3634 311.414 35.383C311.414 35.461 311.36 35.5 311.253 35.5H309.849ZM305.869 26.7216C305.82 26.7216 305.796 26.746 305.796 26.7948V29.7063C305.796 29.755 305.82 29.7794 305.869 29.7794H308.064C308.532 29.7794 308.907 29.6429 309.19 29.3698C309.483 29.0869 309.629 28.7162 309.629 28.2578C309.629 27.7994 309.483 27.4288 309.19 27.1459C308.907 26.863 308.532 26.7216 308.064 26.7216H305.869ZM319.67 25.3756C319.719 25.2976 319.787 25.2585 319.875 25.2585H321.221C321.27 25.2585 321.309 25.278 321.338 25.3171C321.377 25.3463 321.396 25.3853 321.396 25.4341V35.3244C321.396 35.3732 321.377 35.4171 321.338 35.4561C321.309 35.4854 321.27 35.5 321.221 35.5H319.875C319.826 35.5 319.782 35.4854 319.743 35.4561C319.714 35.4171 319.699 35.3732 319.699 35.3244V28.3456C319.699 28.3163 319.685 28.2968 319.655 28.2871C319.636 28.2773 319.621 28.2871 319.611 28.3163L317.783 31.1254C317.734 31.2035 317.666 31.2425 317.578 31.2425H316.905C316.817 31.2425 316.749 31.2035 316.7 31.1254L314.856 28.331C314.847 28.3017 314.827 28.292 314.798 28.3017C314.778 28.3115 314.769 28.331 314.769 28.3602V35.3244C314.769 35.3732 314.749 35.4171 314.71 35.4561C314.681 35.4854 314.642 35.5 314.593 35.5H313.247C313.198 35.5 313.154 35.4854 313.115 35.4561C313.086 35.4171 313.072 35.3732 313.072 35.3244V25.4341C313.072 25.3853 313.086 25.3463 313.115 25.3171C313.154 25.278 313.198 25.2585 313.247 25.2585H314.593C314.681 25.2585 314.749 25.2976 314.798 25.3756L317.183 28.9894C317.202 29.0089 317.222 29.0186 317.241 29.0186C317.261 29.0186 317.275 29.0089 317.285 28.9894L319.67 25.3756Z" fill="black"/>
<g clip-path="url(#clip0_6685_13783)">
<path d="M0.0558162 3.20581C0.154171 3.20581 0.252525 3.19629 0.350879 3.19629C10.678 3.19629 21.0053 3.19629 31.3325 3.19629C31.5918 3.19629 31.6454 3.26294 31.6454 3.52952C31.6454 14.5358 31.6454 25.5421 31.6454 36.5388C31.6454 36.7959 31.6096 36.8815 31.3414 36.8815C21.5239 36.8815 11.6974 36.8815 1.87984 36.8815H1.57584C1.66525 36.7769 1.71889 36.7102 1.78148 36.6531C6.66344 31.4546 11.5454 26.2657 16.4184 21.0577C16.5972 20.8673 16.6687 20.9053 16.8297 21.0672C18.162 22.5048 19.5121 23.933 20.8532 25.3612C20.9248 25.4373 20.9784 25.523 21.0321 25.5992C21.1394 25.504 21.1037 25.4183 21.1037 25.3517C21.1037 21.8003 21.1037 18.249 21.1037 14.6977C21.1037 14.5263 21.1037 14.4311 20.889 14.4311C17.4913 14.4311 14.0937 14.4311 10.696 14.4311C10.6692 14.4311 10.6423 14.4311 10.6155 14.4311C10.5708 14.3834 10.5171 14.3454 10.4725 14.2978C7.03002 10.6512 3.60551 7.00469 0.172053 3.35815C0.127347 3.31054 0.0915813 3.26294 0.046875 3.20581H0.0558162Z" fill="#2BB04C"/>
<path d="M0.0558832 3.20605C0.10059 3.25366 0.136355 3.31079 0.181062 3.35839C3.60558 7.00494 7.03904 10.661 10.4635 14.3076C10.5083 14.3552 10.553 14.3932 10.6066 14.4408C10.6692 14.517 10.7318 14.5932 10.8033 14.6693C12.1624 16.1165 13.5215 17.5732 14.8895 19.0109C15.0058 19.1347 15.0594 19.2013 14.9074 19.3632C9.98072 24.5902 5.06301 29.8267 0.145296 35.0634C0.118472 35.0919 0.0827069 35.13 0.0469418 35.1586C-0.0245885 35.0823 0.0111766 34.9967 0.0111766 34.9205C0.0111766 24.4379 0.0111766 13.9553 0.0111766 3.47264C0.0111766 3.38695 -0.0335299 3.28222 0.0558832 3.21558V3.20605Z" fill="#F47922"/>
<path d="M141.349 14.0881C141.349 10.5557 141.349 7.04252 141.349 3.52928C141.349 3.26269 141.393 3.18652 141.662 3.18652C142.878 3.20557 144.094 3.19604 145.31 3.18652C145.498 3.18652 145.542 3.24365 145.542 3.43407C145.542 9.82266 145.542 16.2017 145.542 22.5903C145.542 22.7903 145.479 22.8379 145.301 22.8379C144.264 22.8379 143.226 22.8379 142.189 22.8379C142.01 22.8379 141.903 22.7808 141.805 22.6189C139.658 19.1818 137.513 15.7447 135.367 12.2982C135.314 12.2124 135.26 12.1267 135.152 11.9744V12.3362C135.152 15.7352 135.152 19.1342 135.152 22.5332C135.152 22.7903 135.081 22.8379 134.857 22.8379C133.641 22.8284 132.425 22.8284 131.209 22.8379C131.022 22.8379 130.977 22.7903 130.977 22.5903C130.977 16.2017 130.977 9.82266 130.977 3.43407C130.977 3.23413 131.03 3.18652 131.209 3.18652C132.237 3.19604 133.266 3.19604 134.294 3.18652C134.473 3.18652 134.562 3.25317 134.652 3.40551C136.824 6.90923 139.006 10.4225 141.188 13.9262C141.223 13.9833 141.242 14.069 141.349 14.0975V14.0881Z" fill="black"/>
<path d="M76.3516 13.0027C76.3516 9.83218 76.3516 6.65217 76.3516 3.48167C76.3516 3.24365 76.4052 3.18652 76.629 3.18652C79.0695 3.19604 81.5107 3.16748 83.952 3.21509C85.4541 3.24365 86.9026 3.60545 88.1627 4.55755C89.3339 5.43348 89.9958 6.66169 90.2018 8.15648C90.3803 9.41326 90.3267 10.6605 89.8801 11.8602C89.4328 13.0503 88.6369 13.9071 87.5637 14.4784C87.3676 14.5832 87.376 14.6593 87.4565 14.8307C88.6101 17.4014 89.7637 19.9721 90.9081 22.5523C91.0421 22.8473 91.0421 22.8473 90.738 22.8473C89.2987 22.8473 87.8678 22.8473 86.4285 22.8473C86.214 22.8473 86.1244 22.7712 86.044 22.5713C85.0964 20.2672 84.1397 17.9726 83.2006 15.6781C83.1201 15.4877 83.0305 15.4114 82.8336 15.4114C82.253 15.4305 81.6624 15.4305 81.0818 15.4114C80.8313 15.4114 80.7953 15.4972 80.7953 15.7352C80.7953 18.0107 80.7953 20.2862 80.8045 22.5617C80.8045 22.7997 80.7417 22.8569 80.5272 22.8473C79.2304 22.8379 77.9343 22.8379 76.6374 22.8473C76.4231 22.8473 76.3605 22.7997 76.3605 22.5617C76.3605 19.3818 76.3605 16.1922 76.3605 13.0122L76.3516 13.0027ZM80.7861 9.28948C80.7861 9.74649 80.7861 10.194 80.7861 10.6509C80.7861 10.9176 80.6789 11.2603 80.8313 11.4127C80.9922 11.584 81.3139 11.4698 81.5736 11.4603C82.4583 11.4603 83.3438 11.5269 84.2285 11.3555C84.9624 11.2127 85.5614 10.889 85.7667 10.0512C85.8831 9.56559 85.8831 9.08002 85.749 8.59445C85.5078 7.69947 84.8544 7.35672 84.0769 7.2139C83.0397 7.02348 81.9933 7.12822 80.9477 7.09966C80.7777 7.09966 80.7953 7.20438 80.7953 7.31864C80.7953 7.96606 80.7953 8.62301 80.7953 9.27044L80.7861 9.28948Z" fill="black"/>
<path d="M42.1719 13.0024C42.1719 9.83194 42.1719 6.65192 42.1719 3.48143C42.1719 3.2434 42.2256 3.18628 42.4491 3.18628C43.7545 3.1958 45.0599 3.1958 46.3654 3.18628C46.5978 3.18628 46.6336 3.25293 46.6336 3.48143C46.6336 5.78551 46.6336 8.08959 46.6247 10.3937C46.6247 10.6222 46.6694 10.6983 46.9019 10.6888C48.6007 10.6793 50.2906 10.6793 51.9894 10.6888C52.2219 10.6888 52.3024 10.6412 52.3024 10.3651C52.2935 8.07055 52.3024 5.77599 52.2935 3.48143C52.2935 3.23388 52.356 3.17676 52.5796 3.17676C53.8761 3.18628 55.1726 3.18628 56.469 3.17676C56.6747 3.17676 56.7552 3.21484 56.7552 3.46239C56.7552 9.82241 56.7552 16.173 56.7552 22.533C56.7552 22.7615 56.7194 22.8376 56.4869 22.8281C55.1726 22.8186 53.8582 22.8186 52.5438 22.8281C52.3382 22.8281 52.2935 22.7615 52.2935 22.5615C52.2935 20.0194 52.2935 17.4773 52.3024 14.9352C52.3024 14.6972 52.2577 14.621 52.0162 14.621C50.3174 14.6305 48.6275 14.6305 46.9287 14.621C46.7052 14.621 46.6336 14.6686 46.6336 14.9257C46.6426 17.4582 46.6336 19.9908 46.6426 22.5234C46.6426 22.7805 46.58 22.8376 46.3475 22.8281C45.051 22.8186 43.7545 22.8186 42.4581 22.8281C42.2434 22.8281 42.1808 22.7805 42.1808 22.5424C42.1808 19.3625 42.1808 16.173 42.1808 12.9929L42.1719 13.0024Z" fill="black"/>
<path d="M59.2668 12.8311C59.2846 12.0028 59.222 11.0125 59.3294 10.0224C59.535 8.05155 60.0804 6.24256 61.4574 4.82393C62.4052 3.85279 63.5586 3.30057 64.8372 3.06255C66.4288 2.7674 68.0024 2.82452 69.5224 3.43387C71.6147 4.27171 72.8397 5.94741 73.4298 8.19436C73.698 9.22263 73.8053 10.289 73.8053 11.3553C73.8053 12.6026 73.8232 13.8498 73.7964 15.0971C73.7606 16.5919 73.5013 18.0391 72.8486 19.3815C72.0439 21.0382 70.81 22.1521 69.138 22.7139C67.4927 23.2565 65.8208 23.2756 64.1576 22.7901C61.9044 22.1236 60.4649 20.5431 59.7406 18.2009C59.4009 17.1156 59.2668 16.0016 59.2578 14.859C59.2578 14.2402 59.2578 13.6118 59.2578 12.8311H59.2668ZM69.3704 13.1453C69.3704 12.4312 69.3794 11.8314 69.3704 11.222C69.3526 10.5175 69.2989 9.81293 69.129 9.12742C68.7803 7.72783 68.065 6.99472 66.84 6.86143C65.6509 6.72813 64.6763 7.23274 64.1756 8.48951C63.9252 9.1179 63.8 9.78437 63.7553 10.4604C63.6659 11.9647 63.7016 13.4785 63.7196 14.9829C63.7196 15.5636 63.7911 16.1444 63.9163 16.7157C64.2113 18.1533 64.9356 18.9531 66.1337 19.153C67.3229 19.3625 68.3779 18.7817 68.8697 17.6487C69.0932 17.1345 69.2185 16.5824 69.2899 16.0206C69.4152 15.0209 69.3615 14.0212 69.3794 13.1358L69.3704 13.1453Z" fill="black"/>
<path d="M128.436 13.1549C128.419 14.1831 128.481 15.3256 128.329 16.4587C128.052 18.4295 127.399 20.1909 125.915 21.4952C124.815 22.4664 123.519 22.9424 122.115 23.0757C120.702 23.209 119.316 23.0948 117.993 22.5044C115.928 21.5809 114.765 19.8577 114.219 17.6107C113.987 16.6681 113.888 15.6969 113.888 14.7258C113.888 13.45 113.871 12.1742 113.898 10.8984C113.934 9.36548 114.211 7.88972 114.89 6.5187C115.677 4.93822 116.875 3.87186 118.467 3.33869C120.157 2.76743 121.873 2.73887 123.572 3.253C125.96 3.96708 127.39 5.69038 128.052 8.18487C128.312 9.16554 128.427 10.1748 128.436 11.2031C128.436 11.8124 128.436 12.4312 128.436 13.1643V13.1549ZM124.001 13.012C124.001 12.5074 124.001 12.0123 124.001 11.5077C123.984 10.5747 123.93 9.64159 123.635 8.74662C123.232 7.52793 122.401 6.85194 121.247 6.8329C120.013 6.80433 119.182 7.40415 118.735 8.64188C118.431 9.46069 118.35 10.3271 118.341 11.1935C118.324 12.4122 118.333 13.6309 118.341 14.8496C118.341 15.5446 118.413 16.2396 118.592 16.9156C118.905 18.0962 119.495 18.9817 120.729 19.1531C121.927 19.3245 122.964 18.8865 123.501 17.6297C123.716 17.1251 123.832 16.6015 123.903 16.0588C124.037 15.0496 124.001 14.0213 124.001 13.012Z" fill="black"/>
<path d="M105.482 18.906H106.77C108.567 18.906 110.373 18.906 112.171 18.906C112.376 18.906 112.439 18.9536 112.43 19.1821C112.42 20.3151 112.42 21.448 112.43 22.581C112.43 22.7905 112.385 22.8476 112.179 22.8476C108.165 22.8476 104.141 22.8476 100.126 22.8476C99.9116 22.8476 99.8672 22.7715 99.8672 22.562C99.8764 21.7527 99.8764 20.9339 99.8672 20.1246C99.8672 19.8771 99.9208 19.6676 100.037 19.4581C102.201 15.4403 104.364 11.4225 106.519 7.39505C106.564 7.31887 106.6 7.23319 106.654 7.11894C106.538 7.11894 106.448 7.11894 106.367 7.11894C104.293 7.11894 102.219 7.11894 100.144 7.11894C99.9384 7.11894 99.8764 7.07133 99.8764 6.84283C99.8848 5.70983 99.8848 4.57683 99.8764 3.44383C99.8764 3.22485 99.9384 3.18677 100.126 3.18677C104.06 3.18677 107.986 3.18677 111.92 3.18677C112.108 3.18677 112.179 3.22485 112.171 3.44383C112.152 4.31025 112.171 5.18618 112.171 6.05259C112.171 6.1954 112.144 6.32869 112.072 6.45247C109.944 10.4799 107.807 14.5072 105.679 18.5346C105.625 18.6393 105.572 18.7441 105.491 18.8964L105.482 18.906Z" fill="black"/>
<path d="M97.4932 13.041C97.4932 16.2019 97.4932 19.3629 97.4932 22.5334C97.4932 22.781 97.4396 22.8476 97.2067 22.8476C95.893 22.8381 94.5786 22.8381 93.2725 22.8476C93.0673 22.8476 93.0312 22.7905 93.0312 22.581C93.0312 16.2115 93.0312 9.83242 93.0312 3.46288C93.0312 3.26294 93.0673 3.19629 93.2725 3.19629C94.587 3.20581 95.9015 3.20581 97.2067 3.19629C97.4304 3.19629 97.5024 3.24389 97.5024 3.50096C97.4932 6.68097 97.5024 9.86099 97.5024 13.0505L97.4932 13.041Z" fill="black"/>
<path d="M47.5953 32.0832C47.5953 33.6447 47.5953 35.1205 47.5953 36.5867C47.5953 36.8247 47.5326 36.8818 47.3181 36.8724C46.8442 36.8533 46.3793 36.8628 45.9053 36.8724C45.7623 36.8724 45.7266 36.8342 45.7266 36.6819C45.7266 33.8923 45.7266 31.1121 45.7266 28.3225C45.7266 28.1701 45.7712 28.1321 45.9053 28.1321C46.2898 28.1415 46.6654 28.1415 47.0498 28.1321C47.2287 28.1321 47.3359 28.1891 47.4343 28.351C48.3732 29.8839 49.321 31.4073 50.2866 32.9496C50.3581 32.845 50.3313 32.7498 50.3313 32.6545C50.3313 31.2359 50.3313 29.8173 50.3313 28.4082C50.3313 28.1987 50.376 28.1321 50.5816 28.1415C51.0556 28.1606 51.5205 28.1511 51.9944 28.1415C52.1464 28.1415 52.2089 28.1701 52.2089 28.351C52.2089 31.1216 52.2089 33.8827 52.2089 36.6533C52.2089 36.8247 52.1821 36.8818 52.0033 36.8724C51.601 36.8533 51.2075 36.8628 50.8052 36.8724C50.6532 36.8724 50.5727 36.8247 50.4833 36.6819C49.5892 35.2347 48.6771 33.7875 47.7741 32.3499C47.7294 32.2832 47.6847 32.2166 47.5953 32.0737V32.0832Z" fill="black"/>
<path d="M131.221 36.8719C130.524 36.8719 129.862 36.8719 129.2 36.8719C129.039 36.8719 129.013 36.7577 128.968 36.6529C128.575 35.7008 128.172 34.7487 127.788 33.7871C127.725 33.6252 127.645 33.5491 127.475 33.5681C127.287 33.5872 127.099 33.5872 126.921 33.5681C126.732 33.5491 126.679 33.6252 126.688 33.8156C126.697 34.7392 126.688 35.6627 126.697 36.5958C126.697 36.8147 126.652 36.8814 126.437 36.8719C125.946 36.8529 125.445 36.8623 124.944 36.8719C124.765 36.8719 124.703 36.8433 124.703 36.6339C124.703 33.8728 124.703 31.1212 124.703 28.3601C124.703 28.2268 124.703 28.1316 124.882 28.1316C126.089 28.1697 127.296 28.0555 128.494 28.1983C129.514 28.322 130.381 28.7505 130.729 29.8644C131.024 30.807 130.989 31.7401 130.39 32.5684C130.228 32.7969 130.014 32.9778 129.773 33.1016C129.602 33.1873 129.621 33.2634 129.683 33.4157C130.184 34.5202 130.676 35.6247 131.167 36.7291C131.185 36.7577 131.194 36.7957 131.221 36.8719ZM126.688 30.8642C126.688 31.1307 126.688 31.3878 126.688 31.6544C126.688 31.7591 126.688 31.8353 126.822 31.8353C127.269 31.8162 127.725 31.8638 128.172 31.7782C128.682 31.6829 128.905 31.4354 128.915 30.9213C128.915 30.3786 128.691 30.0644 128.208 29.9596C127.752 29.8644 127.287 29.912 126.831 29.9025C126.705 29.9025 126.688 29.9691 126.688 30.0739C126.688 30.3405 126.688 30.5975 126.688 30.8642Z" fill="black"/>
<path d="M89.4177 36.8721C88.7207 36.8721 88.0497 36.8721 87.3878 36.8721C87.2454 36.8721 87.2094 36.7864 87.1734 36.6817C86.7804 35.7296 86.3775 34.7776 85.9929 33.8159C85.9217 33.635 85.8321 33.5493 85.6444 33.5683C85.4031 33.5874 85.0722 33.4922 84.929 33.6159C84.7773 33.7588 84.8845 34.111 84.8845 34.3777C84.8845 35.1298 84.8845 35.8915 84.8845 36.6436C84.8845 36.834 84.8309 36.8816 84.6609 36.8721C84.1331 36.8626 83.6145 36.8626 83.0875 36.8721C82.9351 36.8721 82.8906 36.834 82.8906 36.6722C82.8906 33.8921 82.8906 31.1215 82.8906 28.3413C82.8906 28.2176 82.8906 28.1318 83.0515 28.1414C84.2587 28.1794 85.4659 28.0652 86.664 28.208C87.6743 28.3318 88.5322 28.7602 88.9083 29.8647C89.2745 30.9406 89.096 32.5306 87.8888 33.1494C87.7187 33.2351 87.8352 33.3398 87.8712 33.4255C88.3178 34.4348 88.7743 35.444 89.2301 36.4532C89.2837 36.577 89.3373 36.7103 89.4085 36.8816L89.4177 36.8721ZM84.8753 30.8644C84.8753 31.131 84.8753 31.3976 84.8753 31.6546C84.8753 31.7594 84.8753 31.8355 85.0094 31.826C85.4475 31.807 85.8949 31.8546 86.333 31.7784C86.8608 31.6832 87.0929 31.4262 87.1021 30.9215C87.1021 30.3597 86.8692 30.0647 86.333 29.9504C85.8949 29.8552 85.4475 29.9218 85.0094 29.8932C84.8753 29.8932 84.8669 29.9599 84.8753 30.0647C84.8753 30.3312 84.8753 30.5978 84.8753 30.8548V30.8644Z" fill="black"/>
<path d="M53.7188 32.4922C53.7188 31.1212 53.7188 29.7501 53.7188 28.3886C53.7188 28.1982 53.7634 28.1316 53.9512 28.1411C54.9794 28.1506 56.0077 28.1221 57.0359 28.1601C58.2698 28.2077 59.2445 28.7218 59.7273 30.0263C59.8882 30.4547 59.9686 30.9117 59.9866 31.3783C60.0223 32.3113 60.0849 33.2539 59.924 34.1774C59.62 35.9673 58.5918 36.8623 56.884 36.8813C55.9094 36.8813 54.9347 36.8813 53.9601 36.8813C53.7724 36.8813 53.7276 36.8337 53.7276 36.6339C53.7276 35.2533 53.7276 33.8727 53.7276 32.5017L53.7188 32.4922ZM55.6947 32.4731C55.6947 33.2825 55.6947 34.0917 55.6947 34.9105C55.6947 35.0629 55.7305 35.12 55.8825 35.12C56.1687 35.1105 56.4458 35.12 56.7319 35.12C57.4204 35.12 57.8049 34.8344 57.9301 34.1013C58.1089 33.0634 58.1 32.0162 57.939 30.9784C57.8138 30.1881 57.4383 29.9025 56.6783 29.9025C56.419 29.9025 56.1597 29.912 55.9094 29.9025C55.7305 29.8929 55.6858 29.9501 55.6947 30.1309C55.7037 30.9117 55.6947 31.7019 55.6947 32.4827V32.4731Z" fill="black"/>
<path d="M134.911 33.5397C134.687 33.8634 134.491 34.1585 134.285 34.4441C134.205 34.5489 134.196 34.6632 134.196 34.7869C134.196 35.3962 134.196 36.0151 134.196 36.6244C134.196 36.7958 134.178 36.872 133.99 36.872C133.472 36.8529 132.944 36.8624 132.416 36.872C132.255 36.872 132.211 36.8244 132.211 36.653C132.211 33.8824 132.211 31.1213 132.211 28.3507C132.211 28.1602 132.273 28.1317 132.425 28.1413C132.952 28.1413 133.472 28.1508 133.999 28.1413C134.169 28.1413 134.205 28.1889 134.205 28.3602C134.205 29.2361 134.205 30.1216 134.205 30.9975V31.2736C134.312 31.2736 134.33 31.1784 134.366 31.1308C134.974 30.2073 135.581 29.2743 136.18 28.3412C136.279 28.1889 136.377 28.1317 136.547 28.1413C137.218 28.1508 137.897 28.1413 138.622 28.1413C138.514 28.2936 138.434 28.4173 138.354 28.5412C137.682 29.5217 137.003 30.512 136.324 31.4831C136.226 31.6259 136.226 31.7211 136.314 31.8735C137.191 33.4539 138.059 35.044 138.926 36.6244C138.962 36.6911 138.989 36.7577 139.042 36.8624C138.47 36.8624 137.924 36.8148 137.378 36.872C136.842 36.9291 136.556 36.7292 136.324 36.2151C135.948 35.3962 135.501 34.6155 135.081 33.8253C135.036 33.7396 134.982 33.6539 134.911 33.5301V33.5397Z" fill="black"/>
<path d="M67.786 31.1594C67.786 32.0735 67.8218 32.997 67.786 33.911C67.7055 35.7486 66.5342 36.9292 64.7996 36.9958C64.0038 37.0244 63.2438 36.9006 62.5733 36.396C61.8132 35.8153 61.4645 34.9774 61.393 34.0252C61.2857 32.5685 61.3661 31.1024 61.3483 29.6361C61.3483 29.2171 61.3572 28.8078 61.3483 28.3889C61.3483 28.1794 61.4108 28.1413 61.5897 28.1413C62.0993 28.1508 62.6001 28.1508 63.1097 28.1413C63.2974 28.1413 63.3422 28.1889 63.3422 28.3889C63.3422 30.0645 63.3422 31.7307 63.3422 33.4064C63.3422 33.8063 63.3779 34.1967 63.5299 34.568C63.7356 35.0631 64.1112 35.2439 64.6029 35.2439C65.0857 35.2439 65.4612 35.0631 65.6669 34.568C65.8457 34.1395 65.8547 33.6826 65.8547 33.2351C65.8547 31.626 65.8547 30.0265 65.8547 28.4174C65.8547 28.1889 65.9172 28.1413 66.1229 28.1413C66.6057 28.1603 67.0796 28.1603 67.5625 28.1413C67.7949 28.1318 67.8307 28.2175 67.8307 28.4459C67.8218 29.3505 67.8307 30.255 67.8307 31.169H67.8128L67.786 31.1594Z" fill="black"/>
<path d="M124.014 36.8718C123.344 36.8718 122.7 36.8718 122.065 36.8718C121.931 36.8718 121.886 36.8242 121.85 36.6909C121.752 36.3196 121.627 35.9578 121.528 35.5865C121.492 35.4341 121.43 35.377 121.278 35.377C120.572 35.3865 119.856 35.3865 119.15 35.377C118.98 35.377 118.926 35.4437 118.882 35.6055C118.792 35.9673 118.677 36.3196 118.578 36.6814C118.542 36.8242 118.48 36.8718 118.337 36.8622C117.774 36.8622 117.201 36.8528 116.638 36.8622C116.459 36.8622 116.414 36.8432 116.486 36.6338C117.058 34.9105 117.612 33.1872 118.176 31.4639C118.507 30.4451 118.846 29.4263 119.168 28.3981C119.24 28.1791 119.329 28.1124 119.544 28.122C120.009 28.141 120.482 28.141 120.956 28.122C121.135 28.122 121.198 28.1886 121.251 28.3505C122.047 30.8069 122.852 33.2538 123.648 35.7102C123.773 36.0815 123.889 36.4529 124.023 36.8622L124.014 36.8718ZM120.214 31.083C119.963 31.9209 119.741 32.6921 119.508 33.4632C119.472 33.5775 119.481 33.6347 119.615 33.6347C120.009 33.6347 120.393 33.6347 120.786 33.6347C120.903 33.6347 120.947 33.5966 120.912 33.4728C120.688 32.7016 120.464 31.9304 120.214 31.083Z" fill="black"/>
<path d="M93.3295 36.8723C93.6068 36.0345 93.8749 35.2157 94.1338 34.3969C94.7956 32.3784 95.4483 30.3695 96.1009 28.351C96.1545 28.1987 96.2081 28.1321 96.369 28.1321C96.87 28.1415 97.3617 28.1415 97.8627 28.1321C98.0144 28.1321 98.0948 28.1701 98.1484 28.3415C99.0431 31.1026 99.9462 33.8637 100.849 36.6248C100.911 36.8247 100.903 36.8819 100.688 36.8723C100.134 36.8628 99.5701 36.8723 99.0163 36.8723C98.8731 36.8723 98.8011 36.8437 98.7566 36.6724C98.667 36.301 98.5422 35.9393 98.4441 35.568C98.4081 35.4346 98.3453 35.3775 98.2021 35.3775C97.4874 35.3775 96.7627 35.387 96.0473 35.3775C95.8864 35.3775 95.8328 35.4537 95.7968 35.587C95.6988 35.9583 95.5823 36.3201 95.4843 36.6914C95.4575 36.7866 95.4398 36.8628 95.3142 36.8628C94.6616 36.8628 94.0089 36.8628 93.3203 36.8628L93.3295 36.8723ZM97.8711 33.6352L97.1565 31.1692C96.8792 31.95 96.6463 32.7307 96.4142 33.521C96.3782 33.6542 96.4502 33.6352 96.5214 33.6352C96.9596 33.6352 97.4062 33.6352 97.8711 33.6352Z" fill="black"/>
<path d="M110.704 32.4923C110.704 31.1214 110.704 29.7503 110.704 28.3888C110.704 28.2269 110.704 28.1317 110.91 28.1413C111.965 28.1603 113.02 28.1413 114.075 28.1603C114.611 28.1698 115.13 28.2746 115.613 28.5412C116.516 29.0268 116.954 29.9597 116.892 31.1784C116.802 33.0446 115.595 33.8538 114.039 33.9205C113.673 33.9396 113.315 33.9301 112.948 33.9205C112.751 33.9205 112.68 33.9586 112.68 34.1966C112.698 35.0059 112.68 35.8247 112.689 36.634C112.689 36.8339 112.636 36.8911 112.456 36.8815C111.965 36.872 111.482 36.8625 110.99 36.8815C110.767 36.8815 110.695 36.8435 110.695 36.5769C110.713 35.2153 110.695 33.8538 110.695 32.5019L110.704 32.4923ZM112.689 31.0261C112.689 31.3499 112.689 31.664 112.689 31.9878C112.689 32.0734 112.68 32.1687 112.806 32.1591C113.261 32.1401 113.726 32.2067 114.182 32.0925C114.665 31.9592 114.907 31.6164 114.924 31.0642C114.942 30.4929 114.728 30.1788 114.236 30.0073C113.771 29.8455 113.288 29.9121 112.814 29.8931C112.689 29.8931 112.707 29.9788 112.707 30.0645C112.707 30.3883 112.707 30.7024 112.707 31.0261H112.689Z" fill="black"/>
<path d="M73.6076 30.5785C73.241 29.8739 72.633 29.7406 71.9624 29.7882C71.5779 29.8168 71.3186 30.0262 71.2471 30.35C71.1666 30.6928 71.2918 30.9784 71.6226 31.2069C71.9534 31.4259 72.329 31.5401 72.7045 31.6639C73.089 31.7876 73.4645 31.9209 73.8221 32.1113C74.8862 32.6636 75.2527 33.5204 75.1097 34.7867C74.9756 35.9388 74.3407 36.6433 73.2767 36.8814C72.2664 37.1098 71.2649 37.0528 70.2993 36.6529C69.8165 36.4529 69.4319 36.1197 69.0922 35.7103C69.0028 35.6055 69.0117 35.5579 69.119 35.4723C69.5214 35.1771 69.9237 34.8819 70.3171 34.5773C70.4334 34.4916 70.496 34.5011 70.5943 34.6154C71.1577 35.2533 71.864 35.3485 72.624 35.1771C72.9012 35.1105 73.1068 34.9201 73.1516 34.6059C73.1962 34.2916 73.0711 34.0536 72.8297 33.8823C72.4899 33.6347 72.0965 33.511 71.712 33.3682C71.2291 33.1967 70.7463 33.0063 70.3082 32.7016C69.3783 32.0637 69.1101 31.1212 69.28 30.0262C69.4409 29.0075 70.0578 28.4172 70.9698 28.1792C72.0339 27.9031 73.08 27.9602 74.0725 28.4934C74.4302 28.6838 74.7341 28.9694 74.9756 29.3122C75.0471 29.4074 75.0739 29.4741 74.9577 29.5597C74.5106 29.893 74.0636 30.2357 73.6076 30.588V30.5785Z" fill="black"/>
<path d="M142.579 36.9958C141.676 36.9863 140.799 36.8435 140.039 36.2532C139.833 36.0913 139.655 35.8913 139.476 35.6914C139.395 35.6057 139.386 35.5581 139.494 35.482C139.914 35.1773 140.325 34.8726 140.736 34.5584C140.87 34.4537 140.916 34.5394 140.987 34.625C141.55 35.2439 142.239 35.3581 142.998 35.1868C143.285 35.1201 143.499 34.9393 143.544 34.606C143.589 34.2823 143.455 34.0442 143.195 33.8729C142.811 33.6158 142.373 33.473 141.953 33.3207C141.532 33.1683 141.121 32.997 140.746 32.7494C139.816 32.1306 139.529 31.2166 139.672 30.1216C139.806 29.0933 140.406 28.465 141.326 28.2174C142.507 27.9033 143.66 27.9698 144.724 28.6744C144.984 28.8458 145.189 29.0743 145.377 29.3314C145.449 29.4361 145.457 29.4932 145.35 29.5789C144.939 29.8741 144.537 30.1883 144.134 30.5024C144.045 30.5787 143.982 30.5977 143.911 30.4644C143.544 29.8265 142.775 29.7123 142.131 29.8645C141.872 29.9312 141.684 30.0931 141.63 30.3787C141.577 30.6834 141.657 30.9404 141.89 31.1308C142.194 31.3879 142.56 31.5022 142.927 31.6259C143.365 31.7687 143.803 31.9116 144.215 32.1306C145.234 32.6827 145.654 33.5397 145.502 34.8154C145.377 35.8913 144.715 36.6435 143.678 36.9006C143.312 36.9958 142.945 37.0339 142.569 37.0148L142.579 36.9958Z" fill="black"/>
<path d="M77.8482 33.3591C77.8482 32.2928 77.8482 31.2264 77.8482 30.1601C77.8482 29.9601 77.8122 29.8839 77.6069 29.8935C77.0431 29.9125 76.471 29.8935 75.9076 29.903C75.7646 29.903 75.7109 29.8649 75.7109 29.7031C75.7199 29.2366 75.7109 28.7795 75.7109 28.313C75.7109 28.1797 75.7467 28.1416 75.8719 28.1416C77.839 28.1416 79.8061 28.1416 81.7824 28.1416C81.934 28.1416 81.9516 28.1987 81.9516 28.3416C81.9516 28.7986 81.9432 29.246 81.9516 29.7031C81.9516 29.8935 81.8896 29.9125 81.7372 29.9125C81.1833 29.9125 80.6196 29.9125 80.0657 29.9125C79.8689 29.9125 79.8153 29.9601 79.8153 30.1791C79.8153 32.3213 79.8153 34.4636 79.8237 36.6058C79.8237 36.8438 79.7701 36.9009 79.5472 36.9009C79.0638 36.8819 78.572 36.8819 78.0803 36.9009C77.8834 36.9009 77.8298 36.8629 77.8298 36.6439C77.839 35.5585 77.8298 34.4731 77.8298 33.3877L77.8482 33.3591Z" fill="black"/>
<path d="M101.641 32.4927C101.641 31.1217 101.641 29.7507 101.641 28.3892C101.641 28.1892 101.694 28.1416 101.873 28.1416C102.364 28.1511 102.847 28.1607 103.339 28.1416C103.553 28.1416 103.616 28.1892 103.616 28.4272C103.608 30.5599 103.616 32.6927 103.608 34.8254C103.608 35.0634 103.661 35.1205 103.884 35.1205C104.77 35.1015 105.655 35.1205 106.549 35.111C106.8 35.111 106.835 35.1871 106.826 35.4252C106.808 35.8251 106.808 36.2154 106.826 36.6153C106.826 36.8153 106.79 36.8819 106.585 36.8819C105.011 36.8723 103.446 36.8723 101.873 36.8819C101.685 36.8819 101.641 36.8247 101.641 36.6343C101.641 35.2538 101.641 33.8732 101.641 32.5022V32.4927Z" fill="black"/>
<path d="M44.0788 32.5207C44.0788 33.8822 44.0788 35.2437 44.0788 36.6052C44.0788 36.8337 44.0162 36.8908 43.8105 36.8813C43.3008 36.8623 42.8002 36.8718 42.2905 36.8813C42.1385 36.8813 42.0938 36.8432 42.0938 36.6814C42.0938 33.9013 42.0938 31.1307 42.0938 28.3505C42.0938 28.1886 42.1385 28.141 42.2905 28.1506C42.809 28.1506 43.3187 28.1696 43.8373 28.1506C44.0519 28.1506 44.0788 28.2362 44.0788 28.4267C44.0788 29.7977 44.0788 31.1687 44.0788 32.5398V32.5207Z" fill="black"/>
<path d="M90.5312 32.4735C90.5312 31.112 90.5312 29.7505 90.5312 28.389C90.5312 28.1701 90.5849 28.1225 90.7817 28.132C91.3003 28.151 91.8105 28.1415 92.3291 28.132C92.4807 28.132 92.5252 28.1701 92.5252 28.3319C92.5252 31.112 92.5252 33.8826 92.5252 36.6628C92.5252 36.8247 92.4807 36.8723 92.3291 36.8627C91.8105 36.8627 91.3003 36.8532 90.7817 36.8627C90.5849 36.8627 90.5312 36.8151 90.5312 36.6056C90.5404 35.2251 90.5312 33.8446 90.5312 32.464V32.4735Z" fill="black"/>
</g>
<line x1="166" y1="2.75098" x2="166" y2="36.514" stroke="black" stroke-width="1.12544"/>
<defs>
<clipPath id="clip0_6685_13783">
<rect width="146.307" height="34.8885" fill="white" transform="translate(0 2.75098)"/>
</clipPath>
</defs>
</svg>
