<svg width="141" height="31" viewBox="0 0 141 31" fill="none" xmlns="http://www.w3.org/2000/svg">
<path d="M6.99197 10.3584C6.89443 10.3584 6.83103 10.3096 6.80177 10.2121L6.31895 8.64661C6.29945 8.6076 6.27506 8.58809 6.2458 8.58809H2.38331C2.35404 8.58809 2.32966 8.6076 2.31015 8.64661L1.82734 10.2121C1.79808 10.3096 1.73468 10.3584 1.63714 10.3584H0.174076C0.115553 10.3584 0.0716613 10.3438 0.0424 10.3145C0.0131387 10.2755 0.00826177 10.2218 0.0277693 10.1536L3.20262 0.26324C3.23188 0.165703 3.29528 0.116934 3.39282 0.116934H5.22165C5.31919 0.116934 5.38259 0.165703 5.41185 0.26324L8.60134 10.1536C8.61109 10.1731 8.61597 10.1975 8.61597 10.2267C8.61597 10.3145 8.56232 10.3584 8.45503 10.3584H6.99197ZM2.7637 7.16891C2.75395 7.22744 2.77346 7.2567 2.82223 7.2567H5.79225C5.85077 7.2567 5.87028 7.22744 5.85077 7.16891L4.34381 2.26764C4.33406 2.22863 4.31943 2.20912 4.29992 2.20912C4.28042 2.20912 4.26578 2.22863 4.25603 2.26764L2.7637 7.16891ZM18.7789 5.01821C18.7204 5.04747 18.7204 5.07673 18.7789 5.10599C19.7738 5.57417 20.2712 6.37886 20.2712 7.52005C20.2712 8.44666 19.9591 9.15381 19.3349 9.6415C18.7204 10.1194 17.9157 10.3584 16.9208 10.3584H13.2339C13.1851 10.3584 13.1412 10.3438 13.1022 10.3145C13.0729 10.2755 13.0583 10.2316 13.0583 10.1828V0.292502C13.0583 0.243733 13.0729 0.204718 13.1022 0.175456C13.1412 0.136441 13.1851 0.116934 13.2339 0.116934H16.8038C17.8669 0.116934 18.6862 0.346147 19.2617 0.804575C19.8372 1.263 20.1249 1.95552 20.1249 2.88213C20.1249 3.90628 19.6763 4.6183 18.7789 5.01821ZM14.8286 1.58C14.7799 1.58 14.7555 1.60438 14.7555 1.65315V4.35983C14.7555 4.4086 14.7799 4.43298 14.8286 4.43298H16.8038C17.3207 4.43298 17.7255 4.31106 18.0181 4.06721C18.3205 3.81361 18.4717 3.46736 18.4717 3.02844C18.4717 2.57976 18.3205 2.22863 18.0181 1.97503C17.7255 1.71168 17.3207 1.58 16.8038 1.58H14.8286ZM16.9208 8.8807C17.428 8.8807 17.8279 8.74415 18.1205 8.47104C18.4229 8.19794 18.5741 7.82729 18.5741 7.35911C18.5741 6.88118 18.4229 6.51053 18.1205 6.24718C17.8182 5.97408 17.4085 5.83752 16.8916 5.83752H14.8286C14.7799 5.83752 14.7555 5.86191 14.7555 5.91068V8.80755C14.7555 8.85632 14.7799 8.8807 14.8286 8.8807H16.9208ZM22.3352 10.3584C22.2864 10.3584 22.2425 10.3438 22.2035 10.3145C22.1742 10.2755 22.1596 10.2316 22.1596 10.1828V0.292502C22.1596 0.243733 22.1742 0.204718 22.2035 0.175456C22.2425 0.136441 22.2864 0.116934 22.3352 0.116934H23.6812C23.73 0.116934 23.769 0.136441 23.7983 0.175456C23.8373 0.204718 23.8568 0.243733 23.8568 0.292502V8.82218C23.8568 8.87095 23.8812 8.89533 23.9299 8.89533H28.8312C28.88 8.89533 28.919 8.91484 28.9482 8.95385C28.9873 8.98312 29.0068 9.02213 29.0068 9.0709V10.1828C29.0068 10.2316 28.9873 10.2755 28.9482 10.3145C28.919 10.3438 28.88 10.3584 28.8312 10.3584H22.3352ZM37.2534 10.3584C37.1559 10.3584 37.0925 10.3096 37.0632 10.2121L36.5804 8.64661C36.5609 8.6076 36.5365 8.58809 36.5073 8.58809H32.6448C32.6155 8.58809 32.5911 8.6076 32.5716 8.64661L32.0888 10.2121C32.0595 10.3096 31.9961 10.3584 31.8986 10.3584H30.4355C30.377 10.3584 30.3331 10.3438 30.3039 10.3145C30.2746 10.2755 30.2697 10.2218 30.2892 10.1536L33.4641 0.26324C33.4934 0.165703 33.5568 0.116934 33.6543 0.116934H35.4831C35.5807 0.116934 35.6441 0.165703 35.6733 0.26324L38.8628 10.1536C38.8726 10.1731 38.8774 10.1975 38.8774 10.2267C38.8774 10.3145 38.8238 10.3584 38.7165 10.3584H37.2534ZM33.0252 7.16891C33.0154 7.22744 33.0349 7.2567 33.0837 7.2567H36.0537C36.1122 7.2567 36.1317 7.22744 36.1122 7.16891L34.6053 2.26764C34.5955 2.22863 34.5809 2.20912 34.5614 2.20912C34.5419 2.20912 34.5273 2.22863 34.5175 2.26764L33.0252 7.16891ZM43.5572 10.4754C42.8257 10.4754 42.1819 10.334 41.6259 10.0512C41.07 9.75854 40.6408 9.35376 40.3384 8.83681C40.0361 8.31986 39.8849 7.72 39.8849 7.03724V3.42346C39.8849 2.7407 40.0361 2.14084 40.3384 1.62389C40.6408 1.10694 41.07 0.707037 41.6259 0.424178C42.1819 0.141319 42.8257 -0.000110971 43.5572 -0.000110971C44.279 -0.000110971 44.9178 0.136442 45.4738 0.409548C46.0298 0.682653 46.4589 1.06793 46.7613 1.56537C47.0637 2.06281 47.2149 2.63829 47.2149 3.29179C47.2149 3.34056 47.1954 3.38445 47.1563 3.42346C47.1271 3.45273 47.0881 3.46736 47.0393 3.46736L45.6933 3.54051C45.5762 3.54051 45.5177 3.48686 45.5177 3.37957C45.5177 2.8041 45.3373 2.34079 44.9764 1.98966C44.6252 1.63852 44.1522 1.46295 43.5572 1.46295C42.9622 1.46295 42.4843 1.63852 42.1234 1.98966C41.7625 2.34079 41.5821 2.8041 41.5821 3.37957V7.11039C41.5821 7.67611 41.7625 8.13454 42.1234 8.48567C42.4843 8.83681 42.9622 9.01238 43.5572 9.01238C44.1522 9.01238 44.6252 8.84169 44.9764 8.5003C45.3373 8.14917 45.5177 7.68586 45.5177 7.11039C45.5177 7.0031 45.5762 6.94945 45.6933 6.94945L47.0393 7.00798C47.0881 7.00798 47.1271 7.02261 47.1563 7.05187C47.1954 7.08113 47.2149 7.11527 47.2149 7.15428C47.2149 7.81754 47.0637 8.40277 46.7613 8.90996C46.4589 9.40741 46.0298 9.79268 45.4738 10.0658C44.9178 10.3389 44.279 10.4754 43.5572 10.4754ZM49.2105 10.3584C49.1617 10.3584 49.1178 10.3438 49.0788 10.3145C49.0495 10.2755 49.0349 10.2316 49.0349 10.1828V0.292502C49.0349 0.243733 49.0495 0.204718 49.0788 0.175456C49.1178 0.136441 49.1617 0.116934 49.2105 0.116934H50.5565C50.6052 0.116934 50.6443 0.136441 50.6735 0.175456C50.7125 0.204718 50.732 0.243733 50.732 0.292502V4.66707C50.732 4.69633 50.7418 4.71584 50.7613 4.72559C50.7808 4.73535 50.8003 4.73047 50.8198 4.71096L54.6238 0.219349C54.6823 0.151072 54.7555 0.116934 54.8433 0.116934H56.3649C56.4624 0.116934 56.5112 0.151072 56.5112 0.219349C56.5112 0.24861 56.4965 0.287625 56.4673 0.336393L53.1168 4.44761C53.0876 4.48663 53.0827 4.52076 53.1022 4.55003L56.7014 10.1536C56.7209 10.2121 56.7306 10.2462 56.7306 10.256C56.7306 10.3243 56.6818 10.3584 56.5843 10.3584H55.0481C54.9603 10.3584 54.892 10.3194 54.8433 10.2414L51.9464 5.73511C51.9074 5.67659 51.8732 5.67171 51.844 5.72048L50.7613 6.97872C50.7418 7.01773 50.732 7.05187 50.732 7.08113V10.1828C50.732 10.2316 50.7125 10.2755 50.6735 10.3145C50.6443 10.3438 50.6052 10.3584 50.5565 10.3584H49.2105ZM61.1713 10.4754C60.4105 10.4754 59.7472 10.3535 59.1815 10.1097C58.6158 9.86583 58.1768 9.52445 57.8647 9.08553C57.5624 8.64661 57.4112 8.12966 57.4112 7.53468V7.16891C57.4112 7.12014 57.4258 7.08113 57.4551 7.05187C57.4941 7.01285 57.538 6.99335 57.5867 6.99335H58.8889C58.9376 6.99335 58.9767 7.01285 59.0059 7.05187C59.0449 7.08113 59.0644 7.12014 59.0644 7.16891V7.4469C59.0644 7.89557 59.2644 8.27109 59.6643 8.57346C60.0642 8.86607 60.6104 9.01238 61.3029 9.01238C61.8979 9.01238 62.3466 8.88558 62.6489 8.63198C62.9513 8.37838 63.1025 8.05163 63.1025 7.65173C63.1025 7.37862 63.0196 7.14941 62.8538 6.96408C62.688 6.76901 62.449 6.59344 62.1369 6.43738C61.8345 6.28132 61.3761 6.08624 60.7616 5.85215C60.0691 5.59856 59.5082 5.35959 59.0791 5.13525C58.6499 4.91091 58.289 4.60855 57.9964 4.22815C57.7135 3.838 57.5721 3.35519 57.5721 2.77971C57.5721 1.92138 57.8842 1.2435 58.5085 0.746053C59.1327 0.24861 59.9667 -0.000110971 61.0103 -0.000110971C61.7418 -0.000110971 62.3856 0.126688 62.9416 0.380286C63.5073 0.633884 63.9462 0.989897 64.2583 1.44832C64.5704 1.897 64.7265 2.41882 64.7265 3.01381V3.26253C64.7265 3.3113 64.707 3.35519 64.668 3.3942C64.6387 3.42346 64.5997 3.43809 64.5509 3.43809H63.2342C63.1854 3.43809 63.1415 3.42346 63.1025 3.3942C63.0732 3.35519 63.0586 3.3113 63.0586 3.26253V3.10159C63.0586 2.64316 62.8684 2.25789 62.488 1.94577C62.1174 1.62389 61.6004 1.46295 60.9372 1.46295C60.4007 1.46295 59.9813 1.57512 59.6789 1.79946C59.3863 2.0238 59.24 2.34079 59.24 2.75045C59.24 3.04307 59.318 3.28203 59.4741 3.46736C59.6302 3.65268 59.8642 3.82337 60.1764 3.97943C60.4885 4.12574 60.9713 4.31593 61.6248 4.55003C62.3173 4.81338 62.8684 5.05234 63.2781 5.26693C63.6975 5.48151 64.0535 5.78388 64.3461 6.17403C64.6485 6.55443 64.7997 7.03236 64.7997 7.60783C64.7997 8.48567 64.4729 9.18307 63.8194 9.70002C63.1757 10.217 62.2929 10.4754 61.1713 10.4754ZM73.0532 0.116934C73.1019 0.116934 73.141 0.136441 73.1702 0.175456C73.2092 0.204718 73.2287 0.243733 73.2287 0.292502V1.41906C73.2287 1.46783 73.2092 1.51172 73.1702 1.55074C73.141 1.58 73.1019 1.59463 73.0532 1.59463H70.3611C70.3124 1.59463 70.288 1.61902 70.288 1.66778V10.1828C70.288 10.2316 70.2685 10.2755 70.2295 10.3145C70.2002 10.3438 70.1612 10.3584 70.1124 10.3584H68.7664C68.7176 10.3584 68.6737 10.3438 68.6347 10.3145C68.6055 10.2755 68.5908 10.2316 68.5908 10.1828V1.66778C68.5908 1.61902 68.5664 1.59463 68.5177 1.59463H65.928C65.8793 1.59463 65.8354 1.58 65.7964 1.55074C65.7671 1.51172 65.7525 1.46783 65.7525 1.41906V0.292502C65.7525 0.243733 65.7671 0.204718 65.7964 0.175456C65.8354 0.136441 65.8793 0.116934 65.928 0.116934H73.0532ZM77.7488 10.5047C77.0173 10.5047 76.3687 10.3584 75.8029 10.0658C75.2372 9.76342 74.7983 9.33913 74.4862 8.79292C74.1838 8.24671 74.0326 7.61759 74.0326 6.90556V3.56977C74.0326 2.8675 74.1887 2.24813 74.5008 1.71168C74.8129 1.16546 75.247 0.746053 75.8029 0.453439C76.3687 0.151072 77.0173 -0.000110971 77.7488 -0.000110971C78.4901 -0.000110971 79.1387 0.151072 79.6947 0.453439C80.2604 0.746053 80.6993 1.16546 81.0115 1.71168C81.3236 2.24813 81.4796 2.8675 81.4796 3.56977V6.90556C81.4796 7.61759 81.3236 8.24671 81.0115 8.79292C80.6993 9.33913 80.2604 9.76342 79.6947 10.0658C79.1387 10.3584 78.4901 10.5047 77.7488 10.5047ZM77.7488 9.04164C78.3633 9.04164 78.8559 8.85144 79.2265 8.47104C79.5972 8.09065 79.7825 7.58833 79.7825 6.96408V3.55514C79.7825 2.92114 79.5972 2.41395 79.2265 2.03355C78.8559 1.65315 78.3633 1.46295 77.7488 1.46295C77.1441 1.46295 76.6564 1.65315 76.2858 2.03355C75.9151 2.41395 75.7298 2.92114 75.7298 3.55514V6.96408C75.7298 7.58833 75.9151 8.09065 76.2858 8.47104C76.6564 8.85144 77.1441 9.04164 77.7488 9.04164ZM89.323 0.292502C89.323 0.243733 89.3377 0.204718 89.3669 0.175456C89.406 0.136441 89.4498 0.116934 89.4986 0.116934H90.8446C90.8934 0.116934 90.9324 0.136441 90.9617 0.175456C91.0007 0.204718 91.0202 0.243733 91.0202 0.292502V10.1828C91.0202 10.2316 91.0007 10.2755 90.9617 10.3145C90.9324 10.3438 90.8934 10.3584 90.8446 10.3584H89.5425C89.445 10.3584 89.3767 10.3194 89.3377 10.2414L85.124 3.33568C85.1045 3.30642 85.085 3.29666 85.0655 3.30642C85.046 3.30642 85.0363 3.32593 85.0363 3.36494L85.0655 10.1828C85.0655 10.2316 85.046 10.2755 85.007 10.3145C84.9777 10.3438 84.9387 10.3584 84.89 10.3584H83.5439C83.4952 10.3584 83.4513 10.3438 83.4123 10.3145C83.383 10.2755 83.3684 10.2316 83.3684 10.1828V0.292502C83.3684 0.243733 83.383 0.204718 83.4123 0.175456C83.4513 0.136441 83.4952 0.116934 83.5439 0.116934H84.8461C84.9436 0.116934 85.0119 0.155949 85.0509 0.233979L89.2499 7.13965C89.2694 7.16891 89.2889 7.18354 89.3084 7.18354C89.3279 7.17379 89.3377 7.14941 89.3377 7.11039L89.323 0.292502ZM99.9618 1.40443C99.9618 1.4532 99.9423 1.49709 99.9033 1.53611C99.874 1.56537 99.835 1.58 99.7863 1.58H94.7972C94.7484 1.58 94.7241 1.60438 94.7241 1.65315V4.38909C94.7241 4.43786 94.7484 4.46224 94.7972 4.46224H98.1476C98.1964 4.46224 98.2354 4.48175 98.2647 4.52076C98.3037 4.55002 98.3232 4.58904 98.3232 4.63781V5.74974C98.3232 5.79851 98.3037 5.8424 98.2647 5.88142C98.2354 5.91068 98.1964 5.92531 98.1476 5.92531H94.7972C94.7484 5.92531 94.7241 5.94969 94.7241 5.99846V8.82218C94.7241 8.87095 94.7484 8.89533 94.7972 8.89533H99.7863C99.835 8.89533 99.874 8.91484 99.9033 8.95385C99.9423 8.98312 99.9618 9.02213 99.9618 9.0709V10.1828C99.9618 10.2316 99.9423 10.2755 99.9033 10.3145C99.874 10.3438 99.835 10.3584 99.7863 10.3584H93.2025C93.1537 10.3584 93.1098 10.3438 93.0708 10.3145C93.0415 10.2755 93.0269 10.2316 93.0269 10.1828V0.292502C93.0269 0.243733 93.0415 0.204718 93.0708 0.175456C93.1098 0.136441 93.1537 0.116934 93.2025 0.116934H99.7863C99.835 0.116934 99.874 0.136441 99.9033 0.175456C99.9423 0.204718 99.9618 0.243733 99.9618 0.292502V1.40443ZM0.817825 30.3584C0.769056 30.3584 0.725164 30.3438 0.686149 30.3145C0.656888 30.2755 0.642257 30.2316 0.642257 30.1828V20.2925C0.642257 20.2437 0.656888 20.2047 0.686149 20.1755C0.725164 20.1364 0.769056 20.1169 0.817825 20.1169H2.16385C2.21262 20.1169 2.25163 20.1364 2.28089 20.1755C2.31991 20.2047 2.33941 20.2437 2.33941 20.2925V28.8222C2.33941 28.8709 2.3638 28.8953 2.41257 28.8953H7.31384C7.36261 28.8953 7.40162 28.9148 7.43088 28.9539C7.4699 28.9831 7.48941 29.0221 7.48941 29.0709V30.1828C7.48941 30.2316 7.4699 30.2755 7.43088 30.3145C7.40162 30.3438 7.36261 30.3584 7.31384 30.3584H0.817825ZM12.3823 30.5047C11.6508 30.5047 11.0022 30.3584 10.4365 30.0658C9.87074 29.7634 9.43182 29.3391 9.1197 28.7929C8.81733 28.2467 8.66615 27.6176 8.66615 26.9056V23.5698C8.66615 22.8675 8.82221 22.2481 9.13433 21.7117C9.44645 21.1655 9.88049 20.7461 10.4365 20.4534C11.0022 20.1511 11.6508 19.9999 12.3823 19.9999C13.1236 19.9999 13.7722 20.1511 14.3282 20.4534C14.8939 20.7461 15.3329 21.1655 15.645 21.7117C15.9571 22.2481 16.1132 22.8675 16.1132 23.5698V26.9056C16.1132 27.6176 15.9571 28.2467 15.645 28.7929C15.3329 29.3391 14.8939 29.7634 14.3282 30.0658C13.7722 30.3584 13.1236 30.5047 12.3823 30.5047ZM12.3823 29.0416C12.9968 29.0416 13.4894 28.8514 13.86 28.471C14.2307 28.0906 14.416 27.5883 14.416 26.9641V23.5551C14.416 22.9211 14.2307 22.4139 13.86 22.0336C13.4894 21.6532 12.9968 21.463 12.3823 21.463C11.7776 21.463 11.2899 21.6532 10.9193 22.0336C10.5486 22.4139 10.3633 22.9211 10.3633 23.5551V26.9641C10.3633 27.5883 10.5486 28.0906 10.9193 28.471C11.2899 28.8514 11.7776 29.0416 12.3823 29.0416ZM21.4255 30.4754C20.6939 30.4754 20.0502 30.334 19.4942 30.0512C18.9382 29.7585 18.5091 29.3489 18.2067 28.8222C17.9043 28.2955 17.7532 27.6907 17.7532 27.008V23.4674C17.7532 22.7748 17.9043 22.1701 18.2067 21.6532C18.5091 21.1264 18.9382 20.7217 19.4942 20.4388C20.0502 20.1462 20.6939 19.9999 21.4255 19.9999C22.1472 19.9999 22.7812 20.1413 23.3274 20.4242C23.8834 20.707 24.3126 21.0923 24.6149 21.58C24.9173 22.0677 25.0685 22.6188 25.0685 23.2333V23.3503C25.0685 23.3991 25.049 23.443 25.01 23.482C24.9807 23.5112 24.9417 23.5259 24.8929 23.5259H23.5615C23.5128 23.5259 23.4689 23.5112 23.4299 23.482C23.4006 23.443 23.386 23.3991 23.386 23.3503V23.2772C23.386 22.7505 23.2055 22.3164 22.8446 21.975C22.4935 21.6336 22.0204 21.463 21.4255 21.463C20.8305 21.463 20.3525 21.6434 19.9917 22.0043C19.6308 22.3554 19.4503 22.8236 19.4503 23.4088V27.0665C19.4503 27.6517 19.6405 28.1248 20.0209 28.4857C20.4013 28.8368 20.8939 29.0124 21.4986 29.0124C22.0838 29.0124 22.5423 28.8612 22.8739 28.5588C23.2153 28.2467 23.386 27.8224 23.386 27.286V26.3789C23.386 26.3301 23.3616 26.3057 23.3128 26.3057H21.5132C21.4645 26.3057 21.4206 26.2911 21.3816 26.2618C21.3523 26.2228 21.3377 26.1789 21.3377 26.1301V25.0475C21.3377 24.9987 21.3523 24.9597 21.3816 24.9304C21.4206 24.8914 21.4645 24.8719 21.5132 24.8719H24.8929C24.9417 24.8719 24.9807 24.8914 25.01 24.9304C25.049 24.9597 25.0685 24.9987 25.0685 25.0475V26.9202C25.0685 28.0419 24.7369 28.9148 24.0736 29.5391C23.4201 30.1633 22.5374 30.4754 21.4255 30.4754ZM27.1502 30.3584C27.1014 30.3584 27.0575 30.3438 27.0185 30.3145C26.9892 30.2755 26.9746 30.2316 26.9746 30.1828V20.2925C26.9746 20.2437 26.9892 20.2047 27.0185 20.1755C27.0575 20.1364 27.1014 20.1169 27.1502 20.1169H28.4962C28.545 20.1169 28.584 20.1364 28.6132 20.1755C28.6522 20.2047 28.6718 20.2437 28.6718 20.2925V30.1828C28.6718 30.2316 28.6522 30.2755 28.6132 30.3145C28.584 30.3438 28.545 30.3584 28.4962 30.3584H27.1502ZM34.1102 30.4754C33.3494 30.4754 32.6862 30.3535 32.1205 30.1097C31.5548 29.8658 31.1158 29.5245 30.8037 29.0855C30.5013 28.6466 30.3502 28.1297 30.3502 27.5347V27.1689C30.3502 27.1201 30.3648 27.0811 30.3941 27.0519C30.4331 27.0129 30.477 26.9933 30.5257 26.9933H31.8279C31.8766 26.9933 31.9156 27.0129 31.9449 27.0519C31.9839 27.0811 32.0034 27.1201 32.0034 27.1689V27.4469C32.0034 27.8956 32.2034 28.2711 32.6033 28.5735C33.0032 28.8661 33.5494 29.0124 34.2419 29.0124C34.8369 29.0124 35.2856 28.8856 35.5879 28.632C35.8903 28.3784 36.0415 28.0516 36.0415 27.6517C36.0415 27.3786 35.9586 27.1494 35.7928 26.9641C35.627 26.769 35.388 26.5934 35.0759 26.4374C34.7735 26.2813 34.3151 26.0862 33.7006 25.8522C33.0081 25.5986 32.4472 25.3596 32.0181 25.1353C31.5889 24.9109 31.228 24.6085 30.9354 24.2282C30.6525 23.838 30.5111 23.3552 30.5111 22.7797C30.5111 21.9214 30.8232 21.2435 31.4475 20.7461C32.0717 20.2486 32.9057 19.9999 33.9493 19.9999C34.6808 19.9999 35.3246 20.1267 35.8806 20.3803C36.4463 20.6339 36.8852 20.9899 37.1973 21.4483C37.5094 21.897 37.6655 22.4188 37.6655 23.0138V23.2625C37.6655 23.3113 37.646 23.3552 37.607 23.3942C37.5777 23.4235 37.5387 23.4381 37.4899 23.4381H36.1732C36.1244 23.4381 36.0805 23.4235 36.0415 23.3942C36.0122 23.3552 35.9976 23.3113 35.9976 23.2625V23.1016C35.9976 22.6432 35.8074 22.2579 35.427 21.9458C35.0564 21.6239 34.5394 21.463 33.8762 21.463C33.3397 21.463 32.9203 21.5751 32.6179 21.7995C32.3253 22.0238 32.179 22.3408 32.179 22.7505C32.179 23.0431 32.257 23.282 32.4131 23.4674C32.5691 23.6527 32.8032 23.8234 33.1154 23.9794C33.4275 24.1257 33.9103 24.3159 34.5638 24.55C35.2563 24.8134 35.8074 25.0523 36.2171 25.2669C36.6365 25.4815 36.9925 25.7839 37.2851 26.174C37.5875 26.5544 37.7386 27.0324 37.7386 27.6078C37.7386 28.4857 37.4119 29.1831 36.7584 29.7C36.1146 30.217 35.2319 30.4754 34.1102 30.4754ZM45.9922 20.1169C46.0409 20.1169 46.08 20.1364 46.1092 20.1755C46.1482 20.2047 46.1677 20.2437 46.1677 20.2925V21.4191C46.1677 21.4678 46.1482 21.5117 46.1092 21.5507C46.08 21.58 46.0409 21.5946 45.9922 21.5946H43.3001C43.2514 21.5946 43.227 21.619 43.227 21.6678V30.1828C43.227 30.2316 43.2075 30.2755 43.1685 30.3145C43.1392 30.3438 43.1002 30.3584 43.0514 30.3584H41.7054C41.6566 30.3584 41.6127 30.3438 41.5737 30.3145C41.5444 30.2755 41.5298 30.2316 41.5298 30.1828V21.6678C41.5298 21.619 41.5054 21.5946 41.4567 21.5946H38.867C38.8183 21.5946 38.7744 21.58 38.7354 21.5507C38.7061 21.5117 38.6915 21.4678 38.6915 21.4191V20.2925C38.6915 20.2437 38.7061 20.2047 38.7354 20.1755C38.7744 20.1364 38.8183 20.1169 38.867 20.1169H45.9922ZM47.9103 30.3584C47.8615 30.3584 47.8176 30.3438 47.7786 30.3145C47.7493 30.2755 47.7347 30.2316 47.7347 30.1828V20.2925C47.7347 20.2437 47.7493 20.2047 47.7786 20.1755C47.8176 20.1364 47.8615 20.1169 47.9103 20.1169H49.2563C49.3051 20.1169 49.3441 20.1364 49.3733 20.1755C49.4124 20.2047 49.4319 20.2437 49.4319 20.2925V30.1828C49.4319 30.2316 49.4124 30.2755 49.3733 30.3145C49.3441 30.3438 49.3051 30.3584 49.2563 30.3584H47.9103ZM54.9874 30.4754C54.2559 30.4754 53.6121 30.334 53.0562 30.0512C52.5002 29.7585 52.071 29.3538 51.7687 28.8368C51.4663 28.3199 51.3151 27.72 51.3151 27.0372V23.4235C51.3151 22.7407 51.4663 22.1408 51.7687 21.6239C52.071 21.1069 52.5002 20.707 53.0562 20.4242C53.6121 20.1413 54.2559 19.9999 54.9874 19.9999C55.7092 19.9999 56.3481 20.1364 56.904 20.4095C57.46 20.6827 57.8891 21.0679 58.1915 21.5654C58.4939 22.0628 58.6451 22.6383 58.6451 23.2918C58.6451 23.3406 58.6256 23.3844 58.5865 23.4235C58.5573 23.4527 58.5183 23.4674 58.4695 23.4674L57.1235 23.5405C57.0064 23.5405 56.9479 23.4869 56.9479 23.3796C56.9479 22.8041 56.7675 22.3408 56.4066 21.9897C56.0554 21.6385 55.5824 21.463 54.9874 21.463C54.3924 21.463 53.9145 21.6385 53.5536 21.9897C53.1927 22.3408 53.0123 22.8041 53.0123 23.3796V27.1104C53.0123 27.6761 53.1927 28.1345 53.5536 28.4857C53.9145 28.8368 54.3924 29.0124 54.9874 29.0124C55.5824 29.0124 56.0554 28.8417 56.4066 28.5003C56.7675 28.1492 56.9479 27.6859 56.9479 27.1104C56.9479 27.0031 57.0064 26.9495 57.1235 26.9495L58.4695 27.008C58.5183 27.008 58.5573 27.0226 58.5865 27.0519C58.6256 27.0811 58.6451 27.1153 58.6451 27.1543C58.6451 27.8175 58.4939 28.4028 58.1915 28.91C57.8891 29.4074 57.46 29.7927 56.904 30.0658C56.3481 30.3389 55.7092 30.4754 54.9874 30.4754ZM63.7716 30.4754C63.0108 30.4754 62.3476 30.3535 61.7819 30.1097C61.2161 29.8658 60.7772 29.5245 60.4651 29.0855C60.1627 28.6466 60.0115 28.1297 60.0115 27.5347V27.1689C60.0115 27.1201 60.0262 27.0811 60.0554 27.0519C60.0945 27.0129 60.1383 26.9933 60.1871 26.9933H61.4892C61.538 26.9933 61.577 27.0129 61.6063 27.0519C61.6453 27.0811 61.6648 27.1201 61.6648 27.1689V27.4469C61.6648 27.8956 61.8648 28.2711 62.2647 28.5735C62.6646 28.8661 63.2108 29.0124 63.9033 29.0124C64.4983 29.0124 64.947 28.8856 65.2493 28.632C65.5517 28.3784 65.7029 28.0516 65.7029 27.6517C65.7029 27.3786 65.62 27.1494 65.4542 26.9641C65.2883 26.769 65.0494 26.5934 64.7372 26.4374C64.4349 26.2813 63.9765 26.0862 63.362 25.8522C62.6694 25.5986 62.1086 25.3596 61.6794 25.1353C61.2503 24.9109 60.8894 24.6085 60.5968 24.2282C60.3139 23.838 60.1725 23.3552 60.1725 22.7797C60.1725 21.9214 60.4846 21.2435 61.1088 20.7461C61.7331 20.2486 62.567 19.9999 63.6107 19.9999C64.3422 19.9999 64.986 20.1267 65.5419 20.3803C66.1077 20.6339 66.5466 20.9899 66.8587 21.4483C67.1708 21.897 67.3269 22.4188 67.3269 23.0138V23.2625C67.3269 23.3113 67.3074 23.3552 67.2684 23.3942C67.2391 23.4235 67.2001 23.4381 67.1513 23.4381H65.8345C65.7858 23.4381 65.7419 23.4235 65.7029 23.3942C65.6736 23.3552 65.659 23.3113 65.659 23.2625V23.1016C65.659 22.6432 65.4688 22.2579 65.0884 21.9458C64.7177 21.6239 64.2008 21.463 63.5375 21.463C63.0011 21.463 62.5817 21.5751 62.2793 21.7995C61.9867 22.0238 61.8404 22.3408 61.8404 22.7505C61.8404 23.0431 61.9184 23.282 62.0745 23.4674C62.2305 23.6527 62.4646 23.8234 62.7767 23.9794C63.0889 24.1257 63.5717 24.3159 64.2252 24.55C64.9177 24.8134 65.4688 25.0523 65.8784 25.2669C66.2979 25.4815 66.6539 25.7839 66.9465 26.174C67.2488 26.5544 67.4 27.0324 67.4 27.6078C67.4 28.4857 67.0733 29.1831 66.4198 29.7C65.776 30.217 64.8933 30.4754 63.7716 30.4754ZM76.1494 20.1023C76.7639 20.1023 77.3052 20.2291 77.7734 20.4827C78.2416 20.7363 78.6025 21.0972 78.8561 21.5654C79.1194 22.0238 79.2511 22.5554 79.2511 23.1601C79.2511 23.7551 79.1194 24.2818 78.8561 24.7402C78.5927 25.1987 78.2172 25.5547 77.7295 25.8083C77.2516 26.0521 76.6956 26.174 76.0616 26.174H73.7207C73.6719 26.174 73.6476 26.1984 73.6476 26.2472V30.1828C73.6476 30.2316 73.628 30.2755 73.589 30.3145C73.5598 30.3438 73.5208 30.3584 73.472 30.3584H72.126C72.0772 30.3584 72.0333 30.3438 71.9943 30.3145C71.965 30.2755 71.9504 30.2316 71.9504 30.1828V20.2779C71.9504 20.2291 71.965 20.1901 71.9943 20.1608C72.0333 20.1218 72.0772 20.1023 72.126 20.1023H76.1494ZM75.9007 24.7987C76.3981 24.7987 76.798 24.6524 77.1004 24.3598C77.4028 24.0672 77.5539 23.6819 77.5539 23.204C77.5539 22.7163 77.4028 22.3213 77.1004 22.0189C76.798 21.7166 76.3981 21.5654 75.9007 21.5654H73.7207C73.6719 21.5654 73.6476 21.5898 73.6476 21.6385V24.7256C73.6476 24.7744 73.6719 24.7987 73.7207 24.7987H75.9007ZM80.915 30.3584C80.8662 30.3584 80.8223 30.3438 80.7833 30.3145C80.7541 30.2755 80.7394 30.2316 80.7394 30.1828V20.2925C80.7394 20.2437 80.7541 20.2047 80.7833 20.1755C80.8223 20.1364 80.8662 20.1169 80.915 20.1169H82.261C82.3098 20.1169 82.3488 20.1364 82.3781 20.1755C82.4171 20.2047 82.4366 20.2437 82.4366 20.2925V28.8222C82.4366 28.8709 82.461 28.8953 82.5097 28.8953H87.411C87.4598 28.8953 87.4988 28.9148 87.5281 28.9539C87.5671 28.9831 87.5866 29.0221 87.5866 29.0709V30.1828C87.5866 30.2316 87.5671 30.2755 87.5281 30.3145C87.4988 30.3438 87.4598 30.3584 87.411 30.3584H80.915ZM95.8332 30.3584C95.7357 30.3584 95.6723 30.3096 95.643 30.2121L95.1602 28.6466C95.1407 28.6076 95.1163 28.5881 95.0871 28.5881H91.2246C91.1953 28.5881 91.1709 28.6076 91.1514 28.6466L90.6686 30.2121C90.6394 30.3096 90.576 30.3584 90.4784 30.3584H89.0153C88.9568 30.3584 88.9129 30.3438 88.8837 30.3145C88.8544 30.2755 88.8495 30.2218 88.869 30.1536L92.0439 20.2632C92.0732 20.1657 92.1366 20.1169 92.2341 20.1169H94.0629C94.1605 20.1169 94.2239 20.1657 94.2531 20.2632L97.4426 30.1536C97.4524 30.1731 97.4572 30.1975 97.4572 30.2267C97.4572 30.3145 97.4036 30.3584 97.2963 30.3584H95.8332ZM91.605 27.1689C91.5952 27.2274 91.6147 27.2567 91.6635 27.2567H94.6335C94.692 27.2567 94.7116 27.2274 94.692 27.1689L93.1851 22.2676C93.1753 22.2286 93.1607 22.2091 93.1412 22.2091C93.1217 22.2091 93.1071 22.2286 93.0973 22.2676L91.605 27.1689ZM104.558 20.1169C104.606 20.1169 104.645 20.1364 104.675 20.1755C104.714 20.2047 104.733 20.2437 104.733 20.2925V21.4191C104.733 21.4678 104.714 21.5117 104.675 21.5507C104.645 21.58 104.606 21.5946 104.558 21.5946H101.866C101.817 21.5946 101.792 21.619 101.792 21.6678V30.1828C101.792 30.2316 101.773 30.2755 101.734 30.3145C101.705 30.3438 101.666 30.3584 101.617 30.3584H100.271C100.222 30.3584 100.178 30.3438 100.139 30.3145C100.11 30.2755 100.095 30.2316 100.095 30.1828V21.6678C100.095 21.619 100.071 21.5946 100.022 21.5946H97.4326C97.3838 21.5946 97.3399 21.58 97.3009 21.5507C97.2716 21.5117 97.257 21.4678 97.257 21.4191V20.2925C97.257 20.2437 97.2716 20.2047 97.3009 20.1755C97.3399 20.1364 97.3838 20.1169 97.4326 20.1169H104.558ZM113.221 21.4044C113.221 21.4532 113.201 21.4971 113.162 21.5361C113.133 21.5654 113.094 21.58 113.045 21.58H108.071C108.022 21.58 107.997 21.6044 107.997 21.6532V24.3891C107.997 24.4379 108.022 24.4622 108.071 24.4622H111.421C111.47 24.4622 111.509 24.4817 111.538 24.5208C111.577 24.55 111.597 24.589 111.597 24.6378V25.7497C111.597 25.7985 111.577 25.8424 111.538 25.8814C111.509 25.9107 111.47 25.9253 111.421 25.9253H108.071C108.022 25.9253 107.997 25.9497 107.997 25.9985V30.1828C107.997 30.2316 107.978 30.2755 107.939 30.3145C107.91 30.3438 107.871 30.3584 107.822 30.3584H106.476C106.427 30.3584 106.383 30.3438 106.344 30.3145C106.315 30.2755 106.3 30.2316 106.3 30.1828V20.2925C106.3 20.2437 106.315 20.2047 106.344 20.1755C106.383 20.1364 106.427 20.1169 106.476 20.1169H113.045C113.094 20.1169 113.133 20.1364 113.162 20.1755C113.201 20.2047 113.221 20.2437 113.221 20.2925V21.4044ZM117.983 30.5047C117.252 30.5047 116.603 30.3584 116.037 30.0658C115.472 29.7634 115.033 29.3391 114.721 28.7929C114.418 28.2467 114.267 27.6176 114.267 26.9056V23.5698C114.267 22.8675 114.423 22.2481 114.735 21.7117C115.047 21.1655 115.481 20.7461 116.037 20.4534C116.603 20.1511 117.252 19.9999 117.983 19.9999C118.724 19.9999 119.373 20.1511 119.929 20.4534C120.495 20.7461 120.934 21.1655 121.246 21.7117C121.558 22.2481 121.714 22.8675 121.714 23.5698V26.9056C121.714 27.6176 121.558 28.2467 121.246 28.7929C120.934 29.3391 120.495 29.7634 119.929 30.0658C119.373 30.3584 118.724 30.5047 117.983 30.5047ZM117.983 29.0416C118.598 29.0416 119.09 28.8514 119.461 28.471C119.831 28.0906 120.017 27.5883 120.017 26.9641V23.5551C120.017 22.9211 119.831 22.4139 119.461 22.0336C119.09 21.6532 118.598 21.463 117.983 21.463C117.378 21.463 116.891 21.6532 116.52 22.0336C116.149 22.4139 115.964 22.9211 115.964 23.5551V26.9641C115.964 27.5883 116.149 28.0906 116.52 28.471C116.891 28.8514 117.378 29.0416 117.983 29.0416ZM129.353 30.3584C129.255 30.3584 129.187 30.3145 129.148 30.2267L127.216 26.0131C127.197 25.9741 127.168 25.9546 127.129 25.9546H125.373C125.324 25.9546 125.3 25.979 125.3 26.0277V30.1828C125.3 30.2316 125.28 30.2755 125.241 30.3145C125.212 30.3438 125.173 30.3584 125.124 30.3584H123.778C123.729 30.3584 123.686 30.3438 123.647 30.3145C123.617 30.2755 123.603 30.2316 123.603 30.1828V20.2925C123.603 20.2437 123.617 20.2047 123.647 20.1755C123.686 20.1364 123.729 20.1169 123.778 20.1169H127.802C128.397 20.1169 128.923 20.2437 129.382 20.4973C129.84 20.7412 130.196 21.0923 130.45 21.5507C130.703 21.9994 130.83 22.5164 130.83 23.1016C130.83 23.7746 130.655 24.3501 130.304 24.828C129.962 25.2962 129.484 25.6229 128.87 25.8083C128.85 25.8083 128.836 25.818 128.826 25.8375C128.816 25.857 128.816 25.8765 128.826 25.896L130.889 30.1536C130.908 30.1926 130.918 30.2218 130.918 30.2414C130.918 30.3194 130.864 30.3584 130.757 30.3584H129.353ZM125.373 21.58C125.324 21.58 125.3 21.6044 125.3 21.6532V24.5647C125.3 24.6134 125.324 24.6378 125.373 24.6378H127.568C128.036 24.6378 128.411 24.5013 128.694 24.2282C128.987 23.9453 129.133 23.5746 129.133 23.1162C129.133 22.6578 128.987 22.2871 128.694 22.0043C128.411 21.7214 128.036 21.58 127.568 21.58H125.373ZM139.174 20.234C139.223 20.1559 139.291 20.1169 139.379 20.1169H140.725C140.773 20.1169 140.812 20.1364 140.842 20.1755C140.881 20.2047 140.9 20.2437 140.9 20.2925V30.1828C140.9 30.2316 140.881 30.2755 140.842 30.3145C140.812 30.3438 140.773 30.3584 140.725 30.3584H139.379C139.33 30.3584 139.286 30.3438 139.247 30.3145C139.218 30.2755 139.203 30.2316 139.203 30.1828V23.204C139.203 23.1747 139.188 23.1552 139.159 23.1455C139.14 23.1357 139.125 23.1455 139.115 23.1747L137.286 25.9838C137.238 26.0619 137.169 26.1009 137.082 26.1009H136.409C136.321 26.1009 136.253 26.0619 136.204 25.9838L134.36 23.1894C134.351 23.1601 134.331 23.1504 134.302 23.1601C134.282 23.1699 134.273 23.1894 134.273 23.2186V30.1828C134.273 30.2316 134.253 30.2755 134.214 30.3145C134.185 30.3438 134.146 30.3584 134.097 30.3584H132.751C132.702 30.3584 132.658 30.3438 132.619 30.3145C132.59 30.2755 132.575 30.2316 132.575 30.1828V20.2925C132.575 20.2437 132.59 20.2047 132.619 20.1755C132.658 20.1364 132.702 20.1169 132.751 20.1169H134.097C134.185 20.1169 134.253 20.1559 134.302 20.234L136.687 23.8478C136.706 23.8673 136.726 23.877 136.745 23.877C136.765 23.877 136.779 23.8673 136.789 23.8478L139.174 20.234Z" fill="black"/>
</svg>
