<svg width="167" height="35" viewBox="0 0 167 35" fill="none" xmlns="http://www.w3.org/2000/svg">
<g clip-path="url(#clip0_9048_5497)">
<path d="M0.0558162 0.454833C0.154171 0.454833 0.252525 0.445312 0.350879 0.445312C10.678 0.445312 21.0053 0.445312 31.3325 0.445312C31.5918 0.445312 31.6454 0.511959 31.6454 0.778548C31.6454 11.7848 31.6454 22.7911 31.6454 33.7878C31.6454 34.0449 31.6096 34.1306 31.3414 34.1306C21.5239 34.1306 11.6974 34.1306 1.87984 34.1306H1.57584C1.66525 34.0259 1.71889 33.9592 1.78148 33.9021C6.66344 28.7036 11.5454 23.5147 16.4184 18.3067C16.5972 18.1163 16.6687 18.1543 16.8297 18.3162C18.162 19.7539 19.5121 21.1821 20.8532 22.6102C20.9248 22.6864 20.9784 22.772 21.0321 22.8482C21.1394 22.753 21.1037 22.6673 21.1037 22.6007C21.1037 19.0494 21.1037 15.498 21.1037 11.9467C21.1037 11.7753 21.1037 11.6801 20.889 11.6801C17.4913 11.6801 14.0937 11.6801 10.696 11.6801C10.6692 11.6801 10.6423 11.6801 10.6155 11.6801C10.5708 11.6324 10.5171 11.5944 10.4725 11.5468C7.03002 7.90023 3.60551 4.25371 0.172053 0.607169C0.127347 0.559564 0.0915813 0.511959 0.046875 0.454833H0.0558162Z" fill="#2BB04C"/>
<path d="M0.0558832 0.455078C0.10059 0.502683 0.136355 0.55981 0.181062 0.607415C3.60558 4.25396 7.03904 7.91004 10.4635 11.5566C10.5083 11.6042 10.553 11.6423 10.6066 11.6899C10.6692 11.766 10.7318 11.8422 10.8033 11.9183C12.1624 13.3655 13.5215 14.8222 14.8895 16.2599C15.0058 16.3837 15.0594 16.4504 14.9074 16.6122C9.98072 21.8392 5.06301 27.0758 0.145296 32.3124C0.118472 32.3409 0.0827069 32.379 0.0469418 32.4076C-0.0245885 32.3314 0.0111766 32.2457 0.0111766 32.1695C0.0111766 21.6869 0.0111766 11.2043 0.0111766 0.721666C0.0111766 0.635977 -0.0335299 0.531246 0.0558832 0.464599V0.455078Z" fill="#F47922"/>
<path d="M141.349 11.3371C141.349 7.80476 141.349 4.29155 141.349 0.778305C141.349 0.511715 141.393 0.435547 141.662 0.435547C142.878 0.454589 144.094 0.445068 145.31 0.435547C145.498 0.435547 145.542 0.492673 145.542 0.683092C145.542 7.07168 145.542 13.4507 145.542 19.8394C145.542 20.0393 145.479 20.0869 145.301 20.0869C144.264 20.0869 143.226 20.0869 142.189 20.0869C142.01 20.0869 141.903 20.0298 141.805 19.8679C139.658 16.4308 137.513 12.9938 135.367 9.54717C135.314 9.46143 135.26 9.37576 135.152 9.22341V9.58524C135.152 12.9842 135.152 16.3832 135.152 19.7822C135.152 20.0393 135.081 20.0869 134.857 20.0869C133.641 20.0774 132.425 20.0774 131.209 20.0869C131.022 20.0869 130.977 20.0393 130.977 19.8394C130.977 13.4507 130.977 7.07168 130.977 0.683092C130.977 0.483152 131.03 0.435547 131.209 0.435547C132.237 0.445068 133.266 0.445068 134.294 0.435547C134.473 0.435547 134.562 0.502194 134.652 0.65453C136.824 4.15826 139.006 7.67151 141.188 11.1752C141.223 11.2324 141.242 11.318 141.349 11.3466V11.3371Z" fill="white"/>
<path d="M76.3516 10.2517C76.3516 7.0812 76.3516 3.90119 76.3516 0.730698C76.3516 0.492673 76.4052 0.435547 76.629 0.435547C79.0695 0.445068 81.5107 0.416505 83.952 0.46411C85.4541 0.492673 86.9026 0.854471 88.1627 1.80657C89.3339 2.6825 89.9958 3.91071 90.2018 5.40551C90.3803 6.66228 90.3267 7.90951 89.8801 9.10921C89.4328 10.2993 88.6369 11.1562 87.5637 11.7275C87.3676 11.8322 87.376 11.9083 87.4565 12.0797C88.6101 14.6504 89.7637 17.2211 90.9081 19.8013C91.0421 20.0964 91.0421 20.0964 90.738 20.0964C89.2987 20.0964 87.8678 20.0964 86.4285 20.0964C86.214 20.0964 86.1244 20.0202 86.044 19.8203C85.0964 17.5163 84.1397 15.2217 83.2006 12.9271C83.1201 12.7367 83.0305 12.6605 82.8336 12.6605C82.253 12.6795 81.6624 12.6795 81.0818 12.6605C80.8313 12.6605 80.7953 12.7462 80.7953 12.9842C80.7953 15.2597 80.7953 17.5352 80.8045 19.8108C80.8045 20.0488 80.7417 20.1059 80.5272 20.0964C79.2304 20.0869 77.9343 20.0869 76.6374 20.0964C76.4231 20.0964 76.3605 20.0488 76.3605 19.8108C76.3605 16.6308 76.3605 13.4412 76.3605 10.2612L76.3516 10.2517ZM80.7861 6.53851C80.7861 6.99551 80.7861 7.443 80.7861 7.89997C80.7861 8.1666 80.6789 8.50936 80.8313 8.6617C80.9922 8.83305 81.3139 8.71884 81.5736 8.70931C82.4583 8.70931 83.3438 8.77591 84.2285 8.60456C84.9624 8.46175 85.5614 8.13807 85.7667 7.30018C85.8831 6.81461 85.8831 6.32904 85.749 5.84347C85.5078 4.9485 84.8544 4.60574 84.0769 4.46293C83.0397 4.27251 81.9933 4.37724 80.9477 4.34868C80.7777 4.34868 80.7953 4.45341 80.7953 4.56766C80.7953 5.21508 80.7953 5.87203 80.7953 6.51946L80.7861 6.53851Z" fill="white"/>
<path d="M42.1719 10.2515C42.1719 7.08096 42.1719 3.90094 42.1719 0.730453C42.1719 0.492428 42.2256 0.435302 42.4491 0.435302C43.7545 0.444823 45.0599 0.444823 46.3654 0.435302C46.5978 0.435302 46.6336 0.501949 46.6336 0.730453C46.6336 3.03453 46.6336 5.33861 46.6247 7.6427C46.6247 7.87122 46.6694 7.94735 46.9019 7.93782C48.6007 7.92836 50.2906 7.92836 51.9894 7.93782C52.2219 7.93782 52.3024 7.89021 52.3024 7.61414C52.2935 5.31957 52.3024 3.02501 52.2935 0.730453C52.2935 0.482907 52.356 0.425781 52.5796 0.425781C53.8761 0.435302 55.1726 0.435302 56.469 0.425781C56.6747 0.425781 56.7552 0.463865 56.7552 0.711411C56.7552 7.07143 56.7552 13.422 56.7552 19.782C56.7552 20.0105 56.7194 20.0866 56.4869 20.0772C55.1726 20.0676 53.8582 20.0676 52.5438 20.0772C52.3382 20.0772 52.2935 20.0105 52.2935 19.8105C52.2935 17.2684 52.2935 14.7263 52.3024 12.1842C52.3024 11.9462 52.2577 11.87 52.0162 11.87C50.3174 11.8795 48.6275 11.8795 46.9287 11.87C46.7052 11.87 46.6336 11.9176 46.6336 12.1747C46.6426 14.7073 46.6336 17.2399 46.6426 19.7725C46.6426 20.0296 46.58 20.0866 46.3475 20.0772C45.051 20.0676 43.7545 20.0676 42.4581 20.0772C42.2434 20.0772 42.1808 20.0296 42.1808 19.7915C42.1808 16.6115 42.1808 13.422 42.1808 10.2419L42.1719 10.2515Z" fill="white"/>
<path d="M59.2668 10.0801C59.2846 9.25178 59.222 8.26157 59.3294 7.27142C59.535 5.30057 60.0804 3.49158 61.4574 2.07295C62.4052 1.10181 63.5586 0.549595 64.8372 0.31157C66.4288 0.0164193 68.0024 0.0735452 69.5224 0.682889C71.6147 1.52074 72.8397 3.19643 73.4298 5.44338C73.698 6.47166 73.8053 7.538 73.8053 8.60433C73.8053 9.85163 73.8232 11.0989 73.7964 12.3461C73.7606 13.8409 73.5013 15.2881 72.8486 16.6305C72.0439 18.2872 70.81 19.4012 69.138 19.9629C67.4927 20.5056 65.8208 20.5246 64.1576 20.0391C61.9044 19.3726 60.4649 17.7921 59.7406 15.4499C59.4009 14.3646 59.2668 13.2506 59.2578 12.1081C59.2578 11.4892 59.2578 10.8608 59.2578 10.0801H59.2668ZM69.3704 10.3943C69.3704 9.68021 69.3794 9.08044 69.3704 8.47106C69.3526 7.76654 69.2989 7.06195 69.129 6.37644C68.7803 4.97685 68.065 4.24374 66.84 4.11045C65.6509 3.97715 64.6763 4.48176 64.1756 5.73853C63.9252 6.36692 63.8 7.03339 63.7553 7.70938C63.6659 9.21371 63.7016 10.7276 63.7196 12.2319C63.7196 12.8127 63.7911 13.3934 63.9163 13.9647C64.2113 15.4023 64.9356 16.2021 66.1337 16.4021C67.3229 16.6115 68.3779 16.0307 68.8697 14.8977C69.0932 14.3836 69.2185 13.8314 69.2899 13.2696C69.4152 12.2699 69.3615 11.2702 69.3794 10.3848L69.3704 10.3943Z" fill="white"/>
<path d="M128.436 10.4039C128.419 11.4321 128.481 12.5747 128.329 13.7077C128.052 15.6785 127.399 17.4399 125.915 18.7443C124.815 19.7154 123.519 20.1914 122.115 20.3247C120.702 20.4581 119.316 20.3438 117.993 19.7535C115.928 18.8299 114.765 17.1067 114.219 14.8597C113.987 13.9171 113.888 12.9459 113.888 11.9748C113.888 10.699 113.871 9.42322 113.898 8.14738C113.934 6.6145 114.211 5.13875 114.89 3.76772C115.677 2.18724 116.875 1.12089 118.467 0.587713C120.157 0.0164536 121.873 -0.0121095 123.572 0.502024C125.96 1.2161 127.39 2.9394 128.052 5.4339C128.312 6.41457 128.427 7.42379 128.436 8.45208C128.436 9.06139 128.436 9.68023 128.436 10.4134V10.4039ZM124.001 10.261C124.001 9.75644 124.001 9.26134 124.001 8.75669C123.984 7.8237 123.93 6.89062 123.635 5.99564C123.232 4.77695 122.401 4.10096 121.247 4.08192C120.013 4.05336 119.182 4.65318 118.735 5.8909C118.431 6.70971 118.35 7.57612 118.341 8.44254C118.324 9.66124 118.333 10.8799 118.341 12.0986C118.341 12.7936 118.413 13.4887 118.592 14.1646C118.905 15.3453 119.495 16.2307 120.729 16.4021C121.927 16.5735 122.964 16.1355 123.501 14.8787C123.716 14.3741 123.832 13.8505 123.903 13.3078C124.037 12.2986 124.001 11.2703 124.001 10.261Z" fill="white"/>
<path d="M105.486 16.1547H106.774C108.571 16.1547 110.377 16.1547 112.175 16.1547C112.38 16.1547 112.443 16.2023 112.434 16.4308C112.424 17.5639 112.424 18.6968 112.434 19.8298C112.434 20.0393 112.389 20.0964 112.183 20.0964C108.168 20.0964 104.145 20.0964 100.13 20.0964C99.9155 20.0964 99.8711 20.0202 99.8711 19.8108C99.8803 19.0015 99.8803 18.1827 99.8711 17.3734C99.8711 17.1259 99.9247 16.9164 100.041 16.7069C102.205 12.6891 104.368 8.67124 106.523 4.64383C106.568 4.56765 106.603 4.48197 106.658 4.36772C106.541 4.36772 106.452 4.36772 106.371 4.36772C104.297 4.36772 102.223 4.36772 100.148 4.36772C99.9423 4.36772 99.8803 4.32011 99.8803 4.09161C99.8887 2.95861 99.8887 1.82561 99.8803 0.692613C99.8803 0.47363 99.9423 0.435547 100.13 0.435547C104.064 0.435547 107.99 0.435547 111.924 0.435547C112.112 0.435547 112.183 0.47363 112.175 0.692613C112.156 1.55902 112.175 2.43496 112.175 3.30136C112.175 3.44418 112.148 3.57747 112.076 3.70125C109.948 7.72863 107.811 11.756 105.683 15.7834C105.629 15.8881 105.576 15.9929 105.495 16.1452L105.486 16.1547Z" fill="white"/>
<path d="M97.4893 10.2901C97.4893 13.451 97.4893 16.6119 97.4893 19.7824C97.4893 20.03 97.4357 20.0967 97.2028 20.0967C95.8891 20.0871 94.5747 20.0871 93.2686 20.0967C93.0633 20.0967 93.0273 20.0395 93.0273 19.83C93.0273 13.4605 93.0273 7.08145 93.0273 0.7119C93.0273 0.51196 93.0633 0.445312 93.2686 0.445312C94.5831 0.454833 95.8976 0.454833 97.2028 0.445312C97.4265 0.445312 97.4985 0.492917 97.4985 0.749984C97.4893 3.92999 97.4985 7.11001 97.4985 10.2995L97.4893 10.2901Z" fill="white"/>
<path d="M47.5953 29.332C47.5953 30.8935 47.5953 32.3693 47.5953 33.8355C47.5953 34.0735 47.5326 34.1306 47.3181 34.1211C46.8442 34.1021 46.3793 34.1116 45.9053 34.1211C45.7623 34.1211 45.7266 34.083 45.7266 33.9307C45.7266 31.141 45.7266 28.3609 45.7266 25.5713C45.7266 25.4189 45.7712 25.3809 45.9053 25.3809C46.2898 25.3903 46.6654 25.3903 47.0498 25.3809C47.2287 25.3809 47.3359 25.4379 47.4343 25.5998C48.3732 27.1327 49.321 28.656 50.2866 30.1984C50.3581 30.0938 50.3313 29.9985 50.3313 29.9033C50.3313 28.4847 50.3313 27.0661 50.3313 25.6569C50.3313 25.4475 50.376 25.3809 50.5816 25.3903C51.0556 25.4094 51.5205 25.3999 51.9944 25.3903C52.1464 25.3903 52.2089 25.4189 52.2089 25.5998C52.2089 28.3704 52.2089 31.1315 52.2089 33.9021C52.2089 34.0735 52.1821 34.1306 52.0033 34.1211C51.601 34.1021 51.2075 34.1116 50.8052 34.1211C50.6532 34.1211 50.5727 34.0735 50.4833 33.9307C49.5892 32.4835 48.6771 31.0363 47.7741 29.5986C47.7294 29.532 47.6847 29.4654 47.5953 29.3225V29.332Z" fill="white"/>
<path d="M131.225 34.1209C130.528 34.1209 129.866 34.1209 129.204 34.1209C129.043 34.1209 129.017 34.0067 128.972 33.902C128.578 32.9498 128.176 31.9977 127.792 31.0361C127.729 30.8743 127.648 30.7981 127.478 30.8171C127.291 30.8362 127.103 30.8362 126.925 30.8171C126.736 30.7981 126.683 30.8743 126.692 31.0647C126.701 31.9882 126.692 32.9117 126.701 33.8448C126.701 34.0638 126.656 34.1304 126.441 34.1209C125.949 34.1019 125.449 34.1114 124.948 34.1209C124.769 34.1209 124.707 34.0924 124.707 33.8829C124.707 31.1218 124.707 28.3703 124.707 25.6091C124.707 25.4758 124.707 25.3806 124.886 25.3806C126.093 25.4187 127.3 25.3045 128.498 25.4473C129.518 25.571 130.385 25.9995 130.733 27.1134C131.028 28.056 130.993 28.9891 130.394 29.8174C130.232 30.0459 130.018 30.2268 129.776 30.3506C129.606 30.4363 129.625 30.5124 129.687 30.6648C130.188 31.7693 130.68 32.8737 131.171 33.9781C131.189 34.0067 131.198 34.0448 131.225 34.1209ZM126.692 28.1132C126.692 28.3797 126.692 28.6368 126.692 28.9034C126.692 29.0081 126.692 29.0843 126.826 29.0843C127.273 29.0652 127.729 29.1128 128.176 29.0272C128.686 28.932 128.909 28.6844 128.919 28.1703C128.919 27.6276 128.695 27.3134 128.212 27.2086C127.756 27.1134 127.291 27.161 126.835 27.1516C126.709 27.1516 126.692 27.2182 126.692 27.3229C126.692 27.5895 126.692 27.8466 126.692 28.1132Z" fill="white"/>
<path d="M89.4138 34.1211C88.7168 34.1211 88.0458 34.1211 87.3839 34.1211C87.2414 34.1211 87.2054 34.0355 87.1694 33.9307C86.7765 32.9786 86.3736 32.0266 85.989 31.0649C85.9178 30.884 85.8282 30.7983 85.6405 30.8173C85.3992 30.8364 85.0683 30.7412 84.9251 30.8649C84.7734 31.0078 84.8806 31.3601 84.8806 31.6267C84.8806 32.3788 84.8806 33.1405 84.8806 33.8926C84.8806 34.0831 84.827 34.1307 84.6569 34.1211C84.1292 34.1117 83.6106 34.1117 83.0836 34.1211C82.9311 34.1211 82.8867 34.0831 82.8867 33.9213C82.8867 31.1411 82.8867 28.3705 82.8867 25.5903C82.8867 25.4666 82.8867 25.3809 83.0476 25.3904C84.2548 25.4285 85.462 25.3143 86.6601 25.4571C87.6704 25.5808 88.5283 26.0092 88.9044 27.1137C89.2706 28.1896 89.0921 29.7796 87.8849 30.3984C87.7148 30.4841 87.8313 30.5889 87.8673 30.6745C88.3139 31.6838 88.7704 32.693 89.2262 33.7022C89.2798 33.826 89.3334 33.9593 89.4046 34.1307L89.4138 34.1211ZM84.8714 28.1134C84.8714 28.38 84.8714 28.6466 84.8714 28.9037C84.8714 29.0084 84.8714 29.0845 85.0055 29.075C85.4436 29.056 85.891 29.1036 86.3291 29.0274C86.8569 28.9322 87.089 28.6752 87.0982 28.1705C87.0982 27.6088 86.8653 27.3137 86.3291 27.1994C85.891 27.1042 85.4436 27.1709 85.0055 27.1423C84.8714 27.1423 84.863 27.2089 84.8714 27.3137C84.8714 27.5802 84.8714 27.8469 84.8714 28.1039V28.1134Z" fill="white"/>
<path d="M53.7188 29.7412C53.7188 28.3702 53.7188 26.9991 53.7188 25.6376C53.7188 25.4472 53.7634 25.3806 53.9512 25.3901C54.9794 25.3996 56.0077 25.3711 57.0359 25.4092C58.2698 25.4568 59.2445 25.9709 59.7273 27.2753C59.8882 27.7037 59.9686 28.1607 59.9866 28.6273C60.0223 29.5603 60.0849 30.5029 59.924 31.4264C59.62 33.2164 58.5918 34.1114 56.884 34.1304C55.9094 34.1304 54.9347 34.1304 53.9601 34.1304C53.7724 34.1304 53.7276 34.0827 53.7276 33.8829C53.7276 32.5023 53.7276 31.1217 53.7276 29.7508L53.7188 29.7412ZM55.6947 29.7222C55.6947 30.5315 55.6947 31.3407 55.6947 32.1595C55.6947 32.3119 55.7305 32.369 55.8825 32.369C56.1687 32.3595 56.4458 32.369 56.7319 32.369C57.4204 32.369 57.8049 32.0834 57.9301 31.3503C58.1089 30.3125 58.1 29.2652 57.939 28.2274C57.8138 27.4371 57.4383 27.1515 56.6783 27.1515C56.419 27.1515 56.1597 27.161 55.9094 27.1515C55.7305 27.142 55.6858 27.1991 55.6947 27.38C55.7037 28.1607 55.6947 28.951 55.6947 29.7317V29.7222Z" fill="white"/>
<path d="M134.911 30.7887C134.687 31.1124 134.491 31.4075 134.285 31.6932C134.205 31.7979 134.196 31.9122 134.196 32.0359C134.196 32.6452 134.196 33.2641 134.196 33.8735C134.196 34.0449 134.178 34.121 133.99 34.121C133.472 34.1019 132.944 34.1115 132.416 34.121C132.255 34.121 132.211 34.0734 132.211 33.9021C132.211 31.1314 132.211 28.3703 132.211 25.5998C132.211 25.4093 132.273 25.3807 132.425 25.3903C132.952 25.3903 133.472 25.3998 133.999 25.3903C134.169 25.3903 134.205 25.4379 134.205 25.6092C134.205 26.4852 134.205 27.3706 134.205 28.2466V28.5226C134.312 28.5226 134.33 28.4274 134.366 28.3798C134.974 27.4563 135.581 26.5233 136.18 25.5902C136.279 25.4379 136.377 25.3807 136.547 25.3903C137.218 25.3998 137.897 25.3903 138.622 25.3903C138.514 25.5426 138.434 25.6664 138.354 25.7902C137.682 26.7708 137.003 27.761 136.324 28.7321C136.226 28.8749 136.226 28.9701 136.314 29.1225C137.191 30.7029 138.059 32.293 138.926 33.8735C138.962 33.9401 138.989 34.0067 139.042 34.1115C138.47 34.1115 137.924 34.0639 137.378 34.121C136.842 34.1781 136.556 33.9782 136.324 33.4641C135.948 32.6452 135.501 31.8646 135.081 31.0743C135.036 30.9886 134.982 30.9029 134.911 30.7792V30.7887Z" fill="white"/>
<path d="M67.786 28.4075C67.786 29.3215 67.8218 30.2451 67.786 31.1591C67.7055 32.9966 66.5342 34.1773 64.7996 34.2439C64.0038 34.2725 63.2438 34.1486 62.5733 33.6441C61.8132 33.0633 61.4645 32.2254 61.393 31.2733C61.2857 29.8166 61.3661 28.3504 61.3483 26.8842C61.3483 26.4652 61.3572 26.0558 61.3483 25.6369C61.3483 25.4274 61.4108 25.3894 61.5897 25.3894C62.0993 25.3988 62.6001 25.3988 63.1097 25.3894C63.2974 25.3894 63.3422 25.437 63.3422 25.6369C63.3422 27.3126 63.3422 28.9788 63.3422 30.6544C63.3422 31.0543 63.3779 31.4447 63.5299 31.816C63.7356 32.3111 64.1112 32.492 64.6029 32.492C65.0857 32.492 65.4612 32.3111 65.6669 31.816C65.8457 31.3876 65.8547 30.9306 65.8547 30.4831C65.8547 28.874 65.8547 27.2745 65.8547 25.6655C65.8547 25.437 65.9172 25.3894 66.1229 25.3894C66.6057 25.4084 67.0796 25.4084 67.5625 25.3894C67.7949 25.3798 67.8307 25.4655 67.8307 25.694C67.8218 26.5985 67.8307 27.503 67.8307 28.417H67.8128L67.786 28.4075Z" fill="white"/>
<path d="M124.018 34.1198C123.348 34.1198 122.704 34.1198 122.069 34.1198C121.935 34.1198 121.89 34.0722 121.854 33.9389C121.756 33.5677 121.631 33.2058 121.532 32.8345C121.496 32.6822 121.434 32.625 121.282 32.625C120.576 32.6346 119.86 32.6346 119.154 32.625C118.984 32.625 118.93 32.6917 118.886 32.8535C118.796 33.2154 118.681 33.5677 118.582 33.9294C118.546 34.0722 118.484 34.1198 118.34 34.1103C117.777 34.1103 117.205 34.1008 116.641 34.1103C116.463 34.1103 116.418 34.0913 116.49 33.8818C117.062 32.1585 117.616 30.4352 118.18 28.7119C118.51 27.6931 118.85 26.6744 119.172 25.6462C119.244 25.4272 119.333 25.3605 119.548 25.37C120.013 25.3891 120.486 25.3891 120.96 25.37C121.139 25.37 121.201 25.4367 121.255 25.5986C122.051 28.055 122.856 30.5019 123.652 32.9583C123.777 33.3296 123.893 33.7009 124.027 34.1103L124.018 34.1198ZM120.218 28.331C119.967 29.1689 119.744 29.9401 119.512 30.7113C119.476 30.8256 119.485 30.8827 119.619 30.8827C120.013 30.8827 120.397 30.8827 120.79 30.8827C120.907 30.8827 120.951 30.8446 120.916 30.7208C120.692 29.9496 120.468 29.1784 120.218 28.331Z" fill="white"/>
<path d="M93.3295 34.1211C93.6068 33.2833 93.8749 32.4645 94.1338 31.6457C94.7956 29.6272 95.4483 27.6183 96.1009 25.5998C96.1545 25.4475 96.2081 25.3809 96.369 25.3809C96.87 25.3903 97.3617 25.3903 97.8627 25.3809C98.0144 25.3809 98.0948 25.4189 98.1484 25.5903C99.0431 28.3513 99.9462 31.1125 100.849 33.8736C100.911 34.0735 100.903 34.1307 100.688 34.1211C100.134 34.1116 99.5701 34.1211 99.0163 34.1211C98.8731 34.1211 98.8011 34.0925 98.7566 33.9212C98.667 33.5498 98.5422 33.1881 98.4441 32.8168C98.4081 32.6834 98.3453 32.6263 98.2021 32.6263C97.4874 32.6263 96.7627 32.6358 96.0473 32.6263C95.8864 32.6263 95.8328 32.7025 95.7968 32.8358C95.6988 33.207 95.5823 33.5689 95.4843 33.9402C95.4575 34.0354 95.4398 34.1116 95.3142 34.1116C94.6616 34.1116 94.0089 34.1116 93.3203 34.1116L93.3295 34.1211ZM97.8711 30.8839L97.1565 28.418C96.8792 29.1987 96.6463 29.9795 96.4142 30.7697C96.3782 30.903 96.4502 30.8839 96.5214 30.8839C96.9596 30.8839 97.4062 30.8839 97.8711 30.8839Z" fill="white"/>
<path d="M110.704 29.7404C110.704 28.3694 110.704 26.9984 110.704 25.6369C110.704 25.475 110.704 25.3798 110.91 25.3893C111.965 25.4083 113.02 25.3893 114.075 25.4083C114.611 25.4179 115.13 25.5226 115.613 25.7892C116.516 26.2748 116.954 27.2078 116.892 28.4265C116.802 30.2926 115.595 31.1019 114.039 31.1686C113.673 31.1876 113.315 31.1781 112.948 31.1686C112.751 31.1686 112.68 31.2066 112.68 31.4447C112.698 32.254 112.68 33.0728 112.689 33.882C112.689 34.082 112.636 34.1391 112.456 34.1296C111.965 34.1201 111.482 34.1105 110.99 34.1296C110.767 34.1296 110.695 34.0915 110.695 33.8249C110.713 32.4634 110.695 31.1019 110.695 29.7499L110.704 29.7404ZM112.689 28.2741C112.689 28.5979 112.689 28.9121 112.689 29.2358C112.689 29.3215 112.68 29.4167 112.806 29.4072C113.261 29.3882 113.726 29.4548 114.182 29.3406C114.665 29.2072 114.907 28.8645 114.924 28.3123C114.942 27.741 114.728 27.4268 114.236 27.2554C113.771 27.0936 113.288 27.1602 112.814 27.1412C112.689 27.1412 112.707 27.2269 112.707 27.3125C112.707 27.6363 112.707 27.9505 112.707 28.2741H112.689Z" fill="white"/>
<path d="M73.6076 27.8275C73.241 27.1229 72.633 26.9896 71.9624 27.0372C71.5779 27.0658 71.3186 27.2753 71.2471 27.599C71.1666 27.9418 71.2918 28.2274 71.6226 28.4559C71.9534 28.6749 72.329 28.7891 72.7045 28.9129C73.089 29.0367 73.4645 29.1699 73.8221 29.3603C74.8862 29.9126 75.2527 30.7695 75.1097 32.0358C74.9756 33.1879 74.3407 33.8924 73.2767 34.1304C72.2664 34.3589 71.2649 34.3018 70.2993 33.9019C69.8165 33.702 69.4319 33.3687 69.0922 32.9593C69.0028 32.8545 69.0117 32.8069 69.119 32.7213C69.5214 32.4261 69.9237 32.131 70.3171 31.8263C70.4334 31.7406 70.496 31.7501 70.5943 31.8644C71.1577 32.5023 71.864 32.5975 72.624 32.4261C72.9012 32.3595 73.1068 32.1691 73.1516 31.8549C73.1962 31.5406 73.0711 31.3026 72.8297 31.1313C72.4899 30.8837 72.0965 30.76 71.712 30.6172C71.2291 30.4458 70.7463 30.2554 70.3082 29.9507C69.3783 29.3127 69.1101 28.3702 69.28 27.2753C69.4409 26.2565 70.0578 25.6662 70.9698 25.4282C72.0339 25.1521 73.08 25.2092 74.0725 25.7424C74.4302 25.9328 74.7341 26.2184 74.9756 26.5612C75.0471 26.6564 75.0739 26.7231 74.9577 26.8088C74.5106 27.142 74.0636 27.4847 73.6076 27.837V27.8275Z" fill="white"/>
<path d="M142.579 34.2448C141.676 34.2353 140.799 34.0925 140.039 33.5022C139.833 33.3403 139.655 33.1403 139.476 32.9404C139.395 32.8547 139.386 32.8071 139.494 32.731C139.914 32.4263 140.325 32.1216 140.736 31.8074C140.87 31.7027 140.916 31.7884 140.987 31.874C141.55 32.493 142.239 32.6072 142.998 32.4358C143.285 32.3692 143.499 32.1883 143.544 31.8551C143.589 31.5313 143.455 31.2933 143.195 31.1219C142.811 30.8648 142.373 30.722 141.953 30.5697C141.532 30.4173 141.121 30.246 140.746 29.9984C139.816 29.3796 139.529 28.4656 139.672 27.3706C139.806 26.3424 140.406 25.714 141.326 25.4664C142.507 25.1523 143.66 25.2189 144.724 25.9235C144.984 26.0948 145.189 26.3234 145.377 26.5804C145.449 26.6851 145.457 26.7423 145.35 26.8279C144.939 27.1231 144.537 27.4373 144.134 27.7515C144.045 27.8277 143.982 27.8467 143.911 27.7134C143.544 27.0755 142.775 26.9613 142.131 27.1136C141.872 27.1802 141.684 27.3421 141.63 27.6277C141.577 27.9324 141.657 28.1894 141.89 28.3798C142.194 28.6369 142.56 28.7512 142.927 28.875C143.365 29.0178 143.803 29.1606 144.215 29.3796C145.234 29.9318 145.654 30.7887 145.502 32.0645C145.377 33.1403 144.715 33.8925 143.678 34.1496C143.312 34.2448 142.945 34.2829 142.569 34.2638L142.579 34.2448Z" fill="white"/>
<path d="M77.8443 30.6082C77.8443 29.5418 77.8443 28.4755 77.8443 27.4091C77.8443 27.2092 77.8083 27.133 77.603 27.1425C77.0392 27.1616 76.4671 27.1425 75.9037 27.152C75.7607 27.152 75.707 27.114 75.707 26.9521C75.716 26.4856 75.707 26.0285 75.707 25.562C75.707 25.4287 75.7428 25.3906 75.868 25.3906C77.8351 25.3906 79.8022 25.3906 81.7785 25.3906C81.9301 25.3906 81.9477 25.4478 81.9477 25.5906C81.9477 26.0476 81.9393 26.495 81.9477 26.9521C81.9477 27.1425 81.8857 27.1616 81.7333 27.1616C81.1794 27.1616 80.6157 27.1616 80.0618 27.1616C79.865 27.1616 79.8114 27.2092 79.8114 27.4281C79.8114 29.5703 79.8114 31.7126 79.8198 33.8548C79.8198 34.0928 79.7662 34.15 79.5433 34.15C79.0599 34.1309 78.5681 34.1309 78.0764 34.15C77.8795 34.15 77.8259 34.1119 77.8259 33.8929C77.8351 32.8075 77.8259 31.7221 77.8259 30.6367L77.8443 30.6082Z" fill="white"/>
<path d="M101.637 29.7418C101.637 28.3707 101.637 26.9997 101.637 25.6382C101.637 25.4382 101.69 25.3906 101.869 25.3906C102.361 25.4002 102.843 25.4097 103.335 25.3906C103.549 25.3906 103.612 25.4382 103.612 25.6762C103.604 27.8089 103.612 29.9417 103.604 32.0744C103.604 32.3124 103.657 32.3696 103.88 32.3696C104.766 32.3505 105.651 32.3696 106.545 32.36C106.796 32.36 106.831 32.4362 106.823 32.6742C106.804 33.0741 106.804 33.4644 106.823 33.8643C106.823 34.0643 106.787 34.1309 106.581 34.1309C105.007 34.1214 103.442 34.1214 101.869 34.1309C101.681 34.1309 101.637 34.0738 101.637 33.8833C101.637 32.5028 101.637 31.1223 101.637 29.7512V29.7418Z" fill="white"/>
<path d="M44.0827 29.7697C44.0827 31.1312 44.0827 32.4927 44.0827 33.8542C44.0827 34.0827 44.0201 34.1399 43.8144 34.1303C43.3047 34.1113 42.8041 34.1209 42.2944 34.1303C42.1424 34.1303 42.0977 34.0923 42.0977 33.9305C42.0977 31.1503 42.0977 28.3797 42.0977 25.5995C42.0977 25.4377 42.1424 25.3901 42.2944 25.3996C42.8129 25.3996 43.3226 25.4187 43.8412 25.3996C44.0558 25.3996 44.0827 25.4853 44.0827 25.6757C44.0827 27.0467 44.0827 28.4178 44.0827 29.7888V29.7697Z" fill="white"/>
<path d="M90.5352 29.7216C90.5352 28.3601 90.5352 26.9986 90.5352 25.6371C90.5352 25.4181 90.5888 25.3705 90.7856 25.38C91.3042 25.399 91.8144 25.3895 92.333 25.38C92.4846 25.38 92.5291 25.4181 92.5291 25.58C92.5291 28.3601 92.5291 31.1307 92.5291 33.9108C92.5291 34.0727 92.4846 34.1203 92.333 34.1108C91.8144 34.1108 91.3042 34.1012 90.7856 34.1108C90.5888 34.1108 90.5352 34.0632 90.5352 33.8537C90.5443 32.4732 90.5352 31.0926 90.5352 29.712V29.7216Z" fill="white"/>
</g>
<line x1="166" y1="2.45973e-08" x2="166" y2="33.7631" stroke="white" stroke-width="1.12544"/>
<defs>
<clipPath id="clip0_9048_5497">
<rect width="146.307" height="34.8885" fill="white"/>
</clipPath>
</defs>
</svg>
