<svg width="219" height="27" viewBox="0 0 219 27" fill="none" xmlns="http://www.w3.org/2000/svg">
<path d="M0.0417849 1.23354C0.1147 1.23354 0.187614 1.22656 0.260529 1.22656C7.91658 1.22656 15.5726 1.22656 23.2287 1.22656C23.4209 1.22656 23.4607 1.27538 23.4607 1.47064C23.4607 9.53228 23.4607 17.5939 23.4607 25.6486C23.4607 25.8369 23.4342 25.8996 23.2353 25.8996C15.9571 25.8996 8.67224 25.8996 1.39402 25.8996H1.16865C1.23494 25.8229 1.27471 25.7741 1.32111 25.7323C4.94033 21.9246 8.55956 18.1239 12.1722 14.3093C12.3047 14.1698 12.3578 14.1977 12.4771 14.3163C13.4647 15.3693 14.4657 16.4154 15.4599 17.4614C15.513 17.5172 15.5527 17.58 15.5925 17.6358C15.6721 17.566 15.6455 17.5033 15.6455 17.4544C15.6455 14.8532 15.6455 12.252 15.6455 9.65084C15.6455 9.52531 15.6455 9.45557 15.4865 9.45557C12.9676 9.45557 10.4487 9.45557 7.92984 9.45557C7.90995 9.45557 7.89007 9.45557 7.87018 9.45557C7.83704 9.4207 7.79726 9.39281 7.76412 9.35794C5.2121 6.687 2.67335 4.01606 0.127957 1.34512C0.0948138 1.31025 0.0682993 1.27538 0.0351562 1.23354H0.0417849Z" fill="#2BB04C"/>
<path d="M0.0414289 1.23452C0.074572 1.26939 0.101086 1.31123 0.13423 1.3461C2.67299 4.01705 5.21838 6.69496 7.75714 9.3659C7.79028 9.40077 7.82343 9.42867 7.8632 9.46354C7.9096 9.51933 7.956 9.57512 8.00903 9.63091C9.01658 10.6909 10.0241 11.7579 11.0383 12.8109C11.1245 12.9016 11.1642 12.9504 11.0516 13.069C7.39919 16.8975 3.75345 20.7331 0.107715 24.5687C0.0878292 24.5896 0.0613147 24.6175 0.0348002 24.6384C-0.0182287 24.5826 0.00828577 24.5198 0.00828577 24.464C0.00828577 16.786 0.00828577 9.10787 0.00828577 1.42979C0.00828577 1.36702 -0.0248573 1.29031 0.0414289 1.2415V1.23452Z" fill="#F47922"/>
<path d="M103.995 9.20389C103.995 6.61664 103.995 4.04333 103.995 1.47002C103.995 1.27475 104.028 1.21896 104.227 1.21896C105.128 1.23291 106.03 1.22594 106.931 1.21896C107.07 1.21896 107.104 1.26081 107.104 1.40028C107.104 6.07966 107.104 10.7521 107.104 15.4314C107.104 15.5779 107.057 15.6128 106.925 15.6128C106.156 15.6128 105.387 15.6128 104.618 15.6128C104.485 15.6128 104.406 15.5709 104.333 15.4524C102.742 12.9348 101.151 10.4173 99.5602 7.89283C99.5205 7.83006 99.4807 7.7673 99.4012 7.65572V7.92072C99.4012 10.4103 99.4012 12.9 99.4012 15.3896C99.4012 15.5779 99.3481 15.6128 99.1824 15.6128C98.2809 15.6058 97.3794 15.6058 96.4779 15.6128C96.3387 15.6128 96.3056 15.5779 96.3056 15.4314C96.3056 10.7521 96.3056 6.07966 96.3056 1.40028C96.3056 1.25383 96.3454 1.21896 96.4779 1.21896C97.2402 1.22594 98.0025 1.22594 98.7648 1.21896C98.8974 1.21896 98.9637 1.26778 99.03 1.37936C100.641 3.94569 102.258 6.519 103.875 9.08534C103.902 9.12718 103.915 9.18994 103.995 9.21086V9.20389Z" fill="black"/>
<path d="M55.8105 8.40889C55.8105 6.08663 55.8105 3.7574 55.8105 1.43515C55.8105 1.26081 55.8502 1.21896 56.0159 1.21896C57.8256 1.22594 59.6352 1.20502 61.4448 1.23988C62.5584 1.26081 63.6322 1.52581 64.5669 2.22318C65.4352 2.86477 65.9257 3.76438 66.0782 4.85925C66.2108 5.77979 66.171 6.69335 65.8396 7.57204C65.5081 8.44376 64.9182 9.07139 64.1227 9.48982C63.9769 9.56653 63.9835 9.62232 64.0432 9.74784C64.8983 11.6308 65.7534 13.5137 66.6018 15.4035C66.7013 15.6197 66.7013 15.6197 66.4759 15.6197C65.4087 15.6197 64.3481 15.6197 63.2809 15.6197C63.1218 15.6197 63.0555 15.5639 62.9959 15.4175C62.2932 13.7298 61.584 12.0492 60.888 10.3685C60.8283 10.229 60.762 10.1732 60.6162 10.1732C60.1853 10.1872 59.7479 10.1872 59.317 10.1732C59.1314 10.1732 59.1049 10.236 59.1049 10.4103C59.1049 12.0771 59.1049 13.7438 59.1115 15.4105C59.1115 15.5849 59.0651 15.6267 58.906 15.6197C57.9449 15.6128 56.9837 15.6128 56.0226 15.6197C55.8635 15.6197 55.8171 15.5849 55.8171 15.4105C55.8171 13.0813 55.8171 10.7451 55.8171 8.41586L55.8105 8.40889ZM59.0982 5.68913C59.0982 6.02387 59.0982 6.35163 59.0982 6.68637C59.0982 6.88164 59.0187 7.13269 59.1314 7.24427C59.2507 7.3698 59.4893 7.28612 59.6816 7.27914C60.3378 7.27914 60.994 7.32796 61.6503 7.20243C62.1938 7.09782 62.6379 6.86072 62.7904 6.24703C62.8766 5.89137 62.8766 5.53571 62.7771 5.18005C62.5982 4.52451 62.1143 4.27346 61.5376 4.16885C60.7687 4.02938 59.9931 4.10609 59.2176 4.08517C59.0916 4.08517 59.1049 4.16188 59.1049 4.24557C59.1049 4.71978 59.1049 5.20097 59.1049 5.67518L59.0982 5.68913Z" fill="black"/>
<path d="M30.4675 8.40989C30.4675 6.08763 30.4675 3.7584 30.4675 1.43615C30.4675 1.26181 30.5073 1.21996 30.673 1.21996C31.6408 1.22694 32.6086 1.22694 33.5763 1.21996C33.7487 1.21996 33.7752 1.26878 33.7752 1.43615C33.7752 3.12379 33.7752 4.81144 33.7686 6.49908C33.7686 6.66645 33.8017 6.72224 33.9741 6.71527C35.2335 6.70829 36.4863 6.70829 37.7457 6.71527C37.9181 6.71527 37.9777 6.6804 37.9777 6.47816C37.9711 4.79749 37.9777 3.11682 37.9711 1.43615C37.9711 1.25483 38.0175 1.21299 38.1832 1.21299C39.1444 1.21996 40.1055 1.21996 41.0667 1.21299C41.2191 1.21299 41.2788 1.24088 41.2788 1.4222C41.2788 6.08066 41.2788 10.7321 41.2788 15.3906C41.2788 15.558 41.2523 15.6138 41.0799 15.6068C40.1055 15.5998 39.1311 15.5998 38.1567 15.6068C38.0043 15.6068 37.9711 15.558 37.9711 15.4115C37.9711 13.5495 37.9711 11.6875 37.9777 9.82555C37.9777 9.65121 37.9446 9.59542 37.7656 9.59542C36.5062 9.60239 35.2534 9.60239 33.9939 9.59542C33.8282 9.59542 33.7752 9.63029 33.7752 9.81858C33.7818 11.6736 33.7752 13.5286 33.7818 15.3836C33.7818 15.5719 33.7354 15.6138 33.5631 15.6068C32.6019 15.5998 31.6408 15.5998 30.6796 15.6068C30.5206 15.6068 30.4742 15.5719 30.4742 15.3976C30.4742 13.0683 30.4742 10.7321 30.4742 8.40291L30.4675 8.40989Z" fill="black"/>
<path d="M43.1394 8.28365C43.1527 7.67693 43.1062 6.95166 43.1858 6.22639C43.3383 4.78283 43.7426 3.45782 44.7634 2.41873C45.466 1.70741 46.3211 1.30294 47.269 1.12859C48.4489 0.912408 49.6156 0.954251 50.7424 1.40057C52.2935 2.01426 53.2016 3.24164 53.6391 4.88744C53.838 5.6406 53.9175 6.42166 53.9175 7.20272C53.9175 8.11628 53.9308 9.02983 53.9109 9.94339C53.8844 11.0383 53.6922 12.0983 53.2083 13.0816C52.6117 14.295 51.6969 15.1109 50.4574 15.5224C49.2377 15.9199 47.9982 15.9338 46.7652 15.5782C45.0948 15.09 44.0276 13.9324 43.4907 12.2168C43.2388 11.4218 43.1394 10.6059 43.1328 9.76905C43.1328 9.31576 43.1328 8.85549 43.1328 8.28365H43.1394ZM50.6297 8.51378C50.6297 7.99075 50.6364 7.5514 50.6297 7.10508C50.6165 6.58903 50.5767 6.07297 50.4508 5.57086C50.1922 4.54572 49.662 4.00875 48.7538 3.91111C47.8722 3.81348 47.1497 4.18309 46.7785 5.10362C46.5929 5.56389 46.5001 6.05205 46.467 6.54718C46.4007 7.64903 46.4272 8.75786 46.4404 9.85971C46.4404 10.2851 46.4935 10.7105 46.5863 11.1289C46.805 12.182 47.3419 12.7678 48.2302 12.9142C49.1118 13.0676 49.894 12.6422 50.2585 11.8124C50.4242 11.4358 50.517 11.0313 50.5701 10.6198C50.6629 9.8876 50.6231 9.15536 50.6364 8.5068L50.6297 8.51378Z" fill="black"/>
<path d="M94.4227 8.52025C94.4095 9.27342 94.4559 10.1103 94.3432 10.9401C94.1377 12.3837 93.6538 13.6738 92.5535 14.6292C91.7381 15.3406 90.777 15.6893 89.7363 15.7869C88.689 15.8845 87.6615 15.8008 86.6805 15.3685C85.1493 14.692 84.2876 13.4298 83.8832 11.784C83.7109 11.0936 83.638 10.3822 83.638 9.67092C83.638 8.73644 83.6247 7.80196 83.6446 6.86748C83.6711 5.74471 83.8766 4.66378 84.3804 3.65956C84.9637 2.50192 85.8519 1.72086 87.0318 1.33033C88.2846 0.911911 89.5573 0.89099 90.8168 1.26757C92.5866 1.7906 93.6472 3.05285 94.1377 4.87997C94.3299 5.59826 94.4161 6.33748 94.4227 7.09064C94.4227 7.53696 94.4227 7.99025 94.4227 8.52723V8.52025ZM91.1349 8.41565C91.1349 8.04604 91.1349 7.68341 91.1349 7.3138C91.1217 6.63037 91.0819 5.94695 90.8632 5.29142C90.5649 4.39878 89.9484 3.90364 89.0933 3.8897C88.1786 3.86877 87.5621 4.30812 87.2307 5.2147C87.0053 5.81445 86.9456 6.44906 86.939 7.08367C86.9258 7.9763 86.9324 8.86894 86.939 9.76158C86.939 10.2707 86.992 10.7797 87.1246 11.2749C87.3566 12.1396 87.7941 12.7882 88.7089 12.9137C89.5971 13.0392 90.366 12.7184 90.7637 11.7979C90.9228 11.4283 91.009 11.0447 91.062 10.6472C91.1614 9.90803 91.1349 9.15487 91.1349 8.41565Z" fill="black"/>
<path d="M77.402 12.7324H78.3565C79.6889 12.7324 81.0278 12.7324 82.3602 12.7324C82.5126 12.7324 82.559 12.7673 82.5524 12.9346C82.5458 13.7645 82.5458 14.5944 82.5524 15.4242C82.5524 15.5777 82.5193 15.6195 82.3668 15.6195C79.3906 15.6195 76.4077 15.6195 73.4314 15.6195C73.2724 15.6195 73.2392 15.5637 73.2392 15.4103C73.2458 14.8175 73.2458 14.2178 73.2392 13.625C73.2392 13.4437 73.279 13.2903 73.3652 13.1369C74.9693 10.1939 76.5734 7.25103 78.1709 4.30114C78.204 4.24535 78.2306 4.18259 78.2703 4.0989C78.1842 4.0989 78.1179 4.0989 78.0582 4.0989C76.5204 4.0989 74.9825 4.0989 73.4447 4.0989C73.2922 4.0989 73.2458 4.06403 73.2458 3.89666C73.2525 3.06679 73.2525 2.23692 73.2458 1.40704C73.2458 1.24664 73.2922 1.21875 73.4314 1.21875C76.348 1.21875 79.258 1.21875 82.1746 1.21875C82.3138 1.21875 82.3668 1.24664 82.3602 1.40704C82.3469 2.04165 82.3602 2.68323 82.3602 3.31784C82.3602 3.42245 82.3403 3.52008 82.2873 3.61074C80.7097 6.56063 79.1254 9.51052 77.5478 12.4604C77.508 12.5371 77.4683 12.6138 77.4086 12.7254L77.402 12.7324Z" fill="black"/>
<path d="M71.4805 8.43545C71.4805 10.7507 71.4805 13.066 71.4805 15.3883C71.4805 15.5696 71.4407 15.6184 71.2684 15.6184C70.294 15.6114 69.3196 15.6114 68.3518 15.6184C68.1993 15.6184 68.1728 15.5766 68.1728 15.4231C68.1728 10.7577 68.1728 6.0853 68.1728 1.41987C68.1728 1.27343 68.1993 1.22461 68.3518 1.22461C69.3262 1.23158 70.3006 1.23158 71.2684 1.22461C71.4341 1.22461 71.4871 1.25948 71.4871 1.44777C71.4805 3.777 71.4871 6.10622 71.4871 8.44243L71.4805 8.43545Z" fill="black"/>
<path d="M34.4967 22.3843C34.4967 23.528 34.4967 24.609 34.4967 25.6829C34.4967 25.8573 34.4503 25.8991 34.2912 25.8921C33.9399 25.8782 33.5952 25.8851 33.2438 25.8921C33.1378 25.8921 33.1113 25.8642 33.1113 25.7526C33.1113 23.7093 33.1113 21.673 33.1113 19.6297C33.1113 19.5181 33.1444 19.4902 33.2438 19.4902C33.5289 19.4972 33.8073 19.4972 34.0923 19.4902C34.2249 19.4902 34.3044 19.5321 34.3773 19.6506C35.0733 20.7734 35.776 21.8892 36.4919 23.0189C36.5449 22.9422 36.525 22.8725 36.525 22.8028C36.525 21.7637 36.525 20.7246 36.525 19.6925C36.525 19.539 36.5582 19.4902 36.7106 19.4972C37.0619 19.5112 37.4066 19.5042 37.7579 19.4972C37.8706 19.4972 37.917 19.5181 37.917 19.6506C37.917 21.68 37.917 23.7024 37.917 25.7317C37.917 25.8573 37.8971 25.8991 37.7646 25.8921C37.4663 25.8782 37.1746 25.8851 36.8763 25.8921C36.7636 25.8921 36.704 25.8573 36.6377 25.7526C35.9748 24.6926 35.2987 23.6326 34.6292 22.5796C34.5961 22.5308 34.5629 22.482 34.4967 22.3774V22.3843Z" fill="black"/>
<path d="M96.4846 25.8918C95.9675 25.8918 95.477 25.8918 94.9865 25.8918C94.8672 25.8918 94.8473 25.8081 94.8142 25.7314C94.5225 25.0341 94.2242 24.3367 93.9392 23.6323C93.8928 23.5138 93.8331 23.458 93.7072 23.4719C93.568 23.4859 93.4288 23.4859 93.2962 23.4719C93.157 23.458 93.1172 23.5138 93.1239 23.6533C93.1305 24.3297 93.1239 25.0062 93.1305 25.6896C93.1305 25.85 93.0973 25.8988 92.9383 25.8918C92.5737 25.8779 92.2025 25.8849 91.8313 25.8918C91.6987 25.8918 91.6523 25.8709 91.6523 25.7175C91.6523 23.6951 91.6523 21.6797 91.6523 19.6573C91.6523 19.5597 91.6523 19.4899 91.7849 19.4899C92.6797 19.5178 93.5746 19.4342 94.4628 19.5388C95.2185 19.6294 95.8615 19.9432 96.12 20.7592C96.3387 21.4496 96.3122 22.133 95.8681 22.7397C95.7488 22.9071 95.5897 23.0396 95.4107 23.1302C95.2848 23.193 95.298 23.2488 95.3444 23.3604C95.7156 24.1693 96.0802 24.9783 96.4448 25.7872C96.4581 25.8081 96.4647 25.836 96.4846 25.8918ZM93.1239 21.4914C93.1239 21.6867 93.1239 21.875 93.1239 22.0702C93.1239 22.1469 93.1239 22.2027 93.2233 22.2027C93.5547 22.1888 93.8928 22.2236 94.2242 22.1609C94.602 22.0911 94.7678 21.9098 94.7744 21.5332C94.7744 21.1357 94.6087 20.9056 94.2507 20.8289C93.9127 20.7592 93.568 20.794 93.2299 20.7871C93.1371 20.7871 93.1239 20.8359 93.1239 20.9126C93.1239 21.1078 93.1239 21.2961 93.1239 21.4914Z" fill="black"/>
<path d="M65.4941 25.8907C64.9771 25.8907 64.4799 25.8907 63.9894 25.8907C63.8834 25.8907 63.8568 25.828 63.8303 25.7512C63.5387 25.0539 63.2404 24.3565 62.9554 23.6521C62.9023 23.5196 62.836 23.4569 62.6968 23.4708C62.5179 23.4848 62.2726 23.415 62.1666 23.5057C62.0539 23.6103 62.1334 23.8683 62.1334 24.0636C62.1334 24.6145 62.1334 25.1724 62.1334 25.7233C62.1334 25.8628 62.0936 25.8977 61.9677 25.8907C61.5766 25.8837 61.1921 25.8837 60.8011 25.8907C60.6884 25.8907 60.6552 25.8628 60.6552 25.7443C60.6552 23.7079 60.6552 21.6786 60.6552 19.6422C60.6552 19.5516 60.6552 19.4888 60.7745 19.4958C61.6694 19.5237 62.5643 19.44 63.4525 19.5446C64.2015 19.6353 64.8379 19.9491 65.1163 20.758C65.3881 21.5461 65.2555 22.7107 64.3606 23.164C64.2347 23.2268 64.3209 23.3035 64.3474 23.3662C64.6788 24.1054 65.0169 24.8447 65.3549 25.5839C65.3947 25.6745 65.4345 25.7722 65.4875 25.8977L65.4941 25.8907ZM62.1268 21.4903C62.1268 21.6856 62.1268 21.8808 62.1268 22.0691C62.1268 22.1458 62.1268 22.2016 62.2262 22.1946C62.551 22.1807 62.8824 22.2156 63.2072 22.1598C63.5983 22.09 63.7707 21.9017 63.7773 21.5321C63.7773 21.1207 63.605 20.9045 63.2072 20.8208C62.8824 20.7511 62.551 20.7999 62.2262 20.779C62.1268 20.779 62.1202 20.8278 62.1268 20.9045C62.1268 21.0998 62.1268 21.295 62.1268 21.4833V21.4903Z" fill="black"/>
<path d="M39.0329 22.6824C39.0329 21.6782 39.0329 20.674 39.0329 19.6768C39.0329 19.5373 39.0661 19.4885 39.2053 19.4954C39.9676 19.5024 40.7299 19.4815 41.4922 19.5094C42.4069 19.5443 43.1294 19.9208 43.4874 20.8762C43.6067 21.1901 43.6663 21.5248 43.6796 21.8665C43.7061 22.5499 43.7525 23.2403 43.6332 23.9168C43.4078 25.2278 42.6455 25.8834 41.3795 25.8973C40.657 25.8973 39.9344 25.8973 39.2119 25.8973C39.0727 25.8973 39.0396 25.8625 39.0396 25.716C39.0396 24.7048 39.0396 23.6936 39.0396 22.6894L39.0329 22.6824ZM40.4979 22.6685C40.4979 23.2613 40.4979 23.854 40.4979 24.4538C40.4979 24.5653 40.5244 24.6072 40.6371 24.6072C40.8492 24.6002 41.0547 24.6072 41.2668 24.6072C41.7772 24.6072 42.0622 24.398 42.155 23.861C42.2876 23.1009 42.281 22.3337 42.1616 21.5736C42.0688 20.9948 41.7904 20.7856 41.227 20.7856C41.0348 20.7856 40.8426 20.7926 40.657 20.7856C40.5244 20.7786 40.4912 20.8204 40.4979 20.9529C40.5045 21.5248 40.4979 22.1036 40.4979 22.6755V22.6685Z" fill="black"/>
<path d="M99.2205 23.4494C99.0548 23.6865 98.909 23.9027 98.7565 24.1119C98.6969 24.1886 98.6903 24.2723 98.6903 24.363C98.6903 24.8093 98.6903 25.2626 98.6903 25.7089C98.6903 25.8344 98.677 25.8902 98.5378 25.8902C98.1533 25.8763 97.7623 25.8832 97.3712 25.8902C97.2519 25.8902 97.2187 25.8554 97.2187 25.7298C97.2187 23.7005 97.2187 21.6781 97.2187 19.6487C97.2187 19.5093 97.2651 19.4883 97.3778 19.4953C97.7689 19.4953 98.1533 19.5023 98.5444 19.4953C98.6704 19.4953 98.6969 19.5302 98.6969 19.6557C98.6969 20.2973 98.6969 20.9458 98.6969 21.5874V21.7897C98.7764 21.7897 98.7897 21.7199 98.8162 21.6851C99.2669 21.0086 99.7177 20.3252 100.162 19.6418C100.235 19.5302 100.308 19.4883 100.434 19.4953C100.931 19.5023 101.435 19.4953 101.971 19.4953C101.892 19.6069 101.832 19.6975 101.773 19.7882C101.275 20.5065 100.772 21.2318 100.268 21.9431C100.195 22.0477 100.195 22.1174 100.261 22.229C100.911 23.3867 101.554 24.5513 102.197 25.7089C102.223 25.7577 102.243 25.8065 102.283 25.8832C101.859 25.8832 101.454 25.8484 101.05 25.8902C100.652 25.9321 100.44 25.7856 100.268 25.409C99.9895 24.8093 99.658 24.2374 99.3465 23.6586C99.3134 23.5959 99.2736 23.5331 99.2205 23.4424V23.4494Z" fill="black"/>
<path d="M49.4643 21.7073C49.4643 22.3768 49.4908 23.0532 49.4643 23.7227C49.4046 25.0686 48.5363 25.9334 47.2504 25.9822C46.6604 26.0031 46.097 25.9125 45.5998 25.5428C45.0364 25.1174 44.7779 24.5038 44.7248 23.8064C44.6453 22.7394 44.705 21.6654 44.6917 20.5915C44.6917 20.2846 44.6983 19.9848 44.6917 19.6779C44.6917 19.5245 44.7381 19.4966 44.8707 19.4966C45.2485 19.5036 45.6197 19.5036 45.9975 19.4966C46.1367 19.4966 46.1699 19.5315 46.1699 19.6779C46.1699 20.9053 46.1699 22.1257 46.1699 23.3531C46.1699 23.646 46.1964 23.9319 46.3091 24.2039C46.4615 24.5665 46.7399 24.699 47.1045 24.699C47.4625 24.699 47.7409 24.5665 47.8933 24.2039C48.0259 23.8901 48.0325 23.5553 48.0325 23.2276C48.0325 22.049 48.0325 20.8774 48.0325 19.6989C48.0325 19.5315 48.0789 19.4966 48.2314 19.4966C48.5893 19.5106 48.9406 19.5106 49.2986 19.4966C49.4709 19.4896 49.4975 19.5524 49.4975 19.7198C49.4908 20.3823 49.4975 21.0448 49.4975 21.7143H49.4842L49.4643 21.7073Z" fill="black"/>
<path d="M91.1434 25.8919C90.6463 25.8919 90.169 25.8919 89.6984 25.8919C89.599 25.8919 89.5658 25.8571 89.5393 25.7594C89.4664 25.4874 89.3736 25.2224 89.3007 24.9505C89.2742 24.8389 89.2278 24.7971 89.1151 24.7971C88.5914 24.804 88.0611 24.804 87.5375 24.7971C87.4115 24.7971 87.3718 24.8459 87.3386 24.9644C87.2723 25.2294 87.1862 25.4875 87.1132 25.7525C87.0867 25.8571 87.0403 25.8919 86.9343 25.885C86.5167 25.885 86.0924 25.878 85.6748 25.885C85.5423 25.885 85.5091 25.871 85.5621 25.7176C85.9864 24.4553 86.3973 23.1931 86.8149 21.9308C87.0602 21.1847 87.3121 20.4385 87.5507 19.6853C87.6038 19.5249 87.67 19.4761 87.8291 19.4831C88.1738 19.497 88.5251 19.497 88.8764 19.4831C89.009 19.4831 89.0554 19.5319 89.0952 19.6504C89.6851 21.4497 90.2817 23.2419 90.8717 25.0411C90.9645 25.3131 91.0506 25.5851 91.1501 25.885L91.1434 25.8919ZM88.3263 21.6519C88.1407 22.2656 87.975 22.8305 87.8026 23.3953C87.7761 23.479 87.7827 23.5209 87.8822 23.5209C88.1738 23.5209 88.4589 23.5209 88.7505 23.5209C88.8367 23.5209 88.8698 23.493 88.8433 23.4023C88.6776 22.8374 88.5119 22.2726 88.3263 21.6519Z" fill="black"/>
<path d="M68.4001 25.8921C68.6056 25.2784 68.8045 24.6787 68.9967 24.079C69.4872 22.6005 69.9711 21.1291 70.455 19.6506C70.4948 19.5391 70.5346 19.4902 70.6539 19.4902C71.0251 19.4972 71.3896 19.4972 71.7608 19.4902C71.8735 19.4902 71.9332 19.5181 71.973 19.6437C72.6358 21.666 73.3053 23.6884 73.9748 25.7108C74.0212 25.8573 74.0146 25.8991 73.8555 25.8921C73.4445 25.8852 73.0269 25.8921 72.6159 25.8921C72.5099 25.8921 72.4569 25.8712 72.4237 25.7457C72.3574 25.4737 72.2646 25.2087 72.1917 24.9367C72.1652 24.8391 72.1188 24.7972 72.0127 24.7972C71.4824 24.7972 70.9455 24.8042 70.4152 24.7972C70.2959 24.7972 70.2562 24.853 70.2296 24.9507C70.1567 25.2226 70.0706 25.4876 69.9976 25.7596C69.9778 25.8294 69.9645 25.8851 69.8717 25.8851C69.3878 25.8851 68.9039 25.8851 68.3935 25.8851L68.4001 25.8921ZM71.7675 23.5211L71.2372 21.7149C71.0317 22.2867 70.8594 22.8585 70.687 23.4374C70.6605 23.535 70.7135 23.5211 70.7666 23.5211C71.0914 23.5211 71.4228 23.5211 71.7675 23.5211Z" fill="black"/>
<path d="M81.2761 22.6836C81.2761 21.6794 81.2761 20.6751 81.2761 19.6779C81.2761 19.5593 81.2761 19.4896 81.4286 19.4966C82.2108 19.5105 82.9929 19.4966 83.7751 19.5105C84.1728 19.5175 84.5573 19.5942 84.9152 19.7895C85.5847 20.1451 85.9095 20.8286 85.8631 21.7212C85.7968 23.088 84.902 23.6808 83.7486 23.7296C83.4768 23.7436 83.2117 23.7366 82.9399 23.7296C82.7941 23.7296 82.741 23.7575 82.741 23.9319C82.7543 24.5246 82.741 25.1244 82.7477 25.7171C82.7477 25.8636 82.7079 25.9054 82.5753 25.8985C82.2107 25.8915 81.8528 25.8845 81.4882 25.8985C81.3225 25.8985 81.2695 25.8706 81.2695 25.6753C81.2827 24.6781 81.2695 23.6808 81.2695 22.6905L81.2761 22.6836ZM82.7477 21.6096C82.7477 21.8467 82.7477 22.0769 82.7477 22.314C82.7477 22.3767 82.741 22.4465 82.8338 22.4395C83.1719 22.4255 83.5166 22.4744 83.8546 22.3907C84.2126 22.293 84.3916 22.042 84.4048 21.6375C84.4181 21.2191 84.259 20.989 83.8944 20.8634C83.5497 20.7449 83.1918 20.7937 82.8405 20.7797C82.7477 20.7797 82.7609 20.8425 82.7609 20.9053C82.7609 21.1424 82.7609 21.3725 82.7609 21.6096H82.7477Z" fill="black"/>
<path d="M53.7754 21.2808C53.5036 20.7647 53.0529 20.6671 52.5557 20.7019C52.2707 20.7229 52.0785 20.8763 52.0255 21.1134C51.9658 21.3644 52.0586 21.5737 52.3039 21.741C52.5491 21.9014 52.8275 21.9851 53.1059 22.0758C53.391 22.1664 53.6694 22.2641 53.9345 22.4035C54.7233 22.808 54.9951 23.4356 54.889 24.3632C54.7896 25.207 54.319 25.723 53.5302 25.8974C52.7811 26.0647 52.0387 26.0229 51.3228 25.73C50.9649 25.5836 50.6798 25.3395 50.428 25.0396C50.3617 24.9629 50.3683 24.928 50.4478 24.8653C50.7461 24.6491 51.0444 24.4329 51.3361 24.2097C51.4223 24.147 51.4687 24.1539 51.5416 24.2376C51.9592 24.7049 52.4828 24.7746 53.0463 24.6491C53.2518 24.6003 53.4042 24.4608 53.4374 24.2306C53.4705 24.0005 53.3777 23.8262 53.1987 23.7006C52.9468 23.5193 52.6552 23.4287 52.3701 23.3241C52.0122 23.1985 51.6543 23.0591 51.3295 22.8359C50.6401 22.3687 50.4412 21.6783 50.5672 20.8763C50.6865 20.1301 51.1439 19.6977 51.82 19.5234C52.6088 19.3211 53.3843 19.363 54.1201 19.7535C54.3852 19.893 54.6106 20.1022 54.7896 20.3533C54.8426 20.423 54.8625 20.4718 54.7763 20.5346C54.4449 20.7787 54.1135 21.0297 53.7754 21.2877V21.2808Z" fill="black"/>
<path d="M104.91 25.9811C104.241 25.9741 103.591 25.8695 103.028 25.4371C102.875 25.3186 102.743 25.1721 102.61 25.0257C102.55 24.9629 102.544 24.928 102.623 24.8722C102.935 24.6491 103.24 24.4259 103.545 24.1958C103.644 24.1191 103.677 24.1818 103.73 24.2446C104.148 24.6979 104.658 24.7816 105.222 24.656C105.434 24.6072 105.593 24.4747 105.626 24.2307C105.659 23.9935 105.56 23.8192 105.368 23.6937C105.082 23.5054 104.758 23.4008 104.446 23.2892C104.135 23.1776 103.83 23.0521 103.551 22.8708C102.862 22.4175 102.65 21.748 102.756 20.946C102.855 20.1929 103.299 19.7326 103.982 19.5513C104.857 19.3211 105.712 19.37 106.501 19.886C106.693 20.0115 106.846 20.1789 106.985 20.3672C107.038 20.4439 107.045 20.4858 106.965 20.5485C106.66 20.7647 106.362 20.9948 106.064 21.225C105.997 21.2808 105.951 21.2947 105.898 21.1971C105.626 20.7298 105.056 20.6462 104.579 20.7577C104.386 20.8065 104.247 20.9251 104.208 21.1343C104.168 21.3575 104.227 21.5458 104.4 21.6852C104.625 21.8735 104.897 21.9572 105.169 22.0479C105.493 22.1525 105.818 22.2571 106.123 22.4175C106.879 22.822 107.19 23.4496 107.078 24.3841C106.985 25.1721 106.494 25.723 105.725 25.9113C105.454 25.9811 105.182 26.009 104.904 25.995L104.91 25.9811Z" fill="black"/>
<path d="M56.9162 23.3177C56.9162 22.5366 56.9162 21.7556 56.9162 20.9745C56.9162 20.8281 56.8897 20.7723 56.7373 20.7793C56.3197 20.7932 55.8954 20.7793 55.4778 20.7862C55.3718 20.7862 55.332 20.7583 55.332 20.6398C55.3386 20.2981 55.332 19.9633 55.332 19.6216C55.332 19.524 55.3585 19.4961 55.4513 19.4961C56.9096 19.4961 58.3679 19.4961 59.8328 19.4961C59.9455 19.4961 59.9588 19.5379 59.9588 19.6425C59.9588 19.9773 59.9521 20.305 59.9588 20.6398C59.9588 20.7793 59.9124 20.7932 59.7997 20.7932C59.3887 20.7932 58.9711 20.7932 58.5601 20.7932C58.4143 20.7932 58.3745 20.8281 58.3745 20.9885C58.3745 22.5576 58.3745 24.1267 58.3811 25.6957C58.3811 25.8701 58.3414 25.9119 58.1757 25.9119C57.8177 25.898 57.4531 25.898 57.0886 25.9119C56.9427 25.9119 56.903 25.884 56.903 25.7236C56.9096 24.9286 56.903 24.1336 56.903 23.3386L56.9162 23.3177Z" fill="black"/>
<path d="M74.5546 22.6831C74.5546 21.6789 74.5546 20.6747 74.5546 19.6774C74.5546 19.531 74.5944 19.4961 74.727 19.4961C75.0916 19.5031 75.4495 19.51 75.8141 19.4961C75.9732 19.4961 76.0196 19.531 76.0196 19.7053C76.0129 21.2674 76.0196 22.8295 76.0129 24.3917C76.0129 24.566 76.0527 24.6078 76.2184 24.6078C76.8747 24.5939 77.5309 24.6078 78.1938 24.6009C78.3794 24.6009 78.4059 24.6567 78.3992 24.831C78.386 25.1239 78.386 25.4098 78.3992 25.7027C78.3992 25.8492 78.3727 25.898 78.2203 25.898C77.0536 25.891 75.8936 25.891 74.727 25.898C74.5878 25.898 74.5546 25.8561 74.5546 25.7167C74.5546 24.7055 74.5546 23.6943 74.5546 22.6901V22.6831Z" fill="black"/>
<path d="M31.8865 22.7037C31.8865 23.701 31.8865 24.6982 31.8865 25.6955C31.8865 25.8628 31.8401 25.9047 31.6877 25.8977C31.3099 25.8838 30.9387 25.8907 30.5608 25.8977C30.4481 25.8977 30.415 25.8698 30.415 25.7513C30.415 23.7149 30.415 21.6856 30.415 19.6492C30.415 19.5307 30.4481 19.4958 30.5608 19.5028C30.9453 19.5028 31.3231 19.5167 31.7076 19.5028C31.8667 19.5028 31.8865 19.5656 31.8865 19.705C31.8865 20.7093 31.8865 21.7135 31.8865 22.7177V22.7037Z" fill="black"/>
<path d="M66.3271 22.6691C66.3271 21.6719 66.3271 20.6746 66.3271 19.6774C66.3271 19.517 66.3669 19.4821 66.5127 19.4891C66.8972 19.5031 67.275 19.4961 67.6595 19.4891C67.7721 19.4891 67.8053 19.517 67.8053 19.6356C67.8053 21.6719 67.8053 23.7012 67.8053 25.7376C67.8053 25.8561 67.7721 25.891 67.6595 25.884C67.275 25.884 66.8972 25.877 66.5127 25.884C66.3669 25.884 66.3271 25.8492 66.3271 25.6957C66.3337 24.6845 66.3271 23.6733 66.3271 22.6622V22.6691Z" fill="black"/>
<path d="M130.943 11.2207C130.878 11.2207 130.836 11.1885 130.817 11.1239L130.497 10.0881C130.484 10.0623 130.468 10.0494 130.449 10.0494H127.893C127.874 10.0494 127.858 10.0623 127.845 10.0881L127.526 11.1239C127.506 11.1885 127.464 11.2207 127.4 11.2207H126.432C126.393 11.2207 126.364 11.211 126.345 11.1917C126.325 11.1659 126.322 11.1304 126.335 11.0852L128.435 4.54143C128.455 4.4769 128.497 4.44463 128.561 4.44463H129.771C129.836 4.44463 129.878 4.4769 129.897 4.54143L132.007 11.0852C132.014 11.0981 132.017 11.1142 132.017 11.1336C132.017 11.1917 131.982 11.2207 131.911 11.2207H130.943ZM128.145 9.11046C128.139 9.14918 128.152 9.16854 128.184 9.16854H130.149C130.188 9.16854 130.2 9.14918 130.188 9.11046L129.191 5.86761C129.184 5.84179 129.174 5.82889 129.161 5.82889C129.149 5.82889 129.139 5.84179 129.132 5.86761L128.145 9.11046Z" fill="black"/>
<path d="M138.644 7.68747C138.606 7.70684 138.606 7.7262 138.644 7.74556C139.303 8.05532 139.632 8.58773 139.632 9.34278C139.632 9.95585 139.425 10.4237 139.012 10.7464C138.606 11.0626 138.073 11.2207 137.415 11.2207H134.976C134.943 11.2207 134.914 11.211 134.889 11.1917C134.869 11.1659 134.86 11.1368 134.86 11.1046V4.56079C134.86 4.52852 134.869 4.50271 134.889 4.48335C134.914 4.45754 134.943 4.44463 134.976 4.44463H137.338C138.041 4.44463 138.583 4.59628 138.964 4.89959C139.345 5.20291 139.535 5.6611 139.535 6.27417C139.535 6.95178 139.238 7.42288 138.644 7.68747ZM136.031 5.41264C135.999 5.41264 135.982 5.42878 135.982 5.46104V7.25187C135.982 7.28414 135.999 7.30027 136.031 7.30027H137.338C137.68 7.30027 137.948 7.2196 138.141 7.05827C138.341 6.89048 138.441 6.66138 138.441 6.37098C138.441 6.07412 138.341 5.84179 138.141 5.67401C137.948 5.49976 137.68 5.41264 137.338 5.41264H136.031ZM137.415 10.243C137.751 10.243 138.015 10.1527 138.209 9.97199C138.409 9.79129 138.509 9.54606 138.509 9.2363C138.509 8.92008 138.409 8.67485 138.209 8.50061C138.009 8.31991 137.738 8.22956 137.396 8.22956H136.031C135.999 8.22956 135.982 8.2457 135.982 8.27796V10.1946C135.982 10.2269 135.999 10.243 136.031 10.243H137.415Z" fill="black"/>
<path d="M140.949 11.2207C140.917 11.2207 140.888 11.211 140.862 11.1917C140.843 11.1659 140.833 11.1368 140.833 11.1046V4.56079C140.833 4.52852 140.843 4.50271 140.862 4.48335C140.888 4.45754 140.917 4.44463 140.949 4.44463H141.84C141.872 4.44463 141.898 4.45754 141.917 4.48335C141.943 4.50271 141.956 4.52852 141.956 4.56079V10.2043C141.956 10.2366 141.972 10.2527 142.004 10.2527H145.247C145.279 10.2527 145.305 10.2656 145.324 10.2914C145.35 10.3108 145.363 10.3366 145.363 10.3689V11.1046C145.363 11.1368 145.35 11.1659 145.324 11.1917C145.305 11.211 145.279 11.2207 145.247 11.2207H140.949Z" fill="black"/>
<path d="M150.771 11.2207C150.707 11.2207 150.665 11.1885 150.645 11.1239L150.326 10.0881C150.313 10.0623 150.297 10.0494 150.277 10.0494H147.722C147.702 10.0494 147.686 10.0623 147.673 10.0881L147.354 11.1239C147.335 11.1885 147.293 11.2207 147.228 11.2207H146.26C146.221 11.2207 146.192 11.211 146.173 11.1917C146.154 11.1659 146.15 11.1304 146.163 11.0852L148.264 4.54143C148.283 4.4769 148.325 4.44463 148.39 4.44463H149.6C149.664 4.44463 149.706 4.4769 149.726 4.54143L151.836 11.0852C151.842 11.0981 151.846 11.1142 151.846 11.1336C151.846 11.1917 151.81 11.2207 151.739 11.2207H150.771ZM147.973 9.11046C147.967 9.14918 147.98 9.16854 148.012 9.16854H149.977C150.016 9.16854 150.029 9.14918 150.016 9.11046L149.019 5.86761C149.012 5.84179 149.003 5.82889 148.99 5.82889C148.977 5.82889 148.967 5.84179 148.961 5.86761L147.973 9.11046Z" fill="black"/>
<path d="M154.893 11.2982C154.409 11.2982 153.983 11.2046 153.616 11.0174C153.248 10.8238 152.964 10.556 152.764 10.214C152.564 9.87196 152.464 9.47507 152.464 9.02333V6.63234C152.464 6.1806 152.564 5.78371 152.764 5.44168C152.964 5.09965 153.248 4.83506 153.616 4.64791C153.983 4.46076 154.409 4.36719 154.893 4.36719C155.371 4.36719 155.794 4.45754 156.162 4.63823C156.529 4.81893 156.813 5.07384 157.013 5.40296C157.213 5.73209 157.313 6.11284 157.313 6.54522C157.313 6.57749 157.301 6.60653 157.275 6.63234C157.255 6.6517 157.23 6.66138 157.197 6.66138L156.307 6.70978C156.229 6.70978 156.191 6.67429 156.191 6.6033C156.191 6.22255 156.071 5.91601 155.832 5.68369C155.6 5.45136 155.287 5.3352 154.893 5.3352C154.5 5.3352 154.184 5.45136 153.945 5.68369C153.706 5.91601 153.587 6.22255 153.587 6.6033V9.07173C153.587 9.44603 153.706 9.74934 153.945 9.98167C154.184 10.214 154.5 10.3302 154.893 10.3302C155.287 10.3302 155.6 10.2172 155.832 9.99135C156.071 9.75902 156.191 9.45249 156.191 9.07173C156.191 9.00075 156.229 8.96525 156.307 8.96525L157.197 9.00397C157.23 9.00397 157.255 9.01365 157.275 9.03301C157.301 9.05237 157.313 9.07496 157.313 9.10077C157.313 9.53961 157.213 9.92681 157.013 10.2624C156.813 10.5915 156.529 10.8464 156.162 11.0271C155.794 11.2078 155.371 11.2982 154.893 11.2982Z" fill="black"/>
<path d="M158.585 11.2207C158.553 11.2207 158.524 11.211 158.498 11.1917C158.479 11.1659 158.469 11.1368 158.469 11.1046V4.56079C158.469 4.52852 158.479 4.50271 158.498 4.48335C158.524 4.45754 158.553 4.44463 158.585 4.44463H159.476C159.508 4.44463 159.534 4.45754 159.553 4.48335C159.579 4.50271 159.592 4.52852 159.592 4.56079V7.45515C159.592 7.47451 159.599 7.48742 159.611 7.49387C159.624 7.50033 159.637 7.4971 159.65 7.48419L162.167 4.51239C162.206 4.46722 162.254 4.44463 162.312 4.44463H163.319C163.384 4.44463 163.416 4.46722 163.416 4.51239C163.416 4.53175 163.406 4.55756 163.387 4.58983L161.17 7.30995C161.151 7.33576 161.147 7.35835 161.16 7.37771L163.542 11.0852C163.555 11.1239 163.561 11.1465 163.561 11.153C163.561 11.1981 163.529 11.2207 163.464 11.2207H162.448C162.39 11.2207 162.345 11.1949 162.312 11.1433L160.396 8.1618C160.37 8.12308 160.347 8.11985 160.328 8.15212L159.611 8.98461C159.599 9.01043 159.592 9.03301 159.592 9.05237V11.1046C159.592 11.1368 159.579 11.1659 159.553 11.1917C159.534 11.211 159.508 11.2207 159.476 11.2207H158.585Z" fill="black"/>
<path d="M166.451 11.2982C165.947 11.2982 165.508 11.2175 165.134 11.0562C164.76 10.8948 164.469 10.669 164.263 10.3786C164.063 10.0881 163.963 9.74612 163.963 9.35246V9.11046C163.963 9.07819 163.973 9.05237 163.992 9.03301C164.018 9.0072 164.047 8.99429 164.079 8.99429H164.941C164.973 8.99429 164.999 9.0072 165.018 9.03301C165.044 9.05237 165.057 9.07819 165.057 9.11046V9.29438C165.057 9.59124 165.189 9.83969 165.454 10.0397C165.718 10.2334 166.08 10.3302 166.538 10.3302C166.931 10.3302 167.228 10.2463 167.428 10.0785C167.628 9.91068 167.728 9.69449 167.728 9.4299C167.728 9.2492 167.674 9.09755 167.564 8.97493C167.454 8.84586 167.296 8.7297 167.09 8.62645C166.889 8.52319 166.586 8.39412 166.18 8.23924C165.721 8.07145 165.35 7.91334 165.066 7.76492C164.782 7.61649 164.544 7.41643 164.35 7.16475C164.163 6.90661 164.069 6.58717 164.069 6.20641C164.069 5.63851 164.276 5.19 164.689 4.86087C165.102 4.53175 165.654 4.36719 166.344 4.36719C166.828 4.36719 167.254 4.45108 167.622 4.61887C167.996 4.78666 168.287 5.02221 168.493 5.32552C168.7 5.62238 168.803 5.96764 168.803 6.3613V6.52586C168.803 6.55813 168.79 6.58717 168.764 6.61298C168.745 6.63234 168.719 6.64202 168.687 6.64202H167.816C167.783 6.64202 167.754 6.63234 167.728 6.61298C167.709 6.58717 167.699 6.55813 167.699 6.52586V6.41938C167.699 6.11607 167.574 5.86116 167.322 5.65465C167.077 5.44168 166.735 5.3352 166.296 5.3352C165.941 5.3352 165.663 5.40942 165.463 5.55784C165.27 5.70627 165.173 5.91601 165.173 6.18705C165.173 6.38066 165.225 6.53876 165.328 6.66138C165.431 6.784 165.586 6.89693 165.792 7.00018C165.999 7.09699 166.318 7.22283 166.751 7.37771C167.209 7.55195 167.574 7.71006 167.845 7.85204C168.122 7.99401 168.358 8.19407 168.551 8.45221C168.751 8.70389 168.851 9.02011 168.851 9.40086C168.851 9.98167 168.635 10.4431 168.203 10.7851C167.777 11.1272 167.193 11.2982 166.451 11.2982Z" fill="black"/>
<path d="M174.264 4.44463C174.296 4.44463 174.322 4.45754 174.341 4.48335C174.367 4.50271 174.38 4.52852 174.38 4.56079V5.30616C174.38 5.33843 174.367 5.36747 174.341 5.39328C174.322 5.41264 174.296 5.42232 174.264 5.42232H172.483C172.45 5.42232 172.434 5.43846 172.434 5.47072V11.1046C172.434 11.1368 172.421 11.1659 172.395 11.1917C172.376 11.211 172.35 11.2207 172.318 11.2207H171.427C171.395 11.2207 171.366 11.211 171.34 11.1917C171.321 11.1659 171.311 11.1368 171.311 11.1046V5.47072C171.311 5.43846 171.295 5.42232 171.263 5.42232H169.55C169.517 5.42232 169.488 5.41264 169.462 5.39328C169.443 5.36747 169.433 5.33843 169.433 5.30616V4.56079C169.433 4.52852 169.443 4.50271 169.462 4.48335C169.488 4.45754 169.517 4.44463 169.55 4.44463H174.264Z" fill="black"/>
<path d="M177.322 11.3175C176.838 11.3175 176.409 11.2207 176.035 11.0271C175.66 10.8271 175.37 10.5463 175.163 10.185C174.963 9.82356 174.863 9.40731 174.863 8.93621V6.72914C174.863 6.26449 174.967 5.8547 175.173 5.49976C175.38 5.13837 175.667 4.86087 176.035 4.66727C176.409 4.46722 176.838 4.36719 177.322 4.36719C177.813 4.36719 178.242 4.46722 178.61 4.66727C178.984 4.86087 179.274 5.13837 179.481 5.49976C179.687 5.8547 179.791 6.26449 179.791 6.72914V8.93621C179.791 9.40731 179.687 9.82356 179.481 10.185C179.274 10.5463 178.984 10.8271 178.61 11.0271C178.242 11.2207 177.813 11.3175 177.322 11.3175ZM177.322 10.3495C177.729 10.3495 178.055 10.2237 178.3 9.97199C178.545 9.7203 178.668 9.38795 178.668 8.97493V6.71946C178.668 6.29999 178.545 5.96441 178.3 5.71273C178.055 5.46104 177.729 5.3352 177.322 5.3352C176.922 5.3352 176.599 5.46104 176.354 5.71273C176.109 5.96441 175.986 6.29999 175.986 6.71946V8.97493C175.986 9.38795 176.109 9.7203 176.354 9.97199C176.599 10.2237 176.922 10.3495 177.322 10.3495Z" fill="black"/>
<path d="M184.932 4.56079C184.932 4.52852 184.941 4.50271 184.961 4.48335C184.986 4.45754 185.016 4.44463 185.048 4.44463H185.938C185.971 4.44463 185.996 4.45754 186.016 4.48335C186.042 4.50271 186.055 4.52852 186.055 4.56079V11.1046C186.055 11.1368 186.042 11.1659 186.016 11.1917C185.996 11.211 185.971 11.2207 185.938 11.2207H185.077C185.012 11.2207 184.967 11.1949 184.941 11.1433L182.153 6.57426C182.141 6.5549 182.128 6.54845 182.115 6.5549C182.102 6.5549 182.095 6.56781 182.095 6.59362L182.115 11.1046C182.115 11.1368 182.102 11.1659 182.076 11.1917C182.057 11.211 182.031 11.2207 181.999 11.2207H181.108C181.076 11.2207 181.047 11.211 181.021 11.1917C181.002 11.1659 180.992 11.1368 180.992 11.1046V4.56079C180.992 4.52852 181.002 4.50271 181.021 4.48335C181.047 4.45754 181.076 4.44463 181.108 4.44463H181.97C182.034 4.44463 182.079 4.47044 182.105 4.52207L184.883 9.09109C184.896 9.11046 184.909 9.12014 184.922 9.12014C184.935 9.11368 184.941 9.09755 184.941 9.07173L184.932 4.56079Z" fill="black"/>
<path d="M191.922 5.29648C191.922 5.32875 191.909 5.35779 191.883 5.3836C191.864 5.40296 191.838 5.41264 191.806 5.41264H188.505C188.473 5.41264 188.457 5.42878 188.457 5.46104V7.27123C188.457 7.3035 188.473 7.31963 188.505 7.31963H190.722C190.754 7.31963 190.78 7.33254 190.799 7.35835C190.825 7.37771 190.838 7.40352 190.838 7.43579V8.17148C190.838 8.20375 190.825 8.23279 190.799 8.2586C190.78 8.27796 190.754 8.28764 190.722 8.28764H188.505C188.473 8.28764 188.457 8.30378 188.457 8.33604V10.2043C188.457 10.2366 188.473 10.2527 188.505 10.2527H191.806C191.838 10.2527 191.864 10.2656 191.883 10.2914C191.909 10.3108 191.922 10.3366 191.922 10.3689V11.1046C191.922 11.1368 191.909 11.1659 191.883 11.1917C191.864 11.211 191.838 11.2207 191.806 11.2207H187.45C187.418 11.2207 187.389 11.211 187.363 11.1917C187.344 11.1659 187.334 11.1368 187.334 11.1046V4.56079C187.334 4.52852 187.344 4.50271 187.363 4.48335C187.389 4.45754 187.418 4.44463 187.45 4.44463H191.806C191.838 4.44463 191.864 4.45754 191.883 4.48335C191.909 4.50271 191.922 4.52852 191.922 4.56079V5.29648Z" fill="black"/>
<path d="M126.858 24.0772C126.825 24.0772 126.796 24.0675 126.77 24.0481C126.751 24.0223 126.741 23.9933 126.741 23.961V17.4172C126.741 17.385 126.751 17.3591 126.77 17.3398C126.796 17.314 126.825 17.3011 126.858 17.3011H127.748C127.78 17.3011 127.806 17.314 127.826 17.3398C127.851 17.3591 127.864 17.385 127.864 17.4172V23.0607C127.864 23.093 127.88 23.1091 127.913 23.1091H131.156C131.188 23.1091 131.214 23.1221 131.233 23.1479C131.259 23.1672 131.272 23.193 131.272 23.2253V23.961C131.272 23.9933 131.259 24.0223 131.233 24.0481C131.214 24.0675 131.188 24.0772 131.156 24.0772H126.858Z" fill="black"/>
<path d="M134.461 24.174C133.977 24.174 133.548 24.0772 133.173 23.8836C132.799 23.6835 132.509 23.4028 132.302 23.0414C132.102 22.68 132.002 22.2637 132.002 21.7926V19.5856C132.002 19.1209 132.105 18.7111 132.312 18.3562C132.518 17.9948 132.805 17.7173 133.173 17.5237C133.548 17.3236 133.977 17.2236 134.461 17.2236C134.951 17.2236 135.38 17.3236 135.748 17.5237C136.122 17.7173 136.413 17.9948 136.619 18.3562C136.826 18.7111 136.929 19.1209 136.929 19.5856V21.7926C136.929 22.2637 136.826 22.68 136.619 23.0414C136.413 23.4028 136.122 23.6835 135.748 23.8836C135.38 24.0772 134.951 24.174 134.461 24.174ZM134.461 23.2059C134.867 23.2059 135.193 23.0801 135.438 22.8284C135.684 22.5767 135.806 22.2444 135.806 21.8314V19.5759C135.806 19.1564 135.684 18.8208 135.438 18.5692C135.193 18.3175 134.867 18.1916 134.461 18.1916C134.061 18.1916 133.738 18.3175 133.493 18.5692C133.247 18.8208 133.125 19.1564 133.125 19.5759V21.8314C133.125 22.2444 133.247 22.5767 133.493 22.8284C133.738 23.0801 134.061 23.2059 134.461 23.2059Z" fill="black"/>
<path d="M140.396 24.1546C139.912 24.1546 139.486 24.061 139.118 23.8739C138.75 23.6803 138.466 23.4092 138.266 23.0607C138.066 22.7123 137.966 22.3121 137.966 21.8604V19.5178C137.966 19.0596 138.066 18.6595 138.266 18.3175C138.466 17.969 138.75 17.7012 139.118 17.514C139.486 17.3204 139.912 17.2236 140.396 17.2236C140.873 17.2236 141.293 17.3172 141.654 17.5043C142.022 17.6915 142.306 17.9464 142.506 18.2691C142.706 18.5917 142.806 18.9564 142.806 19.3629V19.4404C142.806 19.4726 142.793 19.5017 142.767 19.5275C142.748 19.5469 142.722 19.5565 142.69 19.5565H141.809C141.777 19.5565 141.748 19.5469 141.722 19.5275C141.702 19.5017 141.693 19.4726 141.693 19.4404V19.392C141.693 19.0435 141.573 18.7563 141.334 18.5304C141.102 18.3046 140.789 18.1916 140.396 18.1916C140.002 18.1916 139.686 18.311 139.447 18.5498C139.208 18.7821 139.089 19.0919 139.089 19.4791V21.8991C139.089 22.2863 139.215 22.5993 139.466 22.8381C139.718 23.0704 140.044 23.1866 140.444 23.1866C140.831 23.1866 141.134 23.0866 141.354 22.8865C141.58 22.68 141.693 22.3993 141.693 22.0443V21.4442C141.693 21.4119 141.677 21.3958 141.644 21.3958H140.454C140.421 21.3958 140.392 21.3861 140.366 21.3667C140.347 21.3409 140.337 21.3119 140.337 21.2796V20.5633C140.337 20.531 140.347 20.5052 140.366 20.4858C140.392 20.46 140.421 20.4471 140.454 20.4471H142.69C142.722 20.4471 142.748 20.46 142.767 20.4858C142.793 20.5052 142.806 20.531 142.806 20.5633V21.8023C142.806 22.5445 142.586 23.1221 142.148 23.5351C141.715 23.9481 141.131 24.1546 140.396 24.1546Z" fill="black"/>
<path d="M144.135 24.0772C144.103 24.0772 144.073 24.0675 144.048 24.0481C144.028 24.0223 144.019 23.9933 144.019 23.961V17.4172C144.019 17.385 144.028 17.3591 144.048 17.3398C144.073 17.314 144.103 17.3011 144.135 17.3011H145.025C145.058 17.3011 145.083 17.314 145.103 17.3398C145.129 17.3591 145.142 17.385 145.142 17.4172V23.961C145.142 23.9933 145.129 24.0223 145.103 24.0481C145.083 24.0675 145.058 24.0772 145.025 24.0772H144.135Z" fill="black"/>
<path d="M148.691 24.1546C148.188 24.1546 147.749 24.0739 147.375 23.9126C147.001 23.7513 146.71 23.5254 146.504 23.235C146.304 22.9446 146.204 22.6026 146.204 22.2089V21.9669C146.204 21.9346 146.213 21.9088 146.233 21.8894C146.258 21.8636 146.287 21.8507 146.32 21.8507H147.181C147.214 21.8507 147.239 21.8636 147.259 21.8894C147.285 21.9088 147.297 21.9346 147.297 21.9669V22.1508C147.297 22.4477 147.43 22.6961 147.694 22.8962C147.959 23.0898 148.32 23.1866 148.779 23.1866C149.172 23.1866 149.469 23.1027 149.669 22.9349C149.869 22.7671 149.969 22.5509 149.969 22.2863C149.969 22.1056 149.914 21.954 149.805 21.8314C149.695 21.7023 149.537 21.5861 149.33 21.4829C149.13 21.3796 148.827 21.2506 148.42 21.0957C147.962 20.9279 147.591 20.7698 147.307 20.6213C147.023 20.4729 146.784 20.2729 146.591 20.0212C146.404 19.763 146.31 19.4436 146.31 19.0628C146.31 18.4949 146.517 18.0464 146.93 17.7173C147.343 17.3882 147.894 17.2236 148.585 17.2236C149.069 17.2236 149.495 17.3075 149.863 17.4753C150.237 17.6431 150.527 17.8786 150.734 18.182C150.94 18.4788 151.044 18.8241 151.044 19.2177V19.3823C151.044 19.4146 151.031 19.4436 151.005 19.4694C150.986 19.4888 150.96 19.4985 150.928 19.4985H150.056C150.024 19.4985 149.995 19.4888 149.969 19.4694C149.95 19.4436 149.94 19.4146 149.94 19.3823V19.2758C149.94 18.9725 149.814 18.7176 149.563 18.5111C149.317 18.2981 148.975 18.1916 148.537 18.1916C148.182 18.1916 147.904 18.2658 147.704 18.4143C147.51 18.5627 147.414 18.7724 147.414 19.0435C147.414 19.2371 147.465 19.3952 147.569 19.5178C147.672 19.6404 147.827 19.7534 148.033 19.8566C148.24 19.9534 148.559 20.0793 148.991 20.2341C149.45 20.4084 149.814 20.5665 150.085 20.7085C150.363 20.8504 150.598 21.0505 150.792 21.3086C150.992 21.5603 151.092 21.8765 151.092 22.2573C151.092 22.8381 150.876 23.2995 150.444 23.6416C150.018 23.9836 149.434 24.1546 148.691 24.1546Z" fill="black"/>
<path d="M156.504 17.3011C156.537 17.3011 156.563 17.314 156.582 17.3398C156.608 17.3591 156.621 17.385 156.621 17.4172V18.1626C156.621 18.1949 156.608 18.2239 156.582 18.2497C156.563 18.2691 156.537 18.2788 156.504 18.2788H154.723C154.691 18.2788 154.675 18.2949 154.675 18.3272V23.961C154.675 23.9933 154.662 24.0223 154.636 24.0481C154.617 24.0675 154.591 24.0772 154.559 24.0772H153.668C153.636 24.0772 153.607 24.0675 153.581 24.0481C153.562 24.0223 153.552 23.9933 153.552 23.961V18.3272C153.552 18.2949 153.536 18.2788 153.504 18.2788H151.79C151.758 18.2788 151.729 18.2691 151.703 18.2497C151.684 18.2239 151.674 18.1949 151.674 18.1626V17.4172C151.674 17.385 151.684 17.3591 151.703 17.3398C151.729 17.314 151.758 17.3011 151.79 17.3011H156.504Z" fill="black"/>
<path d="M157.725 24.0772C157.693 24.0772 157.664 24.0675 157.638 24.0481C157.619 24.0223 157.609 23.9933 157.609 23.961V17.4172C157.609 17.385 157.619 17.3591 157.638 17.3398C157.664 17.314 157.693 17.3011 157.725 17.3011H158.616C158.648 17.3011 158.674 17.314 158.693 17.3398C158.719 17.3591 158.732 17.385 158.732 17.4172V23.961C158.732 23.9933 158.719 24.0223 158.693 24.0481C158.674 24.0675 158.648 24.0772 158.616 24.0772H157.725Z" fill="black"/>
<path d="M162.359 24.1546C161.875 24.1546 161.449 24.061 161.081 23.8739C160.714 23.6803 160.43 23.4125 160.23 23.0704C160.03 22.7284 159.93 22.3315 159.93 21.8798V19.4888C159.93 19.037 160.03 18.6401 160.23 18.2981C160.43 17.9561 160.714 17.6915 161.081 17.5043C161.449 17.3172 161.875 17.2236 162.359 17.2236C162.837 17.2236 163.259 17.314 163.627 17.4947C163.995 17.6754 164.279 17.9303 164.479 18.2594C164.679 18.5885 164.779 18.9693 164.779 19.4017C164.779 19.4339 164.766 19.463 164.741 19.4888C164.721 19.5081 164.695 19.5178 164.663 19.5178L163.773 19.5662C163.695 19.5662 163.656 19.5307 163.656 19.4597C163.656 19.079 163.537 18.7724 163.298 18.5401C163.066 18.3078 162.753 18.1916 162.359 18.1916C161.966 18.1916 161.649 18.3078 161.411 18.5401C161.172 18.7724 161.052 19.079 161.052 19.4597V21.9282C161.052 22.3025 161.172 22.6058 161.411 22.8381C161.649 23.0704 161.966 23.1866 162.359 23.1866C162.753 23.1866 163.066 23.0737 163.298 22.8478C163.537 22.6155 163.656 22.3089 163.656 21.9282C163.656 21.8572 163.695 21.8217 163.773 21.8217L164.663 21.8604C164.695 21.8604 164.721 21.8701 164.741 21.8894C164.766 21.9088 164.779 21.9314 164.779 21.9572C164.779 22.396 164.679 22.7832 164.479 23.1188C164.279 23.4479 163.995 23.7029 163.627 23.8836C163.259 24.0643 162.837 24.1546 162.359 24.1546Z" fill="black"/>
<path d="M168.123 24.1546C167.619 24.1546 167.181 24.0739 166.806 23.9126C166.432 23.7513 166.142 23.5254 165.935 23.235C165.735 22.9446 165.635 22.6026 165.635 22.2089V21.9669C165.635 21.9346 165.645 21.9088 165.664 21.8894C165.69 21.8636 165.719 21.8507 165.751 21.8507H166.613C166.645 21.8507 166.671 21.8636 166.69 21.8894C166.716 21.9088 166.729 21.9346 166.729 21.9669V22.1508C166.729 22.4477 166.861 22.6961 167.126 22.8962C167.39 23.0898 167.752 23.1866 168.21 23.1866C168.604 23.1866 168.9 23.1027 169.1 22.9349C169.301 22.7671 169.401 22.5509 169.401 22.2863C169.401 22.1056 169.346 21.954 169.236 21.8314C169.126 21.7023 168.968 21.5861 168.762 21.4829C168.562 21.3796 168.258 21.2506 167.852 21.0957C167.394 20.9279 167.022 20.7698 166.739 20.6213C166.455 20.4729 166.216 20.2729 166.022 20.0212C165.835 19.763 165.741 19.4436 165.741 19.0628C165.741 18.4949 165.948 18.0464 166.361 17.7173C166.774 17.3882 167.326 17.2236 168.016 17.2236C168.5 17.2236 168.926 17.3075 169.294 17.4753C169.668 17.6431 169.959 17.8786 170.165 18.182C170.372 18.4788 170.475 18.8241 170.475 19.2177V19.3823C170.475 19.4146 170.462 19.4436 170.436 19.4694C170.417 19.4888 170.391 19.4985 170.359 19.4985H169.488C169.455 19.4985 169.426 19.4888 169.401 19.4694C169.381 19.4436 169.371 19.4146 169.371 19.3823V19.2758C169.371 18.9725 169.246 18.7176 168.994 18.5111C168.749 18.2981 168.407 18.1916 167.968 18.1916C167.613 18.1916 167.335 18.2658 167.135 18.4143C166.942 18.5627 166.845 18.7724 166.845 19.0435C166.845 19.2371 166.897 19.3952 167 19.5178C167.103 19.6404 167.258 19.7534 167.465 19.8566C167.671 19.9534 167.99 20.0793 168.423 20.2341C168.881 20.4084 169.246 20.5665 169.517 20.7085C169.794 20.8504 170.03 21.0505 170.223 21.3086C170.423 21.5603 170.523 21.8765 170.523 22.2573C170.523 22.8381 170.307 23.2995 169.875 23.6416C169.449 23.9836 168.865 24.1546 168.123 24.1546Z" fill="black"/>
<path d="M176.216 17.2914C176.622 17.2914 176.98 17.3753 177.29 17.5431C177.6 17.7109 177.839 17.9496 178.006 18.2594C178.181 18.5627 178.268 18.9144 178.268 19.3145C178.268 19.7082 178.181 20.0567 178.006 20.36C177.832 20.6633 177.584 20.8988 177.261 21.0666C176.945 21.228 176.577 21.3086 176.157 21.3086H174.609C174.576 21.3086 174.56 21.3248 174.56 21.357V23.961C174.56 23.9933 174.547 24.0223 174.521 24.0481C174.502 24.0675 174.476 24.0772 174.444 24.0772H173.553C173.521 24.0772 173.492 24.0675 173.466 24.0481C173.447 24.0223 173.437 23.9933 173.437 23.961V17.4075C173.437 17.3753 173.447 17.3495 173.466 17.3301C173.492 17.3043 173.521 17.2914 173.553 17.2914H176.216ZM176.051 20.3987C176.38 20.3987 176.645 20.3019 176.845 20.1083C177.045 19.9147 177.145 19.6598 177.145 19.3436C177.145 19.0209 177.045 18.7595 176.845 18.5595C176.645 18.3594 176.38 18.2594 176.051 18.2594H174.609C174.576 18.2594 174.56 18.2755 174.56 18.3078V20.3503C174.56 20.3826 174.576 20.3987 174.609 20.3987H176.051Z" fill="black"/>
<path d="M179.32 24.0772C179.288 24.0772 179.259 24.0675 179.233 24.0481C179.214 24.0223 179.204 23.9933 179.204 23.961V17.4172C179.204 17.385 179.214 17.3591 179.233 17.3398C179.259 17.314 179.288 17.3011 179.32 17.3011H180.211C180.243 17.3011 180.269 17.314 180.288 17.3398C180.314 17.3591 180.327 17.385 180.327 17.4172V23.0607C180.327 23.093 180.343 23.1091 180.375 23.1091H183.618C183.65 23.1091 183.676 23.1221 183.696 23.1479C183.721 23.1672 183.734 23.193 183.734 23.2253V23.961C183.734 23.9933 183.721 24.0223 183.696 24.0481C183.676 24.0675 183.65 24.0772 183.618 24.0772H179.32Z" fill="black"/>
<path d="M189.142 24.0772C189.078 24.0772 189.036 24.0449 189.016 23.9804L188.697 22.9446C188.684 22.9188 188.668 22.9059 188.649 22.9059H186.093C186.074 22.9059 186.057 22.9188 186.045 22.9446L185.725 23.9804C185.706 24.0449 185.664 24.0772 185.599 24.0772H184.631C184.593 24.0772 184.563 24.0675 184.544 24.0481C184.525 24.0223 184.522 23.9868 184.534 23.9416L186.635 17.3979C186.654 17.3333 186.696 17.3011 186.761 17.3011H187.971C188.035 17.3011 188.077 17.3333 188.097 17.3979L190.207 23.9416C190.213 23.9545 190.217 23.9707 190.217 23.99C190.217 24.0481 190.181 24.0772 190.11 24.0772H189.142ZM186.345 21.9669C186.338 22.0056 186.351 22.025 186.383 22.025H188.348C188.387 22.025 188.4 22.0056 188.387 21.9669L187.39 18.724C187.384 18.6982 187.374 18.6853 187.361 18.6853C187.348 18.6853 187.338 18.6982 187.332 18.724L186.345 21.9669Z" fill="black"/>
<path d="M194.866 17.3011C194.898 17.3011 194.924 17.314 194.944 17.3398C194.969 17.3591 194.982 17.385 194.982 17.4172V18.1626C194.982 18.1949 194.969 18.2239 194.944 18.2497C194.924 18.2691 194.898 18.2788 194.866 18.2788H193.085C193.053 18.2788 193.037 18.2949 193.037 18.3272V23.961C193.037 23.9933 193.024 24.0223 192.998 24.0481C192.979 24.0675 192.953 24.0772 192.92 24.0772H192.03C191.998 24.0772 191.969 24.0675 191.943 24.0481C191.923 24.0223 191.914 23.9933 191.914 23.961V18.3272C191.914 18.2949 191.898 18.2788 191.865 18.2788H190.152C190.12 18.2788 190.091 18.2691 190.065 18.2497C190.045 18.2239 190.036 18.1949 190.036 18.1626V17.4172C190.036 17.385 190.045 17.3591 190.065 17.3398C190.091 17.314 190.12 17.3011 190.152 17.3011H194.866Z" fill="black"/>
<path d="M200.549 18.1529C200.549 18.1852 200.536 18.2142 200.511 18.24C200.491 18.2594 200.466 18.2691 200.433 18.2691H197.142C197.11 18.2691 197.094 18.2852 197.094 18.3175V20.1277C197.094 20.1599 197.11 20.1761 197.142 20.1761H199.359C199.391 20.1761 199.417 20.189 199.436 20.2148C199.462 20.2341 199.475 20.26 199.475 20.2922V21.0279C199.475 21.0602 199.462 21.0892 199.436 21.115C199.417 21.1344 199.391 21.1441 199.359 21.1441H197.142C197.11 21.1441 197.094 21.1602 197.094 21.1925V23.961C197.094 23.9933 197.081 24.0223 197.055 24.0481C197.036 24.0675 197.01 24.0772 196.977 24.0772H196.087C196.055 24.0772 196.026 24.0675 196 24.0481C195.98 24.0223 195.971 23.9933 195.971 23.961V17.4172C195.971 17.385 195.98 17.3591 196 17.3398C196.026 17.314 196.055 17.3011 196.087 17.3011H200.433C200.466 17.3011 200.491 17.314 200.511 17.3398C200.536 17.3591 200.549 17.385 200.549 17.4172V18.1529Z" fill="black"/>
<path d="M203.652 24.174C203.168 24.174 202.739 24.0772 202.365 23.8836C201.99 23.6835 201.7 23.4028 201.493 23.0414C201.293 22.68 201.193 22.2637 201.193 21.7926V19.5856C201.193 19.1209 201.297 18.7111 201.503 18.3562C201.71 17.9948 201.997 17.7173 202.365 17.5237C202.739 17.3236 203.168 17.2236 203.652 17.2236C204.143 17.2236 204.572 17.3236 204.94 17.5237C205.314 17.7173 205.604 17.9948 205.811 18.3562C206.017 18.7111 206.121 19.1209 206.121 19.5856V21.7926C206.121 22.2637 206.017 22.68 205.811 23.0414C205.604 23.4028 205.314 23.6835 204.94 23.8836C204.572 24.0772 204.143 24.174 203.652 24.174ZM203.652 23.2059C204.059 23.2059 204.385 23.0801 204.63 22.8284C204.875 22.5767 204.998 22.2444 204.998 21.8314V19.5759C204.998 19.1564 204.875 18.8208 204.63 18.5692C204.385 18.3175 204.059 18.1916 203.652 18.1916C203.252 18.1916 202.929 18.3175 202.684 18.5692C202.439 18.8208 202.316 19.1564 202.316 19.5759V21.8314C202.316 22.2444 202.439 22.5767 202.684 22.8284C202.929 23.0801 203.252 23.2059 203.652 23.2059Z" fill="black"/>
<path d="M211.126 24.0772C211.062 24.0772 211.016 24.0481 210.991 23.99L209.713 21.2022C209.7 21.1763 209.681 21.1634 209.655 21.1634H208.493C208.461 21.1634 208.445 21.1796 208.445 21.2118V23.961C208.445 23.9933 208.432 24.0223 208.406 24.0481C208.387 24.0675 208.361 24.0772 208.329 24.0772H207.438C207.406 24.0772 207.377 24.0675 207.351 24.0481C207.331 24.0223 207.322 23.9933 207.322 23.961V17.4172C207.322 17.385 207.331 17.3591 207.351 17.3398C207.377 17.314 207.406 17.3011 207.438 17.3011H210.1C210.494 17.3011 210.842 17.385 211.145 17.5527C211.449 17.7141 211.684 17.9464 211.852 18.2497C212.02 18.5466 212.104 18.8886 212.104 19.2758C212.104 19.7211 211.988 20.1018 211.755 20.4181C211.529 20.7278 211.213 20.944 210.807 21.0666C210.794 21.0666 210.784 21.0731 210.778 21.086C210.771 21.0989 210.771 21.1118 210.778 21.1247L212.143 23.9416C212.155 23.9674 212.162 23.9868 212.162 23.9997C212.162 24.0513 212.126 24.0772 212.055 24.0772H211.126ZM208.493 18.2691C208.461 18.2691 208.445 18.2852 208.445 18.3175V20.2438C208.445 20.2761 208.461 20.2922 208.493 20.2922H209.945C210.255 20.2922 210.503 20.2019 210.69 20.0212C210.884 19.834 210.981 19.5888 210.981 19.2855C210.981 18.9822 210.884 18.7369 210.69 18.5498C210.503 18.3626 210.255 18.2691 209.945 18.2691H208.493Z" fill="black"/>
<path d="M217.576 17.3785C217.608 17.3269 217.653 17.3011 217.711 17.3011H218.602C218.634 17.3011 218.66 17.314 218.679 17.3398C218.705 17.3591 218.718 17.385 218.718 17.4172V23.961C218.718 23.9933 218.705 24.0223 218.679 24.0481C218.66 24.0675 218.634 24.0772 218.602 24.0772H217.711C217.679 24.0772 217.65 24.0675 217.624 24.0481C217.605 24.0223 217.595 23.9933 217.595 23.961V19.3436C217.595 19.3242 217.585 19.3113 217.566 19.3048C217.553 19.2984 217.544 19.3048 217.537 19.3242L216.327 21.1828C216.295 21.2344 216.25 21.2602 216.192 21.2602H215.746C215.688 21.2602 215.643 21.2344 215.611 21.1828L214.391 19.3339C214.385 19.3145 214.372 19.3081 214.352 19.3145C214.339 19.321 214.333 19.3339 214.333 19.3533V23.961C214.333 23.9933 214.32 24.0223 214.294 24.0481C214.275 24.0675 214.249 24.0772 214.217 24.0772H213.326C213.294 24.0772 213.265 24.0675 213.239 24.0481C213.22 24.0223 213.21 23.9933 213.21 23.961V17.4172C213.21 17.385 213.22 17.3591 213.239 17.3398C213.265 17.314 213.294 17.3011 213.326 17.3011H214.217C214.275 17.3011 214.32 17.3269 214.352 17.3785L215.93 19.7695C215.943 19.7824 215.956 19.7889 215.969 19.7889C215.982 19.7889 215.991 19.7824 215.998 19.7695L217.576 17.3785Z" fill="black"/>
<path d="M118 1L118 26" stroke="black" stroke-linecap="round"/>
</svg>
