<svg width="84" height="84" viewBox="0 0 84 84" fill="none" xmlns="http://www.w3.org/2000/svg">
<path d="M57.5469 40.162V46.2477C57.5469 46.7388 57.9451 47.137 58.4362 47.137H73.6095C73.5152 47.0006 73.4272 46.8596 73.3527 46.7106L70.7085 39.2725H58.4362C57.9451 39.2725 57.5469 39.6707 57.5469 40.162Z" stroke="white" stroke-width="2" stroke-miterlimit="10" stroke-linecap="round" stroke-linejoin="round"/>
<path d="M19.4784 73.4686C23.5229 73.4686 26.8016 70.1899 26.8016 66.1454C26.8016 62.101 23.5229 58.8223 19.4784 58.8223C15.434 58.8223 12.1553 62.101 12.1553 66.1454C12.1553 70.1899 15.434 73.4686 19.4784 73.4686Z" stroke="white" stroke-width="2" stroke-miterlimit="10" stroke-linecap="round" stroke-linejoin="round"/>
<path d="M19.4784 73.4686C23.5229 73.4686 26.8016 70.1899 26.8016 66.1454C26.8016 62.101 23.5229 58.8223 19.4784 58.8223C15.434 58.8223 12.1553 62.101 12.1553 66.1454C12.1553 70.1899 15.434 73.4686 19.4784 73.4686Z" stroke="white" stroke-width="2" stroke-miterlimit="10" stroke-linecap="round" stroke-linejoin="round"/>
<path d="M58.5762 51.7637H63.3122V53.6334" stroke="white" stroke-width="2" stroke-miterlimit="10" stroke-linecap="round" stroke-linejoin="round"/>
<path d="M66.2821 73.4686C70.3266 73.4686 73.6053 70.1899 73.6053 66.1454C73.6053 62.101 70.3266 58.8223 66.2821 58.8223C62.2377 58.8223 58.959 62.101 58.959 66.1454C58.959 70.1899 62.2377 73.4686 66.2821 73.4686Z" stroke="white" stroke-width="2" stroke-miterlimit="10" stroke-linecap="round" stroke-linejoin="round"/>
<path d="M66.2826 69.0418C67.8825 69.0418 69.1795 67.7448 69.1795 66.1449C69.1795 64.545 67.8825 63.248 66.2826 63.248C64.6827 63.248 63.3857 64.545 63.3857 66.1449C63.3857 67.7448 64.6827 69.0418 66.2826 69.0418Z" stroke="white" stroke-width="2" stroke-miterlimit="10" stroke-linecap="round" stroke-linejoin="round"/>
<path d="M19.4779 69.0418C21.0778 69.0418 22.3748 67.7448 22.3748 66.1449C22.3748 64.545 21.0778 63.248 19.4779 63.248C17.878 63.248 16.5811 64.545 16.5811 66.1449C16.5811 67.7448 17.878 69.0418 19.4779 69.0418Z" stroke="white" stroke-width="2" stroke-miterlimit="10" stroke-linecap="round" stroke-linejoin="round"/>
<path d="M77.5026 50.7354L74.1687 47.7749C73.8314 47.4754 73.5546 47.1142 73.3529 46.7108L69.469 35.7855C68.9512 34.75 67.8928 34.0957 66.7348 34.0957H55.5483C54.6253 35.7511 53.4146 37.2238 51.9834 38.4463V64.102H59.2498C60.1344 61.0519 62.9468 58.8217 66.282 58.8217C69.6171 58.8217 72.4297 61.0521 73.3142 64.102H77.1196C77.9883 64.102 78.6923 63.3978 78.6923 62.5293V53.3829C78.6923 52.3709 78.2592 51.4074 77.5026 50.7354Z" stroke="white" stroke-width="2" stroke-miterlimit="10" stroke-linecap="round" stroke-linejoin="round"/>
<path d="M41.6919 42.2424C32.9351 42.2424 25.8365 35.1436 25.8365 26.3869C25.8365 23.0617 26.8609 19.9759 28.6104 17.4268H7.39579C6.24259 17.4268 5.30762 18.3617 5.30762 19.5149V53.6339H51.9838V38.4473C49.2141 40.8132 45.6201 42.2424 41.6919 42.2424Z" stroke="white" stroke-width="2" stroke-miterlimit="10" stroke-linecap="round" stroke-linejoin="round"/>
<path d="M41.6915 37.091C47.6038 37.091 52.3967 32.2982 52.3967 26.3858C52.3967 20.4735 47.6038 15.6807 41.6915 15.6807C35.7792 15.6807 30.9863 20.4735 30.9863 26.3858C30.9863 32.2982 35.7792 37.091 41.6915 37.091Z" stroke="white" stroke-width="2" stroke-miterlimit="10" stroke-linecap="round" stroke-linejoin="round"/>
<path d="M41.6914 16.4326V18.1062" stroke="white" stroke-width="2" stroke-miterlimit="10" stroke-linecap="round" stroke-linejoin="round"/>
<path d="M41.6914 36.3396V34.666" stroke="white" stroke-width="2" stroke-miterlimit="10" stroke-linecap="round" stroke-linejoin="round"/>
<path d="M31.7383 26.3857H33.4118" stroke="white" stroke-width="2" stroke-miterlimit="10" stroke-linecap="round" stroke-linejoin="round"/>
<path d="M51.6451 26.3857H49.9717" stroke="white" stroke-width="2" stroke-miterlimit="10" stroke-linecap="round" stroke-linejoin="round"/>
<path d="M41.6919 22.1416V26.3857H38.4385" stroke="white" stroke-width="2" stroke-miterlimit="10" stroke-linecap="round" stroke-linejoin="round"/>
<path d="M12.9248 24.8125H20.9895" stroke="white" stroke-width="2" stroke-miterlimit="10" stroke-linecap="round" stroke-linejoin="round"/>
<path d="M16.2012 31.9404H21.2847" stroke="white" stroke-width="2" stroke-miterlimit="10" stroke-linecap="round" stroke-linejoin="round"/>
<path d="M19.4775 39.0664H24.8775" stroke="white" stroke-width="2" stroke-miterlimit="10" stroke-linecap="round" stroke-linejoin="round"/>
<path d="M41.4167 64.103H51.9838V38.4473C49.2141 40.8132 45.6201 42.2424 41.6919 42.2424C32.9351 42.2424 25.8365 35.1436 25.8365 26.3869C25.8365 23.0615 26.8609 19.9759 28.6104 17.4268H7.39579C6.24259 17.4268 5.30762 18.3617 5.30762 19.5149V62.0148C5.30762 63.168 6.24259 64.103 7.39579 64.103H12.4464C13.331 61.053 16.1435 58.8227 19.4786 58.8227C22.8138 58.8227 25.6263 61.0531 26.5108 64.103H36.2487" stroke="white" stroke-width="2" stroke-miterlimit="10" stroke-linecap="round" stroke-linejoin="round"/>
<path d="M57.3362 23.8017C56.1022 16.2742 49.5681 10.5303 41.6914 10.5303C32.9346 10.5303 25.8359 17.6291 25.8359 26.3858C25.8359 35.1424 32.9347 42.2412 41.6914 42.2412C49.5681 42.2412 56.1022 36.4972 57.3362 28.9698" stroke="white" stroke-width="2" stroke-miterlimit="10" stroke-linecap="round" stroke-linejoin="round"/>
</svg>
