<svg width="84" height="84" viewBox="0 0 84 84" fill="none" xmlns="http://www.w3.org/2000/svg">
<path d="M21.376 69.4346V65.0713" stroke="white" stroke-width="2" stroke-miterlimit="10" stroke-linecap="round" stroke-linejoin="round"/>
<mask id="mask0_7185_15603" style="mask-type:luminance" maskUnits="userSpaceOnUse" x="4" y="4" width="76" height="76">
<path d="M4.2002 4.19981H79.8002V79.7998H4.2002V4.19981Z" fill="white"/>
</mask>
<g mask="url(#mask0_7185_15603)">
<path d="M14.4727 58.1661C14.4727 57.7105 14.871 57.3542 15.3232 57.4098C18.7346 57.8289 21.376 60.7367 21.376 64.2612V65.6025H19.8781C16.8927 65.6025 14.4727 63.1825 14.4727 60.1971V58.1661Z" stroke="white" stroke-width="2" stroke-miterlimit="10" stroke-linecap="round" stroke-linejoin="round"/>
<path d="M28.2803 58.1661C28.2803 57.7105 27.8819 57.3542 27.4298 57.4098C24.0184 57.8289 21.377 60.7367 21.377 64.2612V65.6025H22.8751C25.8602 65.6025 28.2803 63.1825 28.2803 60.1971V58.1661Z" stroke="white" stroke-width="2" stroke-miterlimit="10" stroke-linecap="round" stroke-linejoin="round"/>
<path d="M62.625 69.4346V65.0713" stroke="white" stroke-width="2" stroke-miterlimit="10" stroke-linecap="round" stroke-linejoin="round"/>
<path d="M69.5274 58.1661C69.5274 57.7105 69.129 57.3542 68.6769 57.4098C65.2654 57.8289 62.624 60.7367 62.624 64.2612V65.6025H64.122C67.1073 65.6025 69.5274 63.1825 69.5274 60.1971V58.1661Z" stroke="white" stroke-width="2" stroke-miterlimit="10" stroke-linecap="round" stroke-linejoin="round"/>
<path d="M55.7207 58.1661C55.7207 57.7105 56.1191 57.3542 56.5712 57.4098C59.9827 57.8289 62.6241 60.7367 62.6241 64.2612V65.6025H61.126C58.1408 65.6025 55.7207 63.1825 55.7207 60.1971V58.1661Z" stroke="white" stroke-width="2" stroke-miterlimit="10" stroke-linecap="round" stroke-linejoin="round"/>
<path d="M38.7363 73.5137V51.0182" stroke="white" stroke-width="2" stroke-miterlimit="10" stroke-linecap="round" stroke-linejoin="round"/>
<path d="M45.2637 73.5137V51.0182" stroke="white" stroke-width="2" stroke-miterlimit="10" stroke-linecap="round" stroke-linejoin="round"/>
<path d="M42.0002 10.7535C39.3229 10.7535 37.1523 12.9239 37.1523 15.6014C37.1523 18.2788 39.3229 20.4492 42.0002 20.4492C44.6775 20.4492 46.848 18.2788 46.848 15.6014C46.848 12.9239 44.6775 10.7535 42.0002 10.7535Z" stroke="white" stroke-width="2" stroke-miterlimit="10" stroke-linecap="round" stroke-linejoin="round"/>
<path d="M42 6.58398V5.30809" stroke="white" stroke-width="2" stroke-miterlimit="10" stroke-linecap="round" stroke-linejoin="round"/>
<path d="M35.6237 9.22461L34.7217 8.32258" stroke="white" stroke-width="2" stroke-miterlimit="10" stroke-linecap="round" stroke-linejoin="round"/>
<path d="M32.9828 15.6016H31.707" stroke="white" stroke-width="2" stroke-miterlimit="10" stroke-linecap="round" stroke-linejoin="round"/>
<path d="M35.6237 21.9788L34.7217 22.8809" stroke="white" stroke-width="2" stroke-miterlimit="10" stroke-linecap="round" stroke-linejoin="round"/>
<path d="M42 24.6186V25.8945" stroke="white" stroke-width="2" stroke-miterlimit="10" stroke-linecap="round" stroke-linejoin="round"/>
<path d="M48.377 21.9788L49.279 22.8809" stroke="white" stroke-width="2" stroke-miterlimit="10" stroke-linecap="round" stroke-linejoin="round"/>
<path d="M51.0186 15.6016H52.2943" stroke="white" stroke-width="2" stroke-miterlimit="10" stroke-linecap="round" stroke-linejoin="round"/>
<path d="M48.377 9.22461L49.279 8.32258" stroke="white" stroke-width="2" stroke-miterlimit="10" stroke-linecap="round" stroke-linejoin="round"/>
<path d="M15.3771 38.12L8.01246 49.9983C7.73663 50.4429 8.05646 51.0176 8.5796 51.0176H75.4223C75.9454 51.0176 76.2652 50.4429 75.9896 49.9983L65.0614 32.3726C64.8536 32.0377 64.4874 31.8338 64.0932 31.8338H19.9087C19.5144 31.8338 19.1482 32.0377 18.9405 32.3727L18.1126 33.708" stroke="white" stroke-width="2" stroke-miterlimit="10" stroke-linecap="round" stroke-linejoin="round"/>
<path d="M27.697 31.8338L22.1543 51.0176" stroke="white" stroke-width="2" stroke-miterlimit="10" stroke-linecap="round" stroke-linejoin="round"/>
<path d="M61.8464 51.0176L56.3037 31.8338" stroke="white" stroke-width="2" stroke-miterlimit="10" stroke-linecap="round" stroke-linejoin="round"/>
<path d="M37.0462 31.8338L35.125 51.0176" stroke="white" stroke-width="2" stroke-miterlimit="10" stroke-linecap="round" stroke-linejoin="round"/>
<path d="M48.8753 51.0176L46.9541 31.8338" stroke="white" stroke-width="2" stroke-miterlimit="10" stroke-linecap="round" stroke-linejoin="round"/>
<path d="M70.6738 41.4248H13.3262" stroke="white" stroke-width="2" stroke-miterlimit="10" stroke-linecap="round" stroke-linejoin="round"/>
<path d="M60.4277 78.6924H75.658C75.9891 78.6924 76.2574 78.4241 76.2574 78.093V75.1886C76.2574 74.2628 75.507 73.5125 74.5812 73.5125H70.1453C68.9217 73.5125 67.7561 72.9192 67.0989 71.889C66.1562 70.4126 64.5062 69.4343 62.6253 69.4343C60.7446 69.4343 59.0926 70.4126 58.1515 71.889C57.4944 72.9192 56.3272 73.5125 55.1052 73.5125H28.8965C27.6743 73.5125 26.5071 72.9192 25.85 71.889C24.9089 70.4126 23.2569 69.4343 21.3762 69.4343C19.4955 69.4343 17.8453 70.4126 16.9027 71.889C16.2454 72.9192 15.0799 73.5125 13.8562 73.5125H9.42034C8.49468 73.5125 7.74414 74.2628 7.74414 75.1886V78.093C7.74414 78.4241 8.01258 78.6924 8.34348 78.6924H55.224" stroke="white" stroke-width="2" stroke-miterlimit="10" stroke-linecap="round" stroke-linejoin="round"/>
</g>
</svg>
