<svg width="84" height="84" viewBox="0 0 84 84" fill="none" xmlns="http://www.w3.org/2000/svg">
<path d="M52.7344 55.5306H70.0407V50.8193" stroke="white" stroke-width="2" stroke-miterlimit="10" stroke-linecap="round" stroke-linejoin="round"/>
<path d="M70.0408 46.9652V36.0371H47.4004V40.6016" stroke="white" stroke-width="2" stroke-miterlimit="10" stroke-linecap="round" stroke-linejoin="round"/>
<path d="M60.6504 36.0371H56.7881V42.0062H60.6504V36.0371Z" stroke="white" stroke-width="2" stroke-miterlimit="10" stroke-linecap="round" stroke-linejoin="round"/>
<path d="M52.3828 75.0236H8.97656V42.5328L30.6796 36.0371L52.3828 42.5328V75.0236Z" stroke="white" stroke-width="2" stroke-miterlimit="10" stroke-linecap="round" stroke-linejoin="round"/>
<path d="M30.6799 65.5898H19.291V75.0235H30.6799V65.5898Z" stroke="white" stroke-width="2" stroke-miterlimit="10" stroke-linecap="round" stroke-linejoin="round"/>
<path d="M24.9854 68.0477V65.5898" stroke="white" stroke-width="2" stroke-miterlimit="10" stroke-linecap="round" stroke-linejoin="round"/>
<path d="M42.0685 65.5898H30.6797V75.0235H42.0685V65.5898Z" stroke="white" stroke-width="2" stroke-miterlimit="10" stroke-linecap="round" stroke-linejoin="round"/>
<path d="M36.374 68.0477V65.5898" stroke="white" stroke-width="2" stroke-miterlimit="10" stroke-linecap="round" stroke-linejoin="round"/>
<path d="M36.3742 56.1553H24.9854V65.5889H36.3742V56.1553Z" stroke="white" stroke-width="2" stroke-miterlimit="10" stroke-linecap="round" stroke-linejoin="round"/>
<path d="M30.6797 58.6131V56.1553" stroke="white" stroke-width="2" stroke-miterlimit="10" stroke-linecap="round" stroke-linejoin="round"/>
<path d="M22.1492 19.8206L28.7655 26.4369C29.0778 26.7492 29.0778 27.2556 28.7655 27.5678L25.5747 30.7587C25.2624 31.071 24.7561 31.071 24.4438 30.7587L17.8274 24.1423C17.588 23.9029 17.1998 23.9029 16.9604 24.1423L15.3109 25.7919C14.9958 26.107 14.4568 25.891 14.4464 25.4456L14.265 17.6485C14.247 16.8733 14.8802 16.2401 15.6553 16.2582L23.4524 16.4396C23.8979 16.45 24.1138 16.989 23.7987 17.304L22.1492 18.9536C21.9097 19.1929 21.9097 19.5811 22.1492 19.8206Z" stroke="white" stroke-width="2" stroke-miterlimit="10" stroke-linecap="round" stroke-linejoin="round"/>
<path d="M66.1723 24.1423L59.556 30.7587C59.2437 31.071 58.7373 31.071 58.4251 30.7587L55.2342 27.5678C54.9219 27.2556 54.9219 26.7492 55.2342 26.4369L61.8506 19.8206C62.09 19.5811 62.09 19.1929 61.8506 18.9536L60.201 17.304C59.8859 16.989 60.1019 16.45 60.5473 16.4396L68.3444 16.2582C69.1196 16.2401 69.7528 16.8733 69.7347 17.6485L69.5533 25.4456C69.5429 25.891 69.0039 26.107 68.6889 25.7919L67.0393 24.1423C66.8 23.9029 66.4118 23.9029 66.1723 24.1423Z" stroke="white" stroke-width="2" stroke-miterlimit="10" stroke-linecap="round" stroke-linejoin="round"/>
<path d="M75.0233 55.5312H52.3828V75.0246H75.0233V55.5312Z" stroke="white" stroke-width="2" stroke-miterlimit="10" stroke-linecap="round" stroke-linejoin="round"/>
<path d="M65.6338 55.5312H61.7715V61.5003H65.6338V55.5312Z" stroke="white" stroke-width="2" stroke-miterlimit="10" stroke-linecap="round" stroke-linejoin="round"/>
<path d="M14.6593 58.0835V75.0239H46.6994V48.9297C46.6994 48.4027 46.2721 47.9756 45.7451 47.9756H15.6135C15.0864 47.9756 14.6592 48.4028 14.6592 48.9297V54.2297" stroke="white" stroke-width="2" stroke-miterlimit="10" stroke-linecap="round" stroke-linejoin="round"/>
<path d="M38.9446 23.431V25.8652C38.9446 26.3068 39.3026 26.6648 39.7442 26.6648H44.2568C44.6984 26.6648 45.0564 26.3068 45.0564 25.8652V16.5082C45.0564 16.1696 45.3308 15.8951 45.6694 15.8951H48.0023C48.4479 15.8951 48.6762 15.3613 48.3687 15.039L42.9836 9.39726C42.4482 8.83633 41.5527 8.83633 41.0175 9.39726L35.6323 15.039C35.3247 15.3613 35.5531 15.8951 35.9987 15.8951H38.3316C38.6702 15.8951 38.9446 16.1696 38.9446 16.5082V19.5772" stroke="white" stroke-width="2" stroke-miterlimit="10" stroke-linecap="round" stroke-linejoin="round"/>
</svg>
