<svg width="84" height="84" viewBox="0 0 84 84" fill="none" xmlns="http://www.w3.org/2000/svg">
<mask id="mask0_7185_15459" style="mask-type:luminance" maskUnits="userSpaceOnUse" x="4" y="4" width="76" height="76">
<path d="M4.2002 4.19981H79.8002V79.7998H4.2002V4.19981Z" fill="white"/>
</mask>
<g mask="url(#mask0_7185_15459)">
<path d="M17.3672 18.7979C18.6161 17.3685 19.9783 16.042 21.4398 14.8322" stroke="white" stroke-width="2" stroke-miterlimit="10" stroke-linecap="round" stroke-linejoin="round"/>
<path d="M9.57227 34.0469C10.4539 30.2133 11.9591 26.6195 13.9745 23.3792" stroke="white" stroke-width="2" stroke-miterlimit="10" stroke-linecap="round" stroke-linejoin="round"/>
<path d="M21.2209 68.9854C13.5519 62.5319 8.6748 52.8386 8.6748 42.0004C8.6748 41.5888 8.68189 41.1787 8.69577 40.7706" stroke="white" stroke-width="2" stroke-miterlimit="10" stroke-linecap="round" stroke-linejoin="round"/>
<path d="M60.6483 72.7817C55.6228 75.5845 49.8387 77.1807 43.6836 77.1807C37.5496 77.1807 31.784 75.5954 26.7705 72.8102" stroke="white" stroke-width="2" stroke-miterlimit="10" stroke-linecap="round" stroke-linejoin="round"/>
<path d="M73.3688 23.3426C76.742 28.7508 78.6922 35.1467 78.6922 42.0003C78.6922 52.8226 73.8295 62.5036 66.1797 68.957" stroke="white" stroke-width="2" stroke-miterlimit="10" stroke-linecap="round" stroke-linejoin="round"/>
<path d="M65.6172 14.5781C66.9127 15.6259 68.1327 16.7646 69.2671 17.9844" stroke="white" stroke-width="2" stroke-miterlimit="10" stroke-linecap="round" stroke-linejoin="round"/>
<path d="M26.9893 11.0693C31.9514 8.35911 37.6387 6.81949 43.6837 6.81949C49.5736 6.81949 55.1238 8.28114 59.9947 10.8631" stroke="white" stroke-width="2" stroke-miterlimit="10" stroke-linecap="round" stroke-linejoin="round"/>
<path d="M46.6152 19.1182C50.5584 16.6643 54.9021 14.7356 59.5702 13.4482" stroke="white" stroke-width="2" stroke-miterlimit="10" stroke-linecap="round" stroke-linejoin="round"/>
<path d="M32.2695 32.6836C34.7919 29.104 37.7843 25.8545 41.1794 23.0374" stroke="white" stroke-width="2" stroke-miterlimit="10" stroke-linecap="round" stroke-linejoin="round"/>
<path d="M23.5144 67.5186C22.2541 57.2153 24.2466 47.1582 28.7473 38.4794" stroke="white" stroke-width="2" stroke-miterlimit="10" stroke-linecap="round" stroke-linejoin="round"/>
<path d="M40.7517 19.1182C36.6753 16.5813 32.1707 14.6058 27.3223 13.3197" stroke="white" stroke-width="2" stroke-miterlimit="10" stroke-linecap="round" stroke-linejoin="round"/>
<path d="M59.9082 41.1553C56.7938 34.164 52.1017 27.9446 46.1875 23.0371" stroke="white" stroke-width="2" stroke-miterlimit="10" stroke-linecap="round" stroke-linejoin="round"/>
<path d="M63.6895 54.1533C63.3572 51.9053 62.8702 49.6805 62.2344 47.4989" stroke="white" stroke-width="2" stroke-miterlimit="10" stroke-linecap="round" stroke-linejoin="round"/>
<path d="M63.8311 67.6855C64.1239 65.353 64.2541 63.0006 64.2176 60.6499" stroke="white" stroke-width="2" stroke-miterlimit="10" stroke-linecap="round" stroke-linejoin="round"/>
<path d="M27.2146 34.8769C22.1712 34.8512 17.0518 35.3924 11.9355 36.5469" stroke="white" stroke-width="2" stroke-miterlimit="10" stroke-linecap="round" stroke-linejoin="round"/>
<path d="M58.263 42.6289C50.7547 38.6927 42.5055 36.1518 33.9238 35.2464" stroke="white" stroke-width="2" stroke-miterlimit="10" stroke-linecap="round" stroke-linejoin="round"/>
<path d="M75.8666 55.8691C72.3021 52.147 68.3398 48.8559 64.0693 46.0484" stroke="white" stroke-width="2" stroke-miterlimit="10" stroke-linecap="round" stroke-linejoin="round"/>
<path d="M62.8818 41.3496C66.1843 36.0335 68.7881 30.2081 70.5515 23.99" stroke="white" stroke-width="2" stroke-miterlimit="10" stroke-linecap="round" stroke-linejoin="round"/>
<path d="M27.2148 69.8486C39.8716 65.4836 50.9475 57.4467 59.0543 46.8829" stroke="white" stroke-width="2" stroke-miterlimit="10" stroke-linecap="round" stroke-linejoin="round"/>
<path d="M43.6831 24.1621C41.8266 24.1621 40.3164 22.6445 40.3164 20.7789C40.3164 18.9134 41.8266 17.3958 43.6831 17.3958C45.5396 17.3958 47.0498 18.9134 47.0498 20.7789C47.0498 22.6445 45.5396 24.1621 43.6831 24.1621Z" stroke="white" stroke-width="2" stroke-miterlimit="10" stroke-linecap="round" stroke-linejoin="round"/>
<path d="M30.5816 39.0264C28.7251 39.0264 27.2148 37.5086 27.2148 35.6431C27.2148 33.7776 28.7251 32.2599 30.5816 32.2599C32.438 32.2599 33.9483 33.7776 33.9483 35.6431C33.9483 37.5086 32.438 39.0264 30.5816 39.0264Z" stroke="white" stroke-width="2" stroke-miterlimit="10" stroke-linecap="round" stroke-linejoin="round"/>
<path d="M61.2007 47.6631C59.3442 47.6631 57.834 46.1453 57.834 44.2798C57.834 42.4143 59.3442 40.8966 61.2007 40.8966C63.0572 40.8966 64.5674 42.4143 64.5674 44.2798C64.5674 46.1453 63.0572 47.6631 61.2007 47.6631Z" stroke="white" stroke-width="2" stroke-miterlimit="10" stroke-linecap="round" stroke-linejoin="round"/>
<path d="M24.02 74.2461C22.1635 74.2461 20.6533 72.7285 20.6533 70.8628C20.6533 68.9974 22.1635 67.4797 24.02 67.4797C25.8765 67.4797 27.3869 68.9974 27.3869 70.8628C27.3869 72.7285 25.8765 74.2461 24.02 74.2461Z" stroke="white" stroke-width="2" stroke-miterlimit="10" stroke-linecap="round" stroke-linejoin="round"/>
<path d="M63.5415 74.4385C61.685 74.4385 60.1748 72.9207 60.1748 71.0552C60.1748 69.1897 61.685 67.672 63.5415 67.672C65.398 67.672 66.9084 69.1897 66.9084 71.0552C66.9084 72.9207 65.398 74.4385 63.5415 74.4385Z" stroke="white" stroke-width="2" stroke-miterlimit="10" stroke-linecap="round" stroke-linejoin="round"/>
<path d="M71.3913 23.9902C69.5348 23.9902 68.0244 22.4725 68.0244 20.607C68.0244 18.7415 69.5348 17.2237 71.3913 17.2237C73.2478 17.2237 74.758 18.7415 74.758 20.607C74.758 22.4725 73.2478 23.9902 71.3913 23.9902Z" stroke="white" stroke-width="2" stroke-miterlimit="10" stroke-linecap="round" stroke-linejoin="round"/>
<path d="M62.8442 16.0449C60.9878 16.0449 59.4775 14.5273 59.4775 12.6617C59.4775 10.7962 60.9878 9.27857 62.8442 9.27857C64.7007 9.27857 66.2111 10.7962 66.2111 12.6617C66.2111 14.5273 64.7007 16.0449 62.8442 16.0449Z" stroke="white" stroke-width="2" stroke-miterlimit="10" stroke-linecap="round" stroke-linejoin="round"/>
<path d="M24.02 16.0449C22.1635 16.0449 20.6533 14.5273 20.6533 12.6617C20.6533 10.7962 22.1635 9.27857 24.02 9.27857C25.8765 9.27857 27.3869 10.7962 27.3869 12.6617C27.3869 14.5273 25.8765 16.0449 24.02 16.0449Z" stroke="white" stroke-width="2" stroke-miterlimit="10" stroke-linecap="round" stroke-linejoin="round"/>
<path d="M8.67433 40.7695C6.81785 40.7695 5.30762 39.2519 5.30762 37.3863C5.30762 35.5208 6.81785 34.0032 8.67433 34.0032C10.5308 34.0032 12.041 35.5208 12.041 37.3863C12.041 39.2519 10.5308 40.7695 8.67433 40.7695Z" stroke="white" stroke-width="2" stroke-miterlimit="10" stroke-linecap="round" stroke-linejoin="round"/>
</g>
</svg>
