<svg width="84" height="84" viewBox="0 0 84 84" fill="none" xmlns="http://www.w3.org/2000/svg">
<path d="M16.9072 46.8683V46.9037M46 32L48.9483 31.9512H73.0756V68.083C73.0756 72.6063 69.4088 76.2731 64.8855 76.2731H25.0973C20.5741 76.2731 16.9072 72.6063 16.9072 68.083V46.9037M16.9072 45.2769V46.9037" stroke="black" stroke-width="2"/>
<path d="M73.2695 31.9504C74.9285 31.9504 76.2733 30.6056 76.2733 28.9466V28.8871C76.2733 27.6323 75.508 26.5043 74.3419 26.0407L40.2109 12.4688L39 12.5" stroke="black" stroke-width="2"/>
<path d="M26.8555 76.1696V63.0911C26.8555 60.8295 28.6889 58.9961 30.9505 58.9961H47.3007V67.5828V76.1696" stroke="black" stroke-width="2"/>
<path d="M46.4297 58.9961C54.3384 58.9961 67.5532 58.9961 67.5532 58.9961V76.1696" stroke="black" stroke-width="2"/>
<path d="M47.2998 60.127V47.2542C47.2998 44.9926 49.1332 43.1592 51.3948 43.1592H63.6002C65.8812 43.1592 67.7225 45.0229 67.695 47.3037L67.5512 59.2015" stroke="black" stroke-width="2"/>
<path d="M54.1787 43.1592V44.9946C54.1787 46.707 55.5669 48.0953 57.2794 48.0953C58.9919 48.0953 60.3801 46.707 60.3801 44.9946V43.1592" stroke="black" stroke-width="2"/>
<path d="M54.1787 59.0986V60.934C54.1787 62.6465 55.5669 64.0347 57.2794 64.0347C58.9919 64.0347 60.3801 62.6465 60.3801 60.934V59.0986" stroke="black" stroke-width="2"/>
<path d="M34.0273 59.0986V60.934C34.0273 62.6465 35.4156 64.0347 37.128 64.0347C38.8405 64.0347 40.2287 62.6465 40.2287 60.934V59.0986" stroke="black" stroke-width="2"/>
<path d="M26.8408 8C37.191 8.00003 45.6816 16.9228 45.6816 28.0566C45.6816 39.1905 37.1911 48.1132 26.8408 48.1133C16.4906 48.1133 8 39.1905 8 28.0566C8.00003 16.9228 16.4906 8 26.8408 8Z" stroke="black" stroke-width="2"/>
<path d="M27.1602 43.7663V12" stroke="black" stroke-width="2"/>
<path d="M12 28.0205H41.7384" stroke="black" stroke-width="2"/>
<path d="M21.6152 39.9329L27.0339 33.9082L32.6462 39.5905" stroke="black" stroke-width="2"/>
<path d="M32.5791 15.8347L27.1604 21.8594L21.5481 16.177" stroke="black" stroke-width="2"/>
<path d="M38.3232 33.8398L32.6465 28.089L38.0007 22.1329" stroke="black" stroke-width="2"/>
<path d="M15.6162 33.7021L21.293 27.9513L15.9388 21.9952" stroke="black" stroke-width="2"/>
</svg>
