<svg width="100" height="101" viewBox="0 0 100 101" fill="none" xmlns="http://www.w3.org/2000/svg">
<path d="M20.1968 70.2627C21.6879 70.2627 22.8968 71.4716 22.8968 72.9627V78.3627C22.8968 79.8538 21.6879 81.0627 20.1968 81.0627" stroke="black" stroke-width="1.782" stroke-miterlimit="10" stroke-linecap="round" stroke-linejoin="round"/>
<path d="M19.5022 82.6613C18.3398 82.6613 17.3975 81.392 17.3975 79.8263V74.1563C17.3975 72.5906 18.3398 71.3213 19.5022 71.3213H63.7025" stroke="black" stroke-width="1.8711" stroke-miterlimit="10" stroke-linecap="round" stroke-linejoin="round"/>
<path d="M19.4472 14.207V71.3224C15.813 71.7597 12.978 70.6346 12.978 74.1222M19.4472 14.207H63.7628V71.3224C61.4299 73.6494 61.4299 77.4153 63.7628 79.7423V83.9523H19.4472C15.9508 83.9523 13.1165 81.125 13.1165 77.6373L12.978 74.1222M19.4472 14.207C15.9508 14.207 13.1165 17.0343 13.1165 20.522L12.978 74.1222" stroke="black" stroke-width="1.8711" stroke-miterlimit="10" stroke-linecap="round" stroke-linejoin="round"/>
<path d="M37.2342 47.3885L32.6291 36.1133L28.0239 47.3885" stroke="#F47920" stroke-width="0.93555" stroke-miterlimit="10" stroke-linecap="round" stroke-linejoin="round"/>
<path d="M40.5836 36.1131C41.2773 36.1131 41.8396 35.5522 41.8396 34.8603C41.8396 34.1683 41.2773 33.6074 40.5836 33.6074C39.89 33.6074 39.3276 34.1683 39.3276 34.8603C39.3276 35.5522 39.89 36.1131 40.5836 36.1131Z" stroke="#F47920" stroke-width="0.93555" stroke-miterlimit="10" stroke-linecap="round" stroke-linejoin="round"/>
<path d="M39.7461 37.6494V52.8184" stroke="#F47920" stroke-width="0.93555" stroke-miterlimit="10" stroke-linecap="round" stroke-linejoin="round"/>
<path d="M41.4238 35.8291V52.8177" stroke="#F47920" stroke-width="0.93555" stroke-miterlimit="10" stroke-linecap="round" stroke-linejoin="round"/>
<path d="M43.0965 55.323V53.6526C43.0965 53.1913 42.7216 52.8174 42.2592 52.8174H38.91C38.4476 52.8174 38.0728 53.1913 38.0728 53.6526V55.323" stroke="#F47920" stroke-width="0.93555" stroke-miterlimit="10" stroke-linecap="round" stroke-linejoin="round"/>
<path d="M27.6055 47.3887C27.6055 49.2337 29.8547 50.7295 32.6292 50.7295C35.4038 50.7295 37.653 49.2337 37.653 47.3887H27.6055Z" stroke="#F47920" stroke-width="0.93555" stroke-miterlimit="10" stroke-linecap="round" stroke-linejoin="round"/>
<path d="M47.2842 56.9936H33.8874C33.6562 56.9936 33.4688 56.8067 33.4688 56.576V55.7408C33.4688 55.5102 33.6562 55.3232 33.8874 55.3232H47.2842C47.5154 55.3232 47.7028 55.5102 47.7028 55.7408V56.576C47.7028 56.8067 47.5154 56.9936 47.2842 56.9936Z" stroke="#F47920" stroke-width="0.93555" stroke-miterlimit="10" stroke-linecap="round" stroke-linejoin="round"/>
<path d="M39.3301 34.9187C35.9905 35.2122 33.5617 36.1141 30.9571 36.1141C30.2634 36.1141 29.7012 35.5532 29.7012 34.8613" stroke="#F47920" stroke-width="0.93555" stroke-miterlimit="10" stroke-linecap="round" stroke-linejoin="round"/>
<path d="M39.7461 33.8338V31.9377C39.7461 31.4765 40.121 31.1025 40.5834 31.1025C41.0458 31.1025 41.4207 31.4765 41.4207 31.9377V33.8338" stroke="#F47920" stroke-width="0.93555" stroke-miterlimit="10" stroke-linecap="round" stroke-linejoin="round"/>
<path d="M43.9336 47.3885L48.5387 36.1133L53.1439 47.3885" stroke="#F47920" stroke-width="0.93555" stroke-miterlimit="10" stroke-linecap="round" stroke-linejoin="round"/>
<path d="M51.4699 47.3887H53.5632C53.5632 49.2337 51.3139 50.7295 48.5394 50.7295C45.7648 50.7295 43.5156 49.2337 43.5156 47.3887H49.7954" stroke="#F47920" stroke-width="0.93555" stroke-miterlimit="10" stroke-linecap="round" stroke-linejoin="round"/>
<path d="M41.8418 34.9187C45.1814 35.2122 47.6101 36.1141 50.2148 36.1141C50.9084 36.1141 51.4707 35.5532 51.4707 34.8613" stroke="#F47920" stroke-width="0.93555" stroke-miterlimit="10" stroke-linecap="round" stroke-linejoin="round"/>
<path d="M27.0918 77.4766C39.2703 77.4766 46.0983 77.4766 58.2768 77.4766" stroke="black" stroke-width="1.0395" stroke-linecap="round"/>
<circle cx="66.8379" cy="69.6328" r="11.01" fill="white" stroke="#0DB14B" stroke-width="1.98"/>
<path d="M66.8379 62.6328V75.6328" stroke="#0DB14B" stroke-width="1.98" stroke-linecap="round"/>
<path d="M60 69.0801L74 69.0801" stroke="#0DB14B" stroke-width="1.98" stroke-linecap="round"/>
</svg>
