<svg width="100" height="101" viewBox="0 0 100 101" fill="none" xmlns="http://www.w3.org/2000/svg">
<g clip-path="url(#clip0_6242_24085)">
<path d="M25.9971 15.8594H63.1455C63.7413 15.8594 64.3131 16.0963 64.7344 16.5176C65.1555 16.9388 65.3916 17.5108 65.3916 18.1064V67.6309L65.71 67.4609C65.7343 67.4479 65.7561 67.4334 65.7715 67.4238L65.8096 67.4014C68.0204 66.2119 70.5052 65.6241 73.0146 65.6963H73.0166C75.0267 65.7368 77.0253 65.381 78.8984 64.6504H78.8994C80.8365 63.8829 82.5144 62.578 83.7354 60.8896C83.9285 60.6222 84.1952 60.4167 84.5029 60.2979C84.8108 60.179 85.1469 60.1515 85.4697 60.2197C85.7927 60.2881 86.0898 60.4491 86.3232 60.6826C86.5565 60.916 86.7169 61.2124 86.7852 61.5352V61.5371C87.2521 63.6938 88.0085 68.4318 87.1152 73.5244C86.2229 78.6114 83.6876 84.0415 77.5771 87.6211L77.5762 87.6221C75.6994 88.7254 73.5619 89.3078 71.3848 89.3086H71.3838C69.518 89.3198 67.6764 88.8826 66.0146 88.0342C64.3529 87.1856 62.919 85.9497 61.834 84.4316L61.6562 84.1836L61.4873 84.4238C61.4844 84.4267 61.4809 84.4318 61.4766 84.4365C61.47 84.4437 61.4612 84.4539 61.4521 84.4668L61.6201 84.584L61.4512 84.4668L61.4443 84.4775C60.5337 85.9652 59.2536 87.1925 57.7285 88.0391C56.2035 88.8856 54.4854 89.3234 52.7412 89.3096H52.7393C50.8483 89.3087 48.9915 88.8016 47.3623 87.8418L47.3604 87.8408C44.9158 86.4404 42.8725 84.435 41.4258 82.0176L41.3623 81.9121H16.3604C15.7647 81.9121 15.1927 81.676 14.7715 81.2549C14.3502 80.8336 14.1133 80.2618 14.1133 79.666V27.7432C14.112 27.2865 14.2012 26.834 14.376 26.4121C14.5508 25.9904 14.8081 25.6079 15.1318 25.2861L23.5391 16.8789V16.8779C23.861 16.5543 24.2443 16.2979 24.666 16.123C25.0878 15.9482 25.5405 15.8583 25.9971 15.8594ZM84.6514 63C83.2915 64.5625 81.5775 65.7766 79.6523 66.541C77.5661 67.3551 75.3427 67.7596 73.1035 67.7324C71.036 67.6522 68.9832 68.0919 67.1328 69.0078L66.7656 69.1973C65.6206 69.8055 64.6119 70.642 63.8018 71.6543C62.9919 72.6663 62.3973 73.833 62.0547 75.083C61.4165 77.3505 61.6318 79.7734 62.6602 81.8926L62.7344 82.0449L62.8994 82.0098C67.9914 80.9282 71.3921 79.1724 73.7754 77.3115C76.1577 75.4513 77.514 73.4936 78.5215 72.0322L78.5264 72.0234C78.5989 71.9075 78.6945 71.8077 78.8066 71.7295C78.919 71.6512 79.0466 71.5963 79.1807 71.5684C79.3146 71.5405 79.4528 71.5395 79.5869 71.5664C79.7212 71.5933 79.849 71.6472 79.9619 71.7246C80.0748 71.802 80.1707 71.9021 80.2441 72.0176C80.3175 72.133 80.3674 72.2624 80.3896 72.3975C80.4118 72.5325 80.4056 72.6708 80.373 72.8037C80.3405 72.9366 80.2813 73.0614 80.1992 73.1709L80.1943 73.1787C79.1902 74.6388 77.7838 76.6738 75.3447 78.6523C72.9064 80.6303 69.4274 82.5581 64.2754 83.7822L63.9131 83.8682L64.167 84.1396C65.7222 85.8014 67.8006 86.8802 70.0547 87.1953C72.3085 87.5103 74.6016 87.0424 76.5527 85.8711C86.5839 79.9918 86.0287 68.691 85.0273 63.1035L84.9473 62.6602L84.6514 63ZM41.123 67.084C40.3234 71.9364 40.0792 81.2224 48.3828 86.0879V86.0889C49.98 87.0485 51.8521 87.448 53.7021 87.2256C55.552 87.0031 57.2755 86.1712 58.5996 84.8604L58.873 84.5889L58.499 84.4971C54.1703 83.4247 51.2421 81.7716 49.1846 80.084C47.1293 78.3982 45.9342 76.6718 45.0742 75.4248H45.0752C44.9335 75.2031 44.8834 74.9347 44.9355 74.6768C44.9878 74.419 45.1379 74.1912 45.3545 74.042C45.5711 73.8928 45.8372 73.8338 46.0967 73.877C46.3239 73.9148 46.5305 74.0286 46.6836 74.1982L46.7461 74.2734C47.598 75.5063 48.744 77.1589 50.749 78.7324C52.7579 80.3089 55.6185 81.7989 59.8945 82.7285L60.0645 82.7656L60.1367 82.6084C60.2444 82.375 60.3306 82.1415 60.4102 81.9141L60.4365 81.8398L60.4092 81.7666C59.6502 79.7407 59.4728 77.543 59.8984 75.4219L59.9141 75.3447L59.877 75.2764C59.1369 73.9083 58.0101 72.7887 56.6377 72.0566H56.6387C54.99 71.1698 53.1344 70.7392 51.2637 70.8096C49.3271 70.834 47.4042 70.4824 45.6016 69.7744C44.0396 69.1606 42.6353 68.2023 41.4941 66.9717L41.1943 66.6484L41.123 67.084ZM25.9932 24.2617C25.9932 25.184 25.6268 26.0685 24.9746 26.7207C24.3224 27.3729 23.4379 27.7393 22.5156 27.7393H16.1436V79.8818H40.332L40.2314 79.5947C38.6185 75.0096 38.3295 70.0621 39.3975 65.3203V65.3193C39.4645 65.0157 39.6171 64.7375 39.8379 64.5186C40.0589 64.2995 40.3391 64.1493 40.6436 64.085L40.6445 64.084C40.9466 64.0185 41.2612 64.0429 41.5498 64.1533C41.8383 64.2637 42.0884 64.4559 42.2695 64.7061C43.2982 66.1371 44.7176 67.2419 46.3574 67.8877H46.3584C47.9493 68.5114 49.648 68.8147 51.3564 68.7803H51.3574C53.5305 68.7192 55.6819 69.2307 57.5947 70.2637C58.6996 70.8575 59.6813 71.6572 60.4863 72.6191L60.7012 72.876L60.8467 72.5742C61.4513 71.3179 62.2809 70.1827 63.2939 69.2246L63.3613 69.1611V17.8896H25.9932V24.2617ZM23.5947 19.6943L17.9482 25.3408L17.5791 25.709H22.5156C22.8994 25.709 23.2677 25.5566 23.5391 25.2852C23.8105 25.0138 23.9629 24.6455 23.9629 24.2617V19.3252L23.5947 19.6943Z" fill="black" stroke="white" stroke-width="0.432"/>
<path d="M44.2134 24.0752C46.1986 23.2529 48.3832 23.0379 50.4907 23.457C52.5983 23.8763 54.5347 24.9112 56.0542 26.4307C57.5735 27.9501 58.6086 29.8858 59.0278 31.9932C59.447 34.1007 59.231 36.2853 58.4087 38.2705C57.5864 40.2557 56.1943 41.9527 54.4077 43.1465C52.6211 44.3403 50.5203 44.9775 48.3716 44.9775C45.491 44.9743 42.7288 43.8289 40.6919 41.792C38.6553 39.7552 37.5097 36.9936 37.5063 34.1133C37.5063 31.9645 38.1437 29.8638 39.3374 28.0771C40.5312 26.2905 42.2281 24.8975 44.2134 24.0752ZM43.0669 40.8555L42.8911 41.0303L43.0903 41.1807C44.5172 42.2557 46.2357 42.8681 48.0151 42.9404L48.3716 42.9473C50.4936 42.9432 52.5436 42.1763 54.147 40.7861C55.7503 39.3959 56.8003 37.4751 57.105 35.375L57.1411 35.1279H48.7944L43.0669 40.8555ZM47.1099 25.3789C45.5928 25.593 44.1579 26.1994 42.9468 27.1377C41.7357 28.076 40.7899 29.3141 40.2036 30.7295C39.6174 32.1449 39.4111 33.6891 39.604 35.209C39.797 36.7289 40.3828 38.1724 41.3042 39.3965L41.4536 39.5957L41.6294 39.4199L47.2925 33.7559L47.356 33.6924V25.3447L47.1099 25.3789ZM49.3862 33.0977H57.1411L57.105 32.8506C56.831 30.9665 55.9552 29.2213 54.6089 27.875C53.2626 26.5288 51.5174 25.6528 49.6333 25.3789L49.3862 25.3438V33.0977Z" fill="#0DB14B" stroke="white" stroke-width="0.432"/>
<path d="M21.2847 30.6348H33.5962C33.8654 30.6348 34.1236 30.7422 34.314 30.9326C34.5043 31.123 34.6118 31.3811 34.6118 31.6504C34.6118 31.9196 34.5043 32.1778 34.314 32.3682C34.1236 32.5584 33.8653 32.665 33.5962 32.665H21.2847C21.0155 32.665 20.7573 32.5584 20.5669 32.3682C20.3766 32.1778 20.2691 31.9195 20.269 31.6504C20.269 31.3811 20.3765 31.123 20.5669 30.9326C20.7573 30.7422 21.0154 30.6348 21.2847 30.6348Z" fill="black" stroke="white" stroke-width="0.432"/>
<path d="M21.2847 36.791H33.5962C33.8654 36.791 34.1236 36.8985 34.314 37.0889C34.5043 37.2793 34.6118 37.5374 34.6118 37.8066C34.6118 38.0758 34.5043 38.3341 34.314 38.5244C34.1236 38.7147 33.8653 38.8213 33.5962 38.8213H21.2847C21.0155 38.8213 20.7573 38.7146 20.5669 38.5244C20.3766 38.3341 20.2691 38.0758 20.269 37.8066C20.269 37.5374 20.3765 37.2793 20.5669 37.0889C20.7573 36.8985 21.0154 36.791 21.2847 36.791Z" fill="black" stroke="white" stroke-width="0.432"/>
<path d="M21.2847 42.9473H33.5962C33.8654 42.9473 34.1236 43.0547 34.314 43.2451C34.5043 43.4355 34.6118 43.6936 34.6118 43.9629C34.6118 44.2321 34.5043 44.4903 34.314 44.6807C34.1236 44.8709 33.8653 44.9775 33.5962 44.9775H21.2847C21.0155 44.9775 20.7573 44.8709 20.5669 44.6807C20.3766 44.4903 20.2691 44.232 20.269 43.9629C20.269 43.6936 20.3765 43.4355 20.5669 43.2451C20.7573 43.0547 21.0154 42.9473 21.2847 42.9473Z" fill="black" stroke="white" stroke-width="0.432"/>
<path d="M42.2148 47.8711H58.2197C58.489 47.8711 58.7481 47.9786 58.9385 48.1689C59.1286 48.3593 59.2354 48.6176 59.2354 48.8867C59.2353 49.1558 59.1287 49.4142 58.9385 49.6045C58.7481 49.7949 58.489 49.9014 58.2197 49.9014H42.2148C41.9457 49.9014 41.6874 49.7947 41.4971 49.6045C41.3067 49.4142 41.1993 49.1559 41.1992 48.8867C41.1992 48.6175 41.3067 48.3593 41.4971 48.1689C41.6875 47.9786 41.9456 47.8711 42.2148 47.8711Z" fill="black" stroke="white" stroke-width="0.432"/>
<path d="M21.2847 49.1025H33.5962C33.8654 49.1025 34.1236 49.21 34.314 49.4004C34.5043 49.5908 34.6118 49.8489 34.6118 50.1182C34.6118 50.3873 34.5043 50.6456 34.314 50.8359C34.1236 51.0262 33.8653 51.1328 33.5962 51.1328H21.2847C21.0155 51.1328 20.7573 51.0262 20.5669 50.8359C20.3766 50.6456 20.2691 50.3873 20.269 50.1182C20.269 49.8489 20.3765 49.5908 20.5669 49.4004C20.7573 49.21 21.0154 49.1025 21.2847 49.1025Z" fill="black" stroke="white" stroke-width="0.432"/>
<path d="M42.2148 54.0283H58.2197C58.489 54.0283 58.7481 54.1358 58.9385 54.3262C59.1286 54.5165 59.2354 54.7749 59.2354 55.0439C59.2353 55.313 59.1287 55.5714 58.9385 55.7617C58.7481 55.9521 58.489 56.0586 58.2197 56.0586H42.2148C41.9457 56.0586 41.6874 55.952 41.4971 55.7617C41.3067 55.5714 41.1993 55.3131 41.1992 55.0439C41.1992 54.7747 41.3067 54.5166 41.4971 54.3262C41.6875 54.1358 41.9456 54.0283 42.2148 54.0283Z" fill="black" stroke="white" stroke-width="0.432"/>
<path d="M42.2148 60.1826H58.2197C58.489 60.1826 58.7481 60.2901 58.9385 60.4805C59.1286 60.6708 59.2354 60.9292 59.2354 61.1982C59.2353 61.4673 59.1287 61.7257 58.9385 61.916C58.7481 62.1064 58.489 62.2129 58.2197 62.2129H42.2148C41.9457 62.2129 41.6874 62.1062 41.4971 61.916C41.3067 61.7257 41.1993 61.4674 41.1992 61.1982C41.1992 60.929 41.3067 60.6709 41.4971 60.4805C41.6875 60.2901 41.9456 60.1826 42.2148 60.1826Z" fill="black" stroke="white" stroke-width="0.432"/>
<path d="M21.2847 56.4893C21.5538 56.4893 21.8121 56.5968 22.0024 56.7871C22.1927 56.9775 22.2993 57.2358 22.2993 57.5049V71.2637H34.8276C35.0969 71.2637 35.355 71.3711 35.5454 71.5615C35.7357 71.7519 35.8433 72.0101 35.8433 72.2793C35.8432 72.5485 35.7357 72.8067 35.5454 72.9971C35.355 73.1874 35.0968 73.2939 34.8276 73.2939H21.2847C21.0155 73.2939 20.7573 73.1873 20.5669 72.9971C20.3766 72.8067 20.2691 72.5485 20.269 72.2793V57.5049C20.269 57.2356 20.3765 56.9775 20.5669 56.7871C20.7573 56.5967 21.0154 56.4893 21.2847 56.4893Z" fill="#F47922" stroke="white" stroke-width="0.432"/>
<path d="M34.9839 60.1748C35.1174 60.1941 35.2462 60.2401 35.3618 60.3096C35.4773 60.379 35.5781 60.4704 35.6577 60.5791C35.7374 60.6878 35.7942 60.8114 35.8257 60.9424C35.8571 61.0734 35.862 61.2098 35.8403 61.3428C35.8186 61.4759 35.7703 61.6035 35.6987 61.7178L35.6968 61.7217L32.0034 67.877C31.924 68.0091 31.8154 68.1221 31.686 68.2061C31.5568 68.2899 31.4102 68.3435 31.2573 68.3623C31.1044 68.3811 30.9489 68.3646 30.8032 68.3145C30.6574 68.2643 30.5246 68.1813 30.4155 68.0723L28.6714 66.3281L28.519 66.4805L26.9292 68.0654C26.7378 68.2503 26.4814 68.3528 26.2153 68.3506C25.9493 68.3483 25.6945 68.2418 25.5063 68.0537C25.3182 67.8655 25.2109 67.6108 25.2085 67.3447C25.2062 67.0787 25.3089 66.8223 25.4937 66.6309L25.4927 66.6299L27.9536 64.1709C28.144 63.9806 28.4022 63.873 28.6714 63.873C28.9405 63.8731 29.1988 63.9806 29.3892 64.1709L30.7368 65.5186L30.9321 65.7148L31.0747 65.4775L33.9575 60.6758L33.9595 60.6719C34.0268 60.5553 34.117 60.4536 34.2241 60.3721C34.3314 60.2904 34.4539 60.2301 34.5845 60.1963C34.7148 60.1626 34.8506 60.1555 34.9839 60.1748Z" fill="#0DB14B" stroke="white" stroke-width="0.432"/>
</g>
<defs>
<clipPath id="clip0_6242_24085">
<rect width="73.872" height="73.872" fill="white" transform="translate(13.897 15.6436)"/>
</clipPath>
</defs>
</svg>
