<svg width="238" height="100" viewBox="0 0 238 100" fill="none" xmlns="http://www.w3.org/2000/svg">
<path opacity="0.6" d="M95.415 29.7158C98.1187 27.5521 101.53 26.0013 106.215 26.6484C110.901 27.2959 114.112 29.9582 116.162 32.4854C117.187 33.7484 117.917 34.9713 118.39 35.8779C118.626 36.3309 118.797 36.7041 118.909 36.9619C118.965 37.0907 119.006 37.191 119.032 37.2578C119.045 37.291 119.055 37.3158 119.062 37.332C119.065 37.34 119.067 37.346 119.068 37.3496L119.07 37.3535L119.156 37.5898L119.398 37.6611C121.172 38.1833 122.777 39.0896 124.083 40.2969C122.378 40.8627 120.585 41.1759 118.771 41.2207L118.648 41.2236L118.542 41.2832L118.667 41.5107C118.551 41.3004 118.542 41.2842 118.541 41.2832L118.54 41.2842L118.537 41.2852C118.535 41.2861 118.533 41.2869 118.531 41.2881C118.527 41.2906 118.522 41.2943 118.516 41.2979C118.504 41.305 118.488 41.3143 118.47 41.3262C118.433 41.3502 118.383 41.3845 118.321 41.4307C118.198 41.5231 118.028 41.6632 117.821 41.8672C117.408 42.2753 116.848 42.937 116.214 43.9736C114.947 46.0454 113.384 49.6213 112.109 55.6924C110.876 61.5679 105.888 68.447 99.2295 74.0498C92.5786 79.6459 84.3579 83.8859 76.7637 84.5742L75.6738 84.6729L76.4629 85.4326L87.3174 95.8818L87.4443 96.0039L87.6191 96.0195C89.2891 96.1712 91.3809 96.4132 93.1396 96.7148L93.1592 96.7188L93.1797 96.7207C94.9832 96.8814 96.7678 97.1883 98.5127 97.6387C98.6615 97.7067 98.8093 97.7768 98.957 97.8467L98.8213 98.1875C98.3175 97.9951 97.8103 97.8099 97.2979 97.6377L97.2197 97.6113H96.5713C94.8101 97.4442 92.8924 97.3218 91.126 97.1934C89.5654 97.0799 88.1276 96.9624 86.9941 96.8047L86.5273 96.7344L85.5518 96.5537L85.5342 96.5498L85.5166 96.5479L83.6602 96.3369C83.0217 96.2332 82.1933 96.0477 81.2539 95.834C80.3187 95.6213 79.2821 95.3834 78.2529 95.1836L78.2393 95.1807L78.2256 95.1787L77.9473 95.1455C77.2946 95.0784 76.6348 95.0893 75.9844 95.1787L75.9053 95.1895L75.833 95.2246C75.2558 95.5069 74.6934 95.8135 74.1445 96.1387C74.3339 95.9503 74.5257 95.7635 74.7197 95.5791L75.5273 94.8115L74.417 94.7188C73.9843 94.6824 73.5489 94.6825 73.1162 94.7188L73.0234 94.7266L72.9395 94.7676C72.3898 95.0351 71.8529 95.3239 71.3291 95.6309C71.9471 95.0647 72.5978 94.5282 73.2793 94.0244C75.7648 93.7673 78.279 93.8724 80.7295 94.3369L81.1367 93.457L70.4131 84.8047L70.2812 84.6992L70.1123 84.6943L68.9844 84.6533C63.3999 84.4042 58.6173 83.4813 54.332 82.6318C49.78 81.7295 45.74 80.8976 41.9473 81.0996L41.9014 81.1025L41.8564 81.1133C37.2688 82.2194 32.8306 83.8002 28.625 85.8252V84.8623L27.9453 85.123L4.34668 94.2041L4.58594 93.9326L5.69434 92.6709L4.07715 93.1211L1.95801 93.709L2.82324 92.6367L3.53613 91.7529L3.2373 91.7715C3.6517 91.6119 4.10258 91.4405 4.58398 91.2539C7.28048 90.2089 10.9646 88.7617 14.9131 87.1572C22.7938 83.9548 31.7795 80.102 36.0459 77.5498C40.3125 74.9975 46.0329 70.4018 51.625 65.7061C57.2339 60.9962 62.714 56.1858 66.5557 53.1445C69.2913 51.0358 73.6196 48.119 77.9033 45.0996C82.1649 42.0958 86.3874 38.987 88.8408 36.5293L88.8398 36.5283C89.7588 35.6226 90.7425 34.4404 91.8027 33.251C92.8767 32.0461 94.0562 30.8033 95.415 29.7158Z" stroke="url(#paint0_linear_8748_16926)"/>
<path opacity="0.6" d="M198.509 94.0469L201.825 96.4443L197.478 96.1914L197.459 96.1904H197.441L190.837 96.2812C192.052 96.0592 193.262 95.8332 194.229 95.6328C194.73 95.5293 195.171 95.4319 195.517 95.3447C195.839 95.2635 196.138 95.1771 196.311 95.0859L196.342 95.0703L196.369 95.0498C197.012 94.586 197.559 94.1411 198.044 93.7109L198.509 94.0469ZM227.473 0.508789C228.088 0.433 228.25 0.828715 228.231 0.996094C228.194 1.31827 228.046 1.82161 227.824 2.43848C227.607 3.04394 227.332 3.71924 227.062 4.37109C226.795 5.01729 226.531 5.64695 226.34 6.14258C226.244 6.39017 226.162 6.61596 226.107 6.80078C226.08 6.89272 226.056 6.9841 226.041 7.06836C226.028 7.13948 226.011 7.25814 226.033 7.38086L226.226 8.44922L226.912 7.60938C226.913 7.60887 226.914 7.60754 226.915 7.60645C226.917 7.60414 226.92 7.60043 226.924 7.5957C226.932 7.58601 226.944 7.57094 226.96 7.55176C226.992 7.51308 227.041 7.45572 227.103 7.38281C227.227 7.23682 227.407 7.02754 227.63 6.77734C228.077 6.27599 228.694 5.6123 229.376 4.95801C230.06 4.30128 230.796 3.66659 231.483 3.21484C231.827 2.98917 232.146 2.81684 232.431 2.70898C232.718 2.5999 232.941 2.56806 233.104 2.58691C233.284 2.60777 233.401 2.66646 233.482 2.73828C233.568 2.81347 233.643 2.92688 233.701 3.0918C233.822 3.43579 233.839 3.92279 233.781 4.4668C233.725 4.999 233.604 5.53215 233.494 5.93652C233.44 6.13722 233.389 6.30353 233.353 6.41895C233.334 6.47664 233.32 6.52188 233.31 6.55176C233.305 6.56658 233.3 6.57782 233.298 6.58496C233.297 6.58842 233.295 6.59126 233.295 6.59277V6.59375L234.154 7.07617L234.157 7.07227C234.161 7.06818 234.167 7.06179 234.175 7.05273C234.191 7.03413 234.216 7.00603 234.248 6.97266C234.314 6.90463 234.405 6.81878 234.508 6.74121C234.671 6.61817 234.791 6.57177 234.87 6.55957C234.871 6.5614 234.872 6.56354 234.873 6.56543C234.919 6.68151 234.967 6.86281 235.011 7.10742C235.098 7.59243 235.155 8.24749 235.174 8.94238C235.192 9.63538 235.172 10.3508 235.109 10.9551C235.044 11.5875 234.94 12.0143 234.839 12.1934L235.603 12.8164L235.604 12.8154C235.605 12.8144 235.607 12.8122 235.61 12.8096C235.616 12.8044 235.626 12.7966 235.639 12.7861C235.664 12.7648 235.703 12.7336 235.751 12.6963C235.847 12.6211 235.979 12.5235 236.123 12.4316C236.27 12.3381 236.416 12.2591 236.543 12.2119C236.683 12.1597 236.731 12.1714 236.718 12.168C236.809 12.1915 236.836 12.2049 236.872 12.2617C236.93 12.3535 237.028 12.6118 237 13.2529C236.943 14.5309 236.401 17.0281 234.652 21.8926L234.101 23.4277L235.418 22.4658C235.419 22.4653 235.42 22.4642 235.422 22.4629C235.427 22.4595 235.435 22.4537 235.446 22.4463C235.468 22.4315 235.501 22.4097 235.543 22.3848C235.628 22.3334 235.742 22.2724 235.859 22.2266C235.936 22.1969 236.003 22.1806 236.059 22.1709C236.027 22.3492 235.975 22.5967 235.897 22.9102C235.725 23.6036 235.446 24.5825 235.08 25.7705C234.349 28.1448 233.275 31.3344 232.022 34.709C230.77 38.0843 229.34 41.6392 227.896 44.7451C226.448 47.8622 225.003 50.4884 223.727 52.0371L223.521 52.2871L223.664 52.5771C224.793 54.8587 225.163 57.3972 224.73 59.8711C224.298 62.3455 223.08 64.6498 221.226 66.4893L220.903 66.8096L221.191 67.1611L221.578 66.8447L221.191 67.1621L221.193 67.1641C221.195 67.1657 221.197 67.1687 221.199 67.1719C221.204 67.1783 221.213 67.1879 221.223 67.2002C221.243 67.225 221.274 67.2611 221.313 67.3086C221.393 67.4041 221.509 67.5448 221.659 67.7227C221.959 68.0783 222.393 68.5862 222.928 69.1973C223.998 70.4196 225.478 72.0569 227.112 73.7129C228.745 75.3671 230.541 77.0499 232.244 78.3574C233.096 79.0112 233.933 79.5779 234.721 80.001C234.82 80.0543 234.919 80.1052 235.018 80.1543C234.623 80.1582 234.204 80.1621 233.772 80.1631C232.199 80.1666 230.473 80.1525 229.139 80.1377C228.472 80.1303 227.904 80.122 227.502 80.1162C227.301 80.1133 227.142 80.1111 227.033 80.1094C226.979 80.1085 226.936 80.1079 226.908 80.1074H226.868L226.866 80.1064L226.857 80.6064L226.865 80.1064L224.967 80.0752L226.604 81.0381H226.605C226.606 81.0386 226.608 81.0399 226.609 81.041C226.614 81.0435 226.62 81.0477 226.629 81.0527C226.646 81.0629 226.672 81.078 226.704 81.0977C226.769 81.137 226.863 81.1947 226.974 81.2646C227.196 81.4049 227.488 81.5943 227.769 81.7959C227.904 81.893 228.032 81.9905 228.146 82.083C227.842 82.0748 227.465 82.0581 227.032 82.0283C225.861 81.9477 224.32 81.7979 222.781 81.6338C221.244 81.4698 219.714 81.2924 218.568 81.1553C217.996 81.0867 217.519 81.0284 217.186 80.9873C217.019 80.9668 216.888 80.9506 216.799 80.9395C216.754 80.9339 216.72 80.9296 216.697 80.9268C216.686 80.9254 216.678 80.9236 216.672 80.9229C216.669 80.9225 216.666 80.9221 216.665 80.9219H216.663L216.499 80.9014L216.354 80.9824C213.982 82.3225 211.512 83.5093 208.963 84.5342L208.889 84.5645L208.828 84.6143L198.874 92.9277C199.402 92.3995 199.861 91.8853 200.306 91.3623C201.314 90.1763 202.244 88.9857 203.845 87.5215L203.362 86.6738C200.862 87.4347 198.294 87.9907 195.688 88.335L195.604 88.3457L195.526 88.3857L182.373 95.127L181.381 95.6357L182.161 95.9375L179.997 95.6309L179.953 95.625L179.909 95.627L177.37 95.7158C178.048 95.6343 178.633 95.5616 179.083 95.5C179.543 95.437 179.908 95.3812 180.063 95.3369L180.098 95.3271L180.13 95.3125C184.979 93.1567 186.254 92.1286 190.756 89.5146L192.277 88.6318L190.52 88.582C187.338 88.4935 184.226 87.7066 181.44 86.2871H181.439C174.993 82.9072 170.886 80.1544 168.257 76.5566C165.636 72.9705 164.439 68.4818 163.974 61.5244C163.946 60.307 163.547 59.1249 162.827 58.1152C162.107 57.1051 161.095 56.3108 159.915 55.8184C157.996 54.8321 155.8 54.4169 153.622 54.627H153.618C150.971 54.9074 148.309 55.0556 145.646 55.0732L151.101 54.1348L151.112 54.1328C154.01 53.5639 156.857 52.7907 159.628 51.8203L159.642 51.8154L159.654 51.8105C160.276 51.5526 160.694 51.2273 160.88 50.8174C161.078 50.3795 160.957 49.9749 160.791 49.7109C160.477 49.2116 158.515 47.0164 151.447 45.4102C148.721 44.5337 145.807 44.2802 142.953 44.6709L142.907 44.6777L142.863 44.6924L142.74 44.7324C143.175 44.3873 143.642 44.1241 144.08 44.0684C144.817 43.9746 147.488 43.8909 150.021 43.8311C151.277 43.8014 152.485 43.7779 153.38 43.7617C153.827 43.7536 154.196 43.7474 154.453 43.7432C154.581 43.7411 154.682 43.7394 154.75 43.7383C154.784 43.7377 154.811 43.7366 154.828 43.7363C154.83 43.7363 154.831 43.7364 154.833 43.7363C155.945 43.8343 157.065 43.6462 158.071 43.1885L158.1 43.1748L158.126 43.1592C161.099 41.3289 164.541 40.2523 168.107 40.043C171.049 39.9711 173.973 40.4835 176.683 41.5439C179.393 42.6049 181.824 44.1901 183.815 46.1904L183.828 46.2031C187.101 49.2658 188.519 50.9202 189.352 51.9463C190.184 52.9716 190.504 53.47 191.544 54.0977V54.0967C192.955 54.9546 193.789 55.3869 194.28 55.6055C194.526 55.7147 194.694 55.7749 194.812 55.8076C194.868 55.8234 194.917 55.8325 194.959 55.8389C194.977 55.8443 195.001 55.8524 195.031 55.8613C195.105 55.8833 195.215 55.9158 195.354 55.957C195.631 56.0394 196.029 56.1574 196.51 56.2998C197.471 56.5848 198.763 56.9678 200.089 57.3594C202.734 58.1408 205.528 58.9623 206.064 59.1045L206.438 59.2031L206.629 58.8652C208.613 55.3302 210.109 51.5765 211.082 47.6934L211.081 47.6924C211.23 47.1073 213.483 37.5168 216.183 27.333C217.534 22.2364 218.993 17.0045 220.352 12.7021C221.031 10.5506 221.683 8.63665 222.282 7.09082C222.885 5.53494 223.421 4.38866 223.86 3.74414C225.548 1.29246 226.789 0.592963 227.473 0.508789Z" stroke="url(#paint1_linear_8748_16926)"/>
<defs>
<linearGradient id="paint0_linear_8748_16926" x1="-2.97619" y1="63" x2="86.7353" y2="71.5078" gradientUnits="userSpaceOnUse">
<stop offset="0.0433206" stop-color="#2BB04C"/>
<stop offset="0.509741" stop-color="#2BB04C"/>
<stop offset="0.785623" stop-color="#8F53A1"/>
</linearGradient>
<linearGradient id="paint1_linear_8748_16926" x1="138.69" y1="48.5217" x2="208.712" y2="52.4511" gradientUnits="userSpaceOnUse">
<stop offset="0.0433206" stop-color="#2BB04C"/>
<stop offset="0.509741" stop-color="#2BB04C"/>
<stop offset="0.785623" stop-color="#8F53A1"/>
</linearGradient>
</defs>
</svg>
