<svg width="91" height="91" viewBox="0 0 91 91" fill="none" xmlns="http://www.w3.org/2000/svg">
<path d="M71.2935 58.6878C73.0821 59.5074 74.9767 59.5776 76.5234 58.0593C77.0623 57.5069 78.9166 55.5929 78.0537 54.7927C77.7924 54.5135 77.3833 54.4314 77.034 54.5881C74.1645 55.672 73.7614 52.2188 71.6697 51.1468C70.7277 50.6064 68.3076 50.5332 68.112 52.0187V72.2126L62.2163 63.9386C64.2213 61.0094 60.1097 57.8831 57.824 60.5869L47.724 56.8888C47.8211 54.8703 45.5353 53.4206 43.7497 54.3463L36.1625 46.7276C37.6271 43.6163 33.3094 41.1618 31.376 43.9791L23.1109 41.8202C22.6317 41.6948 22.1435 41.9815 22.0181 42.4607C21.8927 42.94 22.1793 43.4282 22.6586 43.5536L30.9281 45.7124C31.0207 47.6055 33.2004 48.8686 34.8934 47.9907L42.4822 55.6108C41.0728 58.5669 45.0247 61.0825 47.1089 58.5714L57.2103 62.2694C57.1342 64.1073 59.0124 65.5286 60.7591 64.9777L66.7638 73.404C66.6071 73.6235 66.4832 73.8638 66.3966 74.1176H19.1068V28.7911C19.0874 27.6176 17.3361 27.6102 17.3152 28.7911V34.766H14.6966C14.2024 34.766 13.8008 35.1676 13.8008 35.6618C13.8008 36.1559 14.2024 36.5575 14.6966 36.5575H17.3152V44.6031H14.6966C14.2024 44.6031 13.8008 45.0047 13.8008 45.4989C13.8008 45.9931 14.2024 46.3947 14.6966 46.3947H17.3152V54.4403H14.6966C14.2024 54.4403 13.8008 54.8419 13.8008 55.3361C13.8008 55.8303 14.2024 56.2319 14.6966 56.2319H17.3152V64.279H14.6966C14.2024 64.279 13.8008 64.6806 13.8008 65.1748C13.8008 65.6689 14.2024 66.0705 14.6966 66.0705H17.3152V74.1161H14.6966C14.2024 74.1161 13.8008 74.5178 13.8008 75.0119C13.8008 75.5061 14.2024 75.9077 14.6966 75.9077H17.3152V78.5951C17.3152 79.0892 17.7168 79.4908 18.211 79.4908C18.7052 79.4908 19.1068 79.0892 19.1068 78.5951V75.9077H66.3966C67.2222 78.3771 70.7993 78.3741 71.625 75.9077H75.7441C76.2382 75.9077 76.6398 75.5061 76.6398 75.0119C76.6398 74.5178 76.2382 74.1161 75.7441 74.1161H71.625C71.3488 73.3114 70.7113 72.6739 69.9066 72.3977V58.2444C70.3291 58.3161 70.8023 58.4982 71.295 58.6878H71.2935ZM69.9051 52.5935C72.1027 52.3113 72.2356 56.1722 75.5156 56.5349C73.7808 58.5788 71.9713 56.6424 69.9051 56.4379V52.5935ZM32.7092 45.5034C32.7286 44.2239 34.6352 44.2239 34.6576 45.5034C34.6367 46.7829 32.7316 46.7859 32.7092 45.5034ZM44.9605 57.804C44.1155 57.8293 43.6587 56.7171 44.2738 56.1393C44.971 55.4033 46.252 56.2214 45.8757 57.165C45.7354 57.5472 45.3666 57.804 44.959 57.804H44.9605ZM58.9974 62.3262C59.0183 61.0467 60.9234 61.0452 60.9457 62.3262C60.9234 63.6027 59.0198 63.6071 58.9974 62.3262ZM69.0093 75.9853C67.7298 75.9629 67.7298 74.0579 69.0093 74.037C70.2902 74.0594 70.2917 75.9629 69.0093 75.9853Z" fill="white"/>
<path d="M35.0887 30.3913C34.8081 31.2483 34.7976 32.9547 35.68 34.1401C34.5543 35.6361 35.4695 38.5071 37.4193 38.731C38.2374 41.2765 41.2607 43.1159 43.7689 41.814C45.6425 43.0293 48.0149 43.1054 49.9109 41.9543C52.7043 45.5121 58.0446 45.1568 60.4394 41.3392C63.4178 43.8504 67.952 42.0544 68.1595 38.092C70.1437 37.25 71.1932 34.485 70.3601 32.4307C72.5399 30.6615 72.9415 27.3397 70.6975 25.4152C72.0278 21.5858 66.8979 16.7754 63.0939 19.0328C62.3862 17.3398 61.0186 16.7769 59.1838 17.4637C57.3295 13.8388 52.5595 13.0788 49.7706 16.0707C46.9071 13.9044 42.9403 15.8871 42.2774 19.3224C37.7507 18.7939 35.1111 24.3015 36.5101 28.2728C35.8666 28.8102 35.3649 29.5523 35.0887 30.3913ZM38.0403 24.7479C38.5032 21.847 41.6608 19.7614 43.9271 22.0262C44.9214 22.9877 46.8026 21.2797 43.9943 19.8539C44.4093 17.286 47.352 15.8916 49.1943 17.9579C49.5571 18.3953 50.3021 18.3505 50.6097 17.8728C52.6401 14.9286 56.6233 15.6184 57.8804 18.8835C58.0536 19.3448 58.2044 19.8241 58.2492 20.3167C58.3955 21.4842 60.1363 21.2976 60.0303 20.1242C59.9944 19.7897 59.9303 19.4568 59.8466 19.1298C60.2259 19.0029 60.6872 18.9328 60.8708 18.988C61.3262 19.1881 61.6293 20.2316 61.8831 20.7303C62.9759 22.3845 64.0374 19.3194 66.3426 20.5019C67.3488 20.9274 68.1879 21.6395 68.6447 22.4562C69.9466 24.6523 67.8937 25.7437 69.224 26.5633C71.141 27.7308 70.5512 30.3525 68.8104 31.3214C68.588 31.4364 68.4223 31.6394 68.3551 31.8813C68.2879 32.1231 68.3267 32.3814 68.4596 32.5949C68.8881 33.2787 68.9762 34.2566 68.6791 35.03C68.3715 35.8302 67.7265 36.4572 67.1099 36.5558C66.6382 36.6304 66.3097 37.0619 66.3605 37.5352C66.5859 39.3536 64.9272 41.0854 63.0804 40.6599C61.2023 40.3404 61.1276 38.8281 60.1303 38.943C59.8138 38.9818 59.5406 39.1864 59.4152 39.479C57.9819 42.9218 53.6672 43.8101 51.3158 40.8451C51.5204 40.6316 51.713 40.4031 51.8891 40.1598C52.5729 39.2103 51.1382 38.1607 50.4409 39.1043C49.7572 40.0419 48.6748 40.7749 47.5476 40.9451C46.4741 41.1138 45.3171 40.7883 44.3735 40.0508C43.3777 39.3282 42.7895 41.0481 40.983 40.2389C39.9946 39.8089 39.178 38.7624 38.9988 37.6949C38.96 37.4605 38.8271 37.25 38.6331 37.1126C38.439 36.9753 38.1971 36.9215 37.9627 36.9604C37.2207 37.1768 36.7161 35.8824 37.1281 35.1972C38.9302 35.9825 39.5258 33.8998 38.0792 33.5848C36.3339 33.3728 36.4996 30.8571 37.2715 30.0494C37.7865 31.2498 39.5229 30.4346 38.9003 29.2895C38.748 29.0357 38.6107 28.7655 38.4897 28.4848C38.4733 28.3504 38.4211 28.2101 38.3404 28.0981C37.9493 27.0023 37.8403 25.8213 38.0403 24.7494V24.7479Z" fill="white"/>
<path d="M55.8028 35.7175C57.8631 35.9459 59.7322 34.7097 59.7621 32.53V26.3715C59.7322 24.1918 57.8645 22.9526 55.8028 23.1825C54.044 23.1825 52.6138 24.6128 52.6138 26.3715V32.53C52.6138 34.2872 54.044 35.7175 55.8028 35.7175ZM54.4053 26.3715C54.4053 25.6011 55.0324 24.9741 55.8028 24.9741H56.5746C57.345 24.9741 57.9705 25.6011 57.9705 26.3715V32.53C57.9705 33.3004 57.345 33.9259 56.5746 33.9259H55.8028C55.0324 33.9259 54.4053 33.3004 54.4053 32.53V26.3715Z" fill="white"/>
<path d="M48.2209 35.7169C49.6348 35.7169 50.9187 34.8808 51.492 33.5879C51.9489 32.501 50.3484 31.7949 49.8542 32.8623C49.0913 34.6046 46.4309 34.0478 46.4413 32.1427V26.7561C46.4368 24.8526 49.0883 24.2927 49.8527 26.0335C50.0543 26.4859 50.5843 26.6889 51.0352 26.4874C52.2922 25.7916 50.9859 24.2942 50.1946 23.7761C47.9223 22.1891 44.5766 23.9762 44.6497 26.7561V32.1427C44.6079 34.0597 46.3025 35.7587 48.2224 35.7169H48.2209Z" fill="white"/>
<path d="M62.0738 34.3737C61.299 34.9843 60.333 35.7443 60.333 36.9312C60.333 37.4253 60.7346 37.8269 61.2288 37.8269H64.1416C65.318 37.8075 65.3195 36.0548 64.1416 36.0354H62.8636C63.7639 35.2979 64.9478 34.5499 64.9642 33.145C64.9642 31.8879 63.9415 30.8652 62.6859 30.8652C61.4303 30.8652 60.4062 31.8879 60.4062 33.145C60.4271 34.3229 62.1768 34.3215 62.1977 33.145C62.1977 32.8763 62.4172 32.6568 62.6859 32.6568C62.9547 32.6568 63.1726 32.8763 63.1726 33.145C63.1726 33.5078 62.5889 33.9676 62.0738 34.3737Z" fill="white"/>
</svg>
