<svg width="90" height="91" viewBox="0 0 90 91" fill="none" xmlns="http://www.w3.org/2000/svg">
<path fill-rule="evenodd" clip-rule="evenodd" d="M45.2331 65.7006H35.4913V69.6224C35.4942 70.3601 35.7853 71.0666 36.3011 71.5883C36.8169 72.1099 37.5158 72.4042 38.2453 72.4072H52.2209C52.9504 72.4042 53.6493 72.1099 54.1652 71.5883C54.681 71.0667 54.9721 70.3601 54.975 69.6224V65.7006H45.2331ZM71.4533 51.6782C71.5809 51.7529 71.6926 51.8523 71.7822 51.9706C71.8717 52.089 71.9374 52.224 71.9753 52.368C72.0133 52.512 72.0228 52.6622 72.0034 52.8099C71.9839 52.9576 71.9359 53.1 71.862 53.229C71.7882 53.3579 71.6899 53.4709 71.5729 53.5615C71.4558 53.6521 71.3223 53.7184 71.1798 53.7568C71.0374 53.7952 70.8889 53.8048 70.7428 53.7852C70.5967 53.7655 70.4559 53.7169 70.3283 53.6423L67.1935 51.8122C67.0648 51.7381 66.9519 51.639 66.8612 51.5206C66.7706 51.4022 66.704 51.2668 66.6654 51.1222C66.6267 50.9777 66.6167 50.8268 66.636 50.6784C66.6552 50.5299 66.7034 50.3868 66.7776 50.2572C66.8518 50.1276 66.9507 50.0142 67.0685 49.9234C67.1862 49.8327 67.3206 49.7664 67.4638 49.7284C67.6071 49.6903 67.7563 49.6814 67.903 49.7019C68.0497 49.7225 68.1909 49.7723 68.3185 49.8483L71.4533 51.6782ZM72.8223 29.1406C73.1102 29.0629 73.4168 29.1039 73.6748 29.2547C73.9327 29.4055 74.1208 29.6538 74.1978 29.9449C74.2747 30.2359 74.2341 30.546 74.0849 30.8068C73.9358 31.0676 73.6903 31.2578 73.4024 31.3356L69.9059 32.2828C69.618 32.3606 69.3114 32.3196 69.0534 32.1687C68.7955 32.0179 68.6074 31.7696 68.5305 31.4786C68.4536 31.1875 68.4942 30.8775 68.6434 30.6167C68.7925 30.3559 69.0381 30.1657 69.3259 30.0879L72.8223 29.1406ZM21.0421 55.2261C20.9145 55.3021 20.7733 55.3518 20.6266 55.3724C20.4799 55.393 20.3306 55.384 20.1874 55.346C20.0442 55.308 19.9098 55.2417 19.792 55.1509C19.6742 55.0601 19.5754 54.9467 19.5012 54.8171C19.4269 54.6876 19.3788 54.5444 19.3595 54.396C19.3403 54.2475 19.3503 54.0966 19.3889 53.9521C19.4276 53.8076 19.4942 53.6722 19.5848 53.5538C19.6755 53.4354 19.7884 53.3363 19.9171 53.2622L23.0519 51.4321C23.3095 51.2812 23.6158 51.24 23.9034 51.3175C24.191 51.3951 24.4364 51.5849 24.5856 51.8454C24.7348 52.1058 24.7755 52.4155 24.6989 52.7063C24.6222 52.9972 24.4345 53.2453 24.1769 53.3961L21.0421 55.2261ZM16.5958 33.1017C16.4532 33.0632 16.3196 32.9967 16.2025 32.9059C16.0854 32.8152 15.9871 32.702 15.9132 32.5729C15.8394 32.4438 15.7914 32.3012 15.772 32.1533C15.7527 32.0054 15.7623 31.8551 15.8004 31.711C15.8773 31.4199 16.0655 31.1717 16.3234 31.0208C16.4511 30.9462 16.5922 30.8976 16.7384 30.8781C16.8847 30.8585 17.0333 30.8682 17.1759 30.9068L20.6724 31.854C20.8149 31.8925 20.9485 31.959 21.0657 32.0498C21.1828 32.1405 21.2811 32.2537 21.3549 32.3828C21.4288 32.512 21.4768 32.6546 21.4961 32.8024C21.5155 32.9503 21.5058 33.1006 21.4677 33.2447C21.4297 33.3889 21.3639 33.524 21.2741 33.6424C21.1844 33.7608 21.0725 33.8602 20.9447 33.9349C20.817 34.0096 20.676 34.0581 20.5297 34.0776C20.3835 34.0972 20.2348 34.0875 20.0923 34.049L16.5958 33.1017ZM28.9264 14.2779C28.7772 14.0175 28.7364 13.7078 28.8131 13.417C28.8897 13.1261 29.0775 12.878 29.3351 12.7272C29.5927 12.5763 29.899 12.5351 30.1866 12.6126C30.4742 12.6901 30.7196 12.88 30.8688 13.1404L32.6786 16.3101C32.7538 16.4391 32.803 16.5819 32.8234 16.7302C32.8437 16.8785 32.8348 17.0294 32.7972 17.1742C32.7596 17.3191 32.6941 17.4549 32.6043 17.574C32.5145 17.6931 32.4023 17.7931 32.2742 17.8681C32.146 17.9432 32.0045 17.9918 31.8576 18.0113C31.7108 18.0308 31.5616 18.0207 31.4187 17.9816C31.2757 17.9425 31.1418 17.8752 31.0247 17.7835C30.9076 17.6919 30.8096 17.5777 30.7363 17.4476L28.9264 14.2779ZM58.0314 12.2304C58.1794 11.97 58.4236 11.7797 58.7104 11.7013C58.9972 11.623 59.3031 11.663 59.5607 11.8127C59.8183 11.9623 60.0065 12.2093 60.084 12.4993C60.1615 12.7893 60.1218 13.0985 59.9738 13.359L58.1638 16.5289C58.0905 16.6579 57.9929 16.771 57.8763 16.8618C57.7598 16.9526 57.6267 17.0194 57.4847 17.0582C57.3427 17.097 57.1945 17.1071 57.0486 17.088C56.9027 17.0689 56.7619 17.021 56.6343 16.9469C56.5068 16.8728 56.3949 16.774 56.3051 16.6562C56.2152 16.5383 56.1493 16.4038 56.1109 16.2602C56.0725 16.1166 56.0625 15.9667 56.0813 15.8192C56.1002 15.6717 56.1477 15.5293 56.221 15.4004L58.0308 12.2307L58.0314 12.2304ZM56.0345 52.8333C56.0345 52.5317 56.153 52.2423 56.364 52.029C56.575 51.8157 56.8611 51.6958 57.1595 51.6958C57.4579 51.6958 57.744 51.8157 57.955 52.029C58.166 52.2423 58.2845 52.5317 58.2845 52.8333V55.4487C58.5892 55.0233 58.9032 54.5987 59.2229 54.1678C61.772 50.726 64.6462 46.8451 64.6462 38.7375C64.6324 33.5408 62.581 28.5617 58.9419 24.892C55.3027 21.2224 50.3729 19.1616 45.2333 19.1616C40.0937 19.1616 35.1638 21.2224 31.5247 24.892C27.8856 28.5617 25.8342 33.5408 25.8204 38.7375C25.8204 53.033 34.7589 54.2137 35.4494 63.4253H43.4176V55.3468C38.9675 54.2073 35.096 50.6144 32.693 46.4058C31.2607 43.9371 30.3437 41.198 29.9983 38.3572C29.689 35.5924 30.0384 32.9794 31.0183 30.8405L31.0203 30.8414C31.1169 30.6297 31.2758 30.4533 31.4752 30.3363C31.6746 30.2192 31.9049 30.1672 32.1346 30.1873C34.4609 30.399 36.8769 31.4003 39.092 33.0551C41.4337 34.804 43.4914 37.2338 45.0303 40.1543L45.1991 39.8526L45.1972 39.8515C46.5955 37.3646 48.4827 35.1937 50.7425 33.4725C52.9575 31.8178 55.3736 30.8165 57.6998 30.6048C57.9295 30.5847 58.1597 30.6367 58.3592 30.7537C58.5586 30.8708 58.7174 31.0471 58.8141 31.2588L58.8161 31.258C59.7959 33.3969 60.1455 36.0099 59.836 38.7748C59.2173 44.2984 56.0173 49.9037 51.5962 53.2069C49.7059 54.6191 47.6694 55.5551 45.6672 55.9309V63.4259H56.1C56.3984 63.4259 56.6845 63.5457 56.8955 63.7591C57.1065 63.9724 57.225 64.2617 57.225 64.5634V69.6227C57.2219 70.9636 56.6937 72.2488 55.756 73.197C54.8182 74.1452 53.5472 74.6793 52.221 74.6824H50.803V76.5969C50.8016 77.3236 50.5155 78.0202 50.0072 78.5341C49.499 79.0479 48.81 79.3372 48.0913 79.3385H42.3749C41.6561 79.3372 40.9672 79.0479 40.4589 78.5341C39.9507 78.0202 39.6645 77.3236 39.6632 76.5969V74.6822H38.2453C36.9191 74.679 35.6481 74.1449 34.7103 73.1967C33.7726 72.2485 33.2444 70.9634 33.2413 69.6224V64.5631C33.2413 55.4954 23.5702 54.3256 23.5702 38.7377C23.5848 32.9382 25.8736 27.3812 29.9346 23.2856C33.9956 19.1899 39.4973 16.8898 45.2332 16.8898C50.969 16.8898 56.4707 19.1899 60.5317 23.2856C64.5927 27.3812 66.8815 32.9382 66.8961 38.7377C66.8961 47.5881 63.7797 51.7959 61.0157 55.5278C60.5516 56.1534 60.099 56.7648 59.6772 57.3822L63.2089 56.095C63.4884 55.9945 63.7959 56.0103 64.0639 56.1387C64.332 56.2672 64.5387 56.4979 64.6388 56.7803C64.7388 57.0626 64.7241 57.3736 64.5977 57.6449C64.4714 57.9163 64.2437 58.1259 63.9648 58.2278L57.6373 60.5339C57.4659 60.616 57.2767 60.6528 57.0874 60.6409C56.8981 60.629 56.7149 60.5689 56.5548 60.466C56.3947 60.3632 56.263 60.221 56.172 60.0528C56.081 59.8845 56.0336 59.6957 56.0342 59.5039V52.8336L56.0345 52.8333ZM48.9914 45.7848C49.1408 45.5271 49.3848 45.3394 49.6704 45.2627C49.956 45.186 50.26 45.2265 50.5161 45.3753C50.7723 45.5242 50.96 45.7694 51.0382 46.0575C51.1165 46.3456 51.079 46.6532 50.9339 46.9135L47.4405 53.0314C52.8545 50.7173 56.9445 44.4149 57.6039 38.5266C57.831 36.4984 57.6534 34.5904 57.0857 32.975C52.9924 33.738 49.3203 37.171 47.1398 40.9896L47.138 40.9884C45.0989 44.5603 44.0402 49.0034 44.9843 52.8026L48.9914 45.7848ZM42.5398 51.974L39.6503 46.9135C39.5052 46.6532 39.4677 46.3456 39.5459 46.0575C39.6242 45.7694 39.8118 45.5242 40.068 45.3753C40.3242 45.2265 40.6282 45.186 40.9137 45.2627C41.1993 45.3394 41.4434 45.5271 41.5927 45.7848L42.5564 47.4729C42.7806 45.868 43.195 44.2962 43.7907 42.7915C43.6645 42.4921 43.5265 42.1857 43.3767 41.8725C42.009 39.0184 40.0439 36.5869 37.7559 34.8769C36.1335 33.6651 34.4128 32.8672 32.7488 32.5571C31.3575 36.5169 32.4515 41.4529 34.6352 45.2772C36.5122 48.5645 39.3749 51.4162 42.6665 52.726C42.6177 52.4786 42.5755 52.2278 42.54 51.9735L42.5398 51.974ZM48.5531 76.5969V74.6822H41.9132V76.5969C41.9143 76.7203 41.9634 76.8384 42.0497 76.9257C42.136 77.013 42.2528 77.0625 42.3749 77.0637H48.0913C48.2134 77.0625 48.3302 77.013 48.4165 76.9257C48.5029 76.8384 48.5519 76.7203 48.5531 76.5969Z" fill="white"/>
</svg>
