<svg width="88" height="88" viewBox="0 0 88 88" fill="none" xmlns="http://www.w3.org/2000/svg">
<path d="M70.6434 23.0539L44.184 8.95493C43.7914 8.74543 43.321 8.74837 42.9314 8.96228L17.2041 23.0612C16.7822 23.2928 16.5205 23.7353 16.5205 24.2168V42.6336C16.5359 57.7727 25.5055 71.4688 39.3765 77.534L42.9476 79.0902C43.2813 79.2357 43.6613 79.2364 43.9958 79.0916L48.0196 77.3539C62.148 71.4203 71.3395 57.5919 71.341 42.2683V24.2168C71.341 23.7301 71.0727 23.2825 70.6434 23.0539ZM68.7064 42.2683C68.7035 56.5355 60.1434 69.4091 46.9883 74.9303L46.9795 74.9347L43.4754 76.4475L40.4306 75.1192C27.5189 69.4738 19.169 56.7259 19.1543 42.6336V24.9967L43.5731 11.6137L68.7064 25.0063V42.2683Z" fill="white"/>
<path d="M33.8557 41.7799C33.3831 41.2264 32.5517 41.161 31.9982 41.6336C31.4447 42.1056 31.3792 42.9377 31.8519 43.4905L38.8102 51.6389C39.2748 52.1829 40.0885 52.2571 40.6428 51.8058L56.8485 38.6213C57.413 38.1626 57.4983 37.3327 57.0389 36.7681C56.5802 36.2043 55.7503 36.1183 55.1857 36.5777L39.9783 48.9492L33.8557 41.7799Z" fill="white"/>
</svg>
