<svg width="91" height="91" viewBox="0 0 91 91" fill="none" xmlns="http://www.w3.org/2000/svg">
<path d="M57.3506 53.1453H49.2386L50.9286 47.5293C51.4455 45.8501 51.283 44.0351 50.4759 42.4744C49.6689 40.9137 48.2817 39.732 46.6126 39.1833C46.1332 39.0253 45.6264 38.968 45.1239 39.0149C44.6214 39.0619 44.1339 39.2121 43.6921 39.4562C43.2504 39.7003 42.8637 40.0329 42.5565 40.4334C42.2492 40.8338 42.028 41.2934 41.9066 41.7833L41.6466 42.8753C40.6661 46.8102 38.6351 50.4048 35.7706 53.2753L34.2886 54.7313C33.912 54.2569 33.434 53.8729 32.8896 53.6075C32.3452 53.342 31.7482 53.2019 31.1426 53.1973H29.2446C28.1778 53.1972 27.154 53.6174 26.3948 54.3668C25.6356 55.1163 25.2023 56.1346 25.1886 57.2013V73.9453C25.1886 75.021 25.6159 76.0527 26.3766 76.8133C27.1372 77.574 28.1689 78.0013 29.2446 78.0013H31.1426C31.8408 77.9997 32.5266 77.8167 33.1328 77.4703C33.739 77.1239 34.2448 76.626 34.6006 76.0253L34.9646 76.2073C37.3145 77.3807 39.904 77.9948 42.5306 78.0013H51.8646C53.4077 78.0088 54.9284 77.6325 56.29 76.9063C57.6515 76.1802 58.8112 75.1269 59.6646 73.8413C61.4811 71.1253 62.4494 67.9307 62.4466 64.6633V58.1893C62.4466 57.5225 62.3145 56.8623 62.0577 56.2469C61.801 55.6316 61.4248 55.0732 60.9509 54.6041C60.477 54.1351 59.9148 53.7646 59.2968 53.5142C58.6788 53.2638 58.0173 53.1384 57.3506 53.1453ZM32.4946 73.9453C32.4946 74.3314 32.3412 74.7018 32.0681 74.9748C31.7951 75.2479 31.4248 75.4013 31.0386 75.4013H29.2446C28.8584 75.4013 28.4881 75.2479 28.2151 74.9748C27.942 74.7018 27.7886 74.3314 27.7886 73.9453V57.2013C27.7886 56.8151 27.942 56.4448 28.2151 56.1717C28.4881 55.8987 28.8584 55.7453 29.2446 55.7453H31.1426C31.5105 55.7716 31.8546 55.9366 32.1056 56.2068C32.3565 56.4771 32.4955 56.8325 32.4946 57.2013V73.9453ZM59.7946 64.6633C59.8054 67.4378 58.9909 70.1529 57.4546 72.4633C56.8399 73.3823 56.0084 74.1358 55.0335 74.6572C54.0585 75.1787 52.9702 75.4521 51.8646 75.4533H42.5306C40.3108 75.4511 38.1216 74.935 36.1346 73.9453L35.0946 73.4253V57.4613L37.4866 55.0693C40.687 51.8695 42.9602 47.8621 44.0646 43.4733L44.3246 42.4073C44.4018 42.1221 44.5888 41.8791 44.8446 41.7313C44.9758 41.674 45.1174 41.6445 45.2606 41.6445C45.4038 41.6445 45.5454 41.674 45.6766 41.7313C46.189 41.9017 46.6627 42.1714 47.0708 42.525C47.4788 42.8787 47.8132 43.3093 48.0547 43.7923C48.2961 44.2752 48.44 44.8011 48.4781 45.3397C48.5162 45.8783 48.4477 46.4191 48.2766 46.9313L46.0926 54.2373C46.0361 54.431 46.0255 54.6353 46.0616 54.8338C46.0977 55.0324 46.1795 55.2198 46.3006 55.3813C46.4187 55.5459 46.5751 55.6792 46.7563 55.7698C46.9375 55.8604 47.1381 55.9055 47.3406 55.9013H57.1946C57.5155 55.9013 57.8334 55.9645 58.1299 56.0873C58.4264 56.2101 58.6958 56.3902 58.9228 56.6171C59.1497 56.8441 59.3297 57.1135 59.4526 57.41C59.5754 57.7065 59.6386 58.0243 59.6386 58.3453L59.7946 64.6633Z" fill="white"/>
<path d="M37.6931 28.0813L36.8611 32.8913C36.7611 33.4236 36.8156 33.9735 37.0184 34.4757C37.2211 34.978 37.5636 35.4116 38.0051 35.7253C38.4939 36.0897 39.0855 36.2899 39.6951 36.2973C40.1658 36.2898 40.6283 36.1742 41.0471 35.9593L45.4931 33.6713L49.8351 35.9593C50.3126 36.2114 50.8516 36.3232 51.3899 36.2818C51.9283 36.2404 52.4439 36.0475 52.8771 35.7253C53.3142 35.4136 53.6537 34.9843 53.8562 34.4872C54.0588 33.9901 54.1159 33.4456 54.0211 32.9173L53.2931 28.0813L56.6991 24.7013C57.0925 24.3293 57.3721 23.8532 57.5056 23.3286C57.6391 22.8039 57.6209 22.2521 57.4531 21.7373C57.2851 21.2231 56.9772 20.7658 56.5639 20.4168C56.1506 20.0678 55.6482 19.8408 55.1131 19.7613L50.2511 19.0593L48.0931 14.6133C47.8504 14.132 47.4788 13.7275 47.0197 13.4449C46.5607 13.1623 46.0322 13.0127 45.4931 13.0127C44.9541 13.0127 44.4256 13.1623 43.9665 13.4449C43.5075 13.7275 43.1359 14.132 42.8931 14.6133L40.7351 19.0073L35.8731 19.7093C35.338 19.7888 34.8357 20.0158 34.4224 20.3648C34.009 20.7138 33.7011 21.1711 33.5331 21.6853C33.3546 22.2072 33.3308 22.7696 33.4645 23.3047C33.5983 23.8398 33.884 24.3248 34.2871 24.7013L37.6931 28.0813ZM36.1331 22.2833L41.6711 21.4773C41.9213 21.4935 42.1707 21.4355 42.388 21.3107C42.6054 21.1858 42.7811 20.9996 42.8931 20.7753L45.4931 15.7573C45.5159 15.7075 45.5526 15.6653 45.5987 15.6358C45.6447 15.6062 45.6984 15.5905 45.7531 15.5905C45.8079 15.5905 45.8615 15.6062 45.9076 15.6358C45.9537 15.6653 45.9903 15.7075 46.0131 15.7573L48.6131 20.7753C48.7066 20.9652 48.8458 21.1288 49.0183 21.2513C49.1908 21.3739 49.3911 21.4515 49.6011 21.4773L55.1391 22.2833C55.193 22.2943 55.243 22.3193 55.2841 22.3558C55.3252 22.3924 55.3559 22.4391 55.3731 22.4913C55.3982 22.5348 55.4114 22.5841 55.4114 22.6343C55.4114 22.6845 55.3982 22.7338 55.3731 22.7773L51.3691 26.6773C51.2177 26.8286 51.1036 27.0132 51.0359 27.2162C50.9682 27.4193 50.9488 27.6354 50.9791 27.8473L51.9411 33.3333C51.9588 33.3886 51.9553 33.4485 51.9313 33.5014C51.9072 33.5542 51.8644 33.5963 51.8111 33.6193C51.7661 33.6531 51.7114 33.6713 51.6551 33.6713C51.5989 33.6713 51.5441 33.6531 51.4991 33.6193L46.5591 31.0193C46.3765 30.9168 46.1706 30.863 45.9611 30.863C45.7517 30.863 45.5458 30.9168 45.3631 31.0193L40.3971 33.6193C40.3562 33.6509 40.3059 33.6681 40.2541 33.6681C40.2024 33.6681 40.1521 33.6509 40.1111 33.6193C40.0578 33.5963 40.015 33.5542 39.991 33.5014C39.967 33.4485 39.9634 33.3886 39.9811 33.3333L40.9431 27.8473C40.9735 27.6354 40.954 27.4193 40.8863 27.2162C40.8186 27.0132 40.7045 26.8286 40.5531 26.6773L36.5491 22.7773C36.524 22.7338 36.5108 22.6845 36.5108 22.6343C36.5108 22.5841 36.524 22.5348 36.5491 22.4913C36.4816 22.4951 36.4147 22.4769 36.3584 22.4394C36.3021 22.4019 36.2596 22.3471 36.2371 22.2833H36.1331Z" fill="white"/>
<path d="M28.1773 43.5512C28.5646 43.5582 28.9486 43.4787 29.3011 43.3183C29.6537 43.158 29.966 42.9208 30.2152 42.6243C30.4644 42.3278 30.6442 41.9793 30.7415 41.6043C30.8387 41.2294 30.851 40.8375 30.7773 40.4572L30.0753 36.5052L32.9873 33.6712C33.3542 33.3345 33.6167 32.8995 33.7435 32.418C33.8704 31.9365 33.8563 31.4286 33.703 30.9549C33.5496 30.4811 33.2634 30.0614 32.8784 29.7455C32.4935 29.4297 32.0259 29.231 31.5313 29.1732L27.5533 28.6012L25.7593 24.9872C25.5199 24.5713 25.1752 24.2259 24.7598 23.9858C24.3444 23.7456 23.8731 23.6191 23.3933 23.6191C22.9135 23.6191 22.4422 23.7456 22.0268 23.9858C21.6114 24.2259 21.2667 24.5713 21.0273 24.9872L19.2333 28.6012L15.2553 29.1732C14.7607 29.231 14.2931 29.4297 13.9082 29.7455C13.5232 30.0614 13.237 30.4811 13.0836 30.9549C12.9303 31.4286 12.9162 31.9365 13.0431 32.418C13.1699 32.8995 13.4324 33.3345 13.7993 33.6712L16.6853 36.5052L15.9833 40.4572C15.8932 40.9471 15.9458 41.4527 16.1348 41.9136C16.3238 42.3745 16.6412 42.7715 17.0493 43.0572C17.4479 43.3485 17.9212 43.5204 18.4138 43.5526C18.9065 43.5848 19.3982 43.4761 19.8313 43.2392L23.3933 41.3672L26.9553 43.2392C27.3309 43.4419 27.7505 43.549 28.1773 43.5512ZM23.3933 38.6112C23.1837 38.6099 22.9775 38.6637 22.7953 38.7672L18.5573 40.8992L19.4933 36.2712C19.5078 36.0486 19.468 35.8259 19.3774 35.6221C19.2869 35.4183 19.1482 35.2396 18.9733 35.1012L15.6193 31.7472L20.2993 31.0712C20.5062 31.0459 20.7032 30.9682 20.8716 30.8453C21.04 30.7224 21.1741 30.5585 21.2613 30.3692L23.4193 26.1312L25.5253 30.3692C25.6125 30.5585 25.7466 30.7224 25.915 30.8453C26.0834 30.9682 26.2804 31.0459 26.4873 31.0712L31.1673 31.8252L27.8133 35.1012C27.6619 35.2525 27.5478 35.437 27.4801 35.6401C27.4124 35.8432 27.393 36.0593 27.4233 36.2712L28.1773 40.9512L23.9913 38.7672C23.8091 38.6637 23.6029 38.6099 23.3933 38.6112Z" fill="white"/>
<path d="M77.8634 30.9672C77.7148 30.4967 77.4355 30.0781 77.058 29.7605C76.6805 29.4428 76.2203 29.2391 75.7314 29.1732L71.7534 28.6012L69.9594 24.9872C69.72 24.5713 69.3753 24.2259 68.9599 23.9858C68.5445 23.7456 68.0732 23.6191 67.5934 23.6191C67.1136 23.6191 66.6422 23.7456 66.2269 23.9858C65.8115 24.2259 65.4667 24.5713 65.2274 24.9872L63.4334 28.6012L59.4554 29.1732C58.9608 29.231 58.4932 29.4297 58.1082 29.7455C57.7233 30.0614 57.4371 30.4811 57.2837 30.9549C57.1304 31.4286 57.1163 31.9365 57.2431 32.418C57.37 32.8995 57.6325 33.3345 57.9994 33.6712L60.8854 36.5052L60.1834 40.4572C60.0933 40.9471 60.1459 41.4527 60.3349 41.9136C60.5238 42.3745 60.8413 42.7715 61.2494 43.0572C61.648 43.3485 62.1213 43.5204 62.6139 43.5526C63.1066 43.5848 63.5982 43.4761 64.0314 43.2392L67.5934 41.3672L71.1554 43.2392C71.5309 43.4419 71.9506 43.549 72.3774 43.5512C72.7647 43.5582 73.1486 43.4787 73.5012 43.3183C73.8538 43.158 74.1661 42.9208 74.4153 42.6243C74.6645 42.3278 74.8443 41.9793 74.9416 41.6043C75.0388 41.2294 75.051 40.8375 74.9774 40.4572L74.2754 36.5052L77.1614 33.6712C77.5236 33.334 77.782 32.9004 77.9064 32.4215C78.0307 31.9425 78.0158 31.438 77.8634 30.9672ZM72.0134 35.1012C71.862 35.2525 71.7479 35.437 71.6802 35.6401C71.6125 35.8432 71.593 36.0593 71.6234 36.2712L72.3774 40.9512L68.1914 38.7672C68.0087 38.6647 67.8028 38.6109 67.5934 38.6109C67.3839 38.6109 67.178 38.6647 66.9954 38.7672L62.7574 40.8992L63.6934 36.2712C63.7078 36.0486 63.6681 35.8259 63.5775 35.6221C63.4869 35.4183 63.3483 35.2396 63.1734 35.1012L59.8194 31.7472L64.4994 31.0712C64.7063 31.0459 64.9033 30.9682 65.0717 30.8453C65.2401 30.7224 65.3742 30.5585 65.4614 30.3692L67.6194 26.1312L69.7254 30.3692C69.8125 30.5585 69.9467 30.7224 70.1151 30.8453C70.2834 30.9682 70.4805 31.0459 70.6874 31.0712L75.3674 31.8252L72.0134 35.1012Z" fill="white"/>
</svg>
