<svg width="1003" height="887" viewBox="0 0 1003 887" fill="none" xmlns="http://www.w3.org/2000/svg">
<g opacity="0.6">
<mask id="path-1-inside-1_6393_13767" fill="white">
<path fill-rule="evenodd" clip-rule="evenodd" d="M290.411 616.048C300.208 624.607 308.273 634.968 314.169 646.57C314.028 623.804 318.976 601.296 328.652 580.693C340.915 555.425 362.032 535.554 387.982 524.863C415.043 513.799 444.645 509.856 470.054 495.994L473.611 493.96C479.71 489.763 478.439 497.393 478.185 498.411V501.463C475.991 518.866 471.726 535.944 465.48 552.333C455.211 580.094 435.33 603.244 409.453 617.574C395.136 624.746 379.641 629.27 363.717 630.927C355.494 631.195 347.3 632.045 339.197 633.471C331.574 635.251 322.681 639.829 324.205 657.888C325.293 667.626 327.076 677.274 329.541 686.757C336.148 713.209 345.93 738.899 354.951 764.715C360.468 724.631 378.888 687.44 407.42 658.778C438.047 628.536 470.688 600.408 505.119 574.589C521.424 562.168 535.076 546.6 545.265 528.806C553.923 511.925 558.039 493.078 557.208 474.12C556.945 464.652 555.319 455.272 552.38 446.269C552.418 445.591 552.418 444.912 552.38 444.234C551.087 440.536 549.383 436.995 547.298 433.679C537.218 421.695 523.131 413.785 507.66 411.423C492.792 408.711 478.673 402.858 466.243 394.254C455.796 386.522 447.131 376.634 440.834 365.258C434.602 353.926 431.079 341.302 430.543 328.378C430.673 320.6 431.524 312.852 433.084 305.232C434.354 297.474 435.752 289.844 437.022 281.959C438.293 274.074 441.469 277.253 442.739 278.271L444.645 279.797C456.891 286.961 469.627 293.251 482.759 298.619C506.653 308.432 526.255 326.475 538.024 349.489C542.591 361.083 544.502 373.556 543.614 385.988C542.075 397.897 543.115 409.999 546.663 421.47C550.313 426.494 553.543 431.811 556.318 437.367C558.962 413.747 565.804 390.792 576.519 369.582C586.38 348.552 590.751 325.361 589.223 302.18C589.276 301.587 589.276 300.992 589.223 300.399C589.073 295.718 587.325 291.229 584.268 287.682C575.106 279.707 564.173 274.039 552.38 271.149C537.168 267.292 522.671 261.023 509.438 252.581C498.487 244.516 489.39 234.195 482.759 222.314C469.212 194.726 463.792 163.849 467.132 133.291C467.07 132.784 467.07 132.272 467.132 131.765C467.132 125.534 471.579 128.84 471.833 128.967L473.357 129.73C481.137 133.274 489.112 136.373 497.242 139.014C504.602 141.673 511.811 144.729 518.84 148.171C544.291 159.508 565.63 178.427 579.949 202.347C586.229 213.661 589.999 226.197 591.002 239.101C591.764 249.402 591.002 259.958 591.002 270.259C591.043 275.44 592.033 280.569 593.924 285.393C594.94 288.572 596.211 291.879 597.354 295.058C599.736 301.099 601.317 307.427 602.055 313.88C602.055 315.533 602.055 317.314 602.055 319.094C602.007 318.842 602.007 318.583 602.055 318.331C602.055 318.331 604.723 309.937 605.485 307.267C607.726 297.559 608.582 287.583 608.026 277.635C607.279 264.928 607.279 252.189 608.026 239.482C608.026 234.904 609.042 230.326 609.932 225.875C607.329 205.126 606.31 184.209 606.882 163.305C607.584 128.572 621.17 95.3433 644.996 70.0853C657.457 58.3214 670.793 47.5228 684.889 37.7829C699.604 28.502 712.838 17.055 724.146 3.82714L725.416 2.04669C726.051 1.02929 728.974 -3.16748 731.133 4.59019C731.188 5.22491 731.188 5.8631 731.133 6.49781C740.14 31.9178 743.056 59.1004 739.645 85.855C736.725 106.806 728.454 126.649 715.634 143.465C701.105 160.065 683.278 173.449 663.291 182.762C653.025 188.126 643.173 194.247 633.816 201.076C629.247 204.641 625.298 208.938 622.128 213.793C618.817 219.234 617.059 225.48 617.046 231.852C616.411 252.581 624.415 273.947 618.952 294.168C623.84 288.805 629.292 283.987 635.214 279.797C643.599 273.82 653.762 270.386 661.512 263.646C668.64 256.365 674.868 248.252 680.061 239.482C690.361 223.318 704.28 209.777 720.716 199.931C760.227 178.184 807.361 190.266 850.302 192.3H852.97C856.655 192.3 855.257 194.971 855.003 196.116C855.091 196.876 855.091 197.644 855.003 198.405C850.507 214.321 842.619 229.073 831.881 241.644C811.655 265.585 782.988 280.799 751.842 284.121C733.542 285.22 715.178 284.282 697.085 281.323C684.505 279.051 671.654 278.708 658.971 280.306H656.303C648.714 281.828 641.736 285.542 636.23 290.988C634.07 293.277 631.911 295.312 629.878 297.601C618.309 311.437 608.769 326.853 601.547 343.384C600.276 346.055 596.084 356.102 595.575 357.755C592.78 366.022 589.35 374.288 586.174 382.427C578.062 401.912 571.561 422.031 566.736 442.581C574.04 433.172 583.21 425.378 593.67 419.689C598.931 411.535 603.642 403.038 607.772 394.254C613.51 383.023 621.462 373.073 631.148 365.004C640.879 357.269 652.205 351.796 664.307 348.98C679.455 345.93 695.017 345.543 710.298 347.836L734.691 350.888C742.334 352.099 750.139 351.84 757.686 350.125C759.592 350.125 761.497 348.98 762.26 350.125C763.022 351.269 761.37 354.449 760.862 355.339C754.81 368.514 747.173 380.899 738.121 392.22C722.347 412.469 700.544 427.168 675.868 434.187C662.876 437.506 649.34 438.112 636.103 435.968C628.607 434.95 621.239 433.297 613.87 431.644L604.723 429.863H602.817C600.667 429.236 598.4 429.116 596.196 429.513C593.991 429.91 591.909 430.814 590.112 432.153C585.426 435.55 581.49 439.88 578.551 444.87C572.887 453.867 569.567 464.143 568.896 474.756C568.896 478.571 568.896 491.289 568.896 492.815C568.896 494.341 568.896 494.595 568.896 495.486C566.342 521.809 554.759 546.435 536.118 565.178C515.038 585.223 492.535 603.712 468.784 620.499C476.112 617.319 483.727 614.849 491.525 613.123C508.528 609.628 525.961 608.728 543.232 610.452C567.796 596.579 594.647 587.231 622.509 582.855C636.617 581.074 650.446 577.527 663.672 572.299C672.642 568.09 680.677 562.122 687.302 554.749C689.181 552.542 690.84 550.156 692.257 547.627C695.412 537.684 696.11 527.123 694.29 516.851C692.691 503.885 694.532 490.727 699.626 478.699C704.628 467.785 712.431 458.394 722.24 451.483C732.301 444.461 743.967 440.087 756.161 438.766C770.517 437.894 784.924 439.006 798.976 442.072C800.246 442.072 801.39 442.072 800.627 444.87V446.142C795.486 472.262 783.116 496.411 764.927 515.834C755.187 524.342 743.691 530.595 731.26 534.147C719.363 536.358 708.193 541.469 698.737 549.026C697.212 550.807 691.114 558.819 690.225 559.963C685.755 565.709 680.592 570.878 674.852 575.352L672.057 577.386C685.019 575.855 697.79 573 710.171 568.866C720.412 566.301 730.217 562.23 739.264 556.784C752.731 546.356 764.673 534.02 777.378 523.083C804.657 497.45 840.02 482.157 877.363 479.843C918.272 479.843 956.259 497.52 996.786 499.428H998.565C1005.68 499.428 1002.38 503.371 1001.23 504.642L1000.34 505.533C985.184 522.02 968.79 537.326 951.304 551.315C936.076 563.157 918.87 572.199 900.485 578.022C881.763 583.583 861.978 584.543 842.807 580.82C822.352 577.005 802.787 570.01 782.079 567.34C765.695 565.188 749.052 566.181 733.039 570.265C728.084 571.536 710.933 576.75 707.63 577.641C690.679 584.288 672.895 588.567 654.779 590.358H652.619C647.145 590.502 641.698 591.184 636.357 592.393C630.386 593.41 624.669 595.064 618.698 596.081C598.774 599.12 579.365 604.898 561.019 613.25C569.625 614.892 578.113 617.101 586.428 619.863C601.427 625.529 616.028 632.2 630.132 639.829C638.971 644.502 648.247 648.293 657.828 651.148L660.496 651.784C665.894 652.82 671.391 653.247 676.885 653.055C690.479 651.529 700.134 640.338 709.408 630.673C718.151 622.408 728.519 616.059 739.85 612.03C751.181 608.001 763.227 606.381 775.218 607.272C799.099 609.121 821.576 619.292 838.741 636.014L840.647 637.795C840.647 637.795 843.696 640.72 839.63 641.991H838.233C827.001 647.011 816.49 653.513 806.98 661.322C788.05 674.039 768.866 686.757 744.473 684.849C732.299 683.841 720.498 680.149 709.917 674.039C701.343 668.657 692.122 664.384 682.475 661.322C673.113 658.869 663.421 657.924 653.762 658.524C671.549 669.588 689.462 680.652 706.995 691.971C721.963 700.833 734.939 712.696 745.108 726.817C753.883 740.05 759.411 755.17 761.243 770.947C762.798 788.225 760.363 805.63 754.129 821.817C747.04 838.156 742.993 855.654 742.186 873.45C742.118 874.041 742.118 874.639 742.186 875.23C742.186 878.41 739.772 880.317 736.596 876.12L735.199 874.34C721.843 860.958 707.01 849.14 690.987 839.113C677.292 828.897 665.616 816.217 656.557 801.723C648.143 787.775 642.895 772.145 641.185 755.94C640.075 737.62 642.358 719.253 647.918 701.764C651.73 687.647 655.414 667.935 642.201 657.507C633.115 652.26 623.644 647.711 613.87 643.899C613.409 643.663 613.015 643.312 612.727 642.881L608.915 641.228C595.33 634.627 581.056 629.552 566.355 626.094C542.406 621.02 517.637 621.271 493.796 626.831C469.956 632.391 447.625 643.123 428.383 658.27C418.309 666.364 409.187 675.58 401.195 685.739L399.798 687.647C384.81 706.411 373.827 728.053 367.528 751.235C375.981 736.922 389.639 726.439 405.642 721.984C411.413 720.377 417.026 718.249 422.412 715.626C426.93 713.134 431.186 710.194 435.116 706.851C450.87 694.133 464.21 679.381 484.283 673.658C531.036 660.177 575.121 690.191 619.587 699.093H620.858C622.636 699.093 624.161 700.237 621.62 703.162L620.858 704.18C609.791 717.73 596.974 729.747 582.744 739.916C568.631 749.199 552.602 755.166 535.859 757.368C519.116 759.571 502.092 757.952 486.062 752.634C469.8 747.165 455.19 737.627 438.42 733.176C427.433 729.934 415.684 730.426 405.007 734.575C400.223 736.9 395.743 739.804 391.667 743.223C383.053 750.793 376.429 760.365 372.375 771.097C368.321 781.83 366.962 793.394 368.417 804.775L370.069 813.296C376.04 838.731 377.311 866.201 357.364 886.422C356.984 886.746 356.513 886.945 356.015 886.99C355.517 887.035 355.018 886.925 354.585 886.673C354.153 886.422 353.809 886.043 353.602 885.588C353.394 885.132 353.333 884.624 353.426 884.132C353.426 882.734 354.442 881.207 355.078 879.681C357.891 866.438 358.62 852.836 357.237 839.367C354.511 819.079 344.537 800.466 329.16 786.971C322.768 780.033 315.607 773.847 307.817 768.53C302.88 766.144 297.486 764.852 292.005 764.742C286.524 764.632 281.083 765.708 276.055 767.895C266.697 772.151 257.112 775.887 247.343 779.086C214.197 788.391 178.928 786.664 146.848 774.163C114.768 761.662 87.6152 739.065 69.4785 709.776C69.2196 709.422 69.0062 709.038 68.8433 708.631C67.5728 706.723 67.5728 704.943 70.876 705.324H72.0194C92.5945 706.786 113.272 705.503 133.51 701.509C167.467 694.939 202.467 696.113 235.909 704.943C257.491 711.36 276.597 724.229 290.665 741.824C291.541 742.872 292.347 743.977 293.079 745.13C295.625 749.479 299.317 753.043 303.751 755.431L307.181 757.085C314.312 760.727 321.114 764.982 327.509 769.802C334.907 775.037 341.572 781.239 347.328 788.243C345.168 780.739 342.754 773.363 340.34 765.987L326.111 722.493C313.398 687.153 290.051 656.628 259.285 635.124C249.252 627.103 237.027 622.315 224.22 621.389C198.811 621.389 177.468 639.321 156.378 650.003C134.198 661.892 109.711 668.834 84.597 670.351C57.0088 669.792 29.6707 664.988 3.54172 656.108H2.14422C-1.03193 655.472 -0.142606 653.183 1.38194 650.512C1.39072 649.826 1.61273 649.159 2.01717 648.604C12.7137 631.143 25.944 615.37 41.2743 601.804C55.5213 589.455 72.2535 580.316 90.3373 575.006C108.421 569.696 127.434 568.339 146.087 571.028C165.575 574.294 184.227 581.382 200.971 591.884C213.676 599.26 224.983 607.4 237.052 614.903L241.499 616.302C266.289 624.695 288.275 639.793 305.022 659.923C293.444 640.903 279.051 623.752 262.334 609.053C254.159 600.974 246.399 592.485 239.085 583.618C236.925 581.074 227.269 568.357 225.618 566.068C223.966 563.779 223.712 563.397 222.823 562.125C219.843 558.806 216.473 555.859 212.786 553.35C203.853 547.924 193.986 544.215 183.693 542.413C174.613 540.863 165.686 538.522 157.013 535.419C149.337 532.282 142.183 527.993 135.796 522.701C122.816 512.286 112.785 498.65 106.703 483.15C93.9984 453.645 89.5518 418.418 64.7778 395.017L64.1426 394.254C62.9992 392.728 58.1714 388.786 64.1426 388.659H65.6671C98.4947 387.355 131.113 394.445 160.443 409.261C184.328 420.14 203.876 438.723 215.962 462.039C221.422 474.878 223.856 488.803 223.077 502.735C220.446 517.87 220.748 533.37 223.966 548.39C232.314 567.656 246.258 583.963 263.986 595.191C259.293 583.525 257.086 571.006 257.506 558.437C257.506 555.767 257.506 553.223 257.506 550.425C254.21 534.367 249.534 518.624 243.531 503.371C238.564 486.638 239.37 468.719 245.818 452.501C252.545 436.986 262.918 423.33 276.055 412.695C289.433 402.04 304.068 393.07 319.632 385.988C335.392 379.511 350.218 370.957 363.717 360.553L364.86 359.536C369.434 355.593 369.942 359.536 369.815 360.935C369.688 362.333 369.815 361.952 369.815 362.588C367.632 386.655 363.984 410.566 358.889 434.187C356.016 452.906 348.111 470.491 336.021 485.057C323.007 497.386 308.494 508.025 292.825 516.724C284.615 521.261 277.228 527.152 270.973 534.147C268.127 538.785 266.353 544.002 265.782 549.415C265.21 554.828 265.855 560.301 267.67 565.432C271.725 583.757 279.463 601.065 290.411 616.302V616.048Z"/>
</mask>
<path fill-rule="evenodd" clip-rule="evenodd" d="M290.411 616.048C300.208 624.607 308.273 634.968 314.169 646.57C314.028 623.804 318.976 601.296 328.652 580.693C340.915 555.425 362.032 535.554 387.982 524.863C415.043 513.799 444.645 509.856 470.054 495.994L473.611 493.96C479.71 489.763 478.439 497.393 478.185 498.411V501.463C475.991 518.866 471.726 535.944 465.48 552.333C455.211 580.094 435.33 603.244 409.453 617.574C395.136 624.746 379.641 629.27 363.717 630.927C355.494 631.195 347.3 632.045 339.197 633.471C331.574 635.251 322.681 639.829 324.205 657.888C325.293 667.626 327.076 677.274 329.541 686.757C336.148 713.209 345.93 738.899 354.951 764.715C360.468 724.631 378.888 687.44 407.42 658.778C438.047 628.536 470.688 600.408 505.119 574.589C521.424 562.168 535.076 546.6 545.265 528.806C553.923 511.925 558.039 493.078 557.208 474.12C556.945 464.652 555.319 455.272 552.38 446.269C552.418 445.591 552.418 444.912 552.38 444.234C551.087 440.536 549.383 436.995 547.298 433.679C537.218 421.695 523.131 413.785 507.66 411.423C492.792 408.711 478.673 402.858 466.243 394.254C455.796 386.522 447.131 376.634 440.834 365.258C434.602 353.926 431.079 341.302 430.543 328.378C430.673 320.6 431.524 312.852 433.084 305.232C434.354 297.474 435.752 289.844 437.022 281.959C438.293 274.074 441.469 277.253 442.739 278.271L444.645 279.797C456.891 286.961 469.627 293.251 482.759 298.619C506.653 308.432 526.255 326.475 538.024 349.489C542.591 361.083 544.502 373.556 543.614 385.988C542.075 397.897 543.115 409.999 546.663 421.47C550.313 426.494 553.543 431.811 556.318 437.367C558.962 413.747 565.804 390.792 576.519 369.582C586.38 348.552 590.751 325.361 589.223 302.18C589.276 301.587 589.276 300.992 589.223 300.399C589.073 295.718 587.325 291.229 584.268 287.682C575.106 279.707 564.173 274.039 552.38 271.149C537.168 267.292 522.671 261.023 509.438 252.581C498.487 244.516 489.39 234.195 482.759 222.314C469.212 194.726 463.792 163.849 467.132 133.291C467.07 132.784 467.07 132.272 467.132 131.765C467.132 125.534 471.579 128.84 471.833 128.967L473.357 129.73C481.137 133.274 489.112 136.373 497.242 139.014C504.602 141.673 511.811 144.729 518.84 148.171C544.291 159.508 565.63 178.427 579.949 202.347C586.229 213.661 589.999 226.197 591.002 239.101C591.764 249.402 591.002 259.958 591.002 270.259C591.043 275.44 592.033 280.569 593.924 285.393C594.94 288.572 596.211 291.879 597.354 295.058C599.736 301.099 601.317 307.427 602.055 313.88C602.055 315.533 602.055 317.314 602.055 319.094C602.007 318.842 602.007 318.583 602.055 318.331C602.055 318.331 604.723 309.937 605.485 307.267C607.726 297.559 608.582 287.583 608.026 277.635C607.279 264.928 607.279 252.189 608.026 239.482C608.026 234.904 609.042 230.326 609.932 225.875C607.329 205.126 606.31 184.209 606.882 163.305C607.584 128.572 621.17 95.3433 644.996 70.0853C657.457 58.3214 670.793 47.5228 684.889 37.7829C699.604 28.502 712.838 17.055 724.146 3.82714L725.416 2.04669C726.051 1.02929 728.974 -3.16748 731.133 4.59019C731.188 5.22491 731.188 5.8631 731.133 6.49781C740.14 31.9178 743.056 59.1004 739.645 85.855C736.725 106.806 728.454 126.649 715.634 143.465C701.105 160.065 683.278 173.449 663.291 182.762C653.025 188.126 643.173 194.247 633.816 201.076C629.247 204.641 625.298 208.938 622.128 213.793C618.817 219.234 617.059 225.48 617.046 231.852C616.411 252.581 624.415 273.947 618.952 294.168C623.84 288.805 629.292 283.987 635.214 279.797C643.599 273.82 653.762 270.386 661.512 263.646C668.64 256.365 674.868 248.252 680.061 239.482C690.361 223.318 704.28 209.777 720.716 199.931C760.227 178.184 807.361 190.266 850.302 192.3H852.97C856.655 192.3 855.257 194.971 855.003 196.116C855.091 196.876 855.091 197.644 855.003 198.405C850.507 214.321 842.619 229.073 831.881 241.644C811.655 265.585 782.988 280.799 751.842 284.121C733.542 285.22 715.178 284.282 697.085 281.323C684.505 279.051 671.654 278.708 658.971 280.306H656.303C648.714 281.828 641.736 285.542 636.23 290.988C634.07 293.277 631.911 295.312 629.878 297.601C618.309 311.437 608.769 326.853 601.547 343.384C600.276 346.055 596.084 356.102 595.575 357.755C592.78 366.022 589.35 374.288 586.174 382.427C578.062 401.912 571.561 422.031 566.736 442.581C574.04 433.172 583.21 425.378 593.67 419.689C598.931 411.535 603.642 403.038 607.772 394.254C613.51 383.023 621.462 373.073 631.148 365.004C640.879 357.269 652.205 351.796 664.307 348.98C679.455 345.93 695.017 345.543 710.298 347.836L734.691 350.888C742.334 352.099 750.139 351.84 757.686 350.125C759.592 350.125 761.497 348.98 762.26 350.125C763.022 351.269 761.37 354.449 760.862 355.339C754.81 368.514 747.173 380.899 738.121 392.22C722.347 412.469 700.544 427.168 675.868 434.187C662.876 437.506 649.34 438.112 636.103 435.968C628.607 434.95 621.239 433.297 613.87 431.644L604.723 429.863H602.817C600.667 429.236 598.4 429.116 596.196 429.513C593.991 429.91 591.909 430.814 590.112 432.153C585.426 435.55 581.49 439.88 578.551 444.87C572.887 453.867 569.567 464.143 568.896 474.756C568.896 478.571 568.896 491.289 568.896 492.815C568.896 494.341 568.896 494.595 568.896 495.486C566.342 521.809 554.759 546.435 536.118 565.178C515.038 585.223 492.535 603.712 468.784 620.499C476.112 617.319 483.727 614.849 491.525 613.123C508.528 609.628 525.961 608.728 543.232 610.452C567.796 596.579 594.647 587.231 622.509 582.855C636.617 581.074 650.446 577.527 663.672 572.299C672.642 568.09 680.677 562.122 687.302 554.749C689.181 552.542 690.84 550.156 692.257 547.627C695.412 537.684 696.11 527.123 694.29 516.851C692.691 503.885 694.532 490.727 699.626 478.699C704.628 467.785 712.431 458.394 722.24 451.483C732.301 444.461 743.967 440.087 756.161 438.766C770.517 437.894 784.924 439.006 798.976 442.072C800.246 442.072 801.39 442.072 800.627 444.87V446.142C795.486 472.262 783.116 496.411 764.927 515.834C755.187 524.342 743.691 530.595 731.26 534.147C719.363 536.358 708.193 541.469 698.737 549.026C697.212 550.807 691.114 558.819 690.225 559.963C685.755 565.709 680.592 570.878 674.852 575.352L672.057 577.386C685.019 575.855 697.79 573 710.171 568.866C720.412 566.301 730.217 562.23 739.264 556.784C752.731 546.356 764.673 534.02 777.378 523.083C804.657 497.45 840.02 482.157 877.363 479.843C918.272 479.843 956.259 497.52 996.786 499.428H998.565C1005.68 499.428 1002.38 503.371 1001.23 504.642L1000.34 505.533C985.184 522.02 968.79 537.326 951.304 551.315C936.076 563.157 918.87 572.199 900.485 578.022C881.763 583.583 861.978 584.543 842.807 580.82C822.352 577.005 802.787 570.01 782.079 567.34C765.695 565.188 749.052 566.181 733.039 570.265C728.084 571.536 710.933 576.75 707.63 577.641C690.679 584.288 672.895 588.567 654.779 590.358H652.619C647.145 590.502 641.698 591.184 636.357 592.393C630.386 593.41 624.669 595.064 618.698 596.081C598.774 599.12 579.365 604.898 561.019 613.25C569.625 614.892 578.113 617.101 586.428 619.863C601.427 625.529 616.028 632.2 630.132 639.829C638.971 644.502 648.247 648.293 657.828 651.148L660.496 651.784C665.894 652.82 671.391 653.247 676.885 653.055C690.479 651.529 700.134 640.338 709.408 630.673C718.151 622.408 728.519 616.059 739.85 612.03C751.181 608.001 763.227 606.381 775.218 607.272C799.099 609.121 821.576 619.292 838.741 636.014L840.647 637.795C840.647 637.795 843.696 640.72 839.63 641.991H838.233C827.001 647.011 816.49 653.513 806.98 661.322C788.05 674.039 768.866 686.757 744.473 684.849C732.299 683.841 720.498 680.149 709.917 674.039C701.343 668.657 692.122 664.384 682.475 661.322C673.113 658.869 663.421 657.924 653.762 658.524C671.549 669.588 689.462 680.652 706.995 691.971C721.963 700.833 734.939 712.696 745.108 726.817C753.883 740.05 759.411 755.17 761.243 770.947C762.798 788.225 760.363 805.63 754.129 821.817C747.04 838.156 742.993 855.654 742.186 873.45C742.118 874.041 742.118 874.639 742.186 875.23C742.186 878.41 739.772 880.317 736.596 876.12L735.199 874.34C721.843 860.958 707.01 849.14 690.987 839.113C677.292 828.897 665.616 816.217 656.557 801.723C648.143 787.775 642.895 772.145 641.185 755.94C640.075 737.62 642.358 719.253 647.918 701.764C651.73 687.647 655.414 667.935 642.201 657.507C633.115 652.26 623.644 647.711 613.87 643.899C613.409 643.663 613.015 643.312 612.727 642.881L608.915 641.228C595.33 634.627 581.056 629.552 566.355 626.094C542.406 621.02 517.637 621.271 493.796 626.831C469.956 632.391 447.625 643.123 428.383 658.27C418.309 666.364 409.187 675.58 401.195 685.739L399.798 687.647C384.81 706.411 373.827 728.053 367.528 751.235C375.981 736.922 389.639 726.439 405.642 721.984C411.413 720.377 417.026 718.249 422.412 715.626C426.93 713.134 431.186 710.194 435.116 706.851C450.87 694.133 464.21 679.381 484.283 673.658C531.036 660.177 575.121 690.191 619.587 699.093H620.858C622.636 699.093 624.161 700.237 621.62 703.162L620.858 704.18C609.791 717.73 596.974 729.747 582.744 739.916C568.631 749.199 552.602 755.166 535.859 757.368C519.116 759.571 502.092 757.952 486.062 752.634C469.8 747.165 455.19 737.627 438.42 733.176C427.433 729.934 415.684 730.426 405.007 734.575C400.223 736.9 395.743 739.804 391.667 743.223C383.053 750.793 376.429 760.365 372.375 771.097C368.321 781.83 366.962 793.394 368.417 804.775L370.069 813.296C376.04 838.731 377.311 866.201 357.364 886.422C356.984 886.746 356.513 886.945 356.015 886.99C355.517 887.035 355.018 886.925 354.585 886.673C354.153 886.422 353.809 886.043 353.602 885.588C353.394 885.132 353.333 884.624 353.426 884.132C353.426 882.734 354.442 881.207 355.078 879.681C357.891 866.438 358.62 852.836 357.237 839.367C354.511 819.079 344.537 800.466 329.16 786.971C322.768 780.033 315.607 773.847 307.817 768.53C302.88 766.144 297.486 764.852 292.005 764.742C286.524 764.632 281.083 765.708 276.055 767.895C266.697 772.151 257.112 775.887 247.343 779.086C214.197 788.391 178.928 786.664 146.848 774.163C114.768 761.662 87.6152 739.065 69.4785 709.776C69.2196 709.422 69.0062 709.038 68.8433 708.631C67.5728 706.723 67.5728 704.943 70.876 705.324H72.0194C92.5945 706.786 113.272 705.503 133.51 701.509C167.467 694.939 202.467 696.113 235.909 704.943C257.491 711.36 276.597 724.229 290.665 741.824C291.541 742.872 292.347 743.977 293.079 745.13C295.625 749.479 299.317 753.043 303.751 755.431L307.181 757.085C314.312 760.727 321.114 764.982 327.509 769.802C334.907 775.037 341.572 781.239 347.328 788.243C345.168 780.739 342.754 773.363 340.34 765.987L326.111 722.493C313.398 687.153 290.051 656.628 259.285 635.124C249.252 627.103 237.027 622.315 224.22 621.389C198.811 621.389 177.468 639.321 156.378 650.003C134.198 661.892 109.711 668.834 84.597 670.351C57.0088 669.792 29.6707 664.988 3.54172 656.108H2.14422C-1.03193 655.472 -0.142606 653.183 1.38194 650.512C1.39072 649.826 1.61273 649.159 2.01717 648.604C12.7137 631.143 25.944 615.37 41.2743 601.804C55.5213 589.455 72.2535 580.316 90.3373 575.006C108.421 569.696 127.434 568.339 146.087 571.028C165.575 574.294 184.227 581.382 200.971 591.884C213.676 599.26 224.983 607.4 237.052 614.903L241.499 616.302C266.289 624.695 288.275 639.793 305.022 659.923C293.444 640.903 279.051 623.752 262.334 609.053C254.159 600.974 246.399 592.485 239.085 583.618C236.925 581.074 227.269 568.357 225.618 566.068C223.966 563.779 223.712 563.397 222.823 562.125C219.843 558.806 216.473 555.859 212.786 553.35C203.853 547.924 193.986 544.215 183.693 542.413C174.613 540.863 165.686 538.522 157.013 535.419C149.337 532.282 142.183 527.993 135.796 522.701C122.816 512.286 112.785 498.65 106.703 483.15C93.9984 453.645 89.5518 418.418 64.7778 395.017L64.1426 394.254C62.9992 392.728 58.1714 388.786 64.1426 388.659H65.6671C98.4947 387.355 131.113 394.445 160.443 409.261C184.328 420.14 203.876 438.723 215.962 462.039C221.422 474.878 223.856 488.803 223.077 502.735C220.446 517.87 220.748 533.37 223.966 548.39C232.314 567.656 246.258 583.963 263.986 595.191C259.293 583.525 257.086 571.006 257.506 558.437C257.506 555.767 257.506 553.223 257.506 550.425C254.21 534.367 249.534 518.624 243.531 503.371C238.564 486.638 239.37 468.719 245.818 452.501C252.545 436.986 262.918 423.33 276.055 412.695C289.433 402.04 304.068 393.07 319.632 385.988C335.392 379.511 350.218 370.957 363.717 360.553L364.86 359.536C369.434 355.593 369.942 359.536 369.815 360.935C369.688 362.333 369.815 361.952 369.815 362.588C367.632 386.655 363.984 410.566 358.889 434.187C356.016 452.906 348.111 470.491 336.021 485.057C323.007 497.386 308.494 508.025 292.825 516.724C284.615 521.261 277.228 527.152 270.973 534.147C268.127 538.785 266.353 544.002 265.782 549.415C265.21 554.828 265.855 560.301 267.67 565.432C271.725 583.757 279.463 601.065 290.411 616.302V616.048Z" stroke="url(#paint0_linear_6393_13767)" stroke-width="2" mask="url(#path-1-inside-1_6393_13767)"/>
</g>
<defs>
<linearGradient id="paint0_linear_6393_13767" x1="501.5" y1="0" x2="501.5" y2="887" gradientUnits="userSpaceOnUse">
<stop stop-color="#0db14b"/>
<stop offset="0.682692" stop-color="#8F4AFF"/>
</linearGradient>
</defs>
</svg>
