<svg width="90" height="90" viewBox="0 0 90 90" fill="none" xmlns="http://www.w3.org/2000/svg">
<path d="M43.375 29.9434H46.2315" stroke="black" stroke-miterlimit="10" stroke-linecap="round" stroke-linejoin="round"/>
<path d="M60.5403 49.0789V38.4805M28.1172 38.4805V65.6178" stroke="black" stroke-miterlimit="10" stroke-linecap="round" stroke-linejoin="round"/>
<path d="M65.8159 51.3067V32.3372L44.834 18.791L22.8359 32.3372V48.9778M22.8359 52.6281V65.6183" stroke="black" stroke-miterlimit="10" stroke-linecap="round" stroke-linejoin="round"/>
<path d="M43.375 26.7793H46.2315" stroke="black" stroke-miterlimit="10" stroke-linecap="round" stroke-linejoin="round"/>
<path d="M46.2066 44.5391H43.4609V48.2463H46.2066V44.5391Z" stroke="black" stroke-miterlimit="10" stroke-linecap="round" stroke-linejoin="round"/>
<path d="M19.9141 65.6191H50.0291" stroke="black" stroke-miterlimit="10" stroke-linecap="round" stroke-linejoin="round"/>
<path d="M58.9868 64.0663C56.8137 64.0663 55.0512 62.3084 55.0512 60.1409C55.0512 57.9764 56.8137 56.2184 58.9868 56.2184C61.1599 56.2184 62.9194 57.9764 62.9194 60.1409C62.9194 62.3084 61.16 64.0663 58.9868 64.0663ZM63.8246 51.997C63.0603 51.5426 62.224 51.1928 61.3398 50.9686V49.9551C61.3398 49.4738 60.9411 49.0762 60.4586 49.0762H57.5152C57.0296 49.0762 56.634 49.4708 56.634 49.9551V50.9686C55.7497 51.1928 54.9135 51.5427 54.1461 51.997L53.4267 51.2795C53.085 50.9386 52.5245 50.9386 52.1828 51.2795L50.0996 53.3544C49.7578 53.6982 49.7578 54.2573 50.0996 54.5981L50.819 55.3156C50.3633 56.0779 50.0127 56.9121 49.7879 57.7971H48.7718C48.2892 57.7971 47.8906 58.1917 47.8906 58.6731V61.6089C47.8906 62.0932 48.2893 62.4879 48.7718 62.4879H49.7879C50.0128 63.3729 50.3634 64.2069 50.819 64.9694L50.0996 65.6869C49.7578 66.0277 49.7578 66.5867 50.0996 66.9276L52.1828 69.0054C52.5245 69.3463 53.085 69.3463 53.4267 69.0054L54.1461 68.2879C54.9135 68.7424 55.7467 69.0921 56.634 69.3164V70.3298C56.634 70.8112 57.0296 71.2088 57.5152 71.2088H60.4586C60.9412 71.2088 61.3398 70.8112 61.3398 70.3298V69.3164C62.224 69.0921 63.0603 68.7423 63.8246 68.2879L64.544 69.0054C64.8858 69.3463 65.4462 69.3463 65.791 69.0054L67.8712 66.9276C68.2129 66.5867 68.2129 66.0277 67.8712 65.6869L67.1518 64.9694C67.6074 64.204 67.9581 63.3729 68.1828 62.4879H69.1989C69.6845 62.4879 70.0801 62.0932 70.0801 61.6089V58.6731C70.0801 58.1917 69.6845 57.7971 69.1989 57.7971H68.1828C67.9581 56.9121 67.6073 56.078 67.1518 55.3156L67.8712 54.5981C68.2129 54.2572 68.2129 53.6982 67.8712 53.3544L65.791 51.2795C65.4463 50.9386 64.8858 50.9386 64.544 51.2795L63.8246 51.997Z" stroke="#0DB14B" stroke-miterlimit="10" stroke-linecap="round" stroke-linejoin="round"/>
<path d="M49.9406 55.0777H39.5606C39.2729 55.0777 39.0391 54.8445 39.0391 54.5575V45.0623C39.0391 44.7753 39.2729 44.5391 39.5606 44.5391H50.1025C50.3902 44.5391 50.6271 44.7752 50.6271 45.0623V52.8325" stroke="black" stroke-miterlimit="10" stroke-linecap="round" stroke-linejoin="round"/>
<path d="M40.4175 55.0762H37.6719V58.7834H40.4175V55.0762Z" stroke="black" stroke-miterlimit="10" stroke-linecap="round" stroke-linejoin="round"/>
<path d="M33.7746 55.0762H44.8381V65.6178H33.7746C33.4838 65.6178 33.25 65.3816 33.25 65.0945V55.5993C33.25 55.3123 33.4838 55.0762 33.7746 55.0762Z" stroke="black" stroke-miterlimit="10" stroke-linecap="round" stroke-linejoin="round"/>
<path d="M46.5623 38.4815H60.5393H60.6952C61.1059 38.4815 61.4445 38.1466 61.4445 37.734V35.6322C61.4445 35.2196 61.1059 34.8848 60.6952 34.8848H27.9603C27.5496 34.8848 27.2109 35.2196 27.2109 35.6322V37.734C27.2109 38.1466 27.5496 38.4815 27.9603 38.4815H28.1162H42.9025" stroke="#F47920" stroke-miterlimit="10" stroke-linecap="round" stroke-linejoin="round"/>
</svg>
