<svg width="90" height="90" viewBox="0 0 90 90" fill="none" xmlns="http://www.w3.org/2000/svg">
<path d="M22.6458 64.5216L17.9275 53.2299H35.8571L41.519 64.5216H22.6458Z" stroke="#0DB14B"/>
<path d="M20.1484 37.2295H35.1484" stroke="black"/>
<path d="M20.1484 43.2295H35.1484" stroke="black"/>
<path d="M20.1484 50.2295H35.1484" stroke="black"/>
<path d="M41.5234 24.9995H14V53.2288H18.4393V31.8135H37.0842V53.2288H41.5234V24.9995Z" stroke="#F47920"/>
<path d="M67.2952 40.3986V53.9741M62.2043 40.3986V53.9741M57.1135 40.3986V53.9741M52.0227 40.3986V53.9741" stroke="black" stroke-miterlimit="10" stroke-linecap="round" stroke-linejoin="round"/>
<path d="M53.7081 62.0285C53.7081 62.8236 54.1054 63.5661 54.767 64.0072L54.8415 64.0568C55.6965 64.6268 56.8104 64.6268 57.6654 64.0568L57.7399 64.0072C58.4015 63.5661 58.7989 62.8236 58.7989 62.0285C58.7989 61.2334 58.4015 60.4909 57.7399 60.0498L57.6654 60.0001C56.8104 59.4301 55.6965 59.4301 54.8415 60.0001L54.767 60.0498C54.1054 60.4909 53.7081 61.2334 53.7081 62.0285ZM75.7683 62.0285C75.7683 62.8236 76.1657 63.5661 76.8273 64.0072L76.9018 64.0568C77.7568 64.6268 78.8707 64.6268 79.7257 64.0568L79.8002 64.0072C80.4618 63.5661 80.8592 62.8236 80.8592 62.0285C80.8592 61.2334 80.4618 60.4909 79.8002 60.0498L79.7257 60.0001C78.8707 59.4301 77.7568 59.4301 76.9018 60.0001L76.8273 60.0498C76.1657 60.4909 75.7683 61.2334 75.7683 62.0285Z" stroke="black" stroke-miterlimit="10" stroke-linejoin="round"/>
<path d="M72.3803 57.3633H46.9261V37H72.3803V57.3633ZM72.3803 57.3633H85.9559M85.9559 57.3633V53.9694L81.7135 42.9393L72.3803 41.2424M85.9559 57.3633V60.7572H84.2589M62.1986 60.7572H72.3803" stroke="black" stroke-miterlimit="10" stroke-linecap="round" stroke-linejoin="round"/>
<path d="M82.6926 45.4799H75.7742V50.5707L85.3178 52.3067M46.9261 57.3585V60.7524H50.32" stroke="black" stroke-miterlimit="10" stroke-linecap="round" stroke-linejoin="round"/>
</svg>
