<svg width="90" height="90" viewBox="0 0 90 90" fill="none" xmlns="http://www.w3.org/2000/svg">
<path d="M24.9045 67.8711H19.6627C19.1801 67.8711 18.7891 68.2622 18.7891 68.7447V70.492C18.7891 70.9745 19.1802 71.3656 19.6627 71.3656H54.6079C55.0905 71.3656 55.4815 70.9744 55.4815 70.492V68.7447C55.4815 68.2622 55.0904 67.8711 54.6079 67.8711H51.8373" stroke="black" stroke-miterlimit="10" stroke-linecap="round" stroke-linejoin="round"/>
<path d="M53.737 51.2721V43.7339C53.737 43.1344 53.4297 42.5766 52.9228 42.2566L39.0041 33.4657C37.8642 32.7458 36.4119 32.7458 35.272 33.4657L21.3533 42.2566C20.8464 42.5766 20.5391 43.1344 20.5391 43.7339V67.8711" stroke="black" stroke-miterlimit="10" stroke-linecap="round" stroke-linejoin="round"/>
<path d="M34.5142 43.4105H39.756C40.2385 43.4105 40.6296 43.0193 40.6296 42.5369V40.7896C40.6296 40.3071 40.2385 39.916 39.756 39.916H34.5142C34.0317 39.916 33.6406 40.3072 33.6406 40.7896V42.5369C33.6406 43.0194 34.0317 43.4105 34.5142 43.4105Z" stroke="black" stroke-miterlimit="10" stroke-linecap="round" stroke-linejoin="round"/>
<path d="M49.368 51.2725V48.6516C49.368 47.6866 48.5858 46.9043 47.6207 46.9043H26.6536C25.6886 46.9043 24.9062 47.6866 24.9062 48.6516V71.3661" stroke="black" stroke-miterlimit="10" stroke-linecap="round" stroke-linejoin="round"/>
<path d="M49.368 51.2734H24.9062" stroke="black" stroke-miterlimit="10" stroke-linecap="round" stroke-linejoin="round"/>
<path d="M49.3709 71.3668C50.8184 71.3668 51.9918 70.1934 51.9918 68.7459C51.9918 67.2984 50.8184 66.125 49.3709 66.125C47.9234 66.125 46.75 67.2984 46.75 68.7459C46.75 70.1934 47.9234 71.3668 49.3709 71.3668Z" stroke="black" stroke-miterlimit="10" stroke-linecap="round" stroke-linejoin="round"/>
<path d="M64.2225 71.3668C65.6699 71.3668 66.8434 70.1934 66.8434 68.7459C66.8434 67.2984 65.6699 66.125 64.2225 66.125C62.775 66.125 61.6016 67.2984 61.6016 68.7459C61.6016 70.1934 62.775 71.3668 64.2225 71.3668Z" stroke="black" stroke-miterlimit="10" stroke-linecap="round" stroke-linejoin="round"/>
<path d="M39.7578 64.377H42.3787C42.8612 64.377 43.2523 64.7681 43.2523 65.2505V67.8714" stroke="black" stroke-miterlimit="10" stroke-linecap="round" stroke-linejoin="round"/>
<path d="M39.7578 58.291V66.9976C39.7578 67.4801 40.149 67.8712 40.6314 67.8712H46.8966" stroke="black" stroke-miterlimit="10" stroke-linecap="round" stroke-linejoin="round"/>
<path d="M51.839 67.8725H58.9778V53.0207C58.9778 52.0558 58.1955 51.2734 57.2305 51.2734H41.5051C40.5401 51.2734 39.7578 52.0557 39.7578 53.0207V54.5513" stroke="black" stroke-miterlimit="10" stroke-linecap="round" stroke-linejoin="round"/>
<path d="M58.9766 67.8711H61.7472" stroke="black" stroke-miterlimit="10" stroke-linecap="round" stroke-linejoin="round"/>
<path d="M66.6895 67.8714H68.5865C69.069 67.8714 69.4601 67.4802 69.4601 66.9978V61.4115C69.4601 61.0665 69.358 60.7293 69.1666 60.4422L66.4842 56.4187C66.1601 55.9326 65.6147 55.6406 65.0305 55.6406H58.9766" stroke="black" stroke-miterlimit="10" stroke-linecap="round" stroke-linejoin="round"/>
<path d="M62.4766 55.6406V59.2851C62.4766 59.7485 62.6606 60.193 62.9883 60.5206L63.712 61.2443C64.0397 61.572 64.4842 61.756 64.9475 61.756H69.4656" stroke="black" stroke-miterlimit="10" stroke-linecap="round" stroke-linejoin="round"/>
<path d="M59.4135 26.8466H64.0729C64.3141 26.8466 64.5098 27.0422 64.5098 27.2835V28.5939C64.5098 28.9539 64.9207 29.1593 65.2087 28.9433L71.0329 24.5751C71.2659 24.4004 71.2659 24.051 71.0329 23.8762L65.2086 19.5081C64.9207 19.2921 64.5097 19.4976 64.5097 19.8575V21.168C64.5097 21.4092 64.3141 21.6048 64.0728 21.6048H59.4134C59.1722 21.6048 58.9766 21.8004 58.9766 22.0417V26.4099C58.9767 26.6511 59.1723 26.8466 59.4135 26.8466Z" stroke="#F47920" stroke-miterlimit="10" stroke-linecap="round" stroke-linejoin="round"/>
<path d="M60.294 30.3059H55.6347C55.3935 30.3059 55.1979 30.1103 55.1979 29.869V28.5587C55.1979 28.1987 54.787 27.9933 54.4989 28.2093L48.6747 32.5774C48.4418 32.7521 48.4418 33.1015 48.6747 33.2763L54.4989 37.6445C54.7869 37.8605 55.1979 37.6551 55.1979 37.2951V35.9846C55.1979 35.7434 55.3934 35.5478 55.6347 35.5478H60.294C60.5352 35.5478 60.7309 35.3522 60.7309 35.1109V30.7427C60.7309 30.5014 60.5353 30.3059 60.294 30.3059Z" stroke="#0DB14B" stroke-miterlimit="10" stroke-linecap="round" stroke-linejoin="round"/>
</svg>
