<svg width="90" height="90" viewBox="0 0 90 90" fill="none" xmlns="http://www.w3.org/2000/svg">
<rect x="15.5" y="15.5" width="58" height="58" rx="29" stroke="black"/>
<line x1="18.6799" y1="31.8057" x2="44.8057" y2="46.3201" stroke="#F47920" stroke-linecap="round"/>
<line x1="69.7968" y1="32.6773" x2="44.6773" y2="46.2032" stroke="#F47920" stroke-linecap="round"/>
<line x1="44.5" y1="73.5" x2="44.5" y2="46.5" stroke="#F47920" stroke-linecap="round"/>
<path d="M50.5469 28.6563H45.1011L47.0312 21L40 32.1719H45.4457L43.5156 39.8281L50.5469 28.6563Z" stroke="#0DB14B" stroke-miterlimit="10" stroke-linecap="round" stroke-linejoin="round"/>
<path d="M36.9767 56.7637C36.992 56.9159 37 57.0671 37 57.217C37 60.4109 34.3137 63 31 63C27.6863 63 25 60.4108 25 57.217C25 53.1062 31 48 31 48C31 48 31.855 48.7276 32.9194 49.8546" stroke="black" stroke-miterlimit="10" stroke-linecap="round" stroke-linejoin="round"/>
<path d="M31 61C28.7944 61 27 59.2056 27 57" stroke="black" stroke-miterlimit="10" stroke-linecap="round" stroke-linejoin="round"/>
<path d="M39 53.1446C39 55.2739 37.433 57 35.5 57C33.567 57 32 55.2739 32 53.1446C32 50.4042 35.5 47 35.5 47C35.5 47 39 50.4042 39 53.1446Z" stroke="black" stroke-miterlimit="10" stroke-linecap="round" stroke-linejoin="round"/>
<path d="M64.3478 54.5V54.3779C64.3478 54.2142 64.4168 54.0575 64.5391 53.9438L65.7299 52.8363C66.0221 52.5645 66.0846 52.1363 65.8813 51.7977L64.6236 49.7024C64.4204 49.3638 64.0035 49.2018 63.6128 49.3092L62.0214 49.7471C61.8578 49.7921 61.682 49.7712 61.5346 49.6893L61.3129 49.5659C61.1658 49.484 61.0595 49.3483 61.0184 49.1898L60.617 47.6454C60.5185 47.2661 60.164 47 59.7576 47H57.2424C56.8358 47 56.4815 47.2661 56.383 47.6454L55.9816 49.1898C55.9405 49.3483 55.8342 49.484 55.6871 49.5659L55.4654 49.6893C55.3181 49.7712 55.1424 49.7921 54.9786 49.7471L53.3872 49.3092C52.9963 49.2017 52.5796 49.3638 52.3764 49.7024L51.1187 51.7977C50.9155 52.1363 50.9779 52.5645 51.2701 52.8363L52.4609 53.9438C52.5833 54.0575 52.6523 54.2142 52.6522 54.3779V54.5V54.6221C52.6522 54.7858 52.5832 54.9425 52.4609 55.0562L51.2701 56.1637C50.9779 56.4355 50.9154 56.8637 51.1187 57.2023L52.3764 59.2976C52.5796 59.6362 52.9965 59.7982 53.3872 59.6908L54.9786 59.2529C55.1422 59.2079 55.318 59.2288 55.4654 59.3107L55.6871 59.4341C55.8342 59.516 55.9405 59.6517 55.9816 59.8102L56.383 61.3546C56.4815 61.7339 56.836 62 57.2424 62H59.7576C60.1642 62 60.5185 61.7339 60.617 61.3546L61.0184 59.8102C61.0595 59.6517 61.1658 59.516 61.3129 59.4341L61.5346 59.3107C61.6819 59.2288 61.8576 59.2079 62.0214 59.2529L63.6128 59.6908C64.0037 59.7984 64.4204 59.6362 64.6236 59.2976L65.8813 57.2023C66.0845 56.8637 66.0221 56.4355 65.7299 56.1637L64.5391 55.0562C64.4167 54.9425 64.3477 54.7858 64.3478 54.6221V54.5Z" stroke="black" stroke-miterlimit="10" stroke-linecap="round" stroke-linejoin="round"/>
<path d="M58.638 56.2761C59.5427 56.2761 60.2761 55.5427 60.2761 54.638C60.2761 53.7334 59.5427 53 58.638 53C57.7334 53 57 53.7334 57 54.638C57 55.5427 57.7334 56.2761 58.638 56.2761Z" stroke="black" stroke-miterlimit="10" stroke-linecap="round" stroke-linejoin="round"/>
</svg>
