<svg width="765" height="261" viewBox="0 0 765 261" fill="none" xmlns="http://www.w3.org/2000/svg">
<path d="M307.034 6.206C307.034 6.35267 306.961 6.426 306.814 6.426H299.004C298.945 6.426 298.916 6.45533 298.916 6.514V11.244C298.916 11.3027 298.945 11.332 299.004 11.332H304.372C304.519 11.332 304.592 11.4053 304.592 11.552V12.938C304.592 13.0847 304.519 13.158 304.372 13.158H299.004C298.945 13.158 298.916 13.1873 298.916 13.246V18.086C298.916 18.1447 298.945 18.174 299.004 18.174H306.814C306.961 18.174 307.034 18.2473 307.034 18.394V19.78C307.034 19.9267 306.961 20 306.814 20H297.024C296.877 20 296.804 19.9267 296.804 19.78V4.82C296.804 4.67333 296.877 4.6 297.024 4.6H306.814C306.961 4.6 307.034 4.67333 307.034 4.82V6.206ZM309.138 14.192C308.992 14.192 308.918 14.1187 308.918 13.972V12.586C308.918 12.4393 308.992 12.366 309.138 12.366H315.936C316.083 12.366 316.156 12.4393 316.156 12.586V13.972C316.156 14.1187 316.083 14.192 315.936 14.192H309.138ZM323.711 20.198C322.655 20.198 321.716 19.9927 320.895 19.582C320.088 19.1567 319.458 18.5627 319.003 17.8C318.563 17.0227 318.343 16.1353 318.343 15.138V9.44C318.343 8.44267 318.563 7.57 319.003 6.822C319.458 6.05933 320.088 5.47267 320.895 5.062C321.716 4.63667 322.655 4.424 323.711 4.424C324.767 4.424 325.698 4.62933 326.505 5.04C327.312 5.436 327.935 6.00067 328.375 6.734C328.83 7.46733 329.057 8.318 329.057 9.286V9.308C329.057 9.38133 329.035 9.44 328.991 9.484C328.947 9.528 328.896 9.55 328.837 9.55L327.165 9.638C327.018 9.638 326.945 9.572 326.945 9.44V9.374C326.945 8.43533 326.652 7.68 326.065 7.108C325.478 6.536 324.694 6.25 323.711 6.25C322.728 6.25 321.936 6.536 321.335 7.108C320.748 7.68 320.455 8.43533 320.455 9.374V15.226C320.455 16.1647 320.748 16.92 321.335 17.492C321.936 18.064 322.728 18.35 323.711 18.35C324.694 18.35 325.478 18.064 326.065 17.492C326.652 16.92 326.945 16.1647 326.945 15.226V15.182C326.945 15.05 327.018 14.984 327.165 14.984L328.837 15.072C328.984 15.072 329.057 15.1453 329.057 15.292C329.057 16.26 328.83 17.118 328.375 17.866C327.935 18.5993 327.312 19.1713 326.505 19.582C325.698 19.9927 324.767 20.198 323.711 20.198ZM337.14 20.198C336.07 20.198 335.124 19.978 334.302 19.538C333.481 19.098 332.843 18.482 332.388 17.69C331.934 16.8833 331.706 15.9593 331.706 14.918V9.682C331.706 8.64067 331.934 7.724 332.388 6.932C332.843 6.14 333.481 5.524 334.302 5.084C335.124 4.644 336.07 4.424 337.14 4.424C338.226 4.424 339.179 4.644 340 5.084C340.822 5.524 341.46 6.14 341.914 6.932C342.369 7.724 342.596 8.64067 342.596 9.682V14.918C342.596 15.9593 342.369 16.8833 341.914 17.69C341.46 18.482 340.822 19.098 340 19.538C339.179 19.978 338.226 20.198 337.14 20.198ZM337.14 18.372C338.138 18.372 338.944 18.064 339.56 17.448C340.176 16.832 340.484 16.018 340.484 15.006V9.66C340.484 8.63333 340.176 7.812 339.56 7.196C338.944 6.56533 338.138 6.25 337.14 6.25C336.143 6.25 335.336 6.56533 334.72 7.196C334.119 7.812 333.818 8.63333 333.818 9.66V15.006C333.818 16.018 334.119 16.832 334.72 17.448C335.336 18.064 336.143 18.372 337.14 18.372ZM355.776 4.732C355.849 4.644 355.937 4.6 356.04 4.6H357.712C357.859 4.6 357.932 4.67333 357.932 4.82V19.78C357.932 19.9267 357.859 20 357.712 20H356.04C355.893 20 355.82 19.9267 355.82 19.78V8.516C355.82 8.472 355.805 8.44267 355.776 8.428C355.747 8.41333 355.725 8.428 355.71 8.472L352.564 13.268C352.505 13.356 352.417 13.4 352.3 13.4H351.464C351.361 13.4 351.273 13.356 351.2 13.268L348.032 8.516C348.017 8.472 347.995 8.45733 347.966 8.472C347.937 8.48667 347.922 8.516 347.922 8.56V19.78C347.922 19.9267 347.849 20 347.702 20H346.03C345.883 20 345.81 19.9267 345.81 19.78V4.82C345.81 4.67333 345.883 4.6 346.03 4.6H347.702C347.819 4.6 347.907 4.644 347.966 4.732L351.816 10.496C351.831 10.5107 351.853 10.518 351.882 10.518C351.911 10.518 351.933 10.5107 351.948 10.496L355.776 4.732ZM371.502 4.732C371.576 4.644 371.664 4.6 371.766 4.6H373.438C373.585 4.6 373.658 4.67333 373.658 4.82V19.78C373.658 19.9267 373.585 20 373.438 20H371.766C371.62 20 371.546 19.9267 371.546 19.78V8.516C371.546 8.472 371.532 8.44267 371.502 8.428C371.473 8.41333 371.451 8.428 371.436 8.472L368.29 13.268C368.232 13.356 368.144 13.4 368.026 13.4H367.19C367.088 13.4 367 13.356 366.926 13.268L363.758 8.516C363.744 8.472 363.722 8.45733 363.692 8.472C363.663 8.48667 363.648 8.516 363.648 8.56V19.78C363.648 19.9267 363.575 20 363.428 20H361.756C361.61 20 361.536 19.9267 361.536 19.78V4.82C361.536 4.67333 361.61 4.6 361.756 4.6H363.428C363.546 4.6 363.634 4.644 363.692 4.732L367.542 10.496C367.557 10.5107 367.579 10.518 367.608 10.518C367.638 10.518 367.66 10.5107 367.674 10.496L371.502 4.732ZM387.493 6.206C387.493 6.35267 387.42 6.426 387.273 6.426H379.463C379.404 6.426 379.375 6.45533 379.375 6.514V11.244C379.375 11.3027 379.404 11.332 379.463 11.332H384.831C384.978 11.332 385.051 11.4053 385.051 11.552V12.938C385.051 13.0847 384.978 13.158 384.831 13.158H379.463C379.404 13.158 379.375 13.1873 379.375 13.246V18.086C379.375 18.1447 379.404 18.174 379.463 18.174H387.273C387.42 18.174 387.493 18.2473 387.493 18.394V19.78C387.493 19.9267 387.42 20 387.273 20H377.483C377.336 20 377.263 19.9267 377.263 19.78V4.82C377.263 4.67333 377.336 4.6 377.483 4.6H387.273C387.42 4.6 387.493 4.67333 387.493 4.82V6.206ZM399.189 20C399.072 20 398.991 19.9487 398.947 19.846L395.867 13.268C395.853 13.224 395.823 13.202 395.779 13.202H392.611C392.553 13.202 392.523 13.2313 392.523 13.29V19.78C392.523 19.9267 392.45 20 392.303 20H390.631C390.485 20 390.411 19.9267 390.411 19.78V4.82C390.411 4.67333 390.485 4.6 390.631 4.6H396.549C397.429 4.6 398.199 4.78333 398.859 5.15C399.534 5.51667 400.055 6.03 400.421 6.69C400.788 7.35 400.971 8.11267 400.971 8.978C400.971 10.0047 400.7 10.8773 400.157 11.596C399.629 12.3 398.889 12.7767 397.935 13.026C397.877 13.0553 397.862 13.092 397.891 13.136L401.081 19.736C401.096 19.7653 401.103 19.802 401.103 19.846C401.103 19.9487 401.045 20 400.927 20H399.189ZM392.611 6.426C392.553 6.426 392.523 6.45533 392.523 6.514V11.442C392.523 11.5007 392.553 11.53 392.611 11.53H396.285C397.063 11.53 397.686 11.3027 398.155 10.848C398.625 10.3787 398.859 9.76267 398.859 9C398.859 8.22267 398.625 7.59933 398.155 7.13C397.686 6.66067 397.063 6.426 396.285 6.426H392.611ZM408.854 20.198C407.798 20.198 406.859 19.9927 406.038 19.582C405.231 19.1567 404.6 18.5627 404.146 17.8C403.706 17.0227 403.486 16.1353 403.486 15.138V9.44C403.486 8.44267 403.706 7.57 404.146 6.822C404.6 6.05933 405.231 5.47267 406.038 5.062C406.859 4.63667 407.798 4.424 408.854 4.424C409.91 4.424 410.841 4.62933 411.648 5.04C412.454 5.436 413.078 6.00067 413.518 6.734C413.972 7.46733 414.2 8.318 414.2 9.286V9.308C414.2 9.38133 414.178 9.44 414.134 9.484C414.09 9.528 414.038 9.55 413.98 9.55L412.308 9.638C412.161 9.638 412.088 9.572 412.088 9.44V9.374C412.088 8.43533 411.794 7.68 411.208 7.108C410.621 6.536 409.836 6.25 408.854 6.25C407.871 6.25 407.079 6.536 406.478 7.108C405.891 7.68 405.598 8.43533 405.598 9.374V15.226C405.598 16.1647 405.891 16.92 406.478 17.492C407.079 18.064 407.871 18.35 408.854 18.35C409.836 18.35 410.621 18.064 411.208 17.492C411.794 16.92 412.088 16.1647 412.088 15.226V15.182C412.088 15.05 412.161 14.984 412.308 14.984L413.98 15.072C414.126 15.072 414.2 15.1453 414.2 15.292C414.2 16.26 413.972 17.118 413.518 17.866C413.078 18.5993 412.454 19.1713 411.648 19.582C410.841 19.9927 409.91 20.198 408.854 20.198ZM427.497 6.206C427.497 6.35267 427.424 6.426 427.277 6.426H419.467C419.408 6.426 419.379 6.45533 419.379 6.514V11.244C419.379 11.3027 419.408 11.332 419.467 11.332H424.835C424.982 11.332 425.055 11.4053 425.055 11.552V12.938C425.055 13.0847 424.982 13.158 424.835 13.158H419.467C419.408 13.158 419.379 13.1873 419.379 13.246V18.086C419.379 18.1447 419.408 18.174 419.467 18.174H427.277C427.424 18.174 427.497 18.2473 427.497 18.394V19.78C427.497 19.9267 427.424 20 427.277 20H417.487C417.34 20 417.267 19.9267 417.267 19.78V4.82C417.267 4.67333 417.34 4.6 417.487 4.6H427.277C427.424 4.6 427.497 4.67333 427.497 4.82V6.206ZM443.598 20C443.48 20 443.4 19.9487 443.356 19.846L440.276 13.268C440.261 13.224 440.232 13.202 440.188 13.202H437.02C436.961 13.202 436.932 13.2313 436.932 13.29V19.78C436.932 19.9267 436.858 20 436.712 20H435.04C434.893 20 434.82 19.9267 434.82 19.78V4.82C434.82 4.67333 434.893 4.6 435.04 4.6H440.958C441.838 4.6 442.608 4.78333 443.268 5.15C443.942 5.51667 444.463 6.03 444.83 6.69C445.196 7.35 445.38 8.11267 445.38 8.978C445.38 10.0047 445.108 10.8773 444.566 11.596C444.038 12.3 443.297 12.7767 442.344 13.026C442.285 13.0553 442.27 13.092 442.3 13.136L445.49 19.736C445.504 19.7653 445.512 19.802 445.512 19.846C445.512 19.9487 445.453 20 445.336 20H443.598ZM437.02 6.426C436.961 6.426 436.932 6.45533 436.932 6.514V11.442C436.932 11.5007 436.961 11.53 437.02 11.53H440.694C441.471 11.53 442.094 11.3027 442.564 10.848C443.033 10.3787 443.268 9.76267 443.268 9C443.268 8.22267 443.033 7.59933 442.564 7.13C442.094 6.66067 441.471 6.426 440.694 6.426H437.02ZM458.542 6.206C458.542 6.35267 458.468 6.426 458.322 6.426H450.512C450.453 6.426 450.424 6.45533 450.424 6.514V11.244C450.424 11.3027 450.453 11.332 450.512 11.332H455.88C456.026 11.332 456.1 11.4053 456.1 11.552V12.938C456.1 13.0847 456.026 13.158 455.88 13.158H450.512C450.453 13.158 450.424 13.1873 450.424 13.246V18.086C450.424 18.1447 450.453 18.174 450.512 18.174H458.322C458.468 18.174 458.542 18.2473 458.542 18.394V19.78C458.542 19.9267 458.468 20 458.322 20H448.532C448.385 20 448.312 19.9267 448.312 19.78V4.82C448.312 4.67333 448.385 4.6 448.532 4.6H458.322C458.468 4.6 458.542 4.67333 458.542 4.82V6.206ZM471.25 4.6C471.397 4.6 471.47 4.67333 471.47 4.82V6.228C471.47 6.37467 471.397 6.448 471.25 6.448H467.026C466.968 6.448 466.938 6.47733 466.938 6.536V19.78C466.938 19.9267 466.865 20 466.718 20H465.046C464.9 20 464.826 19.9267 464.826 19.78V6.536C464.826 6.47733 464.797 6.448 464.738 6.448H460.712C460.566 6.448 460.492 6.37467 460.492 6.228V4.82C460.492 4.67333 460.566 4.6 460.712 4.6H471.25ZM479.351 20.176C478.28 20.176 477.334 19.9707 476.513 19.56C475.706 19.1347 475.076 18.5407 474.621 17.778C474.166 17.0007 473.939 16.1133 473.939 15.116V4.82C473.939 4.67333 474.012 4.6 474.159 4.6H475.831C475.978 4.6 476.051 4.67333 476.051 4.82V15.16C476.051 16.1133 476.352 16.8833 476.953 17.47C477.569 18.0567 478.368 18.35 479.351 18.35C480.334 18.35 481.126 18.0567 481.727 17.47C482.328 16.8833 482.629 16.1133 482.629 15.16V4.82C482.629 4.67333 482.702 4.6 482.849 4.6H484.521C484.668 4.6 484.741 4.67333 484.741 4.82V15.116C484.741 16.1133 484.514 17.0007 484.059 17.778C483.619 18.5407 482.988 19.1347 482.167 19.56C481.36 19.9707 480.422 20.176 479.351 20.176ZM496.965 20C496.847 20 496.767 19.9487 496.723 19.846L493.643 13.268C493.628 13.224 493.599 13.202 493.555 13.202H490.387C490.328 13.202 490.299 13.2313 490.299 13.29V19.78C490.299 19.9267 490.225 20 490.079 20H488.407C488.26 20 488.187 19.9267 488.187 19.78V4.82C488.187 4.67333 488.26 4.6 488.407 4.6H494.325C495.205 4.6 495.975 4.78333 496.635 5.15C497.309 5.51667 497.83 6.03 498.197 6.69C498.563 7.35 498.747 8.11267 498.747 8.978C498.747 10.0047 498.475 10.8773 497.933 11.596C497.405 12.3 496.664 12.7767 495.711 13.026C495.652 13.0553 495.637 13.092 495.667 13.136L498.857 19.736C498.871 19.7653 498.879 19.802 498.879 19.846C498.879 19.9487 498.82 20 498.703 20H496.965ZM490.387 6.426C490.328 6.426 490.299 6.45533 490.299 6.514V11.442C490.299 11.5007 490.328 11.53 490.387 11.53H494.061C494.838 11.53 495.461 11.3027 495.931 10.848C496.4 10.3787 496.635 9.76267 496.635 9C496.635 8.22267 496.4 7.59933 495.931 7.13C495.461 6.66067 494.838 6.426 494.061 6.426H490.387ZM510.743 4.82C510.743 4.67333 510.816 4.6 510.963 4.6H512.635C512.782 4.6 512.855 4.67333 512.855 4.82V19.78C512.855 19.9267 512.782 20 512.635 20H511.029C510.926 20 510.838 19.9487 510.765 19.846L503.879 8.604C503.864 8.56 503.842 8.54533 503.813 8.56C503.784 8.56 503.769 8.582 503.769 8.626L503.791 19.78C503.791 19.9267 503.718 20 503.571 20H501.899C501.752 20 501.679 19.9267 501.679 19.78V4.82C501.679 4.67333 501.752 4.6 501.899 4.6H503.527C503.63 4.6 503.718 4.65133 503.791 4.754L510.655 15.996C510.67 16.04 510.692 16.062 510.721 16.062C510.75 16.0473 510.765 16.018 510.765 15.974L510.743 4.82ZM529.664 20C529.547 20 529.466 19.9487 529.422 19.846L526.342 13.268C526.327 13.224 526.298 13.202 526.254 13.202H523.086C523.027 13.202 522.998 13.2313 522.998 13.29V19.78C522.998 19.9267 522.925 20 522.778 20H521.106C520.959 20 520.886 19.9267 520.886 19.78V4.82C520.886 4.67333 520.959 4.6 521.106 4.6H527.024C527.904 4.6 528.674 4.78333 529.334 5.15C530.009 5.51667 530.529 6.03 530.896 6.69C531.263 7.35 531.446 8.11267 531.446 8.978C531.446 10.0047 531.175 10.8773 530.632 11.596C530.104 12.3 529.363 12.7767 528.41 13.026C528.351 13.0553 528.337 13.092 528.366 13.136L531.556 19.736C531.571 19.7653 531.578 19.802 531.578 19.846C531.578 19.9487 531.519 20 531.402 20H529.664ZM523.086 6.426C523.027 6.426 522.998 6.45533 522.998 6.514V11.442C522.998 11.5007 523.027 11.53 523.086 11.53H526.76C527.537 11.53 528.161 11.3027 528.63 10.848C529.099 10.3787 529.334 9.76267 529.334 9C529.334 8.22267 529.099 7.59933 528.63 7.13C528.161 6.66067 527.537 6.426 526.76 6.426H523.086ZM544.373 20C544.241 20 544.153 19.9413 544.109 19.824L543.317 17.25C543.302 17.206 543.273 17.184 543.229 17.184H537.047C537.003 17.184 536.973 17.206 536.959 17.25L536.167 19.824C536.123 19.9413 536.035 20 535.903 20H534.121C533.959 20 533.901 19.9193 533.945 19.758L538.763 4.776C538.807 4.65867 538.895 4.6 539.027 4.6H541.227C541.359 4.6 541.447 4.65867 541.491 4.776L546.353 19.758L546.375 19.846C546.375 19.9487 546.309 20 546.177 20H544.373ZM537.509 15.402C537.494 15.4313 537.494 15.4607 537.509 15.49C537.538 15.5047 537.567 15.512 537.597 15.512H542.657C542.686 15.512 542.708 15.5047 542.723 15.49C542.752 15.4607 542.759 15.4313 542.745 15.402L540.193 7.24C540.178 7.21067 540.156 7.196 540.127 7.196C540.097 7.196 540.075 7.21067 540.061 7.24L537.509 15.402ZM557.08 4.6C557.227 4.6 557.3 4.67333 557.3 4.82V6.228C557.3 6.37467 557.227 6.448 557.08 6.448H552.856C552.798 6.448 552.768 6.47733 552.768 6.536V19.78C552.768 19.9267 552.695 20 552.548 20H550.876C550.73 20 550.656 19.9267 550.656 19.78V6.536C550.656 6.47733 550.627 6.448 550.568 6.448H546.542C546.396 6.448 546.322 6.37467 546.322 6.228V4.82C546.322 4.67333 546.396 4.6 546.542 4.6H557.08ZM570.153 6.206C570.153 6.35267 570.08 6.426 569.933 6.426H562.123C562.064 6.426 562.035 6.45533 562.035 6.514V11.244C562.035 11.3027 562.064 11.332 562.123 11.332H567.491C567.638 11.332 567.711 11.4053 567.711 11.552V12.938C567.711 13.0847 567.638 13.158 567.491 13.158H562.123C562.064 13.158 562.035 13.1873 562.035 13.246V18.086C562.035 18.1447 562.064 18.174 562.123 18.174H569.933C570.08 18.174 570.153 18.2473 570.153 18.394V19.78C570.153 19.9267 570.08 20 569.933 20H560.143C559.996 20 559.923 19.9267 559.923 19.78V4.82C559.923 4.67333 559.996 4.6 560.143 4.6H569.933C570.08 4.6 570.153 4.67333 570.153 4.82V6.206ZM577.824 20.176C576.694 20.176 575.712 20 574.876 19.648C574.054 19.296 573.416 18.7973 572.962 18.152C572.522 17.5067 572.302 16.7513 572.302 15.886V15.248C572.302 15.1013 572.375 15.028 572.522 15.028H574.128C574.274 15.028 574.348 15.1013 574.348 15.248V15.776C574.348 16.524 574.67 17.14 575.316 17.624C575.961 18.108 576.848 18.35 577.978 18.35C578.99 18.35 579.752 18.1373 580.266 17.712C580.779 17.2867 581.036 16.7293 581.036 16.04C581.036 15.5853 580.904 15.1967 580.64 14.874C580.376 14.5513 579.987 14.258 579.474 13.994C578.975 13.7153 578.242 13.3853 577.274 13.004C576.203 12.5933 575.352 12.2193 574.722 11.882C574.106 11.5447 573.592 11.1047 573.182 10.562C572.771 10.0047 572.566 9.308 572.566 8.472C572.566 7.21067 573.013 6.22067 573.908 5.502C574.817 4.78333 576.042 4.424 577.582 4.424C578.667 4.424 579.62 4.60733 580.442 4.974C581.263 5.34067 581.894 5.854 582.334 6.514C582.788 7.174 583.016 7.93667 583.016 8.802V9.242C583.016 9.38867 582.942 9.462 582.796 9.462H581.146C580.999 9.462 580.926 9.38867 580.926 9.242V8.912C580.926 8.14933 580.618 7.51867 580.002 7.02C579.4 6.50667 578.564 6.25 577.494 6.25C576.584 6.25 575.88 6.44067 575.382 6.822C574.883 7.18867 574.634 7.724 574.634 8.428C574.634 8.912 574.758 9.308 575.008 9.616C575.257 9.924 575.624 10.2027 576.108 10.452C576.606 10.6867 577.362 10.9947 578.374 11.376C579.415 11.7867 580.258 12.168 580.904 12.52C581.549 12.8573 582.084 13.312 582.51 13.884C582.935 14.4413 583.148 15.138 583.148 15.974C583.148 17.2647 582.671 18.2913 581.718 19.054C580.779 19.802 579.481 20.176 577.824 20.176ZM591.355 22.2C591.253 22.2 591.165 22.156 591.091 22.068C590.329 20.9533 589.713 19.5893 589.243 17.976C588.774 16.3627 588.539 14.632 588.539 12.784C588.539 10.892 588.774 9.132 589.243 7.504C589.727 5.86133 590.358 4.48267 591.135 3.368C591.194 3.28 591.282 3.236 591.399 3.236H592.983C593.071 3.236 593.13 3.26533 593.159 3.324C593.189 3.368 593.181 3.42667 593.137 3.5C592.492 4.65867 591.957 6.04467 591.531 7.658C591.121 9.25667 590.915 10.958 590.915 12.762C590.915 14.566 591.121 16.26 591.531 17.844C591.957 19.428 592.492 20.792 593.137 21.936C593.167 21.9947 593.181 22.0387 593.181 22.068C593.181 22.156 593.115 22.2 592.983 22.2H591.355ZM598.946 18.064C598.931 18.0933 598.931 18.1227 598.946 18.152C598.96 18.1667 598.982 18.174 599.012 18.174H605.634C605.78 18.174 605.854 18.2473 605.854 18.394V19.78C605.854 19.9267 605.78 20 605.634 20H596.416C596.269 20 596.196 19.9267 596.196 19.78V18.438C596.196 18.3353 596.232 18.2473 596.306 18.174C596.804 17.602 597.948 16.26 599.738 14.148L601.256 12.322C602.62 10.694 603.302 9.43267 603.302 8.538C603.302 7.84867 603.067 7.29867 602.598 6.888C602.143 6.46267 601.534 6.25 600.772 6.25C600.009 6.25 599.4 6.46267 598.946 6.888C598.491 7.31333 598.271 7.87067 598.286 8.56V9.22C598.286 9.36667 598.212 9.44 598.066 9.44H596.372C596.225 9.44 596.152 9.36667 596.152 9.22V8.274C596.181 7.51133 596.394 6.83667 596.79 6.25C597.2 5.66333 597.75 5.216 598.44 4.908C599.129 4.58533 599.906 4.424 600.772 4.424C601.71 4.424 602.532 4.6 603.236 4.952C603.94 5.304 604.482 5.788 604.864 6.404C605.245 7.02 605.436 7.71667 605.436 8.494C605.436 9.71133 604.776 11.1487 603.456 12.806C602.869 13.554 602.172 14.3973 601.366 15.336C600.559 16.26 599.752 17.1693 598.946 18.064ZM613.179 20.22C611.697 20.22 610.517 19.802 609.637 18.966C608.771 18.1153 608.339 16.9787 608.339 15.556V9.044C608.339 7.62133 608.771 6.492 609.637 5.656C610.517 4.82 611.697 4.402 613.179 4.402C614.66 4.402 615.841 4.82 616.721 5.656C617.615 6.492 618.063 7.62133 618.063 9.044V15.556C618.063 16.9787 617.615 18.1153 616.721 18.966C615.841 19.802 614.66 20.22 613.179 20.22ZM613.179 18.394C614.029 18.394 614.704 18.152 615.203 17.668C615.701 17.1693 615.951 16.5093 615.951 15.688V8.956C615.951 8.13467 615.701 7.482 615.203 6.998C614.704 6.49933 614.029 6.25 613.179 6.25C612.357 6.25 611.697 6.49933 611.199 6.998C610.7 7.482 610.451 8.13467 610.451 8.956V15.688C610.451 16.5093 610.7 17.1693 611.199 17.668C611.697 18.152 612.357 18.394 613.179 18.394ZM623.374 18.064C623.359 18.0933 623.359 18.1227 623.374 18.152C623.388 18.1667 623.41 18.174 623.44 18.174H630.062C630.208 18.174 630.282 18.2473 630.282 18.394V19.78C630.282 19.9267 630.208 20 630.062 20H620.844C620.697 20 620.624 19.9267 620.624 19.78V18.438C620.624 18.3353 620.66 18.2473 620.734 18.174C621.232 17.602 622.376 16.26 624.166 14.148L625.684 12.322C627.048 10.694 627.73 9.43267 627.73 8.538C627.73 7.84867 627.495 7.29867 627.026 6.888C626.571 6.46267 625.962 6.25 625.2 6.25C624.437 6.25 623.828 6.46267 623.374 6.888C622.919 7.31333 622.699 7.87067 622.714 8.56V9.22C622.714 9.36667 622.64 9.44 622.494 9.44H620.8C620.653 9.44 620.58 9.36667 620.58 9.22V8.274C620.609 7.51133 620.822 6.83667 621.218 6.25C621.628 5.66333 622.178 5.216 622.868 4.908C623.557 4.58533 624.334 4.424 625.2 4.424C626.138 4.424 626.96 4.6 627.664 4.952C628.368 5.304 628.91 5.788 629.292 6.404C629.673 7.02 629.864 7.71667 629.864 8.494C629.864 9.71133 629.204 11.1487 627.884 12.806C627.297 13.554 626.6 14.3973 625.794 15.336C624.987 16.26 624.18 17.1693 623.374 18.064ZM642.49 13.972C642.637 13.972 642.71 14.0453 642.71 14.192V15.644C642.71 15.7907 642.637 15.864 642.49 15.864H641.544C641.486 15.864 641.456 15.8933 641.456 15.952V19.78C641.456 19.9267 641.383 20 641.236 20H639.564C639.418 20 639.344 19.9267 639.344 19.78V15.952C639.344 15.8933 639.315 15.864 639.256 15.864H632.568C632.422 15.864 632.348 15.7907 632.348 15.644V14.456C632.348 14.3827 632.37 14.2947 632.414 14.192L636.748 4.754C636.792 4.65133 636.873 4.6 636.99 4.6H638.75C638.824 4.6 638.875 4.62933 638.904 4.688C638.948 4.732 638.956 4.79067 638.926 4.864L634.79 13.862C634.776 13.8913 634.776 13.9207 634.79 13.95C634.805 13.9647 634.827 13.972 634.856 13.972H639.256C639.315 13.972 639.344 13.9427 639.344 13.884V10.606C639.344 10.4593 639.418 10.386 639.564 10.386H641.236C641.383 10.386 641.456 10.4593 641.456 10.606V13.884C641.456 13.9427 641.486 13.972 641.544 13.972H642.49ZM647.601 3.236C647.704 3.236 647.792 3.28 647.865 3.368C648.643 4.48267 649.266 5.84667 649.735 7.46C650.205 9.07333 650.439 10.804 650.439 12.652C650.439 14.5293 650.197 16.2893 649.713 17.932C649.244 19.56 648.621 20.9387 647.843 22.068C647.785 22.156 647.697 22.2 647.579 22.2H645.973C645.885 22.2 645.827 22.1707 645.797 22.112C645.768 22.068 645.775 22.0093 645.819 21.936C646.479 20.7773 647.015 19.3987 647.425 17.8C647.851 16.1867 648.063 14.478 648.063 12.674C648.063 10.8847 647.851 9.198 647.425 7.614C647.015 6.01533 646.479 4.644 645.819 3.5C645.79 3.44133 645.775 3.39733 645.775 3.368C645.775 3.28 645.841 3.236 645.973 3.236H647.601Z" fill="black"/>
<path d="M54.271 84.222C54.271 84.3153 54.2243 84.362 54.131 84.362H49.175C49.1376 84.362 49.119 84.3807 49.119 84.418V87.428C49.119 87.4653 49.1376 87.484 49.175 87.484H52.577C52.6703 87.484 52.717 87.5307 52.717 87.624V88.506C52.717 88.5993 52.6703 88.646 52.577 88.646H49.175C49.1376 88.646 49.119 88.6647 49.119 88.702V92.86C49.119 92.9533 49.0723 93 48.979 93H47.915C47.8216 93 47.775 92.9533 47.775 92.86V83.34C47.775 83.2467 47.8216 83.2 47.915 83.2H54.131C54.2243 83.2 54.271 83.2467 54.271 83.34V84.222ZM60.807 93C60.723 93 60.667 92.9627 60.639 92.888L60.135 91.25C60.1257 91.222 60.107 91.208 60.079 91.208H56.145C56.117 91.208 56.0983 91.222 56.089 91.25L55.585 92.888C55.557 92.9627 55.501 93 55.417 93H54.283C54.1803 93 54.143 92.9487 54.171 92.846L57.237 83.312C57.265 83.2373 57.321 83.2 57.405 83.2H58.805C58.889 83.2 58.945 83.2373 58.973 83.312L62.067 92.846L62.081 92.902C62.081 92.9673 62.039 93 61.955 93H60.807ZM56.439 90.074C56.4297 90.0927 56.4297 90.1113 56.439 90.13C56.4577 90.1393 56.4763 90.144 56.495 90.144H59.715C59.7337 90.144 59.7477 90.1393 59.757 90.13C59.7757 90.1113 59.7803 90.0927 59.771 90.074L58.147 84.88C58.1377 84.8613 58.1237 84.852 58.105 84.852C58.0863 84.852 58.0723 84.8613 58.063 84.88L56.439 90.074ZM66.1525 93.112C65.4338 93.112 64.8085 93 64.2765 92.776C63.7538 92.552 63.3478 92.2347 63.0585 91.824C62.7785 91.4133 62.6385 90.9327 62.6385 90.382V89.976C62.6385 89.8827 62.6851 89.836 62.7785 89.836H63.8005C63.8938 89.836 63.9405 89.8827 63.9405 89.976V90.312C63.9405 90.788 64.1458 91.18 64.5565 91.488C64.9671 91.796 65.5318 91.95 66.2505 91.95C66.8945 91.95 67.3798 91.8147 67.7065 91.544C68.0331 91.2733 68.1965 90.9187 68.1965 90.48C68.1965 90.1907 68.1125 89.9433 67.9445 89.738C67.7765 89.5327 67.5291 89.346 67.2025 89.178C66.8851 89.0007 66.4185 88.7907 65.8025 88.548C65.1211 88.2867 64.5798 88.0487 64.1785 87.834C63.7865 87.6193 63.4598 87.3393 63.1985 86.994C62.9371 86.6393 62.8065 86.196 62.8065 85.664C62.8065 84.8613 63.0911 84.2313 63.6605 83.774C64.2391 83.3167 65.0185 83.088 65.9985 83.088C66.6891 83.088 67.2958 83.2047 67.8185 83.438C68.3411 83.6713 68.7425 83.998 69.0225 84.418C69.3118 84.838 69.4565 85.3233 69.4565 85.874V86.154C69.4565 86.2473 69.4098 86.294 69.3165 86.294H68.2665C68.1731 86.294 68.1265 86.2473 68.1265 86.154V85.944C68.1265 85.4587 67.9305 85.0573 67.5385 84.74C67.1558 84.4133 66.6238 84.25 65.9425 84.25C65.3638 84.25 64.9158 84.3713 64.5985 84.614C64.2811 84.8473 64.1225 85.188 64.1225 85.636C64.1225 85.944 64.2018 86.196 64.3605 86.392C64.5191 86.588 64.7525 86.7653 65.0605 86.924C65.3778 87.0733 65.8585 87.2693 66.5025 87.512C67.1651 87.7733 67.7018 88.016 68.1125 88.24C68.5231 88.4547 68.8638 88.744 69.1345 89.108C69.4051 89.4627 69.5405 89.906 69.5405 90.438C69.5405 91.2593 69.2371 91.9127 68.6305 92.398C68.0331 92.874 67.2071 93.112 66.1525 93.112ZM76.8049 83.34C76.8049 83.2467 76.8516 83.2 76.9449 83.2H78.0089C78.1023 83.2 78.1489 83.2467 78.1489 83.34V92.86C78.1489 92.9533 78.1023 93 78.0089 93H76.9449C76.8516 93 76.8049 92.9533 76.8049 92.86V88.702C76.8049 88.6647 76.7863 88.646 76.7489 88.646H72.7589C72.7216 88.646 72.7029 88.6647 72.7029 88.702V92.86C72.7029 92.9533 72.6563 93 72.5629 93H71.4989C71.4056 93 71.3589 92.9533 71.3589 92.86V83.34C71.3589 83.2467 71.4056 83.2 71.4989 83.2H72.5629C72.6563 83.2 72.7029 83.2467 72.7029 83.34V87.428C72.7029 87.4653 72.7216 87.484 72.7589 87.484H76.7489C76.7863 87.484 76.8049 87.4653 76.8049 87.428V83.34ZM80.5224 93C80.429 93 80.3824 92.9533 80.3824 92.86V83.34C80.3824 83.2467 80.429 83.2 80.5224 83.2H81.5864C81.6797 83.2 81.7264 83.2467 81.7264 83.34V92.86C81.7264 92.9533 81.6797 93 81.5864 93H80.5224ZM87.2111 93.126C86.5298 93.126 85.9278 92.986 85.4051 92.706C84.8824 92.426 84.4764 92.034 84.1871 91.53C83.8978 91.0167 83.7531 90.4287 83.7531 89.766V86.434C83.7531 85.7713 83.8978 85.188 84.1871 84.684C84.4764 84.18 84.8824 83.788 85.4051 83.508C85.9278 83.228 86.5298 83.088 87.2111 83.088C87.9018 83.088 88.5084 83.228 89.0311 83.508C89.5538 83.788 89.9598 84.18 90.2491 84.684C90.5384 85.188 90.6831 85.7713 90.6831 86.434V89.766C90.6831 90.4287 90.5384 91.0167 90.2491 91.53C89.9598 92.034 89.5538 92.426 89.0311 92.706C88.5084 92.986 87.9018 93.126 87.2111 93.126ZM87.2111 91.964C87.8458 91.964 88.3591 91.768 88.7511 91.376C89.1431 90.984 89.3391 90.466 89.3391 89.822V86.42C89.3391 85.7667 89.1431 85.244 88.7511 84.852C88.3591 84.4507 87.8458 84.25 87.2111 84.25C86.5764 84.25 86.0631 84.4507 85.6711 84.852C85.2884 85.244 85.0971 85.7667 85.0971 86.42V89.822C85.0971 90.466 85.2884 90.984 85.6711 91.376C86.0631 91.768 86.5764 91.964 87.2111 91.964ZM98.4961 83.34C98.4961 83.2467 98.5427 83.2 98.6361 83.2H99.7001C99.7934 83.2 99.8401 83.2467 99.8401 83.34V92.86C99.8401 92.9533 99.7934 93 99.7001 93H98.6781C98.6127 93 98.5567 92.9673 98.5101 92.902L94.1281 85.748C94.1187 85.72 94.1047 85.7107 94.0861 85.72C94.0674 85.72 94.0581 85.734 94.0581 85.762L94.0721 92.86C94.0721 92.9533 94.0254 93 93.9321 93H92.8681C92.7747 93 92.7281 92.9533 92.7281 92.86V83.34C92.7281 83.2467 92.7747 83.2 92.8681 83.2H93.9041C93.9694 83.2 94.0254 83.2327 94.0721 83.298L98.4401 90.452C98.4494 90.48 98.4634 90.494 98.4821 90.494C98.5007 90.4847 98.5101 90.466 98.5101 90.438L98.4961 83.34Z" fill="black"/>
<path d="M20.4334 156.222C20.4334 156.315 20.3867 156.362 20.2934 156.362H15.3234C15.2861 156.362 15.2674 156.381 15.2674 156.418V159.428C15.2674 159.465 15.2861 159.484 15.3234 159.484H18.7394C18.8327 159.484 18.8794 159.531 18.8794 159.624V160.506C18.8794 160.599 18.8327 160.646 18.7394 160.646H15.3234C15.2861 160.646 15.2674 160.665 15.2674 160.702V163.782C15.2674 163.819 15.2861 163.838 15.3234 163.838H20.2934C20.3867 163.838 20.4334 163.885 20.4334 163.978V164.86C20.4334 164.953 20.3867 165 20.2934 165H14.0634C13.9701 165 13.9234 164.953 13.9234 164.86V155.34C13.9234 155.247 13.9701 155.2 14.0634 155.2H20.2934C20.3867 155.2 20.4334 155.247 20.4334 155.34V156.222ZM22.4306 165C22.3372 165 22.2906 164.953 22.2906 164.86V155.34C22.2906 155.247 22.3372 155.2 22.4306 155.2H23.4946C23.5879 155.2 23.6346 155.247 23.6346 155.34V163.782C23.6346 163.819 23.6532 163.838 23.6906 163.838H28.5206C28.6139 163.838 28.6606 163.885 28.6606 163.978V164.86C28.6606 164.953 28.6139 165 28.5206 165H22.4306ZM36.785 156.222C36.785 156.315 36.7383 156.362 36.645 156.362H31.675C31.6376 156.362 31.619 156.381 31.619 156.418V159.428C31.619 159.465 31.6376 159.484 31.675 159.484H35.091C35.1843 159.484 35.231 159.531 35.231 159.624V160.506C35.231 160.599 35.1843 160.646 35.091 160.646H31.675C31.6376 160.646 31.619 160.665 31.619 160.702V163.782C31.619 163.819 31.6376 163.838 31.675 163.838H36.645C36.7383 163.838 36.785 163.885 36.785 163.978V164.86C36.785 164.953 36.7383 165 36.645 165H30.415C30.3216 165 30.275 164.953 30.275 164.86V155.34C30.275 155.247 30.3216 155.2 30.415 155.2H36.645C36.7383 155.2 36.785 155.247 36.785 155.34V156.222ZM41.7921 165.126C41.1201 165.126 40.5228 164.995 40.0001 164.734C39.4868 164.463 39.0855 164.085 38.7961 163.6C38.5161 163.105 38.3761 162.541 38.3761 161.906V158.28C38.3761 157.645 38.5161 157.09 38.7961 156.614C39.0855 156.129 39.4868 155.755 40.0001 155.494C40.5228 155.223 41.1201 155.088 41.7921 155.088C42.4641 155.088 43.0568 155.219 43.5701 155.48C44.0835 155.732 44.4801 156.091 44.7601 156.558C45.0495 157.025 45.1941 157.566 45.1941 158.182V158.196C45.1941 158.243 45.1801 158.28 45.1521 158.308C45.1241 158.336 45.0915 158.35 45.0541 158.35L43.9901 158.406C43.8968 158.406 43.8501 158.364 43.8501 158.28V158.238C43.8501 157.641 43.6635 157.16 43.2901 156.796C42.9168 156.432 42.4175 156.25 41.7921 156.25C41.1668 156.25 40.6628 156.432 40.2801 156.796C39.9068 157.16 39.7201 157.641 39.7201 158.238V161.962C39.7201 162.559 39.9068 163.04 40.2801 163.404C40.6628 163.768 41.1668 163.95 41.7921 163.95C42.4175 163.95 42.9168 163.768 43.2901 163.404C43.6635 163.04 43.8501 162.559 43.8501 161.962V161.934C43.8501 161.85 43.8968 161.808 43.9901 161.808L45.0541 161.864C45.1475 161.864 45.1941 161.911 45.1941 162.004C45.1941 162.62 45.0495 163.166 44.7601 163.642C44.4801 164.109 44.0835 164.473 43.5701 164.734C43.0568 164.995 42.4641 165.126 41.7921 165.126ZM53.253 155.2C53.3463 155.2 53.393 155.247 53.393 155.34V156.236C53.393 156.329 53.3463 156.376 53.253 156.376H50.565C50.5277 156.376 50.509 156.395 50.509 156.432V164.86C50.509 164.953 50.4623 165 50.369 165H49.305C49.2117 165 49.165 164.953 49.165 164.86V156.432C49.165 156.395 49.1463 156.376 49.109 156.376H46.547C46.4537 156.376 46.407 156.329 46.407 156.236V155.34C46.407 155.247 46.4537 155.2 46.547 155.2H53.253ZM60.6481 165C60.5734 165 60.5221 164.967 60.4941 164.902L58.5341 160.716C58.5247 160.688 58.5061 160.674 58.4781 160.674H56.4621C56.4247 160.674 56.4061 160.693 56.4061 160.73V164.86C56.4061 164.953 56.3594 165 56.2661 165H55.2021C55.1087 165 55.0621 164.953 55.0621 164.86V155.34C55.0621 155.247 55.1087 155.2 55.2021 155.2H58.9681C59.5281 155.2 60.0181 155.317 60.4381 155.55C60.8674 155.783 61.1987 156.11 61.4321 156.53C61.6654 156.95 61.7821 157.435 61.7821 157.986C61.7821 158.639 61.6094 159.195 61.2641 159.652C60.9281 160.1 60.4567 160.403 59.8501 160.562C59.8127 160.581 59.8034 160.604 59.8221 160.632L61.8521 164.832C61.8614 164.851 61.8661 164.874 61.8661 164.902C61.8661 164.967 61.8287 165 61.7541 165H60.6481ZM56.4621 156.362C56.4247 156.362 56.4061 156.381 56.4061 156.418V159.554C56.4061 159.591 56.4247 159.61 56.4621 159.61H58.8001C59.2947 159.61 59.6914 159.465 59.9901 159.176C60.2887 158.877 60.4381 158.485 60.4381 158C60.4381 157.505 60.2887 157.109 59.9901 156.81C59.6914 156.511 59.2947 156.362 58.8001 156.362H56.4621ZM66.84 165.126C66.1587 165.126 65.5567 164.986 65.034 164.706C64.5113 164.426 64.1053 164.034 63.816 163.53C63.5267 163.017 63.382 162.429 63.382 161.766V158.434C63.382 157.771 63.5267 157.188 63.816 156.684C64.1053 156.18 64.5113 155.788 65.034 155.508C65.5567 155.228 66.1587 155.088 66.84 155.088C67.5307 155.088 68.1373 155.228 68.66 155.508C69.1827 155.788 69.5887 156.18 69.878 156.684C70.1673 157.188 70.312 157.771 70.312 158.434V161.766C70.312 162.429 70.1673 163.017 69.878 163.53C69.5887 164.034 69.1827 164.426 68.66 164.706C68.1373 164.986 67.5307 165.126 66.84 165.126ZM66.84 163.964C67.4747 163.964 67.988 163.768 68.38 163.376C68.772 162.984 68.968 162.466 68.968 161.822V158.42C68.968 157.767 68.772 157.244 68.38 156.852C67.988 156.451 67.4747 156.25 66.84 156.25C66.2053 156.25 65.692 156.451 65.3 156.852C64.9173 157.244 64.726 157.767 64.726 158.42V161.822C64.726 162.466 64.9173 162.984 65.3 163.376C65.692 163.768 66.2053 163.964 66.84 163.964ZM78.125 155.34C78.125 155.247 78.1717 155.2 78.265 155.2H79.329C79.4223 155.2 79.469 155.247 79.469 155.34V164.86C79.469 164.953 79.4223 165 79.329 165H78.307C78.2417 165 78.1857 164.967 78.139 164.902L73.757 157.748C73.7477 157.72 73.7337 157.711 73.715 157.72C73.6963 157.72 73.687 157.734 73.687 157.762L73.701 164.86C73.701 164.953 73.6543 165 73.561 165H72.497C72.4037 165 72.357 164.953 72.357 164.86V155.34C72.357 155.247 72.4037 155.2 72.497 155.2H73.533C73.5983 155.2 73.6543 155.233 73.701 155.298L78.069 162.452C78.0783 162.48 78.0923 162.494 78.111 162.494C78.1297 162.485 78.139 162.466 78.139 162.438L78.125 155.34ZM81.9169 165C81.8236 165 81.7769 164.953 81.7769 164.86V155.34C81.7769 155.247 81.8236 155.2 81.9169 155.2H82.9809C83.0742 155.2 83.1209 155.247 83.1209 155.34V164.86C83.1209 164.953 83.0742 165 82.9809 165H81.9169ZM88.5636 165.126C87.8916 165.126 87.2943 164.995 86.7716 164.734C86.2583 164.463 85.857 164.085 85.5676 163.6C85.2876 163.105 85.1476 162.541 85.1476 161.906V158.28C85.1476 157.645 85.2876 157.09 85.5676 156.614C85.857 156.129 86.2583 155.755 86.7716 155.494C87.2943 155.223 87.8916 155.088 88.5636 155.088C89.2356 155.088 89.8283 155.219 90.3416 155.48C90.855 155.732 91.2516 156.091 91.5316 156.558C91.821 157.025 91.9656 157.566 91.9656 158.182V158.196C91.9656 158.243 91.9516 158.28 91.9236 158.308C91.8956 158.336 91.863 158.35 91.8256 158.35L90.7616 158.406C90.6683 158.406 90.6216 158.364 90.6216 158.28V158.238C90.6216 157.641 90.435 157.16 90.0616 156.796C89.6883 156.432 89.189 156.25 88.5636 156.25C87.9383 156.25 87.4343 156.432 87.0516 156.796C86.6783 157.16 86.4916 157.641 86.4916 158.238V161.962C86.4916 162.559 86.6783 163.04 87.0516 163.404C87.4343 163.768 87.9383 163.95 88.5636 163.95C89.189 163.95 89.6883 163.768 90.0616 163.404C90.435 163.04 90.6216 162.559 90.6216 161.962V161.934C90.6216 161.85 90.6683 161.808 90.7616 161.808L91.8256 161.864C91.919 161.864 91.9656 161.911 91.9656 162.004C91.9656 162.62 91.821 163.166 91.5316 163.642C91.2516 164.109 90.855 164.473 90.3416 164.734C89.8283 164.995 89.2356 165.126 88.5636 165.126ZM96.9415 165.112C96.2229 165.112 95.5975 165 95.0655 164.776C94.5429 164.552 94.1369 164.235 93.8475 163.824C93.5675 163.413 93.4275 162.933 93.4275 162.382V161.976C93.4275 161.883 93.4742 161.836 93.5675 161.836H94.5895C94.6829 161.836 94.7295 161.883 94.7295 161.976V162.312C94.7295 162.788 94.9349 163.18 95.3455 163.488C95.7562 163.796 96.3209 163.95 97.0395 163.95C97.6835 163.95 98.1689 163.815 98.4955 163.544C98.8222 163.273 98.9855 162.919 98.9855 162.48C98.9855 162.191 98.9015 161.943 98.7335 161.738C98.5655 161.533 98.3182 161.346 97.9915 161.178C97.6742 161.001 97.2075 160.791 96.5915 160.548C95.9102 160.287 95.3689 160.049 94.9675 159.834C94.5755 159.619 94.2489 159.339 93.9875 158.994C93.7262 158.639 93.5955 158.196 93.5955 157.664C93.5955 156.861 93.8802 156.231 94.4495 155.774C95.0282 155.317 95.8075 155.088 96.7875 155.088C97.4782 155.088 98.0849 155.205 98.6075 155.438C99.1302 155.671 99.5315 155.998 99.8115 156.418C100.101 156.838 100.246 157.323 100.246 157.874V158.154C100.246 158.247 100.199 158.294 100.106 158.294H99.0555C98.9622 158.294 98.9155 158.247 98.9155 158.154V157.944C98.9155 157.459 98.7195 157.057 98.3275 156.74C97.9449 156.413 97.4129 156.25 96.7315 156.25C96.1529 156.25 95.7049 156.371 95.3875 156.614C95.0702 156.847 94.9115 157.188 94.9115 157.636C94.9115 157.944 94.9909 158.196 95.1495 158.392C95.3082 158.588 95.5415 158.765 95.8495 158.924C96.1669 159.073 96.6475 159.269 97.2915 159.512C97.9542 159.773 98.4909 160.016 98.9015 160.24C99.3122 160.455 99.6529 160.744 99.9235 161.108C100.194 161.463 100.33 161.906 100.33 162.438C100.33 163.259 100.026 163.913 99.4195 164.398C98.8222 164.874 97.9962 165.112 96.9415 165.112Z" fill="black"/>
<path d="M4.298 237.126C3.626 237.126 3.02867 236.995 2.506 236.734C1.99267 236.463 1.59133 236.085 1.302 235.6C1.022 235.105 0.882 234.541 0.882 233.906V230.28C0.882 229.645 1.022 229.09 1.302 228.614C1.59133 228.129 1.99267 227.755 2.506 227.494C3.02867 227.223 3.626 227.088 4.298 227.088C4.97 227.088 5.56267 227.219 6.076 227.48C6.58933 227.732 6.986 228.091 7.266 228.558C7.55533 229.025 7.7 229.566 7.7 230.182V230.196C7.7 230.243 7.686 230.28 7.658 230.308C7.63 230.336 7.59733 230.35 7.56 230.35L6.496 230.406C6.40267 230.406 6.356 230.364 6.356 230.28V230.238C6.356 229.641 6.16933 229.16 5.796 228.796C5.42267 228.432 4.92333 228.25 4.298 228.25C3.67267 228.25 3.16867 228.432 2.786 228.796C2.41267 229.16 2.226 229.641 2.226 230.238V233.962C2.226 234.559 2.41267 235.04 2.786 235.404C3.16867 235.768 3.67267 235.95 4.298 235.95C4.92333 235.95 5.42267 235.768 5.796 235.404C6.16933 235.04 6.356 234.559 6.356 233.962V233.934C6.356 233.85 6.40267 233.808 6.496 233.808L7.56 233.864C7.65333 233.864 7.7 233.911 7.7 234.004C7.7 234.62 7.55533 235.166 7.266 235.642C6.986 236.109 6.58933 236.473 6.076 236.734C5.56267 236.995 4.97 237.126 4.298 237.126ZM12.8439 237.126C12.1626 237.126 11.5606 236.986 11.0379 236.706C10.5152 236.426 10.1092 236.034 9.81991 235.53C9.53057 235.017 9.38591 234.429 9.38591 233.766V230.434C9.38591 229.771 9.53057 229.188 9.81991 228.684C10.1092 228.18 10.5152 227.788 11.0379 227.508C11.5606 227.228 12.1626 227.088 12.8439 227.088C13.5346 227.088 14.1412 227.228 14.6639 227.508C15.1866 227.788 15.5926 228.18 15.8819 228.684C16.1712 229.188 16.3159 229.771 16.3159 230.434V233.766C16.3159 234.429 16.1712 235.017 15.8819 235.53C15.5926 236.034 15.1866 236.426 14.6639 236.706C14.1412 236.986 13.5346 237.126 12.8439 237.126ZM12.8439 235.964C13.4786 235.964 13.9919 235.768 14.3839 235.376C14.7759 234.984 14.9719 234.466 14.9719 233.822V230.42C14.9719 229.767 14.7759 229.244 14.3839 228.852C13.9919 228.451 13.4786 228.25 12.8439 228.25C12.2092 228.25 11.6959 228.451 11.3039 228.852C10.9212 229.244 10.7299 229.767 10.7299 230.42V233.822C10.7299 234.466 10.9212 234.984 11.3039 235.376C11.6959 235.768 12.2092 235.964 12.8439 235.964ZM18.5009 237C18.4076 237 18.3609 236.953 18.3609 236.86V227.34C18.3609 227.247 18.4076 227.2 18.5009 227.2H21.8889C22.8596 227.2 23.6342 227.457 24.2129 227.97C24.7916 228.474 25.0809 229.151 25.0809 230V234.2C25.0809 235.049 24.7916 235.731 24.2129 236.244C23.6342 236.748 22.8596 237 21.8889 237H18.5009ZM19.7049 235.782C19.7049 235.819 19.7236 235.838 19.7609 235.838H21.9449C22.4862 235.838 22.9156 235.675 23.2329 235.348C23.5596 235.012 23.7276 234.564 23.7369 234.004V230.196C23.7369 229.636 23.5736 229.193 23.2469 228.866C22.9296 228.53 22.4956 228.362 21.9449 228.362H19.7609C19.7236 228.362 19.7049 228.381 19.7049 228.418V235.782ZM35.4039 237C35.3293 237 35.2779 236.967 35.2499 236.902L33.2899 232.716C33.2806 232.688 33.2619 232.674 33.2339 232.674H31.2179C31.1806 232.674 31.1619 232.693 31.1619 232.73V236.86C31.1619 236.953 31.1153 237 31.0219 237H29.9579C29.8646 237 29.8179 236.953 29.8179 236.86V227.34C29.8179 227.247 29.8646 227.2 29.9579 227.2H33.7239C34.2839 227.2 34.7739 227.317 35.1939 227.55C35.6233 227.783 35.9546 228.11 36.1879 228.53C36.4213 228.95 36.5379 229.435 36.5379 229.986C36.5379 230.639 36.3653 231.195 36.0199 231.652C35.6839 232.1 35.2126 232.403 34.6059 232.562C34.5686 232.581 34.5593 232.604 34.5779 232.632L36.6079 236.832C36.6173 236.851 36.6219 236.874 36.6219 236.902C36.6219 236.967 36.5846 237 36.5099 237H35.4039ZM31.2179 228.362C31.1806 228.362 31.1619 228.381 31.1619 228.418V231.554C31.1619 231.591 31.1806 231.61 31.2179 231.61H33.5559C34.0506 231.61 34.4473 231.465 34.7459 231.176C35.0446 230.877 35.1939 230.485 35.1939 230C35.1939 229.505 35.0446 229.109 34.7459 228.81C34.4473 228.511 34.0506 228.362 33.5559 228.362H31.2179ZM44.9139 228.222C44.9139 228.315 44.8672 228.362 44.7739 228.362H39.8039C39.7665 228.362 39.7479 228.381 39.7479 228.418V231.428C39.7479 231.465 39.7665 231.484 39.8039 231.484H43.2199C43.3132 231.484 43.3599 231.531 43.3599 231.624V232.506C43.3599 232.599 43.3132 232.646 43.2199 232.646H39.8039C39.7665 232.646 39.7479 232.665 39.7479 232.702V235.782C39.7479 235.819 39.7665 235.838 39.8039 235.838H44.7739C44.8672 235.838 44.9139 235.885 44.9139 235.978V236.86C44.9139 236.953 44.8672 237 44.7739 237H38.5439C38.4505 237 38.4039 236.953 38.4039 236.86V227.34C38.4039 227.247 38.4505 227.2 38.5439 227.2H44.7739C44.8672 227.2 44.9139 227.247 44.9139 227.34V228.222ZM49.277 237.112C48.6144 237.112 48.031 236.986 47.527 236.734C47.0324 236.482 46.6497 236.127 46.379 235.67C46.1084 235.213 45.973 234.685 45.973 234.088V233.094C45.973 233.001 46.0197 232.954 46.113 232.954H47.177C47.2704 232.954 47.317 233.001 47.317 233.094V234.088C47.317 234.648 47.4944 235.101 47.849 235.446C48.2037 235.782 48.6797 235.95 49.277 235.95C49.8557 235.95 50.327 235.782 50.691 235.446C51.055 235.101 51.237 234.648 51.237 234.088V227.34C51.237 227.247 51.2837 227.2 51.377 227.2H52.441C52.5344 227.2 52.581 227.247 52.581 227.34V234.088C52.581 234.685 52.441 235.213 52.161 235.67C51.8904 236.127 51.503 236.482 50.999 236.734C50.495 236.986 49.921 237.112 49.277 237.112ZM61.3885 228.222C61.3885 228.315 61.3418 228.362 61.2485 228.362H56.2785C56.2411 228.362 56.2225 228.381 56.2225 228.418V231.428C56.2225 231.465 56.2411 231.484 56.2785 231.484H59.6945C59.7878 231.484 59.8345 231.531 59.8345 231.624V232.506C59.8345 232.599 59.7878 232.646 59.6945 232.646H56.2785C56.2411 232.646 56.2225 232.665 56.2225 232.702V235.782C56.2225 235.819 56.2411 235.838 56.2785 235.838H61.2485C61.3418 235.838 61.3885 235.885 61.3885 235.978V236.86C61.3885 236.953 61.3418 237 61.2485 237H55.0185C54.9251 237 54.8785 236.953 54.8785 236.86V227.34C54.8785 227.247 54.9251 227.2 55.0185 227.2H61.2485C61.3418 227.2 61.3885 227.247 61.3885 227.34V228.222ZM66.3957 237.126C65.7237 237.126 65.1263 236.995 64.6037 236.734C64.0903 236.463 63.689 236.085 63.3997 235.6C63.1197 235.105 62.9797 234.541 62.9797 233.906V230.28C62.9797 229.645 63.1197 229.09 63.3997 228.614C63.689 228.129 64.0903 227.755 64.6037 227.494C65.1263 227.223 65.7237 227.088 66.3957 227.088C67.0677 227.088 67.6603 227.219 68.1737 227.48C68.687 227.732 69.0837 228.091 69.3637 228.558C69.653 229.025 69.7977 229.566 69.7977 230.182V230.196C69.7977 230.243 69.7837 230.28 69.7557 230.308C69.7277 230.336 69.695 230.35 69.6577 230.35L68.5937 230.406C68.5003 230.406 68.4537 230.364 68.4537 230.28V230.238C68.4537 229.641 68.267 229.16 67.8937 228.796C67.5203 228.432 67.021 228.25 66.3957 228.25C65.7703 228.25 65.2663 228.432 64.8837 228.796C64.5103 229.16 64.3237 229.641 64.3237 230.238V233.962C64.3237 234.559 64.5103 235.04 64.8837 235.404C65.2663 235.768 65.7703 235.95 66.3957 235.95C67.021 235.95 67.5203 235.768 67.8937 235.404C68.267 235.04 68.4537 234.559 68.4537 233.962V233.934C68.4537 233.85 68.5003 233.808 68.5937 233.808L69.6577 233.864C69.751 233.864 69.7977 233.911 69.7977 234.004C69.7977 234.62 69.653 235.166 69.3637 235.642C69.0837 236.109 68.687 236.473 68.1737 236.734C67.6603 236.995 67.0677 237.126 66.3957 237.126ZM77.8565 227.2C77.9498 227.2 77.9965 227.247 77.9965 227.34V228.236C77.9965 228.329 77.9498 228.376 77.8565 228.376H75.1685C75.1312 228.376 75.1125 228.395 75.1125 228.432V236.86C75.1125 236.953 75.0658 237 74.9725 237H73.9085C73.8152 237 73.7685 236.953 73.7685 236.86V228.432C73.7685 228.395 73.7498 228.376 73.7125 228.376H71.1505C71.0572 228.376 71.0105 228.329 71.0105 228.236V227.34C71.0105 227.247 71.0572 227.2 71.1505 227.2H77.8565ZM79.8056 237C79.7122 237 79.6656 236.953 79.6656 236.86V227.34C79.6656 227.247 79.7122 227.2 79.8056 227.2H80.8696C80.9629 227.2 81.0096 227.247 81.0096 227.34V236.86C81.0096 236.953 80.9629 237 80.8696 237H79.8056ZM86.4943 237.126C85.813 237.126 85.211 236.986 84.6883 236.706C84.1656 236.426 83.7596 236.034 83.4703 235.53C83.181 235.017 83.0363 234.429 83.0363 233.766V230.434C83.0363 229.771 83.181 229.188 83.4703 228.684C83.7596 228.18 84.1656 227.788 84.6883 227.508C85.211 227.228 85.813 227.088 86.4943 227.088C87.185 227.088 87.7916 227.228 88.3143 227.508C88.837 227.788 89.243 228.18 89.5323 228.684C89.8216 229.188 89.9663 229.771 89.9663 230.434V233.766C89.9663 234.429 89.8216 235.017 89.5323 235.53C89.243 236.034 88.837 236.426 88.3143 236.706C87.7916 236.986 87.185 237.126 86.4943 237.126ZM86.4943 235.964C87.129 235.964 87.6423 235.768 88.0343 235.376C88.4263 234.984 88.6223 234.466 88.6223 233.822V230.42C88.6223 229.767 88.4263 229.244 88.0343 228.852C87.6423 228.451 87.129 228.25 86.4943 228.25C85.8596 228.25 85.3463 228.451 84.9543 228.852C84.5716 229.244 84.3803 229.767 84.3803 230.42V233.822C84.3803 234.466 84.5716 234.984 84.9543 235.376C85.3463 235.768 85.8596 235.964 86.4943 235.964ZM97.7793 227.34C97.7793 227.247 97.8259 227.2 97.9193 227.2H98.9833C99.0766 227.2 99.1233 227.247 99.1233 227.34V236.86C99.1233 236.953 99.0766 237 98.9833 237H97.9613C97.8959 237 97.8399 236.967 97.7933 236.902L93.4113 229.748C93.4019 229.72 93.3879 229.711 93.3693 229.72C93.3506 229.72 93.3413 229.734 93.3413 229.762L93.3553 236.86C93.3553 236.953 93.3086 237 93.2153 237H92.1513C92.0579 237 92.0113 236.953 92.0113 236.86V227.34C92.0113 227.247 92.0579 227.2 92.1513 227.2H93.1873C93.2526 227.2 93.3086 227.233 93.3553 227.298L97.7233 234.452C97.7326 234.48 97.7466 234.494 97.7653 234.494C97.7839 234.485 97.7933 234.466 97.7933 234.438L97.7793 227.34Z" fill="black"/>
<rect width="525" height="30" transform="translate(150 62)" fill="#F47920"/>
<path d="M699.281 78.364C699.588 79.1153 699.741 79.9817 699.741 80.963C699.741 81.7757 699.618 82.527 699.373 83.217C699.036 84.1677 698.476 84.9037 697.694 85.425C696.912 85.931 695.969 86.184 694.865 86.184C693.761 86.184 692.803 85.9003 691.99 85.333C691.193 84.7657 690.633 83.999 690.311 83.033C690.142 82.6037 690.043 81.9903 690.012 81.193C690.012 81.0397 690.089 80.963 690.242 80.963H692.013C692.166 80.963 692.243 81.0397 692.243 81.193C692.274 81.745 692.335 82.1513 692.427 82.412C692.58 82.9793 692.864 83.4317 693.278 83.769C693.707 84.1063 694.236 84.275 694.865 84.275C696.03 84.275 696.812 83.746 697.211 82.688C697.41 82.228 697.51 81.63 697.51 80.894C697.51 80.112 697.387 79.4143 697.142 78.801C696.713 77.8503 695.946 77.375 694.842 77.375C694.581 77.375 694.252 77.49 693.853 77.72C693.792 77.7507 693.746 77.766 693.715 77.766C693.638 77.766 693.577 77.7277 693.531 77.651L692.657 76.455C692.626 76.3937 692.611 76.34 692.611 76.294C692.611 76.248 692.634 76.1943 692.68 76.133L696.613 71.924C696.659 71.8473 696.644 71.809 696.567 71.809H690.449C690.296 71.809 690.219 71.7323 690.219 71.579V70.13C690.219 69.9767 690.296 69.9 690.449 69.9H699.373C699.526 69.9 699.603 69.9767 699.603 70.13V71.786C699.603 71.8627 699.565 71.9547 699.488 72.062L695.992 75.88C695.961 75.9107 695.954 75.9413 695.969 75.972C695.984 75.9873 696.015 76.0027 696.061 76.018C696.843 76.0947 697.502 76.34 698.039 76.754C698.576 77.1527 698.99 77.6893 699.281 78.364ZM707.548 86.23C705.999 86.23 704.765 85.793 703.845 84.919C702.94 84.0297 702.488 82.8413 702.488 81.354V74.546C702.488 73.0587 702.94 71.878 703.845 71.004C704.765 70.13 705.999 69.693 707.548 69.693C709.096 69.693 710.331 70.13 711.251 71.004C712.186 71.878 712.654 73.0587 712.654 74.546V81.354C712.654 82.8413 712.186 84.0297 711.251 84.919C710.331 85.793 709.096 86.23 707.548 86.23ZM707.548 84.321C708.437 84.321 709.142 84.068 709.664 83.562C710.185 83.0407 710.446 82.3507 710.446 81.492V74.454C710.446 73.5953 710.185 72.913 709.664 72.407C709.142 71.8857 708.437 71.625 707.548 71.625C706.689 71.625 705.999 71.8857 705.478 72.407C704.956 72.913 704.696 73.5953 704.696 74.454V81.492C704.696 82.3507 704.956 83.0407 705.478 83.562C705.999 84.068 706.689 84.321 707.548 84.321ZM715.124 79.928C714.971 79.928 714.894 79.8513 714.894 79.698V78.249C714.894 78.0957 714.971 78.019 715.124 78.019H722.231C722.384 78.019 722.461 78.0957 722.461 78.249V79.698C722.461 79.8513 722.384 79.928 722.231 79.928H715.124ZM733.579 78.364C733.886 79.1153 734.039 79.9817 734.039 80.963C734.039 81.7757 733.916 82.527 733.671 83.217C733.334 84.1677 732.774 84.9037 731.992 85.425C731.21 85.931 730.267 86.184 729.163 86.184C728.059 86.184 727.101 85.9003 726.288 85.333C725.491 84.7657 724.931 83.999 724.609 83.033C724.44 82.6037 724.341 81.9903 724.31 81.193C724.31 81.0397 724.387 80.963 724.54 80.963H726.311C726.464 80.963 726.541 81.0397 726.541 81.193C726.572 81.745 726.633 82.1513 726.725 82.412C726.878 82.9793 727.162 83.4317 727.576 83.769C728.005 84.1063 728.534 84.275 729.163 84.275C730.328 84.275 731.11 83.746 731.509 82.688C731.708 82.228 731.808 81.63 731.808 80.894C731.808 80.112 731.685 79.4143 731.44 78.801C731.011 77.8503 730.244 77.375 729.14 77.375C728.879 77.375 728.55 77.49 728.151 77.72C728.09 77.7507 728.044 77.766 728.013 77.766C727.936 77.766 727.875 77.7277 727.829 77.651L726.955 76.455C726.924 76.3937 726.909 76.34 726.909 76.294C726.909 76.248 726.932 76.1943 726.978 76.133L730.911 71.924C730.957 71.8473 730.942 71.809 730.865 71.809H724.747C724.594 71.809 724.517 71.7323 724.517 71.579V70.13C724.517 69.9767 724.594 69.9 724.747 69.9H733.671C733.824 69.9 733.901 69.9767 733.901 70.13V71.786C733.901 71.8627 733.863 71.9547 733.786 72.062L730.29 75.88C730.259 75.9107 730.252 75.9413 730.267 75.972C730.282 75.9873 730.313 76.0027 730.359 76.018C731.141 76.0947 731.8 76.34 732.337 76.754C732.874 77.1527 733.288 77.6893 733.579 78.364ZM746.123 78.87C746.292 79.5447 746.376 80.2423 746.376 80.963C746.376 81.6837 746.284 82.3507 746.1 82.964C745.809 83.9453 745.249 84.7273 744.421 85.31C743.609 85.8773 742.635 86.161 741.5 86.161C740.381 86.161 739.423 85.885 738.625 85.333C737.828 84.781 737.268 84.0297 736.946 83.079C736.793 82.6497 736.709 82.274 736.693 81.952V81.906C736.693 81.7833 736.762 81.722 736.9 81.722H738.717C738.855 81.722 738.932 81.791 738.947 81.929C738.963 82.0363 739.001 82.1973 739.062 82.412C739.231 82.9793 739.522 83.4317 739.936 83.769C740.366 84.091 740.879 84.252 741.477 84.252C742.106 84.252 742.635 84.0833 743.064 83.746C743.509 83.3933 743.808 82.9103 743.961 82.297C744.069 81.975 744.122 81.5303 744.122 80.963C744.122 80.457 744.076 79.9893 743.984 79.56C743.877 78.9773 743.601 78.5327 743.156 78.226C742.727 77.904 742.19 77.743 741.546 77.743C740.948 77.743 740.412 77.881 739.936 78.157C739.461 78.4177 739.154 78.7703 739.016 79.215C738.97 79.353 738.886 79.422 738.763 79.422H736.923C736.77 79.422 736.693 79.3453 736.693 79.192V70.13C736.693 69.9767 736.77 69.9 736.923 69.9H745.525C745.679 69.9 745.755 69.9767 745.755 70.13V71.579C745.755 71.7323 745.679 71.809 745.525 71.809H738.993C738.932 71.809 738.901 71.8397 738.901 71.901L738.878 76.708C738.878 76.8 738.917 76.823 738.993 76.777C739.361 76.455 739.783 76.2173 740.258 76.064C740.749 75.8953 741.263 75.811 741.799 75.811C742.873 75.811 743.793 76.0793 744.559 76.616C745.341 77.1527 745.863 77.904 746.123 78.87ZM752.734 76.501C752.106 76.501 751.523 76.3477 750.986 76.041C750.465 75.7343 750.051 75.3203 749.744 74.799C749.438 74.2777 749.284 73.7027 749.284 73.074C749.284 72.4607 749.438 71.8933 749.744 71.372C750.051 70.8507 750.465 70.4443 750.986 70.153C751.523 69.8463 752.106 69.693 752.734 69.693C753.348 69.693 753.915 69.8463 754.436 70.153C754.958 70.4597 755.372 70.8737 755.678 71.395C755.985 71.901 756.138 72.4607 756.138 73.074C756.138 73.7027 755.985 74.2777 755.678 74.799C755.372 75.3203 754.958 75.7343 754.436 76.041C753.915 76.3477 753.348 76.501 752.734 76.501ZM752.067 86C751.975 86 751.914 85.977 751.883 85.931C751.853 85.8697 751.86 85.8007 751.906 85.724L760.6 70.061C760.662 69.9537 760.754 69.9 760.876 69.9H762.003C762.095 69.9 762.157 69.9307 762.187 69.992C762.218 70.038 762.21 70.0993 762.164 70.176L753.47 85.839C753.424 85.9463 753.332 86 753.194 86H752.067ZM752.734 75.144C753.302 75.144 753.777 74.9447 754.16 74.546C754.544 74.1473 754.735 73.6567 754.735 73.074C754.735 72.5067 754.536 72.0313 754.137 71.648C753.754 71.2493 753.286 71.05 752.734 71.05C752.167 71.05 751.684 71.2493 751.285 71.648C750.887 72.0313 750.687 72.5067 750.687 73.074C750.687 73.6567 750.887 74.1473 751.285 74.546C751.684 74.9447 752.167 75.144 752.734 75.144ZM761.497 86.207C760.869 86.207 760.286 86.0537 759.749 85.747C759.228 85.4403 758.814 85.0263 758.507 84.505C758.201 83.9837 758.047 83.4163 758.047 82.803C758.047 82.1897 758.201 81.6223 758.507 81.101C758.814 80.5797 759.228 80.1657 759.749 79.859C760.286 79.5523 760.869 79.399 761.497 79.399C762.111 79.399 762.678 79.5523 763.199 79.859C763.721 80.1657 764.135 80.5797 764.441 81.101C764.748 81.6223 764.901 82.1897 764.901 82.803C764.901 83.4163 764.748 83.9837 764.441 84.505C764.135 85.0263 763.721 85.4403 763.199 85.747C762.678 86.0537 762.111 86.207 761.497 86.207ZM761.497 84.85C762.065 84.85 762.54 84.6507 762.923 84.252C763.307 83.8533 763.498 83.3703 763.498 82.803C763.498 82.2357 763.299 81.7527 762.9 81.354C762.517 80.9553 762.049 80.756 761.497 80.756C760.93 80.756 760.447 80.9553 760.048 81.354C759.65 81.7527 759.45 82.2357 759.45 82.803C759.45 83.3703 759.65 83.8533 760.048 84.252C760.447 84.6507 760.93 84.85 761.497 84.85Z" fill="black"/>
<rect width="442" height="30" transform="translate(150 139)" fill="#8F53A1"/>
<path d="M610.117 160.976C610.102 161.007 610.102 161.037 610.117 161.068C610.132 161.083 610.155 161.091 610.186 161.091H617.109C617.262 161.091 617.339 161.168 617.339 161.321V162.77C617.339 162.923 617.262 163 617.109 163H607.472C607.319 163 607.242 162.923 607.242 162.77V161.367C607.242 161.26 607.28 161.168 607.357 161.091C607.878 160.493 609.074 159.09 610.945 156.882L612.532 154.973C613.958 153.271 614.671 151.952 614.671 151.017C614.671 150.296 614.426 149.721 613.935 149.292C613.46 148.847 612.823 148.625 612.026 148.625C611.229 148.625 610.592 148.847 610.117 149.292C609.642 149.737 609.412 150.319 609.427 151.04V151.73C609.427 151.883 609.35 151.96 609.197 151.96H607.426C607.273 151.96 607.196 151.883 607.196 151.73V150.741C607.227 149.944 607.449 149.238 607.863 148.625C608.292 148.012 608.867 147.544 609.588 147.222C610.309 146.885 611.121 146.716 612.026 146.716C613.007 146.716 613.866 146.9 614.602 147.268C615.338 147.636 615.905 148.142 616.304 148.786C616.703 149.43 616.902 150.158 616.902 150.971C616.902 152.244 616.212 153.746 614.832 155.479C614.219 156.261 613.49 157.143 612.647 158.124C611.804 159.09 610.96 160.041 610.117 160.976ZM624.997 163.23C623.448 163.23 622.214 162.793 621.294 161.919C620.389 161.03 619.937 159.841 619.937 158.354V151.546C619.937 150.059 620.389 148.878 621.294 148.004C622.214 147.13 623.448 146.693 624.997 146.693C626.545 146.693 627.78 147.13 628.7 148.004C629.635 148.878 630.103 150.059 630.103 151.546V158.354C630.103 159.841 629.635 161.03 628.7 161.919C627.78 162.793 626.545 163.23 624.997 163.23ZM624.997 161.321C625.886 161.321 626.591 161.068 627.113 160.562C627.634 160.041 627.895 159.351 627.895 158.492V151.454C627.895 150.595 627.634 149.913 627.113 149.407C626.591 148.886 625.886 148.625 624.997 148.625C624.138 148.625 623.448 148.886 622.927 149.407C622.405 149.913 622.145 150.595 622.145 151.454V158.492C622.145 159.351 622.405 160.041 622.927 160.562C623.448 161.068 624.138 161.321 624.997 161.321ZM636.874 153.501C636.245 153.501 635.663 153.348 635.126 153.041C634.605 152.734 634.191 152.32 633.884 151.799C633.577 151.278 633.424 150.703 633.424 150.074C633.424 149.461 633.577 148.893 633.884 148.372C634.191 147.851 634.605 147.444 635.126 147.153C635.663 146.846 636.245 146.693 636.874 146.693C637.487 146.693 638.055 146.846 638.576 147.153C639.097 147.46 639.511 147.874 639.818 148.395C640.125 148.901 640.278 149.461 640.278 150.074C640.278 150.703 640.125 151.278 639.818 151.799C639.511 152.32 639.097 152.734 638.576 153.041C638.055 153.348 637.487 153.501 636.874 153.501ZM636.207 163C636.115 163 636.054 162.977 636.023 162.931C635.992 162.87 636 162.801 636.046 162.724L644.74 147.061C644.801 146.954 644.893 146.9 645.016 146.9H646.143C646.235 146.9 646.296 146.931 646.327 146.992C646.358 147.038 646.35 147.099 646.304 147.176L637.61 162.839C637.564 162.946 637.472 163 637.334 163H636.207ZM636.874 152.144C637.441 152.144 637.917 151.945 638.3 151.546C638.683 151.147 638.875 150.657 638.875 150.074C638.875 149.507 638.676 149.031 638.277 148.648C637.894 148.249 637.426 148.05 636.874 148.05C636.307 148.05 635.824 148.249 635.425 148.648C635.026 149.031 634.827 149.507 634.827 150.074C634.827 150.657 635.026 151.147 635.425 151.546C635.824 151.945 636.307 152.144 636.874 152.144ZM645.637 163.207C645.008 163.207 644.426 163.054 643.889 162.747C643.368 162.44 642.954 162.026 642.647 161.505C642.34 160.984 642.187 160.416 642.187 159.803C642.187 159.19 642.34 158.622 642.647 158.101C642.954 157.58 643.368 157.166 643.889 156.859C644.426 156.552 645.008 156.399 645.637 156.399C646.25 156.399 646.818 156.552 647.339 156.859C647.86 157.166 648.274 157.58 648.581 158.101C648.888 158.622 649.041 159.19 649.041 159.803C649.041 160.416 648.888 160.984 648.581 161.505C648.274 162.026 647.86 162.44 647.339 162.747C646.818 163.054 646.25 163.207 645.637 163.207ZM645.637 161.85C646.204 161.85 646.68 161.651 647.063 161.252C647.446 160.853 647.638 160.37 647.638 159.803C647.638 159.236 647.439 158.753 647.04 158.354C646.657 157.955 646.189 157.756 645.637 157.756C645.07 157.756 644.587 157.955 644.188 158.354C643.789 158.753 643.59 159.236 643.59 159.803C643.59 160.37 643.789 160.853 644.188 161.252C644.587 161.651 645.07 161.85 645.637 161.85Z" fill="black"/>
<rect width="299" height="30" transform="translate(150 216)" fill="#0DB14B"/>
<path d="M467.117 237.976C467.102 238.007 467.102 238.037 467.117 238.068C467.132 238.083 467.155 238.091 467.186 238.091H474.109C474.262 238.091 474.339 238.168 474.339 238.321V239.77C474.339 239.923 474.262 240 474.109 240H464.472C464.319 240 464.242 239.923 464.242 239.77V238.367C464.242 238.26 464.28 238.168 464.357 238.091C464.878 237.493 466.074 236.09 467.945 233.882L469.532 231.973C470.958 230.271 471.671 228.952 471.671 228.017C471.671 227.296 471.426 226.721 470.935 226.292C470.46 225.847 469.823 225.625 469.026 225.625C468.229 225.625 467.592 225.847 467.117 226.292C466.642 226.737 466.412 227.319 466.427 228.04V228.73C466.427 228.883 466.35 228.96 466.197 228.96H464.426C464.273 228.96 464.196 228.883 464.196 228.73V227.741C464.227 226.944 464.449 226.238 464.863 225.625C465.292 225.012 465.867 224.544 466.588 224.222C467.309 223.885 468.121 223.716 469.026 223.716C470.007 223.716 470.866 223.9 471.602 224.268C472.338 224.636 472.905 225.142 473.304 225.786C473.703 226.43 473.902 227.158 473.902 227.971C473.902 229.244 473.212 230.746 471.832 232.479C471.219 233.261 470.49 234.143 469.647 235.124C468.804 236.09 467.96 237.041 467.117 237.976ZM485.884 232.065C486.313 232.878 486.528 233.851 486.528 234.986C486.528 235.921 486.374 236.742 486.068 237.447C485.715 238.321 485.163 238.996 484.412 239.471C483.676 239.931 482.779 240.161 481.721 240.161C480.586 240.161 479.62 239.9 478.823 239.379C478.041 238.858 477.489 238.122 477.167 237.171C476.937 236.527 476.822 235.783 476.822 234.94V227.856C476.822 226.599 477.259 225.594 478.133 224.843C479.007 224.092 480.149 223.716 481.56 223.716C482.464 223.716 483.262 223.885 483.952 224.222C484.657 224.559 485.201 225.035 485.585 225.648C485.968 226.246 486.16 226.936 486.16 227.718V228.178C486.16 228.331 486.083 228.408 485.93 228.408H484.182C484.028 228.408 483.952 228.331 483.952 228.178V227.971C483.952 227.281 483.729 226.721 483.285 226.292C482.84 225.863 482.265 225.648 481.56 225.648C480.808 225.648 480.195 225.87 479.72 226.315C479.26 226.76 479.03 227.35 479.03 228.086V230.984C479.03 231.015 479.037 231.038 479.053 231.053C479.083 231.053 479.114 231.038 479.145 231.007C479.804 230.271 480.762 229.903 482.02 229.903C483.829 229.903 485.117 230.624 485.884 232.065ZM483.975 236.757C484.205 236.266 484.32 235.676 484.32 234.986C484.32 234.204 484.182 233.575 483.906 233.1C483.461 232.211 482.71 231.766 481.652 231.766C481.115 231.766 480.655 231.889 480.272 232.134C479.888 232.364 479.597 232.701 479.398 233.146C479.152 233.652 479.03 234.304 479.03 235.101C479.03 235.745 479.129 236.289 479.329 236.734C479.528 237.225 479.827 237.6 480.226 237.861C480.624 238.106 481.107 238.229 481.675 238.229C482.794 238.229 483.561 237.738 483.975 236.757ZM492.886 230.501C492.257 230.501 491.674 230.348 491.138 230.041C490.616 229.734 490.202 229.32 489.896 228.799C489.589 228.278 489.436 227.703 489.436 227.074C489.436 226.461 489.589 225.893 489.896 225.372C490.202 224.851 490.616 224.444 491.138 224.153C491.674 223.846 492.257 223.693 492.886 223.693C493.499 223.693 494.066 223.846 494.588 224.153C495.109 224.46 495.523 224.874 495.83 225.395C496.136 225.901 496.29 226.461 496.29 227.074C496.29 227.703 496.136 228.278 495.83 228.799C495.523 229.32 495.109 229.734 494.588 230.041C494.066 230.348 493.499 230.501 492.886 230.501ZM492.219 240C492.127 240 492.065 239.977 492.035 239.931C492.004 239.87 492.012 239.801 492.058 239.724L500.752 224.061C500.813 223.954 500.905 223.9 501.028 223.9H502.155C502.247 223.9 502.308 223.931 502.339 223.992C502.369 224.038 502.362 224.099 502.316 224.176L493.622 239.839C493.576 239.946 493.484 240 493.346 240H492.219ZM492.886 229.144C493.453 229.144 493.928 228.945 494.312 228.546C494.695 228.147 494.887 227.657 494.887 227.074C494.887 226.507 494.687 226.031 494.289 225.648C493.905 225.249 493.438 225.05 492.886 225.05C492.318 225.05 491.835 225.249 491.437 225.648C491.038 226.031 490.839 226.507 490.839 227.074C490.839 227.657 491.038 228.147 491.437 228.546C491.835 228.945 492.318 229.144 492.886 229.144ZM501.649 240.207C501.02 240.207 500.437 240.054 499.901 239.747C499.379 239.44 498.965 239.026 498.659 238.505C498.352 237.984 498.199 237.416 498.199 236.803C498.199 236.19 498.352 235.622 498.659 235.101C498.965 234.58 499.379 234.166 499.901 233.859C500.437 233.552 501.02 233.399 501.649 233.399C502.262 233.399 502.829 233.552 503.351 233.859C503.872 234.166 504.286 234.58 504.593 235.101C504.899 235.622 505.053 236.19 505.053 236.803C505.053 237.416 504.899 237.984 504.593 238.505C504.286 239.026 503.872 239.44 503.351 239.747C502.829 240.054 502.262 240.207 501.649 240.207ZM501.649 238.85C502.216 238.85 502.691 238.651 503.075 238.252C503.458 237.853 503.65 237.37 503.65 236.803C503.65 236.236 503.45 235.753 503.052 235.354C502.668 234.955 502.201 234.756 501.649 234.756C501.081 234.756 500.598 234.955 500.2 235.354C499.801 235.753 499.602 236.236 499.602 236.803C499.602 237.37 499.801 237.853 500.2 238.252C500.598 238.651 501.081 238.85 501.649 238.85Z" fill="black"/>
<line x1="149.5" y1="44" x2="149.5" y2="261" stroke="#A7A7A7"/>
</svg>
