<svg width="269" height="219" viewBox="0 0 269 219" fill="none" xmlns="http://www.w3.org/2000/svg">
<rect x="0.7" y="35.7" width="267.4" height="182" rx="13.3" stroke="black" stroke-width="1.4"/>
<path d="M51.5564 108.311C51.5564 111.297 50.6303 113.754 48.7781 115.682C46.9259 117.61 44.3555 118.782 41.0669 119.198C40.8779 119.273 40.7834 119.387 40.7834 119.538L40.8401 123.28C40.8401 123.469 40.7645 123.62 40.6133 123.734C40.4999 123.885 40.3487 123.96 40.1597 123.96H35.7371C35.5481 123.96 35.378 123.885 35.2268 123.734C35.1134 123.62 35.0567 123.469 35.0567 123.28L35.1134 119.481C35.1134 119.33 35.0189 119.216 34.8299 119.141C31.5413 118.612 28.952 117.383 27.062 115.455C25.2098 113.49 24.2837 111.014 24.2837 108.028V106.61C24.2837 106.421 24.3404 106.27 24.4538 106.157C24.605 106.005 24.7751 105.93 24.9641 105.93H29.7269C29.9159 105.93 30.0671 106.005 30.1805 106.157C30.3317 106.27 30.4073 106.421 30.4073 106.61V107.687C30.4073 109.426 31.1444 110.882 32.6186 112.053C34.0928 113.187 36.0962 113.754 38.6288 113.754C40.859 113.754 42.5222 113.263 43.6184 112.28C44.7524 111.297 45.3194 110.031 45.3194 108.481C45.3194 107.423 45.017 106.535 44.4122 105.816C43.8074 105.06 42.9191 104.399 41.7473 103.832C40.6133 103.227 38.9123 102.452 36.6443 101.507C34.1117 100.524 32.0516 99.5982 30.464 98.7288C28.8764 97.8594 27.5534 96.6876 26.495 95.2134C25.4366 93.7014 24.9074 91.8303 24.9074 89.6001C24.9074 86.7273 25.7768 84.3648 27.5156 82.5126C29.2922 80.6604 31.6925 79.5075 34.7165 79.0539C34.9055 78.9783 35 78.8649 35 78.7137L34.8866 74.5179C34.8866 74.3289 34.9433 74.1777 35.0567 74.0643C35.2079 73.9131 35.378 73.8375 35.567 73.8375H39.9896C40.1786 73.8375 40.3298 73.9131 40.4432 74.0643C40.5944 74.1777 40.67 74.3289 40.67 74.5179L40.5566 78.7704C40.5566 78.9216 40.6511 79.035 40.8401 79.1106C44.0531 79.6398 46.5857 80.925 48.4379 82.9662C50.3279 85.0074 51.2729 87.5211 51.2729 90.5073V91.4712C51.2729 91.6602 51.1973 91.8303 51.0461 91.9815C50.9327 92.0949 50.7815 92.1516 50.5925 92.1516H45.773C45.584 92.1516 45.4139 92.0949 45.2627 91.9815C45.1493 91.8303 45.0926 91.6602 45.0926 91.4712V90.8475C45.0926 89.0709 44.3933 87.5778 42.9947 86.3682C41.6339 85.1208 39.7439 84.4971 37.3247 84.4971C35.3213 84.4971 33.7715 84.9318 32.6753 85.8012C31.5791 86.6706 31.031 87.8991 31.031 89.4867C31.031 90.6207 31.3145 91.5468 31.8815 92.265C32.4863 92.9832 33.3557 93.6447 34.4897 94.2495C35.6615 94.8165 37.4381 95.5536 39.8195 96.4608C42.3899 97.4814 44.4311 98.4075 45.9431 99.2391C47.4929 100.071 48.8159 101.243 49.9121 102.755C51.0083 104.229 51.5564 106.081 51.5564 108.311ZM80.1549 100.09C80.9109 101.904 81.2889 103.983 81.2889 106.327C81.2889 108.443 80.9677 110.315 80.3251 111.94C79.4557 114.321 78.0193 116.174 76.0159 117.497C74.0124 118.782 71.5932 119.424 68.7582 119.424C65.961 119.424 63.5229 118.725 61.4439 117.326C59.4027 115.89 57.9474 113.962 57.078 111.543C56.6244 110.371 56.3598 108.84 56.2842 106.95C56.2842 106.497 56.511 106.27 56.9646 106.27H62.2377C62.6913 106.27 62.9181 106.497 62.9181 106.95C62.9937 108.16 63.1827 109.124 63.4851 109.842C63.8253 111.052 64.449 112.016 65.3562 112.734C66.3012 113.414 67.4352 113.754 68.7582 113.754C71.253 113.754 72.9729 112.62 73.918 110.352C74.4093 109.256 74.655 107.839 74.655 106.1C74.655 104.172 74.3715 102.584 73.8045 101.337C72.8218 99.2202 71.1208 98.1618 68.7015 98.1618C68.0589 98.1618 67.1895 98.5398 66.0933 99.2958C65.9421 99.3714 65.8098 99.4092 65.6964 99.4092C65.5074 99.4092 65.3184 99.2958 65.1294 99.069L62.5212 95.4402C62.4078 95.2512 62.3511 95.1 62.3511 94.9866C62.3511 94.7976 62.4267 94.6275 62.5779 94.4763L71.9335 85.2909C72.009 85.2153 72.0279 85.1397 71.9901 85.0641C71.9524 84.9885 71.8767 84.9507 71.7633 84.9507H57.5883C57.3993 84.9507 57.2292 84.894 57.078 84.7806C56.9646 84.6294 56.9079 84.4593 56.9079 84.2703V79.9611C56.9079 79.7721 56.9646 79.6209 57.078 79.5075C57.2292 79.3563 57.3993 79.2807 57.5883 79.2807H80.2117C80.4007 79.2807 80.5518 79.3563 80.6652 79.5075C80.8164 79.6209 80.892 79.7721 80.892 79.9611V84.894C80.892 85.2342 80.7786 85.5177 80.5518 85.7445L72.4437 93.9093C72.2925 94.0605 72.3681 94.1739 72.6705 94.2495C76.186 94.7409 78.6808 96.6876 80.1549 100.09ZM110.277 100.09C111.033 101.904 111.411 103.983 111.411 106.327C111.411 108.443 111.09 110.315 110.447 111.94C109.578 114.321 108.141 116.174 106.138 117.497C104.134 118.782 101.715 119.424 98.8801 119.424C96.0829 119.424 93.6448 118.725 91.5658 117.326C89.5246 115.89 88.0693 113.962 87.1999 111.543C86.7463 110.371 86.4817 108.84 86.4061 106.95C86.4061 106.497 86.6329 106.27 87.0865 106.27H92.3596C92.8132 106.27 93.04 106.497 93.04 106.95C93.1156 108.16 93.3046 109.124 93.607 109.842C93.9472 111.052 94.5709 112.016 95.4781 112.734C96.4231 113.414 97.5571 113.754 98.8801 113.754C101.375 113.754 103.095 112.62 104.04 110.352C104.531 109.256 104.777 107.839 104.777 106.1C104.777 104.172 104.493 102.584 103.926 101.337C102.944 99.2202 101.243 98.1618 98.8234 98.1618C98.1808 98.1618 97.3114 98.5398 96.2152 99.2958C96.064 99.3714 95.9317 99.4092 95.8183 99.4092C95.6293 99.4092 95.4403 99.2958 95.2513 99.069L92.6431 95.4402C92.5297 95.2512 92.473 95.1 92.473 94.9866C92.473 94.7976 92.5486 94.6275 92.6998 94.4763L102.055 85.2909C102.131 85.2153 102.15 85.1397 102.112 85.0641C102.074 84.9885 101.999 84.9507 101.885 84.9507H87.7102C87.5212 84.9507 87.3511 84.894 87.1999 84.7806C87.0865 84.6294 87.0298 84.4593 87.0298 84.2703V79.9611C87.0298 79.7721 87.0865 79.6209 87.1999 79.5075C87.3511 79.3563 87.5212 79.2807 87.7102 79.2807H110.334C110.523 79.2807 110.674 79.3563 110.787 79.5075C110.938 79.6209 111.014 79.7721 111.014 79.9611V84.894C111.014 85.2342 110.901 85.5177 110.674 85.7445L102.566 93.9093C102.414 94.0605 102.49 94.1739 102.792 94.2495C106.308 94.7409 108.803 96.6876 110.277 100.09ZM116.811 104.739C116.622 104.739 116.452 104.682 116.301 104.569C116.188 104.418 116.131 104.248 116.131 104.059V99.7494C116.131 99.5604 116.188 99.4092 116.301 99.2958C116.452 99.1446 116.622 99.069 116.811 99.069H134.672C134.861 99.069 135.012 99.1446 135.126 99.2958C135.277 99.4092 135.352 99.5604 135.352 99.7494V104.059C135.352 104.248 135.277 104.418 135.126 104.569C135.012 104.682 134.861 104.739 134.672 104.739H116.811ZM163.379 86.3115C163.984 87.8991 164.286 89.7513 164.286 91.8681V109.162C164.286 111.203 163.776 112.998 162.755 114.548C161.735 116.098 160.298 117.308 158.446 118.177C156.632 119.009 154.534 119.424 152.152 119.424C149.847 119.424 147.787 119.009 145.972 118.177C144.196 117.345 142.797 116.174 141.776 114.662C140.794 113.15 140.302 111.411 140.302 109.445V108.198C140.302 108.009 140.359 107.858 140.472 107.744C140.623 107.593 140.794 107.517 140.983 107.517H146.199C146.388 107.517 146.539 107.593 146.653 107.744C146.804 107.858 146.879 108.009 146.879 108.198V108.595C146.879 110.107 147.371 111.354 148.354 112.337C149.336 113.282 150.603 113.754 152.152 113.754C153.778 113.754 155.101 113.263 156.121 112.28C157.18 111.26 157.709 109.955 157.709 108.368V102.131C157.709 102.017 157.671 101.942 157.596 101.904C157.52 101.866 157.444 101.885 157.369 101.961C155.743 103.548 153.532 104.342 150.735 104.342C148.505 104.342 146.539 103.87 144.838 102.925C143.175 101.98 141.871 100.619 140.926 98.8422C139.867 96.9522 139.338 94.6086 139.338 91.8114C139.338 89.5056 139.716 87.4833 140.472 85.7445C141.379 83.5899 142.816 81.9078 144.781 80.6982C146.747 79.4886 149.072 78.8838 151.756 78.8838C154.591 78.8838 157.01 79.5453 159.013 80.8683C161.054 82.1535 162.51 83.9679 163.379 86.3115ZM156.802 95.9505C157.407 94.7409 157.709 93.2667 157.709 91.5279C157.709 90.0915 157.463 88.8252 156.972 87.729C156.065 85.65 154.364 84.6105 151.869 84.6105C149.45 84.6105 147.749 85.6311 146.766 87.6723C146.199 88.9197 145.915 90.2616 145.915 91.698C145.915 93.399 146.256 94.8543 146.936 96.0639C147.994 97.8783 149.62 98.7855 151.812 98.7855C154.156 98.7855 155.819 97.8405 156.802 95.9505ZM183.187 119.594C179.218 119.594 176.062 118.479 173.718 116.249C171.412 113.981 170.259 110.938 170.259 107.12V91.131C170.259 87.351 171.412 84.3648 173.718 82.1724C176.062 79.9422 179.218 78.8271 183.187 78.8271C187.156 78.8271 190.312 79.9422 192.656 82.1724C195.037 84.3648 196.228 87.351 196.228 91.131V107.12C196.228 110.938 195.037 113.981 192.656 116.249C190.312 118.479 187.156 119.594 183.187 119.594ZM183.187 113.868C185.152 113.868 186.721 113.301 187.893 112.167C189.065 110.995 189.651 109.426 189.651 107.461V90.9042C189.651 88.9386 189.065 87.3888 187.893 86.2548C186.721 85.083 185.152 84.4971 183.187 84.4971C181.259 84.4971 179.709 85.083 178.537 86.2548C177.403 87.3888 176.836 88.9386 176.836 90.9042V107.461C176.836 109.426 177.403 110.995 178.537 112.167C179.709 113.301 181.259 113.868 183.187 113.868ZM237.027 98.2752C236.8 98.3886 236.8 98.502 237.027 98.6154C240.882 100.43 242.81 103.548 242.81 107.971C242.81 111.562 241.6 114.302 239.181 116.192C236.8 118.045 233.681 118.971 229.826 118.971H215.537C215.348 118.971 215.178 118.914 215.027 118.801C214.914 118.649 214.857 118.479 214.857 118.29V79.9611C214.857 79.7721 214.914 79.6209 215.027 79.5075C215.178 79.3563 215.348 79.2807 215.537 79.2807H229.372C233.492 79.2807 236.667 80.169 238.898 81.9456C241.128 83.7222 242.243 86.406 242.243 89.997C242.243 93.966 240.504 96.7254 237.027 98.2752ZM221.718 84.9507C221.529 84.9507 221.434 85.0452 221.434 85.2342V95.7237C221.434 95.9127 221.529 96.0072 221.718 96.0072H229.372C231.375 96.0072 232.944 95.5347 234.078 94.5897C235.25 93.6069 235.836 92.265 235.836 90.564C235.836 88.8252 235.25 87.4644 234.078 86.4816C232.944 85.461 231.375 84.9507 229.372 84.9507H221.718ZM229.826 113.244C231.791 113.244 233.341 112.715 234.475 111.656C235.647 110.598 236.233 109.162 236.233 107.347C236.233 105.495 235.647 104.059 234.475 103.038C233.303 101.98 231.716 101.45 229.712 101.45H221.718C221.529 101.45 221.434 101.545 221.434 101.734V112.961C221.434 113.15 221.529 113.244 221.718 113.244H229.826Z" fill="black"/>
<path d="M40.5256 159.382C39.2555 159.382 38.1265 159.135 37.1387 158.641C36.1685 158.13 35.41 157.415 34.8631 156.498C34.3339 155.563 34.0693 154.496 34.0693 153.297V146.523C34.0693 145.306 34.3339 144.238 34.8631 143.321C35.41 142.404 36.1685 141.698 37.1387 141.204C38.1265 140.693 39.2555 140.437 40.5256 140.437C41.7956 140.437 42.9158 140.684 43.886 141.178C44.8562 141.672 45.6059 142.36 46.1351 143.242C46.6819 144.106 46.9553 145.085 46.9553 146.179V146.47C46.9553 146.646 46.8671 146.734 46.6907 146.734H44.6798C44.5034 146.734 44.4152 146.646 44.4152 146.47V146.232C44.4152 145.173 44.0536 144.318 43.3303 143.665C42.6247 142.995 41.6898 142.66 40.5256 142.66C39.3437 142.66 38.3911 143.004 37.6679 143.692C36.9623 144.38 36.6095 145.297 36.6095 146.443V153.376C36.6095 154.523 36.9799 155.44 37.7208 156.128C38.4617 156.816 39.4319 157.16 40.6314 157.16C41.7956 157.16 42.7129 156.86 43.3832 156.26C44.0712 155.643 44.4152 154.805 44.4152 153.746V151.709C44.4152 151.638 44.3799 151.603 44.3093 151.603H40.7372C40.5608 151.603 40.4726 151.515 40.4726 151.338V149.698C40.4726 149.522 40.5608 149.433 40.7372 149.433H46.6907C46.8671 149.433 46.9553 149.522 46.9553 149.698V153.058C46.9553 155.087 46.3732 156.648 45.209 157.742C44.0624 158.835 42.5012 159.382 40.5256 159.382ZM61.357 159.171C61.2159 159.171 61.1189 159.109 61.066 158.985L57.3616 151.074C57.3439 151.021 57.3086 150.995 57.2557 150.995H53.4455C53.3749 150.995 53.3396 151.03 53.3396 151.1V158.906C53.3396 159.082 53.2514 159.171 53.075 159.171H51.0641C50.8877 159.171 50.7995 159.082 50.7995 158.906V140.913C50.7995 140.737 50.8877 140.649 51.0641 140.649H58.1818C59.2402 140.649 60.1663 140.869 60.9601 141.31C61.7716 141.751 62.3978 142.369 62.8388 143.162C63.2798 143.956 63.5003 144.873 63.5003 145.914C63.5003 147.149 63.1739 148.199 62.5213 149.063C61.8862 149.91 60.9954 150.483 59.8488 150.783C59.7782 150.818 59.7606 150.862 59.7959 150.915L63.6326 158.853C63.6502 158.888 63.659 158.933 63.659 158.985C63.659 159.109 63.5885 159.171 63.4474 159.171H61.357ZM53.4455 142.845C53.3749 142.845 53.3396 142.88 53.3396 142.951V148.878C53.3396 148.948 53.3749 148.984 53.4455 148.984H57.8643C58.7992 148.984 59.5489 148.71 60.1134 148.163C60.6779 147.599 60.9601 146.858 60.9601 145.941C60.9601 145.006 60.6779 144.256 60.1134 143.692C59.5489 143.127 58.7992 142.845 57.8643 142.845H53.4455ZM73.0598 159.409C71.7721 159.409 70.6343 159.144 69.6464 158.615C68.6586 158.086 67.8913 157.345 67.3444 156.392C66.7976 155.422 66.5242 154.311 66.5242 153.058V146.761C66.5242 145.508 66.7976 144.406 67.3444 143.453C67.8913 142.501 68.6586 141.76 69.6464 141.231C70.6343 140.702 71.7721 140.437 73.0598 140.437C74.3651 140.437 75.5117 140.702 76.4996 141.231C77.4874 141.76 78.2548 142.501 78.8016 143.453C79.3484 144.406 79.6219 145.508 79.6219 146.761V153.058C79.6219 154.311 79.3484 155.422 78.8016 156.392C78.2548 157.345 77.4874 158.086 76.4996 158.615C75.5117 159.144 74.3651 159.409 73.0598 159.409ZM73.0598 157.213C74.2593 157.213 75.2295 156.842 75.9704 156.101C76.7113 155.36 77.0817 154.381 77.0817 153.164V146.734C77.0817 145.5 76.7113 144.512 75.9704 143.771C75.2295 143.012 74.2593 142.633 73.0598 142.633C71.8603 142.633 70.8901 143.012 70.1492 143.771C69.4259 144.512 69.0643 145.5 69.0643 146.734V153.164C69.0643 154.381 69.4259 155.36 70.1492 156.101C70.8901 156.842 71.8603 157.213 73.0598 157.213ZM87.0381 159.171C86.8793 159.171 86.7823 159.1 86.747 158.959L81.7726 140.94L81.7461 140.86C81.7461 140.719 81.8343 140.649 82.0107 140.649H84.154C84.3127 140.649 84.4097 140.728 84.445 140.887L87.9113 154.064C87.9289 154.099 87.9466 154.117 87.9642 154.117C87.9995 154.117 88.0259 154.099 88.0436 154.064L91.3246 140.887C91.3599 140.728 91.4569 140.649 91.6157 140.649H93.706C93.8648 140.649 93.9618 140.728 93.9971 140.887L97.4633 154.09C97.481 154.126 97.4986 154.143 97.5163 154.143C97.5339 154.143 97.5515 154.126 97.5692 154.09L101.062 140.887C101.097 140.728 101.194 140.649 101.353 140.649H103.364C103.452 140.649 103.514 140.675 103.549 140.728C103.602 140.781 103.62 140.852 103.602 140.94L98.8128 158.933C98.7775 159.091 98.6805 159.171 98.5217 159.171H96.4843C96.3256 159.171 96.2285 159.091 96.1933 158.933L92.727 145.279C92.7094 145.226 92.6917 145.2 92.6741 145.2C92.6564 145.2 92.6388 145.226 92.6212 145.279L89.2607 158.933C89.2431 159.091 89.1461 159.171 88.9697 159.171H87.0381ZM106.749 159.171C106.573 159.171 106.484 159.082 106.484 158.906V140.913C106.484 140.737 106.573 140.649 106.749 140.649H108.76C108.936 140.649 109.025 140.737 109.025 140.913V158.906C109.025 159.082 108.936 159.171 108.76 159.171H106.749ZM124.259 140.913C124.259 140.737 124.347 140.649 124.524 140.649H126.535C126.711 140.649 126.799 140.737 126.799 140.913V158.906C126.799 159.082 126.711 159.171 126.535 159.171H124.603C124.48 159.171 124.374 159.109 124.286 158.985L116.004 145.464C115.986 145.411 115.96 145.394 115.924 145.411C115.889 145.411 115.871 145.438 115.871 145.491L115.898 158.906C115.898 159.082 115.81 159.171 115.633 159.171H113.622C113.446 159.171 113.358 159.082 113.358 158.906V140.913C113.358 140.737 113.446 140.649 113.622 140.649H115.58C115.704 140.649 115.81 140.71 115.898 140.834L124.153 154.355C124.171 154.408 124.198 154.434 124.233 154.434C124.268 154.417 124.286 154.381 124.286 154.328L124.259 140.913ZM137.115 159.382C135.845 159.382 134.716 159.135 133.728 158.641C132.758 158.13 131.999 157.415 131.452 156.498C130.923 155.563 130.659 154.496 130.659 153.297V146.523C130.659 145.306 130.923 144.238 131.452 143.321C131.999 142.404 132.758 141.698 133.728 141.204C134.716 140.693 135.845 140.437 137.115 140.437C138.385 140.437 139.505 140.684 140.475 141.178C141.446 141.672 142.195 142.36 142.724 143.242C143.271 144.106 143.545 145.085 143.545 146.179V146.47C143.545 146.646 143.456 146.734 143.28 146.734H141.269C141.093 146.734 141.005 146.646 141.005 146.47V146.232C141.005 145.173 140.643 144.318 139.92 143.665C139.214 142.995 138.279 142.66 137.115 142.66C135.933 142.66 134.98 143.004 134.257 143.692C133.552 144.38 133.199 145.297 133.199 146.443V153.376C133.199 154.523 133.569 155.44 134.31 156.128C135.051 156.816 136.021 157.16 137.221 157.16C138.385 157.16 139.302 156.86 139.973 156.26C140.661 155.643 141.005 154.805 141.005 153.746V151.709C141.005 151.638 140.969 151.603 140.899 151.603H137.327C137.15 151.603 137.062 151.515 137.062 151.338V149.698C137.062 149.522 137.15 149.433 137.327 149.433H143.28C143.456 149.433 143.545 149.522 143.545 149.698V153.058C143.545 155.087 142.963 156.648 141.798 157.742C140.652 158.835 139.091 159.382 137.115 159.382ZM155.014 140.728C155.12 140.675 155.235 140.649 155.358 140.649H157.449C157.625 140.649 157.713 140.737 157.713 140.913V158.906C157.713 159.082 157.625 159.171 157.449 159.171H155.438C155.261 159.171 155.173 159.082 155.173 158.906V143.374C155.173 143.339 155.156 143.312 155.12 143.295C155.103 143.277 155.076 143.277 155.041 143.295L152.263 144.247C152.227 144.265 152.183 144.274 152.13 144.274C152.024 144.274 151.963 144.203 151.945 144.062L151.839 142.554C151.839 142.377 151.892 142.272 151.998 142.236L155.014 140.728ZM172.202 150.968C172.396 151.744 172.493 152.547 172.493 153.376C172.493 154.205 172.387 154.972 172.175 155.678C171.84 156.807 171.196 157.707 170.244 158.377C169.309 159.03 168.189 159.356 166.883 159.356C165.596 159.356 164.493 159.038 163.576 158.403C162.659 157.768 162.015 156.904 161.644 155.81C161.468 155.316 161.371 154.884 161.353 154.514V154.461C161.353 154.32 161.433 154.249 161.591 154.249H163.682C163.841 154.249 163.929 154.328 163.946 154.487C163.964 154.611 164.008 154.796 164.079 155.043C164.273 155.696 164.608 156.216 165.084 156.604C165.578 156.974 166.169 157.16 166.857 157.16C167.58 157.16 168.189 156.966 168.683 156.578C169.194 156.172 169.538 155.616 169.715 154.911C169.838 154.54 169.9 154.029 169.9 153.376C169.9 152.794 169.847 152.256 169.741 151.762C169.618 151.092 169.3 150.58 168.789 150.227C168.295 149.857 167.677 149.672 166.936 149.672C166.248 149.672 165.631 149.83 165.084 150.148C164.537 150.448 164.185 150.853 164.026 151.365C163.973 151.524 163.876 151.603 163.735 151.603H161.618C161.441 151.603 161.353 151.515 161.353 151.338V140.913C161.353 140.737 161.441 140.649 161.618 140.649H171.514C171.69 140.649 171.779 140.737 171.779 140.913V142.58C171.779 142.757 171.69 142.845 171.514 142.845H163.999C163.929 142.845 163.893 142.88 163.893 142.951L163.867 148.481C163.867 148.587 163.911 148.613 163.999 148.56C164.423 148.19 164.908 147.916 165.455 147.74C166.019 147.546 166.61 147.449 167.227 147.449C168.462 147.449 169.521 147.758 170.403 148.375C171.302 148.992 171.902 149.857 172.202 150.968ZM174.859 152.185C174.683 152.185 174.595 152.097 174.595 151.921V150.254C174.595 150.077 174.683 149.989 174.859 149.989H183.036C183.212 149.989 183.3 150.077 183.3 150.254V151.921C183.3 152.097 183.212 152.185 183.036 152.185H174.859ZM188.999 156.842C188.982 156.877 188.982 156.913 188.999 156.948C189.017 156.966 189.044 156.974 189.079 156.974H197.043C197.22 156.974 197.308 157.063 197.308 157.239V158.906C197.308 159.082 197.22 159.171 197.043 159.171H185.957C185.78 159.171 185.692 159.082 185.692 158.906V157.292C185.692 157.169 185.736 157.063 185.824 156.974C186.424 156.287 187.8 154.672 189.952 152.132L191.778 149.936C193.418 147.978 194.239 146.461 194.239 145.385C194.239 144.556 193.956 143.894 193.392 143.4C192.845 142.889 192.113 142.633 191.196 142.633C190.278 142.633 189.546 142.889 188.999 143.4C188.453 143.912 188.188 144.582 188.206 145.411V146.205C188.206 146.382 188.117 146.47 187.941 146.47H185.904C185.727 146.47 185.639 146.382 185.639 146.205V145.067C185.674 144.15 185.93 143.339 186.406 142.633C186.9 141.928 187.562 141.39 188.391 141.019C189.22 140.631 190.155 140.437 191.196 140.437C192.325 140.437 193.312 140.649 194.159 141.072C195.006 141.495 195.659 142.077 196.117 142.818C196.576 143.559 196.805 144.397 196.805 145.332C196.805 146.796 196.011 148.525 194.424 150.518C193.718 151.418 192.88 152.432 191.91 153.561C190.94 154.672 189.97 155.766 188.999 156.842ZM206.118 159.435C204.336 159.435 202.916 158.933 201.858 157.927C200.817 156.904 200.296 155.537 200.296 153.826V145.994C200.296 144.282 200.817 142.924 201.858 141.919C202.916 140.913 204.336 140.411 206.118 140.411C207.899 140.411 209.319 140.913 210.378 141.919C211.454 142.924 211.992 144.282 211.992 145.994V153.826C211.992 155.537 211.454 156.904 210.378 157.927C209.319 158.933 207.899 159.435 206.118 159.435ZM206.118 157.239C207.141 157.239 207.952 156.948 208.552 156.366C209.152 155.766 209.452 154.972 209.452 153.984V145.888C209.452 144.9 209.152 144.115 208.552 143.533C207.952 142.933 207.141 142.633 206.118 142.633C205.13 142.633 204.336 142.933 203.736 143.533C203.136 144.115 202.837 144.9 202.837 145.888V153.984C202.837 154.972 203.136 155.766 203.736 156.366C204.336 156.948 205.13 157.239 206.118 157.239ZM219.782 148.243C219.058 148.243 218.388 148.066 217.771 147.713C217.171 147.361 216.695 146.884 216.342 146.285C215.989 145.685 215.813 145.023 215.813 144.3C215.813 143.595 215.989 142.942 216.342 142.342C216.695 141.742 217.171 141.275 217.771 140.94C218.388 140.587 219.058 140.411 219.782 140.411C220.487 140.411 221.14 140.587 221.74 140.94C222.34 141.293 222.816 141.769 223.169 142.369C223.521 142.951 223.698 143.595 223.698 144.3C223.698 145.023 223.521 145.685 223.169 146.285C222.816 146.884 222.34 147.361 221.74 147.713C221.14 148.066 220.487 148.243 219.782 148.243ZM219.014 159.171C218.909 159.171 218.838 159.144 218.803 159.091C218.767 159.021 218.776 158.941 218.829 158.853L228.831 140.834C228.902 140.71 229.007 140.649 229.149 140.649H230.445C230.551 140.649 230.622 140.684 230.657 140.754C230.692 140.807 230.683 140.878 230.63 140.966L220.628 158.985C220.576 159.109 220.47 159.171 220.311 159.171H219.014ZM219.782 146.682C220.434 146.682 220.981 146.452 221.422 145.994C221.863 145.535 222.084 144.97 222.084 144.3C222.084 143.647 221.854 143.101 221.396 142.66C220.955 142.201 220.417 141.972 219.782 141.972C219.129 141.972 218.573 142.201 218.115 142.66C217.656 143.101 217.427 143.647 217.427 144.3C217.427 144.97 217.656 145.535 218.115 145.994C218.573 146.452 219.129 146.682 219.782 146.682ZM229.863 159.409C229.14 159.409 228.469 159.232 227.852 158.88C227.252 158.527 226.776 158.051 226.423 157.451C226.07 156.851 225.894 156.198 225.894 155.493C225.894 154.787 226.07 154.134 226.423 153.535C226.776 152.935 227.252 152.459 227.852 152.106C228.469 151.753 229.14 151.577 229.863 151.577C230.569 151.577 231.221 151.753 231.821 152.106C232.421 152.459 232.897 152.935 233.25 153.535C233.603 154.134 233.779 154.787 233.779 155.493C233.779 156.198 233.603 156.851 233.25 157.451C232.897 158.051 232.421 158.527 231.821 158.88C231.221 159.232 230.569 159.409 229.863 159.409ZM229.863 157.848C230.516 157.848 231.063 157.618 231.504 157.16C231.945 156.701 232.165 156.145 232.165 155.493C232.165 154.84 231.936 154.284 231.477 153.826C231.036 153.367 230.498 153.138 229.863 153.138C229.21 153.138 228.655 153.367 228.196 153.826C227.737 154.284 227.508 154.84 227.508 155.493C227.508 156.145 227.737 156.701 228.196 157.16C228.655 157.618 229.21 157.848 229.863 157.848Z" fill="black"/>
<path d="M51.2046 190.641C50.2974 190.641 49.491 190.464 48.7854 190.112C48.0924 189.746 47.5506 189.236 47.16 188.581C46.782 187.913 46.593 187.151 46.593 186.294V181.399C46.593 180.542 46.782 179.792 47.16 179.15C47.5506 178.494 48.0924 177.99 48.7854 177.638C49.491 177.272 50.2974 177.09 51.2046 177.09C52.1118 177.09 52.9119 177.266 53.6049 177.619C54.2979 177.959 54.8334 178.444 55.2114 179.074C55.602 179.704 55.7973 180.435 55.7973 181.266V181.285C55.7973 181.348 55.7784 181.399 55.7406 181.437C55.7028 181.474 55.6587 181.493 55.6083 181.493L54.1719 181.569C54.0459 181.569 53.9829 181.512 53.9829 181.399V181.342C53.9829 180.536 53.7309 179.887 53.2269 179.395C52.7229 178.904 52.0488 178.658 51.2046 178.658C50.3604 178.658 49.68 178.904 49.1634 179.395C48.6594 179.887 48.4074 180.536 48.4074 181.342V186.369C48.4074 187.176 48.6594 187.825 49.1634 188.316C49.68 188.808 50.3604 189.053 51.2046 189.053C52.0488 189.053 52.7229 188.808 53.2269 188.316C53.7309 187.825 53.9829 187.176 53.9829 186.369V186.332C53.9829 186.218 54.0459 186.162 54.1719 186.162L55.6083 186.237C55.7343 186.237 55.7973 186.3 55.7973 186.426C55.7973 187.258 55.602 187.995 55.2114 188.637C54.8334 189.267 54.2979 189.759 53.6049 190.112C52.9119 190.464 52.1118 190.641 51.2046 190.641ZM66.3542 190.471C66.2408 190.471 66.1652 190.42 66.1274 190.32L65.447 188.108C65.4344 188.07 65.4092 188.052 65.3714 188.052H60.0605C60.0227 188.052 59.9975 188.07 59.9849 188.108L59.3045 190.32C59.2667 190.42 59.1911 190.471 59.0777 190.471H57.5468C57.4082 190.471 57.3578 190.401 57.3956 190.263L61.5347 177.392C61.5725 177.291 61.6481 177.241 61.7615 177.241H63.6515C63.7649 177.241 63.8405 177.291 63.8783 177.392L68.0552 190.263L68.0741 190.338C68.0741 190.427 68.0174 190.471 67.904 190.471H66.3542ZM60.4574 186.521C60.4448 186.546 60.4448 186.571 60.4574 186.596C60.4826 186.609 60.5078 186.615 60.533 186.615H64.88C64.9052 186.615 64.9241 186.609 64.9367 186.596C64.9619 186.571 64.9682 186.546 64.9556 186.521L62.7632 179.509C62.7506 179.484 62.7317 179.471 62.7065 179.471C62.6813 179.471 62.6624 179.484 62.6498 179.509L60.4574 186.521ZM74.2021 190.622C73.2949 190.622 72.4885 190.446 71.7829 190.093C71.0899 189.727 70.5481 189.217 70.1575 188.562C69.7795 187.894 69.5905 187.132 69.5905 186.275V181.437C69.5905 180.567 69.7795 179.805 70.1575 179.15C70.5481 178.494 71.0899 177.99 71.7829 177.638C72.4885 177.272 73.2949 177.09 74.2021 177.09C75.1093 177.09 75.9094 177.266 76.6024 177.619C77.2954 177.972 77.8309 178.463 78.2089 179.093C78.5995 179.71 78.7948 180.41 78.7948 181.191V181.399C78.7948 181.525 78.7318 181.588 78.6058 181.588H77.1694C77.0434 181.588 76.9804 181.525 76.9804 181.399V181.229C76.9804 180.473 76.7221 179.862 76.2055 179.395C75.7015 178.917 75.0337 178.677 74.2021 178.677C73.3579 178.677 72.6775 178.923 72.1609 179.414C71.6569 179.906 71.4049 180.561 71.4049 181.38V186.332C71.4049 187.151 71.6695 187.806 72.1987 188.297C72.7279 188.789 73.4209 189.034 74.2777 189.034C75.1093 189.034 75.7645 188.82 76.2433 188.392C76.7347 187.951 76.9804 187.352 76.9804 186.596V185.141C76.9804 185.091 76.9552 185.065 76.9048 185.065H74.3533C74.2273 185.065 74.1643 185.002 74.1643 184.876V183.705C74.1643 183.579 74.2273 183.516 74.3533 183.516H78.6058C78.7318 183.516 78.7948 183.579 78.7948 183.705V186.105C78.7948 187.554 78.379 188.669 77.5474 189.45C76.7284 190.231 75.6133 190.622 74.2021 190.622ZM89.0817 190.471C88.9809 190.471 88.9116 190.427 88.8738 190.338L86.2278 184.687C86.2152 184.65 86.19 184.631 86.1522 184.631H83.4306C83.3802 184.631 83.355 184.656 83.355 184.706V190.282C83.355 190.408 83.292 190.471 83.166 190.471H81.7296C81.6036 190.471 81.5406 190.408 81.5406 190.282V177.43C81.5406 177.304 81.6036 177.241 81.7296 177.241H86.8137C87.5697 177.241 88.2312 177.398 88.7982 177.713C89.3778 178.028 89.8251 178.469 90.1401 179.036C90.4551 179.603 90.6126 180.258 90.6126 181.002C90.6126 181.884 90.3795 182.634 89.9133 183.251C89.4597 183.856 88.8234 184.265 88.0044 184.479C87.954 184.505 87.9414 184.536 87.9666 184.574L90.7071 190.244C90.7197 190.269 90.726 190.301 90.726 190.338C90.726 190.427 90.6756 190.471 90.5748 190.471H89.0817ZM83.4306 178.809C83.3802 178.809 83.355 178.835 83.355 178.885V183.119C83.355 183.169 83.3802 183.194 83.4306 183.194H86.5869C87.2547 183.194 87.7902 182.999 88.1934 182.608C88.5966 182.205 88.7982 181.676 88.7982 181.021C88.7982 180.353 88.5966 179.817 88.1934 179.414C87.7902 179.011 87.2547 178.809 86.5869 178.809H83.4306ZM105.326 177.241C105.452 177.241 105.515 177.304 105.515 177.43V178.639C105.515 178.765 105.452 178.828 105.326 178.828H101.697C101.647 178.828 101.621 178.854 101.621 178.904V190.282C101.621 190.408 101.558 190.471 101.432 190.471H99.996C99.87 190.471 99.807 190.408 99.807 190.282V178.904C99.807 178.854 99.7818 178.828 99.7314 178.828H96.2727C96.1467 178.828 96.0837 178.765 96.0837 178.639V177.43C96.0837 177.304 96.1467 177.241 96.2727 177.241H105.326ZM115.12 177.43C115.12 177.304 115.183 177.241 115.309 177.241H116.746C116.872 177.241 116.935 177.304 116.935 177.43V190.282C116.935 190.408 116.872 190.471 116.746 190.471H115.309C115.183 190.471 115.12 190.408 115.12 190.282V184.668C115.12 184.618 115.095 184.593 115.045 184.593H109.658C109.608 184.593 109.582 184.618 109.582 184.668V190.282C109.582 190.408 109.519 190.471 109.393 190.471H107.957C107.831 190.471 107.768 190.408 107.768 190.282V177.43C107.768 177.304 107.831 177.241 107.957 177.241H109.393C109.519 177.241 109.582 177.304 109.582 177.43V182.949C109.582 182.999 109.608 183.024 109.658 183.024H115.045C115.095 183.024 115.12 182.999 115.12 182.949V177.43ZM127.491 190.471C127.39 190.471 127.321 190.427 127.283 190.338L124.637 184.687C124.624 184.65 124.599 184.631 124.561 184.631H121.84C121.789 184.631 121.764 184.656 121.764 184.706V190.282C121.764 190.408 121.701 190.471 121.575 190.471H120.139C120.013 190.471 119.95 190.408 119.95 190.282V177.43C119.95 177.304 120.013 177.241 120.139 177.241H125.223C125.979 177.241 126.64 177.398 127.207 177.713C127.787 178.028 128.234 178.469 128.549 179.036C128.864 179.603 129.022 180.258 129.022 181.002C129.022 181.884 128.789 182.634 128.322 183.251C127.869 183.856 127.233 184.265 126.414 184.479C126.363 184.505 126.351 184.536 126.376 184.574L129.116 190.244C129.129 190.269 129.135 190.301 129.135 190.338C129.135 190.427 129.085 190.471 128.984 190.471H127.491ZM121.84 178.809C121.789 178.809 121.764 178.835 121.764 178.885V183.119C121.764 183.169 121.789 183.194 121.84 183.194H124.996C125.664 183.194 126.199 182.999 126.603 182.608C127.006 182.205 127.207 181.676 127.207 181.021C127.207 180.353 127.006 179.817 126.603 179.414C126.199 179.011 125.664 178.809 124.996 178.809H121.84ZM135.85 190.641C134.93 190.641 134.117 190.452 133.412 190.074C132.706 189.696 132.158 189.167 131.768 188.486C131.377 187.793 131.182 186.999 131.182 186.105V181.607C131.182 180.712 131.377 179.925 131.768 179.244C132.158 178.564 132.706 178.035 133.412 177.657C134.117 177.279 134.93 177.09 135.85 177.09C136.782 177.09 137.601 177.279 138.307 177.657C139.013 178.035 139.561 178.564 139.951 179.244C140.342 179.925 140.537 180.712 140.537 181.607V186.105C140.537 186.999 140.342 187.793 139.951 188.486C139.561 189.167 139.013 189.696 138.307 190.074C137.601 190.452 136.782 190.641 135.85 190.641ZM135.85 189.072C136.707 189.072 137.4 188.808 137.929 188.278C138.458 187.749 138.723 187.05 138.723 186.18V181.588C138.723 180.706 138.458 180 137.929 179.471C137.4 178.929 136.707 178.658 135.85 178.658C134.993 178.658 134.3 178.929 133.771 179.471C133.254 180 132.996 180.706 132.996 181.588V186.18C132.996 187.05 133.254 187.749 133.771 188.278C134.3 188.808 134.993 189.072 135.85 189.072ZM147.815 190.622C146.895 190.622 146.082 190.446 145.377 190.093C144.684 189.727 144.142 189.217 143.751 188.562C143.361 187.894 143.166 187.132 143.166 186.275V177.43C143.166 177.304 143.229 177.241 143.355 177.241H144.791C144.917 177.241 144.98 177.304 144.98 177.43V186.313C144.98 187.132 145.238 187.793 145.755 188.297C146.284 188.801 146.971 189.053 147.815 189.053C148.659 189.053 149.34 188.801 149.856 188.297C150.373 187.793 150.631 187.132 150.631 186.313V177.43C150.631 177.304 150.694 177.241 150.82 177.241H152.256C152.382 177.241 152.445 177.304 152.445 177.43V186.275C152.445 187.132 152.25 187.894 151.86 188.562C151.482 189.217 150.94 189.727 150.234 190.093C149.541 190.446 148.735 190.622 147.815 190.622ZM159.455 190.622C158.548 190.622 157.742 190.446 157.036 190.093C156.343 189.727 155.801 189.217 155.411 188.562C155.033 187.894 154.844 187.132 154.844 186.275V181.437C154.844 180.567 155.033 179.805 155.411 179.15C155.801 178.494 156.343 177.99 157.036 177.638C157.742 177.272 158.548 177.09 159.455 177.09C160.362 177.09 161.162 177.266 161.855 177.619C162.548 177.972 163.084 178.463 163.462 179.093C163.853 179.71 164.048 180.41 164.048 181.191V181.399C164.048 181.525 163.985 181.588 163.859 181.588H162.422C162.296 181.588 162.233 181.525 162.233 181.399V181.229C162.233 180.473 161.975 179.862 161.459 179.395C160.955 178.917 160.287 178.677 159.455 178.677C158.611 178.677 157.931 178.923 157.414 179.414C156.91 179.906 156.658 180.561 156.658 181.38V186.332C156.658 187.151 156.923 187.806 157.452 188.297C157.981 188.789 158.674 189.034 159.531 189.034C160.362 189.034 161.018 188.82 161.496 188.392C161.988 187.951 162.233 187.352 162.233 186.596V185.141C162.233 185.091 162.208 185.065 162.158 185.065H159.606C159.48 185.065 159.417 185.002 159.417 184.876V183.705C159.417 183.579 159.48 183.516 159.606 183.516H163.859C163.985 183.516 164.048 183.579 164.048 183.705V186.105C164.048 187.554 163.632 188.669 162.8 189.45C161.981 190.231 160.866 190.622 159.455 190.622ZM174.146 177.43C174.146 177.304 174.209 177.241 174.335 177.241H175.771C175.897 177.241 175.96 177.304 175.96 177.43V190.282C175.96 190.408 175.897 190.471 175.771 190.471H174.335C174.209 190.471 174.146 190.408 174.146 190.282V184.668C174.146 184.618 174.121 184.593 174.07 184.593H168.684C168.633 184.593 168.608 184.618 168.608 184.668V190.282C168.608 190.408 168.545 190.471 168.419 190.471H166.983C166.857 190.471 166.794 190.408 166.794 190.282V177.43C166.794 177.304 166.857 177.241 166.983 177.241H168.419C168.545 177.241 168.608 177.304 168.608 177.43V182.949C168.608 182.999 168.633 183.024 168.684 183.024H174.07C174.121 183.024 174.146 182.999 174.146 182.949V177.43ZM184.592 188.808C184.58 188.833 184.58 188.858 184.592 188.883C184.605 188.896 184.624 188.902 184.649 188.902H190.338C190.464 188.902 190.527 188.965 190.527 189.091V190.282C190.527 190.408 190.464 190.471 190.338 190.471H182.419C182.293 190.471 182.23 190.408 182.23 190.282V189.129C182.23 189.041 182.261 188.965 182.324 188.902C182.753 188.411 183.735 187.258 185.273 185.443L186.577 183.875C187.749 182.476 188.334 181.392 188.334 180.624C188.334 180.032 188.133 179.559 187.73 179.206C187.339 178.841 186.816 178.658 186.161 178.658C185.506 178.658 184.983 178.841 184.592 179.206C184.202 179.572 184.013 180.051 184.025 180.643V181.21C184.025 181.336 183.962 181.399 183.836 181.399H182.381C182.255 181.399 182.192 181.336 182.192 181.21V180.397C182.217 179.742 182.4 179.162 182.74 178.658C183.093 178.154 183.565 177.77 184.158 177.505C184.75 177.228 185.418 177.09 186.161 177.09C186.967 177.09 187.673 177.241 188.278 177.543C188.883 177.846 189.349 178.261 189.676 178.791C190.004 179.32 190.168 179.918 190.168 180.586C190.168 181.632 189.601 182.867 188.467 184.29C187.963 184.933 187.364 185.658 186.671 186.464C185.978 187.258 185.285 188.039 184.592 188.808ZM196.82 190.66C195.547 190.66 194.533 190.301 193.777 189.582C193.033 188.852 192.662 187.875 192.662 186.653V181.059C192.662 179.836 193.033 178.866 193.777 178.148C194.533 177.43 195.547 177.071 196.82 177.071C198.092 177.071 199.106 177.43 199.862 178.148C200.631 178.866 201.015 179.836 201.015 181.059V186.653C201.015 187.875 200.631 188.852 199.862 189.582C199.106 190.301 198.092 190.66 196.82 190.66ZM196.82 189.091C197.55 189.091 198.13 188.883 198.558 188.467C198.987 188.039 199.201 187.472 199.201 186.766V180.983C199.201 180.277 198.987 179.717 198.558 179.301C198.13 178.872 197.55 178.658 196.82 178.658C196.114 178.658 195.547 178.872 195.119 179.301C194.69 179.717 194.476 180.277 194.476 180.983V186.766C194.476 187.472 194.69 188.039 195.119 188.467C195.547 188.883 196.114 189.091 196.82 189.091ZM210.643 184.196C210.895 184.813 211.021 185.525 211.021 186.332C211.021 186.999 210.92 187.617 210.719 188.184C210.442 188.965 209.982 189.57 209.339 189.998C208.696 190.414 207.922 190.622 207.014 190.622C206.107 190.622 205.32 190.389 204.652 189.923C203.997 189.456 203.537 188.826 203.272 188.033C203.134 187.68 203.052 187.176 203.026 186.521C203.026 186.395 203.089 186.332 203.215 186.332H204.671C204.797 186.332 204.86 186.395 204.86 186.521C204.885 186.974 204.935 187.308 205.011 187.522C205.137 187.989 205.37 188.36 205.71 188.637C206.063 188.915 206.498 189.053 207.014 189.053C207.972 189.053 208.615 188.619 208.942 187.749C209.106 187.371 209.188 186.88 209.188 186.275C209.188 185.632 209.087 185.059 208.885 184.555C208.533 183.774 207.903 183.383 206.995 183.383C206.781 183.383 206.51 183.478 206.183 183.667C206.132 183.692 206.095 183.705 206.069 183.705C206.006 183.705 205.956 183.673 205.918 183.61L205.2 182.627C205.175 182.577 205.162 182.533 205.162 182.495C205.162 182.457 205.181 182.413 205.219 182.363L208.451 178.904C208.489 178.841 208.476 178.809 208.413 178.809H203.386C203.26 178.809 203.197 178.746 203.197 178.62V177.43C203.197 177.304 203.26 177.241 203.386 177.241H210.719C210.845 177.241 210.908 177.304 210.908 177.43V178.791C210.908 178.854 210.876 178.929 210.813 179.017L207.94 182.155C207.915 182.18 207.909 182.205 207.922 182.23C207.934 182.243 207.959 182.256 207.997 182.268C208.64 182.331 209.182 182.533 209.623 182.873C210.064 183.201 210.404 183.642 210.643 184.196ZM217.436 190.66C216.163 190.66 215.149 190.301 214.393 189.582C213.65 188.852 213.278 187.875 213.278 186.653V181.059C213.278 179.836 213.65 178.866 214.393 178.148C215.149 177.43 216.163 177.071 217.436 177.071C218.709 177.071 219.723 177.43 220.479 178.148C221.248 178.866 221.632 179.836 221.632 181.059V186.653C221.632 187.875 221.248 188.852 220.479 189.582C219.723 190.301 218.709 190.66 217.436 190.66ZM217.436 189.091C218.167 189.091 218.746 188.883 219.175 188.467C219.603 188.039 219.817 187.472 219.817 186.766V180.983C219.817 180.277 219.603 179.717 219.175 179.301C218.746 178.872 218.167 178.658 217.436 178.658C216.73 178.658 216.163 178.872 215.735 179.301C215.307 179.717 215.092 180.277 215.092 180.983V186.766C215.092 187.472 215.307 188.039 215.735 188.467C216.163 188.883 216.73 189.091 217.436 189.091Z" fill="black"/>
<rect x="29.0977" width="212" height="59" rx="14" fill="url(#paint0_linear_8288_17018)"/>
<path d="M59.5757 20.6248C59.6783 20.5016 59.8015 20.44 59.9453 20.44H62.2861C62.4914 20.44 62.5941 20.5427 62.5941 20.748V41.692C62.5941 41.8973 62.4914 42 62.2861 42H59.9453C59.7399 42 59.6373 41.8973 59.6373 41.692V25.9224C59.6373 25.8608 59.6167 25.8197 59.5757 25.7992C59.5346 25.7787 59.5038 25.7992 59.4833 25.8608L55.0789 32.5752C54.9967 32.6984 54.8735 32.76 54.7093 32.76H53.5389C53.3951 32.76 53.2719 32.6984 53.1693 32.5752L48.7341 25.9224C48.7135 25.8608 48.6827 25.8403 48.6417 25.8608C48.6006 25.8813 48.5801 25.9224 48.5801 25.984V41.692C48.5801 41.8973 48.4774 42 48.2721 42H45.9313C45.7259 42 45.6233 41.8973 45.6233 41.692V20.748C45.6233 20.5427 45.7259 20.44 45.9313 20.44H48.2721C48.4363 20.44 48.5595 20.5016 48.6417 20.6248L54.0317 28.6944C54.0522 28.7149 54.083 28.7252 54.1241 28.7252C54.1651 28.7252 54.1959 28.7149 54.2165 28.6944L59.5757 20.6248ZM80.7304 42C80.5456 42 80.4224 41.9179 80.3608 41.7536L79.252 38.15C79.2315 38.0884 79.1904 38.0576 79.1288 38.0576H70.474C70.4124 38.0576 70.3714 38.0884 70.3508 38.15L69.242 41.7536C69.1804 41.9179 69.0572 42 68.8724 42H66.3776C66.1518 42 66.0696 41.8871 66.1312 41.6612L72.8764 20.6864C72.938 20.5221 73.0612 20.44 73.246 20.44H76.326C76.5108 20.44 76.634 20.5221 76.6956 20.6864L83.5024 41.6612L83.5332 41.7844C83.5332 41.9281 83.4408 42 83.256 42H80.7304ZM71.1208 35.5628C71.1003 35.6039 71.1003 35.6449 71.1208 35.686C71.1619 35.7065 71.203 35.7168 71.244 35.7168H78.328C78.3691 35.7168 78.3999 35.7065 78.4204 35.686C78.4615 35.6449 78.4718 35.6039 78.4512 35.5628L74.8784 24.136C74.8579 24.0949 74.8271 24.0744 74.786 24.0744C74.745 24.0744 74.7142 24.0949 74.6936 24.136L71.1208 35.5628ZM99.33 42C99.1658 42 99.0528 41.9281 98.9912 41.7844L94.6792 32.5752C94.6587 32.5136 94.6176 32.4828 94.556 32.4828H90.1208C90.0387 32.4828 89.9976 32.5239 89.9976 32.606V41.692C89.9976 41.8973 89.895 42 89.6896 42H87.3488C87.1435 42 87.0408 41.8973 87.0408 41.692V20.748C87.0408 20.5427 87.1435 20.44 87.3488 20.44H95.634C96.866 20.44 97.944 20.6967 98.868 21.21C99.8126 21.7233 100.542 22.442 101.055 23.366C101.568 24.29 101.825 25.3577 101.825 26.5692C101.825 28.0065 101.445 29.2283 100.685 30.2344C99.946 31.22 98.9091 31.8873 97.5744 32.2364C97.4923 32.2775 97.4718 32.3288 97.5128 32.3904L101.979 41.6304C101.999 41.6715 102.01 41.7228 102.01 41.7844C102.01 41.9281 101.928 42 101.763 42H99.33ZM90.1208 22.9964C90.0387 22.9964 89.9976 23.0375 89.9976 23.1196V30.0188C89.9976 30.1009 90.0387 30.142 90.1208 30.142H95.2644C96.3527 30.142 97.2254 29.8237 97.8824 29.1872C98.5395 28.5301 98.868 27.6677 98.868 26.6C98.868 25.5117 98.5395 24.6391 97.8824 23.982C97.2254 23.3249 96.3527 22.9964 95.2644 22.9964H90.1208ZM106.238 42C106.033 42 105.93 41.8973 105.93 41.692V20.748C105.93 20.5427 106.033 20.44 106.238 20.44H108.579C108.784 20.44 108.887 20.5427 108.887 20.748V30.5732C108.887 30.6143 108.907 30.6451 108.948 30.6656C108.989 30.6656 109.02 30.6451 109.041 30.604L117.849 20.6248C117.932 20.5016 118.055 20.44 118.219 20.44H120.899C121.022 20.44 121.104 20.4811 121.145 20.5632C121.186 20.6248 121.166 20.7069 121.083 20.8096L113.753 29.4644C113.733 29.526 113.733 29.5876 113.753 29.6492L121.607 41.6304C121.648 41.7125 121.669 41.7741 121.669 41.8152C121.669 41.9384 121.587 42 121.422 42H118.743C118.599 42 118.476 41.9384 118.373 41.8152L111.72 31.7436C111.7 31.7025 111.669 31.682 111.628 31.682C111.587 31.682 111.556 31.6923 111.535 31.7128L108.948 34.608C108.907 34.6901 108.887 34.7415 108.887 34.762V41.692C108.887 41.8973 108.784 42 108.579 42H106.238ZM139.231 22.6884C139.231 22.8937 139.129 22.9964 138.923 22.9964H127.989C127.907 22.9964 127.866 23.0375 127.866 23.1196V29.7416C127.866 29.8237 127.907 29.8648 127.989 29.8648H135.504C135.71 29.8648 135.812 29.9675 135.812 30.1728V32.1132C135.812 32.3185 135.71 32.4212 135.504 32.4212H127.989C127.907 32.4212 127.866 32.4623 127.866 32.5444V39.3204C127.866 39.4025 127.907 39.4436 127.989 39.4436H138.923C139.129 39.4436 139.231 39.5463 139.231 39.7516V41.692C139.231 41.8973 139.129 42 138.923 42H125.217C125.012 42 124.909 41.8973 124.909 41.692V20.748C124.909 20.5427 125.012 20.44 125.217 20.44H138.923C139.129 20.44 139.231 20.5427 139.231 20.748V22.6884ZM157.023 20.44C157.228 20.44 157.331 20.5427 157.331 20.748V22.7192C157.331 22.9245 157.228 23.0272 157.023 23.0272H151.109C151.027 23.0272 150.986 23.0683 150.986 23.1504V41.692C150.986 41.8973 150.884 42 150.678 42H148.337C148.132 42 148.029 41.8973 148.029 41.692V23.1504C148.029 23.0683 147.988 23.0272 147.906 23.0272H142.27C142.064 23.0272 141.962 22.9245 141.962 22.7192V20.748C141.962 20.5427 142.064 20.44 142.27 20.44H157.023ZM173.822 42.2464C172.241 42.2464 170.865 42 169.695 41.5072C168.545 41.0144 167.651 40.3163 167.015 39.4128C166.399 38.5093 166.091 37.4519 166.091 36.2404V35.3472C166.091 35.1419 166.194 35.0392 166.399 35.0392H168.647C168.853 35.0392 168.955 35.1419 168.955 35.3472V36.0864C168.955 37.1336 169.407 37.996 170.311 38.6736C171.214 39.3512 172.456 39.69 174.037 39.69C175.454 39.69 176.522 39.3923 177.241 38.7968C177.959 38.2013 178.319 37.4211 178.319 36.456C178.319 35.8195 178.134 35.2753 177.764 34.8236C177.395 34.3719 176.85 33.9612 176.132 33.5916C175.434 33.2015 174.407 32.7395 173.052 32.2056C171.553 31.6307 170.362 31.1071 169.479 30.6348C168.617 30.1625 167.898 29.5465 167.323 28.7868C166.748 28.0065 166.461 27.0312 166.461 25.8608C166.461 24.0949 167.087 22.7089 168.339 21.7028C169.612 20.6967 171.327 20.1936 173.483 20.1936C175.002 20.1936 176.337 20.4503 177.487 20.9636C178.637 21.4769 179.52 22.1956 180.136 23.1196C180.772 24.0436 181.091 25.1113 181.091 26.3228V26.9388C181.091 27.1441 180.988 27.2468 180.783 27.2468H178.473C178.267 27.2468 178.165 27.1441 178.165 26.9388V26.4768C178.165 25.4091 177.733 24.5261 176.871 23.828C176.029 23.1093 174.859 22.75 173.36 22.75C172.087 22.75 171.101 23.0169 170.403 23.5508C169.705 24.0641 169.356 24.8136 169.356 25.7992C169.356 26.4768 169.53 27.0312 169.879 27.4624C170.228 27.8936 170.742 28.2837 171.419 28.6328C172.117 28.9613 173.175 29.3925 174.592 29.9264C176.05 30.5013 177.23 31.0352 178.134 31.528C179.037 32.0003 179.787 32.6368 180.382 33.4376C180.978 34.2179 181.275 35.1932 181.275 36.3636C181.275 38.1705 180.608 39.6079 179.273 40.6756C177.959 41.7228 176.142 42.2464 173.822 42.2464ZM185.584 42C185.379 42 185.276 41.8973 185.276 41.692V20.748C185.276 20.5427 185.379 20.44 185.584 20.44H187.925C188.13 20.44 188.233 20.5427 188.233 20.748V41.692C188.233 41.8973 188.13 42 187.925 42H185.584ZM192.322 42C192.117 42 192.014 41.8973 192.014 41.692V39.536C192.014 39.3717 192.055 39.2383 192.137 39.1356L202.917 23.1504C202.938 23.1299 202.938 23.0991 202.917 23.058C202.897 23.0169 202.866 22.9964 202.825 22.9964H192.322C192.117 22.9964 192.014 22.8937 192.014 22.6884V20.748C192.014 20.5427 192.117 20.44 192.322 20.44H205.997C206.203 20.44 206.305 20.5427 206.305 20.748V22.904C206.305 23.0683 206.264 23.2017 206.182 23.3044L195.34 39.2896C195.32 39.3101 195.32 39.3409 195.34 39.382C195.361 39.4231 195.392 39.4436 195.433 39.4436H205.997C206.203 39.4436 206.305 39.5463 206.305 39.7516V41.692C206.305 41.8973 206.203 42 205.997 42H192.322ZM224.563 22.6884C224.563 22.8937 224.46 22.9964 224.255 22.9964H213.321C213.239 22.9964 213.198 23.0375 213.198 23.1196V29.7416C213.198 29.8237 213.239 29.8648 213.321 29.8648H220.836C221.041 29.8648 221.144 29.9675 221.144 30.1728V32.1132C221.144 32.3185 221.041 32.4212 220.836 32.4212H213.321C213.239 32.4212 213.198 32.4623 213.198 32.5444V39.3204C213.198 39.4025 213.239 39.4436 213.321 39.4436H224.255C224.46 39.4436 224.563 39.5463 224.563 39.7516V41.692C224.563 41.8973 224.46 42 224.255 42H210.549C210.343 42 210.241 41.8973 210.241 41.692V20.748C210.241 20.5427 210.343 20.44 210.549 20.44H224.255C224.46 20.44 224.563 20.5427 224.563 20.748V22.6884Z" fill="white"/>
<defs>
<linearGradient id="paint0_linear_8288_17018" x1="29.0977" y1="29.5" x2="241.098" y2="29.5" gradientUnits="userSpaceOnUse">
<stop stop-color="#0db14b"/>
<stop offset="1" stop-color="#139F48"/>
</linearGradient>
</defs>
</svg>
