<svg width="110" height="64" viewBox="0 0 110 64" fill="none" xmlns="http://www.w3.org/2000/svg">
<mask id="mask0_9882_21218" style="mask-type:luminance" maskUnits="userSpaceOnUse" x="34" y="7" width="42" height="42">
<path d="M34.1187 7.11971H75.0787V48.0797H34.1187V7.11971Z" fill="white"/>
</mask>
<g mask="url(#mask0_9882_21218)">
<path d="M59.0793 36.6171H63.9713L69.0888 47.2798H58.2158" stroke="#22B148" stroke-miterlimit="10" stroke-linecap="round" stroke-linejoin="round"/>
<path d="M50.9829 47.2799H40.1099L45.2274 36.6172H50.1595" stroke="#22B148" stroke-miterlimit="10" stroke-linecap="round" stroke-linejoin="round"/>
<path d="M54.5995 7.9199C47.4866 7.9199 41.6997 13.687 41.6997 20.7757C41.6997 24.3266 43.452 27.3131 44.9788 29.5182C45.8659 30.7996 46.8663 32.0629 47.8338 33.2847C50.7445 36.9605 54.5995 41.8569 54.5995 41.8569C54.5995 41.8569 58.4546 36.9605 61.3652 33.2847C62.3327 32.0629 63.3331 30.7996 64.2203 29.5182C65.7471 27.3131 67.4994 24.3266 67.4994 20.7757C67.4994 13.687 61.7125 7.9199 54.5995 7.9199Z" stroke="white" stroke-miterlimit="10" stroke-linecap="round" stroke-linejoin="round"/>
<path d="M62.0387 20.7612C62.0387 24.8562 58.7077 28.1758 54.5987 28.1758C50.4897 28.1758 47.1587 24.8562 47.1587 20.7612C47.1587 16.6663 50.4897 13.3466 54.5987 13.3466C58.7077 13.3466 62.0387 16.6663 62.0387 20.7612Z" stroke="white" stroke-miterlimit="10" stroke-linecap="round" stroke-linejoin="round"/>
<path d="M50.9458 41.9487H58.2524" stroke="#F47922" stroke-miterlimit="10" stroke-linecap="round" stroke-linejoin="round"/>
</g>
<path d="M36 29.5C35.7239 29.5 35.5 29.7239 35.5 30V34.5C35.5 34.7761 35.7239 35 36 35C36.2761 35 36.5 34.7761 36.5 34.5V30.5H40.5C40.7761 30.5 41 30.2761 41 30C41 29.7239 40.7761 29.5 40.5 29.5H36ZM36 30L35.6464 30.3536L42.1464 36.8536L42.5 36.5L42.8536 36.1464L36.3536 29.6464L36 30Z" fill="white"/>
<path d="M74.5 29.5C74.7761 29.5 75 29.7239 75 30V34.5C75 34.7761 74.7761 35 74.5 35C74.2239 35 74 34.7761 74 34.5V30.5H70C69.7239 30.5 69.5 30.2761 69.5 30C69.5 29.7239 69.7239 29.5 70 29.5H74.5ZM74.5 30L74.8536 30.3536L68.3536 36.8536L68 36.5L67.6464 36.1464L74.1464 29.6464L74.5 30Z" fill="white"/>
<path d="M33 56C32.7239 56 32.5 55.7761 32.5 55.5V51C32.5 50.7239 32.7239 50.5 33 50.5C33.2761 50.5 33.5 50.7239 33.5 51V55H37.5C37.7761 55 38 55.2239 38 55.5C38 55.7761 37.7761 56 37.5 56H33ZM33 55.5L32.6464 55.1464L38.6464 49.1464L39 49.5L39.3536 49.8536L33.3536 55.8536L33 55.5Z" fill="white"/>
<path d="M77 56C77.2761 56 77.5 55.7761 77.5 55.5V51C77.5 50.7239 77.2761 50.5 77 50.5C76.7239 50.5 76.5 50.7239 76.5 51V55H72.5C72.2239 55 72 55.2239 72 55.5C72 55.7761 72.2239 56 72.5 56H77ZM77 55.5L77.3536 55.1464L71.3536 49.1464L71 49.5L70.6464 49.8536L76.6464 55.8536L77 55.5Z" fill="white"/>
</svg>
