<svg width="110" height="64" viewBox="0 0 110 64" fill="none" xmlns="http://www.w3.org/2000/svg">
<mask id="mask0_9882_21243" style="mask-type:luminance" maskUnits="userSpaceOnUse" x="34" y="7" width="42" height="42">
<path d="M34.1182 7.11971H75.0782V48.0797H34.1182V7.11971Z" fill="white"/>
</mask>
<g mask="url(#mask0_9882_21243)">
<path d="M59.0793 36.6171H63.9713L69.0888 47.2798H58.2158" stroke="#22B148" stroke-miterlimit="10" stroke-linecap="round" stroke-linejoin="round"/>
<path d="M50.9824 47.2799H40.1094L45.2269 36.6172H50.159" stroke="#22B148" stroke-miterlimit="10" stroke-linecap="round" stroke-linejoin="round"/>
<path d="M54.5991 7.9199C47.4861 7.9199 41.6992 13.687 41.6992 20.7757C41.6992 24.3266 43.4515 27.3131 44.9783 29.5182C45.8655 30.7996 46.8658 32.0629 47.8333 33.2847C50.744 36.9605 54.5991 41.8569 54.5991 41.8569C54.5991 41.8569 58.4541 36.9605 61.3647 33.2847C62.3323 32.0629 63.3326 30.7996 64.2199 29.5182C65.7466 27.3131 67.4989 24.3266 67.4989 20.7757C67.4989 13.687 61.712 7.9199 54.5991 7.9199Z" stroke="white" stroke-miterlimit="10" stroke-linecap="round" stroke-linejoin="round"/>
<path d="M62.0382 20.7612C62.0382 24.8562 58.7072 28.1758 54.5982 28.1758C50.4892 28.1758 47.1582 24.8562 47.1582 20.7612C47.1582 16.6663 50.4892 13.3466 54.5982 13.3466C58.7072 13.3466 62.0382 16.6663 62.0382 20.7612Z" stroke="white" stroke-miterlimit="10" stroke-linecap="round" stroke-linejoin="round"/>
<path d="M50.9453 41.9487H58.252" stroke="#F47922" stroke-miterlimit="10" stroke-linecap="round" stroke-linejoin="round"/>
</g>
<path d="M35.9995 29.5C35.7234 29.5 35.4995 29.7239 35.4995 30V34.5C35.4995 34.7761 35.7234 35 35.9995 35C36.2757 35 36.4995 34.7761 36.4995 34.5V30.5H40.4995C40.7757 30.5 40.9995 30.2761 40.9995 30C40.9995 29.7239 40.7757 29.5 40.4995 29.5H35.9995ZM35.9995 30L35.646 30.3536L42.146 36.8536L42.4995 36.5L42.8531 36.1464L36.3531 29.6464L35.9995 30Z" fill="white"/>
<path d="M74.4995 29.5C74.7757 29.5 74.9995 29.7239 74.9995 30V34.5C74.9995 34.7761 74.7757 35 74.4995 35C74.2234 35 73.9995 34.7761 73.9995 34.5V30.5H69.9995C69.7234 30.5 69.4995 30.2761 69.4995 30C69.4995 29.7239 69.7234 29.5 69.9995 29.5H74.4995ZM74.4995 30L74.8531 30.3536L68.3531 36.8536L67.9995 36.5L67.646 36.1464L74.146 29.6464L74.4995 30Z" fill="white"/>
<path d="M32.9995 56C32.7234 56 32.4995 55.7761 32.4995 55.5V51C32.4995 50.7239 32.7234 50.5 32.9995 50.5C33.2757 50.5 33.4995 50.7239 33.4995 51V55H37.4995C37.7757 55 37.9995 55.2239 37.9995 55.5C37.9995 55.7761 37.7757 56 37.4995 56H32.9995ZM32.9995 55.5L32.646 55.1464L38.646 49.1464L38.9995 49.5L39.3531 49.8536L33.3531 55.8536L32.9995 55.5Z" fill="white"/>
<path d="M76.9995 56C77.2757 56 77.4995 55.7761 77.4995 55.5V51C77.4995 50.7239 77.2757 50.5 76.9995 50.5C76.7234 50.5 76.4995 50.7239 76.4995 51V55H72.4995C72.2234 55 71.9995 55.2239 71.9995 55.5C71.9995 55.7761 72.2234 56 72.4995 56H76.9995ZM76.9995 55.5L77.3531 55.1464L71.3531 49.1464L70.9995 49.5L70.646 49.8536L76.646 55.8536L76.9995 55.5Z" fill="white"/>
</svg>
