<svg width="110" height="64" viewBox="0 0 110 64" fill="none" xmlns="http://www.w3.org/2000/svg">
<path d="M70.4196 22.3541H38.7792C38.3451 22.3541 37.9932 22.706 37.9932 23.1402V25.5558H71.2056V23.1402C71.2056 22.706 70.8537 22.3541 70.4196 22.3541Z" stroke="white" stroke-miterlimit="10" stroke-linecap="round" stroke-linejoin="round"/>
<path d="M50.979 20.0414H58.219" stroke="#22B148" stroke-miterlimit="10" stroke-linecap="round" stroke-linejoin="round"/>
<path d="M50.979 17.9215H58.219" stroke="#22B148" stroke-miterlimit="10" stroke-linecap="round" stroke-linejoin="round"/>
<path d="M50.979 15.8015H58.219" stroke="#22B148" stroke-miterlimit="10" stroke-linecap="round" stroke-linejoin="round"/>
<path d="M71.2056 33.2265V25.5557H37.9932V51.4798H71.2056V35.5465" stroke="#F47922" stroke-miterlimit="10" stroke-linecap="round" stroke-linejoin="round"/>
<path d="M39.4339 17.2927L34.7197 19.0249V51.4797H74.4797V19.0249L54.5997 11.7197L41.6592 16.4749" stroke="white" stroke-miterlimit="10" stroke-linecap="round" stroke-linejoin="round"/>
<path d="M54.8925 34.6802H52.8988C51.2976 34.6802 49.9995 33.4385 49.9995 31.9069V30H51.9931C53.5944 30 54.8925 31.2417 54.8925 32.7733V34.6802Z" stroke="#22B148" stroke-miterlimit="10"/>
<path d="M54.8921 34.6802H56.8857C58.4869 34.6802 59.785 33.4385 59.785 31.9069V30H57.7914C56.1902 30 54.8921 31.2417 54.8921 32.7733V34.6802Z" stroke="#22B148" stroke-miterlimit="10"/>
<path d="M46.8315 44C46.7782 44 46.7515 43.9733 46.7515 43.92V38.48C46.7515 38.4267 46.7782 38.4 46.8315 38.4H47.2395C47.2928 38.4 47.3195 38.4267 47.3195 38.48V43.92C47.3195 43.9733 47.2928 44 47.2395 44H46.8315ZM50.5258 44.064C50.1525 44.064 49.8245 43.992 49.5418 43.848C49.2592 43.6987 49.0378 43.4907 48.8778 43.224C48.7232 42.9573 48.6458 42.6507 48.6458 42.304V40.096C48.6458 39.7493 48.7232 39.4427 48.8778 39.176C49.0378 38.9093 49.2592 38.704 49.5418 38.56C49.8245 38.4107 50.1525 38.336 50.5258 38.336C50.8938 38.336 51.2192 38.408 51.5018 38.552C51.7898 38.696 52.0112 38.8987 52.1658 39.16C52.3205 39.416 52.3978 39.7067 52.3978 40.032V40.136C52.3978 40.1893 52.3712 40.216 52.3178 40.216H51.9098C51.8565 40.216 51.8298 40.1893 51.8298 40.136V40.04C51.8298 39.6827 51.7098 39.392 51.4698 39.168C51.2352 38.944 50.9205 38.832 50.5258 38.832C50.1312 38.832 49.8138 38.9467 49.5738 39.176C49.3338 39.4053 49.2138 39.7067 49.2138 40.08V42.32C49.2138 42.6933 49.3365 42.9947 49.5818 43.224C49.8272 43.4533 50.1498 43.568 50.5498 43.568C50.9392 43.568 51.2485 43.4613 51.4778 43.248C51.7125 43.0347 51.8298 42.7493 51.8298 42.392V41.664C51.8298 41.6427 51.8192 41.632 51.7978 41.632H50.6218C50.5685 41.632 50.5418 41.6053 50.5418 41.552V41.216C50.5418 41.1627 50.5685 41.136 50.6218 41.136H52.3178C52.3712 41.136 52.3978 41.1627 52.3978 41.216V42.248C52.3978 42.8187 52.2272 43.264 51.8858 43.584C51.5498 43.904 51.0965 44.064 50.5258 44.064ZM56.5361 41.08C56.5094 41.096 56.5094 41.112 56.5361 41.128C56.8241 41.2453 57.0427 41.4187 57.1921 41.648C57.3414 41.8773 57.4161 42.1547 57.4161 42.48C57.4161 42.96 57.2614 43.3333 56.9521 43.6C56.6481 43.8667 56.2454 44 55.7441 44H53.8081C53.7547 44 53.7281 43.9733 53.7281 43.92V38.48C53.7281 38.4267 53.7547 38.4 53.8081 38.4H55.6881C56.2054 38.4 56.6107 38.528 56.9041 38.784C57.2027 39.04 57.3521 39.4 57.3521 39.864C57.3521 40.1573 57.2801 40.408 57.1361 40.616C56.9974 40.8187 56.7974 40.9733 56.5361 41.08ZM54.3281 38.896C54.3067 38.896 54.2961 38.9067 54.2961 38.928V40.848C54.2961 40.8693 54.3067 40.88 54.3281 40.88H55.6881C56.0241 40.88 56.2907 40.792 56.4881 40.616C56.6907 40.44 56.7921 40.2053 56.7921 39.912C56.7921 39.6027 56.6907 39.3573 56.4881 39.176C56.2907 38.9893 56.0241 38.896 55.6881 38.896H54.3281ZM55.7441 43.496C56.0801 43.496 56.3467 43.4 56.5441 43.208C56.7467 43.016 56.8481 42.7573 56.8481 42.432C56.8481 42.1067 56.7441 41.848 56.5361 41.656C56.3334 41.4587 56.0587 41.36 55.7121 41.36H54.3281C54.3067 41.36 54.2961 41.3707 54.2961 41.392V43.464C54.2961 43.4853 54.3067 43.496 54.3281 43.496H55.7441ZM60.4321 44.072C60.0587 44.072 59.7307 44 59.4481 43.856C59.1654 43.7067 58.9441 43.4987 58.7841 43.232C58.6294 42.96 58.5521 42.648 58.5521 42.296V40.096C58.5521 39.7493 58.6294 39.4427 58.7841 39.176C58.9441 38.9093 59.1654 38.704 59.4481 38.56C59.7307 38.4107 60.0587 38.336 60.4321 38.336C60.8054 38.336 61.1334 38.408 61.4161 38.552C61.6987 38.696 61.9174 38.8987 62.0721 39.16C62.2321 39.4213 62.3121 39.7227 62.3121 40.064C62.3121 40.0907 62.3041 40.112 62.2881 40.128C62.2721 40.144 62.2534 40.152 62.2321 40.152L61.8241 40.176C61.7707 40.176 61.7441 40.152 61.7441 40.104V40.08C61.7441 39.7013 61.6241 39.4 61.3841 39.176C61.1441 38.9467 60.8267 38.832 60.4321 38.832C60.0374 38.832 59.7201 38.9467 59.4801 39.176C59.2401 39.4053 59.1201 39.7067 59.1201 40.08V42.32C59.1201 42.6933 59.2401 42.9947 59.4801 43.224C59.7201 43.4533 60.0374 43.568 60.4321 43.568C60.8267 43.568 61.1441 43.456 61.3841 43.232C61.6241 43.0027 61.7441 42.6987 61.7441 42.32V42.304C61.7441 42.256 61.7707 42.232 61.8241 42.232L62.2321 42.256C62.2854 42.256 62.3121 42.28 62.3121 42.328C62.3121 42.6747 62.2321 42.9813 62.0721 43.248C61.9174 43.5093 61.6987 43.712 61.4161 43.856C61.1334 44 60.8054 44.072 60.4321 44.072Z" fill="#E0E0E0"/>
</svg>
