<svg width="60" height="60" viewBox="0 0 60 60" fill="none" xmlns="http://www.w3.org/2000/svg">
<path d="M6.00781 20.1791V57.6912C6.00781 58.4809 6.64801 59.1211 7.43773 59.1211H46.3716C47.1614 59.1211 47.8016 58.4809 47.8016 57.6912V52.9308H13.628C12.8383 52.9308 12.1981 52.2906 12.1981 51.5009V7.06909H7.43773C6.64801 7.06909 6.00781 7.70929 6.00781 8.49901V16.0775" stroke="black" stroke-width="1.3" stroke-miterlimit="10" stroke-linecap="round" stroke-linejoin="round"/>
<path d="M29.0195 7.93457H41.4339" stroke="#0DB14B" stroke-width="1.3" stroke-miterlimit="10" stroke-linecap="round" stroke-linejoin="round"/>
<path d="M29.0195 11.7832H41.4339" stroke="#0DB14B" stroke-width="1.3" stroke-miterlimit="10" stroke-linecap="round" stroke-linejoin="round"/>
<path d="M28.0703 40.343L40.9485 27.4648" stroke="#F47920" stroke-width="1.3" stroke-miterlimit="10" stroke-linejoin="round"/>
<path d="M38.0343 24.5508L25.1562 37.429" stroke="#F47920" stroke-width="1.3" stroke-miterlimit="10" stroke-linejoin="round"/>
<path d="M19.6512 14.0482C17.9333 13.0563 16.875 11.2234 16.875 9.23964V7.88729C16.875 7.77702 16.9338 7.67519 17.0293 7.62011L20.8223 5.43022C20.9179 5.37515 21.0354 5.37515 21.1309 5.43022L24.9239 7.62011C25.0194 7.67519 25.0782 7.77714 25.0782 7.88729V9.23964C25.0782 11.2233 24.02 13.0562 22.3021 14.0481L21.1309 14.7242C21.0354 14.7793 20.9179 14.7793 20.8223 14.7242L19.6512 14.0482Z" stroke="#0DB14B" stroke-width="1.3" stroke-miterlimit="10" stroke-linecap="round" stroke-linejoin="round"/>
<path d="M53.993 40.7674V9.65262C53.993 9.2734 53.8423 8.90965 53.5741 8.64152L46.2304 1.29773C45.9622 1.02961 45.5985 0.878906 45.2193 0.878906H13.6291C12.8394 0.878906 12.1992 1.5191 12.1992 2.30883V51.501C12.1992 52.2907 12.8394 52.9309 13.6291 52.9309H52.563C53.3528 52.9309 53.993 52.2907 53.993 51.501V44.869" stroke="black" stroke-width="1.3" stroke-miterlimit="10" stroke-linecap="round" stroke-linejoin="round"/>
<path d="M45.8086 1.00928V7.63072C45.8086 8.42045 46.4488 9.06065 47.2385 9.06065H53.8598" stroke="black" stroke-width="1.3" stroke-miterlimit="10" stroke-linejoin="round"/>
<path d="M22.3678 24.2572C20.6259 26.5263 19.5898 29.3654 19.5898 32.447C19.5898 39.8822 25.6173 45.9097 33.0526 45.9097C40.4879 45.9097 46.5153 39.8823 46.5153 32.447C46.5153 25.0117 40.4878 18.9844 33.0525 18.9844C30.179 18.9844 27.5163 19.8852 25.3299 21.4191M33.0525 41.7885C27.9016 41.7885 23.711 37.5979 23.711 32.447C23.711 27.2961 27.9016 23.1055 33.0525 23.1055C38.2033 23.1055 42.3939 27.2961 42.3939 32.447C42.3939 37.598 38.2033 41.7885 33.0525 41.7885Z" stroke="#F47920" stroke-width="1.3" stroke-miterlimit="10" stroke-linecap="round" stroke-linejoin="round"/>
<path d="M20.9766 14.7656V5.38892" stroke="#0DB14B" stroke-width="1.3" stroke-miterlimit="10" stroke-linejoin="round"/>
</svg>
