<svg width="60" height="60" viewBox="0 0 60 60" fill="none" xmlns="http://www.w3.org/2000/svg">
<path d="M45.6885 30.5322C45.177 22.3121 38.349 15.8033 30 15.8033C26.9888 15.8033 24.1756 16.6504 21.7851 18.1188L21.4359 15.0296L19.6195 14.3265L19.0685 12.4202C21.1822 11.2079 23.5159 10.3358 25.9956 9.87995L26.3319 5.74243H33.6681L34.0044 9.87984C37.1025 10.4495 39.9732 11.6681 42.4711 13.3891L45.6363 10.6998L50.8237 15.8872L48.1346 19.0522C49.8557 21.55 51.0746 24.4208 51.6442 27.5189L55.7813 27.8553V35.1913L51.6445 35.5276M36.2856 52.6195C35.541 52.8411 34.7798 53.0244 34.0044 53.167L33.6681 57.3045H26.3319L25.9956 53.1678C22.8975 52.5979 20.0267 51.3792 17.529 49.6577L14.3636 52.3471L9.17623 47.1597L11.8659 43.994C10.145 41.4961 8.92592 38.6258 8.35639 35.5279L4.21875 35.1915V27.8554L8.35545 27.5191C8.69494 25.6734 9.26482 23.9085 10.034 22.2549L12.0609 24.7561L15.225 22.5882L16.4342 23.5776C15.0656 25.9093 14.2798 28.6244 14.2798 31.5235C14.2798 40.2054 21.318 47.2435 30 47.2435C31.978 47.2435 33.8706 46.8778 35.614 46.2109" stroke="black" stroke-width="1.3" stroke-miterlimit="22.9256" stroke-linecap="round" stroke-linejoin="round"/>
<path d="M4.87891 6.40332L6.53617 8.06058" stroke="black" stroke-width="1.3" stroke-miterlimit="22.9256" stroke-linecap="round" stroke-linejoin="round"/>
<path d="M11.3008 2.69531L11.9075 4.95925" stroke="black" stroke-width="1.3" stroke-miterlimit="22.9256" stroke-linecap="round" stroke-linejoin="round"/>
<path d="M1.17188 12.8254L3.43581 13.432" stroke="black" stroke-width="1.3" stroke-miterlimit="22.9256" stroke-linecap="round" stroke-linejoin="round"/>
<path fill-rule="evenodd" clip-rule="evenodd" d="M55.7402 52.752L37.166 52.7439C35.4809 52.7454 34.1124 51.3814 34.1094 49.6971C34.1084 49.1598 34.2417 48.6305 34.5112 48.1647L43.8121 32.0551C44.656 30.5934 46.5263 30.0933 47.9895 30.9381C48.5386 31.2552 48.9524 31.7167 49.2105 32.2467L58.4201 48.1823C59.2612 49.6423 58.7594 51.5066 57.2993 52.346C56.8073 52.6289 56.2694 52.7591 55.7402 52.752Z" stroke="#F47920" stroke-width="1.3" stroke-miterlimit="22.9256" stroke-linecap="round" stroke-linejoin="round"/>
<path d="M46.4688 48.0647V48.0638M46.4688 43.3767V36.9319" stroke="#0DB14B" stroke-width="1.3" stroke-miterlimit="22.9256" stroke-linecap="round" stroke-linejoin="round"/>
</svg>
