<svg width="60" height="60" viewBox="0 0 60 60" fill="none" xmlns="http://www.w3.org/2000/svg">
<path d="M4.51953 17.1628V8.1592L11.8005 0.879395H40.9221V26.5908" stroke="black" stroke-width="1.3" stroke-miterlimit="10" stroke-linecap="round" stroke-linejoin="round"/>
<path d="M4.51953 20.9927V51.8416H31.2141" stroke="black" stroke-width="1.3" stroke-miterlimit="10" stroke-linecap="round" stroke-linejoin="round"/>
<path d="M4.51953 8.1593H11.7998V0.878906" stroke="black" stroke-width="1.3" stroke-miterlimit="10" stroke-linecap="round" stroke-linejoin="round"/>
<path d="M44.5625 26.5886V13.7153" stroke="black" stroke-width="1.3" stroke-miterlimit="10" stroke-linecap="round" stroke-linejoin="round"/>
<path d="M40.9219 4.52051H44.5617V9.8843" stroke="black" stroke-width="1.3" stroke-miterlimit="10" stroke-linecap="round" stroke-linejoin="round"/>
<path d="M8.16016 51.8428V55.4814H19.5005" stroke="black" stroke-width="1.3" stroke-miterlimit="10" stroke-linecap="round" stroke-linejoin="round"/>
<path d="M31.8213 55.4814H23.332" stroke="black" stroke-width="1.3" stroke-miterlimit="10" stroke-linecap="round" stroke-linejoin="round"/>
<path d="M11.8008 11.7993H33.6417" stroke="#0DB14B" stroke-width="1.3" stroke-miterlimit="10" stroke-linecap="round" stroke-linejoin="round"/>
<path d="M11.8008 15.439H33.6417" stroke="#0DB14B" stroke-width="1.3" stroke-miterlimit="10" stroke-linecap="round" stroke-linejoin="round"/>
<path d="M11.8008 19.0781H22.7211" stroke="#0DB14B" stroke-width="1.3" stroke-miterlimit="10" stroke-linecap="round" stroke-linejoin="round"/>
<path d="M53.6613 55.4805H31.8203V59.1212H53.6613V55.4805Z" stroke="black" stroke-width="1.3" stroke-miterlimit="10" stroke-linecap="round" stroke-linejoin="round"/>
<path d="M55.4811 55.481H30L31.82 50.0205H53.6611L55.4811 55.481Z" stroke="black" stroke-width="1.3" stroke-miterlimit="10" stroke-linecap="round" stroke-linejoin="round"/>
<path d="M50.0216 46.3804H35.4609V50.0196H50.0216V46.3804Z" stroke="black" stroke-width="1.3" stroke-miterlimit="10" stroke-linecap="round" stroke-linejoin="round"/>
<path d="M50.0217 33.6397C50.0217 29.5041 46.5736 26.174 42.3953 26.3674C38.679 26.5394 35.6584 29.5462 35.4705 33.2618C35.3435 35.7748 36.4916 38.0268 38.3247 39.4278C40.4316 41.0379 40.8758 44.0581 39.2681 46.1668C39.2138 46.2381 39.1582 46.3092 39.1012 46.3804H46.3815C46.3245 46.3093 46.269 46.2382 46.2148 46.167C44.5966 44.0445 45.0826 41.0341 47.1934 39.4006C48.9138 38.069 50.0217 35.9837 50.0217 33.6397Z" stroke="black" stroke-width="1.3" stroke-miterlimit="10" stroke-linecap="round" stroke-linejoin="round"/>
<path d="M27.8699 38.7877C30.7131 35.9445 30.7131 31.3348 27.8699 28.4916C25.0267 25.6484 20.417 25.6484 17.5738 28.4916C14.7306 31.3348 14.7306 35.9445 17.5738 38.7877C20.417 41.6309 25.0267 41.6309 27.8699 38.7877Z" stroke="#F47920" stroke-width="1.3" stroke-miterlimit="10" stroke-linecap="round" stroke-linejoin="round"/>
<path d="M19.9922 33.64L21.812 35.4594L25.4522 31.8193" stroke="#F47920" stroke-width="1.3" stroke-miterlimit="10" stroke-linecap="round" stroke-linejoin="round"/>
</svg>
