<svg width="62" height="62" viewBox="0 0 62 62" fill="none" xmlns="http://www.w3.org/2000/svg">
<path d="M18.4219 8.30076L23.4382 4.93102C27.5925 2.14023 32.4837 0.649902 37.4882 0.649902H52.2978" stroke="black" stroke-width="1.3" stroke-miterlimit="10" stroke-linecap="round" stroke-linejoin="round"/>
<path d="M40.797 30.2027L42.7378 38.5665C43.6871 42.6571 41.0858 46.7282 36.9747 47.5853L32.5611 38.2677C31.2338 35.4658 29.1831 33.0688 26.6204 31.3239L18.4219 25.7415" stroke="black" stroke-width="1.3" stroke-miterlimit="10" stroke-linecap="round" stroke-linejoin="round"/>
<path d="M0.650391 0.663818H14.914C16.8523 0.663818 18.4236 2.23513 18.4236 4.17335V26.8906C18.4236 28.8288 16.8523 30.4001 14.914 30.4001H0.650391V0.663818Z" stroke="#0DB14B" stroke-width="1.3" stroke-miterlimit="10" stroke-linecap="round" stroke-linejoin="round"/>
<path d="M30.0118 52.6846L27.4355 55.2608" stroke="#F47920" stroke-width="1.3" stroke-miterlimit="10" stroke-linecap="round" stroke-linejoin="round"/>
<path d="M44.1387 52.6846L46.715 55.2608" stroke="#F47920" stroke-width="1.3" stroke-miterlimit="10" stroke-linecap="round" stroke-linejoin="round"/>
<path d="M37.0762 57.061V60.7043" stroke="#F47920" stroke-width="1.3" stroke-miterlimit="10" stroke-linecap="round" stroke-linejoin="round"/>
<circle cx="10.7848" cy="22.8747" r="1.86883" fill="#0DB14B"/>
<path d="M36.0352 30.1392H56.9663C59.0011 30.1392 60.6508 28.4896 60.6508 26.4547C60.6508 24.4199 59.0012 22.7703 56.9663 22.7703" stroke="black" stroke-width="1.3" stroke-miterlimit="10" stroke-linecap="round" stroke-linejoin="round"/>
<path d="M56.9666 22.7705H55.7207C57.7555 22.7705 59.4052 21.121 59.4052 19.0861C59.4052 17.0513 57.7556 15.4016 55.7207 15.4016" stroke="black" stroke-width="1.3" stroke-miterlimit="10" stroke-linecap="round" stroke-linejoin="round"/>
<path d="M55.7201 15.4019H54.3496C56.3844 15.4019 58.0341 13.7523 58.0341 11.7174C58.0341 9.68251 56.3845 8.03296 54.3496 8.03296" stroke="black" stroke-width="1.3" stroke-miterlimit="10" stroke-linecap="round" stroke-linejoin="round"/>
<path d="M54.3508 8.03274H52.3574C54.3922 8.03274 56.0419 6.38318 56.0419 4.34828C56.0419 2.31337 54.3923 0.663818 52.3574 0.663818" stroke="black" stroke-width="1.3" stroke-miterlimit="10" stroke-linecap="round" stroke-linejoin="round"/>
</svg>
