<svg width="60" height="60" viewBox="0 0 60 60" fill="none" xmlns="http://www.w3.org/2000/svg">
<g clip-path="url(#clip0_11126_9030)">
<mask id="mask0_11126_9030" style="mask-type:luminance" maskUnits="userSpaceOnUse" x="0" y="0" width="60" height="60">
<path d="M60 0H0V60H60V0Z" fill="white"/>
</mask>
<g mask="url(#mask0_11126_9030)">
<mask id="mask1_11126_9030" style="mask-type:luminance" maskUnits="userSpaceOnUse" x="0" y="0" width="60" height="60">
<path d="M0 3.8147e-06H60V60H0V3.8147e-06Z" fill="white"/>
</mask>
<g mask="url(#mask1_11126_9030)">
<path d="M44.151 46.6502C44.1975 45.2131 43.0353 44.0198 41.6052 44.0198H41.6001V44.0188C41.6691 44.0188 41.7396 44.0187 41.8125 44.0187C43.2007 44.0178 44.325 42.8911 44.3242 41.5033C44.323 40.1148 43.1968 38.9978 41.8088 38.9989H31.3511C31.0596 38.9989 30.8533 38.7141 30.944 38.4372L31.8605 35.6393C32.6406 33.2583 32.5019 31.6368 32.5019 28.8481C32.5019 27.2077 31.172 25.8779 29.5316 25.8779C28.0415 25.8779 26.7821 26.982 26.587 28.4593C26.371 30.0938 26.2257 33.0003 23.5234 35.6023L21.6163 37.4386C20.5538 38.4617 19.1363 39.0331 17.6615 39.0331H15.7422V55.5202C16.4235 55.52 17.207 55.5197 17.2081 55.5197C20.8492 55.5174 20.5164 59.1234 25.0446 59.1191H40.4569C41.8434 59.1191 42.9673 57.9953 42.9673 56.6087V56.6086C42.9673 55.2222 41.8434 54.0982 40.4569 54.0982H40.8991C42.2635 54.0982 43.4283 53.0373 43.4738 51.6737C43.5212 50.248 42.3797 49.0773 40.9648 49.0773H41.5753C42.9409 49.0773 44.107 48.015 44.151 46.6502Z" stroke="black" stroke-width="1.3" stroke-miterlimit="10" stroke-linecap="round" stroke-linejoin="round"/>
<path d="M40.6849 54.0991H37.6055" stroke="black" stroke-width="1.3" stroke-miterlimit="10" stroke-linecap="round" stroke-linejoin="round"/>
<path d="M40.7507 49.0786H37.6055" stroke="black" stroke-width="1.3" stroke-miterlimit="10" stroke-linecap="round" stroke-linejoin="round"/>
<path d="M41.6023 44.0195H37.6094" stroke="black" stroke-width="1.3" stroke-miterlimit="10" stroke-linecap="round" stroke-linejoin="round"/>
<path d="M56.1865 14.4799C56.5339 14.1412 56.3423 13.5512 55.862 13.4815L52.1536 12.9425C51.963 12.9149 51.7982 12.7951 51.713 12.6224L50.0545 9.262C49.8398 8.82689 49.2194 8.82689 49.0047 9.262L47.3463 12.6224C47.261 12.7951 47.0962 12.9149 46.9055 12.9425L43.1971 13.4815C42.717 13.5512 42.5253 14.1412 42.8728 14.4799L45.5561 17.0955C45.694 17.2301 45.7571 17.4238 45.7245 17.6137L45.091 21.3071C45.009 21.7852 45.5109 22.1499 45.9403 21.9241L49.2572 20.1804C49.4278 20.0907 49.6314 20.0907 49.802 20.1804L53.1189 21.9241C53.5483 22.1499 54.0503 21.7852 53.9682 21.3071L53.3348 17.6137C53.3022 17.4238 53.3651 17.2301 53.5032 17.0955L56.1865 14.4799Z" stroke="#F47920" stroke-width="1.3" stroke-miterlimit="10" stroke-linecap="round" stroke-linejoin="round"/>
<path d="M17.1944 14.4799C17.5418 14.1412 17.3501 13.5512 16.87 13.4815L13.1616 12.9425C12.9709 12.9149 12.806 12.7951 12.7208 12.6224L11.0624 9.262C10.8477 8.82689 10.2272 8.82689 10.0125 9.262L8.35408 12.6224C8.26877 12.7951 8.104 12.9149 7.91334 12.9425L4.20494 13.4815C3.72482 13.5512 3.5331 14.1412 3.88056 14.4799L6.56404 17.0955C6.70197 17.2301 6.7649 17.4238 6.73232 17.6137L6.09881 21.3071C6.01689 21.7852 6.51881 22.1499 6.94818 21.9241L10.2651 20.1804C10.4356 20.0907 10.6392 20.0907 10.8099 20.1804L14.1267 21.9241C14.5561 22.1499 15.0581 21.7852 14.9761 21.3071L14.3426 17.6137C14.31 17.4238 14.3729 17.2301 14.511 17.0955L17.1944 14.4799Z" stroke="#F47920" stroke-width="1.3" stroke-miterlimit="10" stroke-linecap="round" stroke-linejoin="round"/>
<path d="M11.7404 57.3245H14.4436C15.1609 57.3245 15.7424 56.743 15.7424 56.0257V38.8506C15.7424 38.1333 15.1609 37.5517 14.4436 37.5517H4.93551C4.2182 37.5517 3.63672 38.1333 3.63672 38.8506V56.0257C3.63672 56.743 4.2182 57.3245 4.93551 57.3245H7.63879" stroke="black" stroke-width="1.3" stroke-miterlimit="10" stroke-linecap="round" stroke-linejoin="round"/>
<path d="M37.6868 12.8782L40.7985 9.84506C41.3603 9.29756 41.0502 8.34353 40.274 8.23068L34.2778 7.35939C33.9695 7.31463 33.703 7.12103 33.5652 6.84166L30.8835 1.40826C30.5364 0.704786 29.5333 0.704786 29.1862 1.40826L26.5046 6.84166C26.3666 7.12103 26.1003 7.31463 25.7919 7.35939L19.7958 8.23068C19.0194 8.34353 18.7095 9.29756 19.2713 9.84506L23.61 14.0745C23.8331 14.2919 23.935 14.6051 23.8822 14.9121L22.858 20.8841C22.7254 21.6573 23.5369 22.2469 24.2313 21.8819L29.5944 19.0623C29.8702 18.9174 30.1995 18.9174 30.4752 19.0623L35.8384 21.8819C36.5328 22.2469 37.3443 21.6573 37.2116 20.8841L36.542 16.9798" stroke="#0DB14B" stroke-width="1.3" stroke-miterlimit="10" stroke-linecap="round" stroke-linejoin="round"/>
</g>
</g>
</g>
<defs>
<clipPath id="clip0_11126_9030">
<rect width="60" height="60" fill="white"/>
</clipPath>
</defs>
</svg>
