<svg width="60" height="60" viewBox="0 0 60 60" fill="none" xmlns="http://www.w3.org/2000/svg">
<g clip-path="url(#clip0_11126_9126)">
<mask id="mask0_11126_9126" style="mask-type:luminance" maskUnits="userSpaceOnUse" x="0" y="0" width="60" height="60">
<path d="M0 3.8147e-06H60V60H0V3.8147e-06Z" fill="white"/>
</mask>
<g mask="url(#mask0_11126_9126)">
<path d="M58.8281 33.9844V26.0156C58.8281 25.3684 58.3035 24.8438 57.6562 24.8438H53.2713C52.6636 22.082 51.5776 19.4998 50.1028 17.1892L53.202 14.0902C53.6596 13.6324 53.6596 12.8905 53.202 12.4328L47.5672 6.79805C47.1095 6.34043 46.3676 6.34043 45.9098 6.79805L42.8108 9.89719C40.5002 8.42238 37.918 7.33641 35.1562 6.72867V2.34375C35.1562 1.69652 34.6316 1.17188 33.9844 1.17188H26.0156C25.3684 1.17188 24.8438 1.69652 24.8438 2.34375V6.73512C22.086 7.34578 19.5075 8.43317 17.2007 9.90867L14.0902 6.79805C13.6324 6.34043 12.8905 6.34043 12.4328 6.79805L6.79805 12.4328C6.34043 12.8905 6.34043 13.6324 6.79805 14.0902L9.91547 17.2076C8.44652 19.5134 7.36465 22.0893 6.75844 24.8438H2.34375C1.69652 24.8438 1.17188 25.3684 1.17188 26.0156V33.9844C1.17188 34.6316 1.69652 35.1562 2.34375 35.1562H6.76488C7.37391 37.9068 8.45742 40.4788 9.92695 42.7811L6.79805 45.9098C6.34043 46.3676 6.34043 47.1095 6.79805 47.5672L12.4328 53.202C12.8905 53.6596 13.6324 53.6596 14.0902 53.202L17.2189 50.073C19.5212 51.5426 22.0932 52.6261 24.8438 53.2351V57.6562C24.8438 58.3035 25.3684 58.8281 26.0156 58.8281H33.9844C34.6316 58.8281 35.1562 58.3035 35.1562 57.6562V53.2416C37.9107 52.6354 40.4866 51.5535 42.7924 50.0845L45.9098 53.202C46.3676 53.6596 47.1095 53.6596 47.5672 53.202L53.202 47.5672C53.6596 47.1095 53.6596 46.3676 53.202 45.9098L50.0913 42.7993C51.5668 40.4925 52.6542 37.914 53.2649 35.1562H57.6562C58.3035 35.1562 58.8281 34.6316 58.8281 33.9844Z" stroke="black" stroke-width="1.3" stroke-miterlimit="10" stroke-linecap="round" stroke-linejoin="round"/>
<path d="M44.2623 22.8778C47.2433 28.8452 46.2457 36.2933 41.2695 41.2695C35.0455 47.4935 24.9544 47.4935 18.7305 41.2695C12.5065 35.0456 12.5065 24.9545 18.7305 18.7305C23.8941 13.5669 31.7194 12.6872 37.7899 16.0915" stroke="#0DB14B" stroke-width="1.3" stroke-miterlimit="10" stroke-linecap="round" stroke-linejoin="round"/>
<path d="M34.8598 22.5391L28.3446 29.0543L25.137 25.8466L20.9336 30.05L24.1412 33.2577L28.3446 37.4609L39.0631 26.7425L34.8598 22.5391Z" stroke="#F47920" stroke-width="1.3" stroke-miterlimit="10" stroke-linecap="round" stroke-linejoin="round"/>
</g>
</g>
<defs>
<clipPath id="clip0_11126_9126">
<rect width="60" height="60" fill="white"/>
</clipPath>
</defs>
</svg>
