<svg width="513" height="352" viewBox="0 0 513 352" fill="none" xmlns="http://www.w3.org/2000/svg">
<g clip-path="url(#clip0_6129_11932)">
<path d="M146.933 0.102661H0.0174561L49.9993 48.322H98.4665V96.5414L146.933 147.021V0.102661Z" fill="url(#paint0_linear_6129_11932)" fill-opacity="0.1"/>
<path d="M329.849 0.102661H182.933L232.915 48.322H281.383V96.5414L329.849 147.021V0.102661Z" fill="url(#paint1_linear_6129_11932)" fill-opacity="0.1"/>
<path d="M512.765 0.102661H365.849L415.831 48.322H464.299V96.5414L512.765 147.021V0.102661Z" fill="url(#paint2_linear_6129_11932)" fill-opacity="0.1"/>
<path d="M146.943 183.114H0.0268555L50.0087 231.333H98.4759V279.554L146.943 330.033V183.114Z" fill="url(#paint3_linear_6129_11932)" fill-opacity="0.1"/>
<path d="M329.849 183.021H182.933L232.915 231.24H281.383V279.46L329.849 329.94V183.021Z" fill="url(#paint4_linear_6129_11932)" fill-opacity="0.1"/>
<path d="M512.774 183.114H365.858L415.84 231.333H464.308V279.554L512.774 330.033V183.114Z" fill="url(#paint5_linear_6129_11932)" fill-opacity="0.1"/>
</g>
<defs>
<linearGradient id="paint0_linear_6129_11932" x1="73.4755" y1="0.102661" x2="73.4755" y2="147.021" gradientUnits="userSpaceOnUse">
<stop stop-color="#3C3C3C" stop-opacity="0.5"/>
<stop offset="1" stop-color="#A2A2A2" stop-opacity="0.4"/>
</linearGradient>
<linearGradient id="paint1_linear_6129_11932" x1="256.391" y1="0.102661" x2="256.391" y2="147.021" gradientUnits="userSpaceOnUse">
<stop stop-color="#3C3C3C" stop-opacity="0.5"/>
<stop offset="1" stop-color="#A2A2A2" stop-opacity="0.4"/>
</linearGradient>
<linearGradient id="paint2_linear_6129_11932" x1="439.307" y1="0.102661" x2="439.307" y2="147.021" gradientUnits="userSpaceOnUse">
<stop stop-color="#3C3C3C" stop-opacity="0.5"/>
<stop offset="1" stop-color="#A2A2A2" stop-opacity="0.4"/>
</linearGradient>
<linearGradient id="paint3_linear_6129_11932" x1="73.4849" y1="183.114" x2="73.4849" y2="330.033" gradientUnits="userSpaceOnUse">
<stop stop-color="#3C3C3C" stop-opacity="0.5"/>
<stop offset="1" stop-color="#A2A2A2" stop-opacity="0.4"/>
</linearGradient>
<linearGradient id="paint4_linear_6129_11932" x1="256.391" y1="183.021" x2="256.391" y2="329.94" gradientUnits="userSpaceOnUse">
<stop stop-color="#3C3C3C" stop-opacity="0.5"/>
<stop offset="1" stop-color="#A2A2A2" stop-opacity="0.4"/>
</linearGradient>
<linearGradient id="paint5_linear_6129_11932" x1="439.316" y1="183.114" x2="439.316" y2="330.033" gradientUnits="userSpaceOnUse">
<stop stop-color="#3C3C3C" stop-opacity="0.5"/>
<stop offset="1" stop-color="#A2A2A2" stop-opacity="0.4"/>
</linearGradient>
<clipPath id="clip0_6129_11932">
<rect width="513" height="352" fill="white"/>
</clipPath>
</defs>
</svg>
