<svg width="90" height="90" viewBox="0 0 90 90" fill="none" xmlns="http://www.w3.org/2000/svg">
<path d="M30 36.9474V30.6316H32C35.3137 30.6316 38 27.8039 38 24.3158C38 20.8277 35.3137 18 32 18H29C28.4477 18 28 18.4713 28 19.0526V36.9474C28 37.5287 28.4477 38 29 38C29.5523 38 30 37.5287 30 36.9474ZM30 20.1053H32C34.2091 20.1053 36 21.9904 36 24.3158C36 26.6412 34.2091 28.5263 32 28.5263H30V20.1053Z" fill="#0db14b"/>
<path d="M52 69.9474V63.6316H54C57.3137 63.6316 60 60.8039 60 57.3158C60 53.8277 57.3137 51 54 51H51C50.4477 51 50 51.4713 50 52.0526V69.9474C50 70.5287 50.4477 71 51 71C51.5523 71 52 70.5287 52 69.9474ZM52 53.1053H54C56.2091 53.1053 58 54.9904 58 57.3158C58 59.6412 56.2091 61.5263 54 61.5263H52V53.1053Z" fill="#F47922"/>
<path d="M13 45L73 45" stroke="white"/>
<path d="M25.8516 58.5V52.5C25.8516 51.9477 26.2993 51.5 26.8516 51.5H37.2325C37.7848 51.5 38.2325 51.9477 38.2325 52.5V58.5M25.8516 58.5V74H38.2325V58.5M25.8516 58.5H38.2325" stroke="white"/>
<path d="M60.6172 31.5V37.5C60.6172 38.0523 60.1695 38.5 59.6172 38.5H49.2362C48.6839 38.5 48.2362 38.0523 48.2362 37.5V31.5M60.6172 31.5V16H48.2362V31.5M60.6172 31.5H48.2362" stroke="white"/>
<path d="M20.6172 14.5V75.5" stroke="white"/>
<path d="M43.4766 14V75" stroke="white"/>
<path d="M65.3828 14V75" stroke="white"/>
</svg>
