<svg width="90" height="90" viewBox="0 0 90 90" fill="none" xmlns="http://www.w3.org/2000/svg">
<path d="M61.0004 75C53.2732 75 47 68.73 47 61C47 53.27 53.2732 47 61.0004 47C68.7277 47 75.0008 40.7302 75.0008 33.0002C75.0008 25.2702 68.7277 19.0002 61.0004 19.0002H55.0003" stroke="#0db14b" stroke-width="2" stroke-miterlimit="10" stroke-linecap="round" stroke-linejoin="round"/>
<path d="M27 28L31.0001 30V26.0001L35.0003 28" stroke="#F47922" stroke-width="2" stroke-miterlimit="10" stroke-linecap="round" stroke-linejoin="round"/>
<path d="M42.0083 27.0001C42.5964 24.6501 44.7084 23.0001 47.1315 23.0001C50.6036 23.0001 55.0087 23.0001 55.0087 23.0001V15.0001C55.0087 15.0001 44.3825 15.0001 35.3773 15.0001C28.1081 15.0001 21.7708 19.9501 20.0079 27.0001L17.0078 39H39.0082L42.0083 27.0001Z" stroke="white" stroke-width="2" stroke-miterlimit="10" stroke-linecap="round" stroke-linejoin="round"/>
<path d="M20.0079 39.0001L17.0078 51H33.0082L36.0083 39.0001H20.0079Z" stroke="white" stroke-width="2" stroke-miterlimit="10" stroke-linecap="round" stroke-linejoin="round"/>
<path d="M15 39H41.0007" stroke="white" stroke-width="2" stroke-miterlimit="10" stroke-linecap="round" stroke-linejoin="round"/>
</svg>
