<svg width="90" height="90" viewBox="0 0 90 90" fill="none" xmlns="http://www.w3.org/2000/svg">
<path d="M30.502 32.5125H18.933C16.7643 32.5125 15 34.2769 15 36.4455V49.3326C15 50.8628 16.2448 52.1077 17.7751 52.1077C18.1116 52.1077 18.3745 52.1075 18.5784 52.1072V68.9941C18.5784 70.5243 19.8232 71.7693 21.3536 71.7693C22.8839 71.7693 24.1287 70.5244 24.1287 68.9941V53.6295C24.1287 53.3386 24.3654 53.1019 24.6565 53.1019H24.7786C25.0695 53.1019 25.3062 53.3386 25.3062 53.6295V68.9942C25.3062 70.5244 26.5512 71.7694 28.0815 71.7694C29.6117 71.7694 30.8566 70.5246 30.8566 68.9942V52.1073C31.0605 52.1076 31.3235 52.1079 31.6599 52.1079C33.1901 52.1079 34.4351 50.8629 34.4351 49.3327V36.4457C34.4351 34.2769 32.6706 32.5125 30.502 32.5125ZM33.1431 49.3327C33.1431 50.1506 32.4778 50.8159 31.6599 50.8159C31.3215 50.8159 31.06 50.8157 30.8566 50.8154V37.5072C30.8566 37.1504 30.5674 36.8612 30.2107 36.8612C29.8539 36.8612 29.5647 37.1504 29.5647 37.5072V51.4594V68.9944C29.5647 69.8122 28.8993 70.4776 28.0814 70.4776C27.2635 70.4776 26.5981 69.8122 26.5981 68.9944V53.6295C26.5981 52.6263 25.7819 51.81 24.7786 51.81H24.6565C23.6531 51.81 22.8368 52.6263 22.8368 53.6295V68.9942C22.8368 69.8121 22.1714 70.4775 21.3536 70.4775C20.5357 70.4775 19.8703 69.8121 19.8703 68.9942V51.4593V37.5072C19.8703 37.1504 19.5812 36.8612 19.2244 36.8612C18.8676 36.8612 18.5784 37.1504 18.5784 37.5072V50.8154C18.3749 50.8157 18.1135 50.8159 17.7751 50.8159C16.9573 50.8159 16.2919 50.1506 16.2919 49.3327V36.4457C16.2919 34.9893 17.4766 33.8045 18.933 33.8045H30.502C31.9583 33.8045 33.1431 34.9893 33.1431 36.4457V49.3327Z" fill="white"/>
<path d="M24.7151 19.0781C21.413 19.0781 18.7266 21.7646 18.7266 25.0667C18.7266 28.3688 21.413 31.0552 24.7151 31.0552C28.0172 31.0552 30.7036 28.3688 30.7036 25.0667C30.7036 21.7646 28.0172 19.0781 24.7151 19.0781ZM24.7151 29.7634C22.1254 29.7634 20.0185 27.6564 20.0185 25.0668C20.0185 22.4771 22.1255 20.3702 24.7151 20.3702C27.3048 20.3702 29.4117 22.4772 29.4117 25.0668C29.4117 27.6564 27.3047 29.7634 24.7151 29.7634Z" fill="#0db14b"/>
<path d="M64.7151 19.0781C61.413 19.0781 58.7266 21.7646 58.7266 25.0667C58.7266 28.3688 61.413 31.0552 64.7151 31.0552C68.0172 31.0552 70.7036 28.3688 70.7036 25.0667C70.7036 21.7646 68.0172 19.0781 64.7151 19.0781ZM64.7151 29.7634C62.1254 29.7634 60.0185 27.6564 60.0185 25.0668C60.0185 22.4771 62.1255 20.3702 64.7151 20.3702C67.3048 20.3702 69.4117 22.4772 69.4117 25.0668C69.4117 27.6564 67.3047 29.7634 64.7151 29.7634Z" fill="#F47922"/>
<path d="M74.9097 46.5251L72.561 35.3697C72.2124 33.7143 70.7316 32.5127 69.0398 32.5127H60.3622C58.6705 32.5127 57.1896 33.7143 56.841 35.3697L54.4921 46.5251C54.2676 47.5912 54.5327 48.6879 55.219 49.534C55.7384 50.174 56.4481 50.607 57.2346 50.7801L56.4375 54.5683C56.3973 54.7589 56.4454 54.9572 56.5679 55.1083C56.6905 55.2593 56.8748 55.3472 57.0695 55.3472H59.7966V55.6978C59.7966 55.7113 59.797 55.725 59.798 55.7385L60.6704 69.5761C60.7479 70.8061 61.774 71.7695 63.0064 71.7695C63.6724 71.7695 64.2743 71.4898 64.701 71.0418C65.1277 71.4898 65.7296 71.7695 66.3956 71.7695C67.6279 71.7695 68.654 70.8061 68.7316 69.5761L69.604 55.7385C69.6049 55.725 69.6053 55.7113 69.6053 55.6978V55.3472H72.3323C72.527 55.3472 72.7112 55.2594 72.8339 55.1083C72.9566 54.957 73.0045 54.7587 72.9643 54.5682L72.1663 50.7802C72.9533 50.6073 73.6633 50.1742 74.1828 49.5337C74.8694 48.6877 75.1342 47.5911 74.9097 46.5251ZM64.055 69.4288C64.055 70.0071 63.5845 70.4775 63.0064 70.4775C62.4542 70.4775 61.9945 70.0459 61.9598 69.4948L61.0887 55.6773V55.3472H64.0551L64.055 69.4288ZM68.3134 55.6773L67.4423 69.4948C67.4076 70.0459 66.9479 70.4775 66.3957 70.4775C65.8175 70.4775 65.3471 70.0069 65.3471 69.4288V55.3472H68.3135V55.6773H68.3134ZM73.1797 48.7198C72.8495 49.1268 72.3993 49.4034 71.9002 49.5161L69.3424 37.3741C69.2687 37.025 68.9248 36.8018 68.5771 36.8751C68.228 36.9487 68.0046 37.2912 68.0781 37.6403L71.5361 54.0553H57.8657L58.6443 50.3551C58.6451 50.3513 58.646 50.3476 58.6467 50.3438L61.3199 37.6403C61.3935 37.2912 61.1699 36.9487 60.8208 36.8752C60.4725 36.8019 60.1291 37.0252 60.0557 37.3744L57.5007 49.516C57.002 49.4032 56.5523 49.1266 56.2224 48.7199C55.7823 48.1775 55.6125 47.4747 55.7564 46.7914L58.1052 35.6359C58.3286 34.5747 59.2778 33.8046 60.3622 33.8046H69.0399C70.1243 33.8046 71.0734 34.5747 71.2969 35.6359L73.6456 46.7914C73.7894 47.4746 73.6196 48.1775 73.1797 48.7198Z" fill="white"/>
<path d="M47.6324 15H44.0678C43.7111 15 43.4219 15.2892 43.4219 15.646V75.0747C43.4219 75.4315 43.7111 75.7207 44.0678 75.7207H47.6324C47.9891 75.7207 48.2783 75.4315 48.2783 75.0747V15.646C48.2783 15.2892 47.9891 15 47.6324 15ZM46.9864 74.4288H44.7138V16.2919H46.9864V74.4288Z" fill="white"/>
</svg>
