<svg width="90" height="90" viewBox="0 0 90 90" fill="none" xmlns="http://www.w3.org/2000/svg">
<path d="M15 70H74.9993V66.4823H15V70Z" stroke="white" stroke-width="1.4" stroke-miterlimit="10" stroke-linecap="round" stroke-linejoin="round"/>
<path d="M20 59.4533V38.0584M69.9998 45.0908V66.4824H20V63.553M69.9998 38.0584V40.9879" stroke="white" stroke-width="1.4" stroke-miterlimit="10" stroke-linecap="round" stroke-linejoin="round"/>
<path d="M26.1696 21.0954L24.9995 33.0588H15L17.3442 21.0954H26.1696Z" stroke="white" stroke-width="1.4" stroke-miterlimit="10" stroke-linecap="round" stroke-linejoin="round"/>
<path d="M74.9936 33.0588L72.6494 21.0954H63.8203" stroke="white" stroke-width="1.4" stroke-miterlimit="10" stroke-linecap="round" stroke-linejoin="round"/>
<path d="M26.1719 21.0947H35.5861" stroke="white" stroke-width="1.4" stroke-miterlimit="10" stroke-linecap="round" stroke-linejoin="round"/>
<path d="M54.4141 21.0952L54.9993 33.0586H65.0021L63.828 21.0952H54.4141Z" stroke="white" stroke-width="1.4" stroke-miterlimit="10" stroke-linecap="round" stroke-linejoin="round"/>
<path d="M44.9914 21.0952V33.0586H34.9922L35.5775 21.0952H44.9914Z" stroke="white" stroke-width="1.4" stroke-miterlimit="10" stroke-linecap="round" stroke-linejoin="round"/>
<path d="M54.414 21.0947H45" stroke="white" stroke-width="1.4" stroke-miterlimit="10" stroke-linecap="round" stroke-linejoin="round"/>
<path d="M24.9995 33.0578C24.9995 35.8059 22.7478 38.0574 19.9999 38.0574C17.2485 38.0574 15 35.8091 15 33.0578H24.9995Z" stroke="#0db14b" stroke-width="1.4" stroke-miterlimit="10" stroke-linecap="round" stroke-linejoin="round"/>
<path d="M65 33.0578C65 35.8059 67.2482 38.0574 69.9996 38.0574C72.7475 38.0574 74.9992 35.8091 74.9992 33.0578H65Z" stroke="#0db14b" stroke-width="1.4" stroke-miterlimit="10" stroke-linecap="round" stroke-linejoin="round"/>
<path d="M34.9992 33.0578C34.9992 35.8059 32.7508 38.0574 29.9996 38.0574C27.2482 38.0574 25 35.8091 25 33.0578H34.9992Z" stroke="#0db14b" stroke-width="1.4" stroke-miterlimit="10" stroke-linecap="round" stroke-linejoin="round"/>
<path d="M55 33.0578C55 35.8059 57.2517 38.0574 59.9996 38.0574C62.751 38.0574 65.0027 35.8091 65.0027 33.0578H55Z" stroke="#0db14b" stroke-width="1.4" stroke-miterlimit="10" stroke-linecap="round" stroke-linejoin="round"/>
<path d="M44.9914 33.0578C44.9914 35.8059 42.7432 38.0574 39.9918 38.0574C37.2439 38.0574 34.9922 35.8091 34.9922 33.0578H44.9914Z" stroke="#0db14b" stroke-width="1.4" stroke-miterlimit="10" stroke-linecap="round" stroke-linejoin="round"/>
<path d="M45 33.0578C45 35.8059 47.2517 38.0574 49.9996 38.0574C52.751 38.0574 54.9992 35.8091 54.9992 33.0578H45Z" stroke="#0db14b" stroke-width="1.4" stroke-miterlimit="10" stroke-linecap="round" stroke-linejoin="round"/>
<path d="M26.4531 66.4822H63.5483V42.3942H26.4531V66.4822Z" stroke="white" stroke-width="1.4" stroke-miterlimit="10" stroke-linecap="round" stroke-linejoin="round"/>
<path d="M47.9463 46.8943H26.4453V42.3943H63.5406V46.8943H52.0459" stroke="white" stroke-width="1.4" stroke-miterlimit="10" stroke-linecap="round" stroke-linejoin="round"/>
<path d="M41.8557 62.03V66.4822M41.8557 62.03H45.8971M41.8557 62.03L40.8359 57.133M45.3665 62.03V66.4822M58.1412 62.03V66.4822M58.1412 62.03H54.0996M58.1412 62.03L59.1643 57.133M54.6337 62.03V66.4822M45.3119 58.6592H50M54.6884 58.6592H50M50 66.4822V58.6592" stroke="white" stroke-width="1.4" stroke-miterlimit="10" stroke-linecap="round" stroke-linejoin="round"/>
<path d="M33.1719 57.6433V55.7372" stroke="white" stroke-width="1.4" stroke-miterlimit="10" stroke-linecap="round" stroke-linejoin="round"/>
<path d="M26.4531 66.4822H36.692V46.8942H26.4531V66.4822Z" stroke="#F47922" stroke-width="1.4" stroke-miterlimit="10" stroke-linecap="round" stroke-linejoin="round"/>
</svg>
