<svg width="90" height="90" viewBox="0 0 90 90" fill="none" xmlns="http://www.w3.org/2000/svg">
<path d="M64 27L27 64" stroke="white"/>
<mask id="mask0_8189_20121" style="mask-type:luminance" maskUnits="userSpaceOnUse" x="15" y="15" width="60" height="60">
<path d="M15 15H75V75H15V15Z" fill="white"/>
</mask>
<g mask="url(#mask0_8189_20121)">
<path d="M55.5408 15.8789H34.4671C33.4904 15.8789 32.5536 16.2669 31.863 16.9576L16.9615 31.8589C16.2708 32.5497 15.8828 33.4863 15.8828 34.4631V55.5369C15.8828 56.5137 16.2708 57.4504 16.9615 58.1411L31.863 73.0424C32.5536 73.7331 33.4904 74.1211 34.4671 74.1211H55.5408C56.5176 74.1211 57.4544 73.7331 58.145 73.0424L73.0464 58.1411C73.737 57.4504 74.125 56.5137 74.125 55.5369V34.4631C74.125 33.4863 73.737 32.5497 73.0464 31.8589L58.145 16.9576C57.4544 16.2669 56.5176 15.8789 55.5408 15.8789Z" stroke="#0db14b" stroke-width="1.4" stroke-miterlimit="10" stroke-linecap="round" stroke-linejoin="round"/>
<path d="M66.3146 59.888L70.0114 56.1911C70.3884 55.8141 70.6002 55.3029 70.6002 54.7697V35.2297C70.6002 34.6966 70.3884 34.1854 70.0114 33.8084L56.1946 19.9915C55.8176 19.6145 55.3063 19.4027 54.7732 19.4027H35.2332C34.7002 19.4027 34.1889 19.6145 33.8119 19.9915L19.995 33.8084C19.618 34.1854 19.4062 34.6966 19.4062 35.2297V54.7697C19.4062 55.3029 19.618 55.8141 19.995 56.1911L33.8119 70.0079C34.1889 70.3849 34.7002 70.5967 35.2332 70.5967H54.7732C55.3063 70.5967 55.8176 70.3849 56.1946 70.0079L64.0337 62.1688" stroke="#F47922" stroke-width="1.4" stroke-miterlimit="10" stroke-linecap="round" stroke-linejoin="round"/>
<path d="M34.5078 50.0238V36.944C34.5078 35.7949 35.4394 34.8633 36.5886 34.8633C37.7377 34.8633 38.6692 35.7949 38.6692 36.944V45.7795V31.6089C38.6692 30.3218 39.7127 29.2784 40.9999 29.2784C42.2871 29.2784 43.3304 30.3218 43.3304 31.6089V45.4158V29.555C43.3304 28.2635 44.3774 27.2166 45.6688 27.2166C46.9601 27.2166 48.0071 28.2635 48.0071 29.555V44.955L48.0072 32.8833C48.0072 31.7464 48.9289 30.8248 50.0659 30.8248C51.2028 30.8248 52.1244 31.7464 52.1244 32.8833V49.0808C52.1244 49.544 52.6979 49.7606 53.0041 49.4129L55.1825 46.9401C56.1826 45.8047 57.8701 45.5882 59.1245 46.4341L59.9697 47.004L53.1285 59.1744C51.9067 61.3481 49.6071 62.6934 47.1137 62.6934H44.092H41.4078C37.5971 62.6934 34.5078 59.6041 34.5078 55.7934V54.2941" stroke="white" stroke-width="1.4" stroke-miterlimit="10" stroke-linecap="round" stroke-linejoin="round"/>
</g>
</svg>
